<svg data-strokesvg="ァ" viewBox="0 0 1024 1024" xmlns="http://www.w3.org/2000/svg">
  <defs>
    <clipPath id="30a1c">
      <use href="#30a1a"/>
    </clipPath>
    <clipPath id="30a1d">
      <use href="#30a1b"/>
    </clipPath>
  </defs>
  <g data-strokesvg="shadows" style="fill:var(--shadow,#ccc)">
    <path id="30a1a" d="M754 379h-4l-52 5-90 9-223 25-99 13-7 1-12-2-13-4-16-2-7 1q-3 2-3 6 0 5 8 21 7 14 19 26t25 12l8-1 10-2a4210 4210 0 0 1 261-32l119-14a1600 1600 0 0 1-132 115c-71 55-46 74-18 59a2094 2094 0 0 0 253-175q17-9 17-21 0-6-3-9-3-6-15-19-11-12-26-12"/>
    <path id="30a1b" d="m546 556 1-6v-5q0-15-16-23-15-7-32-9l-23-2q-8 0-10 3l-2 8 3 13a46 46 0 0 1 8 22v11q-12 61-38 118a869 869 0 0 1-155 238l-12 11q-6 6-6 12l2 6q3 4 9 4 14 0 38-19 25-20 55-53a968 968 0 0 0 117-171q27-49 43-99z"/>
  </g>
  <g data-strokesvg="strokes" style="stroke:var(--stroke,#000);fill:none;stroke-width:128;stroke-linecap:round">
    <path style="--i:0" d="M163 435c249 21 493-81 623-61L550 580" clip-path="url(#30a1c)"/>
    <path style="--i:1" d="M479 445c83 212-166 470-166 470" clip-path="url(#30a1d)"/>
  </g>
</svg>
