<svg data-strokesvg="ア" viewBox="0 0 1024 1024" xmlns="http://www.w3.org/2000/svg">
  <defs>
    <clipPath id="30a2c">
      <use href="#30a2a"/>
    </clipPath>
    <clipPath id="30a2d">
      <use href="#30a2b"/>
    </clipPath>
  </defs>
  <g data-strokesvg="shadows" style="fill:var(--shadow,#ccc)">
    <path id="30a2a" d="M815 203h-5l-314 34a9013 9013 0 0 0-270 34h-11l-6-2-14-4q-8-3-17-3l-7 1q-4 1-4 7l7 21q9 16 22 32 12 15 29 15l24-3q86-15 173-27l170-21 148-19a2192 2192 0 0 1-192 164c-56 42-82 98-17 64l78-51a3019 3019 0 0 0 216-160l12-7 10-7q17-9 17-23 0-6-6-17t-17-19-26-9"/>
    <path id="30a2b" d="m548 432 3-19q0-16-15-24-16-9-35-12-19-4-30-4-7 0-13 2t-5 8q0 7 5 13 6 6 10 18l2 10 1 11v4q-15 78-49 153t-75 138a1194 1194 0 0 1-148 191q-5 7-5 16l1 7q1 4 10 4 11 0 41-22t68-64a1075 1075 0 0 0 157-222q38-69 60-144z"/>
  </g>
  <g data-strokesvg="strokes" style="stroke:var(--stroke,#000);fill:none;stroke-width:128;stroke-linecap:round">
    <path style="--i:0" d="M103 245c146 107 431-31 741-55 62-4-75 104-305 274" clip-path="url(#30a2c)"/>
    <path style="--i:1" d="M428 315c181 120-50 407-187 590" clip-path="url(#30a2d)"/>
  </g>
</svg>
