<svg data-strokesvg="ィ" viewBox="0 0 1024 1024" xmlns="http://www.w3.org/2000/svg">
  <defs>
    <clipPath id="30a3c">
      <use href="#30a3a"/>
    </clipPath>
    <clipPath id="30a3d">
      <use href="#30a3b"/>
    </clipPath>
  </defs>
  <g data-strokesvg="shadows" style="fill:var(--shadow,#ccc)">
    <path id="30a3a" d="M649 486q39-38 61-65 21-28 21-37t-15-19a133 133 0 0 0-56-26l-6 3q-3 2-3 8l1 7 1 10-1 3v3q-7 29-45 69-36 41-94 87a1576 1576 0 0 1-284 182q-24 12-24 25l1 4q4 6 12 6 12 0 42-11 31-11 72-32 42-20 88-47c64-36 159-99 229-170"/>
    <path id="30a3b" d="M505 900v4l10 35q6 19 27 19l8-1q12-1 17-16 6-15 5-28V797l2-166v-40q0-11-4-17-3-4-12-9c-38-18-55 13-47 34l1 6v39l-1 67-1 84v79l-3 12z"/>
  </g>
  <g data-strokesvg="strokes" style="stroke:var(--stroke,#000);fill:none;stroke-width:128;stroke-linecap:round">
    <path style="--i:0" d="M710 287c-32 269-448 428-448 428" clip-path="url(#30a3c)"/>
    <path style="--i:1" d="m539 495 3 401" clip-path="url(#30a3d)"/>
  </g>
</svg>
