<svg data-strokesvg="イ" viewBox="0 0 1024 1024" xmlns="http://www.w3.org/2000/svg">
  <defs>
    <clipPath id="30a4c">
      <use href="#30a4a"/>
    </clipPath>
    <clipPath id="30a4d">
      <use href="#30a4b"/>
    </clipPath>
  </defs>
  <g data-strokesvg="shadows" style="fill:var(--shadow,#ccc)">
    <path id="30a4a" d="M580 442a1390 1390 0 0 0 200-192c13-16 19-28 19-37 0-10-6-18-18-27-11-8-23-14-36-19-12-6-22-8-27-8-6 0-10 1-12 5-2 1-3 3-3 6s2 7 4 10c2 4 3 8 3 14v3c-2 11-12 30-30 57-18 26-48 58-90 97s-99 84-171 133c-72 50-162 103-271 160-19 10-29 19-29 29l1 4c2 3 6 4 13 4 8 0 25-5 51-14a1207 1207 0 0 0 218-107c45-25 89-53 134-85z"/>
    <path id="30a4b" d="M529 894v3l5 18c2 11 7 22 13 31 6 10 14 16 24 16l8-1c7-2 13-9 17-21 5-12 7-23 7-35V798a3970 3970 0 0 0 2-185l1-74v-38c0-18-1-30-3-37s-10-14-23-22c-48-26-52 11-44 33l2 9v40l-1 68a3751 3751 0 0 1-2 171v102c0 3-1 7-4 12l-2 17z"/>
  </g>
  <g data-strokesvg="strokes" style="stroke:var(--stroke,#000);fill:none;stroke-width:128;stroke-linecap:round">
    <path style="--i:0" d="M721 91c150 270-548 565-548 565" clip-path="url(#30a4c)"/>
    <path style="--i:1" d="m540 367 32 538" clip-path="url(#30a4d)"/>
  </g>
</svg>
