<svg data-strokesvg="ゥ" viewBox="0 0 1024 1024" xmlns="http://www.w3.org/2000/svg">
  <defs>
    <clipPath id="30a5d">
      <use href="#30a5a"/>
    </clipPath>
    <clipPath id="30a5e">
      <use href="#30a5b"/>
    </clipPath>
    <clipPath id="30a5f">
      <use href="#30a5c"/>
    </clipPath>
  </defs>
  <g data-strokesvg="shadows" style="fill:var(--shadow,#ccc)">
    <path id="30a5a" d="m493 361 1 114c0 31 60 39 59-5l1-105v-12c0-11-3-20-9-27-6-8-23-12-51-12-6 0-17 1-17 9 0 4 2 8 4 12 4 3 6 6 7 8 3 6 5 12 5 18z"/>
    <path id="30a5b" d="M338 473c-3-9-8-18-13-27-5-8-10-13-16-13-4 0-8 2-11 5-5 4-8 11-8 21 0 8 1 17 5 27a656 656 0 0 1 17 172c0 12 9 25 15 33 8 10 16 15 25 15l6-1c13-5 20-18 20-41l-5-43c-9-49-17-102-35-148z"/>
    <path id="30a5c" d="m394 485-51 3c-47 2-19 60 15 57a5833 5833 0 0 0 135-15 4581 4581 0 0 1 200-17 718 718 0 0 1-150 265 840 840 0 0 1-164 144c-6 3-11 7-17 13-5 5-8 10-8 13l2 5c2 3 6 4 12 4 7 0 22-6 46-18s52-29 84-53a824 824 0 0 0 198-215c30-48 54-102 72-162 1-5 3-9 6-12 4-4 5-9 5-13 0-7-6-14-17-21s-20-10-28-10l-27 3-68 6-245 23z"/>
  </g>
  <g data-strokesvg="strokes" style="stroke:var(--stroke,#000);fill:none;stroke-width:128;stroke-linecap:round">
    <path style="--i:0" d="m482 249 40 189" clip-path="url(#30a5d)"/>
    <path style="--i:1" d="m290 368 58 275" clip-path="url(#30a5e)"/>
    <path style="--i:2" d="M253 510c201 15 351-67 539-70-176 365-385 478-385 478" clip-path="url(#30a5f)"/>
  </g>
</svg>
