<svg data-strokesvg="ウ" viewBox="0 0 1024 1024" xmlns="http://www.w3.org/2000/svg">
  <defs>
    <clipPath id="30a6d">
      <use href="#30a6a"/>
    </clipPath>
    <clipPath id="30a6e">
      <use href="#30a6b"/>
    </clipPath>
    <clipPath id="30a6f">
      <use href="#30a6c"/>
    </clipPath>
  </defs>
  <g data-strokesvg="shadows" style="fill:var(--shadow,#ccc)">
    <path id="30a6a" d="m487 179 1 157c3 34 66 34 66-6v-52l1-44v-66l-3-18q-3-11-17-17-15-7-49-7-18 0-20 5v2q0 6 6 11 7 6 10 15 3 4 3 9 2 4 2 11"/>
    <path id="30a6b" d="M285 354q-9-25-21-50-11-24-23-24-6 0-16 6-3 1-5 7l-1 10 3 22 4 17 12 51 8 62 8 87v3l-1 11-1 11v3l1 4q3 17 16 33 14 16 29 16h3l2-1q12-3 16-14 6-11 6-35l-3-30a818 818 0 0 0-21-127z"/>
    <path id="30a6c" d="m488 336-203 18c-41 2-20 64 16 62l43-3a5142 5142 0 0 1 202-21l215-19q-37 113-93 204a1060 1060 0 0 1-241 273q-57 46-97 75-29 19-29 27l3 6q3 6 12 6 13 0 49-18 35-16 84-49a909 909 0 0 0 216-198 950 950 0 0 0 184-342l3-5 1-6q0-10-14-24a48 48 0 0 0-37-16 1890 1890 0 0 0-131 12l-117 12z"/>
  </g>
  <g data-strokesvg="strokes" style="stroke:var(--stroke,#000);fill:none;stroke-width:128;stroke-linecap:round">
    <path style="--i:0" d="m472 59 45 240" clip-path="url(#30a6d)"/>
    <path style="--i:1" d="m218 216 78 346" clip-path="url(#30a6e)"/>
    <path style="--i:2" d="m197 393 641-97C657 793 356 937 356 937" clip-path="url(#30a6f)"/>
  </g>
</svg>
