<svg data-strokesvg="ウ" viewBox="0 0 1024 1024" xmlns="http://www.w3.org/2000/svg">
  <defs>
    <clipPath id="30a6d">
      <use href="#30a6a"/>
    </clipPath>
    <clipPath id="30a6e">
      <use href="#30a6b"/>
    </clipPath>
    <clipPath id="30a6f">
      <use href="#30a6c"/>
    </clipPath>
  </defs>
  <g data-strokesvg="shadows" style="fill:var(--shadow,#ccc)">
    <path id="30a6a" d="m487 179 1 157c3 34 66 34 66-6v-52l1-44v-66l-3-18c-2-7-8-13-17-17-10-5-26-7-49-7-12 0-19 2-20 5v2c0 4 2 7 6 11s8 9 10 15c2 2 3 6 3 9 2 3 2 6 2 11z"/>
    <path id="30a6b" d="M285 354c-6-17-13-33-21-50-7-16-15-24-23-24-4 0-10 2-16 6-2 1-4 3-5 7l-1 10 3 22 4 17 12 51 8 62a1137 1137 0 0 1 8 87v3l-1 11-1 11v3l1 4c2 11 7 22 16 33 10 10 19 16 29 16h3l2-1c8-2 13-7 16-14 4-7 6-19 6-35l-3-30a818 818 0 0 0-21-127z"/>
    <path id="30a6c" d="M488 336a11261 11261 0 0 1-203 18c-41 2-20 64 16 62l43-3a5142 5142 0 0 1 202-21 10985 10985 0 0 1 215-19c-25 76-56 143-93 204a1060 1060 0 0 1-241 273c-38 31-71 56-97 75-19 13-29 22-29 27l3 6c2 4 6 6 12 6 9 0 25-6 49-18a909 909 0 0 0 300-247 950 950 0 0 0 184-342l3-5 1-6c0-7-5-15-14-24a48 48 0 0 0-37-16 1890 1890 0 0 0-131 12l-117 12z"/>
  </g>
  <g data-strokesvg="strokes" style="stroke:var(--stroke,#000);fill:none;stroke-width:128;stroke-linecap:round">
    <path style="--i:0" d="m472 59 45 240" clip-path="url(#30a6d)"/>
    <path style="--i:1" d="m218 216 78 346" clip-path="url(#30a6e)"/>
    <path style="--i:2" d="m197 393 641-97C657 793 356 937 356 937" clip-path="url(#30a6f)"/>
  </g>
</svg>
