<svg data-strokesvg="ェ" viewBox="0 0 1024 1024" xmlns="http://www.w3.org/2000/svg">
  <defs>
    <clipPath id="30a7d">
      <use href="#30a7a"/>
    </clipPath>
    <clipPath id="30a7e">
      <use href="#30a7b"/>
    </clipPath>
    <clipPath id="30a7f">
      <use href="#30a7c"/>
    </clipPath>
  </defs>
  <g data-strokesvg="shadows" style="fill:var(--shadow,#ccc)">
    <path id="30a7a" d="m646 555 53-9q17-4 20-7 4-5 4-11v-4q-2-12-18-23-17-12-31-12h-3q-6 0-9 3l-10 4q-5 3-35 8a2948 2948 0 0 1-253 35h-24l-15-4q-10-5-17-5c-8 0-8 3-8 9q0 9 6 22 7 12 19 23 12 10 25 10l35-3c88-11 171-21 261-36"/>
    <path id="30a7b" d="M543 810c-1-70 3-140 3-210l1-7 1-7q0-7-8-15c-26-27-68-24-61 8q3 4 4 10 3 6 2 11l1 215c1 37 55 30 57-5"/>
    <path id="30a7c" d="M827 835v-2q0-9-10-18-9-9-20-15-12-7-18-7h-2q-7 0-14 3l-11 3q-51 1-103 4a5521 5521 0 0 0-383 36h-7l-14-3-11-5-11-2-5 1-2 8 4 17q6 15 16 29 11 13 29 13h9l13-2q57-9 140-17 83-10 178-15 96-6 188-7 12 0 23-4 11-5 11-17"/>
  </g>
  <g data-strokesvg="strokes" style="stroke:var(--stroke,#000);fill:none;stroke-width:128;stroke-linecap:round">
    <path style="--i:0" d="m235 549 426-21" clip-path="url(#30a7d)"/>
    <path style="--i:1" d="m508 487 5 290" clip-path="url(#30a7e)"/>
    <path style="--i:2" d="m151 849 613-15" clip-path="url(#30a7f)"/>
  </g>
</svg>
