<svg data-strokesvg="エ" viewBox="0 0 1024 1024" xmlns="http://www.w3.org/2000/svg">
  <defs>
    <clipPath id="30a8d">
      <use href="#30a8a"/>
    </clipPath>
    <clipPath id="30a8e">
      <use href="#30a8b"/>
    </clipPath>
    <clipPath id="30a8f">
      <use href="#30a8c"/>
    </clipPath>
  </defs>
  <g data-strokesvg="shadows" style="fill:var(--shadow,#ccc)">
    <path id="30a8a" d="M541 379a14427 14427 0 0 0 201-31c17-4 27-8 32-12 6-4 8-9 8-15 0-7-5-16-16-25a59 59 0 0 0-42-14c-8 0-14 1-17 4l-11 5c-7 3-21 6-42 10l-75 12a7981 7981 0 0 1-283 33h-7l-8-1a936 936 0 0 1-35-7l-6 1c-4 2-6 5-6 9s3 10 8 21c5 9 13 18 22 27 10 9 20 14 32 14l27-2a3184 3184 0 0 0 146-19z"/>
    <path id="30a8b" d="M544 707a10117 10117 0 0 0 3-232v-26l1-38v-11l-1-10-6-11c-43-42-91-2-72 10 6 5 9 12 9 22v36l1 26v109l1 130c0 39 63 55 64-5z"/>
    <path id="30a8c" d="M916 736v-4c0-5-3-11-10-18-7-8-14-14-23-20-9-5-15-8-21-8h-5l-15 2-15 3-92 3a4700 4700 0 0 0-191 13l-64 5a8863 8863 0 0 0-294 31h-4a117 117 0 0 1-38-6l-9-2-7 1c-2 1-3 4-3 9 0 6 2 13 7 23s11 19 19 28c7 8 15 13 23 14l6 1 14-1 17-3a4275 4275 0 0 1 482-44c63-4 125-6 187-6 11 0 20-1 26-3 7-3 10-9 10-18z"/>
  </g>
  <g data-strokesvg="strokes" style="stroke:var(--stroke,#000);fill:none;stroke-width:128;stroke-linecap:round">
    <path style="--i:0" d="m168 350 557-9" clip-path="url(#30a8d)"/>
    <path style="--i:1" d="m481 296 32 389" clip-path="url(#30a8e)"/>
    <path style="--i:2" d="m59 750 125-1 672-5" clip-path="url(#30a8f)"/>
  </g>
</svg>
