<svg data-strokesvg="エ" viewBox="0 0 1024 1024" xmlns="http://www.w3.org/2000/svg">
  <defs>
    <clipPath id="30a8d">
      <use href="#30a8a"/>
    </clipPath>
    <clipPath id="30a8e">
      <use href="#30a8b"/>
    </clipPath>
    <clipPath id="30a8f">
      <use href="#30a8c"/>
    </clipPath>
  </defs>
  <g data-strokesvg="shadows" style="fill:var(--shadow,#ccc)">
    <path id="30a8a" d="m541 379 201-31q25-6 32-12 8-6 8-15 0-11-16-25a59 59 0 0 0-42-14q-12 0-17 4l-11 5q-10 4-42 10l-75 12a7981 7981 0 0 1-283 33h-7l-8-1-35-7-6 1q-6 3-6 9 0 5 8 21 8 14 22 27 15 14 32 14l27-2 146-19z"/>
    <path id="30a8b" d="m544 707 3-232v-26l1-38v-11l-1-10-6-11c-43-42-91-2-72 10q9 7 9 22v36l1 26v109l1 130c0 39 63 55 64-5"/>
    <path id="30a8c" d="M916 736v-4q0-7-10-18-10-12-23-20t-21-8h-5l-15 2-15 3-92 3-191 13-64 5a8863 8863 0 0 0-294 31h-4a117 117 0 0 1-38-6l-9-2-7 1q-3 2-3 9 0 9 7 23 7 15 19 28 11 12 23 14l6 1 14-1 17-3q56-9 132-16a4275 4275 0 0 1 350-28q94-6 187-6 17 0 26-3 10-4 10-18"/>
  </g>
  <g data-strokesvg="strokes" style="stroke:var(--stroke,#000);fill:none;stroke-width:128;stroke-linecap:round">
    <path style="--i:0" d="m168 350 557-9" clip-path="url(#30a8d)"/>
    <path style="--i:1" d="m481 296 32 389" clip-path="url(#30a8e)"/>
    <path style="--i:2" d="m59 750 125-1 672-5" clip-path="url(#30a8f)"/>
  </g>
</svg>
