<svg data-strokesvg="ォ" viewBox="0 0 1024 1024" xmlns="http://www.w3.org/2000/svg">
  <defs>
    <clipPath id="30a9d">
      <use href="#30a9a"/>
    </clipPath>
    <clipPath id="30a9e">
      <use href="#30a9b"/>
    </clipPath>
    <clipPath id="30a9f">
      <use href="#30a9c"/>
    </clipPath>
  </defs>
  <g data-strokesvg="shadows" style="fill:var(--shadow,#ccc)">
    <path id="30a9a" d="M708 534q34-4 70-6 12 0 23-5 14-6 10-20-2-12-18-24-16-11-30-13h-2q-7 0-13 4l-15 4-49 5s-102 10-184 24l-86 14-119 17h-2l-14-3-15-2q-4 0-6 3l-1 6q0 6 6 18 7 12 19 23 11 10 25 10l10-1 13-2 99-17c96-16 246-34 279-35"/>
    <path id="30a9b" d="m589 865-57-23q-29-12-44-21-6-5-16-5-12 1-12 10 0 5 13 18l75 63q23 18 41 28 18 11 27 11 12 0 19-8l12-12q4-6 4-21l-2-40-6-207-8-237-1-30v-10l1-10q0-16-11-23-10-8-24-10l-22-3q-15 0-19 6v2q0 5 5 11 6 6 7 11 4 7 4 36 9 233 14 464"/>
    <path id="30a9c" d="M582 604c55-64 12-121-35-52q-29 44-68 88a1508 1508 0 0 1-217 200q-7 4-15 10-7 6-7 12l1 4q5 6 11 6 13 1 49-20t84-58a1189 1189 0 0 0 197-190"/>
  </g>
  <g data-strokesvg="strokes" style="stroke:var(--stroke,#000);fill:none;stroke-width:128;stroke-linecap:round">
    <path style="--i:0" d="m192 554 557-46" clip-path="url(#30a9d)"/>
    <path style="--i:1" d="m569 270 90 637-144-56" clip-path="url(#30a9e)"/>
    <path style="--i:2" d="M650 483 294 834" clip-path="url(#30a9f)"/>
  </g>
</svg>
