<svg data-strokesvg="オ" viewBox="0 0 1024 1024" xmlns="http://www.w3.org/2000/svg">
  <defs>
    <clipPath id="30aad">
      <use href="#30aaa"/>
    </clipPath>
    <clipPath id="30aae">
      <use href="#30aab"/>
    </clipPath>
    <clipPath id="30aaf">
      <use href="#30aac"/>
    </clipPath>
  </defs>
  <g data-strokesvg="shadows" style="fill:var(--shadow,#ccc)">
    <path id="30aaa" d="M670 414q42-5 87-8l94-9q18-1 28-7 9-5 10-19v-2q0-10-10-18-11-9-24-15-12-7-20-7-11 0-20 5-9 4-18 4l-129 13-66 8q-88 11-171 24l-179 30h-5l-26-2-18-3-6 1q-4 3-4 7 0 7 7 18l14 21q10 12 18 16 10 4 20 4l15-1 18-3a8886 8886 0 0 1 281-45z"/>
    <path id="30aab" d="m606 489 12 372-73-32-78-38-7-1q-14 0-14 13 0 10 11 19l73 61 70 49q32 19 46 19 17 0 29-16 11-15 11-33l-16-488-2-63-5-136v-26q0-15-17-22-15-9-33-10l-22-2q-15 0-17 7v1q0 6 5 12l7 9q6 7 8 16 3 6 3 14l2 44 3 101z"/>
    <path id="30aac" d="M606 489c70-95 15-144-40-63q-47 77-112 148a1573 1573 0 0 1-276 242l-16 15q-9 9-9 15l1 4q3 4 10 4 17 0 65-27a1165 1165 0 0 0 246-191q70-66 131-147"/>
  </g>
  <g data-strokesvg="strokes" style="stroke:var(--stroke,#000);fill:none;stroke-width:128;stroke-linecap:round">
    <path style="--i:0" d="m126 420 704-34" clip-path="url(#30aad)"/>
    <path style="--i:1" d="M531 110c162 33 137 725 159 834-157-91-192-118-192-118" clip-path="url(#30aae)"/>
    <path style="--i:2" d="M679 343 209 825" clip-path="url(#30aaf)"/>
  </g>
</svg>
