<svg data-strokesvg="カ" viewBox="0 0 1024 1024" xmlns="http://www.w3.org/2000/svg">
  <defs>
    <clipPath id="30abc">
      <use href="#30aba"/>
    </clipPath>
    <clipPath id="30abd">
      <use href="#30abb"/>
    </clipPath>
  </defs>
  <g data-strokesvg="shadows" style="fill:var(--shadow,#ccc)">
    <path id="30aba" d="M777 338h-4l-95 13-133 19-76 10-203 27-30-3a478 478 0 0 0-28-6h-4c-6 1-8 4-8 11l4 16c3 10 9 21 18 32 9 10 21 15 37 15h9l23-3 54-8 105-16 76-11a13076 13076 0 0 1 222-31 2838 2838 0 0 1-63 280c-12 42-26 79-40 110-14 30-28 50-43 62l-73-31c-25-11-51-24-76-37-10-4-19-7-26-7-5 0-8 2-10 4l-2 4v5c0 2 5 9 15 20a1648 1648 0 0 0 92 77l49 33c15 8 26 13 33 13 8 0 14-2 21-7l19-17c20-18 39-44 56-78 17-35 33-74 46-119 15-46 28-95 39-148 12-52 22-106 32-160 1-6 3-11 6-16 4-5 6-11 6-16 0-8-5-16-17-24-11-9-21-13-31-13z"/>
    <path id="30abb" d="M545 370a1326 1326 0 0 0 51-197c0-12-6-21-17-27s-23-9-35-11l-24-3c-8 0-13 2-15 5l-1 3c0 4 2 8 5 13a51 51 0 0 1 10 29l-12 60c-8 37-20 83-38 138l-23 65a1329 1329 0 0 1-305 492c-3 7-5 13-5 17 0 5 3 8 7 8 9 0 28-12 56-34 28-23 61-56 99-101 38-44 77-99 117-164 39-67 75-143 107-229z"/>
  </g>
  <g data-strokesvg="strokes" style="stroke:var(--stroke,#000);fill:none;stroke-width:128;stroke-linecap:round">
    <path style="--i:0" d="M130 398c141 69 377-29 692-71 0 0-89 592-224 594-28 1-141-96-141-96" clip-path="url(#30abc)"/>
    <path style="--i:1" d="M449 96c268 77-81 677-268 822" clip-path="url(#30abd)"/>
  </g>
</svg>
