<svg data-strokesvg="ガ" viewBox="0 0 1024 1024" xmlns="http://www.w3.org/2000/svg">
  <defs>
    <clipPath id="30ace">
      <use href="#30aca"/>
    </clipPath>
    <clipPath id="30acf">
      <use href="#30acb"/>
    </clipPath>
    <clipPath id="30acg">
      <use href="#30acc"/>
    </clipPath>
    <clipPath id="30ach">
      <use href="#30acd"/>
    </clipPath>
  </defs>
  <g data-strokesvg="shadows" style="fill:var(--shadow,#ccc)">
    <path id="30aca" d="M777 338h-4l-95 13-133 19-76 10-203 27-30-3-28-6h-4q-9 1-8 11l4 16q4 15 18 32 13 15 37 15h9l23-3 54-8 105-16 76-11 222-31a2838 2838 0 0 1-63 280q-19 63-40 110-21 45-43 62l-73-31q-38-17-76-37-15-7-26-7-7 0-10 4l-2 4v5q0 3 15 20a1648 1648 0 0 0 92 77l49 33q23 13 33 13 11 0 21-7l19-17q30-27 56-78 26-52 46-119 23-69 39-148 18-78 32-160 2-9 6-16 6-8 6-16 1-12-17-24-16-13-31-13"/>
    <path id="30acb" d="M545 370a1326 1326 0 0 0 51-197q0-18-17-27-17-8-35-11l-24-3q-12 0-15 5l-1 3q0 6 5 13a51 51 0 0 1 10 29l-12 60q-12 56-38 138l-23 65q-46 129-117 246a1329 1329 0 0 1-188 246q-5 11-5 17 1 8 7 8 14 0 56-34t99-101q57-66 117-164 59-100 107-229z"/>
    <path id="30acc" d="M919 345q0-6-13-20-11-16-28-33l-33-33-26-22q-8-6-14-6-10 0-19 10-7 8-7 18 0 8 6 14 12 10 27 27l32 37q16 18 24 33 6 9 17 9 15 0 24-11 10-12 10-23"/>
    <path id="30acd" d="M986 315q9-11 9-25 0-8-4-14-14-16-37-38-21-23-42-39-20-18-29-18-11 0-20 9t-9 19q0 7 6 13 24 19 48 46 25 28 38 46 7 11 19 11 8 0 14-3z"/>
  </g>
  <g data-strokesvg="strokes" style="stroke:var(--stroke,#000);fill:none;stroke-width:128;stroke-linecap:round">
    <path style="--i:0" d="M130 398c141 69 377-29 692-71 0 0-89 592-224 594-28 1-141-96-141-96" clip-path="url(#30ace)"/>
    <path style="--i:1" d="M449 96c268 77-81 677-268 822" clip-path="url(#30acf)"/>
    <path style="--i:2" d="m742 191 123 137" clip-path="url(#30acg)"/>
    <path style="--i:3" d="m820 141 122 131" clip-path="url(#30ach)"/>
  </g>
</svg>
