<svg data-strokesvg="ガ" viewBox="0 0 1024 1024" xmlns="http://www.w3.org/2000/svg">
  <defs>
    <clipPath id="30ace">
      <use href="#30aca"/>
    </clipPath>
    <clipPath id="30acf">
      <use href="#30acb"/>
    </clipPath>
    <clipPath id="30acg">
      <use href="#30acc"/>
    </clipPath>
    <clipPath id="30ach">
      <use href="#30acd"/>
    </clipPath>
  </defs>
  <g data-strokesvg="shadows" style="fill:var(--shadow,#ccc)">
    <path id="30aca" d="M777 338h-4l-95 13-133 19-76 10-203 27-30-3a478 478 0 0 0-28-6h-4c-6 1-8 4-8 11l4 16c3 10 9 21 18 32 9 10 21 15 37 15h9l23-3 54-8 105-16 76-11a13076 13076 0 0 1 222-31 2838 2838 0 0 1-63 280c-12 42-26 79-40 110-14 30-28 50-43 62l-73-31c-25-11-51-24-76-37-10-4-19-7-26-7-5 0-8 2-10 4l-2 4v5c0 2 5 9 15 20a1648 1648 0 0 0 92 77l49 33c15 8 26 13 33 13 8 0 14-2 21-7l19-17c20-18 39-44 56-78 17-35 33-74 46-119 15-46 28-95 39-148 12-52 22-106 32-160 1-6 3-11 6-16 4-5 6-11 6-16 0-8-5-16-17-24-11-9-21-13-31-13z"/>
    <path id="30acb" d="M545 370a1326 1326 0 0 0 51-197c0-12-6-21-17-27s-23-9-35-11l-24-3c-8 0-13 2-15 5l-1 3c0 4 2 8 5 13a51 51 0 0 1 10 29l-12 60c-8 37-20 83-38 138l-23 65a1329 1329 0 0 1-305 492c-3 7-5 13-5 17 0 5 3 8 7 8 9 0 28-12 56-34 28-23 61-56 99-101 38-44 77-99 117-164 39-67 75-143 107-229z"/>
    <path id="30acc" d="M919 345q0-6-13-20-11-16-28-33l-33-33-26-22q-8-6-14-6-10 0-19 10-7 8-7 18 0 8 6 14 12 10 27 27l32 37q16 18 24 33 6 9 17 9 15 0 24-11 10-12 10-23z"/>
    <path id="30acd" d="M986 315q9-11 9-25 0-8-4-14-14-16-37-38-21-23-42-39-20-18-29-18-11 0-20 9t-9 19q0 7 6 13 24 19 48 46 25 28 38 46 7 11 19 11 8 0 14-3l7-7z"/>
  </g>
  <g data-strokesvg="strokes" style="stroke:var(--stroke,#000);fill:none;stroke-width:128;stroke-linecap:round">
    <path style="--i:0" d="M130 398c141 69 377-29 692-71 0 0-89 592-224 594-28 1-141-96-141-96" clip-path="url(#30ace)"/>
    <path style="--i:1" d="M449 96c268 77-81 677-268 822" clip-path="url(#30acf)"/>
    <path style="--i:2" d="m742 191 123 137" clip-path="url(#30acg)"/>
    <path style="--i:3" d="m820 141 122 131" clip-path="url(#30ach)"/>
  </g>
</svg>
