<svg data-strokesvg="キ" viewBox="0 0 1024 1024" xmlns="http://www.w3.org/2000/svg">
  <defs>
    <clipPath id="30add">
      <use href="#30ada"/>
    </clipPath>
    <clipPath id="30ade">
      <use href="#30adb"/>
    </clipPath>
    <clipPath id="30adf">
      <use href="#30adc"/>
    </clipPath>
  </defs>
  <g data-strokesvg="shadows" style="fill:var(--shadow,#ccc)">
    <path id="30ada" d="m540 415 195-45q23-8 29-14t6-14v-2q-1-11-12-17-10-8-25-11-14-3-23-4l-3 1h-4a834 834 0 0 1-176 47l-64 14-209 41-24 3-15-2q-8-3-12-2l-6 1q-6 0-6 9 0 6 9 18 8 12 21 23 13 10 28 10l31-4a3012 3012 0 0 0 195-39z"/>
    <path id="30adb" d="m518 623 64-14a3739 3739 0 0 1 278-46l14-3q19-6 19-22v-6q-3-11-23-22-18-12-32-12-10 0-19 5l-16 5a3257 3257 0 0 0-234 43l-64 13a9930 9930 0 0 0-297 68 77 77 0 0 1-29 1q-7-2-13-2l-7 1q-5 3-5 7 0 8 10 20 11 14 23 25 15 11 27 11 15 0 34-6a8782 8782 0 0 1 270-66"/>
    <path id="30adc" d="m518 623 59 271 1 18q0 9 3 17l6 11q6 10 15 18 9 9 21 9l14-8q11-6 11-34l-1-6-3-19-30-139-32-152-13-58-29-136-13-59q-6-36-17-78l-16-79q-5-17-17-26t-46-9q-12 0-21 3t-10 8v2q0 8 7 11 6 4 14 16t11 23l31 143 12 58 30 136z"/>
  </g>
  <g data-strokesvg="strokes" style="stroke:var(--stroke,#000);fill:none;stroke-width:128;stroke-linecap:round">
    <path style="--i:0" d="m124 422 593-55" clip-path="url(#30add)"/>
    <path style="--i:1" d="m89 654 749-98" clip-path="url(#30ade)"/>
    <path style="--i:2" d="m401 98 234 812" clip-path="url(#30adf)"/>
  </g>
</svg>
