<svg data-strokesvg="ク" viewBox="0 0 1024 1024" xmlns="http://www.w3.org/2000/svg">
  <defs>
    <clipPath id="30afc">
      <use href="#30afa"/>
    </clipPath>
    <clipPath id="30afd">
      <use href="#30afb"/>
    </clipPath>
  </defs>
  <g data-strokesvg="shadows" style="fill:var(--shadow,#ccc)">
    <path id="30afa" d="M534 248c18-22 35-51 35-60q-1-8-15-20a132 132 0 0 0-51-30l-13-3q-6-1-8 2-5 4-5 10t4 14q5 7 5 16v1a76 76 0 0 1-8 27 1245 1245 0 0 1-255 291l-13 13q-6 7-6 13 0 5 3 8 3 4 12 4 10 0 24-9l67-50q47-37 107-93 60-58 117-134"/>
    <path id="30afb" d="M481 336c50-4 71-8 114-13q49-6 120-13c-76 156-159 288-312 419-44 37-130 102-160 120q-31 16-31 29l1 4 2 3q3 3 10 3 22 0 76-29 55-26 127-83a1159 1159 0 0 0 368-465l9-10q9-6 9-17 0-15-20-27-18-11-32-11a574 574 0 0 0-71 8l-120 14-42 5c-20 1-23-2-41 0-42 6-57 67-7 63"/>
  </g>
  <g data-strokesvg="strokes" style="stroke:var(--stroke,#000);fill:none;stroke-width:128;stroke-linecap:round">
    <path style="--i:0" d="M492 70c135 136-241 423-241 423" clip-path="url(#30afc)"/>
    <path style="--i:1" d="m377 300 386-63c81 171-499 629-499 629" clip-path="url(#30afd)"/>
  </g>
</svg>
