<svg data-strokesvg="グ" viewBox="0 0 1024 1024" xmlns="http://www.w3.org/2000/svg">
  <defs>
    <clipPath id="30b0e">
      <use href="#30b0a"/>
    </clipPath>
    <clipPath id="30b0f">
      <use href="#30b0b"/>
    </clipPath>
    <clipPath id="30b0g">
      <use href="#30b0c"/>
    </clipPath>
    <clipPath id="30b0h">
      <use href="#30b0d"/>
    </clipPath>
  </defs>
  <g data-strokesvg="shadows" style="fill:var(--shadow,#ccc)">
    <path id="30b0a" d="M534 248c18-22 35-51 35-60-1-5-6-12-15-20a132 132 0 0 0-51-30l-13-3c-4 0-7 0-8 2-4 3-5 6-5 10s1 9 4 14 5 10 5 16v1a76 76 0 0 1-8 27 1245 1245 0 0 1-255 291l-13 13c-4 4-6 9-6 13 0 3 1 6 3 8 2 3 6 4 12 4 7 0 15-3 24-9l67-50c31-25 67-56 107-93 40-39 79-83 117-134z"/>
    <path id="30b0b" d="M481 336c50-4 71-8 114-13 33-4 72-9 120-13-76 156-159 288-312 419-44 37-130 102-160 120-21 11-31 20-31 29l1 4 2 3c2 2 5 3 10 3 15 0 40-10 76-29a1210 1210 0 0 0 361-316c53-68 95-147 134-231l9-11c6-4 9-10 9-17 0-10-7-19-20-27-12-7-23-11-32-11a574 574 0 0 0-71 8 2824 2824 0 0 0-120 14l-42 5c-20 1-23-2-41 0-42 6-57 67-7 63z"/>
    <path id="30b0c" d="M921 251q9-8 9-23 0-6-2-9-4-9-19-26-14-18-32-36-18-19-35-31-17-13-26-13-10 0-17 8t-7 17q0 8 6 15 11 9 27 28l32 38 26 32q8 9 17 9 11 0 21-9z"/>
    <path id="30b0d" d="M1007 177q0-8-15-25-14-19-35-38-20-21-39-34-19-14-27-14-10 0-19 8-8 7-8 17 0 8 7 14 24 19 47 45 22 24 38 48 9 9 20 9 15 0 22-9 9-11 9-21z"/>
  </g>
  <g data-strokesvg="strokes" style="stroke:var(--stroke,#000);fill:none;stroke-width:128;stroke-linecap:round">
    <path style="--i:0" d="M492 70c135 136-241 423-241 423" clip-path="url(#30b0e)"/>
    <path style="--i:1" d="m377 300 386-63c81 171-499 629-499 629" clip-path="url(#30b0f)"/>
    <path style="--i:2" d="m755 72 124 135" clip-path="url(#30b0g)"/>
    <path style="--i:3" d="m829 24 124 133" clip-path="url(#30b0h)"/>
  </g>
</svg>
