<svg data-strokesvg="ケ" viewBox="0 0 1024 1024" xmlns="http://www.w3.org/2000/svg">
  <defs>
    <clipPath id="30b1d">
      <use href="#30b1a"/>
    </clipPath>
    <clipPath id="30b1e">
      <use href="#30b1b"/>
    </clipPath>
    <clipPath id="30b1f">
      <use href="#30b1c"/>
    </clipPath>
  </defs>
  <g data-strokesvg="shadows" style="fill:var(--shadow,#ccc)">
    <path id="30b1a" d="M349 375a636 636 0 0 0 87-180c0-9-5-17-15-23s-21-11-33-14c-12-4-21-5-28-5s-11 1-12 4l-1 5 3 12c5 7 6 16 6 24 0 12-7 36-22 72s-37 78-68 126c-30 49-70 99-119 150-13 13-20 25-20 35 0 4 2 7 7 7 11 0 27-8 48-25a714 714 0 0 0 137-146z"/>
    <path id="30b1b" d="m654 397 136-14 69-10c14-4 23-7 27-11 3-3 5-7 5-13 0-9-7-19-20-27-13-9-25-14-36-14-7 0-11 1-15 3l-11 4-57 11a7631 7631 0 0 1-190 25 11188 11188 0 0 1-213 24c-37 2-39 30-30 42l17 13c5 3 11 4 18 4h6l8-1a7724 7724 0 0 0 209-25z"/>
    <path id="30b1c" d="M579 422v7c-13 58-30 113-54 165a1010 1010 0 0 1-221 316c-15 13-22 23-22 28l3 7c2 3 5 4 9 4 9 0 25-8 48-24 23-17 50-40 79-70a938 938 0 0 0 236-442c0-6-1-12-3-16-10-20-82-37-77 11l1 6 1 8z"/>
  </g>
  <g data-strokesvg="strokes" style="stroke:var(--stroke,#000);fill:none;stroke-width:128;stroke-linecap:round">
    <path style="--i:0" d="M358 84c107 223-189 458-189 458" clip-path="url(#30b1d)"/>
    <path style="--i:1" d="m248 407 583-59" clip-path="url(#30b1e)"/>
    <path style="--i:2" d="M614 311c57 239-285 599-285 599" clip-path="url(#30b1f)"/>
  </g>
</svg>
