<svg data-strokesvg="コ" viewBox="0 0 1024 1024" xmlns="http://www.w3.org/2000/svg">
  <defs>
    <clipPath id="30b3c">
      <use href="#30b3a"/>
    </clipPath>
    <clipPath id="30b3d">
      <use href="#30b3b"/>
    </clipPath>
  </defs>
  <g data-strokesvg="shadows" style="fill:var(--shadow,#ccc)">
    <path id="30b3a" d="m753 726 51-359q2-13 5-19 4-6 4-13l-3-12q-7-13-24-21-15-8-29-8h-4l-168 17-282 27h-5q-20 0-35-5t-23-5l-6 1q-3 3-4 9 0 5 8 21 8 17 21 30 15 13 32 13l14-1 14-2 411-39a15466 15466 0 0 1-50 366c-3 23 62 65 73 0"/>
    <path id="30b3b" d="M773 759v-4q-1-9-7-16l-13-13c-9-8-49-2-73 0a4689 4689 0 0 1-258 22l-154 11h-10q-23 0-38-6-14-6-21-7-3 0-6 4-5 3-5 9l6 18q6 16 20 31 14 14 38 14h11l12-1 174-12 280-23q21-3 33-7 11-5 11-20"/>
  </g>
  <g data-strokesvg="strokes" style="stroke:var(--stroke,#000);fill:none;stroke-width:128;stroke-linecap:round">
    <path style="--i:0" d="M171 308c145 86 436 1 613-19l-57 412" clip-path="url(#30b3c)"/>
    <path style="--i:1" d="m121 759 595 16" clip-path="url(#30b3d)"/>
  </g>
</svg>
