<svg data-strokesvg="ゴ" viewBox="0 0 1024 1024" xmlns="http://www.w3.org/2000/svg">
  <defs>
    <clipPath id="30b4e">
      <use href="#30b4a"/>
    </clipPath>
    <clipPath id="30b4f">
      <use href="#30b4b"/>
    </clipPath>
    <clipPath id="30b4g">
      <use href="#30b4c"/>
    </clipPath>
    <clipPath id="30b4h">
      <use href="#30b4d"/>
    </clipPath>
  </defs>
  <g data-strokesvg="shadows" style="fill:var(--shadow,#ccc)">
    <path id="30b4a" d="m753 726 51-359q2-13 5-19 4-6 4-13l-3-12q-7-13-24-21-15-8-29-8h-4l-168 17-282 27h-5q-20 0-35-5t-23-5l-6 1q-3 3-4 9 0 5 8 21 8 17 21 30 15 13 32 13l14-1 14-2 411-39a15466 15466 0 0 1-50 366c-3 23 62 65 73 0"/>
    <path id="30b4b" d="M773 759v-4q-1-9-7-16l-13-13c-9-8-49-2-73 0a4689 4689 0 0 1-258 22l-154 11h-10q-23 0-38-6-14-6-21-7-3 0-6 4-5 3-5 9l6 18q6 16 20 31 14 14 38 14h11l12-1 174-12 280-23q21-3 33-7 11-5 11-20"/>
    <path id="30b4c" d="M912 330q0-8-2-12l-17-21q-13-16-33-36-18-19-36-34-16-14-24-14-10 0-19 8-7 8-7 19 0 8 6 14 12 10 27 28l32 34q16 18 24 33 6 11 18 11 7 0 19-5 12-6 12-25"/>
    <path id="30b4d" d="M961 304q10 0 20-9 10-10 10-23 0-9-15-26-15-19-37-38-21-20-40-33-18-13-25-13-10 0-18 8-7 7-7 17t7 16q23 19 45 44 23 23 40 48 8 9 20 9"/>
  </g>
  <g data-strokesvg="strokes" style="stroke:var(--stroke,#000);fill:none;stroke-width:128;stroke-linecap:round">
    <path style="--i:0" d="M171 308c145 86 436 1 613-19l-57 412" clip-path="url(#30b4e)"/>
    <path style="--i:1" d="m121 759 595 16" clip-path="url(#30b4f)"/>
    <path style="--i:2" d="m739 171 122 139" clip-path="url(#30b4g)"/>
    <path style="--i:3" d="m810 123 129 129" clip-path="url(#30b4h)"/>
  </g>
</svg>
