<svg data-strokesvg="サ" viewBox="0 0 1024 1024" xmlns="http://www.w3.org/2000/svg">
  <defs>
    <clipPath id="30b5d">
      <use href="#30b5a"/>
    </clipPath>
    <clipPath id="30b5e">
      <use href="#30b5b"/>
    </clipPath>
    <clipPath id="30b5f">
      <use href="#30b5c"/>
    </clipPath>
  </defs>
  <g data-strokesvg="shadows" style="fill:var(--shadow,#ccc)">
    <path id="30b5a" d="M938 398v-4c-1-9-9-19-22-27-12-9-22-14-29-15h-2c-6 0-13 1-19 3-5 2-11 3-16 3l-81 6-88 7-66 6-190 19-63 7-209 26h-24l-13-1-18-2-8 1c-2 0-3 2-3 5 0 5 3 12 9 22 6 9 14 18 24 26 9 8 19 12 27 12 9 0 17-2 26-4a30010 30010 0 0 0 192-26l62-7a19007 19007 0 0 1 187-20l65-5a3604 3604 0 0 1 225-12c23 0 34-7 34-20z"/>
    <path id="30b5b" d="m425 396-3-82-4-84c-1-10-3-18-6-25-3-8-11-13-23-16a228 228 0 0 0-36-4c-11 0-17 3-19 8v2l5 11a92 92 0 0 1 14 24c2 3 3 7 3 11l1 17a2244 2244 0 0 1 5 145l3 59a3352 3352 0 0 1 6 134l1 28-2 13-1 13c0 7 2 13 4 20 2 8 7 16 12 23 5 8 13 12 22 12s16-4 19-11c4-7 6-15 7-22l1-15v-4a60381 60381 0 0 0-7-198z"/>
    <path id="30b5c" d="m681 371 2-91 1-69v-17c-1-12-3-21-6-26-3-6-10-10-21-12-8-3-17-5-24-5l-19-3c-11 0-17 3-18 7l-1 2v2c0 4 2 8 5 12 4 4 8 9 10 14l5 12c2 3 2 7 2 11l1 16v21l-1 62-2 70-1 58-2 47a513 513 0 0 1-91 281 509 509 0 0 1-167 147c-19 11-28 20-28 28l1 5c3 4 7 6 11 6 7 0 19-4 34-11 32-15 65-34 99-57a458 458 0 0 0 172-216c20-51 31-110 34-179l2-56z"/>
  </g>
  <g data-strokesvg="strokes" style="stroke:var(--stroke,#000);fill:none;stroke-width:128;stroke-linecap:round">
    <path style="--i:0" d="m21 434 860-22" clip-path="url(#30b5d)"/>
    <path style="--i:1" d="m339 120 86 528" clip-path="url(#30b5e)"/>
    <path style="--i:2" d="M575 88s153 225 60 490c-75 214-256 369-256 369" clip-path="url(#30b5f)"/>
  </g>
</svg>
