<svg data-strokesvg="サ" viewBox="0 0 1024 1024" xmlns="http://www.w3.org/2000/svg">
  <defs>
    <clipPath id="30b5d">
      <use href="#30b5a"/>
    </clipPath>
    <clipPath id="30b5e">
      <use href="#30b5b"/>
    </clipPath>
    <clipPath id="30b5f">
      <use href="#30b5c"/>
    </clipPath>
  </defs>
  <g data-strokesvg="shadows" style="fill:var(--shadow,#ccc)">
    <path id="30b5a" d="M938 398v-4q-2-14-22-27-18-14-29-15h-2q-9 0-19 3-8 3-16 3l-81 6-88 7-66 6-190 19-63 7-209 26h-24l-13-1-18-2-8 1q-3 0-3 5 0 7 9 22 9 14 24 26 14 12 27 12t26-4l192-26 62-7 187-20 65-5a3604 3604 0 0 1 225-12q34 0 34-20"/>
    <path id="30b5b" d="m425 396-3-82-4-84q-1-15-6-25-5-12-23-16l-36-4q-16 0-19 8v2l5 11a92 92 0 0 1 14 24q3 5 3 11l1 17a2244 2244 0 0 1 5 145l3 59 6 134 1 28-2 13-1 13q1 10 4 20 4 12 12 23 8 12 22 12t19-11q6-11 7-22l1-15v-4l-7-198z"/>
    <path id="30b5c" d="m681 371 2-91 1-69v-17q-2-18-6-26-4-9-21-12-13-5-24-5l-19-3q-17 0-18 7l-1 2v2q0 6 5 12 7 6 10 14l5 12q3 5 2 11l1 16v21l-1 62-2 70-1 58-2 47a513 513 0 0 1-91 281 509 509 0 0 1-167 147q-28 16-28 28l1 5q5 6 11 6 11 0 34-11 48-22 99-57 52-36 97-88 45-54 75-128 30-76 34-179l2-56z"/>
  </g>
  <g data-strokesvg="strokes" style="stroke:var(--stroke,#000);fill:none;stroke-width:128;stroke-linecap:round">
    <path style="--i:0" d="m21 434 860-22" clip-path="url(#30b5d)"/>
    <path style="--i:1" d="m339 120 86 528" clip-path="url(#30b5e)"/>
    <path style="--i:2" d="M575 88s153 225 60 490c-75 214-256 369-256 369" clip-path="url(#30b5f)"/>
  </g>
</svg>
