<svg data-strokesvg="ザ" viewBox="0 0 1024 1024" xmlns="http://www.w3.org/2000/svg">
  <defs>
    <clipPath id="30b6f">
      <use href="#30b6a"/>
    </clipPath>
    <clipPath id="30b6g">
      <use href="#30b6b"/>
    </clipPath>
    <clipPath id="30b6h">
      <use href="#30b6c"/>
    </clipPath>
    <clipPath id="30b6i">
      <use href="#30b6d"/>
    </clipPath>
    <clipPath id="30b6j">
      <use href="#30b6e"/>
    </clipPath>
  </defs>
  <g data-strokesvg="shadows" style="fill:var(--shadow,#ccc)">
    <path id="30b6a" d="M938 398v-4q-2-14-22-27-18-14-29-15h-2q-9 0-19 3-8 3-16 3l-81 6-88 7-66 6-190 19-63 7-209 26h-24l-13-1-18-2-8 1q-3 0-3 5 0 7 9 22 9 14 24 26 14 12 27 12t26-4l192-26 62-7 187-20 65-5a3604 3604 0 0 1 225-12q34 0 34-20"/>
    <path id="30b6b" d="m425 396-3-82-4-84q-1-15-6-25-5-12-23-16l-36-4q-16 0-19 8v2l5 11a92 92 0 0 1 14 24q3 5 3 11l1 17a2244 2244 0 0 1 5 145l3 59 6 134 1 28-2 13-1 13q1 10 4 20 4 12 12 23 8 12 22 12t19-11q6-11 7-22l1-15v-4l-7-198z"/>
    <path id="30b6c" d="m681 371 2-91 1-69v-17q-2-18-6-26-4-9-21-12-13-5-24-5l-19-3q-17 0-18 7l-1 2v2q0 6 5 12 7 6 10 14l5 12q3 5 2 11l1 16v21l-1 62-2 70-1 58-2 47a513 513 0 0 1-91 281 509 509 0 0 1-167 147q-28 16-28 28l1 5q5 6 11 6 11 0 34-11 48-22 99-57 52-36 97-88 45-54 75-128 30-76 34-179l2-56z"/>
    <path id="30b6d" d="M890 305q0-8-2-11l-18-22q-13-16-32-35-19-20-36-34-17-15-26-15-10 0-17 9-7 8-7 18 0 8 6 14l26 28q17 16 32 35 17 17 25 33 6 12 17 12 6 0 19-7 13-8 13-25"/>
    <path id="30b6e" d="M970 248q0-9-16-28-15-18-36-38-22-19-40-32-19-14-25-14-10 0-18 8t-8 18q0 9 8 15 15 12 31 31 18 18 32 36l22 26q7 9 18 9t21-9q11-9 11-22"/>
  </g>
  <g data-strokesvg="strokes" style="stroke:var(--stroke,#000);fill:none;stroke-width:128;stroke-linecap:round">
    <path style="--i:0" d="m21 434 860-22" clip-path="url(#30b6f)"/>
    <path style="--i:1" d="m339 120 86 528" clip-path="url(#30b6g)"/>
    <path style="--i:2" d="M575 88s153 225 60 490c-75 214-256 369-256 369" clip-path="url(#30b6h)"/>
    <path style="--i:3" d="m709 152 129 133" clip-path="url(#30b6i)"/>
    <path style="--i:4" d="m784 101 132 125" clip-path="url(#30b6j)"/>
  </g>
</svg>
