<svg data-strokesvg="ス" viewBox="0 0 1024 1024" xmlns="http://www.w3.org/2000/svg">
  <defs>
    <clipPath id="30b9c">
      <use href="#30b9a"/>
    </clipPath>
    <clipPath id="30b9d">
      <use href="#30b9b"/>
    </clipPath>
  </defs>
  <g data-strokesvg="shadows" style="fill:var(--shadow,#ccc)">
    <path id="30b9a" d="m724 296 6-13c4-4 6-9 6-15 0-10-6-19-18-27-12-9-23-14-33-14l-2 1h-3l-14 4c-2 2-9 3-19 5a24748 24748 0 0 0-318 48l-23 3h-16l-17-4-16-3h-1c-8 0-11 4-11 11 0 5 2 13 7 22 5 10 11 19 19 27 9 8 18 11 28 11h10l12-2 41-7a11215 11215 0 0 1 282-46c-33 66-71 129-114 187a1643 1643 0 0 1-265 288 1902 1902 0 0 1-134 109c-5 5-8 10-8 13l1 5c1 2 4 3 8 3 8 0 25-6 50-19a1203 1203 0 0 0 215-157c45-40 90-86 135-138l36-45a1352 1352 0 0 0 156-247z"/>
    <path id="30b9b" d="M532 588a1913 1913 0 0 1 130 129 1948 1948 0 0 1 135 152c7 10 13 16 17 20l8 5 7 1c11 0 20-5 29-15 9-11 13-22 13-32 0-4-1-8-5-14a770 770 0 0 0-72-81c-21-23-51-51-87-85-37-34-83-76-139-125-38-29-71 12-36 45z"/>
  </g>
  <g data-strokesvg="strokes" style="stroke:var(--stroke,#000);fill:none;stroke-width:128;stroke-linecap:round">
    <path style="--i:0" d="M181 281c291 59 441-80 536-53-129 344-550 639-550 639" clip-path="url(#30b9c)"/>
    <path style="--i:1" d="m479 490 335 348" clip-path="url(#30b9d)"/>
  </g>
</svg>
