<svg data-strokesvg="セ" viewBox="0 0 1024 1024" xmlns="http://www.w3.org/2000/svg">
  <defs>
    <clipPath id="30bbc">
      <use href="#30bba"/>
    </clipPath>
    <clipPath id="30bbd">
      <use href="#30bbb"/>
    </clipPath>
  </defs>
  <g data-strokesvg="shadows" style="fill:var(--shadow,#ccc)">
    <path id="30bba" d="M434 531a5764 5764 0 0 1 305-110 1973 1973 0 0 1-129 180q-10 10-10 23 0 12 11 12 9 0 25-12 36-33 72-70a1671 1671 0 0 0 139-160q6-9 6-17 0-18-18-27-19-10-31-10h-2l-29 7q-17 4-54 17a6417 6417 0 0 0-284 103l-63 25-205 75-17 2h-14q-7 0-12 3-3 3-3 8 0 9 10 21 12 12 26 22 15 8 26 8 9 0 19-4l84-36q40-17 85-35z"/>
    <path id="30bbb" d="M787 799h-3q-6-1-13 2l-10 2q-34 1-69 4a757 757 0 0 1-119 0q-51-6-79-19-30-12-42-38-13-28-16-80l-2-139 1-64 5-229v-8q0-17-12-25-11-9-28-11-16-4-31-4-12 0-15 5l-2 7q1 7 7 13 9 6 10 14 6 20 6 84a3870 3870 0 0 1-3 179l-1 64-1 38v32q0 84 18 134 19 50 55 75 37 24 91 32a801 801 0 0 0 189 7l69-3q26 0 37-10 13-11 13-24 0-10-12-19-9-8-22-13-12-6-21-6"/>
  </g>
  <g data-strokesvg="strokes" style="stroke:var(--stroke,#000);fill:none;stroke-width:128;stroke-linecap:round">
    <path style="--i:0" d="M55 583c221 23 559-208 760-253L654 601" clip-path="url(#30bbc)"/>
    <path style="--i:1" d="M332 131s104 78 76 540c-14 240 376 179 376 179" clip-path="url(#30bbd)"/>
  </g>
</svg>
