<svg data-strokesvg="ゼ" viewBox="0 0 1024 1024" xmlns="http://www.w3.org/2000/svg">
  <defs>
    <clipPath id="30bce">
      <use href="#30bca"/>
    </clipPath>
    <clipPath id="30bcf">
      <use href="#30bcb"/>
    </clipPath>
    <clipPath id="30bcg">
      <use href="#30bcc"/>
    </clipPath>
    <clipPath id="30bch">
      <use href="#30bcd"/>
    </clipPath>
  </defs>
  <g data-strokesvg="shadows" style="fill:var(--shadow,#ccc)">
    <path id="30bca" d="M434 531a5764 5764 0 0 1 305-110 1973 1973 0 0 1-129 180c-7 7-10 14-10 23 0 8 4 12 11 12 6 0 15-4 25-12a1671 1671 0 0 0 211-229c4-7 6-13 6-18 0-12-6-21-18-27-13-7-23-10-31-10h-2l-29 7c-11 3-30 8-54 17a6417 6417 0 0 0-284 103l-63 25a22192 22192 0 0 1-205 75l-17 2h-14c-5 0-9 1-12 3-2 2-3 5-3 8 0 6 3 13 10 21 8 8 16 15 26 22 10 5 19 8 26 8 6 0 13-2 19-4a1358 1358 0 0 1 84-36c26-12 55-23 85-35z"/>
    <path id="30bcb" d="M787 799h-3c-4 0-9 0-13 2l-10 2c-23 0-46 2-69 4a757 757 0 0 1-119 0c-34-4-60-10-79-19-20-8-34-21-42-38-9-19-14-45-16-80l-2-139 1-64a67931 67931 0 0 1 5-229v-8c0-11-4-20-12-25-7-6-17-10-28-11-11-3-21-4-31-4-8 0-13 2-15 5l-2 7c0 5 3 9 7 13 6 4 9 9 10 14 4 13 6 41 6 84a3870 3870 0 0 1-3 179l-1 64-1 38v32c0 56 6 100 18 134 13 33 31 58 55 75 25 16 55 27 91 32a801 801 0 0 0 189 7l69-3c17 0 30-3 37-10 9-7 13-16 13-24 0-7-4-13-12-19-6-5-14-10-22-13-8-4-15-6-21-6z"/>
    <path id="30bcc" d="M879 334q14 0 23-10 9-12 9-24 0-9-16-27-15-18-37-36-21-20-41-32-18-14-25-14-11 0-19 10-7 8-7 18 0 9 7 15l29 26q17 15 34 33 17 17 26 32 8 9 17 9z"/>
    <path id="30bcd" d="M976 262q10-12 10-23t-19-29q-20-20-46-39l-44-33-7-3-5-1q-10 0-18 9t-8 19q0 8 7 14 16 11 34 29 18 17 33 34 17 15 24 24 7 8 17 8 9 0 15-3l7-6z"/>
  </g>
  <g data-strokesvg="strokes" style="stroke:var(--stroke,#000);fill:none;stroke-width:128;stroke-linecap:round">
    <path style="--i:0" d="M55 583c221 23 559-208 760-253L654 601" clip-path="url(#30bce)"/>
    <path style="--i:1" d="M332 131s104 78 76 540c-14 240 376 179 376 179" clip-path="url(#30bcf)"/>
    <path style="--i:2" d="m724 156 133 126" clip-path="url(#30bcg)"/>
    <path style="--i:3" d="m798 98 134 122" clip-path="url(#30bch)"/>
  </g>
</svg>
