<svg data-strokesvg="ソ" viewBox="0 0 1024 1024" xmlns="http://www.w3.org/2000/svg">
  <defs>
    <clipPath id="30bdc">
      <use href="#30bda"/>
    </clipPath>
    <clipPath id="30bdd">
      <use href="#30bdb"/>
    </clipPath>
  </defs>
  <g data-strokesvg="shadows" style="fill:var(--shadow,#ccc)">
    <path id="30bda" d="m433 464-2-9q-11-25-31-54-19-28-42-57-22-29-43-52l-32-40q-7-8-20-8t-26 9q-14 8-14 21 0 8 6 16 39 47 73 99 35 51 63 103 6 11 20 11 16 0 32-13 16-12 16-26z"/>
    <path id="30bdb" d="M286 918q20 0 67-26 48-26 111-76 62-51 129-127 67-77 128-178 61-102 104-229 5-18 5-25 0-13-14-25-14-11-33-17-17-7-27-7-15 0-15 12 0 7 4 17 5 8 5 20 0 5-15 48-13 42-44 109-31 66-83 146-51 80-127 163-74 83-178 156-30 20-30 31 0 8 13 8z"/>
  </g>
  <g data-strokesvg="strokes" style="stroke:var(--stroke,#000);fill:none;stroke-width:128;stroke-linecap:round">
    <path style="--i:0" d="m199 198 178 250" clip-path="url(#30bdc)"/>
    <path style="--i:1" d="M740 142c152 197-200 661-412 773" clip-path="url(#30bdd)"/>
  </g>
</svg>
