<svg data-strokesvg="ゾ" viewBox="0 0 1024 1024" xmlns="http://www.w3.org/2000/svg">
  <defs>
    <clipPath id="30bee">
      <use href="#30bea"/>
    </clipPath>
    <clipPath id="30bef">
      <use href="#30beb"/>
    </clipPath>
    <clipPath id="30beg">
      <use href="#30bec"/>
    </clipPath>
    <clipPath id="30beh">
      <use href="#30bed"/>
    </clipPath>
  </defs>
  <g data-strokesvg="shadows" style="fill:var(--shadow,#ccc)">
    <path id="30bea" d="m433 464-2-9q-11-25-31-54-19-28-42-57-22-29-43-52l-32-40q-7-8-20-8t-26 9q-14 8-14 21 0 8 6 16 39 47 73 99 35 51 63 103 6 11 20 11 16 0 32-13 16-12 16-26z"/>
    <path id="30beb" d="M286 918q20 0 67-26 48-26 111-76 62-51 129-127 67-77 128-178 61-102 104-229 5-18 5-25 0-13-14-25-14-11-33-17-17-7-27-7-15 0-15 12 0 7 4 17 5 8 5 20 0 5-15 48-13 42-44 109-31 66-83 146-51 80-127 163-74 83-178 156-30 20-30 31 0 8 13 8z"/>
    <path id="30bec" d="M927 222q0-5-3-11-4-6-20-22-15-15-36-32-19-19-37-31-17-12-24-12-10 0-19 9-7 8-7 18t7 16q12 9 29 25 18 16 34 33 17 17 27 32 7 8 16 8 12 0 22-9 11-10 11-24z"/>
    <path id="30bed" d="M990 186q10-12 10-23 0-5-8-16t-31-30q-24-21-70-54-6-3-12-3-11 0-19 9-8 8-8 17t8 14q17 12 34 29l34 34q16 15 23 24t18 9q8 0 14-3l7-7z"/>
  </g>
  <g data-strokesvg="strokes" style="stroke:var(--stroke,#000);fill:none;stroke-width:128;stroke-linecap:round">
    <path style="--i:0" d="m199 198 178 250" clip-path="url(#30bee)"/>
    <path style="--i:1" d="M740 142c152 197-200 661-412 773" clip-path="url(#30bef)"/>
    <path style="--i:2" d="m738 80 134 125" clip-path="url(#30beg)"/>
    <path style="--i:3" d="m815 19 131 126" clip-path="url(#30beh)"/>
  </g>
</svg>
