<svg data-strokesvg="ダ" viewBox="0 0 1024 1024" xmlns="http://www.w3.org/2000/svg">
  <defs>
    <clipPath id="30c0f">
      <use href="#30c0a"/>
    </clipPath>
    <clipPath id="30c0g">
      <use href="#30c0b"/>
    </clipPath>
    <clipPath id="30c0h">
      <use href="#30c0c"/>
    </clipPath>
    <clipPath id="30c0i">
      <use href="#30c0d"/>
    </clipPath>
    <clipPath id="30c0j">
      <use href="#30c0e"/>
    </clipPath>
  </defs>
  <g data-strokesvg="shadows" style="fill:var(--shadow,#ccc)">
    <path id="30c0a" d="M470 193c-2 0-4 0-7 2s-4 7-4 13v19a581 581 0 0 1-5 24 1109 1109 0 0 1-154 189 1966 1966 0 0 1-126 120c-4 6-6 10-6 14l1 6c3 4 7 6 12 6 8 0 22-7 42-20s42-29 67-49 49-40 71-61l45-43a1306 1306 0 0 0 99-116c12-17 35-46 29-57-8-13-19-24-32-33-13-10-24-14-32-14z"/>
    <path id="30c0b" d="M505 297c5 2 11 3 16 3h7a3945 3945 0 0 0 205-22c-20 46-42 91-68 134s-54 83-82 122l-44 55a1590 1590 0 0 1-246 237c-38 30-72 53-102 71-12 7-20 13-25 18-5 7-7 11-7 15v3c1 3 6 5 14 5 10 0 22-3 37-9 40-18 83-42 128-73a1246 1246 0 0 0 268-247c43-50 82-103 118-159a1047 1047 0 0 0 94-182l5-7 3-7 1-6c0-8-5-16-16-24-10-8-21-12-32-12l-25 3-56 6a3250 3250 0 0 0-164 19c-81 8-44 50-29 57z"/>
    <path id="30c0c" d="M361 456c18 9 37 21 58 37a1990 1990 0 0 1 120 96c26 24 77-25 44-55a1184 1184 0 0 0-177-121c-49-26-65 33-45 43z"/>
    <path id="30c0d" d="M923 237q0-6-3-12-7-10-25-30-17-22-37-41-18-21-30-29-7-6-15-6-10 0-19 9-9 8-9 18 0 9 6 14 16 15 39 42 24 25 42 55 7 10 19 10 8 0 19-7 13-7 13-23z"/>
    <path id="30c0e" d="M1001 191q0-7-5-15l-14-17q-13-16-32-34-17-20-35-34-16-15-25-15-10 0-19 8-8 7-8 17 0 8 6 14 16 13 31 32l30 37 21 28q7 10 18 10 8 0 20-7t12-24z"/>
  </g>
  <g data-strokesvg="strokes" style="stroke:var(--stroke,#000);fill:none;stroke-width:128;stroke-linecap:round">
    <path style="--i:0" d="M489 128c26 210-262 446-262 446" clip-path="url(#30c0f)"/>
    <path style="--i:1" d="M418 276c140 12 310-97 382-55a1472 1472 0 0 1-585 697" clip-path="url(#30c0g)"/>
    <path style="--i:2" d="m302 383 233 164" clip-path="url(#30c0h)"/>
    <path style="--i:3" d="m748 80 123 134" clip-path="url(#30c0i)"/>
    <path style="--i:4" d="m831 32 118 137" clip-path="url(#30c0j)"/>
  </g>
</svg>
