<svg data-strokesvg="ヂ" viewBox="0 0 1024 1024" xmlns="http://www.w3.org/2000/svg">
  <defs>
    <clipPath id="30c2f">
      <use href="#30c2a"/>
    </clipPath>
    <clipPath id="30c2g">
      <use href="#30c2b"/>
    </clipPath>
    <clipPath id="30c2h">
      <use href="#30c2c"/>
    </clipPath>
    <clipPath id="30c2i">
      <use href="#30c2d"/>
    </clipPath>
    <clipPath id="30c2j">
      <use href="#30c2e"/>
    </clipPath>
  </defs>
  <g data-strokesvg="shadows" style="fill:var(--shadow,#ccc)">
    <path id="30c2a" d="m581 290 81-31 43-21c8-7 14-11 16-15l3-8c0-7-4-15-11-25s-16-19-26-27-19-12-28-12l-5 1c-2 0-4 4-4 11v5c0 5 0 9-2 12 0 4-4 7-9 9-25 16-55 32-90 48a1897 1897 0 0 1-278 97c-23 5-34 13-34 22 0 6 7 10 21 10a1883 1883 0 0 0 181-35l75-20z"/>
    <path id="30c2b" d="M916 481v-5c0-9-7-18-20-25-13-9-24-13-32-14h-4c-5 0-11 2-16 4-6 2-11 3-17 3a2280 2280 0 0 0-234 15l-71 7a11404 11404 0 0 0-338 36h-15l-16-3c-7-3-12-4-17-4h-3c-5 0-8 4-8 10 0 3 2 10 6 19 5 10 11 19 20 28 8 8 18 12 29 12l11-1 14-2 137-17c55-7 113-13 175-19l72-6a5767 5767 0 0 1 295-14c22 0 32-8 32-24z"/>
    <path id="30c2c" d="m594 414-3-86c-1-20-4-33-10-38-32-25-94 0-67 21a886 886 0 0 1 6 25 1298 1298 0 0 1-3 189c-10 98-38 178-81 240-42 62-98 115-168 159-16 11-24 18-24 23 0 1 0 3 2 5 3 4 7 5 12 5l14-3a526 526 0 0 0 228-178c49-70 80-156 89-257 4-35 5-70 5-105z"/>
    <path id="30c2d" d="M878 345q0-8-12-23-11-16-28-33l-33-33-26-23q-5-5-14-5-10 0-20 9-8 8-8 18 0 7 6 13 19 18 41 42 23 25 43 55 9 9 20 9 10 0 20-7 11-8 11-22z"/>
    <path id="30c2e" d="M954 288q0-10-5-16l-18-20-33-33q-17-17-34-30-16-13-23-13-11 0-20 9-8 9-8 18 0 7 6 12 24 19 48 48 26 29 38 46 7 10 18 10 6 0 18-7 13-8 13-24z"/>
  </g>
  <g data-strokesvg="strokes" style="stroke:var(--stroke,#000);fill:none;stroke-width:128;stroke-linecap:round">
    <path style="--i:0" d="M684 89c75 206-388 263-388 263" clip-path="url(#30c2f)"/>
    <path style="--i:1" d="m59 505 802-7" clip-path="url(#30c2g)"/>
    <path style="--i:2" d="M528 215c84 379-21 588-229 720" clip-path="url(#30c2h)"/>
    <path style="--i:3" d="m698 191 128 131" clip-path="url(#30c2i)"/>
    <path style="--i:4" d="m777 135 124 132" clip-path="url(#30c2j)"/>
  </g>
</svg>
