<svg data-strokesvg="ヅ" viewBox="0 0 1024 1024" xmlns="http://www.w3.org/2000/svg">
  <defs>
    <clipPath id="30c5f">
      <use href="#30c5a"/>
    </clipPath>
    <clipPath id="30c5g">
      <use href="#30c5b"/>
    </clipPath>
    <clipPath id="30c5h">
      <use href="#30c5c"/>
    </clipPath>
    <clipPath id="30c5i">
      <use href="#30c5d"/>
    </clipPath>
    <clipPath id="30c5j">
      <use href="#30c5e"/>
    </clipPath>
  </defs>
  <g data-strokesvg="shadows" style="fill:var(--shadow,#ccc)">
    <path id="30c5a" d="m292 541 9 14q6 6 15 6 10 0 26-8 17-9 17-28 0-10-12-39-12-28-31-63-17-35-36-67l-32-51q-7-11-20-11-7 0-22 6t-15 21q0 4 3 9l5 10q15 26 32 62 19 36 34 74 17 37 27 65z"/>
    <path id="30c5b" d="M409 279q14 28 29 66 16 37 29 74 14 37 22 65 6 20 26 20 8 0 26-7 18-8 18-25v-6l-2-8q-6-20-19-50l-28-64q-15-34-29-59-13-27-19-36-8-15-23-15l-10 3q-8 1-16 7-9 5-9 17l2 8 3 10z"/>
    <path id="30c5c" d="M291 913q17 0 63-20 46-22 109-66 63-45 132-115 70-71 134-169 66-99 116-228 5-13 5-21 0-15-15-28-16-13-33-20-18-7-23-7-9 0-11 4l-2 7 2 16q3 9 3 21 0 6-15 48-15 41-48 105-33 65-86 141-54 75-129 152-76 77-178 141-34 24-34 34 0 5 10 5z"/>
    <path id="30c5d" d="M940 259q0-11-15-30-16-18-37-36-22-19-41-31-20-14-27-14-11 0-19 10-8 9-8 18t7 13l30 26q18 16 34 34 18 17 28 31 8 9 17 9 13 0 22-10 9-11 9-20z"/>
    <path id="30c5e" d="M1005 218q9-9 9-21 0-9-8-19-9-10-32-30-24-20-71-55-4-3-10-3-10 0-20 9-9 9-9 18 0 7 7 13 25 20 53 46 28 27 42 43 7 8 16 8 7 0 13-3l10-6z"/>
  </g>
  <g data-strokesvg="strokes" style="stroke:var(--stroke,#000);fill:none;stroke-width:128;stroke-linecap:round">
    <path style="--i:0" d="m180 240 131 261" clip-path="url(#30c5f)"/>
    <path style="--i:1" d="m394 178 119 265" clip-path="url(#30c5g)"/>
    <path style="--i:2" d="M743 180c249 214-416 719-416 719" clip-path="url(#30c5h)"/>
    <path style="--i:3" d="m750 116 136 123" clip-path="url(#30c5i)"/>
    <path style="--i:4" d="m823 56 137 120" clip-path="url(#30c5j)"/>
  </g>
</svg>
