<svg data-strokesvg="テ" viewBox="0 0 1024 1024" xmlns="http://www.w3.org/2000/svg">
  <defs>
    <clipPath id="30c6d">
      <use href="#30c6a"/>
    </clipPath>
    <clipPath id="30c6e">
      <use href="#30c6b"/>
    </clipPath>
    <clipPath id="30c6f">
      <use href="#30c6c"/>
    </clipPath>
  </defs>
  <g data-strokesvg="shadows" style="fill:var(--shadow,#ccc)">
    <path id="30c6a" d="M679 179h-3l-8 2-9 2q-9 5-42 12l-76 12-88 11-76 9-40 4-5 1h-16l-8-2-15-3q-9-3-18-3l-6 1q-4 1-4 8t6 22q8 14 21 28 13 12 31 12l32-3 67-7 84-12 88-12 76-11 48-8 16-6q8-5 8-18t-12-21q-12-9-28-13-14-5-23-5z"/>
    <path id="30c6b" d="M901 412v-2c0-5-3-11-10-17-6-6-13-11-22-16-8-5-15-7-22-7h-3c-6 0-11 1-17 3l-16 3c-66 3-133 8-203 15a9341 9341 0 0 0-395 49l-8 1h-20l-10-2-9-2-11-2-9 1c-3 2-5 5-5 9 0 7 3 14 10 24 6 10 13 18 22 26 10 7 19 11 28 11l26-3a11939 11939 0 0 1 280-39l78-8a2935 2935 0 0 1 275-18c12 0 21-2 29-6 8-3 12-10 12-20z"/>
    <path id="30c6c" d="m507 464 7 10c2 4 3 7 3 11v2a583 583 0 0 1-188 359 714 714 0 0 1-98 80c-5 5-8 10-8 14l1 4c2 3 6 4 12 4s20-5 44-16a543 543 0 0 0 177-139 568 568 0 0 0 133-309v-7c0-9-2-16-5-21-15-20-99-12-78 8z"/>
  </g>
  <g data-strokesvg="strokes" style="stroke:var(--stroke,#000);fill:none;stroke-width:128;stroke-linecap:round">
    <path style="--i:0" d="m197 236 492 2" clip-path="url(#30c6d)"/>
    <path style="--i:1" d="m76 450 767-21" clip-path="url(#30c6e)"/>
    <path style="--i:2" d="M508 383c166 245-231 534-231 534" clip-path="url(#30c6f)"/>
  </g>
</svg>
