<svg data-strokesvg="デ" viewBox="0 0 1024 1024" xmlns="http://www.w3.org/2000/svg">
  <defs>
    <clipPath id="30c7f">
      <use href="#30c7a"/>
    </clipPath>
    <clipPath id="30c7g">
      <use href="#30c7b"/>
    </clipPath>
    <clipPath id="30c7h">
      <use href="#30c7c"/>
    </clipPath>
    <clipPath id="30c7i">
      <use href="#30c7d"/>
    </clipPath>
    <clipPath id="30c7j">
      <use href="#30c7e"/>
    </clipPath>
  </defs>
  <g data-strokesvg="shadows" style="fill:var(--shadow,#ccc)">
    <path id="30c7a" d="M679 179h-3l-8 2-9 2q-9 5-42 12l-76 12-88 11-76 9-40 4-5 1h-16l-8-2-15-3q-9-3-18-3l-6 1q-4 1-4 8t6 22q8 14 21 28 13 12 31 12l32-3 67-7 84-12 88-12 76-11 48-8 16-6q8-5 8-18t-12-21q-12-9-28-13-14-5-23-5z"/>
    <path id="30c7b" d="M901 412v-2c0-5-3-11-10-17-6-6-13-11-22-16-8-5-15-7-22-7h-3c-6 0-11 1-17 3l-16 3c-66 3-133 8-203 15a9341 9341 0 0 0-395 49l-8 1h-20l-10-2-9-2-11-2-9 1c-3 2-5 5-5 9 0 7 3 14 10 24 6 10 13 18 22 26 10 7 19 11 28 11l26-3a11939 11939 0 0 1 280-39l78-8a2935 2935 0 0 1 275-18c12 0 21-2 29-6 8-3 12-10 12-20z"/>
    <path id="30c7c" d="m507 464 7 10c2 4 3 7 3 11v2a583 583 0 0 1-188 359 714 714 0 0 1-98 80c-5 5-8 10-8 14l1 4c2 3 6 4 12 4s20-5 44-16a543 543 0 0 0 177-139 568 568 0 0 0 133-309v-7c0-9-2-16-5-21-15-20-99-12-78 8z"/>
    <path id="30c7d" d="M908 281q0-10-15-28-15-19-37-37-20-19-40-33-19-13-29-13-11 0-18 9-7 8-7 19 0 8 6 13l28 23 35 35q19 19 29 32 8 9 18 9 12 0 21-10t9-19z"/>
    <path id="30c7e" d="M982 217c0-6-5-15-16-26s-23-23-38-35c-15-13-29-23-42-31s-22-12-27-12c-7 0-13 2-18 8-6 5-8 11-8 17s2 11 7 14c16 12 33 27 52 46 19 17 33 32 42 43 5 5 10 8 16 8a32 32 0 0 0 32-32z"/>
  </g>
  <g data-strokesvg="strokes" style="stroke:var(--stroke,#000);fill:none;stroke-width:128;stroke-linecap:round">
    <path style="--i:0" d="m197 236 492 2" clip-path="url(#30c7f)"/>
    <path style="--i:1" d="m76 450 767-21" clip-path="url(#30c7g)"/>
    <path style="--i:2" d="M508 383c166 245-231 534-231 534" clip-path="url(#30c7h)"/>
    <path style="--i:3" d="m719 135 134 124" clip-path="url(#30c7i)"/>
    <path style="--i:4" d="m792 77 134 123" clip-path="url(#30c7j)"/>
  </g>
</svg>
