<svg data-strokesvg="デ" viewBox="0 0 1024 1024" xmlns="http://www.w3.org/2000/svg">
  <defs>
    <clipPath id="30c7f">
      <use href="#30c7a"/>
    </clipPath>
    <clipPath id="30c7g">
      <use href="#30c7b"/>
    </clipPath>
    <clipPath id="30c7h">
      <use href="#30c7c"/>
    </clipPath>
    <clipPath id="30c7i">
      <use href="#30c7d"/>
    </clipPath>
    <clipPath id="30c7j">
      <use href="#30c7e"/>
    </clipPath>
  </defs>
  <g data-strokesvg="shadows" style="fill:var(--shadow,#ccc)">
    <path id="30c7a" d="M679 179h-3l-8 2-9 2q-9 5-42 12l-76 12-88 11-76 9-40 4-5 1h-16l-8-2-15-3q-9-3-18-3l-6 1q-4 1-4 8t6 22q8 14 21 28 13 12 31 12l32-3 67-7 84-12 88-12 76-11 48-8 16-6q8-5 8-18t-12-21-28-13q-14-5-23-5"/>
    <path id="30c7b" d="M901 412v-2q0-8-10-17-9-9-22-16-12-7-22-7h-3q-8 0-17 3l-16 3q-98 5-203 15a9341 9341 0 0 0-395 49l-8 1h-20l-10-2-9-2-11-2-9 1q-5 3-5 9 0 10 10 24 9 14 22 26 15 11 28 11l26-3 280-39 78-8a2935 2935 0 0 1 275-18q17 0 29-6 12-5 12-20"/>
    <path id="30c7c" d="m507 464 7 10q3 5 3 11v2q-9 82-39 150a583 583 0 0 1-149 210 714 714 0 0 1-98 79q-8 8-8 14l1 4q3 4 12 4t44-16a543 543 0 0 0 177-139 568 568 0 0 0 133-309v-7q0-13-5-21c-15-20-99-12-78 8"/>
    <path id="30c7d" d="M908 281q0-10-15-28-15-19-37-37-20-19-40-33-19-13-29-13-11 0-18 9-7 8-7 19 0 8 6 13l28 23 35 35q19 19 29 32 8 9 18 9 12 0 21-10t9-19"/>
    <path id="30c7e" d="M982 217q0-9-16-26t-38-35-42-31q-19-12-27-12-11 0-18 8-8 8-8 17t7 14q24 18 52 46 28 26 42 43 7 8 16 8 7 0 14-3 17-9 18-29"/>
  </g>
  <g data-strokesvg="strokes" style="stroke:var(--stroke,#000);fill:none;stroke-width:128;stroke-linecap:round">
    <path style="--i:0" d="m197 236 492 2" clip-path="url(#30c7f)"/>
    <path style="--i:1" d="m76 450 767-21" clip-path="url(#30c7g)"/>
    <path style="--i:2" d="M508 383c166 245-231 534-231 534" clip-path="url(#30c7h)"/>
    <path style="--i:3" d="m719 135 134 124" clip-path="url(#30c7i)"/>
    <path style="--i:4" d="m792 77 134 123" clip-path="url(#30c7j)"/>
  </g>
</svg>
