<svg data-strokesvg="ト" viewBox="0 0 1024 1024" xmlns="http://www.w3.org/2000/svg">
  <defs>
    <clipPath id="30c8c">
      <use href="#30c8a"/>
    </clipPath>
    <clipPath id="30c8d">
      <use href="#30c8b"/>
    </clipPath>
  </defs>
  <g data-strokesvg="shadows" style="fill:var(--shadow,#ccc)">
    <path id="30c8a" d="M377 226v643q0 7-4 15a34 34 0 0 0-2 22q1 9 7 22 5 13 14 24 9 12 23 12l6-1q14-4 18-19 6-14 5-32V212q0-18-4-28t-22-18q-9-3-22-5l-23-3q-14 0-17 5l-1 5q0 7 5 14 7 7 11 16 6 12 6 28"/>
    <path id="30c8b" d="M444 507q49 13 100 34a2240 2240 0 0 1 192 86l15 3q14 0 22-14 9-12 8-28 0-7-3-14-2-6-10-12-13-10-51-25-37-17-87-34a1700 1700 0 0 0-186-59c-36-11-50 48 0 63"/>
  </g>
  <g data-strokesvg="strokes" style="stroke:var(--stroke,#000);fill:none;stroke-width:128;stroke-linecap:round">
    <path style="--i:0" d="m377 92 49 813" clip-path="url(#30c8c)"/>
    <path style="--i:1" d="m353 433 369 152" clip-path="url(#30c8d)"/>
  </g>
</svg>
