<svg data-strokesvg="ド" viewBox="0 0 1024 1024" xmlns="http://www.w3.org/2000/svg">
  <defs>
    <clipPath id="30c9e">
      <use href="#30c9a"/>
    </clipPath>
    <clipPath id="30c9f">
      <use href="#30c9b"/>
    </clipPath>
    <clipPath id="30c9g">
      <use href="#30c9c"/>
    </clipPath>
    <clipPath id="30c9h">
      <use href="#30c9d"/>
    </clipPath>
  </defs>
  <g data-strokesvg="shadows" style="fill:var(--shadow,#ccc)">
    <path id="30c9a" d="M377 226v643q0 7-4 15a34 34 0 0 0-2 22q1 9 7 22 5 13 14 24 9 12 23 12l6-1q14-4 18-19 6-14 5-32V212q0-18-4-28t-22-18q-9-3-22-5l-23-3q-14 0-17 5l-1 5q0 7 5 14 7 7 11 16 6 12 6 28"/>
    <path id="30c9b" d="M444 507q49 13 100 34a2240 2240 0 0 1 192 86l15 3q14 0 22-14 9-12 8-28 0-7-3-14-2-6-10-12-13-10-51-25-37-17-87-34a1700 1700 0 0 0-186-59c-36-11-50 48 0 63"/>
    <path id="30c9c" d="M735 346q0-10-15-29-15-18-37-36-21-20-42-33-19-14-28-14-10 0-18 10-8 8-8 17 0 8 7 14l28 25q17 16 34 35 19 18 29 32 8 9 18 9 15 0 23-11 9-12 9-19"/>
    <path id="30c9d" d="M800 305q10-10 10-23 0-12-16-28-17-17-39-35l-42-29q-20-12-25-12-11 0-20 9-10 9-10 18 0 8 8 12 16 12 34 30 20 16 36 33 17 15 25 26 7 8 16 8 7 0 14-3z"/>
  </g>
  <g data-strokesvg="strokes" style="stroke:var(--stroke,#000);fill:none;stroke-width:128;stroke-linecap:round">
    <path style="--i:0" d="m377 92 49 813" clip-path="url(#30c9e)"/>
    <path style="--i:1" d="m353 433 369 152" clip-path="url(#30c9f)"/>
    <path style="--i:2" d="m545 201 133 125" clip-path="url(#30c9g)"/>
    <path style="--i:3" d="m618 143 138 119" clip-path="url(#30c9h)"/>
  </g>
</svg>
