<svg data-strokesvg="ニ" viewBox="0 0 1024 1024" xmlns="http://www.w3.org/2000/svg">
  <defs>
    <clipPath id="30cbc">
      <use href="#30cba"/>
    </clipPath>
    <clipPath id="30cbd">
      <use href="#30cbb"/>
    </clipPath>
  </defs>
  <g data-strokesvg="shadows" style="fill:var(--shadow,#ccc)">
    <path id="30cba" d="M752 365v-3q-1-17-24-29-21-14-41-14-6 0-12 4-5 3-18 6l-52 10-80 11-85 10-72 9-38 4h-14q-21 0-33-3t-19-3l-7 2q-4 4-4 8 0 11 11 26t20 23q6 7 13 9l14 2h7l8-1 120-12 138-16 123-19q23-4 33-9 12-5 12-15z"/>
    <path id="30cbb" d="M892 702v-3q-1-10-19-25-17-17-37-19h-3q-10 0-18 3-8 4-16 4-156 1-313 16l-296 30h-8q-13 0-24-2-11-4-19-4-6 0-9 4-3 3-3 9 0 3 7 18 8 15 22 28 13 13 31 13h12l14-2q76-11 179-20 104-11 222-17 120-6 242-6 36 0 36-27z"/>
  </g>
  <g data-strokesvg="strokes" style="stroke:var(--stroke,#000);fill:none;stroke-width:128;stroke-linecap:round">
    <path style="--i:0" d="m186 377 508 1" clip-path="url(#30cbc)"/>
    <path style="--i:1" d="m61 715 773-1" clip-path="url(#30cbd)"/>
  </g>
</svg>
