<svg data-strokesvg="ヌ" viewBox="0 0 1024 1024" xmlns="http://www.w3.org/2000/svg">
  <defs>
    <clipPath id="30ccc">
      <use href="#30cca"/>
    </clipPath>
    <clipPath id="30ccd">
      <use href="#30ccb"/>
    </clipPath>
  </defs>
  <g data-strokesvg="shadows" style="fill:var(--shadow,#ccc)">
    <path id="30cca" d="M734 213h-6l-29 3-235 30-109 13h-17l-7-1-36-8h-1q-6 2-6 9l6 20q6 15 18 30 13 15 31 15h6l41-5 296-39a1483 1483 0 0 1-330 475q-89 83-155 128-16 10-22 18-6 9-6 14t3 8l7 2q18 0 58-22 39-20 95-62 55-42 119-106a1525 1525 0 0 0 317-464q7-7 7-18 0-14-15-27t-30-13"/>
    <path id="30ccb" d="m409 415-13-3q-15 0-27 18-6 10-7 16 0 12 16 21l71 38a1861 1861 0 0 1 252 170q7 5 15 5 14 0 24-17 12-18 12-34 0-12-7-17-24-20-55-41c-67-46-186-111-281-156"/>
  </g>
  <g data-strokesvg="strokes" style="stroke:var(--stroke,#000);fill:none;stroke-width:128;stroke-linecap:round">
    <path style="--i:0" d="M222 268c279 21 424-65 532-59-33 235-530 678-530 678" clip-path="url(#30ccc)"/>
    <path style="--i:1" d="m312 395 380 235" clip-path="url(#30ccd)"/>
  </g>
</svg>
