<svg data-strokesvg="パ" viewBox="0 0 1024 1024" xmlns="http://www.w3.org/2000/svg">
  <defs>
    <clipPath id="30d1d">
      <use href="#30d1a"/>
    </clipPath>
    <clipPath id="30d1e">
      <use href="#30d1b"/>
    </clipPath>
    <clipPath id="30d1f">
      <use href="#30d1c"/>
    </clipPath>
  </defs>
  <g data-strokesvg="shadows" style="fill:var(--shadow,#ccc)">
    <path id="30d1a" d="M104 839q11 0 37-21 28-21 64-59 37-39 76-92 40-54 74-118 36-65 61-137 6-19 6-29 0-14-15-24t-33-15q-18-5-27-5-8 0-11 4l-1 5q0 5 3 12 4 8 4 20 0 14-15 58-16 43-45 104-29 60-70 126-41 65-93 125-22 24-22 38 0 8 7 8z"/>
    <path id="30d1b" d="M911 757q0-13-22-54t-60-101q-37-59-87-128-48-70-102-137-9-12-23-12-6 0-21 6-14 5-14 21 0 10 8 22 51 65 92 130 42 63 80 132 39 67 81 147 7 15 23 15 13 0 29-12 16-11 16-29z"/>
    <path id="30d1c" d="M818 240a96 96 0 0 0-98 99 98 98 0 0 0 98 99c28 0 52-9 71-28 19-20 29-44 29-71 0-28-10-52-29-71a96 96 0 0 0-71-28zm0 46c15 0 27 5 38 15s16 23 16 38c0 14-5 26-16 38a52 52 0 0 1-38 16c-14 0-26-5-37-16a56 56 0 0 1-15-38c0-15 5-28 15-38 11-10 23-15 37-15z"/>
  </g>
  <g data-strokesvg="strokes" style="stroke:var(--stroke,#000);fill:none;stroke-width:128;stroke-linecap:round">
    <path style="--i:0" d="M383 278c4 215-239 523-239 523" clip-path="url(#30d1d)"/>
    <path style="--i:1" d="m556 275 300 464" clip-path="url(#30d1e)"/>
    <path style="--i:2" d="M770 170s-160 312 48 234c150-57 19-144 19-144" clip-path="url(#30d1f)"/>
  </g>
</svg>
