<svg data-strokesvg="ヒ" viewBox="0 0 1024 1024" xmlns="http://www.w3.org/2000/svg">
  <defs>
    <clipPath id="30d2c">
      <use href="#30d2a"/>
    </clipPath>
    <clipPath id="30d2d">
      <use href="#30d2b"/>
    </clipPath>
  </defs>
  <g data-strokesvg="shadows" style="fill:var(--shadow,#ccc)">
    <path id="30d2a" d="M702 327h-3q-6 1-7 10l-3 17q-1 9-12 15a1837 1837 0 0 1-233 112q-60 26-110 44c-67 24-22 54-1 48q39-10 94-27a3615 3615 0 0 0 220-80q52-22 88-42 27-15 27-30 0-8-11-23-10-17-25-30-14-14-24-14"/>
    <path id="30d2b" d="m337 408 5-145v-11q0-10-4-19-4-8-20-12l-48-9q-11 0-14 5l-1 4q0 6 5 13l9 14q3 4 3 12l1 15-3 113-5 279q0 71 15 116 13 45 46 69 31 24 87 33 55 8 135 8a1924 1924 0 0 0 239-16l18-7q10-3 10-17 0-12-10-24-9-11-23-19-13-8-24-8l-14 2-11 2a1091 1091 0 0 1-213 18q-69 0-108-9-38-10-56-31-16-20-20-53t-4-81v-37z"/>
  </g>
  <g data-strokesvg="strokes" style="stroke:var(--stroke,#000);fill:none;stroke-width:128;stroke-linecap:round">
    <path style="--i:0" d="m238 584 463-197" clip-path="url(#30d2c)"/>
    <path style="--i:1" d="M271 147C394 825 85 860 756 862" clip-path="url(#30d2d)"/>
  </g>
</svg>
