<svg data-strokesvg="ピ" viewBox="0 0 1024 1024" xmlns="http://www.w3.org/2000/svg">
  <defs>
    <clipPath id="30d4d">
      <use href="#30d4a"/>
    </clipPath>
    <clipPath id="30d4e">
      <use href="#30d4b"/>
    </clipPath>
    <clipPath id="30d4f">
      <use href="#30d4c"/>
    </clipPath>
  </defs>
  <g data-strokesvg="shadows" style="fill:var(--shadow,#ccc)">
    <path id="30d4a" d="M702 327h-3c-4 1-6 4-7 10l-3 17c-1 6-5 11-12 15a1837 1837 0 0 1-233 112c-40 17-77 32-110 44-67 24-22 54-1 48 26-6 58-16 94-27a3615 3615 0 0 0 220-80c35-15 64-29 88-42 18-10 27-20 27-30a146 146 0 0 0-36-53c-9-10-17-14-24-14z"/>
    <path id="30d4b" d="M337 408a10706 10706 0 0 0 5-145v-11c0-7-1-13-4-19-3-5-9-9-20-12a1450 1450 0 0 0-48-9c-7 0-12 2-14 5l-1 4c0 4 2 9 5 13l9 14c2 3 3 7 3 12l1 15a1771 1771 0 0 1-3 113 35426 35426 0 0 0-5 279c0 47 5 86 15 116 9 30 24 53 46 69 21 16 50 27 87 33 37 5 82 8 135 8a1924 1924 0 0 0 239-16l18-7c7-2 10-8 10-17 0-8-3-16-10-24-6-7-14-14-23-19s-17-8-24-8l-14 2-11 2a1091 1091 0 0 1-213 18c-46 0-82-3-108-9-26-7-44-17-56-31-11-13-17-31-20-53s-4-49-4-81v-37l5-205z"/>
    <path id="30d4c" d="M827 168c-27 0-50 9-69 29a96 96 0 0 0-29 70 98 98 0 0 0 98 100 98 98 0 0 0 99-99c1-29-9-52-28-71a96 96 0 0 0-71-29zm0 46c15 0 27 5 38 15 11 11 17 23 17 38 0 14-6 27-17 38a52 52 0 0 1-38 17c-14 0-26-6-36-17a56 56 0 0 1-16-38c0-15 5-27 16-38 10-10 22-15 36-15z"/>
  </g>
  <g data-strokesvg="strokes" style="stroke:var(--stroke,#000);fill:none;stroke-width:128;stroke-linecap:round">
    <path style="--i:0" d="m238 584 463-197" clip-path="url(#30d4d)"/>
    <path style="--i:1" d="M271 147C394 825 85 860 756 862" clip-path="url(#30d4e)"/>
    <path style="--i:2" d="M777 109s-160 312 47 233c151-56 20-143 20-143" clip-path="url(#30d4f)"/>
  </g>
</svg>
