<svg data-strokesvg="ブ" viewBox="0 0 1024 1024" xmlns="http://www.w3.org/2000/svg">
  <defs>
    <clipPath id="30d6d">
      <use href="#30d6a"/>
    </clipPath>
    <clipPath id="30d6e">
      <use href="#30d6b"/>
    </clipPath>
    <clipPath id="30d6f">
      <use href="#30d6c"/>
    </clipPath>
  </defs>
  <g data-strokesvg="shadows" style="fill:var(--shadow,#ccc)">
    <path id="30d6a" d="M260 280h-8q-16 0-30-5-13-4-22-4h-3q-10 1-10 11 0 4 7 20t20 31q14 14 35 14h6l8-1 111-15 125-18q64-9 123-15 59-7 104-9-32 90-78 170-45 80-97 148-51 69-104 124-51 55-96 94t-77 61q-19 13-28 23-9 12-9 17 0 6 8 6 20 0 69-28 51-27 117-82 67-54 137-132 71-79 134-180 64-101 107-223l7-17q4-7 4-14t-9-16q-9-9-21-14t-20-5q-49 3-115 10l-137 17-139 17-119 15z"/>
    <path id="30d6b" d="M907 284q12-12 12-23 0-6-14-24-13-20-33-42-19-23-36-38-18-17-26-17-10 0-18 10-9 8-9 18 0 7 4 11 12 10 27 30l31 38q15 19 23 34 6 9 19 9 12 0 20-6z"/>
    <path id="30d6c" d="M998 209q0-7-5-15-22-30-50-56l-42-39q-7-6-15-6-10 0-20 8-8 8-8 17 0 8 6 14l27 28 32 36q15 18 22 30 9 14 22 14 14 0 22-12 9-11 9-19z"/>
  </g>
  <g data-strokesvg="strokes" style="stroke:var(--stroke,#000);fill:none;stroke-width:128;stroke-linecap:round">
    <path style="--i:0" d="M121 279c531 102 363-71 689-55-171 458-524 672-524 672" clip-path="url(#30d6d)"/>
    <path style="--i:1" d="m749 98 117 139" clip-path="url(#30d6e)"/>
    <path style="--i:2" d="m827 48 117 138" clip-path="url(#30d6f)"/>
  </g>
</svg>
