<svg data-strokesvg="ヘ" viewBox="0 0 1024 1024" xmlns="http://www.w3.org/2000/svg">
  <defs>
    <clipPath id="30d8b">
      <use href="#30d8a"/>
    </clipPath>
  </defs>
  <g data-strokesvg="shadows" style="fill:var(--shadow,#ccc)">
    <path id="30d8a" d="M127 565h-7l-11 1q-6 1-10 6l-1 5q0 7 10 19t24 22q15 10 29 10 11 0 27-11 38-27 75-61l69-67q33-31 57-51 20-16 36-16 18 0 44 21l66 57 95 82q54 46 116 96 63 50 130 99l15 10q9 5 17 5 26 0 26-27 0-15-6-34-6-18-13-23-6-6-15-9l-16-9q-68-46-128-93l-110-88-86-72-54-45q-46-36-80-36-23 0-43 13-21 12-46 32-46 38-90 80-44 41-95 77-12 7-25 7z"/>
  </g>
  <g data-strokesvg="strokes" style="stroke:var(--stroke,#000);fill:none;stroke-width:128;stroke-linecap:round">
    <path style="--i:0" d="M46 623c203-18 295-298 396-245 101 52 441 367 441 367" clip-path="url(#30d8b)"/>
  </g>
</svg>
