<svg data-strokesvg="ベ" viewBox="0 0 1024 1024" xmlns="http://www.w3.org/2000/svg">
  <defs>
    <clipPath id="30d9d">
      <use href="#30d9a"/>
    </clipPath>
    <clipPath id="30d9e">
      <use href="#30d9b"/>
    </clipPath>
    <clipPath id="30d9f">
      <use href="#30d9c"/>
    </clipPath>
  </defs>
  <g data-strokesvg="shadows" style="fill:var(--shadow,#ccc)">
    <path id="30d9a" d="M127 565h-7l-11 1q-6 1-10 6l-1 5q0 7 10 19t24 22q15 10 29 10 11 0 27-11 38-27 75-61l69-67q33-31 57-51 20-16 36-16 18 0 44 21l66 57 95 82q54 46 116 96 63 50 130 99l15 10q9 5 17 5 26 0 26-27 0-15-6-34-6-18-13-23-6-6-15-9l-16-9q-68-46-128-93l-110-88-86-72-54-45q-46-36-80-36-23 0-43 13-21 12-46 32-46 38-90 80-44 41-95 77-12 7-25 7z"/>
    <path id="30d9b" d="M765 396q0-6-5-14-7-10-28-29l-42-36q-21-18-32-24-5-4-13-4-10 0-19 8t-9 18q0 8 7 14l27 25 35 34 29 31q8 9 18 9 13 0 23-10 9-11 9-22z"/>
    <path id="30d9c" d="M806 367q15 0 22-11 9-11 9-22 0-10-6-16l-20-18-35-30q-18-16-36-27-16-12-25-12-10 0-19 10-8 8-8 17 0 7 6 12 25 19 52 46 28 27 41 42 9 9 19 9z"/>
  </g>
  <g data-strokesvg="strokes" style="stroke:var(--stroke,#000);fill:none;stroke-width:128;stroke-linecap:round">
    <path style="--i:0" d="M46 623c203-18 295-298 396-245 101 52 441 367 441 367" clip-path="url(#30d9d)"/>
    <path style="--i:1" d="m573 255 136 123" clip-path="url(#30d9e)"/>
    <path style="--i:2" d="m645 198 138 118" clip-path="url(#30d9f)"/>
  </g>
</svg>
