<svg data-strokesvg="ペ" viewBox="0 0 1024 1024" xmlns="http://www.w3.org/2000/svg">
  <defs>
    <clipPath id="30dac">
      <use href="#30daa"/>
    </clipPath>
    <clipPath id="30dad">
      <use href="#30dab"/>
    </clipPath>
  </defs>
  <g data-strokesvg="shadows" style="fill:var(--shadow,#ccc)">
    <path id="30daa" d="M127 565h-7l-11 1q-6 1-10 6l-1 5q0 7 10 19t24 22q15 10 29 10 11 0 27-11 38-27 75-61l69-67q33-31 57-51 20-16 36-16 18 0 44 21l66 57 95 82q54 46 116 96 63 50 130 99l15 10q9 5 17 5 26 0 26-27 0-15-6-34-6-18-13-23-6-6-15-9l-16-9q-68-46-128-93l-110-88-86-72-54-45q-46-36-80-36-23 0-43 13-21 12-46 32-46 38-90 80-44 41-95 77-12 7-25 7z"/>
    <path id="30dab" d="M740 227c-29 0-54 10-73 30-20 20-30 44-30 74 0 28 10 53 30 73 19 20 44 30 73 30s53-10 73-30c21-20 31-45 31-73 0-30-10-54-31-74a99 99 0 0 0-73-30zm0 46c15 0 28 6 39 18 12 11 18 24 18 40 0 15-6 28-18 40a52 52 0 0 1-39 17 57 57 0 0 1-41-97c12-12 26-18 41-18z"/>
  </g>
  <g data-strokesvg="strokes" style="stroke:var(--stroke,#000);fill:none;stroke-width:128;stroke-linecap:round">
    <path style="--i:0" d="M46 623c203-18 295-298 396-245 101 52 441 367 441 367" clip-path="url(#30dac)"/>
    <path style="--i:1" d="M688 170s-160 311 48 233c150-57 20-143 20-143" clip-path="url(#30dad)"/>
  </g>
</svg>
