<svg data-strokesvg="ボ" viewBox="0 0 1024 1024" xmlns="http://www.w3.org/2000/svg">
  <defs>
    <clipPath id="30dcg">
      <use href="#30dca"/>
    </clipPath>
    <clipPath id="30dch">
      <use href="#30dcb"/>
    </clipPath>
    <clipPath id="30dci">
      <use href="#30dcc"/>
    </clipPath>
    <clipPath id="30dcj">
      <use href="#30dcd"/>
    </clipPath>
    <clipPath id="30dck">
      <use href="#30dce"/>
    </clipPath>
    <clipPath id="30dcl">
      <use href="#30dcf"/>
    </clipPath>
  </defs>
  <g data-strokesvg="shadows" style="fill:var(--shadow,#ccc)">
    <path id="30dca" d="m670 410 135-10q19 0 25-6 8-6 8-16v-3q0-7-11-16-9-9-20-15-12-7-20-7h-3l-18 3-16 3-107 9a5374 5374 0 0 0-425 57h-8l-17-2q-11-4-20-4l-5 1q-5 4-5 9l8 16q8 13 22 26 14 11 29 11l15-1 13-2 112-18c78-12 229-29 308-35"/>
    <path id="30dcb" d="m484 834-43-21-47-23-30-18q-11-7-20-7-6 0-9 5-2 5-2 9 0 5 2 12 3 6 15 18a1886 1886 0 0 0 142 115q7 3 16 4 15 0 29-16 13-15 13-34v-35l-1-79V657l-1-118V233q-1-35-4-47-3-10-26-15l-39-6q-15 0-16 7v1q0 6 4 13l8 13q5 5 6 11 3 5 3 13z"/>
    <path id="30dcc" d="M177 825q14 0 38-22 25-23 51-57 27-34 50-69 24-36 39-63 16-26 16-33 0-14-14-22-13-9-24-9-15 0-23 15-19 38-48 76-28 38-57 70-30 30-53 49l-11 8q-8 7-8 19 0 17 15 28 16 10 29 10"/>
    <path id="30dcd" d="m867 790 11-13q5-7 5-14l-1-4-1-4q-5-13-24-35-17-24-42-51-24-29-50-57l-45-48-31-30q-5-5-14-5-12 0-25 9-12 8-12 20 0 10 13 23 26 23 57 61t60 78 47 68q8 13 25 13 16 0 27-11"/>
    <path id="30dce" d="M884 318q12-12 12-23 0-6-3-10-4-9-20-25l-32-36q-18-18-34-30-15-14-24-14-10 0-19 8-8 9-8 18 0 8 5 12 10 9 26 28 17 17 33 37 17 19 26 33 6 10 18 10l12-2z"/>
    <path id="30dcf" d="M942 270q16 0 24-12 8-13 8-20t-5-15q-24-29-54-53-28-25-43-36-5-5-14-5-10 0-19 8-9 7-9 17 0 7 7 13 23 19 49 47 25 28 37 45 8 11 19 11"/>
  </g>
  <g data-strokesvg="strokes" style="stroke:var(--stroke,#000);fill:none;stroke-width:128;stroke-linecap:round">
    <path style="--i:0" d="m98 409 684-15" clip-path="url(#30dcg)"/>
    <path style="--i:1" d="m479 100 76 811-168-110" clip-path="url(#30dch)"/>
    <path style="--i:2" d="M390 502 188 769" clip-path="url(#30dci)"/>
    <path style="--i:3" d="m608 487 217 259" clip-path="url(#30dcj)"/>
    <path style="--i:4" d="m716 143 127 130" clip-path="url(#30dck)"/>
    <path style="--i:5" d="m794 88 125 132" clip-path="url(#30dcl)"/>
  </g>
</svg>
