<svg data-strokesvg="ãƒ" viewBox="0 0 1024 1024" xmlns="http://www.w3.org/2000/svg">
  <defs>
    <clipPath id="30ddf">
      <use href="#30dda"/>
    </clipPath>
    <clipPath id="30ddg">
      <use href="#30ddb"/>
    </clipPath>
    <clipPath id="30ddh">
      <use href="#30ddc"/>
    </clipPath>
    <clipPath id="30ddi">
      <use href="#30ddd"/>
    </clipPath>
    <clipPath id="30ddj">
      <use href="#30dde"/>
    </clipPath>
  </defs>
  <g data-strokesvg="shadows" style="fill:var(--shadow,#ccc)">
    <path id="30dda" d="m670 410 135-10q19 0 25-6 8-6 8-16v-3q0-7-11-16-9-9-20-15-12-7-20-7h-3l-18 3-16 3-107 9a5374 5374 0 0 0-425 57h-8l-17-2q-11-4-20-4l-5 1q-5 4-5 9l8 16q8 13 22 26 14 11 29 11l15-1 13-2 112-18c78-12 229-29 308-35"/>
    <path id="30ddb" d="m484 834-43-21-47-23-30-18q-11-7-20-7-6 0-9 5-2 5-2 9 0 5 2 12 3 6 15 18a1886 1886 0 0 0 142 115q7 3 16 4 15 0 29-16 13-15 13-34v-35l-1-79V657l-1-118V233q-1-35-4-47-3-10-26-15l-39-6q-15 0-16 7v1q0 6 4 13l8 13q5 5 6 11 3 5 3 13z"/>
    <path id="30ddc" d="M177 825q14 0 38-22 25-23 51-57 27-34 50-69 24-36 39-63 16-26 16-33 0-14-14-22-13-9-24-9-15 0-23 15-19 38-48 76-28 38-57 70-30 30-53 49l-11 8q-8 7-8 19 0 17 15 28 16 10 29 10"/>
    <path id="30ddd" d="m867 790 11-13q5-7 5-14l-1-4-1-4q-5-13-24-35-17-24-42-51-24-29-50-57l-45-48-31-30q-5-5-14-5-12 0-25 9-12 8-12 20 0 10 13 23 26 23 57 61t60 78 47 68q8 13 25 13 16 0 27-11"/>
    <path id="30dde" d="M825 110q-40 0-69 28a94 94 0 0 0-28 70q0 41 28 71 29 28 69 28 42 0 71-28 30-30 30-71 0-42-30-70a96 96 0 0 0-71-28m0 45q22 0 38 16 17 15 17 37 0 21-17 38a54 54 0 0 1-38 15 53 53 0 0 1-52-53q0-21 15-37 17-16 37-16"/>
  </g>
  <g data-strokesvg="strokes" style="stroke:var(--stroke,#000);fill:none;stroke-width:128;stroke-linecap:round">
    <path style="--i:0" d="m98 409 684-15" clip-path="url(#30ddf)"/>
    <path style="--i:1" d="m479 100 76 811-168-110" clip-path="url(#30ddg)"/>
    <path style="--i:2" d="M390 502 188 769" clip-path="url(#30ddh)"/>
    <path style="--i:3" d="m608 487 217 259" clip-path="url(#30ddi)"/>
    <path style="--i:4" d="M776 50s-160 312 48 233c150-56 20-143 20-143" clip-path="url(#30ddj)"/>
  </g>
</svg>
