<svg data-strokesvg="マ" viewBox="0 0 1024 1024" xmlns="http://www.w3.org/2000/svg">
  <defs>
    <clipPath id="30dec">
      <use href="#30dea"/>
    </clipPath>
    <clipPath id="30ded">
      <use href="#30deb"/>
    </clipPath>
  </defs>
  <g data-strokesvg="shadows" style="fill:var(--shadow,#ccc)">
    <path id="30dea" d="M820 311h-3a6006 6006 0 0 0-219 23l-143 16-262 31h-5q-12 0-23-3l-15-4-16-3h-3q-7 3-7 10 0 8 9 23 9 17 24 31 14 14 29 14h9l9-3a13461 13461 0 0 1 536-65q-36 43-82 88a3152 3152 0 0 1-155 145c-22 19-7 59 33 32q24-17 60-46l212-177 41-37 8-6q15-11 15-24l-3-9-20-23q-11-13-29-13"/>
    <path id="30deb" d="m503 614-103-94q-12-11-17-12l-9-3-9 1q-8 1-17 7-8 5-8 18 0 14 11 23 22 17 53 48a1916 1916 0 0 1 205 242q11 13 23 13 14 0 27-13 15-12 15-28 0-9-6-18-24-36-59-74-35-40-73-78z"/>
  </g>
  <g data-strokesvg="strokes" style="stroke:var(--stroke,#000);fill:none;stroke-width:128;stroke-linecap:round">
    <path style="--i:0" d="M57 388c511 57 591-109 771-65L543 608" clip-path="url(#30dec)"/>
    <path style="--i:1" d="m303 465 315 335" clip-path="url(#30ded)"/>
  </g>
</svg>
