<svg data-strokesvg="ム" viewBox="0 0 1024 1024" xmlns="http://www.w3.org/2000/svg">
  <defs>
    <clipPath id="30e0c">
      <use href="#30e0a"/>
    </clipPath>
    <clipPath id="30e0d">
      <use href="#30e0b"/>
    </clipPath>
  </defs>
  <g data-strokesvg="shadows" style="fill:var(--shadow,#ccc)">
    <path id="30e0a" d="M710 735c37-17 8-43-25-36l-232 58c-48 11-146 43-144 25 2-17 111-195 176-360q25-60 39-103 14-40 14-54 0-15-18-24-17-10-36-13l-24-4q-15 0-15 13 0 5 4 11l7 10 2 13c0 27-28 100-35 118-47 121-73 200-163 358-19 32-41 45-61 66q-28 30 2 67c17 23 89-13 89-13l124-34a4698 4698 0 0 0 296-98"/>
    <path id="30e0b" d="M760 810q24 37 41 67 4 7 18 7 18 0 32-13 15-12 14-27 0-7-15-31l-39-56a3082 3082 0 0 0-177-218q-7-6-16-7l-9 3-9 4q-15 9-15 20 0 12 11 23l39 49c40 50 116 164 125 179"/>
  </g>
  <g data-strokesvg="strokes" style="stroke:var(--stroke,#000);fill:none;stroke-width:128;stroke-linecap:round">
    <path style="--i:0" d="M477 160c55 243-256 567-258 686l449-110" clip-path="url(#30e0c)"/>
    <path style="--i:1" d="m558 488 252 338" clip-path="url(#30e0d)"/>
  </g>
</svg>
