<svg data-strokesvg="メ" viewBox="0 0 1024 1024" xmlns="http://www.w3.org/2000/svg">
  <defs>
    <clipPath id="30e1c">
      <use href="#30e1a"/>
    </clipPath>
    <clipPath id="30e1d">
      <use href="#30e1b"/>
    </clipPath>
  </defs>
  <g data-strokesvg="shadows" style="fill:var(--shadow,#ccc)">
    <path id="30e1a" d="M685 404q35-61 53-105 20-43 20-54 0-12-14-23-12-11-29-18-16-7-30-7-9 0-12 5l-1 3q-1 4 2 10l4 9 1 7 1 9q0 10-17 49t-47 94a1557 1557 0 0 1-420 493q-17 12-24 22-7 9-7 13 0 7 9 7 13 0 52-21t95-62 117-103c128-125 219-279 247-328"/>
    <path id="30e1b" d="m627 638 71 56q8 6 14 5 14 0 26-16 14-16 14-33 0-5-4-11-4-8-18-18-14-13-44-33a2405 2405 0 0 0-286-168q-4-2-7-2-12 0-23 12-11 11-11 21 0 11 19 21a1612 1612 0 0 1 249 166"/>
  </g>
  <g data-strokesvg="strokes" style="stroke:var(--stroke,#000);fill:none;stroke-width:128;stroke-linecap:round">
    <path style="--i:0" d="M710 134c49 336-501 745-501 745" clip-path="url(#30e1c)"/>
    <path style="--i:1" d="m309 401 383 245" clip-path="url(#30e1d)"/>
  </g>
</svg>
