<svg data-strokesvg="モ" viewBox="0 0 1024 1024" xmlns="http://www.w3.org/2000/svg">
  <defs>
    <clipPath id="30e2d">
      <use href="#30e2a"/>
    </clipPath>
    <clipPath id="30e2e">
      <use href="#30e2b"/>
    </clipPath>
    <clipPath id="30e2f">
      <use href="#30e2c"/>
    </clipPath>
  </defs>
  <g data-strokesvg="shadows" style="fill:var(--shadow,#ccc)">
    <path id="30e2a" d="m624 304 68-12c14-4 22-8 25-11 3-4 5-8 5-13 0-7-4-14-12-19a101 101 0 0 0-48-19h-5a71 71 0 0 0-15 6c-6 2-20 6-43 10l-79 12-90 12a4428 4428 0 0 1-132 17h-17a360 360 0 0 0-27-5c-5-2-9-2-13-2s-8 1-11 4l-3 6 7 15c5 10 12 19 22 28s21 13 34 13h6l8-1c107-12 213-27 320-41z"/>
    <path id="30e2b" d="M653 546c57-5 113-9 168-11 23-2 35-9 35-22l-1-8c-2-9-10-17-22-25-13-7-24-11-32-12h-3c-6 0-13 1-19 3a7140 7140 0 0 0-595 68h-7l-17-2c-6-2-12-2-18-2-2 0-5 0-8 2-2 2-3 4-3 7 0 6 3 13 9 22s14 17 23 25c9 7 17 10 25 10s17-1 29-4a6990 6990 0 0 1 436-51z"/>
    <path id="30e2c" d="M811 806h-6l-13 2-11 3-31 4a2683 2683 0 0 1-106 6c-44 0-78-5-100-16a87 87 0 0 1-45-55c-8-26-12-60-12-102v-41c6-123 4-130 10-210l4-52v-4c0-8-4-15-11-19-48-34-75-10-66 9l4 9 2 9-2 55c-8 169-1 33-8 216v43c0 61 8 108 24 141 17 33 43 55 78 67 36 12 82 18 140 18a1462 1462 0 0 0 152-8c11-2 22-4 33-8s16-11 16-22c0-12-5-22-16-30-10-9-22-14-36-15z"/>
  </g>
  <g data-strokesvg="strokes" style="stroke:var(--stroke,#000);fill:none;stroke-width:128;stroke-linecap:round">
    <path style="--i:0" d="m163 306 497-37" clip-path="url(#30e2d)"/>
    <path style="--i:1" d="m66 562 728-50" clip-path="url(#30e2e)"/>
    <path style="--i:2" d="M427 242c154 231-228 690 376 610" clip-path="url(#30e2f)"/>
  </g>
</svg>
