<svg data-strokesvg="モ" viewBox="0 0 1024 1024" xmlns="http://www.w3.org/2000/svg">
  <defs>
    <clipPath id="30e2d">
      <use href="#30e2a"/>
    </clipPath>
    <clipPath id="30e2e">
      <use href="#30e2b"/>
    </clipPath>
    <clipPath id="30e2f">
      <use href="#30e2c"/>
    </clipPath>
  </defs>
  <g data-strokesvg="shadows" style="fill:var(--shadow,#ccc)">
    <path id="30e2a" d="m624 304 68-12q21-6 25-11 5-6 5-13 0-11-12-19a101 101 0 0 0-48-19h-5l-15 6q-9 3-43 10l-79 12-90 12-132 17h-17l-27-5q-7-2-13-2t-11 4l-3 6 7 15q7 15 22 28t34 13h6l8-1q160-19 320-41"/>
    <path id="30e2b" d="M653 546q86-8 168-11 35-3 35-22l-1-8q-3-13-22-25-20-10-32-12h-3q-9 0-19 3-8 3-16 3a7140 7140 0 0 0-579 65h-7l-17-2q-9-2-18-2-3 0-8 2-3 3-3 7 0 9 9 22t23 25q13 10 25 10t29-4q39-8 91-14c136-19 279-32 345-37"/>
    <path id="30e2c" d="M811 806h-6l-13 2-11 3-31 4-106 6q-67 0-100-16a87 87 0 0 1-45-55q-12-39-12-102v-41c6-123 4-130 10-210l4-52v-4q0-12-11-19c-48-34-75-10-66 9l4 9 2 9-2 55c-8 169-1 33-8 216v43q0 91 24 141 26 49 78 67 54 18 140 18a1462 1462 0 0 0 152-8q16-2 33-8 16-6 16-22 0-18-16-30-15-14-36-15"/>
  </g>
  <g data-strokesvg="strokes" style="stroke:var(--stroke,#000);fill:none;stroke-width:128;stroke-linecap:round">
    <path style="--i:0" d="m163 306 497-37" clip-path="url(#30e2d)"/>
    <path style="--i:1" d="m66 562 728-50" clip-path="url(#30e2e)"/>
    <path style="--i:2" d="M427 242c154 231-228 690 376 610" clip-path="url(#30e2f)"/>
  </g>
</svg>
