<svg data-strokesvg="ャ" viewBox="0 0 1024 1024" xmlns="http://www.w3.org/2000/svg">
  <defs>
    <clipPath id="30e3c">
      <use href="#30e3a"/>
    </clipPath>
    <clipPath id="30e3d">
      <use href="#30e3b"/>
    </clipPath>
  </defs>
  <g data-strokesvg="shadows" style="fill:var(--shadow,#ccc)">
    <path id="30e3a" d="M679 525a1194 1194 0 0 1-85 137q-15 18-15 29 0 9 9 8 11 1 32-17 20-17 44-44a1647 1647 0 0 0 120-151l-3-11q-3-7-16-16-12-9-27-9l-7 1-62 19-96 28-235 68-89 22-8-1-11-1q-9 0-12 4l-2 4 8 15q9 12 23 23t29 11l13-2 38-10q175-55 352-107"/>
    <path id="30e3b" d="m503 901 1 13q0 11 2 15l8 11q6 9 15 17 10 10 21 10l12-3q6-4 8-13 3-8 3-17l-2-18-10-35q-8-32-22-80L422 380q-7-11-26-11l-26-1q-19-1-25 5-4 4-4 7 0 7 8 13 9 6 17 14l5 11 4 13z"/>
  </g>
  <g data-strokesvg="strokes" style="stroke:var(--stroke,#000);fill:none;stroke-width:128;stroke-linecap:round">
    <path style="--i:0" d="M152 619c343-44 481-184 620-172L616 646" clip-path="url(#30e3c)"/>
    <path style="--i:1" d="m344 302 30 95 163 510" clip-path="url(#30e3d)"/>
  </g>
</svg>
