<svg data-strokesvg="ャ" viewBox="0 0 1024 1024" xmlns="http://www.w3.org/2000/svg">
  <defs>
    <clipPath id="30e3c">
      <use href="#30e3a"/>
    </clipPath>
    <clipPath id="30e3d">
      <use href="#30e3b"/>
    </clipPath>
  </defs>
  <g data-strokesvg="shadows" style="fill:var(--shadow,#ccc)">
    <path id="30e3a" d="M679 525a1194 1194 0 0 1-85 137c-10 12-15 22-15 29 0 6 3 8 9 8 7 0 18-5 32-17a1647 1647 0 0 0 165-195l-4-11c-2-5-8-10-16-16s-17-9-27-9l-7 1-62 19-96 28-235 68a2734 2734 0 0 1-89 22l-8-1-11-1c-6 0-10 1-12 4l-2 4 8 15c6 8 14 15 23 23 9 7 19 11 29 11l13-2 38-10c117-37 234-72 352-107z"/>
    <path id="30e3b" d="m503 901 1 13c0 7 0 12 2 15l8 11c4 6 9 12 15 17 7 7 13 10 21 10l12-3c4-3 7-7 8-13 2-5 3-11 3-17l-2-18-10-35c-5-22-13-48-22-80a62194 62194 0 0 0-117-421c-5-7-13-11-26-11l-26-1c-13-1-21 1-25 5-3 2-4 5-4 7 0 5 3 9 8 13 6 4 12 8 17 14l5 11 4 13 128 470z"/>
  </g>
  <g data-strokesvg="strokes" style="stroke:var(--stroke,#000);fill:none;stroke-width:128;stroke-linecap:round">
    <path style="--i:0" d="M152 619c343-44 481-184 620-172L616 646" clip-path="url(#30e3c)"/>
    <path style="--i:1" d="m344 302 30 95 163 510" clip-path="url(#30e3d)"/>
  </g>
</svg>
