<svg data-strokesvg="ヤ" viewBox="0 0 1024 1024" xmlns="http://www.w3.org/2000/svg">
  <defs>
    <clipPath id="30e4c">
      <use href="#30e4a"/>
    </clipPath>
    <clipPath id="30e4d">
      <use href="#30e4b"/>
    </clipPath>
  </defs>
  <g data-strokesvg="shadows" style="fill:var(--shadow,#ccc)">
    <path id="30e4a" d="M754 378a2054 2054 0 0 1-132 193q-18 21-18 33 0 9 8 8 10 0 31-15 20-16 47-43a2316 2316 0 0 0 110-121l52-65 8-9 4-8q3-5 3-10 0-11-17-27a54 54 0 0 0-36-15l-9 1-243 72c-144 42-189 52-281 80l-57 15-27 6-18 3h-2l-14-1-13-2q-7 0-9 2-5 3-5 10 0 9 9 22 10 14 24 23 15 10 28 10l13-1 13-4 64-20z"/>
    <path id="30e4b" d="m513 889 2 18 2 15 8 14q6 11 17 21 10 11 23 11 9-1 18-7 10-7 10-35l-1-8-1-9-9-33-50-178-32-117-80-296-16-60q-3-13-12-24-10-12-28-13l-31-1-21 2q-8 3-10 10l-1 4q0 6 7 11l17 13q10 9 15 25l14 52z"/>
  </g>
  <g data-strokesvg="strokes" style="stroke:var(--stroke,#000);fill:none;stroke-width:128;stroke-linecap:round">
    <path style="--i:0" d="M72 500c517-26 577-213 772-195L646 562" clip-path="url(#30e4c)"/>
    <path style="--i:1" d="m318 120 240 787" clip-path="url(#30e4d)"/>
  </g>
</svg>
