<svg data-strokesvg="ュ" viewBox="0 0 1024 1024" xmlns="http://www.w3.org/2000/svg">
  <defs>
    <clipPath id="30e5c">
      <use href="#30e5a"/>
    </clipPath>
    <clipPath id="30e5d">
      <use href="#30e5b"/>
    </clipPath>
  </defs>
  <g data-strokesvg="shadows" style="fill:var(--shadow,#ccc)">
    <path id="30e5a" d="m636 804 35-232 3-11 3-14q0-18-17-28-16-10-30-10h-3l-178 20-84 10-26-2c-17-4-18-7-28-7q-11 1-12 11 0 6 7 20 9 13 20 25 12 10 25 10 67-5 133-13l122-15-12 83-21 157c-5 39 58 30 63-4"/>
    <path id="30e5b" d="M811 837v-2q-1-13-18-26a56 56 0 0 0-36-14q-6 0-12 2l-10 3a4760 4760 0 0 0-376 24l-86 9h-19l-7-2-13-3q-6-3-13-3-8 0-9 4l-1 6q0 6 6 20 7 13 20 25 12 10 29 10h8a6328 6328 0 0 1 496-34q21 0 31-3 10-4 10-16"/>
  </g>
  <g data-strokesvg="strokes" style="stroke:var(--stroke,#000);fill:none;stroke-width:128;stroke-linecap:round">
    <path style="--i:0" d="m235 556 406-57-35 273" clip-path="url(#30e5c)"/>
    <path style="--i:1" d="m145 851 604-17" clip-path="url(#30e5d)"/>
  </g>
</svg>
