<svg data-strokesvg="ユ" viewBox="0 0 1024 1024" xmlns="http://www.w3.org/2000/svg">
  <defs>
    <clipPath id="30e6c">
      <use href="#30e6a"/>
    </clipPath>
    <clipPath id="30e6d">
      <use href="#30e6b"/>
    </clipPath>
  </defs>
  <g data-strokesvg="shadows" style="fill:var(--shadow,#ccc)">
    <path id="30e6a" d="m667 707 32-209 22-121 4-15q0-17-19-29-20-14-37-14h-4l-151 19-172 18-42 3h-9l-9-1-15-4q-8-3-16-3l-8 2q-3 3-3 8t7 20 21 30q15 13 34 13h6l6-1 329-37-46 326c-4 29 61 60 70-5"/>
    <path id="30e6b" d="M900 742zq0-14-20-30a69 69 0 0 0-44-17l-15 3q-6 3-13 3l-46 1a10844 10844 0 0 0-572 45h-15l-10-2-32-7-7 2-2 5q0 8 7 21l19 27q10 9 19 14 10 3 22 3h10a8759 8759 0 0 1 653-44q27-1 36-5 10-5 10-18"/>
  </g>
  <g data-strokesvg="strokes" style="stroke:var(--stroke,#000);fill:none;stroke-width:128;stroke-linecap:round">
    <path style="--i:0" d="m176 388 525-75-65 369" clip-path="url(#30e6c)"/>
    <path style="--i:1" d="m60 772 779-33" clip-path="url(#30e6d)"/>
  </g>
</svg>
