<svg data-strokesvg="ヨ" viewBox="0 0 1024 1024" xmlns="http://www.w3.org/2000/svg">
  <defs>
    <clipPath id="30e8d">
      <use href="#30e8a"/>
    </clipPath>
    <clipPath id="30e8e">
      <use href="#30e8b"/>
    </clipPath>
    <clipPath id="30e8f">
      <use href="#30e8c"/>
    </clipPath>
  </defs>
  <g data-strokesvg="shadows" style="fill:var(--shadow,#ccc)">
    <path id="30e8a" d="M708 739a6350 6350 0 0 1 28-178 21862 21862 0 0 0 36-230c1-5 2-10 5-15s4-10 4-15c0-8-5-16-17-23-12-9-22-13-32-13h-5l-6 1a20259 20259 0 0 0-162 18 62707 62707 0 0 1-273 23h-13l-8-2a226 226 0 0 0-35-7l-8 1c-2 1-3 4-3 9s3 13 7 23c6 9 13 19 22 27 9 9 19 13 32 13h10a582 582 0 0 1 95-11 9068 9068 0 0 1 222-19l92-9-48 331-11 72c-4 25 61 62 68 4z"/>
    <path id="30e8b" d="M679 476c-7 2-21 3-43 5a28277 28277 0 0 1-334 30h-18a357 357 0 0 1-40-7l-8 1c-4 1-6 4-6 9 0 6 2 13 7 22l13 22c5 7 10 11 16 13s13 2 20 2h11l12-1 79-6a10403 10403 0 0 1 194-17l87-7c45-4 60-76 10-66z"/>
    <path id="30e8c" d="M732 774v-1c0-7-2-14-7-19-5-6-11-11-17-15-10-6-32-7-68-4a70526 70526 0 0 0-196 18 13537 13537 0 0 0-203 15h-7l-18-3a478 478 0 0 0-35-6l-4 1c-3 2-5 5-5 10l6 21c5 9 12 18 21 27 9 8 21 12 35 12h11l11-1a10358 10358 0 0 1 210-16 12998 12998 0 0 1 250-20c11-2 16-9 16-19z"/>
  </g>
  <g data-strokesvg="strokes" style="stroke:var(--stroke,#000);fill:none;stroke-width:128;stroke-linecap:round">
    <path style="--i:0" d="M154 315c383 36 485-71 607-44l-73 438" clip-path="url(#30e8d)"/>
    <path style="--i:1" d="m164 533 485-26" clip-path="url(#30e8e)"/>
    <path style="--i:2" d="m107 794 563-21" clip-path="url(#30e8f)"/>
  </g>
</svg>
