<svg data-strokesvg="ラ" viewBox="0 0 1024 1024" xmlns="http://www.w3.org/2000/svg">
  <defs>
    <clipPath id="30e9c">
      <use href="#30e9a"/>
    </clipPath>
    <clipPath id="30e9d">
      <use href="#30e9b"/>
    </clipPath>
  </defs>
  <g data-strokesvg="shadows" style="fill:var(--shadow,#ccc)">
    <path id="30e9a" d="M360 218h-7q-16 0-31-3-16-3-25-3l-7 1q-5 3-5 9 0 11 9 26 9 13 22 23 14 11 27 11h6l6-1 76-6 92-9 91-11 72-10q44-6 44-28 0-20-17-31t-30-11l-7 1-27 7-47 10-70 9-74 8-63 5-35 3z"/>
    <path id="30e9b" d="M255 404h-7q-23 0-37-4-13-5-22-5h-2q-7 1-7 9 0 9 8 25 9 15 22 29 14 12 29 12h9l11-1 44-5 93-11 119-15 122-14 101-11q-56 129-127 218-70 89-149 151T299 894q-57 36-57 47 0 4 8 4 17 0 65-18 50-19 116-58 68-40 139-102 73-64 139-152t112-204l7-18q5-7 5-14 0-12-18-24-17-11-33-11l-30 3-74 9-100 12-110 13-101 11-77 9-35 3z"/>
  </g>
  <g data-strokesvg="strokes" style="stroke:var(--stroke,#000);fill:none;stroke-width:128;stroke-linecap:round">
    <path style="--i:0" d="m219 242 449-24" clip-path="url(#30e9c)"/>
    <path style="--i:1" d="M113 409c358 52 573-82 696-63-105 363-513 570-513 570" clip-path="url(#30e9d)"/>
  </g>
</svg>
