<svg data-strokesvg="リ" viewBox="0 0 1024 1024" xmlns="http://www.w3.org/2000/svg">
  <defs>
    <clipPath id="30eac">
      <use href="#30eaa"/>
    </clipPath>
    <clipPath id="30ead">
      <use href="#30eab"/>
    </clipPath>
  </defs>
  <g data-strokesvg="shadows" style="fill:var(--shadow,#ccc)">
    <path id="30eaa" d="M373 641h5q13-2 20-17 8-16 8-32V471l1-92 1-82v-63q0-11-4-22-3-11-16-18-13-9-45-9-22 0-26 9v2q0 8 11 20 11 11 11 31v27l-1 57v71l-1 72v85l-2 13-1 14v4l5 18q4 13 12 23 9 10 22 10z"/>
    <path id="30eab" d="M703 408v-32l-1-80q0-42-2-82v-8q0-16-5-25-4-9-24-16-22-7-43-7l-14 2q-6 1-7 5v2q0 8 9 19 11 12 12 36 2 35 2 72l1 70q0 123-17 211-16 88-49 151-31 62-81 113-48 49-112 97-35 28-35 39 0 5 8 5 14 0 43-15 83-43 142-94 60-51 97-115 38-65 56-150 18-86 20-198z"/>
  </g>
  <g data-strokesvg="strokes" style="stroke:var(--stroke,#000);fill:none;stroke-width:128;stroke-linecap:round">
    <path style="--i:0" d="m342 120 28 459" clip-path="url(#30eac)"/>
    <path style="--i:1" d="M618 92c188 633-226 857-226 857" clip-path="url(#30ead)"/>
  </g>
</svg>
