<svg data-strokesvg="レ" viewBox="0 0 1024 1024" xmlns="http://www.w3.org/2000/svg">
  <defs>
    <clipPath id="30ecb">
      <use href="#30eca"/>
    </clipPath>
  </defs>
  <g data-strokesvg="shadows" style="fill:var(--shadow,#ccc)">
    <path id="30eca" d="M283 826v5l4 14q3 11 12 22a29 29 0 0 0 36 9q88-38 172-92c160-103 288-235 302-254q33-44 32-66 0-12-8-12-12 0-31 22a1386 1386 0 0 1-447 309v-88l1-112V259q0-15-4-24-5-11-21-17-28-11-45-11-20 0-20 10v1q0 9 9 20 11 11 11 30v533l-2 13z"/>
  </g>
  <g data-strokesvg="strokes" style="stroke:var(--stroke,#000);fill:none;stroke-width:128;stroke-linecap:round">
    <path style="--i:0" d="M272 144c145 247-29 608 33 702 176-42 490-347 490-347" clip-path="url(#30ecb)"/>
  </g>
</svg>
