<svg data-strokesvg="ロ" viewBox="0 0 1024 1024" xmlns="http://www.w3.org/2000/svg">
  <defs>
    <clipPath id="30edd">
      <use href="#30eda"/>
    </clipPath>
    <clipPath id="30ede">
      <use href="#30edb"/>
    </clipPath>
    <clipPath id="30edf">
      <use href="#30edc"/>
    </clipPath>
  </defs>
  <g data-strokesvg="shadows" style="fill:var(--shadow,#ccc)">
    <path id="30eda" d="M220 322c-11 0-17 2-17 8 0 5 2 10 8 16a102 102 0 0 1 19 31 3411 3411 0 0 1 17 148 36776 36776 0 0 1 25 243v18l4 22 15 27c7 8 16 12 26 12 6 0 11-2 17-5 6-4 9-15 10-34l-5-59-10-90a44622 44622 0 0 0-20-185c-3-42-11-116-17-126-5-7-12-13-23-16-9-4-19-7-28-8-10-2-17-2-21-2z"/>
    <path id="30edb" d="M735 305a2024 2024 0 0 1-167 19 56739 56739 0 0 1-276 24c-47 4-22 63 10 61a56072 56072 0 0 1 271-26l141-13a27461 27461 0 0 1-47 352c-5 36 62 28 65 4a15598 15598 0 0 1 56-362l3-6 3-12c0-11-7-21-19-29s-24-12-36-12z"/>
    <path id="30edc" d="m667 722-328 27c-42 3-30 61 5 59l363-26c13-1 24-3 32-5 9-3 13-8 13-17v-3c-1-7-3-13-7-18-3-5-7-10-13-13-9-5-44-6-65-4z"/>
  </g>
  <g data-strokesvg="strokes" style="stroke:var(--stroke,#000);fill:none;stroke-width:128;stroke-linecap:round">
    <path style="--i:0" d="m218 257 94 527" clip-path="url(#30edd)"/>
    <path style="--i:1" d="M200 377c348 39 439-106 587-65l-88 372" clip-path="url(#30ede)"/>
    <path style="--i:2" d="m247 783 442-21" clip-path="url(#30edf)"/>
  </g>
</svg>
