<svg data-strokesvg="ロ" viewBox="0 0 1024 1024" xmlns="http://www.w3.org/2000/svg">
  <defs>
    <clipPath id="30edd">
      <use href="#30eda"/>
    </clipPath>
    <clipPath id="30ede">
      <use href="#30edb"/>
    </clipPath>
    <clipPath id="30edf">
      <use href="#30edc"/>
    </clipPath>
  </defs>
  <g data-strokesvg="shadows" style="fill:var(--shadow,#ccc)">
    <path id="30eda" d="M220 322q-17 0-17 8 0 7 8 16a102 102 0 0 1 19 31l17 148 25 243v18l4 22 15 27q11 12 26 12 8 0 17-5 9-6 10-34l-5-59-10-90-20-185c-3-42-11-116-17-126q-7-11-23-16-14-6-28-8-15-3-21-2"/>
    <path id="30edb" d="M735 305a2024 2024 0 0 1-167 19l-276 24c-47 4-22 63 10 61l271-26 141-13-47 352c-5 36 62 28 65 4a15598 15598 0 0 1 56-362l3-6 3-12q0-17-19-29-18-12-36-12z"/>
    <path id="30edc" d="m667 722-328 27c-42 3-30 61 5 59l363-26q20-2 32-5 13-4 13-17v-3q-1-10-7-18-4-8-13-13c-9-5-44-6-65-4"/>
  </g>
  <g data-strokesvg="strokes" style="stroke:var(--stroke,#000);fill:none;stroke-width:128;stroke-linecap:round">
    <path style="--i:0" d="m218 257 94 527" clip-path="url(#30edd)"/>
    <path style="--i:1" d="M200 377c348 39 439-106 587-65l-88 372" clip-path="url(#30ede)"/>
    <path style="--i:2" d="m247 783 442-21" clip-path="url(#30edf)"/>
  </g>
</svg>
