<svg data-strokesvg="ワ" viewBox="0 0 1024 1024" xmlns="http://www.w3.org/2000/svg">
  <defs>
    <clipPath id="30efc">
      <use href="#30efa"/>
    </clipPath>
    <clipPath id="30efd">
      <use href="#30efb"/>
    </clipPath>
  </defs>
  <g data-strokesvg="shadows" style="fill:var(--shadow,#ccc)">
    <path id="30efa" d="M251 476v4l-1 12-1 11v3l1 4q2 11 14 29 13 17 31 17l7-1q9-3 13-13 7-10 7-33a606 606 0 0 0-10-97c-7-56-34-165-51-187q-9-14-16-17l-9-3q-14 0-17 10l-3 12 3 22 5 15 12 52a954 954 0 0 1 13 126z"/>
    <path id="30efb" d="m298 337 90-9 244-25 108-10a1025 1025 0 0 1-196 378 1347 1347 0 0 1-210 210l-29 21q-10 9-10 16l1 5q2 2 11 2 30 0 80-31 51-32 112-87a1259 1259 0 0 0 237-306 976 976 0 0 0 90-212l5-6 5-9 2-8q0-10-12-19-11-11-25-18-13-6-22-7l-14 2a6398 6398 0 0 1-359 38l-109 10h-16c-45 0-17 68 17 65"/>
  </g>
  <g data-strokesvg="strokes" style="stroke:var(--stroke,#000);fill:none;stroke-width:128;stroke-linecap:round">
    <path style="--i:0" d="m220 141 67 354" clip-path="url(#30efc)"/>
    <path style="--i:1" d="M192 297c416 18 435-90 628-66-189 536-473 657-473 657" clip-path="url(#30efd)"/>
  </g>
</svg>
