<svg data-strokesvg="ヲ" viewBox="0 0 1024 1024" xmlns="http://www.w3.org/2000/svg">
  <defs>
    <clipPath id="30f2d">
      <use href="#30f2a"/>
    </clipPath>
    <clipPath id="30f2e">
      <use href="#30f2b"/>
    </clipPath>
    <clipPath id="30f2f">
      <use href="#30f2c"/>
    </clipPath>
  </defs>
  <g data-strokesvg="shadows" style="fill:var(--shadow,#ccc)">
    <path id="30f2a" d="m740 211-68 7-387 43h-17l-6-1-15-3q-7-3-14-3-3 0-7 3l-2 7q0 17 15 36t26 25l13 1h10l66-10 84-10a3498 3498 0 0 1 196-21q48-6 84-7c50-4 73-71 22-67"/>
    <path id="30f2b" d="M681 391h-4l-15 2-22 3a10428 10428 0 0 1-323 40h-29l-27-4q-10 0-10 9 0 6 7 21 7 14 20 26 12 13 26 13l32-3 66-8 175-22 73-9c47-7 85-68 31-68"/>
    <path id="30f2c" d="M563 605a1101 1101 0 0 1-266 269l-19 16q-9 7-9 14v1l1 2q2 4 9 4 16 1 58-20t99-66q58-44 121-111a1064 1064 0 0 0 235-419q6-24 12-34 4-7 4-15 0-13-17-25-18-11-32-11c-45 0-35 45-41 68-19 72-63 200-155 327"/>
  </g>
  <g data-strokesvg="strokes" style="stroke:var(--stroke,#000);fill:none;stroke-width:128;stroke-linecap:round">
    <path style="--i:0" d="m161 288 546-46" clip-path="url(#30f2d)"/>
    <path style="--i:1" d="m185 471 464-43" clip-path="url(#30f2e)"/>
    <path style="--i:2" d="M801 154C656 705 321 873 321 873" clip-path="url(#30f2f)"/>
  </g>
</svg>
