<svg data-strokesvg="ン" viewBox="0 0 1024 1024" xmlns="http://www.w3.org/2000/svg">
  <defs>
    <clipPath id="30f3c">
      <use href="#30f3a"/>
    </clipPath>
    <clipPath id="30f3d">
      <use href="#30f3b"/>
    </clipPath>
  </defs>
  <g data-strokesvg="shadows" style="fill:var(--shadow,#ccc)">
    <path id="30f3a" d="M193 289c-3 4-6 9-6 16 0 11 7 19 21 25a691 691 0 0 1 106 52 824 824 0 0 1 97 60c5 4 11 7 17 7 13 0 23-7 29-19 7-13 10-23 10-30 0-9-6-17-16-24a1070 1070 0 0 0-231-108c-11 0-19 7-27 21z"/>
    <path id="30f3b" d="M302 858q110-43 204-100 94-58 170-119t130-117q54-56 83-97t29-55q0-10-9-10-16 0-42 32-16 21-60 61-43 39-106 88-62 48-135 96-72 48-147 87t-143 57l-18 4-13 1-14-1-9-1q-4 0-9 3-4 4-4 10 0 10 9 27 10 17 25 30 14 13 26 13 14 0 33-9z"/>
  </g>
  <g data-strokesvg="strokes" style="stroke:var(--stroke,#000);fill:none;stroke-width:128;stroke-linecap:round">
    <path style="--i:0" d="m137 255 267 141" clip-path="url(#30f3c)"/>
    <path style="--i:1" d="M146 820c341 38 725-413 725-413" clip-path="url(#30f3d)"/>
  </g>
</svg>
