<svg data-strokesvg="ン" viewBox="0 0 1024 1024" xmlns="http://www.w3.org/2000/svg">
  <defs>
    <clipPath id="30f3c">
      <use href="#30f3a"/>
    </clipPath>
    <clipPath id="30f3d">
      <use href="#30f3b"/>
    </clipPath>
  </defs>
  <g data-strokesvg="shadows" style="fill:var(--shadow,#ccc)">
    <path id="30f3a" d="M193 289q-5 6-6 16 0 16 21 25 21 7 48 21 29 13 58 31a824 824 0 0 1 97 60q8 7 17 7 20-1 29-19 10-19 10-30 0-13-16-24-22-15-60-34a1070 1070 0 0 0-172-74q-14 0-26 21"/>
    <path id="30f3b" d="M302 858q110-43 204-100 94-58 170-119t130-117 83-97 29-55q0-10-9-10-16 0-42 32-16 21-60 61-43 39-106 88-62 48-135 96-72 48-147 87t-143 57l-18 4-13 1-14-1-9-1q-4 0-9 3-4 4-4 10 0 10 9 27 10 17 25 30 14 13 26 13 14 0 33-9"/>
  </g>
  <g data-strokesvg="strokes" style="stroke:var(--stroke,#000);fill:none;stroke-width:128;stroke-linecap:round">
    <path style="--i:0" d="m137 255 267 141" clip-path="url(#30f3c)"/>
    <path style="--i:1" d="M146 820c341 38 725-413 725-413" clip-path="url(#30f3d)"/>
  </g>
</svg>
