<svg data-strokesvg="ヴ" viewBox="0 0 1024 1024" xmlns="http://www.w3.org/2000/svg">
  <defs>
    <clipPath id="30f4f">
      <use href="#30f4a"/>
    </clipPath>
    <clipPath id="30f4g">
      <use href="#30f4b"/>
    </clipPath>
    <clipPath id="30f4h">
      <use href="#30f4c"/>
    </clipPath>
    <clipPath id="30f4i">
      <use href="#30f4d"/>
    </clipPath>
    <clipPath id="30f4j">
      <use href="#30f4e"/>
    </clipPath>
  </defs>
  <g data-strokesvg="shadows" style="fill:var(--shadow,#ccc)">
    <path id="30f4a" d="m487 179 1 157c3 34 66 34 66-6v-52l1-44v-66l-3-18q-3-11-17-17-15-7-49-7-18 0-20 5v2q0 6 6 11 7 6 10 15 3 4 3 9 2 4 2 11"/>
    <path id="30f4b" d="M285 354q-9-25-21-50-11-24-23-24-6 0-16 6-3 1-5 7l-1 10 3 22 4 17 12 51 8 62 8 87v3l-1 11-1 11v3l1 4q3 17 16 33 14 16 29 16h3l2-1q12-3 16-14 6-11 6-35l-3-30a818 818 0 0 0-21-127z"/>
    <path id="30f4c" d="m488 336-203 18c-41 2-20 64 16 62l43-3a5142 5142 0 0 1 202-21l215-19q-37 113-93 204a1060 1060 0 0 1-241 273q-57 46-97 75-29 19-29 27l3 6q3 6 12 6 13 0 49-18 35-16 84-49a909 909 0 0 0 216-198 950 950 0 0 0 184-342l3-5 1-6q0-10-14-24a48 48 0 0 0-37-16 1890 1890 0 0 0-131 12l-117 12z"/>
    <path id="30f4d" d="M916 291q0-7-3-11l-13-18-31-38q-17-21-34-37t-26-16q-10 0-18 9-9 8-9 19 0 7 4 11 17 15 40 44 25 29 41 55 6 10 19 10 11 0 20-8 10-9 10-20"/>
    <path id="30f4e" d="M946 255q9 12 20 12 5 0 9-2l9-6q11-11 11-20 0-11-13-27t-32-34l-32-32-19-16q-7-6-15-6-11 0-19 7-7 7-7 16 0 8 6 14 24 20 47 49 25 28 35 45"/>
  </g>
  <g data-strokesvg="strokes" style="stroke:var(--stroke,#000);fill:none;stroke-width:128;stroke-linecap:round">
    <path style="--i:0" d="m472 59 45 240" clip-path="url(#30f4f)"/>
    <path style="--i:1" d="m218 216 78 346" clip-path="url(#30f4g)"/>
    <path style="--i:2" d="m197 393 641-97C657 793 356 937 356 937" clip-path="url(#30f4h)"/>
    <path style="--i:3" d="m751 129 111 138" clip-path="url(#30f4i)"/>
    <path style="--i:4" d="m826 80 114 133" clip-path="url(#30f4j)"/>
  </g>
</svg>
