<svg data-strokesvg="ヴ" viewBox="0 0 1024 1024" xmlns="http://www.w3.org/2000/svg">
  <defs>
    <clipPath id="30f4f">
      <use href="#30f4a"/>
    </clipPath>
    <clipPath id="30f4g">
      <use href="#30f4b"/>
    </clipPath>
    <clipPath id="30f4h">
      <use href="#30f4c"/>
    </clipPath>
    <clipPath id="30f4i">
      <use href="#30f4d"/>
    </clipPath>
    <clipPath id="30f4j">
      <use href="#30f4e"/>
    </clipPath>
  </defs>
  <g data-strokesvg="shadows" style="fill:var(--shadow,#ccc)">
    <path id="30f4a" d="m487 179 1 157c3 34 66 34 66-6v-52l1-44v-66l-3-18c-2-7-8-13-17-17-10-5-26-7-49-7-12 0-19 2-20 5v2c0 4 2 7 6 11s8 9 10 15c2 2 3 6 3 9 2 3 2 6 2 11z"/>
    <path id="30f4b" d="M285 354c-6-17-13-33-21-50-7-16-15-24-23-24-4 0-10 2-16 6-2 1-4 3-5 7l-1 10 3 22 4 17 12 51 8 62a1137 1137 0 0 1 8 87v3l-1 11-1 11v3l1 4c2 11 7 22 16 33 10 10 19 16 29 16h3l2-1c8-2 13-7 16-14 4-7 6-19 6-35l-3-30a818 818 0 0 0-21-127z"/>
    <path id="30f4c" d="M488 336a11261 11261 0 0 1-203 18c-41 2-20 64 16 62l43-3a5142 5142 0 0 1 202-21 10985 10985 0 0 1 215-19c-25 76-56 143-93 204a1060 1060 0 0 1-241 273c-38 31-71 56-97 75-19 13-29 22-29 27l3 6c2 4 6 6 12 6 9 0 25-6 49-18a909 909 0 0 0 300-247 950 950 0 0 0 184-342l3-5 1-6c0-7-5-15-14-24a48 48 0 0 0-37-16 1890 1890 0 0 0-131 12l-117 12z"/>
    <path id="30f4d" d="M916 291q0-7-3-11l-13-18-31-38q-17-21-34-37t-26-16q-10 0-18 9-9 8-9 19 0 7 4 11 17 15 40 44 25 29 41 55 6 10 19 10 11 0 20-8 10-9 10-20z"/>
    <path id="30f4e" d="M946 255q9 12 20 12 5 0 9-2l9-6q11-11 11-20 0-11-13-27t-32-34l-32-32-19-16q-7-6-15-6-11 0-19 7-7 7-7 16 0 8 6 14 24 20 47 49 25 28 35 45z"/>
  </g>
  <g data-strokesvg="strokes" style="stroke:var(--stroke,#000);fill:none;stroke-width:128;stroke-linecap:round">
    <path style="--i:0" d="m472 59 45 240" clip-path="url(#30f4f)"/>
    <path style="--i:1" d="m218 216 78 346" clip-path="url(#30f4g)"/>
    <path style="--i:2" d="m197 393 641-97C657 793 356 937 356 937" clip-path="url(#30f4h)"/>
    <path style="--i:3" d="m751 129 111 138" clip-path="url(#30f4i)"/>
    <path style="--i:4" d="m826 80 114 133" clip-path="url(#30f4j)"/>
  </g>
</svg>
