<svg data-strokesvg="ー" viewBox="0 0 1024 1024" xmlns="http://www.w3.org/2000/svg">
  <defs>
    <clipPath id="30fcb">
      <use href="#30fca"/>
    </clipPath>
  </defs>
  <g data-strokesvg="shadows" style="fill:var(--shadow,#ccc)">
    <path id="30fca" d="M809 505h-3q-156 5-310 15l-297 19h-4l-22-1-17-2q-16 0-16 16 0 5 5 18 6 13 18 24t34 11h10l11-1q119-10 279-19 159-11 344-12 17 0 33-9 18-9 18-22t-16-21q-16-8-35-12-20-4-32-4z"/>
  </g>
  <g data-strokesvg="strokes" style="stroke:var(--stroke,#000);fill:none;stroke-width:128;stroke-linecap:round">
    <path style="--i:0" d="m75 571 754-25" clip-path="url(#30fcb)"/>
  </g>
</svg>
