<?xml version="1.0" encoding="UTF-8" standalone="no"?>
<!-- Created with Inkscape (http://www.inkscape.org/) -->

<svg
   sodipodi:docname="ã‚.svg"
   inkscape:version="1.1.2 (b8e25be833, 2022-02-05)"
   id="svg82337"
   version="2"
   viewBox="0 0 40 40"
   height="40"
   width="40"
   xmlns:inkscape="http://www.inkscape.org/namespaces/inkscape"
   xmlns:sodipodi="http://sodipodi.sourceforge.net/DTD/sodipodi-0.dtd"
   xmlns:xlink="http://www.w3.org/1999/xlink"
   xmlns="http://www.w3.org/2000/svg"
   xmlns:svg="http://www.w3.org/2000/svg">
  <sodipodi:namedview
     id="namedview82339"
     pagecolor="#ffffff"
     bordercolor="#999999"
     borderopacity="1"
     inkscape:pageshadow="0"
     inkscape:pageopacity="0"
     inkscape:pagecheckerboard="0"
     inkscape:document-units="px"
     showgrid="false"
     units="px"
     inkscape:zoom="11.313709"
     inkscape:cx="17.545087"
     inkscape:cy="19.843184"
     inkscape:window-width="1920"
     inkscape:window-height="1111"
     inkscape:window-x="-9"
     inkscape:window-y="-9"
     inkscape:window-maximized="1"
     inkscape:current-layer="svg82337"
     viewbox-width="10.5832"
     scale-x="0.26458"
     inkscape:snap-global="true"
     inkscape:snap-bbox="false"
     inkscape:snap-page="true"
     inkscape:snap-midpoints="true" />
  <defs
     id="defs82334">
    <clipPath
       clipPathUnits="userSpaceOnUse"
       id="clipPath6365">
      <use
         x="0"
         y="0"
         xlink:href="#path2554"
         id="use6367"
         width="100%"
         height="100%" />
    </clipPath>
    <clipPath
       clipPathUnits="userSpaceOnUse"
       id="clipPath6371">
      <use
         x="0"
         y="0"
         xlink:href="#path2558"
         id="use6373"
         width="100%"
         height="100%" />
    </clipPath>
    <clipPath
       clipPathUnits="userSpaceOnUse"
       id="clipPath6377">
      <use
         x="0"
         y="0"
         xlink:href="#path2562"
         id="use6379"
         width="100%"
         height="100%" />
    </clipPath>
    <clipPath
       clipPathUnits="userSpaceOnUse"
       id="clipPath6383">
      <use
         x="0"
         y="0"
         xlink:href="#path2566"
         id="use6385"
         width="100%"
         height="100%" />
    </clipPath>
  </defs>
  <g
     id="g6254">
    <path
       d="m 12.400609,8.48094 q 3.52,0 6.96,-0.2 3.44,-0.2 6.6,-0.6 3.2,-0.4 5.999996,-1.04 l 0.04,2.96 q -2.16,0.36 -4.679996,0.68 -2.48,0.28 -5.08,0.52 -2.6,0.2 -5.12,0.32 -2.52,0.12 -4.76,0.12 -0.84,0 -2.04,-0.04 -1.2,-0.08 -2.4,-0.12 -1.2,-0.08 -2.04,-0.12 l -0.08,-3 q 0.72,0.12 1.96,0.24 1.24,0.12 2.52,0.2 1.28,0.08 2.12,0.08 z"
       id="path2554"
       style="font-size:40px;line-height:1;font-family:'Noto Sans JP';-inkscape-font-specification:'Noto Sans JP';white-space:pre;fill:#fc2b0e;fill-opacity:1" />
    <path
       style="font-size:40px;line-height:1;font-family:'Noto Sans JP';-inkscape-font-specification:'Noto Sans JP';white-space:pre;fill:#fcd90e;fill-opacity:1"
       d="m 18.880609,3.52094 q -0.16,0.36 -0.28,0.88 -0.08,0.48 -0.2,0.92 -0.32,1.64 -0.64,4.16 -0.32,2.52 -0.52,5.4 -0.2,2.84 -0.2,5.6 0,2.56 0.32,5 0.36,2.44 0.88,4.68 0.56,2.2 1.16,4.08 l -2.88,0.88 q -0.6,-1.8 -1.12,-4.16 -0.52,-2.4 -0.84,-5 -0.32,-2.64 -0.32,-5.16 0,-2.08 0.12,-4.24 0.16,-2.16 0.36,-4.2 0.2,-2.08 0.36,-3.88 0.2,-1.8 0.36,-3.12 0.04,-0.52 0.08,-1.04 0.04,-0.52 0,-0.88 z"
       id="path2558" />
    <path
       style="font-size:40px;line-height:1;font-family:'Noto Sans JP';-inkscape-font-specification:'Noto Sans JP';white-space:pre;fill:#83e43a;fill-opacity:1;stroke:none;stroke-opacity:0.631373"
       d="m 29.080609,13.16094 c -0.08,0.16 -0.173333,0.38667 -0.28,0.68 -0.08,0.26667 -0.173333,0.54667 -0.28,0.84 -0.08,0.26667 -0.16,0.52 -0.24,0.76 -0.8,2.45333 -1.76,4.70667 -2.88,6.76 -1.12,2.02667 -2.333333,3.84 -3.64,5.44 -1.306667,1.57333 -2.653333,2.89333 -4.04,3.96 -1.306667,0.98667 -2.72,1.81333 -4.24,2.48 -1.52,0.66667 -2.986667,1 -4.4,1 -0.853333,0 -1.64,-0.18667 -2.36,-0.56 -0.72,-0.37333 -1.293333,-0.93333 -1.72,-1.68 -0.426667,-0.74667 -0.64,-1.68 -0.64,-2.8 0,-1.36 0.293333,-2.70667 0.88,-4.04 0.586667,-1.36 1.386667,-2.64 2.4,-3.84 1.04,-1.2 2.213333,-2.26667 3.52,-3.2 1.333333,-0.96 2.478112,-1.635674 3.971445,-2.222344 l 0.998907,2.464307 c -1.493333,0.66667 -3.477019,1.798037 -4.730352,2.918037 -1.226667,1.12 -2.2,2.33333 -2.92,3.64 -0.72,1.28 -1.08,2.53333 -1.08,3.76 0,0.82667 0.186667,1.45333 0.56,1.88 0.4,0.4 0.973333,0.6 1.72,0.6 0.986667,0 2.093333,-0.28 3.32,-0.84 1.253333,-0.56 2.533333,-1.41333 3.84,-2.56 1.786667,-1.54667 3.44,-3.44 4.96,-5.68 1.546667,-2.24 2.773333,-4.98667 3.68,-8.24 0.05333,-0.21333 0.106667,-0.45333 0.16,-0.72 0.05333,-0.26667 0.106667,-0.54667 0.16,-0.84 0.08,-0.29333 0.12,-0.54667 0.12,-0.76 z"
       id="path2562"
       sodipodi:nodetypes="cccccccssssscccccccscsccccsccc" />
    <path
       style="font-size:40px;line-height:1;font-family:'Noto Sans JP';-inkscape-font-specification:'Noto Sans JP';white-space:pre;fill:#46c3e1;fill-opacity:1;stroke:none;stroke-opacity:0.631373"
       d="m 15.132054,16.738596 c 1.306667,-0.48 2.988555,-0.964326 4.508555,-1.257656 1.546667,-0.29333 2.96,-0.44 4.24,-0.44 2.533333,0 4.719999,0.44 6.559996,1.32 1.84,0.88 3.25333,2.08 4.24,3.6 1.01333,1.49333 1.52,3.17333 1.52,5.04 0,1.44 -0.25333,2.81333 -0.76,4.12 -0.48,1.30667 -1.25333,2.50667 -2.32,3.6 -1.04,1.06667 -2.38667,1.98667 -4.039996,2.76 -1.653333,0.77333 -3.64,1.34667 -5.96,1.72 l -1.72,-2.68 c 2.426667,-0.24 4.506667,-0.8 6.24,-1.68 1.733326,-0.88 3.079996,-2 4.039996,-3.36 0.96,-1.36 1.44,-2.90667 1.44,-4.64 0,-1.30667 -0.36,-2.50667 -1.08,-3.6 -0.72,-1.09333 -1.77333,-1.97333 -3.159996,-2.64 -1.36,-0.69333 -3.04,-1.04 -5.04,-1.04 -1.68,0 -3.24,0.2 -4.68,0.6 -1.413333,0.4 -2.016315,0.588633 -3.029648,1.041963 z"
       id="path2566"
       sodipodi:nodetypes="ccsscsccsccsssscsccc" />
  </g>
  <g
     inkscape:label="Layer 1"
     inkscape:groupmode="layer"
     id="layer1">
    <path
       style="fill:none;stroke:#000000;stroke-width:4;stroke-linecap:butt;stroke-linejoin:miter;stroke-miterlimit:4;stroke-dasharray:none;stroke-opacity:1"
       d="m 5.376837,9.27903 c 9.480372,1.07226 15.043941,0.30788 27.235598,-1.27589"
       id="path204632"
       clip-path="url(#clipPath6365)" />
    <path
       style="fill:none;stroke:#000000;stroke-width:4;stroke-linecap:butt;stroke-linejoin:miter;stroke-miterlimit:4;stroke-dasharray:none;stroke-opacity:1"
       d="M 17.303587,2.86189 C 15.01597,17.60162 14.870713,24.25198 18.122289,35.07501"
       id="path201686"
       clip-path="url(#clipPath6371)" />
    <path
       style="fill:none;stroke:#000000;stroke-width:4;stroke-linecap:butt;stroke-linejoin:miter;stroke-miterlimit:4;stroke-dasharray:none;stroke-opacity:1"
       d="M 27.693659,12.42929 C 22.393499,32.8015 5.1705074,38.828496 5.68496,28.82533 5.8333438,25.940113 10.771069,19.752129 15.631508,17.970749"
       id="path219876"
       clip-path="url(#clipPath6377)"
       sodipodi:nodetypes="csc" />
    <path
       style="fill:none;stroke:#000000;stroke-width:4;stroke-linecap:butt;stroke-linejoin:miter;stroke-miterlimit:4;stroke-dasharray:none;stroke-opacity:1"
       d="m 15.631508,17.970749 c 10.50399,-3.8063 15.953057,-0.0083 17.778367,3.126051 3.60064,6.18279 -1.02332,13.77455 -12.082399,15.01743"
       id="path205582"
       clip-path="url(#clipPath6383)"
       sodipodi:nodetypes="csc" />
  </g>
</svg>
