<?xml version="1.0" encoding="UTF-8" standalone="no"?>
<!-- Created with Inkscape (http://www.inkscape.org/) -->

<svg
   width="1024"
   height="1024"
   viewBox="0 0 1024 1024"
   version="2"
   id="svg82337"
   inkscape:version="1.3 (0e150ed6c4, 2023-07-21)"
   sodipodi:docname="ã‚.svg"
   xmlns:inkscape="http://www.inkscape.org/namespaces/inkscape"
   xmlns:sodipodi="http://sodipodi.sourceforge.net/DTD/sodipodi-0.dtd"
   xmlns:xlink="http://www.w3.org/1999/xlink"
   xmlns="http://www.w3.org/2000/svg"
   xmlns:svg="http://www.w3.org/2000/svg">
  <sodipodi:namedview
     id="namedview82339"
     pagecolor="#ffffff"
     bordercolor="#999999"
     borderopacity="1"
     inkscape:pageshadow="0"
     inkscape:pageopacity="0"
     inkscape:pagecheckerboard="0"
     inkscape:document-units="px"
     showgrid="false"
     units="px"
     inkscape:zoom="0.70710678"
     inkscape:cx="502.75292"
     inkscape:cy="536.69405"
     inkscape:window-width="1920"
     inkscape:window-height="1111"
     inkscape:window-x="-9"
     inkscape:window-y="-9"
     inkscape:window-maximized="1"
     inkscape:current-layer="svg82337"
     viewbox-width="10.5832"
     scale-x="0.26458"
     inkscape:snap-global="true"
     inkscape:snap-bbox="false"
     inkscape:snap-page="true"
     inkscape:snap-midpoints="false"
     inkscape:object-paths="false"
     inkscape:snap-others="true"
     inkscape:snap-center="true"
     inkscape:bbox-nodes="false"
     inkscape:snap-nodes="true"
     inkscape:snap-grids="false"
     inkscape:showpageshadow="0"
     inkscape:deskcolor="#d1d1d1" />
  <defs
     id="defs82334">
    <clipPath
       id="clipPath1380">
      <use
         id="clone606"
         xlink:href="#path1" />
    </clipPath>
    <clipPath
       id="clipPath4792">
      <use
         id="clone900"
         xlink:href="#path2" />
    </clipPath>
    <clipPath
       id="clipPath213">
      <use
         id="clone9497"
         xlink:href="#path3" />
    </clipPath>
    <clipPath
       id="clipPath8845">
      <use
         id="clone797"
         xlink:href="#path4" />
    </clipPath>
  </defs>
  <g
     id="g6"
     >
    <path
       id="path1"
       style="font-weight:600;font-size:1024px;line-height:1;font-family:'Klee One';fill:#f66d6d;fill-opacity:1"
       d="m 414.7207,271.35938 c -29.3546,4.09598 -57.68558,7.50957 -84.99218,10.24023 -27.30662,2.73066 -50.85896,4.0957 -70.65625,4.0957 H 246.7832 236.54492 c -3.41332,-0.68266 -6.48613,-1.36421 -9.2168,-2.04687 -7.50931,-2.73067 -13.9957,-4.09571 -19.45703,-4.09571 -8.19198,0 -12.28711,3.41359 -12.28711,10.24024 0,3.41333 1.02427,6.82495 3.07227,10.23828 0.68267,0.68267 2.7312,4.77975 6.14453,12.28906 4.096,6.82666 9.89694,13.99459 17.40625,21.50391 7.50932,6.82665 17.06852,10.24023 28.67383,10.24023 h 10.23828 c 21.84529,-0.68266 45.05687,-2.0477 69.63281,-4.0957 24.57596,-2.73066 49.49333,-5.80347 74.75196,-9.2168 l 63.48828,-10.24023 c 42.32525,-7.50932 83.62704,-16.0423 123.90429,-25.59961 40.95992,-10.23998 78.50541,-20.138 112.63868,-29.69531 23.21061,-6.82666 34.8164,-15.01885 34.8164,-24.57618 0,-1.36532 -0.34077,-2.38959 -1.02344,-3.07226 v -2.04883 c -0.68265,-4.77865 -6.14478,-10.92232 -16.38476,-18.43164 -10.23998,-7.50932 -21.16227,-11.26367 -32.76758,-11.26367 h -6.14453 c -4.77866,0.68266 -8.87378,2.38848 -12.28711,5.11914 -3.41333,2.73066 -6.82691,4.7792 -10.24023,6.14453 -18.43198,6.82665 -44.03285,14.33536 -76.80079,22.52734 -32.08526,7.50933 -67.24144,14.67726 -105.4707,21.50391 z"
       sodipodi:nodetypes="csscccsscccsccccccsccsscscccc" />
    <path
       id="path2"
       style="font-weight:600;font-size:1024px;line-height:1;font-family:'Klee One';fill:#f5d36c;fill-opacity:1"
       d="m 435.19922,97.279297 c -7.5093,0 -11.60444,1.707776 -12.28711,5.121093 v 2.04688 c 0,2.73063 1.36507,6.14423 4.0957,10.24023 2.73067,4.096 4.77923,8.87461 6.14453,14.33594 0.68267,2.73063 1.02344,5.11997 1.02344,7.16797 0.68267,2.04796 1.02344,4.09653 1.02344,6.14453 v 5.11914 l -20.47852,123.9043 -9.21679,59.39257 c -3.41333,23.89325 -6.82691,48.12721 -10.24024,72.70313 -3.4133,23.89322 -6.48418,46.4214 -9.21484,67.58398 l -7.16797,64.51367 c -0.68267,6.82666 -1.36616,14.33538 -2.04883,22.52735 v 23.55273 c 0,21.16261 0.6835,42.66645 2.04883,64.51172 2.048,21.16261 4.4373,40.61791 7.16797,58.36719 l 13.31055,67.58398 c 3.41329,15.01862 6.48613,27.64872 9.21679,37.88868 2.73067,10.23992 4.43648,17.06716 5.11914,20.48046 4.77866,11.6053 11.60584,17.40625 20.48047,17.40625 0.68267,0 4.09624,-0.68154 10.24024,-2.04687 6.82663,-2.048 13.31111,-5.80238 19.45507,-11.26367 6.82666,-6.144 10.24024,-15.70125 10.24024,-28.67188 0,-4.09596 -0.34077,-6.82803 -1.02344,-8.19336 -2.73066,-9.55729 -6.48504,-20.13885 -11.26367,-31.74414 -4.096,-12.28796 -7.85037,-26.28116 -11.26367,-41.98242 l -10.24024,-71.68164 c -0.68266,-11.60529 -1.70693,-23.20919 -3.07226,-34.81445 -0.68267,-12.28796 -1.02344,-25.94235 -1.02344,-40.96094 0,-10.23996 0.34077,-21.16229 1.02344,-32.76758 0.68266,-11.60529 1.70693,-24.23538 3.07226,-37.88867 l 7.16797,-57.34375 c 3.41333,-21.16259 6.82691,-42.66647 10.24024,-64.51172 3.4133,-21.84525 7.16767,-43.00836 11.26367,-63.48828 l 10.24023,-59.39258 c 5.46133,-27.98921 10.23994,-52.2232 14.33594,-72.70312 4.77863,-20.47992 8.19227,-34.47508 10.24023,-41.98438 0.68267,-2.73066 1.02344,-6.14427 1.02344,-10.24023 0,-8.192 -3.4136,-14.67645 -10.24023,-19.45508 -6.82666,-4.77866 -14.67811,-8.53304 -23.55274,-11.26367 -8.87463,-3.41333 -17.06489,-5.46187 -24.57422,-6.144535 -6.82663,-1.365329 -10.58296,-2.048828 -11.26562,-2.048828 z"
       sodipodi:nodetypes="scssscscccccccscccscsccscccccssccsccccssccs"
       />
    <g
       id="g5">
      <path
         id="path3"
         style="font-weight:600;font-size:1024px;line-height:1;font-family:'Klee One';fill:#6af387;fill-opacity:1"
         d="m 614.40039,329.72852 c -2.73066,0 -4.43843,0.34077 -5.12109,1.02343 -2.73067,2.048 -4.09571,4.77808 -4.09571,8.19141 0,2.73066 0.34078,5.46269 1.02344,8.19336 0.68267,2.048 1.36616,4.4373 2.04883,7.16797 0.68267,2.73063 1.02344,5.46077 1.02344,8.1914 0.68266,2.048 1.02539,4.09657 1.02539,6.14453 0,1.36534 -0.34273,3.07115 -1.02539,5.11915 v 4.0957 c -0.68267,4.77863 -1.70694,10.2408 -3.07227,16.38476 -1.36533,6.144 -2.73037,11.94688 -4.0957,17.40821 l -21.50391,54.27148 c -15.70126,32.08521 -36.1809,64.17065 -61.43945,96.25586 -24.57592,32.08521 -50.85844,62.12211 -78.84766,90.11133 l -40.12304,38.60937 v 0.002 l 36.39257,46.20312 13.97071,-13.13281 c 42.32514,-40.27717 81.23778,-82.9442 116.73633,-128 35.49851,-45.73847 62.80533,-89.77249 81.91992,-132.09766 l 19.45508,-53.24804 c 1.3653,-4.096 2.73037,-10.23968 4.0957,-18.43164 1.36533,-8.192 2.04883,-13.65215 2.04883,-16.38282 v -6.14453 c 0,-2.73063 -0.6835,-5.11997 -2.04883,-7.16797 -1.36533,-4.09596 -5.80321,-8.53383 -13.3125,-13.3125 -7.5093,-5.46129 -15.69959,-9.89917 -24.57422,-13.3125 -8.19196,-4.09596 -15.01914,-6.14257 -20.48047,-6.14257 z"
         sodipodi:nodetypes="scscscsccscccccccccccssscccss" />
      <path
         id="path4"
         style="font-weight:600;font-size:1024px;line-height:1;font-family:'Klee One';fill:#b2f46b;fill-opacity:1"
         d="m 668.67188,410.62305 -66.56055,1.02539 c -29.35455,2.73063 -57.00214,7.50928 -82.94336,14.33594 -25.94125,6.14396 -49.83444,13.65271 -71.67969,22.52734 l -61.43945,22.52734 C 366.93424,480.59636 346.1119,494.25074 323.58398,512 301.0561,529.74926 278.52792,549.54733 256,571.39258 c -21.84525,21.84525 -40.95983,43.68993 -57.34375,65.53515 -16.38392,21.16259 -27.98975,40.27716 -34.81641,57.34375 -4.77863,11.6053 -7.16796,25.25968 -7.16796,40.96094 0,7.5093 1.36503,18.7724 4.0957,33.79102 2.73066,15.01859 7.1685,30.72151 13.3125,47.10547 6.14396,15.70125 13.99544,29.35369 23.55273,40.95898 10.23996,10.92263 22.52736,16.38477 36.86328,16.38477 10.23996,0 24.23512,-4.77865 41.98438,-14.33594 18.43192,-10.23996 38.57079,-23.21085 60.41601,-38.91211 21.84526,-15.70126 42.66561,-31.74495 62.4629,-48.12891 l 37.23046,-34.99414 -36.39257,-46.20312 -14.14844,13.61328 c -23.89327,21.84527 -46.76411,41.30253 -68.60938,58.36914 -21.84527,17.06661 -40.61903,30.37824 -56.32031,39.93555 -4.096,3.41331 -8.19111,5.11914 -12.28711,5.11914 -1.36533,0 -2.73037,-0.68155 -4.0957,-2.04688 -0.68267,-1.36533 -1.70694,-2.3896 -3.07227,-3.07226 -6.14397,-10.92264 -11.60612,-22.86921 -16.38476,-35.83985 -4.096,-13.65328 -6.14258,-26.62414 -6.14258,-38.91211 v -8.19336 l 2.04687,-8.1914 c 6.144,-18.43194 18.09057,-38.57075 35.83985,-60.41602 17.74927,-21.84527 37.5473,-43.00834 59.39258,-63.48828 22.52791,-21.1626 43.35023,-38.56936 62.46484,-52.22266 l 61.43945,-29.69726 c 24.57592,-11.60529 48.80988,-20.47905 72.70313,-26.62305 23.89322,-6.82663 46.4214,-11.2645 67.58398,-13.3125 l 68.60938,-2.04883 c 11.60529,0.68267 26.28196,3.07201 44.03125,7.16797 17.74925,3.41333 35.15799,10.24051 52.22461,20.48047 17.74925,10.23996 32.42595,25.94093 44.03125,47.10352 12.28792,21.16258 18.43164,49.49367 18.43164,84.99218 0,4.77867 -0.34077,9.90003 -1.02344,15.36133 0,5.46133 -0.34077,10.92149 -1.02344,16.38282 -3.4133,27.30654 -13.99488,53.93182 -31.74414,79.87304 -17.06659,25.25858 -38.91319,49.49254 -65.53711,72.70313 -26.62388,23.21055 -54.95497,44.37369 -84.99219,63.48828 -30.03721,19.11459 -59.39058,35.83982 -88.0625,50.17578 -28.67188,15.01859 -53.93209,26.62441 -75.77734,34.81641 -17.06659,6.14396 -25.59961,13.65271 -25.59961,22.52734 0,6.14396 5.46214,9.2168 16.38477,9.2168 3.4133,0 15.35992,-2.73011 35.83984,-8.19141 20.47992,-5.4613 46.07895,-13.99627 76.79883,-25.60156 30.71988,-10.92263 62.80531,-24.91583 96.25586,-41.98242 34.13318,-17.06662 66.56137,-37.20544 97.28125,-60.41602 31.40254,-23.89325 57.6851,-50.85927 78.84765,-80.89648 21.84526,-30.71988 35.49964,-64.85389 40.96094,-102.40039 2.048,-15.70129 3.07031,-30.37797 3.07031,-44.03126 0,-21.16255 -3.07088,-43.34999 -9.21484,-66.56054 -5.4613,-23.89325 -16.04288,-46.08063 -31.74414,-66.56055 -15.01859,-21.16258 -36.5225,-38.91209 -64.51172,-53.24805 -27.30655,-15.01859 -62.46485,-24.23513 -105.47265,-27.64843 z"
         sodipodi:nodetypes="cccccscccssccscsccccscscccsccscccccccccscscssccssscccccscccc" />
    </g>
  </g>
  <g
     id="g7"
     >
    <path
       style="font-variation-settings:normal;opacity:1;vector-effect:none;fill:none;fill-opacity:1;stroke:#000000;stroke-width:128;stroke-linecap:round;stroke-linejoin:miter;stroke-miterlimit:4;stroke-dasharray:none;stroke-dashoffset:0;stroke-opacity:1;-inkscape-stroke:none;stop-color:#000000;stop-opacity:1"
       d="M 113.81833,327.95541 687.55044,245.54498"
       id="path6"
       sodipodi:nodetypes="cc"
       clip-path="url(#clipPath1380)" />
    <path
       style="font-variation-settings:normal;opacity:1;vector-effect:none;fill:none;fill-opacity:1;stroke:#000000;stroke-width:128;stroke-linecap:round;stroke-linejoin:miter;stroke-miterlimit:4;stroke-dasharray:none;stroke-dashoffset:0;stroke-opacity:1;-inkscape-stroke:none;stop-color:#000000;stop-opacity:1"
       d="M 483.14214,36.688817 C 439.99173,288.43368 360.18295,609.10703 439.1005,795.01724"
       id="path7"
       sodipodi:nodetypes="cc"
       clip-path="url(#clipPath4792)" />
    <g
       id="g9"
       style="stroke:#000000;stroke-opacity:1">
      <path
         style="font-variation-settings:normal;opacity:1;vector-effect:none;fill:none;fill-opacity:1;stroke:#000000;stroke-width:128;stroke-linecap:round;stroke-linejoin:miter;stroke-miterlimit:4;stroke-dasharray:none;stroke-dashoffset:0;stroke-opacity:1;-inkscape-stroke:none;stop-color:#000000;stop-opacity:1"
         d="M 690.16295,277.08831 517,613 c 0,0 -26.96338,65.14358 -139.32738,155.14719 C 362.26455,780.48905 251.8938,873.60998 192.48528,798.95332 104.89988,688.88774 345.11935,405.02499 640,437 889,464 841.77177,629.37525 794,749 744.05632,874.06339 651.42998,911.89592 469.42998,950.89592"
         id="path8"
         sodipodi:nodetypes="ccssssc"
         clip-path="url(#clipPath213)" />
      <path
         style="font-variation-settings:normal;opacity:1;vector-effect:none;fill:none;fill-opacity:1;stroke:#000000;stroke-width:128;stroke-linecap:round;stroke-linejoin:miter;stroke-miterlimit:4;stroke-dasharray:none;stroke-dashoffset:0;stroke-opacity:1;-inkscape-stroke:none;stop-color:#000000;stop-opacity:1"
         d="M 591.35147,801.72484 685.55166,614.7575 517,613 c 0,0 -26.96338,65.14358 -139.32738,155.14719 C 362.26455,780.48905 251.8938,873.60998 192.48528,798.95332 104.89988,688.88774 345.11935,405.02499 640,437 889,464 841.77177,629.37525 794,749 744.05632,874.06339 651.42998,911.89592 469.42998,950.89592"
         id="path5"
         sodipodi:nodetypes="ccsssscc"
         clip-path="url(#clipPath8845)" />
    </g>
  </g>
</svg>
