<?xml version="1.0" encoding="UTF-8" standalone="no"?>
<!-- Created with Inkscape (http://www.inkscape.org/) -->

<svg
   width="1024"
   height="1024"
   viewBox="0 0 1024 1024"
   version="2"
   id="svg82337"
   inkscape:version="1.1.2 (b8e25be833, 2022-02-05)"
   sodipodi:docname="ã„.svg"
   xmlns:inkscape="http://www.inkscape.org/namespaces/inkscape"
   xmlns:sodipodi="http://sodipodi.sourceforge.net/DTD/sodipodi-0.dtd"
   xmlns:xlink="http://www.w3.org/1999/xlink"
   xmlns="http://www.w3.org/2000/svg"
   xmlns:svg="http://www.w3.org/2000/svg">
  <sodipodi:namedview
     id="namedview82339"
     pagecolor="#ffffff"
     bordercolor="#999999"
     borderopacity="1"
     inkscape:pageshadow="0"
     inkscape:pageopacity="0"
     inkscape:pagecheckerboard="0"
     inkscape:document-units="px"
     showgrid="false"
     units="px"
     inkscape:zoom="0.5"
     inkscape:cx="661"
     inkscape:cy="569"
     inkscape:window-width="1920"
     inkscape:window-height="1111"
     inkscape:window-x="-9"
     inkscape:window-y="-9"
     inkscape:window-maximized="1"
     inkscape:current-layer="layer1"
     viewbox-width="10.5832"
     scale-x="0.26458"
     inkscape:snap-global="true"
     inkscape:snap-bbox="false"
     inkscape:snap-page="true"
     inkscape:snap-midpoints="false"
     inkscape:object-paths="false"
     inkscape:snap-others="true"
     inkscape:snap-center="true"
     inkscape:bbox-nodes="false"
     inkscape:snap-nodes="true" />
  <defs
     id="defs82334">
    <rect
       x="0"
       y="0"
       width="2224"
       height="1756"
       id="rect22697" />
    <rect
       x="-360"
       y="-32"
       width="360"
       height="880"
       id="rect16357" />
    <rect
       x="0"
       y="0"
       width="1303.9049"
       height="1295.4196"
       id="rect5105" />
    <clipPath
       clipPathUnits="userSpaceOnUse"
       id="clipPath13679">
      <use
         x="0"
         y="0"
         xlink:href="#path11221"
         id="use13681"
         width="100%"
         height="100%" />
    </clipPath>
    <clipPath
       clipPathUnits="userSpaceOnUse"
       id="clipPath13685">
      <use
         x="0"
         y="0"
         xlink:href="#path11362"
         id="use13687"
         width="100%"
         height="100%" />
    </clipPath>
  </defs>
  <g
     id="g13691">
    <path
       style="font-size:1024px;line-height:1;font-family:'Noto Sans JP';-inkscape-font-specification:'Noto Sans JP';white-space:pre;fill:#ff6969;fill-opacity:1"
       d="m 228.352,186.368 q -2.048,12.288 -4.096,30.72 -1.024,18.432 -3.072,36.864 -1.024,18.432 -1.024,31.744 -1.024,31.744 -1.024,72.704 1.024,39.936 2.048,83.968 2.048,43.008 6.144,86.016 8.192,84.992 27.648,149.504 19.456,63.488 47.104,99.328 28.672,35.84 64.512,35.84 19.456,0 37.888,-17.408 18.432,-18.432 34.816,-48.128 17.408,-30.72 30.72,-67.584 14.336,-37.888 23.552,-75.776 l 64.512,72.704 q -30.72,87.04 -62.464,138.24 -30.72,50.176 -63.488,72.704 -31.744,22.528 -66.56,22.528 -48.128,0 -93.184,-34.816 -45.056,-35.84 -77.824,-114.688 -32.768,-79.872 -47.104,-211.968 -5.12,-45.056 -8.192,-97.28 -2.048,-52.224 -3.072,-99.328 0,-47.104 0,-76.8 0,-17.408 -1.024,-45.056 -1.024,-27.648 -6.144,-46.08 z"
       id="path11221" />
    <path
       style="font-size:1024px;line-height:1;font-family:'Noto Sans JP';-inkscape-font-specification:'Noto Sans JP';white-space:pre;fill:#ffdc69;fill-opacity:1"
       d="m 761.856,215.04 q 27.648,34.816 52.224,81.92 25.6,46.08 46.08,99.328 21.504,52.224 37.888,108.544 17.408,56.32 27.648,112.64 11.264,55.296 16.384,106.496 L 860.16,757.76 Q 854.016,688.128 838.656,616.448 823.296,543.744 800.768,476.16 778.24,407.552 748.544,347.136 718.848,286.72 681.984,242.688 Z"
       id="path11362" />
  </g>
  <g
     inkscape:label="Layer 1"
     inkscape:groupmode="layer"
     id="layer1">
    <path
       style="fill:none;stroke:#000000;stroke-width:128;stroke-linecap:butt;stroke-linejoin:miter;stroke-miterlimit:4;stroke-dasharray:none;stroke-opacity:1"
       d="m 176.7767,172.53405 15.82842,447.22244 88.68124,212.94322 82.15765,34.4753 87.82006,-51.50474 94.06602,-204.75945"
       id="path11277"
       sodipodi:nodetypes="cccccc"
       clip-path="url(#clipPath13679)" />
    <path
       style="fill:none;stroke:#000000;stroke-width:128;stroke-linecap:butt;stroke-linejoin:miter;stroke-miterlimit:4;stroke-dasharray:none;stroke-opacity:1"
       d="m 713,213 139,260 57,288"
       id="path13316"
       sodipodi:nodetypes="ccc"
       clip-path="url(#clipPath13685)" />
  </g>
</svg>
