<?xml version="1.0" encoding="UTF-8" standalone="no"?>
<!-- Created with Inkscape (http://www.inkscape.org/) -->

<svg
   width="1024"
   height="1024"
   viewBox="0 0 1024 1024"
   version="2"
   id="svg82337"
   inkscape:version="1.3 (0e150ed6c4, 2023-07-21)"
   sodipodi:docname="ã….svg"
   xmlns:inkscape="http://www.inkscape.org/namespaces/inkscape"
   xmlns:sodipodi="http://sodipodi.sourceforge.net/DTD/sodipodi-0.dtd"
   xmlns:xlink="http://www.w3.org/1999/xlink"
   xmlns="http://www.w3.org/2000/svg"
   xmlns:svg="http://www.w3.org/2000/svg">
  <sodipodi:namedview
     id="namedview82339"
     pagecolor="#ffffff"
     bordercolor="#999999"
     borderopacity="1"
     inkscape:pageshadow="0"
     inkscape:pageopacity="0"
     inkscape:pagecheckerboard="0"
     inkscape:document-units="px"
     showgrid="false"
     units="px"
     inkscape:zoom="0.70710678"
     inkscape:cx="309.71277"
     inkscape:cy="586.19152"
     inkscape:window-width="1920"
     inkscape:window-height="1111"
     inkscape:window-x="-9"
     inkscape:window-y="-9"
     inkscape:window-maximized="1"
     inkscape:current-layer="svg82337"
     viewbox-width="10.5832"
     scale-x="0.26458"
     inkscape:snap-global="true"
     inkscape:snap-bbox="false"
     inkscape:snap-page="true"
     inkscape:snap-midpoints="false"
     inkscape:object-paths="false"
     inkscape:snap-others="true"
     inkscape:snap-center="true"
     inkscape:bbox-nodes="false"
     inkscape:snap-nodes="true"
     inkscape:snap-grids="false"
     inkscape:showpageshadow="0"
     inkscape:deskcolor="#d1d1d1" />
  <defs
     id="defs82334">
    <clipPath
       id="clipPath7910">
      <use
         id="clone1572"
         xlink:href="#flowRoot1" />
    </clipPath>
    <clipPath
       id="clipPath9804">
      <use
         id="clone4517"
         xlink:href="#path1" />
    </clipPath>
  </defs>
  <g
     id="g13">
    <path
       style="font-weight:600;font-size:1024px;line-height:1;font-family:'Klee One';fill:#f66d6d"
       d="m 415.744,378.88 q 45.056,11.264 91.136,26.624 47.104,14.336 77.824,28.672 5.12,3.072 11.264,3.072 10.24,0 15.36,-8.192 6.144,-8.192 8.192,-17.408 2.048,-9.216 2.048,-12.288 0,-14.336 -18.432,-22.528 -24.576,-11.264 -57.344,-20.48 -31.744,-9.216 -64.512,-16.384 -31.744,-8.192 -56.32,-12.288 -3.072,-1.024 -8.192,-1.024 -11.264,0 -19.456,20.48 -1.024,3.072 -2.048,6.144 0,2.048 0,4.096 0,9.216 6.144,14.336 6.144,5.12 14.336,7.168 z"
       id="flowRoot1" />
    <path
       style="font-weight:600;font-size:1024px;line-height:1;font-family:'Klee One';fill:#f5d36c"
       d="m 623.616,632.832 v 16.384 q 0,58.368 -20.48,101.376 -20.48,43.008 -54.272,75.776 -32.768,31.744 -72.704,56.32 -38.912,24.576 -76.8,45.056 -24.576,13.312 -24.576,23.552 0,11.264 17.408,11.264 9.216,0 22.528,-5.12 50.176,-18.432 98.304,-44.032 49.152,-25.6 88.064,-60.416 38.912,-35.84 61.44,-83.968 23.552,-48.128 23.552,-111.616 0,-76.8 -28.672,-125.952 -28.672,-49.152 -98.304,-49.152 -7.168,0 -14.336,1.024 -6.144,0 -12.288,1.024 -53.248,7.168 -99.328,27.648 -46.08,20.48 -91.136,32.768 -4.096,1.024 -8.192,2.048 -3.072,0 -8.192,0 -4.096,0 -8.192,0 -3.072,-1.024 -6.144,-1.024 -6.144,0 -10.24,2.048 -2.048,2.048 -2.048,4.096 0,2.048 5.12,15.36 6.144,12.288 17.408,24.576 12.288,12.288 30.72,12.288 9.216,0 21.504,-6.144 40.96,-18.432 74.752,-34.816 34.816,-17.408 84.992,-25.6 6.144,-1.024 11.264,-1.024 6.144,-1.024 11.264,-1.024 27.648,0 45.056,20.48 18.432,19.456 22.528,76.8 z"
       id="path1" />
  </g>
  <g
     id="g14">
    <path
       style="font-variation-settings:normal;opacity:1;vector-effect:none;fill:none;fill-opacity:1;stroke:#000000;stroke-width:128;stroke-linecap:round;stroke-linejoin:miter;stroke-miterlimit:4;stroke-dasharray:none;stroke-dashoffset:0;stroke-opacity:1;-inkscape-stroke:none;stop-color:#000000;stop-opacity:1"
       d="m 335.5,323 224.20711,72.85355"
       id="path13"
       sodipodi:nodetypes="cc"
       clip-path="url(#clipPath7910)" />
    <path
       style="font-variation-settings:normal;opacity:1;vector-effect:none;fill:none;fill-opacity:1;stroke:#000000;stroke-width:128;stroke-linecap:round;stroke-linejoin:miter;stroke-miterlimit:4;stroke-dasharray:none;stroke-dashoffset:0;stroke-opacity:1;-inkscape-stroke:none;stop-color:#000000;stop-opacity:1"
       d="M 233.96142,558.47487 C 411.06193,594.70664 576.14164,428.11081 650,591 743.31579,796.80112 434,936 434,936"
       id="path14"
       sodipodi:nodetypes="csc"
       clip-path="url(#clipPath9804)" />
  </g>
</svg>
