<?xml version="1.0" encoding="UTF-8" standalone="no"?>
<!-- Created with Inkscape (http://www.inkscape.org/) -->

<svg
   width="1024"
   height="1024"
   viewBox="0 0 1024 1024"
   version="2"
   id="svg82337"
   inkscape:version="1.1.2 (b8e25be833, 2022-02-05)"
   sodipodi:docname="ã†.svg"
   xmlns:inkscape="http://www.inkscape.org/namespaces/inkscape"
   xmlns:sodipodi="http://sodipodi.sourceforge.net/DTD/sodipodi-0.dtd"
   xmlns:xlink="http://www.w3.org/1999/xlink"
   xmlns="http://www.w3.org/2000/svg"
   xmlns:svg="http://www.w3.org/2000/svg">
  <sodipodi:namedview
     id="namedview82339"
     pagecolor="#ffffff"
     bordercolor="#999999"
     borderopacity="1"
     inkscape:pageshadow="0"
     inkscape:pageopacity="0"
     inkscape:pagecheckerboard="0"
     inkscape:document-units="px"
     showgrid="false"
     units="px"
     inkscape:zoom="1"
     inkscape:cx="545.5"
     inkscape:cy="399.5"
     inkscape:window-width="1920"
     inkscape:window-height="1111"
     inkscape:window-x="-9"
     inkscape:window-y="-9"
     inkscape:window-maximized="1"
     inkscape:current-layer="svg82337"
     viewbox-width="10.5832"
     scale-x="0.26458"
     inkscape:snap-global="true"
     inkscape:snap-bbox="false"
     inkscape:snap-page="true"
     inkscape:snap-midpoints="false"
     inkscape:object-paths="false"
     inkscape:snap-others="false"
     inkscape:snap-center="true"
     inkscape:bbox-nodes="false"
     inkscape:snap-nodes="false"
     inkscape:snap-grids="false" />
  <defs
     id="defs82334">
    <rect
       x="0"
       y="0"
       width="1677.2573"
       height="1467.9537"
       id="rect31831" />
    <clipPath
       clipPathUnits="userSpaceOnUse"
       id="clipPath39519">
      <use
         x="0"
         y="0"
         xlink:href="#path38016"
         id="use39521"
         width="100%"
         height="100%" />
    </clipPath>
    <clipPath
       clipPathUnits="userSpaceOnUse"
       id="clipPath39525">
      <use
         x="0"
         y="0"
         xlink:href="#path37974"
         id="use39527"
         width="100%"
         height="100%" />
    </clipPath>
  </defs>
  <g
     inkscape:label="Layer 1"
     inkscape:groupmode="layer"
     id="layer1">
    <path
       style="font-size:1024px;line-height:1;font-family:'Noto Sans JP';-inkscape-font-specification:'Noto Sans JP';white-space:pre;fill:#d53e3e;fill-opacity:1"
       d="m 307.2,99.328 q 41.984,9.216 100.352,17.408 59.392,8.192 121.856,15.36 63.488,6.144 118.784,10.24 56.32,4.096 94.208,4.096 L 730.112,225.28 Q 687.104,222.208 629.76,218.112 573.44,212.992 512,206.848 451.584,199.68 394.24,192.512 337.92,184.32 293.888,177.152 Z"
       id="path38016" />
    <path
       style="font-size:1024px;line-height:1;font-family:'Noto Sans JP';-inkscape-font-specification:'Noto Sans JP';white-space:pre;fill:#f1b122;fill-opacity:1"
       d="m 737.28,560.128 q 0,-43.008 -22.528,-75.776 -21.504,-33.792 -61.44,-52.224 -38.912,-19.456 -91.136,-19.456 -59.392,0 -111.616,9.216 -52.224,9.216 -95.232,21.504 -41.984,12.288 -72.704,20.48 -23.552,7.168 -46.08,15.36 -21.504,8.192 -39.936,16.384 l -26.624,-95.232 q 21.504,-2.048 46.08,-6.144 25.6,-4.096 48.128,-9.216 36.864,-8.192 84.992,-19.456 49.152,-11.264 105.472,-20.48 57.344,-9.216 115.712,-9.216 72.704,0 130.048,26.624 57.344,26.624 90.112,77.824 33.792,50.176 33.792,122.88 0,83.968 -34.816,149.504 -34.816,64.512 -98.304,112.64 -62.464,47.104 -147.456,78.848 -84.992,31.744 -184.32,46.08 l -46.08,-77.824 q 92.16,-11.264 169.984,-35.84 77.824,-25.6 134.144,-63.488 57.344,-37.888 88.064,-91.136 31.744,-53.248 31.744,-121.856 z"
       id="path37974" />
  </g>
  <g
     id="g39536">
    <path
       style="fill:none;stroke:#000000;stroke-width:128;stroke-linecap:butt;stroke-linejoin:miter;stroke-miterlimit:4;stroke-dasharray:none;stroke-opacity:1"
       d="m 288.07869,139.49199 459.13062,49.62402"
       id="path38593"
       sodipodi:nodetypes="cc"
       clip-path="url(#clipPath39519)" />
    <path
       style="fill:none;stroke:#000000;stroke-width:128;stroke-linecap:butt;stroke-linejoin:miter;stroke-miterlimit:4;stroke-dasharray:none;stroke-opacity:1"
       d="M 168,455 523,367 742,422 791,613 672,800 323,923"
       id="path38956"
       sodipodi:nodetypes="cccccc"
       clip-path="url(#clipPath39525)" />
  </g>
</svg>
