<?xml version="1.0" encoding="UTF-8" standalone="no"?>
<!-- Created with Inkscape (http://www.inkscape.org/) -->

<svg
   width="1024"
   height="1024"
   viewBox="0 0 1024 1024"
   version="2"
   id="svg82337"
   inkscape:version="1.3 (0e150ed6c4, 2023-07-21)"
   sodipodi:docname="ã†.svg"
   xmlns:inkscape="http://www.inkscape.org/namespaces/inkscape"
   xmlns:sodipodi="http://sodipodi.sourceforge.net/DTD/sodipodi-0.dtd"
   xmlns:xlink="http://www.w3.org/1999/xlink"
   xmlns="http://www.w3.org/2000/svg"
   xmlns:svg="http://www.w3.org/2000/svg">
  <sodipodi:namedview
     id="namedview82339"
     pagecolor="#ffffff"
     bordercolor="#999999"
     borderopacity="1"
     inkscape:pageshadow="0"
     inkscape:pageopacity="0"
     inkscape:pagecheckerboard="0"
     inkscape:document-units="px"
     showgrid="false"
     units="px"
     inkscape:zoom="0.70710678"
     inkscape:cx="539.52247"
     inkscape:cy="532.45141"
     inkscape:window-width="1920"
     inkscape:window-height="1111"
     inkscape:window-x="-9"
     inkscape:window-y="-9"
     inkscape:window-maximized="1"
     inkscape:current-layer="svg82337"
     viewbox-width="10.5832"
     scale-x="0.26458"
     inkscape:snap-global="true"
     inkscape:snap-bbox="false"
     inkscape:snap-page="true"
     inkscape:snap-midpoints="false"
     inkscape:object-paths="false"
     inkscape:snap-others="true"
     inkscape:snap-center="true"
     inkscape:bbox-nodes="false"
     inkscape:snap-nodes="true"
     inkscape:snap-grids="false"
     inkscape:showpageshadow="0"
     inkscape:deskcolor="#d1d1d1" />
  <defs
     id="defs82334">
    <clipPath
       id="clipPath9386">
      <use
         id="clone4284"
         xlink:href="#flowRoot1" />
    </clipPath>
    <clipPath
       id="clipPath8153">
      <use
         id="clone2255"
         xlink:href="#path1" />
    </clipPath>
  </defs>
  <g
     id="g1">
    <path
       style="font-weight:600;font-size:1024px;line-height:1;font-family:'Klee One';fill:#f5d36c"
       d="m 403.456,130.048 h -6.144 q -15.36,0 -21.504,13.312 -6.144,13.312 -6.144,17.408 0,14.336 21.504,19.456 58.368,11.264 118.784,34.816 60.416,22.528 100.352,40.96 3.072,1.024 6.144,2.048 3.072,0 5.12,0 17.408,0 25.6,-14.336 9.216,-15.36 9.216,-24.576 0,-16.384 -24.576,-26.624 -29.696,-13.312 -70.656,-25.6 -39.936,-13.312 -81.92,-22.528 -40.96,-10.24 -75.776,-14.336 z"
       id="flowRoot1" />
    <path
       style="font-weight:600;font-size:1024px;line-height:1;font-family:'Klee One';fill:#f66d6d"
       d="m 379.904,962.56 q 66.56,-24.576 130.048,-59.392 63.488,-34.816 115.712,-83.968 52.224,-49.152 82.944,-114.688 30.72,-66.56 30.72,-153.6 0,-64.512 -14.336,-105.472 -13.312,-40.96 -34.816,-63.488 -21.504,-23.552 -46.08,-33.792 -23.552,-10.24 -44.032,-12.288 -20.48,-2.048 -31.744,-2.048 -8.192,0 -16.384,1.024 -7.168,0 -15.36,1.024 -68.608,7.168 -121.856,29.696 -53.248,21.504 -110.592,37.888 -4.096,1.024 -8.192,2.048 -4.096,0 -9.216,0 -6.144,0 -12.288,0 -6.144,-1.024 -11.264,-1.024 -6.144,0 -10.24,2.048 -4.096,3.072 -4.096,8.192 0,6.144 12.288,20.48 12.288,14.336 28.672,26.624 17.408,12.288 28.672,12.288 7.168,0 13.312,-3.072 6.144,-3.072 12.288,-6.144 93.184,-51.2 148.48,-62.464 55.296,-11.264 72.704,-11.264 7.168,0 23.552,3.072 16.384,3.072 34.816,17.408 18.432,14.336 30.72,49.152 13.312,33.792 13.312,95.232 0,74.752 -27.648,134.144 -27.648,58.368 -73.728,103.424 -45.056,45.056 -98.304,79.872 -53.248,34.816 -105.472,62.464 -24.576,13.312 -24.576,23.552 0,9.216 16.384,9.216 10.24,0 25.6,-6.144 z"
       id="path1" />
  </g>
  <g
     id="g2">
    <path
       style="font-variation-settings:normal;opacity:1;vector-effect:none;fill:none;fill-opacity:1;stroke:#000000;stroke-width:128;stroke-linecap:round;stroke-linejoin:miter;stroke-miterlimit:4;stroke-dasharray:none;stroke-dashoffset:0;stroke-opacity:1;-inkscape-stroke:none;stop-color:#000000;stop-opacity:1"
       d="m 303.95289,127.07821 299.76197,92.08326"
       id="path2"
       sodipodi:nodetypes="cc"
       clip-path="url(#clipPath9386)" />
    <path
       style="font-variation-settings:normal;opacity:1;vector-effect:none;fill:none;fill-opacity:1;stroke:#000000;stroke-width:128;stroke-linecap:round;stroke-linejoin:miter;stroke-miterlimit:4;stroke-dasharray:none;stroke-dashoffset:0;stroke-opacity:1;-inkscape-stroke:none;stop-color:#000000;stop-opacity:1"
       d="m 190.21529,491.79098 c 0,0 410.12751,-265.12532 492.84986,-46.31371 C 779.65578,700.97234 570.019,809.44628 384.71991,937.87511"
       id="path3"
       sodipodi:nodetypes="csc"
       clip-path="url(#clipPath8153)" />
  </g>
</svg>
