<?xml version="1.0" encoding="UTF-8" standalone="no"?>
<!-- Created with Inkscape (http://www.inkscape.org/) -->

<svg
   width="1024"
   height="1024"
   viewBox="0 0 1024 1024"
   version="2"
   id="svg82337"
   inkscape:version="1.3 (0e150ed6c4, 2023-07-21)"
   sodipodi:docname="ãˆ.svg"
   xmlns:inkscape="http://www.inkscape.org/namespaces/inkscape"
   xmlns:sodipodi="http://sodipodi.sourceforge.net/DTD/sodipodi-0.dtd"
   xmlns:xlink="http://www.w3.org/1999/xlink"
   xmlns="http://www.w3.org/2000/svg"
   xmlns:svg="http://www.w3.org/2000/svg">
  <sodipodi:namedview
     id="namedview82339"
     pagecolor="#ffffff"
     bordercolor="#999999"
     borderopacity="1"
     inkscape:pageshadow="0"
     inkscape:pageopacity="0"
     inkscape:pagecheckerboard="0"
     inkscape:document-units="px"
     showgrid="false"
     units="px"
     inkscape:zoom="0.70710678"
     inkscape:cx="485.07525"
     inkscape:cy="515.48084"
     inkscape:window-width="1920"
     inkscape:window-height="1111"
     inkscape:window-x="-9"
     inkscape:window-y="-9"
     inkscape:window-maximized="1"
     inkscape:current-layer="g46759"
     viewbox-width="10.5832"
     scale-x="0.26458"
     inkscape:snap-global="true"
     inkscape:snap-bbox="false"
     inkscape:snap-page="true"
     inkscape:snap-midpoints="false"
     inkscape:object-paths="false"
     inkscape:snap-others="false"
     inkscape:snap-center="true"
     inkscape:bbox-nodes="false"
     inkscape:snap-nodes="false"
     inkscape:snap-grids="false"
     inkscape:showpageshadow="0"
     inkscape:deskcolor="#d1d1d1" />
  <defs
     id="defs82334">
    <rect
       x="0"
       y="0"
       width="1677.2573"
       height="1467.9537"
       id="rect31831" />
    <clipPath
       clipPathUnits="userSpaceOnUse"
       id="clipPath46742">
      <use
         x="0"
         y="0"
         xlink:href="#path42996"
         id="use46744"
         width="100%"
         height="100%" />
    </clipPath>
    <clipPath
       clipPathUnits="userSpaceOnUse"
       id="clipPath1">
      <use
         x="0"
         y="0"
         xlink:href="#path43020"
         id="use1"
         width="100%"
         height="100%" />
    </clipPath>
  </defs>
  <g
     inkscape:label="Layer 1"
     inkscape:groupmode="layer"
     id="layer1">
    <path
       style="font-size:1024px;line-height:1;font-family:'Noto Sans JP';-inkscape-font-specification:'Noto Sans JP';white-space:pre;fill:#f9b747;fill-opacity:1"
       d="m 744.448,386.048 q -14.336,10.24 -30.72,23.552 -16.384,13.312 -25.6,22.528 -15.36,13.312 -41.984,37.888 -25.6,23.552 -55.296,52.224 -28.672,27.648 -55.296,52.224 -25.6,24.576 -39.936,39.936 8.192,-1.024 19.456,0 12.288,0 20.48,2.048 29.696,3.072 48.128,22.528 19.456,19.456 29.696,51.2 5.12,14.336 10.24,34.816 6.144,20.48 12.288,41.984 6.144,20.48 11.264,37.888 10.24,28.672 29.696,41.984 19.456,13.312 59.392,13.312 34.816,0 69.632,-2.048 35.84,-3.072 67.584,-8.192 32.768,-5.12 56.32,-10.24 l -5.12,86.016 q -21.504,3.072 -56.32,6.144 -34.816,4.096 -71.68,6.144 -35.84,3.072 -64.512,3.072 -61.44,0 -100.352,-18.432 -37.888,-18.432 -54.272,-68.608 -5.12,-15.36 -12.288,-37.888 -6.144,-23.552 -12.288,-46.08 -5.12,-22.528 -10.24,-36.864 -9.216,-26.624 -25.6,-39.936 -15.36,-14.336 -36.864,-14.336 -21.504,0 -39.936,10.24 -18.432,9.216 -35.84,26.624 -11.264,11.264 -30.72,30.72 -19.456,18.432 -43.008,44.032 -22.528,24.576 -47.104,52.224 -24.576,26.624 -47.104,53.248 -22.528,25.6 -39.936,48.128 l -77.824,-54.272 q 9.216,-8.192 22.528,-19.456 13.312,-12.288 28.672,-26.624 10.24,-10.24 37.888,-37.888 27.648,-28.672 66.56,-67.584 39.936,-38.912 83.968,-82.944 44.032,-45.056 88.064,-88.064 44.032,-44.032 80.896,-81.92 37.888,-37.888 63.488,-63.488 -23.552,1.024 -57.344,4.096 -33.792,2.048 -70.656,5.12 -36.864,3.072 -72.704,6.144 -35.84,3.072 -66.56,5.12 -29.696,2.048 -48.128,4.096 -25.6,2.048 -46.08,5.12 -19.456,2.048 -36.864,5.12 l -7.168,-90.112 q 17.408,1.024 39.936,2.048 22.528,1.024 47.104,0 17.408,0 53.248,-2.048 35.84,-2.048 80.896,-5.12 46.08,-3.072 92.16,-6.144 46.08,-4.096 84.992,-7.168 39.936,-3.072 62.464,-6.144 13.312,-2.048 27.648,-5.12 14.336,-3.072 21.504,-6.144 z"
       id="path43020" />
    <path
       style="font-size:1024px;line-height:1;font-family:'Noto Sans JP';-inkscape-font-specification:'Noto Sans JP';white-space:pre;fill:#f94747;fill-opacity:1"
       d="m 319.488,93.184 q 41.984,9.216 96.256,18.432 54.272,8.192 111.616,16.384 57.344,7.168 108.544,12.288 52.224,4.096 88.064,7.168 l -11.264,75.776 q -37.888,-3.072 -89.088,-9.216 -50.176,-6.144 -105.472,-13.312 -55.296,-7.168 -110.592,-15.36 -54.272,-9.216 -101.376,-17.408 z"
       id="path42996" />
  </g>
  <g
     id="g46759">
    <path
       style="fill:none;stroke:#000000;stroke-width:128;stroke-linecap:butt;stroke-linejoin:miter;stroke-miterlimit:4;stroke-dasharray:none;stroke-opacity:1"
       d="m 302.32799,130.10765 425.992,56.56854"
       id="path43235"
       sodipodi:nodetypes="cc"
       clip-path="url(#clipPath46742)" />
    <path
       style="fill:none;stroke:#000000;stroke-width:128;stroke-linecap:butt;stroke-linejoin:miter;stroke-miterlimit:4;stroke-dasharray:none;stroke-opacity:1"
       d="m 171.11984,407.29351 647.83113,-77.44723 -374.20091,244.16919 -299.06525,356.07259 318.88078,-280.4636 96.8772,15.05592 65.05382,203.64674 97.58073,39.59799 223.44575,-28.28427"
       id="path43695"
       sodipodi:nodetypes="ccccccccc"
       clip-path="url(#clipPath1)" />
  </g>
</svg>
