<?xml version="1.0" encoding="UTF-8" standalone="no"?>
<!-- Created with Inkscape (http://www.inkscape.org/) -->

<svg
   width="1024"
   height="1024"
   viewBox="0 0 1024 1024"
   version="2"
   id="svg82337"
   inkscape:version="1.1.2 (b8e25be833, 2022-02-05)"
   sodipodi:docname="ãŠ.svg"
   xmlns:inkscape="http://www.inkscape.org/namespaces/inkscape"
   xmlns:sodipodi="http://sodipodi.sourceforge.net/DTD/sodipodi-0.dtd"
   xmlns:xlink="http://www.w3.org/1999/xlink"
   xmlns="http://www.w3.org/2000/svg"
   xmlns:svg="http://www.w3.org/2000/svg">
  <sodipodi:namedview
     id="namedview82339"
     pagecolor="#ffffff"
     bordercolor="#999999"
     borderopacity="1"
     inkscape:pageshadow="0"
     inkscape:pageopacity="0"
     inkscape:pagecheckerboard="0"
     inkscape:document-units="px"
     showgrid="false"
     units="px"
     inkscape:zoom="0.70710678"
     inkscape:cx="368.40263"
     inkscape:cy="488.61079"
     inkscape:window-width="1920"
     inkscape:window-height="1111"
     inkscape:window-x="-9"
     inkscape:window-y="-9"
     inkscape:window-maximized="1"
     inkscape:current-layer="svg82337"
     viewbox-width="10.5832"
     scale-x="0.26458"
     inkscape:snap-global="true"
     inkscape:snap-bbox="false"
     inkscape:snap-page="true"
     inkscape:snap-midpoints="false"
     inkscape:object-paths="false"
     inkscape:snap-others="true"
     inkscape:snap-center="true"
     inkscape:bbox-nodes="false"
     inkscape:snap-nodes="true"
     inkscape:snap-grids="false"
     inkscape:snap-smooth-nodes="true" />
  <defs
     id="defs82334">
    <clipPath
       clipPathUnits="userSpaceOnUse"
       id="clipPath71919">
      <use
         x="0"
         y="0"
         xlink:href="#path55193"
         id="use71921"
         width="100%"
         height="100%" />
    </clipPath>
    <clipPath
       clipPathUnits="userSpaceOnUse"
       id="clipPath71939">
      <use
         x="0"
         y="0"
         xlink:href="#path55191"
         id="use71941"
         width="100%"
         height="100%" />
    </clipPath>
    <clipPath
       clipPathUnits="userSpaceOnUse"
       id="clipPath2496">
      <use
         x="0"
         y="0"
         xlink:href="#path71205"
         id="use2498"
         width="100%"
         height="100%" />
    </clipPath>
    <clipPath
       clipPathUnits="userSpaceOnUse"
       id="clipPath2500">
      <use
         x="0"
         y="0"
         xlink:href="#path70628"
         id="use2502"
         width="100%"
         height="100%" />
    </clipPath>
  </defs>
  <g
     inkscape:label="Layer 1"
     inkscape:groupmode="layer"
     id="layer1">
    <path
       style="font-size:1024px;line-height:1;font-family:'Noto Sans JP';-inkscape-font-specification:'Noto Sans JP';white-space:pre;fill:#e02c2c;fill-opacity:1"
       d="m 123.904,267.264 q 41.984,5.12 71.68,7.168 30.72,1.024 59.392,1.024 37.888,0 84.992,-4.096 47.104,-4.096 97.28,-10.24 50.176,-7.168 97.28,-16.384 48.128,-10.24 86.016,-21.504 l 2.048,79.872 q -39.936,9.216 -89.088,18.432 -49.152,8.192 -100.352,14.336 -50.176,6.144 -96.256,10.24 -46.08,4.096 -79.872,4.096 -44.032,0 -74.752,-1.024 -29.696,-1.024 -56.32,-4.096 z"
       id="path55193" />
    <path
       style="font-size:1024px;line-height:1;font-family:'Noto Sans JP';-inkscape-font-specification:'Noto Sans JP';white-space:pre;fill:#5d2ce0;fill-opacity:1"
       d="m 738.304,196.608 q 36.864,19.456 81.92,47.104 45.056,26.624 86.016,54.272 41.984,27.648 66.56,48.128 l -41.984,65.536 Q 912.384,393.216 883.712,372.736 855.04,351.232 822.272,330.752 789.504,309.248 757.76,290.816 726.016,271.36 701.44,258.048 Z"
       id="path55191" />
    <path
       style="font-size:1024px;line-height:1;font-family:'Noto Sans JP';-inkscape-font-specification:'Noto Sans JP';white-space:pre;fill:#9ef616;fill-opacity:1"
       d="m 142.336,673.792 c 23.89333,-29.35467 54.61333,-56.66133 92.16,-81.92 38.22933,-25.25867 78.50667,-45.73867 120.832,-61.44 46.42133,-18.432 93.86667,-32.08533 142.336,-40.96 48.46933,-9.55733 92.84267,-14.336 133.12,-14.336 49.83467,0 93.86667,8.53333 132.096,25.6 38.912,17.06667 69.29067,40.96 91.136,71.68 22.528,30.03733 33.792,65.536 33.792,106.496 0,40.96 -8.53333,77.14133 -25.6,108.544 -16.384,31.40267 -40.96,57.68533 -73.728,78.848 -32.08533,21.16267 -71.68,37.54667 -118.784,49.152 -22.528,4.77867 -45.056,7.85067 -67.584,9.216 -21.84533,2.048 -41.64267,3.75467 -59.392,5.12 l -28.672,-82.944 c 19.11467,0.68267 38.912,0.68267 59.392,0 21.16267,-0.68267 41.30133,-3.072 60.416,-7.168 30.03733,-5.46133 58.02667,-14.67733 83.968,-27.648 26.624,-13.65333 47.78667,-31.40267 63.488,-53.248 16.384,-21.84533 24.576,-48.128 24.576,-78.848 0,-29.35467 -7.85067,-53.93067 -23.552,-73.728 -15.70133,-19.79733 -36.864,-34.816 -63.488,-45.056 -26.624,-10.24 -56.32,-15.36 -89.088,-15.36 -45.056,0 -89.088,4.77867 -132.096,14.336 -43.008,9.55733 -86.69867,23.21067 -131.072,40.96 -32.768,12.288 -62.80533,27.648 -90.112,46.08 -27.30667,17.74933 -49.152,36.52267 -65.536,56.32 -68.608,-29.696 0,0 -68.608,-29.696 z"
       id="path70628"
       sodipodi:nodetypes="ccccsccsccccccccccssssscccc" />
    <path
       style="font-size:1024px;line-height:1;font-family:'Noto Sans JP';-inkscape-font-specification:'Noto Sans JP';white-space:pre;fill:#f6b616;fill-opacity:1"
       d="m 420.864,82.944 c -1.36533,6.144 -2.38933,13.312 -3.072,21.504 -0.68267,7.50933 -1.36533,15.70133 -2.048,24.576 -0.68267,8.87467 -1.36533,17.06667 -2.048,24.576 -0.68267,15.70133 -1.70667,36.18133 -3.072,61.44 -0.68267,25.25867 -1.36533,53.248 -2.048,83.968 -0.68267,30.03733 -1.36533,60.75733 -2.048,92.16 -0.68267,30.72 -1.024,59.392 -1.024,86.016 v 88.064 l 2.048,94.208 c 1.36533,30.72 2.048,59.392 2.048,86.016 0.68267,25.94133 1.024,46.76267 1.024,62.464 0,31.40267 -3.75467,56.32 -11.264,74.752 -7.50933,18.432 -18.09067,31.40267 -31.744,38.912 -12.97067,8.192 -28.672,12.288 -47.104,12.288 -19.79733,0 -41.984,-4.77867 -66.56,-14.336 -24.576,-8.87467 -48.128,-21.16267 -70.656,-36.864 -21.84533,-15.70133 -39.936,-33.792 -54.272,-54.272 -14.336,-20.48 -21.504,-41.984 -21.504,-64.512 0,-30.72 11.60533,-60.75733 34.816,-90.112 68.608,29.696 0,0 68.608,29.696 -15.70133,19.79733 -23.552,38.57067 -23.552,56.32 0,11.60533 3.75467,22.86933 11.264,33.792 8.192,10.24 18.09067,19.456 29.696,27.648 11.60533,8.192 23.89333,14.67733 36.864,19.456 12.97067,4.096 24.23467,6.144 33.792,6.144 11.60533,0 20.48,-4.096 26.624,-12.288 6.82667,-8.192 10.24,-20.82133 10.24,-37.888 0,-19.79733 -0.34133,-47.104 -1.024,-81.92 -0.68267,-35.49867 -1.36533,-73.728 -2.048,-114.688 -0.68267,-41.64267 -1.024,-81.23733 -1.024,-118.784 v -94.208 c 0.68267,-33.45067 1.024,-65.87733 1.024,-97.28 0.68267,-31.40267 1.024,-59.05067 1.024,-82.944 0.68267,-23.89333 1.024,-40.96 1.024,-51.2 0,-6.82667 -0.34133,-14.67733 -1.024,-23.552 0,-9.55733 -0.34133,-18.77333 -1.024,-27.648 -0.68267,-8.874667 -1.70667,-16.042667 -3.072,-21.504 z"
       id="path71205"
       sodipodi:nodetypes="ccsccccscccsscsccssccscscscsccscccscscc" />
  </g>
  <g
     id="g2528">
    <path
       style="font-variation-settings:normal;vector-effect:none;fill:none;fill-opacity:1;stroke:#000000;stroke-width:128;stroke-linecap:butt;stroke-linejoin:miter;stroke-miterlimit:4;stroke-dasharray:none;stroke-dashoffset:0;stroke-opacity:1;-inkscape-stroke:none;stop-color:#000000"
       d="m 113.84419,308.29856 187.3833,2.82842 333.04729,-47.37615"
       id="path57515"
       clip-path="url(#clipPath71919)" />
    <path
       style="font-variation-settings:normal;vector-effect:none;fill:none;fill-opacity:1;stroke:#000000;stroke-width:128;stroke-linecap:butt;stroke-linejoin:miter;stroke-miterlimit:4;stroke-dasharray:none;stroke-dashoffset:0;stroke-opacity:1;-inkscape-stroke:none;stop-color:#000000"
       d="m 374.59502,67.053824 -2.65685,788.545386 -69.29647,43.84062 -152.70562,-101.96551 2.11269,-79.68125 135.09546,-130.85281 373.0803,-90.13708 175.50462,100.6518 3.31371,170.8772 -134.24979,99.96551 -192.84776,25.48528"
       id="path71923"
       sodipodi:nodetypes="ccccccccccc"
       clip-path="url(#clipPath2496)" />
    <path
       style="font-variation-settings:normal;vector-effect:none;fill:none;fill-opacity:1;stroke:#000000;stroke-width:128;stroke-linecap:butt;stroke-linejoin:miter;stroke-miterlimit:4;stroke-dasharray:none;stroke-dashoffset:0;stroke-opacity:1;-inkscape-stroke:none;stop-color:#000000"
       d="M 319.85828,898.30833 650.76792,626.93939 371.93817,855.59921 302.6417,899.43983 149.93608,797.47432 l 2.11269,-79.68125 135.09546,-130.85281 373.0803,-90.13708 175.50462,100.6518 3.31371,170.8772 -134.24979,99.96551 -192.84776,25.48528"
       id="path77175"
       sodipodi:nodetypes="cccccccccccc"
       clip-path="url(#clipPath2500)" />
    <path
       style="font-variation-settings:normal;vector-effect:none;fill:none;fill-opacity:1;stroke:#000000;stroke-width:128;stroke-linecap:butt;stroke-linejoin:miter;stroke-miterlimit:4;stroke-dasharray:none;stroke-dashoffset:0;stroke-opacity:1;-inkscape-stroke:none;stop-color:#000000"
       d="M 711,222 966,384"
       id="path58599"
       sodipodi:nodetypes="cc"
       clip-path="url(#clipPath71939)" />
  </g>
</svg>
