<?xml version="1.0" encoding="UTF-8" standalone="no"?>
<!-- Created with Inkscape (http://www.inkscape.org/) -->

<svg
   width="1024"
   height="1024"
   viewBox="0 0 1024 1024"
   version="2"
   id="svg82337"
   inkscape:version="1.3 (0e150ed6c4, 2023-07-21)"
   sodipodi:docname="ãŠ.svg"
   xmlns:inkscape="http://www.inkscape.org/namespaces/inkscape"
   xmlns:sodipodi="http://sodipodi.sourceforge.net/DTD/sodipodi-0.dtd"
   xmlns:xlink="http://www.w3.org/1999/xlink"
   xmlns="http://www.w3.org/2000/svg"
   xmlns:svg="http://www.w3.org/2000/svg">
  <sodipodi:namedview
     id="namedview82339"
     pagecolor="#ffffff"
     bordercolor="#999999"
     borderopacity="1"
     inkscape:pageshadow="0"
     inkscape:pageopacity="0"
     inkscape:pagecheckerboard="0"
     inkscape:document-units="px"
     showgrid="false"
     units="px"
     inkscape:zoom="0.61526576"
     inkscape:cx="584.30035"
     inkscape:cy="688.32044"
     inkscape:window-width="1920"
     inkscape:window-height="1111"
     inkscape:window-x="-9"
     inkscape:window-y="-9"
     inkscape:window-maximized="1"
     inkscape:current-layer="svg82337"
     viewbox-width="10.5832"
     scale-x="0.26458"
     inkscape:snap-global="true"
     inkscape:snap-bbox="false"
     inkscape:snap-page="true"
     inkscape:snap-midpoints="false"
     inkscape:object-paths="false"
     inkscape:snap-others="true"
     inkscape:snap-center="true"
     inkscape:bbox-nodes="false"
     inkscape:snap-nodes="true"
     inkscape:snap-grids="false"
     inkscape:showpageshadow="0"
     inkscape:deskcolor="#d1d1d1" />
  <defs
     id="defs82334">
    <clipPath
       id="clipPath3559">
      <use
         id="clone9766"
         xlink:href="#flowRoot1" />
    </clipPath>
    <clipPath
       id="clipPath721">
      <use
         id="clone6578"
         xlink:href="#path2" />
    </clipPath>
    <clipPath
       id="clipPath6244">
      <use
         id="clone500"
         xlink:href="#path3" />
    </clipPath>
    <clipPath
       id="clipPath438">
      <use
         id="clone9521"
         xlink:href="#path1" />
    </clipPath>
  </defs>
  <g
     id="g4">
    <path
       id="flowRoot1"
       style="font-weight:600;font-size:1024px;line-height:1;font-family:'Klee One';fill:#f66d6d"
       d="m 342.01562,371.71289 c -31.40263,6.82666 -61.09858,12.62759 -89.08789,17.40625 -27.30663,4.77866 -45.05605,7.16797 -53.24804,7.16797 -5.46133,0 -10.92149,-0.34077 -16.38281,-1.02344 -4.77867,-1.36533 -9.21651,-2.04687 -13.3125,-2.04687 -3.41333,0 -6.82691,1.02231 -10.24024,3.07031 -2.048,0.68267 -3.07226,2.39043 -3.07226,5.12109 0,4.77867 2.73007,11.60581 8.1914,20.48047 5.46133,8.19199 12.62925,15.70069 21.50391,22.52735 8.87466,6.82666 17.75034,10.24023 26.625,10.24023 4.77866,0 17.74946,-1.36504 38.91211,-4.0957 21.84531,-3.41333 51.88203,-9.21621 90.11132,-17.40821 l 59.39258,-14.33593 c 48.46929,-12.28799 86.01665,-22.52872 112.64063,-30.72071 27.30664,-8.19199 46.76186,-14.67641 58.36719,-19.45508 11.60532,-5.46132 18.77324,-9.89917 21.5039,-13.3125 2.73067,-4.09599 4.0957,-7.50957 4.0957,-10.24023 0,-4.096 -1.70581,-8.53384 -5.11914,-13.3125 -4.77866,-5.46133 -11.60581,-10.23994 -20.48046,-14.33594 -8.87466,-4.77866 -17.40762,-7.16797 -25.59961,-7.16797 -3.41333,0 -5.80264,0.34273 -7.16797,1.0254 -3.41333,0.68266 -6.82691,2.0477 -10.24024,4.0957 -3.41333,2.048 -6.8269,3.75381 -10.24023,5.11914 -32.0853,12.97065 -70.99771,25.25991 -116.73633,36.86523 z"
       sodipodi:nodetypes="ccscscscssccccccsccscsccc" />
    <g
       id="g5">
      <path
         id="path2"
         style="font-weight:600;font-size:1024px;line-height:1;font-family:'Klee One';fill:#f5d36c;fill-opacity:1"
         d="m 349.18359,137.2168 c -11.6053,0 -19.11401,3.07086 -22.52734,9.21484 v 2.04883 c 0,2.73066 1.02427,6.14425 3.07227,10.24023 2.73065,3.41333 4.43647,6.14341 5.11914,8.19141 4.09598,4.77865 6.14453,12.28736 6.14453,22.52734 v 89.08789 c 0.68266,30.71994 1.02344,61.78295 1.02343,93.18555 v 61.43945 c 0.68267,20.47996 1.02344,40.61873 1.02344,60.41602 v 59.39258 56.31836 c 0,18.43196 -0.34077,36.52414 -1.02344,54.27343 l -1.02343,65.53516 c 0,25.25862 -0.34077,48.12746 -1.02344,68.60742 -0.68267,19.7973 -2.04966,37.88948 -4.09766,54.27344 -1.36532,4.77866 -3.75464,7.16797 -7.16797,7.16797 h -2.04687 c -4.096,-0.68267 -11.26393,-2.04966 -21.50391,-4.09766 -9.55731,-2.73065 -20.13883,-5.80151 -31.74414,-9.21484 -16.3357,-6.09772 -31.72997,44.02478 -10.24023,54.27148 15.7013,6.82666 30.37794,12.62954 44.03125,17.40821 13.65331,4.77865 23.55328,7.85146 29.69726,9.21679 1.36534,0.68267 3.07116,1.02344 5.11914,1.02344 h 5.1211 c 8.87465,0 17.40763,-2.38931 25.59961,-7.16797 8.19198,-4.77865 14.67641,-13.99513 19.45508,-27.64844 2.04798,-5.46131 3.41303,-18.43215 4.0957,-38.91211 1.36533,-20.47994 2.3896,-44.37307 3.07227,-71.67968 0.68265,-27.98928 1.02539,-55.97948 1.02539,-83.96875 v -63.48633 c 0.68265,-36.18126 1.02343,-72.02289 1.02343,-107.52148 V 418.81641 l 1.02344,-61.43946 V 177.15234 c 0,-2.73065 -0.68155,-7.1685 -2.04687,-13.3125 -1.36534,-6.14398 -5.80319,-11.94687 -13.3125,-17.4082 -7.50933,-6.14398 -20.13937,-9.21484 -37.88868,-9.21484 z"
         sodipodi:nodetypes="scsccscscscsccccsccccscssscccccsccsscs" />
      <path
         id="path3"
         style="font-weight:600;font-size:1024px;line-height:1;font-family:'Klee One';fill:#b2f46b;fill-opacity:1"
         d="m 342.01562,663.55273 c -50.51722,32.76794 -88.40544,59.39114 -113.66406,79.8711 -25.25861,20.47996 -41.9838,36.86436 -50.17578,49.15234 -7.50931,12.28798 -11.26367,22.86949 -11.26367,31.74414 0,15.01864 7.85144,28.33024 23.55273,39.93555 6.144,4.096 16.04201,9.55812 29.69532,16.38476 13.6533,6.144 27.98917,12.62843 43.00781,19.45508 18.79728,7.49465 41.98437,-45.05664 10.24023,-54.27148 -10.92264,-4.096 -20.47989,-8.19308 -28.67187,-12.28906 -8.19198,-4.096 -12.28906,-8.19113 -12.28906,-12.28711 0,-1.36534 0.34272,-2.3896 1.02539,-3.07227 6.14398,-7.50931 19.45558,-19.79665 39.93554,-36.86328 21.16263,-17.7493 43.6907,-35.15798 67.58399,-52.22461 l 59.39258,-30.7207 C 436.56602,678.56989 473.77074,661.16317 512,646.14453 550.22926,631.1259 585.04466,622.59292 616.44727,620.54492 h 12.28906 c 4.09598,-0.68266 7.85034,-1.02539 11.26367,-1.02539 46.42124,0 82.94442,7.85143 109.56836,23.55274 27.30661,15.70129 40.95898,41.30023 40.95898,76.79882 v 5.1211 c -0.68266,17.74929 -6.82633,34.81524 -18.43164,51.19922 -11.60531,16.38396 -25.60041,30.03829 -41.98437,40.96093 -16.38398,10.92265 -32.08488,17.06632 -47.10352,18.43164 -3.41332,0 -7.16767,0.34078 -11.26367,1.02344 h -10.24023 c -24.57596,0 -51.19916,-2.04658 -79.8711,-6.14258 -28.67194,-4.09598 -54.27282,-10.24161 -76.80078,-18.43359 -4.77865,-2.048 -9.2165,-3.41304 -13.3125,-4.0957 -4.09598,-0.68267 -7.85034,-1.02344 -11.26367,-1.02344 -9.55731,0 -14.33594,3.0728 -14.33594,9.2168 0,6.82665 7.16793,15.0169 21.50391,24.57421 14.33596,8.87466 32.42619,17.75036 54.27148,26.625 22.52796,8.87466 45.73954,16.38335 69.63281,22.52735 23.89329,6.14398 45.05631,9.2168 63.48829,9.2168 h 11.26367 c 29.35461,-1.36534 57.00207,-10.24104 82.94336,-26.625 26.62394,-17.06664 48.81125,-38.91122 66.56054,-65.53516 17.74931,-26.62394 27.30655,-55.63841 28.67188,-87.04102 v -8.1914 c 0,-42.32525 -18.09023,-77.82414 -54.27148,-106.4961 -36.18127,-29.3546 -89.08885,-44.03125 -158.72071,-44.03125 -4.09598,0 -8.19111,0.34078 -12.28711,1.02344 H 626.6875 c -36.18126,2.048 -74.06948,10.24021 -113.66406,24.57617 -38.91192,13.65331 -76.45742,29.69695 -112.63867,48.12891 z"
         sodipodi:nodetypes="cscsccccssccccsccscscssccsscsssccssccscscsccccc" />
    </g>
    <path
       style="font-weight:600;font-size:1024px;line-height:1;font-family:'Klee One';fill:#6af387"
       d="m 852.992,421.888 q 14.336,0 24.576,-13.312 11.264,-13.312 11.264,-25.6 0,-7.168 -3.072,-14.336 -2.048,-6.144 -19.456,-18.432 -16.384,-12.288 -40.96,-26.624 -24.576,-15.36 -51.2,-28.672 -26.624,-14.336 -48.128,-23.552 -21.504,-10.24 -32.768,-12.288 -3.072,-1.024 -9.216,-1.024 -13.312,0 -27.648,17.408 -3.072,4.096 -3.072,9.216 0,12.288 13.312,19.456 46.08,22.528 87.04,51.2 40.96,27.648 75.776,57.344 11.264,9.216 23.552,9.216 z"
       id="path1" />
  </g>
  <g
     id="g6">
    <path
       style="font-variation-settings:normal;opacity:1;vector-effect:none;fill:none;fill-opacity:1;stroke:#000000;stroke-width:128;stroke-linecap:round;stroke-linejoin:miter;stroke-miterlimit:4;stroke-dasharray:none;stroke-dashoffset:0;stroke-opacity:1;-inkscape-stroke:none;stop-color:#000000;stop-opacity:1"
       d="M 84.852812,444.06305 540.91361,347.01931"
       id="path5"
       sodipodi:nodetypes="cc"
       clip-path="url(#clipPath3559)" />
    <g
       id="g9">
      <path
         style="font-variation-settings:normal;opacity:1;vector-effect:none;fill:none;fill-opacity:1;stroke:#000000;stroke-width:128;stroke-linecap:round;stroke-linejoin:miter;stroke-miterlimit:4;stroke-dasharray:none;stroke-dashoffset:0;stroke-opacity:1;-inkscape-stroke:none;stop-color:#000000;stop-opacity:1"
         d="M 360.62446,56.568543 371.93817,908.63221 174.92745,820.70834 c 0,0 321.88114,-308.9794 530.05801,-244.41631 173.64398,53.8532 150.42467,191.98571 74.24621,250.3158 C 628.16751,942.27813 512.40273,840.444 512.40273,840.444"
         id="path6"
         sodipodi:nodetypes="cccssc"
         clip-path="url(#clipPath721)" />
      <path
         style="font-variation-settings:normal;opacity:1;vector-effect:none;fill:none;fill-opacity:1;stroke:#000000;stroke-width:128;stroke-linecap:round;stroke-linejoin:miter;stroke-miterlimit:4;stroke-dasharray:none;stroke-dashoffset:0;stroke-opacity:1;-inkscape-stroke:none;stop-color:#000000;stop-opacity:1"
         d="M 1125.6762,1306.1489 371.93817,908.63221 174.92745,820.70834 c 0,0 321.88114,-308.9794 530.05801,-244.41631 173.64398,53.8532 150.42467,191.98571 74.24621,250.3158 C 628.16751,942.27813 512.40273,840.444 512.40273,840.444"
         id="path8"
         sodipodi:nodetypes="cccssc"
         clip-path="url(#clipPath6244)" />
    </g>
    <path
       style="font-variation-settings:normal;opacity:1;vector-effect:none;fill:none;fill-opacity:1;stroke:#000000;stroke-width:128;stroke-linecap:round;stroke-linejoin:miter;stroke-miterlimit:4;stroke-dasharray:none;stroke-dashoffset:0;stroke-opacity:1;-inkscape-stroke:none;stop-color:#000000;stop-opacity:1"
       d="M 591,223 834.8193,374.44669"
       id="path9"
       sodipodi:nodetypes="cc"
       clip-path="url(#clipPath438)" />
  </g>
</svg>
