<?xml version="1.0" encoding="UTF-8" standalone="no"?>
<!-- Created with Inkscape (http://www.inkscape.org/) -->

<svg
   width="1024"
   height="1024"
   viewBox="0 0 1024 1024"
   version="2"
   id="svg82337"
   inkscape:version="1.1.2 (b8e25be833, 2022-02-05)"
   sodipodi:docname="ãŒ.svg"
   xmlns:inkscape="http://www.inkscape.org/namespaces/inkscape"
   xmlns:sodipodi="http://sodipodi.sourceforge.net/DTD/sodipodi-0.dtd"
   xmlns:xlink="http://www.w3.org/1999/xlink"
   xmlns="http://www.w3.org/2000/svg"
   xmlns:svg="http://www.w3.org/2000/svg">
  <sodipodi:namedview
     id="namedview82339"
     pagecolor="#ffffff"
     bordercolor="#999999"
     borderopacity="1"
     inkscape:pageshadow="0"
     inkscape:pageopacity="0"
     inkscape:pagecheckerboard="0"
     inkscape:document-units="px"
     showgrid="false"
     units="px"
     inkscape:zoom="0.70710678"
     inkscape:cx="632.86057"
     inkscape:cy="498.51028"
     inkscape:window-width="1920"
     inkscape:window-height="1111"
     inkscape:window-x="-9"
     inkscape:window-y="-9"
     inkscape:window-maximized="1"
     inkscape:current-layer="svg82337"
     viewbox-width="10.5832"
     scale-x="0.26458"
     inkscape:snap-global="true"
     inkscape:snap-bbox="false"
     inkscape:snap-page="true"
     inkscape:snap-midpoints="false"
     inkscape:object-paths="false"
     inkscape:snap-others="true"
     inkscape:snap-center="true"
     inkscape:bbox-nodes="false"
     inkscape:snap-nodes="true"
     inkscape:snap-grids="false" />
  <defs
     id="defs82334">
    <rect
       x="0"
       y="0"
       width="1484.9242"
       height="1448.1547"
       id="rect17270" />
    <rect
       x="0"
       y="0"
       width="1504.7232"
       height="1354.8166"
       id="rect7062" />
    <rect
       x="0"
       y="0"
       width="1677.2573"
       height="1467.9537"
       id="rect31831" />
    <clipPath
       clipPathUnits="userSpaceOnUse"
       id="clipPath27786">
      <use
         x="0"
         y="0"
         xlink:href="#path25676"
         id="use27788"
         width="100%"
         height="100%" />
    </clipPath>
    <clipPath
       clipPathUnits="userSpaceOnUse"
       id="clipPath27792">
      <use
         x="0"
         y="0"
         xlink:href="#path25650"
         id="use27794"
         width="100%"
         height="100%" />
    </clipPath>
    <clipPath
       clipPathUnits="userSpaceOnUse"
       id="clipPath27798">
      <use
         x="0"
         y="0"
         xlink:href="#path25674"
         id="use27800"
         width="100%"
         height="100%" />
    </clipPath>
    <clipPath
       clipPathUnits="userSpaceOnUse"
       id="clipPath27804">
      <use
         x="0"
         y="0"
         xlink:href="#path25678"
         id="use27806"
         width="100%"
         height="100%" />
    </clipPath>
    <clipPath
       clipPathUnits="userSpaceOnUse"
       id="clipPath27810">
      <use
         x="0"
         y="0"
         xlink:href="#path25680"
         id="use27812"
         width="100%"
         height="100%" />
    </clipPath>
  </defs>
  <g
     id="g27845">
    <path
       style="font-size:1024px;line-height:1;font-family:'Noto Sans JP';-inkscape-font-specification:'Noto Sans JP';white-space:pre;fill:#eb5757;fill-opacity:1"
       d="m 65.536,330.752 q 24.576,1.024 46.08,1.024 21.504,0 46.08,-1.024 22.528,-1.024 58.368,-3.072 36.864,-3.072 78.848,-6.144 41.984,-4.096 83.968,-7.168 41.984,-4.096 76.8,-6.144 34.816,-3.072 55.296,-3.072 46.08,0 82.944,15.36 37.888,14.336 60.416,52.224 23.552,36.864 23.552,106.496 0,60.416 -6.144,131.072 -6.144,69.632 -19.456,133.12 -12.288,62.464 -33.792,105.472 -23.552,51.2 -61.44,67.584 -37.888,17.408 -88.064,17.408 -29.696,0 -63.488,-5.12 -32.768,-4.096 -57.344,-9.216 l -13.312,-86.016 q 21.504,7.168 45.056,12.288 23.552,4.096 45.056,7.168 21.504,2.048 34.816,2.048 28.672,0 51.2,-9.216 22.528,-10.24 38.912,-44.032 16.384,-34.816 26.624,-87.04 11.264,-52.224 16.384,-111.616 5.12,-59.392 5.12,-114.688 0,-47.104 -13.312,-70.656 -13.312,-23.552 -37.888,-31.744 -24.576,-8.192 -57.344,-8.192 -25.6,0 -69.632,4.096 -44.032,3.072 -94.208,8.192 -50.176,4.096 -93.184,9.216 -41.984,5.12 -65.536,7.168 -18.432,2.048 -46.08,6.144 -26.624,3.072 -46.08,6.144 z"
       id="path25676" />
    <path
       style="font-size:1024px;line-height:1;font-family:'Noto Sans JP';-inkscape-font-specification:'Noto Sans JP';white-space:pre;fill:#ebe457;fill-opacity:1"
       d="m 434.176,105.472 q -2.048,14.336 -5.12,30.72 -3.072,15.36 -6.144,30.72 -4.096,17.408 -9.216,49.152 -5.12,31.744 -12.288,67.584 -6.144,34.816 -13.312,67.584 -11.264,43.008 -26.624,98.304 -14.336,54.272 -34.816,116.736 -19.456,61.44 -44.032,125.952 -24.576,63.488 -54.272,125.952 Q 198.656,880.64 163.84,936.96 L 80.896,903.168 q 34.816,-46.08 65.536,-104.448 30.72,-58.368 56.32,-120.832 25.6,-63.488 46.08,-124.928 20.48,-61.44 34.816,-113.664 15.36,-53.248 23.552,-91.136 14.336,-60.416 23.552,-126.976 9.216,-66.56 9.216,-124.928 z"
       id="path25650" />
    <path
       style="font-size:1024px;line-height:1;font-family:'Noto Sans JP';-inkscape-font-specification:'Noto Sans JP';white-space:pre;fill:#74eb57;fill-opacity:1"
       d="m 786.432,224.256 q 24.576,30.72 51.2,77.824 27.648,47.104 53.248,99.328 26.624,52.224 48.128,101.376 22.528,49.152 34.816,84.992 l -78.848,37.888 Q 883.712,585.728 863.232,535.552 843.776,485.376 818.176,434.176 793.6,381.952 765.952,335.872 739.328,288.768 711.68,258.048 Z"
       id="path25674" />
    <path
       style="font-size:1024px;line-height:1;font-family:'Noto Sans JP';-inkscape-font-specification:'Noto Sans JP';white-space:pre;fill:#57ebe2;fill-opacity:1"
       d="m 798.72,75.776 q 13.312,17.408 27.648,43.008 15.36,24.576 30.72,51.2 15.36,25.6 25.6,46.08 l -56.32,24.576 q -9.216,-20.48 -23.552,-46.08 -14.336,-25.6 -29.696,-51.2 -15.36,-25.6 -29.696,-45.056 z"
       id="path25678" />
    <path
       style="font-size:1024px;line-height:1;font-family:'Noto Sans JP';-inkscape-font-specification:'Noto Sans JP';white-space:pre;fill:#a957eb;fill-opacity:1"
       d="m 911.36,33.792 q 13.312,19.456 29.696,45.056 16.384,25.6 31.744,51.2 15.36,24.576 24.576,44.032 L 942.08,198.656 Q 925.696,164.864 902.144,125.952 878.592,86.016 857.088,57.344 Z"
       id="path25680" />
  </g>
  <g
     id="g28102">
    <path
       style="font-variation-settings:normal;vector-effect:none;fill:none;fill-opacity:1;stroke:#000000;stroke-width:128;stroke-linecap:butt;stroke-linejoin:miter;stroke-miterlimit:4;stroke-dasharray:none;stroke-dashoffset:0;stroke-opacity:1;-inkscape-stroke:none;stop-color:#000000"
       d="M 45.39697,373.10974 523.40115,341.99704 643.60931,399.97979 605.42554,797.37381 530.47222,900.6114 315.51176,879.3982"
       id="path13477"
       sodipodi:nodetypes="cccccc"
       clip-path="url(#clipPath27786)" />
    <path
       style="font-variation-settings:normal;vector-effect:none;fill:none;fill-opacity:1;stroke:#000000;stroke-width:128;stroke-linecap:butt;stroke-linejoin:miter;stroke-miterlimit:4;stroke-dasharray:none;stroke-dashoffset:0;stroke-opacity:1;-inkscape-stroke:none;stop-color:#000000"
       d="M 393.29351,84.610173 328.23968,426.84986 246.2153,681.4083 110.45079,940.20938"
       id="path14579"
       clip-path="url(#clipPath27792)" />
    <path
       style="font-variation-settings:normal;vector-effect:none;fill:none;fill-opacity:1;stroke:#000000;stroke-width:128;stroke-linecap:butt;stroke-linejoin:miter;stroke-miterlimit:4;stroke-dasharray:none;stroke-dashoffset:0;stroke-opacity:1;-inkscape-stroke:none;stop-color:#000000"
       d="M 738.74639,238.21887 936.8368,616.52604"
       id="path14647"
       sodipodi:nodetypes="cc"
       clip-path="url(#clipPath27798)" />
    <path
       style="font-variation-settings:normal;opacity:1;vector-effect:none;fill:none;fill-opacity:1;stroke:#000000;stroke-width:128;stroke-linecap:butt;stroke-linejoin:miter;stroke-miterlimit:4;stroke-dasharray:none;stroke-dashoffset:0;stroke-opacity:1;-inkscape-stroke:none;stop-color:#000000;stop-opacity:1"
       d="M 776.65685,76.964466 853.75736,236.86396"
       id="path26769"
       sodipodi:nodetypes="cc"
       clip-path="url(#clipPath27804)" />
    <path
       style="font-variation-settings:normal;opacity:1;vector-effect:none;fill:none;fill-opacity:1;stroke:#000000;stroke-width:128;stroke-linecap:butt;stroke-linejoin:miter;stroke-miterlimit:4;stroke-dasharray:none;stroke-dashoffset:0;stroke-opacity:1;-inkscape-stroke:none;stop-color:#000000;stop-opacity:1"
       d="M 879.64084,36.062446 964.49366,196.92924"
       id="path27473"
       sodipodi:nodetypes="cc"
       clip-path="url(#clipPath27810)" />
  </g>
</svg>
