<?xml version="1.0" encoding="UTF-8" standalone="no"?>
<!-- Created with Inkscape (http://www.inkscape.org/) -->

<svg
   width="1024"
   height="1024"
   viewBox="0 0 1024 1024"
   version="2"
   id="svg82337"
   inkscape:version="1.1.2 (b8e25be833, 2022-02-05)"
   sodipodi:docname="ã.svg"
   xmlns:inkscape="http://www.inkscape.org/namespaces/inkscape"
   xmlns:sodipodi="http://sodipodi.sourceforge.net/DTD/sodipodi-0.dtd"
   xmlns:xlink="http://www.w3.org/1999/xlink"
   xmlns="http://www.w3.org/2000/svg"
   xmlns:svg="http://www.w3.org/2000/svg">
  <sodipodi:namedview
     id="namedview82339"
     pagecolor="#ffffff"
     bordercolor="#999999"
     borderopacity="1"
     inkscape:pageshadow="0"
     inkscape:pageopacity="0"
     inkscape:pagecheckerboard="0"
     inkscape:document-units="px"
     showgrid="false"
     units="px"
     inkscape:zoom="0.5"
     inkscape:cx="333"
     inkscape:cy="647"
     inkscape:window-width="1920"
     inkscape:window-height="1111"
     inkscape:window-x="-9"
     inkscape:window-y="-9"
     inkscape:window-maximized="1"
     inkscape:current-layer="layer1"
     viewbox-width="10.5832"
     scale-x="0.26458"
     inkscape:snap-global="true"
     inkscape:snap-bbox="false"
     inkscape:snap-page="true"
     inkscape:snap-midpoints="false"
     inkscape:object-paths="false"
     inkscape:snap-others="true"
     inkscape:snap-center="true"
     inkscape:bbox-nodes="false"
     inkscape:snap-nodes="true"
     inkscape:snap-grids="false" />
  <defs
     id="defs82334">
    <rect
       x="0"
       y="0"
       width="1677.2573"
       height="1467.9537"
       id="rect31831" />
    <clipPath
       clipPathUnits="userSpaceOnUse"
       id="clipPath9519">
      <use
         x="0"
         y="0"
         xlink:href="#path6351"
         id="use9521"
         width="100%"
         height="100%" />
    </clipPath>
    <clipPath
       clipPathUnits="userSpaceOnUse"
       id="clipPath9525">
      <use
         x="0"
         y="0"
         xlink:href="#path6375"
         id="use9527"
         width="100%"
         height="100%" />
    </clipPath>
    <clipPath
       clipPathUnits="userSpaceOnUse"
       id="clipPath9531">
      <use
         x="0"
         y="0"
         xlink:href="#path6377"
         id="use9533"
         width="100%"
         height="100%" />
    </clipPath>
    <clipPath
       clipPathUnits="userSpaceOnUse"
       id="clipPath9537">
      <use
         x="0"
         y="0"
         xlink:href="#path6379"
         id="use9539"
         width="100%"
         height="100%" />
    </clipPath>
  </defs>
  <g
     id="g9566">
    <path
       style="font-size:1024px;line-height:1;font-family:'Noto Sans JP';-inkscape-font-specification:'Noto Sans JP';white-space:pre;fill:#ec5454;fill-opacity:1"
       d="m 183.296,199.68 q 107.52,12.288 204.8,14.336 98.304,2.048 177.152,-5.12 62.464,-6.144 123.904,-18.432 62.464,-13.312 117.76,-30.72 l 11.264,73.728 q -50.176,14.336 -112.64,26.624 -61.44,12.288 -122.88,18.432 -77.824,7.168 -181.248,7.168 -102.4,-1.024 -212.992,-11.264 z"
       id="path6351" />
    <path
       style="font-size:1024px;line-height:1;font-family:'Noto Sans JP';-inkscape-font-specification:'Noto Sans JP';white-space:pre;fill:#ecdf54;fill-opacity:1"
       d="m 163.84,409.6 q 87.04,9.216 172.032,12.288 84.992,2.048 160.768,-1.024 75.776,-3.072 135.168,-10.24 73.728,-8.192 134.144,-21.504 60.416,-13.312 101.376,-26.624 l 12.288,76.8 q -41.984,11.264 -98.304,22.528 -56.32,10.24 -120.832,18.432 -63.488,7.168 -144.384,11.264 -80.896,3.072 -171.008,2.048 Q 256,491.52 167.936,486.4 Z"
       id="path6375" />
    <path
       style="font-size:1024px;line-height:1;font-family:'Noto Sans JP';-inkscape-font-specification:'Noto Sans JP';white-space:pre;fill:#6eec54;fill-opacity:1"
       d="m 514.048,186.368 q -6.144,-23.552 -14.336,-46.08 -7.168,-23.552 -14.336,-45.056 l 87.04,-11.264 q 5.12,43.008 16.384,90.112 11.264,46.08 24.576,91.136 13.312,44.032 25.6,79.872 14.336,39.936 33.792,84.992 19.456,45.056 43.008,89.088 23.552,44.032 50.176,83.968 8.192,11.264 17.408,22.528 10.24,10.24 20.48,21.504 l -41.984,62.464 Q 733.184,701.44 694.272,696.32 655.36,690.176 614.4,686.08 q -40.96,-5.12 -76.8,-9.216 l 7.168,-62.464 q 40.96,4.096 84.992,9.216 44.032,5.12 68.608,8.192 -43.008,-66.56 -75.776,-137.216 -31.744,-70.656 -54.272,-133.12 -12.288,-34.816 -22.528,-64.512 -9.216,-30.72 -17.408,-58.368 -7.168,-27.648 -14.336,-52.224 z"
       id="path6377" />
    <path
       style="font-size:1024px;line-height:1;font-family:'Noto Sans JP';-inkscape-font-specification:'Noto Sans JP';white-space:pre;fill:#54ecec;fill-opacity:1"
       d="m 312.32,629.76 q -18.432,26.624 -30.72,54.272 -12.288,27.648 -12.288,61.44 0,63.488 57.344,95.232 58.368,31.744 179.2,31.744 71.68,0 130.048,-5.12 58.368,-5.12 113.664,-16.384 l -3.072,81.92 q -53.248,8.192 -113.664,12.288 -60.416,5.12 -125.952,5.12 -100.352,0 -171.008,-20.48 -69.632,-20.48 -106.496,-62.464 -35.84,-41.984 -36.864,-107.52 -1.024,-44.032 10.24,-77.824 12.288,-34.816 29.696,-68.608 z"
       id="path6379" />
  </g>
  <g
     inkscape:label="Layer 1"
     inkscape:groupmode="layer"
     id="layer1">
    <path
       style="font-variation-settings:normal;opacity:1;vector-effect:none;fill:none;fill-opacity:1;stroke:#000000;stroke-width:128;stroke-linecap:butt;stroke-linejoin:miter;stroke-miterlimit:4;stroke-dasharray:none;stroke-dashoffset:0;stroke-opacity:1;-inkscape-stroke:none;stop-color:#000000;stop-opacity:1"
       d="m 172.53405,244.65895 315.36963,9.89949 339.41125,-60.81118"
       id="path6999"
       sodipodi:nodetypes="ccc"
       clip-path="url(#clipPath9519)" />
    <path
       style="font-variation-settings:normal;opacity:1;vector-effect:none;fill:none;fill-opacity:1;stroke:#000000;stroke-width:128;stroke-linecap:butt;stroke-linejoin:miter;stroke-miterlimit:4;stroke-dasharray:none;stroke-dashoffset:0;stroke-opacity:1;-inkscape-stroke:none;stop-color:#000000;stop-opacity:1"
       d="m 147.07821,448.3057 340.82547,11.31371 404.46508,-57.98276"
       id="path7281"
       sodipodi:nodetypes="ccc"
       clip-path="url(#clipPath9525)" />
    <path
       style="font-variation-settings:normal;opacity:1;vector-effect:none;fill:none;fill-opacity:1;stroke:#000000;stroke-width:128;stroke-linecap:butt;stroke-linejoin:miter;stroke-miterlimit:4;stroke-dasharray:none;stroke-dashoffset:0;stroke-opacity:1;-inkscape-stroke:none;stop-color:#000000;stop-opacity:1"
       d="M 523.51638,76.968038 634.27479,436.99199 811.05148,677.04433 535.94783,645.66166"
       id="path7677"
       sodipodi:nodetypes="cccc"
       clip-path="url(#clipPath9531)" />
    <path
       style="font-variation-settings:normal;opacity:1;vector-effect:none;fill:none;fill-opacity:1;stroke:#000000;stroke-width:128;stroke-linecap:butt;stroke-linejoin:miter;stroke-miterlimit:4;stroke-dasharray:none;stroke-dashoffset:0;stroke-opacity:1;-inkscape-stroke:none;stop-color:#000000;stop-opacity:1"
       d="m 263.04372,610.94026 -39.59797,174.65537 86.97412,101.11627 449.71992,12.72793"
       id="path8985"
       sodipodi:nodetypes="cccc"
       clip-path="url(#clipPath9537)" />
  </g>
</svg>
