<?xml version="1.0" encoding="UTF-8" standalone="no"?>
<!-- Created with Inkscape (http://www.inkscape.org/) -->

<svg
   width="1024"
   height="1024"
   viewBox="0 0 1024 1024"
   version="2"
   id="svg82337"
   inkscape:version="1.1.2 (b8e25be833, 2022-02-05)"
   sodipodi:docname="ãŽ.svg"
   xmlns:inkscape="http://www.inkscape.org/namespaces/inkscape"
   xmlns:sodipodi="http://sodipodi.sourceforge.net/DTD/sodipodi-0.dtd"
   xmlns:xlink="http://www.w3.org/1999/xlink"
   xmlns="http://www.w3.org/2000/svg"
   xmlns:svg="http://www.w3.org/2000/svg">
  <sodipodi:namedview
     id="namedview82339"
     pagecolor="#ffffff"
     bordercolor="#999999"
     borderopacity="1"
     inkscape:pageshadow="0"
     inkscape:pageopacity="0"
     inkscape:pagecheckerboard="0"
     inkscape:document-units="px"
     showgrid="false"
     units="px"
     inkscape:zoom="0.5"
     inkscape:cx="573"
     inkscape:cy="473"
     inkscape:window-width="1920"
     inkscape:window-height="1111"
     inkscape:window-x="-9"
     inkscape:window-y="-9"
     inkscape:window-maximized="1"
     inkscape:current-layer="layer1"
     viewbox-width="10.5832"
     scale-x="0.26458"
     inkscape:snap-global="true"
     inkscape:snap-bbox="false"
     inkscape:snap-page="true"
     inkscape:snap-midpoints="false"
     inkscape:object-paths="false"
     inkscape:snap-others="true"
     inkscape:snap-center="true"
     inkscape:bbox-nodes="false"
     inkscape:snap-nodes="true"
     inkscape:snap-grids="false" />
  <defs
     id="defs82334">
    <clipPath
       clipPathUnits="userSpaceOnUse"
       id="clipPath13889">
      <use
         x="0"
         y="0"
         xlink:href="#path11635"
         id="use13891"
         width="100%"
         height="100%" />
    </clipPath>
    <clipPath
       clipPathUnits="userSpaceOnUse"
       id="clipPath13901">
      <use
         x="0"
         y="0"
         xlink:href="#path11637"
         id="use13903"
         width="100%"
         height="100%" />
    </clipPath>
    <clipPath
       clipPathUnits="userSpaceOnUse"
       id="clipPath13907">
      <use
         x="0"
         y="0"
         xlink:href="#path11639"
         id="use13909"
         width="100%"
         height="100%" />
    </clipPath>
    <clipPath
       clipPathUnits="userSpaceOnUse"
       id="clipPath13913">
      <use
         x="0"
         y="0"
         xlink:href="#path11641"
         id="use13915"
         width="100%"
         height="100%" />
    </clipPath>
    <clipPath
       clipPathUnits="userSpaceOnUse"
       id="clipPath13919">
      <use
         x="0"
         y="0"
         xlink:href="#path11609"
         id="use13921"
         width="100%"
         height="100%" />
    </clipPath>
    <clipPath
       clipPathUnits="userSpaceOnUse"
       id="clipPath13925">
      <use
         x="0"
         y="0"
         xlink:href="#path11633"
         id="use13927"
         width="100%"
         height="100%" />
    </clipPath>
  </defs>
  <g
     id="g13935">
    <path
       style="font-size:1024px;line-height:1;font-family:'Noto Sans JP';-inkscape-font-specification:'Noto Sans JP';white-space:pre;fill:#fe5f5f;fill-opacity:1"
       d="m 143.36,202.752 q 106.496,12.288 203.776,14.336 98.304,2.048 177.152,-5.12 63.488,-6.144 119.808,-17.408 56.32,-12.288 100.352,-26.624 l 11.264,74.752 q -43.008,11.264 -98.304,22.528 -54.272,10.24 -115.712,16.384 -77.824,7.168 -181.248,7.168 -102.4,-1.024 -212.992,-11.264 z"
       id="path11635" />
    <path
       style="font-size:1024px;line-height:1;font-family:'Noto Sans JP';-inkscape-font-specification:'Noto Sans JP';white-space:pre;fill:#f8f970;fill-opacity:1"
       d="m 122.88,412.672 q 88.064,9.216 172.032,12.288 84.992,2.048 160.768,-1.024 76.8,-3.072 136.192,-10.24 72.704,-8.192 133.12,-21.504 60.416,-13.312 101.376,-26.624 l 12.288,76.8 q -40.96,11.264 -98.304,22.528 -56.32,11.264 -120.832,18.432 -62.464,7.168 -144.384,11.264 -80.896,4.096 -169.984,3.072 -89.088,-2.048 -178.176,-8.192 z"
       id="path11637" />
    <path
       style="font-size:1024px;line-height:1;font-family:'Noto Sans JP';-inkscape-font-specification:'Noto Sans JP';white-space:pre;fill:#6df963;fill-opacity:1"
       d="m 473.088,189.44 q -6.144,-23.552 -13.312,-46.08 -7.168,-23.552 -15.36,-45.056 l 87.04,-11.264 q 5.12,43.008 16.384,90.112 11.264,46.08 24.576,91.136 14.336,44.032 26.624,80.896 14.336,38.912 32.768,83.968 19.456,45.056 43.008,89.088 23.552,44.032 50.176,83.968 8.192,12.288 17.408,23.552 10.24,10.24 21.504,20.48 l -43.008,62.464 q -28.672,-8.192 -67.584,-13.312 -38.912,-6.144 -79.872,-10.24 -39.936,-5.12 -75.776,-9.216 l 6.144,-61.44 q 40.96,3.072 84.992,8.192 45.056,5.12 68.608,8.192 -41.984,-65.536 -74.752,-136.192 -32.768,-71.68 -55.296,-134.144 -12.288,-34.816 -22.528,-64.512 -9.216,-30.72 -17.408,-58.368 -7.168,-27.648 -14.336,-52.224 z"
       id="path11639" />
    <path
       style="font-size:1024px;line-height:1;font-family:'Noto Sans JP';-inkscape-font-specification:'Noto Sans JP';white-space:pre;fill:#51eef8;fill-opacity:1"
       d="m 271.36,632.832 q -18.432,26.624 -30.72,54.272 -11.264,27.648 -11.264,62.464 0,62.464 57.344,95.232 57.344,31.744 178.176,31.744 71.68,0 130.048,-5.12 58.368,-6.144 114.688,-17.408 l -4.096,81.92 q -53.248,8.192 -113.664,13.312 -59.392,5.12 -125.952,5.12 -100.352,0 -169.984,-20.48 -69.632,-20.48 -106.496,-62.464 -36.864,-43.008 -37.888,-108.544 0,-44.032 11.264,-77.824 12.288,-34.816 28.672,-68.608 z"
       id="path11641" />
    <path
       style="font-size:1024px;line-height:1;font-family:'Noto Sans JP';-inkscape-font-specification:'Noto Sans JP';white-space:pre;fill:#5e79f9;fill-opacity:1"
       d="m 776.192,80.896 q 18.432,25.6 43.008,66.56 25.6,40.96 41.984,75.776 l -53.248,24.576 q -17.408,-36.864 -38.912,-74.752 -20.48,-37.888 -44.032,-69.632 z"
       id="path11609" />
    <path
       style="font-size:1024px;line-height:1;font-family:'Noto Sans JP';-inkscape-font-specification:'Noto Sans JP';white-space:pre;fill:#ea65f9;fill-opacity:1"
       d="m 884.736,39.936 q 12.288,16.384 28.672,40.96 16.384,24.576 31.744,51.2 15.36,25.6 27.648,48.128 l -53.248,25.6 Q 901.12,167.936 879.616,132.096 858.112,95.232 833.536,63.488 Z"
       id="path11633" />
  </g>
  <g
     inkscape:label="Layer 1"
     inkscape:groupmode="layer"
     id="layer1">
    <path
       style="font-variation-settings:normal;vector-effect:none;fill:none;fill-opacity:1;stroke:#000000;stroke-width:128;stroke-linecap:butt;stroke-linejoin:miter;stroke-miterlimit:4;stroke-dasharray:none;stroke-dashoffset:0;stroke-opacity:1;-inkscape-stroke:none;stop-color:#000000"
       d="m 129.57856,245.74932 315.36963,9.89949 311.12702,-46.66904"
       id="path6999"
       sodipodi:nodetypes="ccc"
       clip-path="url(#clipPath13889)" />
    <path
       style="font-variation-settings:normal;vector-effect:none;fill:none;fill-opacity:1;stroke:#000000;stroke-width:128;stroke-linecap:butt;stroke-linejoin:miter;stroke-miterlimit:4;stroke-dasharray:none;stroke-dashoffset:0;stroke-opacity:1;-inkscape-stroke:none;stop-color:#000000"
       d="m 104.12272,449.39607 340.82547,11.31371 404.46509,-57.98276"
       id="path7281"
       sodipodi:nodetypes="ccc"
       clip-path="url(#clipPath13901)" />
    <path
       style="font-variation-settings:normal;vector-effect:none;fill:none;fill-opacity:1;stroke:#000000;stroke-width:128;stroke-linecap:butt;stroke-linejoin:miter;stroke-miterlimit:4;stroke-dasharray:none;stroke-dashoffset:0;stroke-opacity:1;-inkscape-stroke:none;stop-color:#000000"
       d="m 480.56088,78.05841 110.7584,360.02395 176.7767,240.05234 -275.1036,-31.38267"
       id="path7677"
       sodipodi:nodetypes="cccc"
       clip-path="url(#clipPath13907)" />
    <path
       style="font-variation-settings:normal;vector-effect:none;fill:none;fill-opacity:1;stroke:#000000;stroke-width:128;stroke-linecap:butt;stroke-linejoin:miter;stroke-miterlimit:4;stroke-dasharray:none;stroke-dashoffset:0;stroke-opacity:1;-inkscape-stroke:none;stop-color:#000000"
       d="M 220.08823,612.03063 180.49026,786.686 267.46438,887.80227 717.18428,900.5302"
       id="path8985"
       sodipodi:nodetypes="cccc"
       clip-path="url(#clipPath13913)" />
    <path
       style="font-variation-settings:normal;opacity:1;vector-effect:none;fill:none;fill-opacity:1;stroke:#000000;stroke-width:128;stroke-linecap:butt;stroke-linejoin:miter;stroke-miterlimit:4;stroke-dasharray:none;stroke-dashoffset:0;stroke-opacity:1;-inkscape-stroke:none;stop-color:#000000;stop-opacity:1"
       d="M 753.42227,84.145707 834.386,243.24474"
       id="path13304"
       sodipodi:nodetypes="cc"
       clip-path="url(#clipPath13919)" />
    <path
       style="font-variation-settings:normal;opacity:1;vector-effect:none;fill:none;fill-opacity:1;stroke:#000000;stroke-width:128;stroke-linecap:butt;stroke-linejoin:miter;stroke-miterlimit:4;stroke-dasharray:none;stroke-dashoffset:0;stroke-opacity:1;-inkscape-stroke:none;stop-color:#000000;stop-opacity:1"
       d="M 861.96317,43.487067 942.92689,201.17188"
       id="path13419"
       sodipodi:nodetypes="cc"
       clip-path="url(#clipPath13925)" />
  </g>
</svg>
