<?xml version="1.0" encoding="UTF-8" standalone="no"?>
<!-- Created with Inkscape (http://www.inkscape.org/) -->

<svg
   width="1024"
   height="1024"
   viewBox="0 0 1024 1024"
   version="2"
   id="svg82337"
   inkscape:version="1.1.2 (b8e25be833, 2022-02-05)"
   sodipodi:docname="ã.svg"
   xmlns:inkscape="http://www.inkscape.org/namespaces/inkscape"
   xmlns:sodipodi="http://sodipodi.sourceforge.net/DTD/sodipodi-0.dtd"
   xmlns:xlink="http://www.w3.org/1999/xlink"
   xmlns="http://www.w3.org/2000/svg"
   xmlns:svg="http://www.w3.org/2000/svg">
  <sodipodi:namedview
     id="namedview82339"
     pagecolor="#ffffff"
     bordercolor="#999999"
     borderopacity="1"
     inkscape:pageshadow="0"
     inkscape:pageopacity="0"
     inkscape:pagecheckerboard="0"
     inkscape:document-units="px"
     showgrid="false"
     units="px"
     inkscape:zoom="1"
     inkscape:cx="572.5"
     inkscape:cy="494.5"
     inkscape:window-width="1920"
     inkscape:window-height="1111"
     inkscape:window-x="-9"
     inkscape:window-y="-9"
     inkscape:window-maximized="1"
     inkscape:current-layer="svg82337"
     viewbox-width="10.5832"
     scale-x="0.26458"
     inkscape:snap-global="true"
     inkscape:snap-bbox="false"
     inkscape:snap-page="true"
     inkscape:snap-midpoints="false"
     inkscape:object-paths="false"
     inkscape:snap-others="true"
     inkscape:snap-center="true"
     inkscape:bbox-nodes="false"
     inkscape:snap-nodes="true"
     inkscape:snap-grids="false" />
  <defs
     id="defs82334">
    <rect
       x="0"
       y="0"
       width="1677.2573"
       height="1467.9537"
       id="rect31831" />
    <clipPath
       clipPathUnits="userSpaceOnUse"
       id="clipPath19040">
      <use
         x="0"
         y="0"
         xlink:href="#path17821"
         id="use19042"
         width="100%"
         height="100%" />
    </clipPath>
    <clipPath
       clipPathUnits="userSpaceOnUse"
       id="clipPath19046">
      <use
         x="0"
         y="0"
         xlink:href="#path17795"
         id="use19048"
         width="100%"
         height="100%" />
    </clipPath>
    <clipPath
       clipPathUnits="userSpaceOnUse"
       id="clipPath19052">
      <use
         x="0"
         y="0"
         xlink:href="#path17819"
         id="use19054"
         width="100%"
         height="100%" />
    </clipPath>
  </defs>
  <g
     id="g19076">
    <path
       style="font-size:1024px;line-height:1;font-family:'Noto Sans JP';-inkscape-font-specification:'Noto Sans JP';white-space:pre;fill:#f75d5d;fill-opacity:1"
       d="m 707.584,145.408 q -16.384,12.288 -36.864,30.72 -20.48,17.408 -33.792,27.648 -26.624,23.552 -64.512,55.296 -37.888,30.72 -80.896,65.536 -41.984,33.792 -80.896,65.536 -38.912,30.72 -66.56,55.296 -30.72,26.624 -41.984,44.032 -10.24,16.384 1.024,33.792 11.264,17.408 44.032,46.08 27.648,22.528 64.512,53.248 36.864,29.696 78.848,64.512 41.984,34.816 83.968,71.68 43.008,36.864 82.944,72.704 39.936,35.84 72.704,68.608 l -72.704,67.584 q -16.384,-18.432 -34.816,-37.888 -17.408,-18.432 -35.84,-36.864 -26.624,-27.648 -67.584,-64.512 -39.936,-36.864 -86.016,-76.8 -45.056,-39.936 -89.088,-76.8 -44.032,-37.888 -80.896,-67.584 -48.128,-40.96 -61.44,-71.68 -13.312,-31.744 4.096,-62.464 18.432,-30.72 64.512,-68.608 29.696,-24.576 69.632,-57.344 40.96,-32.768 84.992,-68.608 44.032,-36.864 82.944,-70.656 38.912,-34.816 64.512,-61.44 15.36,-15.36 32.768,-34.816 17.408,-19.456 25.6,-33.792 z"
       id="path17821" />
    <path
       style="font-size:1024px;line-height:1;font-family:'Noto Sans JP';-inkscape-font-specification:'Noto Sans JP';white-space:pre;fill:#f2ee53;fill-opacity:1"
       d="m 654.336,318.464 q 13.312,19.456 29.696,47.104 16.384,27.648 31.744,56.32 16.384,27.648 27.648,47.104 l -57.344,24.576 q -10.24,-21.504 -25.6,-48.128 -15.36,-27.648 -31.744,-55.296 -15.36,-28.672 -28.672,-48.128 z"
       id="path17795" />
    <path
       style="font-size:1024px;line-height:1;font-family:'Noto Sans JP';-inkscape-font-specification:'Noto Sans JP';white-space:pre;fill:#7cf253;fill-opacity:1"
       d="m 774.144,272.384 q 13.312,17.408 29.696,45.056 17.408,26.624 33.792,54.272 16.384,26.624 26.624,48.128 l -55.296,24.576 q -12.288,-21.504 -28.672,-48.128 -15.36,-27.648 -31.744,-54.272 -15.36,-26.624 -29.696,-45.056 z"
       id="path17819" />
  </g>
  <g
     inkscape:label="Layer 1"
     inkscape:groupmode="layer"
     id="layer1">
    <path
       style="font-variation-settings:normal;vector-effect:none;fill:none;fill-opacity:1;stroke:#000000;stroke-width:128;stroke-linecap:butt;stroke-linejoin:miter;stroke-miterlimit:4;stroke-dasharray:none;stroke-dashoffset:0;stroke-opacity:1;-inkscape-stroke:none;stop-color:#000000"
       d="M 680.96465,101.82338 225.58788,511.94531 706.42049,944.69467"
       id="path15684"
       sodipodi:nodetypes="ccc"
       clip-path="url(#clipPath19040)" />
    <path
       style="font-variation-settings:normal;opacity:1;vector-effect:none;fill:none;fill-opacity:1;stroke:#000000;stroke-width:128;stroke-linecap:butt;stroke-linejoin:miter;stroke-miterlimit:4;stroke-dasharray:none;stroke-dashoffset:0;stroke-opacity:1;-inkscape-stroke:none;stop-color:#000000;stop-opacity:1"
       d="m 633,320.5 72.5,170"
       id="path18222"
       sodipodi:nodetypes="cc"
       clip-path="url(#clipPath19046)" />
    <path
       style="font-variation-settings:normal;opacity:1;vector-effect:none;fill:none;fill-opacity:1;stroke:#000000;stroke-width:128;stroke-linecap:butt;stroke-linejoin:miter;stroke-miterlimit:4;stroke-dasharray:none;stroke-dashoffset:0;stroke-opacity:1;-inkscape-stroke:none;stop-color:#000000;stop-opacity:1"
       d="m 756,274.5 78.5,166"
       id="path18257"
       sodipodi:nodetypes="cc"
       clip-path="url(#clipPath19052)" />
  </g>
</svg>
