<?xml version="1.0" encoding="UTF-8" standalone="no"?>
<!-- Created with Inkscape (http://www.inkscape.org/) -->

<svg
   width="1024"
   height="1024"
   viewBox="0 0 1024 1024"
   version="2"
   id="svg82337"
   inkscape:version="1.3 (0e150ed6c4, 2023-07-21)"
   sodipodi:docname="ã‘.svg"
   xmlns:inkscape="http://www.inkscape.org/namespaces/inkscape"
   xmlns:sodipodi="http://sodipodi.sourceforge.net/DTD/sodipodi-0.dtd"
   xmlns:xlink="http://www.w3.org/1999/xlink"
   xmlns="http://www.w3.org/2000/svg"
   xmlns:svg="http://www.w3.org/2000/svg">
  <sodipodi:namedview
     id="namedview82339"
     pagecolor="#ffffff"
     bordercolor="#999999"
     borderopacity="1"
     inkscape:pageshadow="0"
     inkscape:pageopacity="0"
     inkscape:pagecheckerboard="0"
     inkscape:document-units="px"
     showgrid="false"
     units="px"
     inkscape:zoom="0.70710678"
     inkscape:cx="224.15285"
     inkscape:cy="521.1377"
     inkscape:window-width="1920"
     inkscape:window-height="1111"
     inkscape:window-x="-9"
     inkscape:window-y="-9"
     inkscape:window-maximized="1"
     inkscape:current-layer="g12"
     viewbox-width="10.5832"
     scale-x="0.26458"
     inkscape:snap-global="true"
     inkscape:snap-bbox="false"
     inkscape:snap-page="true"
     inkscape:snap-midpoints="false"
     inkscape:object-paths="false"
     inkscape:snap-others="true"
     inkscape:snap-center="true"
     inkscape:bbox-nodes="false"
     inkscape:snap-nodes="true"
     inkscape:snap-grids="false"
     inkscape:showpageshadow="0"
     inkscape:deskcolor="#d1d1d1" />
  <defs
     id="defs82334">
    <clipPath
       clipPathUnits="userSpaceOnUse"
       id="clipPath9">
      <use
         x="0"
         y="0"
         xlink:href="#path1"
         id="use10" />
    </clipPath>
    <clipPath
       clipPathUnits="userSpaceOnUse"
       id="clipPath11">
      <use
         x="0"
         y="0"
         xlink:href="#flowRoot1"
         id="use12" />
    </clipPath>
    <clipPath
       clipPathUnits="userSpaceOnUse"
       id="clipPath12">
      <use
         x="0"
         y="0"
         xlink:href="#use7"
         id="use13" />
    </clipPath>
  </defs>
  <g
     inkscape:label="Layer 1"
     inkscape:groupmode="layer"
     id="layer1">
    <path
       style="font-size:1024px;line-height:1;font-family:'Noto Sans JP';fill:#f66d6d"
       d="m 261.12,117.76 q -4.096,14.336 -9.216,33.792 -4.096,18.432 -8.192,32.768 -12.288,55.296 -23.552,122.88 -11.264,67.584 -17.408,140.288 -6.144,72.704 -4.096,143.36 2.048,70.656 16.384,134.144 11.264,-32.768 25.6,-75.776 15.36,-43.008 29.696,-80.896 l 44.032,26.624 q -12.288,34.816 -25.6,78.848 -13.312,43.008 -24.576,82.944 -11.264,38.912 -16.384,64.512 -3.072,11.264 -5.12,24.576 -1.024,13.312 0,21.504 1.024,8.192 1.024,17.408 1.024,9.216 2.048,17.408 l -69.632,8.192 q -10.24,-30.72 -23.552,-82.944 -12.288,-52.224 -21.504,-114.688 -9.216,-63.488 -9.216,-126.976 0,-83.968 7.168,-160.768 8.192,-76.8 17.408,-141.312 9.216,-64.512 14.336,-106.496 3.072,-18.432 4.096,-36.864 1.024,-18.432 1.024,-31.744 z"
       id="use7" />
    <path
       style="font-size:1024px;line-height:1;font-family:'Noto Sans JP';fill:#f5d36c"
       d="m 405.504,314.368 q 22.528,3.072 50.176,6.144 27.648,3.072 57.344,4.096 30.72,1.024 57.344,1.024 63.488,0 130.048,-3.072 67.584,-3.072 130.048,-10.24 63.488,-7.168 113.664,-18.432 v 83.968 q -49.152,7.168 -111.616,13.312 -61.44,6.144 -129.024,9.216 -66.56,2.048 -132.096,2.048 -24.576,0 -55.296,-1.024 -29.696,-1.024 -59.392,-2.048 -28.672,-1.024 -51.2,-3.072 z"
       id="path1" />
    <path
       style="font-size:1024px;line-height:1;font-family:'Noto Sans JP';fill:#b2f46b"
       d="m 779.264,102.4 q -2.048,13.312 -3.072,28.672 0,14.336 0,31.744 -1.024,11.264 -1.024,36.864 1.024,25.6 1.024,58.368 1.024,31.744 1.024,65.536 1.024,33.792 1.024,62.464 0,27.648 0,45.056 0,88.064 -4.096,163.84 -3.072,75.776 -22.528,141.312 -19.456,65.536 -64.512,121.856 -44.032,55.296 -125.952,103.424 L 486.4,903.168 q 24.576,-10.24 52.224,-27.648 28.672,-17.408 47.104,-35.84 40.96,-35.84 64.512,-76.8 23.552,-40.96 33.792,-90.112 11.264,-49.152 14.336,-108.544 3.072,-59.392 3.072,-133.12 0,-24.576 -1.024,-62.464 -1.024,-38.912 -2.048,-79.872 -1.024,-41.984 -2.048,-75.776 -1.024,-33.792 -3.072,-49.152 -1.024,-17.408 -4.096,-32.768 -3.072,-16.384 -5.12,-28.672 z"
       id="flowRoot1" />
  </g>
  <g
     id="g12">
    <path
       style="font-variation-settings:normal;vector-effect:none;fill:none;fill-opacity:1;stroke:#000000;stroke-width:128;stroke-linecap:butt;stroke-linejoin:miter;stroke-miterlimit:4;stroke-dasharray:none;stroke-dashoffset:0;stroke-opacity:1;-inkscape-stroke:none;stop-color:#000000"
       d="M 209.67557,105.42408 144.57351,693.66734 187.01149,903.28846 303.2292,575.07117"
       id="path3"
       sodipodi:nodetypes="cccc"
       clip-path="url(#clipPath12)" />
    <path
       style="font-variation-settings:normal;vector-effect:none;fill:none;fill-opacity:1;stroke:#000000;stroke-width:128;stroke-linecap:butt;stroke-linejoin:miter;stroke-miterlimit:4;stroke-dasharray:none;stroke-dashoffset:0;stroke-opacity:1;-inkscape-stroke:none;stop-color:#000000"
       d="M 396.15137,362.8671 950.35152,347.89654"
       id="path4"
       clip-path="url(#clipPath9)"
       sodipodi:nodetypes="cc" />
    <path
       style="font-variation-settings:normal;vector-effect:none;fill:none;fill-opacity:1;stroke:#000000;stroke-width:128;stroke-linecap:butt;stroke-linejoin:miter;stroke-miterlimit:4;stroke-dasharray:none;stroke-dashoffset:0;stroke-opacity:1;-inkscape-stroke:none;stop-color:#000000"
       d="M 727.7342,94.095455 732.56263,673.16566 644.45245,834.21443 513.35952,944.69466"
       id="path5"
       sodipodi:nodetypes="cccc"
       clip-path="url(#clipPath11)" />
  </g>
</svg>
