<?xml version="1.0" encoding="UTF-8" standalone="no"?>
<!-- Created with Inkscape (http://www.inkscape.org/) -->

<svg
   width="1024"
   height="1024"
   viewBox="0 0 1024 1024"
   version="2"
   id="svg82337"
   inkscape:version="1.3 (0e150ed6c4, 2023-07-21)"
   sodipodi:docname="ã’.svg"
   xmlns:inkscape="http://www.inkscape.org/namespaces/inkscape"
   xmlns:sodipodi="http://sodipodi.sourceforge.net/DTD/sodipodi-0.dtd"
   xmlns:xlink="http://www.w3.org/1999/xlink"
   xmlns="http://www.w3.org/2000/svg"
   xmlns:svg="http://www.w3.org/2000/svg">
  <sodipodi:namedview
     id="namedview82339"
     pagecolor="#ffffff"
     bordercolor="#999999"
     borderopacity="1"
     inkscape:pageshadow="0"
     inkscape:pageopacity="0"
     inkscape:pagecheckerboard="0"
     inkscape:document-units="px"
     showgrid="false"
     units="px"
     inkscape:zoom="1"
     inkscape:cx="323"
     inkscape:cy="543.5"
     inkscape:window-width="1920"
     inkscape:window-height="1111"
     inkscape:window-x="-9"
     inkscape:window-y="-9"
     inkscape:window-maximized="1"
     inkscape:current-layer="g16"
     viewbox-width="10.5832"
     scale-x="0.26458"
     inkscape:snap-global="true"
     inkscape:snap-bbox="false"
     inkscape:snap-page="true"
     inkscape:snap-midpoints="false"
     inkscape:object-paths="false"
     inkscape:snap-others="true"
     inkscape:snap-center="true"
     inkscape:bbox-nodes="false"
     inkscape:snap-nodes="true"
     inkscape:snap-grids="false"
     inkscape:showpageshadow="0"
     inkscape:deskcolor="#d1d1d1" />
  <defs
     id="defs82334">
    <clipPath
       clipPathUnits="userSpaceOnUse"
       id="clipPath9">
      <use
         x="0"
         y="0"
         xlink:href="#flowRoot1"
         id="use10" />
    </clipPath>
    <clipPath
       clipPathUnits="userSpaceOnUse"
       id="clipPath11">
      <use
         x="0"
         y="0"
         xlink:href="#path1"
         id="use12" />
    </clipPath>
    <clipPath
       clipPathUnits="userSpaceOnUse"
       id="clipPath13">
      <use
         x="0"
         y="0"
         xlink:href="#path3"
         id="use14" />
    </clipPath>
    <clipPath
       clipPathUnits="userSpaceOnUse"
       id="clipPath15">
      <use
         x="0"
         y="0"
         xlink:href="#path4"
         id="use16" />
    </clipPath>
    <clipPath
       clipPathUnits="userSpaceOnUse"
       id="clipPath17">
      <use
         x="0"
         y="0"
         xlink:href="#path2"
         id="use18" />
    </clipPath>
  </defs>
  <g
     inkscape:label="Layer 1"
     inkscape:groupmode="layer"
     id="layer1">
    <path
       style="font-size:1024px;line-height:1;font-family:'Noto Sans JP';fill:#f66d6d"
       d="m 250.88,133.12 q -4.096,14.336 -9.216,32.768 -5.12,18.432 -9.216,33.792 -12.288,55.296 -23.552,122.88 -11.264,67.584 -17.408,140.288 -6.144,71.68 -4.096,143.36 2.048,70.656 16.384,134.144 11.264,-32.768 25.6,-75.776 15.36,-43.008 29.696,-80.896 l 44.032,26.624 q -12.288,34.816 -25.6,78.848 -13.312,43.008 -24.576,82.944 -10.24,38.912 -16.384,64.512 -3.072,11.264 -4.096,24.576 -1.024,13.312 -1.024,21.504 1.024,8.192 1.024,17.408 1.024,9.216 2.048,17.408 l -69.632,8.192 q -10.24,-31.744 -23.552,-82.944 -12.288,-52.224 -21.504,-114.688 -9.216,-63.488 -9.216,-126.976 0,-83.968 7.168,-160.768 8.192,-77.824 17.408,-141.312 9.216,-64.512 14.336,-106.496 3.072,-18.432 4.096,-36.864 1.024,-18.432 2.048,-31.744 z"
       id="path2" />
    <path
       style="font-size:1024px;line-height:1;font-family:'Noto Sans JP';fill:#f5d36c"
       d="m 394.24,329.728 q 22.528,3.072 50.176,6.144 27.648,3.072 57.344,4.096 30.72,1.024 57.344,1.024 63.488,0 130.048,-3.072 67.584,-3.072 130.048,-10.24 63.488,-7.168 114.688,-18.432 l -1.024,82.944 q -49.152,8.192 -111.616,14.336 -61.44,5.12 -129.024,8.192 -66.56,3.072 -132.096,3.072 -23.552,0 -54.272,-1.024 -30.72,-1.024 -60.416,-2.048 -28.672,-2.048 -51.2,-3.072 z"
       id="path1" />
    <path
       style="font-size:1024px;line-height:1;font-family:'Noto Sans JP';fill:#b2f46b"
       d="m 757.76,117.76 q -1.024,13.312 -2.048,28.672 -1.024,14.336 -1.024,31.744 -1.024,11.264 -1.024,36.864 1.024,25.6 1.024,58.368 1.024,31.744 1.024,65.536 1.024,32.768 1.024,61.44 0,28.672 0,46.08 0,88.064 -4.096,163.84 -3.072,75.776 -22.528,141.312 -19.456,65.536 -64.512,121.856 -44.032,55.296 -125.952,103.424 l -74.752,-58.368 q 24.576,-10.24 52.224,-27.648 28.672,-18.432 47.104,-36.864 41.984,-35.84 64.512,-75.776 23.552,-40.96 33.792,-90.112 11.264,-49.152 14.336,-108.544 3.072,-59.392 3.072,-133.12 0,-24.576 -1.024,-62.464 0,-38.912 -2.048,-79.872 -1.024,-41.984 -2.048,-75.776 -1.024,-33.792 -2.048,-49.152 -1.024,-18.432 -5.12,-33.792 -3.072,-15.36 -5.12,-27.648 z"
       id="flowRoot1" />
    <path
       style="font-size:1024px;line-height:1;font-family:'Noto Sans JP';fill:#6af387"
       d="m 838.656,91.136 q 14.336,27.648 31.744,68.608 17.408,40.96 27.648,72.704 l -51.2,18.432 Q 835.584,217.088 819.2,177.152 803.84,136.192 789.504,106.496 Z"
       id="path3" />
    <path
       style="font-size:1024px;line-height:1;font-family:'Noto Sans JP';fill:#69f2ea"
       d="M 941.056,59.392 Q 955.392,87.04 972.8,128 q 18.432,40.96 29.696,71.68 l -51.2,18.432 q -12.288,-34.816 -27.648,-73.728 -15.36,-39.936 -31.744,-68.608 z"
       id="path4" />
  </g>
  <g
     id="g16">
    <path
       style="font-variation-settings:normal;vector-effect:none;fill:none;fill-opacity:1;stroke:#000000;stroke-width:128;stroke-linecap:butt;stroke-linejoin:miter;stroke-miterlimit:4;stroke-dasharray:none;stroke-dashoffset:0;stroke-opacity:1;-inkscape-stroke:none;stop-color:#000000"
       d="M 195.67557,105.4241 130.57351,693.66736 173.01149,903.28848 289.2292,575.07119"
       id="path3-2"
       sodipodi:nodetypes="cccc"
       clip-path="url(#clipPath17)" />
    <path
       style="font-variation-settings:normal;vector-effect:none;fill:none;fill-opacity:1;stroke:#000000;stroke-width:128;stroke-linecap:butt;stroke-linejoin:miter;stroke-miterlimit:4;stroke-dasharray:none;stroke-dashoffset:0;stroke-opacity:1;-inkscape-stroke:none;stop-color:#000000"
       d="M 387.15137,379.8671 943.35152,357.89654"
       id="path4-2"
       clip-path="url(#clipPath11)"
       sodipodi:nodetypes="cc" />
    <path
       style="font-variation-settings:normal;vector-effect:none;fill:none;fill-opacity:1;stroke:#000000;stroke-width:128;stroke-linecap:butt;stroke-linejoin:miter;stroke-miterlimit:4;stroke-dasharray:none;stroke-dashoffset:0;stroke-opacity:1;-inkscape-stroke:none;stop-color:#000000"
       d="m 711.7342,112.09546 4.82843,577.0702 -88.11018,161.04877 -131.09293,110.48023"
       id="path5"
       sodipodi:nodetypes="cccc"
       clip-path="url(#clipPath9)" />
    <path
       style="font-variation-settings:normal;opacity:1;vector-effect:none;fill:none;fill-opacity:1;stroke:#000000;stroke-width:128;stroke-linecap:butt;stroke-linejoin:miter;stroke-miterlimit:4;stroke-dasharray:none;stroke-dashoffset:0;stroke-opacity:1;-inkscape-stroke:none;stop-color:#000000;stop-opacity:1"
       d="m 824,91 46,158"
       id="path6"
       sodipodi:nodetypes="cc"
       clip-path="url(#clipPath13)" />
    <path
       style="font-variation-settings:normal;opacity:1;vector-effect:none;fill:none;fill-opacity:1;stroke:#000000;stroke-width:128;stroke-linecap:butt;stroke-linejoin:miter;stroke-miterlimit:4;stroke-dasharray:none;stroke-dashoffset:0;stroke-opacity:1;-inkscape-stroke:none;stop-color:#000000;stop-opacity:1"
       d="m 922.5,60 51,157"
       id="path7"
       sodipodi:nodetypes="cc"
       clip-path="url(#clipPath15)" />
  </g>
</svg>
