<?xml version="1.0" encoding="UTF-8" standalone="no"?>
<!-- Created with Inkscape (http://www.inkscape.org/) -->

<svg
   width="1024"
   height="1024"
   viewBox="0 0 1024 1024"
   version="2"
   id="svg82337"
   inkscape:version="1.3 (0e150ed6c4, 2023-07-21)"
   sodipodi:docname="ã“.svg"
   xmlns:inkscape="http://www.inkscape.org/namespaces/inkscape"
   xmlns:sodipodi="http://sodipodi.sourceforge.net/DTD/sodipodi-0.dtd"
   xmlns:xlink="http://www.w3.org/1999/xlink"
   xmlns="http://www.w3.org/2000/svg"
   xmlns:svg="http://www.w3.org/2000/svg">
  <sodipodi:namedview
     id="namedview82339"
     pagecolor="#ffffff"
     bordercolor="#999999"
     borderopacity="1"
     inkscape:pageshadow="0"
     inkscape:pageopacity="0"
     inkscape:pagecheckerboard="0"
     inkscape:document-units="px"
     showgrid="false"
     units="px"
     inkscape:zoom="0.70710678"
     inkscape:cx="548.71486"
     inkscape:cy="567.80675"
     inkscape:window-width="1920"
     inkscape:window-height="1111"
     inkscape:window-x="-9"
     inkscape:window-y="-9"
     inkscape:window-maximized="1"
     inkscape:current-layer="layer1"
     viewbox-width="10.5832"
     scale-x="0.26458"
     inkscape:snap-global="true"
     inkscape:snap-bbox="false"
     inkscape:snap-page="true"
     inkscape:snap-midpoints="false"
     inkscape:object-paths="false"
     inkscape:snap-others="true"
     inkscape:snap-center="true"
     inkscape:bbox-nodes="false"
     inkscape:snap-nodes="true"
     inkscape:snap-grids="false"
     inkscape:showpageshadow="0"
     inkscape:deskcolor="#d1d1d1" />
  <defs
     id="defs82334">
    <clipPath
       id="clipPath2974">
      <use
         id="clone9461"
         xlink:href="#flowRoot1" />
    </clipPath>
    <clipPath
       id="clipPath7753">
      <use
         id="clone6582"
         xlink:href="#path1" />
    </clipPath>
  </defs>
  <g
     id="g1">
    <path
       style="font-size:1024px;line-height:1;font-family:'Noto Sans JP';fill:#f66d6d"
       d="m 240.64,182.272 q 55.296,7.168 123.904,10.24 69.632,3.072 146.432,3.072 49.152,0 98.304,-2.048 50.176,-2.048 95.232,-5.12 46.08,-4.096 82.944,-7.168 v 83.968 q -34.816,2.048 -80.896,5.12 -46.08,3.072 -97.28,5.12 -50.176,2.048 -98.304,2.048 -76.8,0 -143.36,-3.072 -66.56,-4.096 -126.976,-8.192 z"
       id="flowRoot1" />
    <path
       style="font-size:1024px;line-height:1;font-family:'Noto Sans JP';fill:#f5d36c"
       d="m 281.6,594.944 q -10.24,30.72 -16.384,59.392 -5.12,28.672 -5.12,57.344 0,58.368 60.416,95.232 60.416,36.864 183.296,36.864 70.656,0 136.192,-5.12 65.536,-5.12 119.808,-14.336 55.296,-9.216 94.208,-21.504 l 1.024,88.064 q -36.864,10.24 -91.136,18.432 -53.248,8.192 -118.784,12.288 -65.536,5.12 -139.264,5.12 -103.424,0 -177.152,-22.528 -73.728,-22.528 -112.64,-66.56 -38.912,-44.032 -38.912,-108.544 0,-39.936 7.168,-75.776 7.168,-35.84 14.336,-66.56 z"
       id="path1" />
  </g>
  <g
     inkscape:label="Layer 1"
     inkscape:groupmode="layer"
     id="layer1">
    <path
       style="font-variation-settings:normal;opacity:1;vector-effect:none;fill:none;fill-opacity:1;stroke:#000000;stroke-width:125.458;stroke-linecap:butt;stroke-linejoin:miter;stroke-miterlimit:4;stroke-dasharray:none;stroke-dashoffset:0;stroke-opacity:1;-inkscape-stroke:none;stop-color:#000000;stop-opacity:1"
       d="M 235,229 H 797"
       id="path2"
       clip-path="url(#clipPath2974)" />
    <path
       style="font-variation-settings:normal;opacity:1;vector-effect:none;fill:none;fill-opacity:1;stroke:#000000;stroke-width:128;stroke-linecap:butt;stroke-linejoin:miter;stroke-miterlimit:4;stroke-dasharray:none;stroke-dashoffset:0;stroke-opacity:1;-inkscape-stroke:none;stop-color:#000000;stop-opacity:1"
       d="m 229.93102,586.99913 -12.55635,134.71783 66.36353,135.59937 208.65581,41.56715 375.93312,-43.28427"
       id="path3"
       sodipodi:nodetypes="ccccc"
       clip-path="url(#clipPath7753)" />
  </g>
</svg>
