<?xml version="1.0" encoding="UTF-8" standalone="no"?>
<!-- Created with Inkscape (http://www.inkscape.org/) -->

<svg
   width="1024"
   height="1024"
   viewBox="0 0 1024 1024"
   version="2"
   id="svg82337"
   inkscape:version="1.3 (0e150ed6c4, 2023-07-21)"
   sodipodi:docname="ã”.svg"
   xmlns:inkscape="http://www.inkscape.org/namespaces/inkscape"
   xmlns:sodipodi="http://sodipodi.sourceforge.net/DTD/sodipodi-0.dtd"
   xmlns:xlink="http://www.w3.org/1999/xlink"
   xmlns="http://www.w3.org/2000/svg"
   xmlns:svg="http://www.w3.org/2000/svg">
  <sodipodi:namedview
     id="namedview82339"
     pagecolor="#ffffff"
     bordercolor="#999999"
     borderopacity="1"
     inkscape:pageshadow="0"
     inkscape:pageopacity="0"
     inkscape:pagecheckerboard="0"
     inkscape:document-units="px"
     showgrid="false"
     units="px"
     inkscape:zoom="0.70710678"
     inkscape:cx="557.90725"
     inkscape:cy="679.52962"
     inkscape:window-width="1920"
     inkscape:window-height="1111"
     inkscape:window-x="-9"
     inkscape:window-y="-9"
     inkscape:window-maximized="1"
     inkscape:current-layer="layer1"
     viewbox-width="10.5832"
     scale-x="0.26458"
     inkscape:snap-global="true"
     inkscape:snap-bbox="false"
     inkscape:snap-page="true"
     inkscape:snap-midpoints="false"
     inkscape:object-paths="false"
     inkscape:snap-others="true"
     inkscape:snap-center="true"
     inkscape:bbox-nodes="false"
     inkscape:snap-nodes="true"
     inkscape:snap-grids="false"
     inkscape:showpageshadow="0"
     inkscape:deskcolor="#d1d1d1" />
  <defs
     id="defs82334">
    <clipPath
       id="clipPath4004">
      <use
         id="clone7770"
         xlink:href="#flowRoot1" />
    </clipPath>
    <clipPath
       id="clipPath9879">
      <use
         id="clone8516"
         xlink:href="#path1" />
    </clipPath>
    <clipPath
       id="clipPath4427">
      <use
         id="clone2572"
         xlink:href="#path2" />
    </clipPath>
    <clipPath
       id="clipPath2412">
      <use
         id="clone1882"
         xlink:href="#path3" />
    </clipPath>
  </defs>
  <g
     id="g1">
    <path
       style="font-size:1024px;line-height:1;font-family:'Noto Sans JP';fill:#f66d6d"
       d="m 222.208,193.536 q 55.296,6.144 123.904,9.216 69.632,3.072 146.432,3.072 49.152,0 98.304,-2.048 50.176,-2.048 95.232,-5.12 46.08,-3.072 82.944,-7.168 v 83.968 q -34.816,3.072 -80.896,6.144 -46.08,3.072 -97.28,5.12 -50.176,1.024 -97.28,1.024 -77.824,0 -144.384,-3.072 -66.56,-3.072 -126.976,-8.192 z"
       id="flowRoot1" />
    <path
       style="font-size:1024px;line-height:1;font-family:'Noto Sans JP';fill:#f5d36c"
       d="m 263.168,606.208 q -10.24,29.696 -15.36,59.392 -5.12,28.672 -5.12,56.32 0,59.392 59.392,96.256 60.416,35.84 183.296,35.84 71.68,0 136.192,-4.096 65.536,-5.12 119.808,-14.336 55.296,-9.216 94.208,-21.504 l 1.024,88.064 q -36.864,9.216 -91.136,17.408 -53.248,9.216 -118.784,13.312 -65.536,5.12 -139.264,5.12 -103.424,0 -177.152,-22.528 -73.728,-22.528 -112.64,-66.56 -38.912,-44.032 -38.912,-108.544 0,-39.936 7.168,-75.776 7.168,-35.84 14.336,-66.56 z"
       id="path1" />
    <path
       style="font-size:1024px;line-height:1;font-family:'Noto Sans JP';fill:#b2f46b"
       d="m 797.696,78.848 q 13.312,18.432 28.672,44.032 15.36,24.576 29.696,51.2 15.36,25.6 25.6,46.08 l -55.296,25.6 Q 811.008,214.016 787.456,173.056 763.904,132.096 742.4,102.4 Z"
       id="path2" />
    <path
       style="font-size:1024px;line-height:1;font-family:'Noto Sans JP';fill:#6af387"
       d="m 910.336,37.888 q 14.336,19.456 30.72,45.056 16.384,25.6 31.744,51.2 15.36,24.576 24.576,44.032 l -56.32,24.576 Q 924.672,168.96 901.12,130.048 878.592,90.112 856.064,61.44 Z"
       id="path3" />
  </g>
  <g
     inkscape:label="Layer 1"
     inkscape:groupmode="layer"
     id="layer1">
    <path
       style="font-variation-settings:normal;opacity:1;vector-effect:none;fill:none;fill-opacity:1;stroke:#000000;stroke-width:128;stroke-linecap:butt;stroke-linejoin:miter;stroke-miterlimit:4;stroke-dasharray:none;stroke-dashoffset:0;stroke-opacity:1;-inkscape-stroke:none;stop-color:#000000;stop-opacity:1"
       d="m 212.58579,235.75736 562.92893,3.8995"
       id="path4"
       sodipodi:nodetypes="cc"
       clip-path="url(#clipPath4004)" />
    <path
       style="font-variation-settings:normal;opacity:1;vector-effect:none;fill:none;fill-opacity:1;stroke:#000000;stroke-width:128;stroke-linecap:butt;stroke-linejoin:miter;stroke-miterlimit:4;stroke-dasharray:none;stroke-dashoffset:0;stroke-opacity:1;-inkscape-stroke:none;stop-color:#000000;stop-opacity:1"
       d="m 210.85995,590.79812 -21.84923,155.02796 79.81118,128.37973 220.32442,34.13351 356.55339,-51.3259"
       id="path5"
       sodipodi:nodetypes="ccccc"
       clip-path="url(#clipPath9879)" />
    <path
       style="font-variation-settings:normal;opacity:1;vector-effect:none;fill:none;fill-opacity:1;stroke:#000000;stroke-width:128;stroke-linecap:butt;stroke-linejoin:miter;stroke-miterlimit:4;stroke-dasharray:none;stroke-dashoffset:0;stroke-opacity:1;-inkscape-stroke:none;stop-color:#000000;stop-opacity:1"
       d="M 772.1606,82.731494 843.57839,243.24474"
       id="path6"
       sodipodi:nodetypes="cc"
       clip-path="url(#clipPath4427)" />
    <path
       style="font-variation-settings:normal;opacity:1;vector-effect:none;fill:none;fill-opacity:1;stroke:#000000;stroke-width:128;stroke-linecap:butt;stroke-linejoin:miter;stroke-miterlimit:4;stroke-dasharray:none;stroke-dashoffset:0;stroke-opacity:1;-inkscape-stroke:none;stop-color:#000000;stop-opacity:1"
       d="m 888.83323,38.890873 73.5391,160.513237"
       id="path7"
       sodipodi:nodetypes="cc"
       clip-path="url(#clipPath2412)" />
  </g>
</svg>
