<?xml version="1.0" encoding="UTF-8" standalone="no"?>
<!-- Created with Inkscape (http://www.inkscape.org/) -->

<svg
   width="1024"
   height="1024"
   viewBox="0 0 1024 1024"
   version="2"
   id="svg82337"
   inkscape:version="1.3 (0e150ed6c4, 2023-07-21)"
   sodipodi:docname="ã•.svg"
   xmlns:inkscape="http://www.inkscape.org/namespaces/inkscape"
   xmlns:sodipodi="http://sodipodi.sourceforge.net/DTD/sodipodi-0.dtd"
   xmlns:xlink="http://www.w3.org/1999/xlink"
   xmlns="http://www.w3.org/2000/svg"
   xmlns:svg="http://www.w3.org/2000/svg">
  <sodipodi:namedview
     id="namedview82339"
     pagecolor="#ffffff"
     bordercolor="#999999"
     borderopacity="1"
     inkscape:pageshadow="0"
     inkscape:pageopacity="0"
     inkscape:pagecheckerboard="0"
     inkscape:document-units="px"
     showgrid="false"
     units="px"
     inkscape:zoom="0.5"
     inkscape:cx="602"
     inkscape:cy="505"
     inkscape:window-width="1920"
     inkscape:window-height="1111"
     inkscape:window-x="-9"
     inkscape:window-y="-9"
     inkscape:window-maximized="1"
     inkscape:current-layer="layer1"
     viewbox-width="10.5832"
     scale-x="0.26458"
     inkscape:snap-global="true"
     inkscape:snap-bbox="false"
     inkscape:snap-page="true"
     inkscape:snap-midpoints="false"
     inkscape:object-paths="false"
     inkscape:snap-others="true"
     inkscape:snap-center="true"
     inkscape:bbox-nodes="false"
     inkscape:snap-nodes="true"
     inkscape:snap-grids="false"
     inkscape:showpageshadow="0"
     inkscape:deskcolor="#d1d1d1" />
  <defs
     id="defs82334">
    <clipPath
       id="clipPath9849">
      <use
         id="clone8279"
         xlink:href="#path1" />
    </clipPath>
    <clipPath
       id="clipPath5588">
      <use
         id="clone7242"
         xlink:href="#flowRoot1" />
    </clipPath>
    <clipPath
       id="clipPath9170">
      <use
         id="clone44"
         xlink:href="#path2" />
    </clipPath>
  </defs>
  <g
     id="g1"
     clip-path="none">
    <path
       style="font-size:1024px;line-height:1;font-family:'Noto Sans JP';fill:#f66d6d"
       d="m 161.792,254.976 q 86.016,10.24 165.888,14.336 80.896,4.096 152.576,2.048 72.704,-2.048 131.072,-8.192 40.96,-5.12 86.016,-12.288 46.08,-7.168 91.136,-18.432 45.056,-11.264 84.992,-23.552 l 9.216,79.872 q -35.84,11.264 -78.848,19.456 -43.008,8.192 -86.016,15.36 -43.008,7.168 -80.896,11.264 -97.28,11.264 -218.112,12.288 -119.808,1.024 -254.976,-10.24 z"
       id="path1" />
    <path
       style="font-size:1024px;line-height:1;font-family:'Noto Sans JP';fill:#f5d36c"
       d="m 536.576,175.104 q -5.12,-16.384 -12.288,-37.888 -6.144,-21.504 -13.312,-41.984 l 87.04,-11.264 q 5.12,29.696 14.336,67.584 9.216,36.864 21.504,75.776 12.288,37.888 24.576,70.656 23.552,66.56 59.392,133.12 35.84,65.536 67.584,110.592 11.264,14.336 22.528,27.648 11.264,13.312 22.528,26.624 l -41.984,57.344 q -18.432,-4.096 -49.152,-8.192 -29.696,-4.096 -65.536,-7.168 -34.816,-4.096 -69.632,-7.168 -34.816,-3.072 -62.464,-5.12 l 6.144,-68.608 q 28.672,2.048 60.416,5.12 32.768,3.072 61.44,6.144 29.696,2.048 48.128,4.096 -21.504,-32.768 -46.08,-74.752 -24.576,-43.008 -48.128,-90.112 -22.528,-48.128 -39.936,-94.208 -16.384,-45.056 -27.648,-79.872 -11.264,-34.816 -19.456,-58.368 z"
       id="flowRoot1" />
    <path
       style="font-size:1024px;line-height:1;font-family:'Noto Sans JP';fill:#b2f46b"
       d="m 319.488,581.632 q -22.528,36.864 -35.84,71.68 -12.288,33.792 -12.288,70.656 0,72.704 63.488,106.496 63.488,33.792 177.152,34.816 78.848,1.024 144.384,-6.144 66.56,-7.168 119.808,-19.456 l -4.096,81.92 q -47.104,8.192 -112.64,15.36 -65.536,7.168 -151.552,7.168 -97.28,-1.024 -168.96,-24.576 Q 268.288,896 229.376,849.92 190.464,802.816 190.464,733.184 q 0,-41.984 13.312,-82.944 14.336,-41.984 35.84,-87.04 z"
       id="path2" />
  </g>
  <g
     inkscape:label="Layer 1"
     inkscape:groupmode="layer"
     id="layer1">
    <path
       style="font-variation-settings:normal;opacity:1;vector-effect:none;fill:none;fill-opacity:1;stroke:#000000;stroke-width:128;stroke-linecap:butt;stroke-linejoin:miter;stroke-miterlimit:4;stroke-dasharray:none;stroke-dashoffset:0;stroke-opacity:1;-inkscape-stroke:none;stop-color:#000000;stop-opacity:1"
       d="m 154,309 322,7 409.57538,-49.7972"
       id="path3"
       clip-path="url(#clipPath9849)"
       sodipodi:nodetypes="ccc" />
    <path
       style="font-variation-settings:normal;opacity:1;vector-effect:none;fill:none;fill-opacity:1;stroke:#000000;stroke-width:128;stroke-linecap:butt;stroke-linejoin:miter;stroke-miterlimit:4;stroke-dasharray:none;stroke-dashoffset:0;stroke-opacity:1;-inkscape-stroke:none;stop-color:#000000;stop-opacity:1"
       d="M 562.857,73.539106 629.78088,322.9798 837.29412,637.55549 536.4083,612.23612"
       id="path4"
       sodipodi:nodetypes="cccc"
       clip-path="url(#clipPath5588)" />
    <path
       style="font-variation-settings:normal;opacity:1;vector-effect:none;fill:none;fill-opacity:1;stroke:#000000;stroke-width:128;stroke-linecap:butt;stroke-linejoin:miter;stroke-miterlimit:4;stroke-dasharray:none;stroke-dashoffset:0;stroke-opacity:1;-inkscape-stroke:none;stop-color:#000000;stop-opacity:1"
       d="m 263.39727,558.96791 -46.00178,135.70384 25.84924,119.20816 101.91392,84.60832 137.08817,17.21506 300.81328,-17.89088"
       id="path5"
       sodipodi:nodetypes="cccccc"
       clip-path="url(#clipPath9170)" />
  </g>
</svg>
