<?xml version="1.0" encoding="UTF-8" standalone="no"?>
<!-- Created with Inkscape (http://www.inkscape.org/) -->

<svg
   width="1024"
   height="1024"
   viewBox="0 0 1024 1024"
   version="2"
   id="svg82337"
   inkscape:version="1.3 (0e150ed6c4, 2023-07-21)"
   sodipodi:docname="ã—.svg"
   xmlns:inkscape="http://www.inkscape.org/namespaces/inkscape"
   xmlns:sodipodi="http://sodipodi.sourceforge.net/DTD/sodipodi-0.dtd"
   xmlns:xlink="http://www.w3.org/1999/xlink"
   xmlns="http://www.w3.org/2000/svg"
   xmlns:svg="http://www.w3.org/2000/svg">
  <sodipodi:namedview
     id="namedview82339"
     pagecolor="#ffffff"
     bordercolor="#999999"
     borderopacity="1"
     inkscape:pageshadow="0"
     inkscape:pageopacity="0"
     inkscape:pagecheckerboard="0"
     inkscape:document-units="px"
     showgrid="false"
     units="px"
     inkscape:zoom="0.70710678"
     inkscape:cx="732.56263"
     inkscape:cy="509.82399"
     inkscape:window-width="1920"
     inkscape:window-height="1111"
     inkscape:window-x="-9"
     inkscape:window-y="-9"
     inkscape:window-maximized="1"
     inkscape:current-layer="svg82337"
     viewbox-width="10.5832"
     scale-x="0.26458"
     inkscape:snap-global="true"
     inkscape:snap-bbox="false"
     inkscape:snap-page="true"
     inkscape:snap-midpoints="false"
     inkscape:object-paths="false"
     inkscape:snap-others="true"
     inkscape:snap-center="true"
     inkscape:bbox-nodes="false"
     inkscape:snap-nodes="true"
     inkscape:snap-grids="false"
     inkscape:showpageshadow="0"
     inkscape:deskcolor="#d1d1d1" />
  <defs
     id="defs82334">
    <clipPath
       id="clipPath202">
      <use
         id="clone8946"
         xlink:href="#flowRoot1" />
    </clipPath>
  </defs>
  <g
     inkscape:label="Layer 1"
     inkscape:groupmode="layer"
     id="layer1">
    <path
       style="font-size:1024px;line-height:1;font-family:'Noto Sans JP';fill:#f66d6d"
       d="m 348.16,103.424 q -4.096,25.6 -6.144,52.224 -2.048,25.6 -3.072,51.2 -2.048,43.008 -4.096,106.496 -2.048,63.488 -4.096,135.168 -2.048,70.656 -3.072,141.312 -1.024,70.656 -1.024,126.976 0,56.32 21.504,90.112 21.504,33.792 59.392,48.128 37.888,14.336 87.04,14.336 69.632,0 125.952,-17.408 56.32,-18.432 100.352,-48.128 44.032,-30.72 77.824,-68.608 34.816,-37.888 62.464,-77.824 l 58.368,69.632 q -26.624,36.864 -65.536,76.8 -37.888,38.912 -90.112,72.704 -52.224,33.792 -120.832,55.296 -67.584,21.504 -151.552,21.504 -72.704,0 -129.024,-22.528 -56.32,-22.528 -88.064,-72.704 -31.744,-50.176 -31.744,-133.12 0,-46.08 1.024,-101.376 1.024,-56.32 3.072,-115.712 2.048,-59.392 3.072,-115.712 1.024,-57.344 2.048,-105.472 1.024,-48.128 1.024,-79.872 0,-28.672 -2.048,-55.296 -2.048,-26.624 -6.144,-49.152 z"
       id="flowRoot1" />
  </g>
  <g
     id="g1">
    <path
       style="font-variation-settings:normal;opacity:1;vector-effect:none;fill:none;fill-opacity:1;stroke:#000000;stroke-width:128;stroke-linecap:butt;stroke-linejoin:miter;stroke-miterlimit:4;stroke-dasharray:none;stroke-dashoffset:0;stroke-opacity:1;-inkscape-stroke:none;stop-color:#000000;stop-opacity:1"
       d="M 286.80761,96.363961 267.68629,758.35682 307.13856,861.22688 419.64971,926.58579 598.88016,920.85281 767.2426,844.82597 907,696"
       id="path1"
       sodipodi:nodetypes="ccccccc"
       clip-path="url(#clipPath202)" />
  </g>
</svg>
