<?xml version="1.0" encoding="UTF-8" standalone="no"?>
<!-- Created with Inkscape (http://www.inkscape.org/) -->

<svg
   width="1024"
   height="1024"
   viewBox="0 0 1024 1024"
   version="2"
   id="svg82337"
   inkscape:version="1.3 (0e150ed6c4, 2023-07-21)"
   sodipodi:docname="ã¢.svg"
   xmlns:inkscape="http://www.inkscape.org/namespaces/inkscape"
   xmlns:sodipodi="http://sodipodi.sourceforge.net/DTD/sodipodi-0.dtd"
   xmlns:xlink="http://www.w3.org/1999/xlink"
   xmlns="http://www.w3.org/2000/svg"
   xmlns:svg="http://www.w3.org/2000/svg">
  <sodipodi:namedview
     id="namedview82339"
     pagecolor="#ffffff"
     bordercolor="#999999"
     borderopacity="1"
     inkscape:pageshadow="0"
     inkscape:pageopacity="0"
     inkscape:pagecheckerboard="0"
     inkscape:document-units="px"
     showgrid="false"
     units="px"
     inkscape:zoom="0.59040654"
     inkscape:cx="500.50258"
     inkscape:cy="480.17761"
     inkscape:window-width="1920"
     inkscape:window-height="1111"
     inkscape:window-x="-9"
     inkscape:window-y="-9"
     inkscape:window-maximized="1"
     inkscape:current-layer="g4"
     viewbox-width="10.5832"
     scale-x="0.26458"
     inkscape:snap-global="true"
     inkscape:snap-bbox="false"
     inkscape:snap-page="true"
     inkscape:snap-midpoints="false"
     inkscape:object-paths="false"
     inkscape:snap-others="true"
     inkscape:snap-center="true"
     inkscape:bbox-nodes="false"
     inkscape:snap-nodes="true"
     inkscape:snap-grids="false"
     inkscape:showpageshadow="0"
     inkscape:deskcolor="#d1d1d1" />
  <defs
     id="defs82334">
    <clipPath
       id="clipPath8841">
      <use
         id="clone6892"
         xlink:href="#flowRoot1" />
    </clipPath>
    <clipPath
       id="clipPath8259">
      <use
         id="clone9259"
         xlink:href="#path3" />
    </clipPath>
    <clipPath
       id="clipPath3988">
      <use
         id="clone4669"
         xlink:href="#path2" />
    </clipPath>
    <clipPath
       id="clipPath524">
      <use
         id="clone771"
         xlink:href="#path1" />
    </clipPath>
  </defs>
  <g
     id="g3">
    <path
       style="font-weight:600;font-size:1024px;line-height:1;font-family:'Klee One';fill:#f66d6d"
       d="m 657.408,318.464 v -1.024 c -0.68267,-9.55733 -7.85067,-17.74933 -21.504,-24.576 -12.97067,-6.82667 -24.91733,-10.24 -35.84,-10.24 -0.68267,0 -1.70667,0.34133 -3.072,1.024 h -3.072 c -4.096,0.68267 -7.85067,1.70667 -11.264,3.072 -2.73067,0.68267 -6.144,2.38933 -10.24,5.12 -8.87467,5.46133 -28.33067,11.60533 -58.368,18.432 -30.03733,6.82667 -63.14667,13.312 -99.328,19.456 l -63.488,10.24 c -31.40267,4.77867 -60.416,9.216 -87.04,13.312 -26.624,3.41333 -41.984,5.12 -46.08,5.12 h -10.24 c -3.41333,-0.68267 -7.50933,-1.36533 -12.288,-2.048 -2.73067,-0.68267 -5.80267,-1.36533 -9.216,-2.048 -3.41333,-1.36533 -6.82667,-2.048 -10.24,-2.048 -4.096,0 -6.82667,0.68267 -8.192,2.048 -0.68267,1.36533 -1.024,2.73067 -1.024,4.096 0,4.77867 3.072,11.60533 9.216,20.48 6.144,8.87467 13.99467,17.06667 23.552,24.576 9.55733,7.50933 19.11467,11.264 28.672,11.264 h 12.288 c 4.77867,-0.68267 14.336,-2.38933 28.672,-5.12 15.01867,-2.73067 39.936,-6.82667 74.752,-12.288 l 62.464,-10.24 c 58.02667,-10.92267 103.76533,-19.456 137.216,-25.6 34.13333,-6.82667 59.05067,-12.288 74.752,-16.384 16.384,-4.77867 26.96533,-9.216 31.744,-13.312 4.77867,-4.096 7.168,-8.53333 7.168,-13.312 z"
       id="flowRoot1"
       sodipodi:nodetypes="sccsccccscccscccscssssccccccss" />
    <path
       style="font-weight:600;font-size:1024px;line-height:1;font-family:'Klee One';fill:#f5d36c;fill-opacity:1"
       d="m 414.72,329.728 c 5.46133,-36.864 10.92267,-69.632 16.384,-98.304 5.46133,-29.35467 9.55733,-50.51733 12.288,-63.488 0.68267,-2.048 1.024,-4.096 1.024,-6.144 0.68267,-2.048 1.024,-4.096 1.024,-6.144 0,-11.60533 -5.12,-20.13867 -15.36,-25.6 -9.55733,-6.144 -19.456,-10.24 -29.696,-12.288 -10.24,-2.048 -16.72533,-3.072 -19.456,-3.072 -6.82667,0 -11.264,1.70667 -13.312,5.12 0,0.68267 -0.34133,1.36533 -1.024,2.048 v 1.024 c 0,2.73067 1.36533,5.80267 4.096,9.216 2.73067,2.73067 4.77867,5.80267 6.144,9.216 2.048,4.096 3.072,9.216 3.072,15.36 v 4.096 c -3.41333,18.432 -7.85067,43.69067 -13.312,75.776 -4.77867,31.40267 -9.89867,65.87733 -15.36,103.424 l -7.168,57.344 c -4.77867,36.864 -9.55733,73.38667 -14.336,109.568 -4.096,35.49867 -7.85067,67.92533 -11.264,97.28 -2.73067,28.672 -4.77867,51.54133 -6.144,68.608 0,3.41333 -0.34133,7.168 -1.024,11.264 -0.68267,4.096 -1.024,8.192 -1.024,12.288 0,17.06667 5.46133,28.33067 16.384,33.792 10.92267,4.77867 18.77333,7.168 23.552,7.168 6.82667,0 14.67733,-3.072 23.552,-9.216 17.74933,-13.65333 37.20533,-29.01333 58.368,-46.08 21.84533,-17.06667 47.78667,-32.768 77.824,-47.104 30.03733,-15.01867 65.536,-24.91733 106.496,-29.696 5.46133,-0.68267 10.92267,-1.024 16.384,-1.024 5.46133,-0.68267 10.58133,-1.024 15.36,-1.024 30.72,0 57.00267,5.80267 78.848,17.408 22.528,11.60533 34.816,29.01333 36.864,52.224 v 6.144 c 0.68267,1.36533 1.024,3.072 1.024,5.12 0,31.40267 -10.92267,59.392 -32.768,83.968 -21.16267,24.576 -48.81067,46.08 -82.944,64.512 -34.13333,18.432 -69.97333,34.47467 -107.52,48.128 -37.54667,13.65333 -72.704,25.25867 -105.472,34.816 -18.432,6.144 -27.648,12.288 -27.648,18.432 v 2.048 c 0.68267,0.68267 1.024,1.36533 1.024,2.048 0.68267,4.096 5.12,6.144 13.312,6.144 4.096,0 16.72533,-1.70667 37.888,-5.12 21.84533,-2.73067 48.46933,-7.85067 79.872,-15.36 31.40267,-6.82667 64.17067,-16.384 98.304,-28.672 34.13333,-12.288 65.87733,-27.648 95.232,-46.08 30.03733,-18.432 54.272,-40.27733 72.704,-65.536 19.11467,-25.94133 28.672,-55.97867 28.672,-90.112 0,-10.24 -1.024,-21.504 -3.072,-33.792 -7.50933,-36.18133 -27.648,-63.488 -60.416,-81.92 -32.08533,-19.11467 -70.656,-28.672 -115.712,-28.672 -47.78667,0 -95.57333,9.216 -143.36,27.648 -47.78667,18.432 -94.208,44.032 -139.264,76.8 1.36533,-19.11467 3.75467,-43.008 7.168,-71.68 3.41333,-29.35467 7.168,-60.75733 11.264,-94.208 l 14.336,-100.352 z"
       id="path3"
       sodipodi:nodetypes="ccccscssccsccscccccccsscscccccscccscsscsccsccsccsccssccccc" />
    <path
       style="font-weight:600;font-size:1024px;line-height:1;font-family:'Klee One';fill:#b2f46b"
       d="m 808.96,326.656 q 14.336,0 20.48,-7.168 6.144,-7.168 7.168,-14.336 1.024,-7.168 1.024,-8.192 0,-11.264 -15.36,-28.672 -15.36,-17.408 -36.864,-34.816 -20.48,-17.408 -36.864,-29.696 -16.384,-12.288 -18.432,-13.312 -6.144,-3.072 -12.288,-3.072 -10.24,0 -18.432,8.192 -8.192,8.192 -8.192,18.432 0,9.216 9.216,17.408 17.408,13.312 39.936,36.864 22.528,22.528 48.128,50.176 7.168,8.192 20.48,8.192 z"
       id="path2" />
    <path
       style="font-weight:600;font-size:1024px;line-height:1;font-family:'Klee One';fill:#6af387"
       d="m 880.64,268.288 q 15.36,0 22.528,-11.264 7.168,-11.264 7.168,-20.48 0,-6.144 -6.144,-15.36 -5.12,-10.24 -28.672,-29.696 -22.528,-20.48 -73.728,-56.32 -8.192,-4.096 -11.264,-4.096 -10.24,0 -18.432,9.216 -8.192,8.192 -8.192,17.408 0,9.216 8.192,15.36 11.264,8.192 29.696,25.6 18.432,16.384 35.84,33.792 17.408,17.408 25.6,26.624 9.216,9.216 17.408,9.216 z"
       id="path1" />
  </g>
  <g
     id="g4">
    <path
       style="font-variation-settings:normal;opacity:1;vector-effect:none;fill:none;fill-opacity:1;stroke:#000000;stroke-width:128;stroke-linecap:round;stroke-linejoin:miter;stroke-miterlimit:4;stroke-dasharray:none;stroke-dashoffset:0;stroke-opacity:1;-inkscape-stroke:none;stop-color:#000000;stop-opacity:1"
       d="M 101.18622,356.81781 605.16069,343.42042"
       id="path4"
       sodipodi:nodetypes="cc"
       clip-path="url(#clipPath8841)" />
    <path
       style="font-variation-settings:normal;opacity:1;vector-effect:none;fill:none;fill-opacity:1;stroke:#000000;stroke-width:128;stroke-linecap:round;stroke-linejoin:miter;stroke-miterlimit:4;stroke-dasharray:none;stroke-dashoffset:0;stroke-opacity:1;-inkscape-stroke:none;stop-color:#000000;stop-opacity:1"
       d="M 319.69497,69.443675 C 499.33733,165.32295 301.62731,537.18405 302.33404,711.37424 697.46331,476.25764 802.82436,600.40963 792.67415,707.98673 782.52393,815.56383 642.67019,900.23023 469.16824,925.63337"
       id="path5"
       sodipodi:nodetypes="cczc"
       clip-path="url(#clipPath8259)" />
    <path
       style="font-variation-settings:normal;opacity:1;vector-effect:none;fill:none;fill-opacity:1;stroke:#000000;stroke-width:128;stroke-linecap:round;stroke-linejoin:miter;stroke-miterlimit:4;stroke-dasharray:none;stroke-dashoffset:0;stroke-opacity:1;-inkscape-stroke:none;stop-color:#000000;stop-opacity:1"
       d="M 642.77743,158.36545 784.2054,276.92783"
       id="path6"
       sodipodi:nodetypes="cc"
       clip-path="url(#clipPath3988)" />
    <path
       style="font-variation-settings:normal;opacity:1;vector-effect:none;fill:none;fill-opacity:1;stroke:#000000;stroke-width:128;stroke-linecap:round;stroke-linejoin:miter;stroke-miterlimit:4;stroke-dasharray:none;stroke-dashoffset:0;stroke-opacity:1;-inkscape-stroke:none;stop-color:#000000;stop-opacity:1"
       d="M 724.58479,94.615204 858.72281,215.57894"
       id="path7"
       sodipodi:nodetypes="cc"
       clip-path="url(#clipPath524)" />
  </g>
</svg>
