<?xml version="1.0" encoding="UTF-8" standalone="no"?>
<!-- Created with Inkscape (http://www.inkscape.org/) -->

<svg
   width="1024"
   height="1024"
   viewBox="0 0 1024 1024"
   version="2"
   id="svg82337"
   inkscape:version="1.3 (0e150ed6c4, 2023-07-21)"
   sodipodi:docname="ã¨.svg"
   xmlns:inkscape="http://www.inkscape.org/namespaces/inkscape"
   xmlns:sodipodi="http://sodipodi.sourceforge.net/DTD/sodipodi-0.dtd"
   xmlns:xlink="http://www.w3.org/1999/xlink"
   xmlns="http://www.w3.org/2000/svg"
   xmlns:svg="http://www.w3.org/2000/svg">
  <sodipodi:namedview
     id="namedview82339"
     pagecolor="#ffffff"
     bordercolor="#999999"
     borderopacity="1"
     inkscape:pageshadow="0"
     inkscape:pageopacity="0"
     inkscape:pagecheckerboard="0"
     inkscape:document-units="px"
     showgrid="false"
     units="px"
     inkscape:zoom="0.59040654"
     inkscape:cx="400.57144"
     inkscape:cy="437.8339"
     inkscape:window-width="1920"
     inkscape:window-height="1111"
     inkscape:window-x="-9"
     inkscape:window-y="-9"
     inkscape:window-maximized="1"
     inkscape:current-layer="svg82337"
     viewbox-width="10.5832"
     scale-x="0.26458"
     inkscape:snap-global="true"
     inkscape:snap-bbox="false"
     inkscape:snap-page="true"
     inkscape:snap-midpoints="false"
     inkscape:object-paths="false"
     inkscape:snap-others="true"
     inkscape:snap-center="true"
     inkscape:bbox-nodes="false"
     inkscape:snap-nodes="true"
     inkscape:snap-grids="false"
     inkscape:showpageshadow="0"
     inkscape:deskcolor="#d1d1d1" />
  <defs
     id="defs82334">
    <clipPath
       id="clipPath8469">
      <use
         id="clone8889"
         xlink:href="#flowRoot1" />
    </clipPath>
    <clipPath
       id="clipPath5234">
      <use
         id="clone6245"
         xlink:href="#path3" />
    </clipPath>
  </defs>
  <g
     id="g3">
    <path
       style="font-weight:600;font-size:1024px;line-height:1;font-family:'Klee One';display:inline;fill:#f66d6d"
       d="m 510.976,470.016 c -11.60533,-22.528 -23.21067,-50.176 -34.816,-82.944 -11.60533,-33.45067 -22.86933,-67.584 -33.792,-102.4 -10.24,-35.49867 -19.79733,-66.90133 -28.672,-94.208 -3.41333,-12.97067 -8.87467,-20.48 -16.384,-22.528 -6.82667,-2.048 -16.04267,-3.41333 -27.648,-4.096 -12.288,0 -22.86933,1.024 -31.744,3.072 -8.87467,1.36533 -14.336,4.77867 -16.384,10.24 0,0.68267 -0.34133,1.36533 -1.024,2.048 v 1.024 c 0,3.41333 2.38933,6.48533 7.168,9.216 4.77867,2.048 8.53333,4.77867 11.264,8.192 2.048,2.048 4.77867,5.46133 8.192,10.24 3.41333,4.096 5.46133,7.85067 6.144,11.264 9.55733,28.672 19.456,59.73333 29.696,93.184 10.24,33.45067 21.16267,66.56 32.768,99.328 11.60533,32.768 24.23467,63.14667 37.888,91.136 13.94073,29.81766 74.77336,5.04725 57.344,-32.768 z"
       id="flowRoot1"
       sodipodi:nodetypes="cccccccccsccccsscc" />
    <path
       style="font-weight:600;font-size:1024px;line-height:1;font-family:'Klee One';display:inline;fill:#f5d36c;fill-opacity:1"
       d="m 761.856,805.888 -14.336,3.072 c -15.01867,6.144 -36.52267,11.264 -64.512,15.36 -27.30667,3.41333 -55.97867,5.80267 -86.016,7.168 -30.03733,1.36533 -55.63733,2.048 -76.8,2.048 h -19.456 c -6.144,-0.68267 -10.92267,-1.024 -14.336,-1.024 -49.152,-3.41333 -89.42933,-12.288 -120.832,-26.624 -31.40267,-14.336 -47.78667,-36.52267 -49.152,-66.56 v -2.048 c 0,-23.89333 9.55733,-47.78667 28.672,-71.68 19.79733,-24.576 45.39733,-48.128 76.8,-70.656 31.40267,-22.528 65.19467,-43.34933 101.376,-62.464 36.864,-19.11467 72.704,-35.84 107.52,-50.176 35.49867,-14.336 66.21867,-25.25867 92.16,-32.768 20.48,-5.46133 33.792,-9.89867 39.936,-13.312 6.144,-4.096 9.216,-11.264 9.216,-21.504 0,-6.82667 -1.70667,-15.70133 -5.12,-26.624 -2.73067,-10.92267 -6.82667,-20.82133 -12.288,-29.696 -4.77867,-8.87467 -9.89867,-13.312 -15.36,-13.312 h -2.048 c -5.46133,2.048 -9.55733,7.50933 -12.288,16.384 -2.048,8.192 -6.82667,13.99467 -14.336,17.408 -36.864,15.01867 -70.99733,29.35467 -102.4,43.008 -30.72,12.97067 -63.14667,29.01333 -97.28,48.128 l -57.344,32.768 C 417.45067,523.94667 384,547.49867 353.28,573.44 c -30.72,25.94133 -55.63733,53.248 -74.752,81.92 -18.432,27.98933 -27.648,56.66133 -27.648,86.016 v 3.072 c 1.36533,38.22933 14.336,68.94933 38.912,92.16 24.576,22.528 58.70933,38.912 102.4,49.152 43.69067,10.24 94.89067,15.36 153.6,15.36 27.30667,0 55.97867,-0.68267 86.016,-2.048 30.72,-2.048 59.392,-4.77867 86.016,-8.192 27.30667,-3.41333 48.81067,-7.168 64.512,-11.264 23.89333,-6.82667 35.84,-16.72533 35.84,-29.696 0,-11.60533 -5.46133,-21.84533 -16.384,-30.72 -10.92267,-8.87467 -24.23467,-13.312 -39.936,-13.312 z"
       id="path3"
       sodipodi:nodetypes="cccssccscscsccccsccsccccccscsccsscccssc" />
  </g>
  <g
     id="g4">
    <path
       style="font-variation-settings:normal;opacity:1;vector-effect:none;fill:none;fill-opacity:1;stroke:#000000;stroke-width:128;stroke-linecap:round;stroke-linejoin:miter;stroke-miterlimit:4;stroke-dasharray:none;stroke-dashoffset:0;stroke-opacity:1;-inkscape-stroke:none;stop-color:#000000;stop-opacity:1"
       d="m 282.00907,121.94986 c 101.08936,69.53905 201.34021,332.21967 201.34021,332.21967"
       id="path4"
       sodipodi:nodetypes="cc"
       clip-path="url(#clipPath8469)" />
    <path
       style="font-variation-settings:normal;display:inline;opacity:1;vector-effect:none;fill:none;fill-opacity:1;stroke:#000000;stroke-width:128;stroke-linecap:round;stroke-linejoin:miter;stroke-miterlimit:4;stroke-dasharray:none;stroke-dashoffset:0;stroke-opacity:1;-inkscape-stroke:none;stop-color:#000000;stop-opacity:1"
       d="M 758.26481,281.23547 C 776.45841,536.94008 325.49219,509.09816 301.40206,717.37714 279.73114,904.74008 760.49293,863.81157 760.49293,863.81157"
       id="path5"
       sodipodi:nodetypes="csc"
       clip-path="url(#clipPath5234)" />
  </g>
</svg>
