<?xml version="1.0" encoding="UTF-8" standalone="no"?>
<!-- Created with Inkscape (http://www.inkscape.org/) -->

<svg
   width="1024"
   height="1024"
   viewBox="0 0 1024 1024"
   version="2"
   id="svg82337"
   inkscape:version="1.3 (0e150ed6c4, 2023-07-21)"
   sodipodi:docname="ãª.svg"
   xmlns:inkscape="http://www.inkscape.org/namespaces/inkscape"
   xmlns:sodipodi="http://sodipodi.sourceforge.net/DTD/sodipodi-0.dtd"
   xmlns:xlink="http://www.w3.org/1999/xlink"
   xmlns="http://www.w3.org/2000/svg"
   xmlns:svg="http://www.w3.org/2000/svg">
  <sodipodi:namedview
     id="namedview82339"
     pagecolor="#ffffff"
     bordercolor="#999999"
     borderopacity="1"
     inkscape:pageshadow="0"
     inkscape:pageopacity="0"
     inkscape:pagecheckerboard="0"
     inkscape:document-units="px"
     showgrid="false"
     units="px"
     inkscape:zoom="0.29520327"
     inkscape:cx="328.58715"
     inkscape:cy="794.36789"
     inkscape:window-width="1920"
     inkscape:window-height="1111"
     inkscape:window-x="-9"
     inkscape:window-y="-9"
     inkscape:window-maximized="1"
     inkscape:current-layer="svg82337"
     viewbox-width="10.5832"
     scale-x="0.26458"
     inkscape:snap-global="true"
     inkscape:snap-bbox="false"
     inkscape:snap-page="true"
     inkscape:snap-midpoints="false"
     inkscape:object-paths="false"
     inkscape:snap-others="true"
     inkscape:snap-center="true"
     inkscape:bbox-nodes="false"
     inkscape:snap-nodes="true"
     inkscape:snap-grids="false"
     inkscape:showpageshadow="0"
     inkscape:deskcolor="#d1d1d1" />
  <defs
     id="defs82334">
    <clipPath
       id="clipPath6569">
      <use
         id="clone5545"
         xlink:href="#flowRoot1" />
    </clipPath>
    <clipPath
       id="clipPath3147">
      <use
         id="clone3323"
         xlink:href="#path4" />
    </clipPath>
    <clipPath
       id="clipPath8256">
      <use
         id="clone8475"
         xlink:href="#path1" />
    </clipPath>
    <clipPath
       id="clipPath8970">
      <use
         id="clone3202"
         xlink:href="#path9" />
    </clipPath>
    <clipPath
       id="clipPath2033">
      <use
         id="clone4991"
         xlink:href="#path10" />
    </clipPath>
  </defs>
  <g
     id="g4"
     clip-path="none">
    <path
       style="font-weight:600;font-size:1024px;line-height:1;font-family:'Klee One';fill:#f66d6d;fill-opacity:1"
       d="m 375.808,285.696 c -29.35467,6.144 -59.05067,11.60533 -89.088,16.384 -29.35467,4.096 -55.97867,7.50933 -79.872,10.24 -2.048,0 -4.77867,0.34133 -8.192,1.024 h -9.216 -9.216 l -10.24,-2.048 c -4.096,-1.36533 -7.85067,-2.38933 -11.264,-3.072 -3.41333,-1.36533 -6.82667,-2.048 -10.24,-2.048 -6.82667,0 -10.24,2.048 -10.24,6.144 0,6.144 3.072,13.65333 9.216,22.528 6.82667,8.87467 15.01867,17.06667 24.576,24.576 9.55733,6.82667 19.11467,10.24 28.672,10.24 5.46133,0 22.528,-2.048 51.2,-6.144 28.672,-4.77867 62.80533,-10.92267 102.4,-18.432 l 70.656,-13.312 c 62.12267,-12.288 107.86133,-22.86933 137.216,-31.744 29.35467,-9.55733 44.032,-19.456 44.032,-29.696 0,-6.144 -3.75467,-13.312 -11.264,-21.504 -7.50933,-8.87467 -22.528,-13.312 -45.056,-13.312 -4.096,0 -8.192,1.36533 -12.288,4.096 -4.096,2.73067 -8.192,4.77867 -12.288,6.144 -10.24,4.096 -22.18667,8.192 -35.84,12.288 -12.97067,3.41333 -27.30667,7.168 -43.008,11.264 z"
       id="flowRoot1"
       sodipodi:nodetypes="ccccccccssccsccccscsscccc" />
    <path
       style="font-weight:600;font-size:1024px;line-height:1;font-family:'Klee One';fill:#f5d36c"
       d="m 413.696,143.36 v 7.168 c 0,1.36533 -1.024,6.144 -3.072,14.336 -1.36533,8.192 -4.77867,21.84533 -10.24,40.96 -4.77867,19.11467 -12.97067,45.73867 -24.576,79.872 l -21.504,59.392 c -17.74933,49.152 -37.888,95.57333 -60.416,139.264 -21.84533,43.69067 -45.73867,84.30933 -71.68,121.856 -6.82667,9.55733 -12.97067,17.06667 -18.432,22.528 -4.77867,4.77867 -8.87467,9.89867 -12.288,15.36 -4.77867,7.50933 -7.168,16.04267 -7.168,25.6 0,10.92267 3.072,20.82133 9.216,29.696 6.82667,8.192 15.01867,12.288 24.576,12.288 5.46133,0 11.264,-2.048 17.408,-6.144 6.144,-4.096 12.288,-10.58133 18.432,-19.456 38.22933,-60.75733 70.99733,-120.49067 98.304,-179.2 27.30667,-58.70933 51.54133,-117.07733 72.704,-175.104 l 21.504,-62.464 c 11.60533,-35.49867 19.79733,-61.09867 24.576,-76.8 5.46133,-15.70133 8.53333,-25.94133 9.216,-30.72 1.36533,-4.77867 2.048,-8.192 2.048,-10.24 0,-10.24 -4.77867,-18.09067 -14.336,-23.552 -9.55733,-5.46133 -19.456,-9.216 -29.696,-11.264 -10.24,-2.048 -16.72533,-3.072 -19.456,-3.072 -6.144,0 -9.89867,1.70667 -11.264,5.12 -0.68267,0.68267 -1.024,2.048 -1.024,4.096 0,2.73067 1.024,5.80267 3.072,9.216 2.048,3.41333 3.41333,7.168 4.096,11.264 z"
       id="path4"
       sodipodi:nodetypes="csccccccscscsscsccccsssscssc" />
    <path
       style="font-weight:600;font-size:1024px;line-height:1;font-family:'Klee One';fill:#69f2ea"
       d="m 811.008,413.696 q -9.216,3.072 -22.528,5.12 -13.312,2.048 -20.48,4.096 -10.24,1.024 -19.456,6.144 -9.216,4.096 -9.216,9.216 0,8.192 16.384,14.336 17.408,5.12 40.96,8.192 24.576,2.048 47.104,2.048 21.504,0 35.84,-5.12 15.36,-5.12 15.36,-26.624 0,-19.456 -27.648,-48.128 -27.648,-28.672 -69.632,-58.368 -40.96,-30.72 -83.968,-52.224 -4.096,-2.048 -7.168,-3.072 -3.072,-1.024 -7.168,-1.024 -10.24,0 -20.48,10.24 -7.168,9.216 -7.168,15.36 0,9.216 11.264,16.384 38.912,22.528 68.608,46.08 30.72,23.552 59.392,57.344 z"
       id="path1" />
    <g
       id="g10">
      <path
         id="path9"
         style="font-weight:600;font-size:1024px;line-height:1;font-family:'Klee One';fill:#e85eea;fill-opacity:1"
         d="m 615.42383,466.94336 c -6.144,0 -10.92261,5.46213 -14.33594,16.38476 -2.73066,10.23998 -4.7792,23.89236 -6.14453,40.95899 -0.68267,16.38396 -1.02344,33.79265 -1.02344,52.22461 v 52.22461 40.95898 c 0.68267,16.38398 1.02344,32.4276 1.02344,48.12891 v 23.55273 l -6.14258,58.36719 c -7.50931,23.21062 -22.18791,40.6193 -44.0332,52.22461 -21.16263,11.60531 -44.71497,17.4082 -70.65625,17.4082 -11.60531,-0.68266 -24.57615,-2.39043 -38.91211,-5.12109 -13.65331,-2.73066 -25.59988,-7.16852 -35.83984,-13.3125 C 389.1194,844.11671 384,834.55946 384,822.27148 c 0.64105,-14.47058 -57.87802,-17.20502 -58.36719,-2.04687 v 4.0957 c 0.68267,15.01864 6.14285,30.71954 16.38281,47.10352 10.92265,15.7013 27.30706,29.0129 49.15235,39.93555 21.84529,11.6053 49.83548,18.09169 83.96875,19.45703 h 11.26367 c 32.76794,0 60.4154,-5.8029 82.94336,-17.40821 22.52796,-11.60531 40.2774,-25.60041 53.24805,-41.98437 12.97063,-17.06663 21.84633,-33.10832 26.625,-48.12695 4.79382,-17.38659 5.81406,-39.96192 6.14258,-63.48829 0,-29.3546 -1.36504,-63.48847 -4.09571,-102.40039 -2.048,-39.59458 -6.48584,-91.13712 -13.3125,-154.625 -0.68266,-10.23998 -3.41275,-18.77295 -8.1914,-25.59961 -4.096,-6.82665 -8.87462,-10.24023 -14.33594,-10.24023 z"
         sodipodi:nodetypes="sccsccsccccccccccccssccccccs" />
      <path
         id="path10"
         style="font-weight:600;font-size:1024px;line-height:1;font-family:'Klee One';fill:#a75eea;fill-opacity:1"
         d="m 472.06445,727.03906 c -44.37324,0 -79.87215,8.87571 -106.49609,26.625 -26.62394,17.06664 -39.93555,39.25394 -39.93555,66.56055 0.3375,23.798 58.77978,18.40995 58.36719,2.04687 0,-11.6053 5.1194,-20.47906 15.35938,-26.62304 10.23996,-6.144 22.87003,-10.24108 37.88867,-12.28906 15.01863,-2.048 29.69527,-3.07227 44.03125,-3.07227 18.43196,0.68267 37.20568,3.07197 56.32031,7.16797 19.11463,3.41332 36.18254,7.51041 51.20117,12.28906 21.57214,5.55737 41.66665,13.47894 60.41602,23.55274 21.84529,10.92263 43.00638,24.23424 63.48632,39.93554 20.47996,15.01864 37.2071,30.03605 50.17774,45.05469 8.87465,9.55731 17.7484,14.33594 26.62305,14.33594 9.55731,0 17.06602,-4.4359 22.52734,-13.31055 6.14398,-8.87465 9.2168,-18.4319 9.2168,-28.67188 0,-10.92263 -3.41358,-19.79834 -10.24024,-26.625 -9.55731,-8.87464 -22.86891,-19.11344 -39.93554,-30.71874 -16.38398,-11.60532 -34.81692,-22.87033 -55.29688,-33.79297 -20.47996,-11.60532 -40.61872,-21.50332 -60.41601,-29.69532 -29.35803,-10.33541 -30.41221,-10.63654 -60.41602,-18.43164 -16.38396,-4.09598 -33.44992,-7.16881 -51.19922,-9.21679 -17.74929,-2.73067 -37.20456,-4.43843 -58.36719,-5.1211 z"
         sodipodi:nodetypes="scccssccccccscscccccccs" />
    </g>
  </g>
  <g
     id="g5"
     style="display:inline">
    <path
       style="font-variation-settings:normal;opacity:1;vector-effect:none;fill:none;fill-opacity:1;stroke:#000000;stroke-width:128;stroke-linecap:round;stroke-linejoin:miter;stroke-miterlimit:4;stroke-dasharray:none;stroke-dashoffset:0;stroke-opacity:1;-inkscape-stroke:none;stop-color:#000000;stop-opacity:1"
       d="M 72.245692,312.11831 553.46032,293.07611"
       id="path5"
       sodipodi:nodetypes="cc"
       clip-path="url(#clipPath6569)" />
    <path
       style="font-variation-settings:normal;opacity:1;vector-effect:none;fill:none;fill-opacity:1;stroke:#000000;stroke-width:128;stroke-linecap:round;stroke-linejoin:miter;stroke-miterlimit:4;stroke-dasharray:none;stroke-dashoffset:0;stroke-opacity:1;-inkscape-stroke:none;stop-color:#000000;stop-opacity:1"
       d="M 386.37125,53.507182 C 545.12275,124.8793 242.20599,667.33677 242.20599,667.33677"
       id="path6"
       sodipodi:nodetypes="cc"
       clip-path="url(#clipPath3147)" />
    <path
       style="font-variation-settings:normal;opacity:1;vector-effect:none;fill:none;fill-opacity:1;stroke:#000000;stroke-width:128;stroke-linecap:round;stroke-linejoin:miter;stroke-miterlimit:4;stroke-dasharray:none;stroke-dashoffset:0;stroke-opacity:1;-inkscape-stroke:none;stop-color:#000000;stop-opacity:1"
       d="m 635.95789,223.96257 250.90995,162.28304 -87.6568,41.84627"
       id="path12"
       sodipodi:nodetypes="ccc"
       clip-path="url(#clipPath8256)" />
    <g
       id="g11">
      <path
         style="font-variation-settings:normal;opacity:1;vector-effect:none;fill:none;fill-opacity:1;stroke:#000000;stroke-width:128;stroke-linecap:round;stroke-linejoin:miter;stroke-miterlimit:4;stroke-dasharray:none;stroke-dashoffset:0;stroke-opacity:1;-inkscape-stroke:none;stop-color:#000000;stop-opacity:1"
         d="m 615.59766,398.82105 c 114.83656,498.51001 -110.28077,503.16721 -110.28077,503.16721 0,0 -64.44487,5.02556 -107.6935,-12.12628 -85.433,-33.88161 -23.95321,-291.03158 394.03041,-27.54619"
         id="path7"
         sodipodi:nodetypes="ccsc"
         clip-path="url(#clipPath8970)" />
      <path
         style="font-variation-settings:normal;opacity:1;vector-effect:none;fill:none;fill-opacity:1;stroke:#000000;stroke-width:128;stroke-linecap:round;stroke-linejoin:miter;stroke-miterlimit:4;stroke-dasharray:none;stroke-dashoffset:0;stroke-opacity:1;-inkscape-stroke:none;stop-color:#000000;stop-opacity:1"
         d="M 505.317,1472.63 V 901.98826 c 0,0 -64.44498,5.02556 -107.69361,-12.12628 -85.433,-33.88161 -23.95321,-291.03158 394.03041,-27.54619"
         id="path11"
         sodipodi:nodetypes="ccsc"
         clip-path="url(#clipPath2033)" />
    </g>
  </g>
</svg>
