<?xml version="1.0" encoding="UTF-8" standalone="no"?>
<!-- Created with Inkscape (http://www.inkscape.org/) -->

<svg
   width="1024"
   height="1024"
   viewBox="0 0 1024 1024"
   version="2"
   id="svg82337"
   inkscape:version="1.3 (0e150ed6c4, 2023-07-21)"
   sodipodi:docname="ã¬.svg"
   xmlns:inkscape="http://www.inkscape.org/namespaces/inkscape"
   xmlns:sodipodi="http://sodipodi.sourceforge.net/DTD/sodipodi-0.dtd"
   xmlns:xlink="http://www.w3.org/1999/xlink"
   xmlns="http://www.w3.org/2000/svg"
   xmlns:svg="http://www.w3.org/2000/svg">
  <sodipodi:namedview
     id="namedview82339"
     pagecolor="#ffffff"
     bordercolor="#999999"
     borderopacity="1"
     inkscape:pageshadow="0"
     inkscape:pageopacity="0"
     inkscape:pagecheckerboard="0"
     inkscape:document-units="px"
     showgrid="false"
     units="px"
     inkscape:zoom="0.29520327"
     inkscape:cx="279.46845"
     inkscape:cy="645.31805"
     inkscape:window-width="1920"
     inkscape:window-height="1111"
     inkscape:window-x="-9"
     inkscape:window-y="-9"
     inkscape:window-maximized="1"
     inkscape:current-layer="g5"
     viewbox-width="10.5832"
     scale-x="0.26458"
     inkscape:snap-global="true"
     inkscape:snap-bbox="false"
     inkscape:snap-page="true"
     inkscape:snap-midpoints="false"
     inkscape:object-paths="false"
     inkscape:snap-others="true"
     inkscape:snap-center="true"
     inkscape:bbox-nodes="false"
     inkscape:snap-nodes="true"
     inkscape:snap-grids="false"
     inkscape:showpageshadow="0"
     inkscape:deskcolor="#d1d1d1" />
  <defs
     id="defs82334">
    <clipPath
       id="clipPath7451">
      <use
         id="clone9451"
         xlink:href="#path1" />
    </clipPath>
    <clipPath
       id="clipPath2361">
      <use
         id="clone609"
         xlink:href="#path3" />
    </clipPath>
    <clipPath
       id="clipPath2685">
      <use
         id="clone5400"
         xlink:href="#path2" />
    </clipPath>
    <clipPath
       id="clipPath9549">
      <use
         id="clone7835"
         xlink:href="#flowRoot1" />
    </clipPath>
  </defs>
  <g
     id="g4">
    <path
       id="path1"
       style="font-weight:600;font-size:1024px;line-height:1;font-family:'Klee One';display:inline;fill:#f66d6d;fill-opacity:1"
       d="m 235.51953,243.71289 c -12.28795,0 -18.77241,2.38931 -19.45508,7.16797 v 2.04687 c 0,2.73067 1.36504,5.46075 4.09571,8.19141 3.41329,2.73066 6.48617,5.4627 9.21679,8.19336 7.50933,8.19195 11.60445,17.06576 12.28711,26.62305 4.096,30.03718 8.53388,59.73337 13.3125,89.08789 5.46133,28.67185 10.58072,55.97873 15.35938,81.91992 l 14.33594,66.56055 c 13.65325,58.70909 27.98919,110.59263 43.00781,155.64843 l 23.55273,63.48828 c 12.28795,31.40252 22.18603,53.24721 29.69531,65.53516 8.192,11.60528 17.40849,17.4082 27.64844,17.4082 9.55729,0 16.72525,-4.77865 21.50391,-14.33593 5.46129,-10.23995 8.1914,-19.45649 8.1914,-27.64844 0,-6.82662 -1.70581,-12.97035 -5.11914,-18.43164 -2.73062,-5.46133 -6.82773,-11.94579 -12.28906,-19.45508 -4.77862,-7.50929 -9.55727,-15.36078 -14.33594,-23.55273 -4.09595,-8.87462 -8.53192,-18.43193 -13.31054,-28.67188 l -22.5293,-66.56055 c -6.82664,-23.21058 -13.31108,-47.10377 -19.45508,-71.67968 L 334.84766,489.47266 322.56055,428.03125 299.00781,287.74414 c -0.68266,-5.46129 -1.70693,-11.60502 -3.07226,-18.43164 -0.68267,-6.82662 -3.07202,-11.60527 -7.16797,-14.33594 -2.048,-2.73062 -7.16743,-4.7792 -15.35938,-6.14453 -8.19195,-1.36533 -16.38422,-2.38964 -24.57617,-3.07226 -7.50928,-1.36534 -11.94717,-2.04688 -13.3125,-2.04688 z"
       sodipodi:nodetypes="scscccccccccscscccccccccccscs" />
    <g
       id="g3">
      <path
         id="path3"
         style="font-weight:600;font-size:1024px;line-height:1;font-family:'Klee One';display:inline;fill:#f5d36c;fill-opacity:1"
         d="m 561.15234,137.2168 c -7.50928,0 -12.28798,1.70581 -14.33593,5.11914 -0.68267,0.68266 -1.02344,1.70693 -1.02344,3.07226 0,2.73067 1.36504,6.14424 4.0957,10.24024 2.73067,4.09595 4.77725,9.21542 6.14258,15.35937 0.68267,2.73067 1.02539,5.46074 1.02539,8.19141 0.68267,2.048 1.02344,4.09653 1.02344,6.14453 0,6.82662 -2.04858,19.11405 -6.14453,36.86328 -4.096,17.06657 -9.21538,36.18318 -15.35938,57.3457 -5.46129,21.16257 -10.92348,40.27718 -16.38476,57.34375 l -22.52735,63.48829 c -12.97061,36.18121 -30.03661,75.09183 -51.19922,116.73437 -21.1626,41.64255 -46.42276,81.57938 -75.77734,119.80859 l -43.00781,52.22461 c -16.38396,17.74929 -33.79269,34.47453 -52.22461,50.17578 -18.43192,15.70129 -37.5465,29.69642 -57.34375,41.98438 -0.68267,0.68267 -1.70694,1.02344 -3.07227,1.02344 -4.09596,0 -9.21541,-4.43787 -15.35937,-13.3125 -6.144,-8.87463 -11.60418,-19.45622 -16.38281,-31.74414 -4.096,-12.28796 -6.14454,-23.89183 -6.14454,-34.81446 0.26453,-17.19017 -62.17841,-19.87747 -62.46484,2.04688 0,25.25852 4.77865,49.15179 14.33594,71.67969 10.23995,22.52785 22.52933,40.62019 36.86523,54.27343 15.01861,13.65328 29.01185,20.47852 41.98242,20.47852 10.23995,0 23.5536,-4.77865 39.9375,-14.33594 17.06661,-9.55728 34.81615,-21.84467 53.24805,-36.86328 18.4319,-15.01857 35.15721,-30.71957 50.17578,-47.10352 15.36067,-16.04262 29.80401,-32.31464 41.98438,-49.15234 39.59446,-48.46908 74.41008,-101.377 104.44726,-158.7207 30.71985,-57.3437 55.29662,-111.95743 73.72852,-163.83985 l 18.43164,-59.39257 c 4.77862,-15.70128 9.55727,-33.45082 14.33594,-53.24805 5.46128,-19.79723 9.89917,-38.22835 13.3125,-55.29492 4.09595,-17.74924 6.14257,-30.03666 6.14257,-36.86328 0,-3.41333 -0.34077,-5.80264 -1.02343,-7.16797 -2.048,-8.19195 -7.16743,-14.3376 -15.35938,-18.4336 -8.19195,-4.77862 -16.72499,-8.19223 -25.59961,-10.24023 -8.87462,-2.048 -15.7018,-3.07031 -20.48047,-3.07031 z"
         sodipodi:nodetypes="scssccsccccsccscsscccccscscccccccsccss" />
      <path
         id="path2"
         style="font-weight:600;font-size:1024px;line-height:1;font-family:'Klee One';display:inline;fill:#b2f46b;fill-opacity:1"
         d="m 663.55273,315.39258 c -23.21049,0 -47.78735,2.04658 -73.72851,6.14258 -23.2109,4.27351 -46.42193,9.10092 -69.63281,15.36132 -35.49848,9.55728 -69.9734,22.18551 -103.42383,37.88672 -32.76782,15.70127 -64.16988,33.45084 -94.20703,53.24805 -19.04763,12.56082 -36.37026,25.55297 -52.22461,38.91211 -25.25854,21.16254 -49.83531,44.71509 -73.72852,70.65625 -23.89316,25.94116 -43.68941,52.90733 -59.39062,80.89648 -15.0186,27.98921 -22.5293,56.66114 -22.5293,86.01563 0.81233,20.62748 63.20733,18.64362 62.46484,-2.04688 0,-23.89319 8.19223,-49.15349 24.57618,-75.77734 17.06657,-27.30652 44.71418,-58.36779 82.94336,-93.18359 l 50.17578,-44.03125 c 23.89322,-18.43196 49.4942,-35.15719 76.80078,-50.17578 27.98921,-15.70129 56.66108,-28.67215 86.01562,-38.91211 24.02283,-8.14566 48.57662,-14.6986 73.72852,-19.45704 15.01855,-2.73061 30.03608,-4.77919 45.05469,-6.14453 15.01855,-1.36533 30.03803,-2.04687 45.05664,-2.04687 7.50927,0 15.01806,0.34077 22.52734,1.02344 8.19194,0 16.04346,0.34077 23.55273,1.02343 21.16255,2.048 41.64224,10.24024 61.43946,24.57618 20.47988,13.65321 37.20518,33.11059 50.17578,58.36914 13.65327,25.25849 20.48047,56.66055 20.48047,94.20703 v 16.38476 c -2.73067,35.49848 -9.55787,67.24327 -20.48047,95.23242 -10.92261,27.30654 -24.23428,50.85709 -39.93555,70.6543 -12.9312,16.08247 -27.25371,30.77363 -43.00781,44.0332 -32.76782,27.98921 -66.21846,42.32515 -100.35156,43.00782 -11.60527,0 -23.89463,-1.02427 -36.86524,-3.07227 -12.28794,-2.73066 -22.86758,-6.82578 -31.74218,-12.28711 -8.192,-6.14394 -12.28907,-14.67895 -12.28907,-25.60156 -0.14057,-14.98761 -56.14087,-16.71245 -57.34375,0 v 5.12109 c 0,23.89321 10.5816,45.39717 31.74414,64.51172 21.84521,18.43188 54.95504,27.64844 99.32813,27.64844 h 9.21484 c 27.98916,-0.68267 54.95528,-6.14483 80.89649,-16.38477 25.94115,-10.9226 49.83452,-25.94014 71.67968,-45.05468 15.04716,-13.22633 29.55369,-28.07467 43.00782,-46.08008 21.84516,-30.71982 39.254,-66.219 52.22461,-106.4961 12.97055,-40.9597 19.45703,-82.26187 19.45703,-123.90429 0,-9.55728 -1.367,-23.21172 -4.09766,-40.96094 -2.048,-18.43188 -7.5082,-37.88731 -16.38281,-58.36719 -8.19194,-21.16254 -21.1629,-41.30147 -38.91211,-60.41601 -17.06655,-19.11455 -40.6191,-34.47481 -70.65625,-46.08008 -29.35449,-12.28794 -66.55948,-18.43164 -111.61524,-18.43164 z"
         sodipodi:nodetypes="scccccscccccccccssccccscccccccccscscccccsccccs" />
      <path
         id="flowRoot1"
         style="font-weight:600;font-size:1024px;line-height:1;font-family:'Klee One';display:inline;fill:#6af387;fill-opacity:1"
         d="m 628.73633,688.12891 c -39.59447,0 -70.99842,9.21458 -94.20899,27.64648 -23.21052,17.74924 -35.49795,39.25316 -36.86328,64.51172 -1.21077,24.91705 57.49593,20.24957 57.34375,0 0,-11.60528 6.48646,-20.47905 19.45703,-26.62305 13.65328,-6.14395 31.06009,-9.21679 52.22266,-9.21679 h 5.12109 c 17.06661,0.68262 34.47342,4.09628 52.22266,10.24023 17.74924,6.14395 35.15804,13.99545 52.22461,23.55273 l 54.27148,37.88868 c 15.01862,12.97057 30.03807,27.98811 45.05664,45.05468 15.01862,17.06661 25.60019,29.35595 31.74414,36.86524 6.144,6.82662 12.97119,10.23828 20.48047,10.23828 10.92262,0 19.11485,-4.77865 24.57618,-14.33594 5.46128,-9.55728 8.1914,-17.74756 8.1914,-24.57422 0,-4.09595 -2.04853,-9.89891 -6.14453,-17.4082 -4.096,-7.50929 -12.28822,-17.75013 -24.57617,-30.7207 -12.28795,-13.65328 -31.06179,-30.71932 -56.32031,-51.19922 l -54.27149,-35.8418 c -20.4799,-11.60528 -41.98382,-21.50336 -64.51172,-29.69531 -22.52785,-8.87462 -45.73958,-13.99404 -69.63281,-15.35938 h -8.19141 c -2.73062,-0.68266 -5.46074,-1.02343 -8.1914,-1.02343 z"
         sodipodi:nodetypes="sccccscsccscssssccccccs" />
    </g>
  </g>
  <g
     id="g5">
    <path
       style="font-variation-settings:normal;opacity:1;vector-effect:none;fill:none;fill-opacity:1;stroke:#000000;stroke-width:128;stroke-linecap:round;stroke-linejoin:miter;stroke-miterlimit:4;stroke-dasharray:none;stroke-dashoffset:0;stroke-opacity:1;-inkscape-stroke:none;stop-color:#000000;stop-opacity:1"
       d="m 198.45032,183.18014 226.23424,594.1445"
       id="path4"
       sodipodi:nodetypes="cc"
       clip-path="url(#clipPath7451)" />
    <g
       id="g9">
      <path
         style="font-variation-settings:normal;opacity:1;vector-effect:none;fill:none;fill-opacity:1;stroke:#000000;stroke-width:128;stroke-linecap:round;stroke-linejoin:miter;stroke-miterlimit:4;stroke-dasharray:none;stroke-dashoffset:0;stroke-opacity:1;-inkscape-stroke:none;stop-color:#000000;stop-opacity:1"
         d="M 512.81055,83.134684 C 716.78617,261.56446 359.62484,719.71781 359.62484,719.71781 c 0,0 -118.89974,130.18599 -176.38274,74.33131 -135.001886,-131.17771 88.93556,-336.24773 354.5076,-426.36725 228.34215,-77.48588 402.36545,89.75399 327.19056,302.04965 -67.20787,189.7966 -197.15777,188.23654 -197.15777,188.23654 0,0 -126.23279,10.40342 -132.42811,-62.72128 -12.16509,-143.5873 189.45846,-78.75665 334.14736,57.48773"
         id="path5"
         sodipodi:nodetypes="ccssscsc"
         clip-path="url(#clipPath2361)" />
      <path
         style="font-variation-settings:normal;opacity:1;vector-effect:none;fill:none;fill-opacity:1;stroke:#000000;stroke-width:128;stroke-linecap:round;stroke-linejoin:miter;stroke-miterlimit:4;stroke-dasharray:none;stroke-dashoffset:0;stroke-opacity:1;-inkscape-stroke:none;stop-color:#000000;stop-opacity:1"
         d="M 359.625,1427.872 V 719.71781 c 0,0 -118.8999,130.18599 -176.3829,74.33131 -135.001886,-131.17771 88.93556,-336.24773 354.5076,-426.36725 228.34215,-77.48588 402.36545,89.75399 327.19056,302.04965 -67.20787,189.7966 -197.15777,188.23654 -197.15777,188.23654 0,0 -126.23279,10.40342 -132.42811,-62.72128 -12.16509,-143.5873 189.45846,-78.75665 334.14736,57.48773"
         id="path6"
         sodipodi:nodetypes="ccssscsc"
         clip-path="url(#clipPath2685)" />
      <path
         style="font-variation-settings:normal;opacity:1;vector-effect:none;fill:none;fill-opacity:1;stroke:#000000;stroke-width:128;stroke-linecap:round;stroke-linejoin:miter;stroke-miterlimit:4;stroke-dasharray:none;stroke-dashoffset:0;stroke-opacity:1;-inkscape-stroke:none;stop-color:#000000;stop-opacity:1"
         d="M 667.782,3284.33 V 857.96806 c 0,0 -126.2323,10.40342 -132.42762,-62.72128 -12.16509,-143.5873 189.45846,-78.75665 334.14736,57.48773"
         id="path7"
         sodipodi:nodetypes="ccsc"
         clip-path="url(#clipPath9549)" />
    </g>
  </g>
</svg>
