<?xml version="1.0" encoding="UTF-8" standalone="no"?>
<!-- Created with Inkscape (http://www.inkscape.org/) -->

<svg
   width="1024"
   height="1024"
   viewBox="0 0 1024 1024"
   version="2"
   id="svg82337"
   inkscape:version="1.3 (0e150ed6c4, 2023-07-21)"
   sodipodi:docname="ã­.svg"
   xmlns:inkscape="http://www.inkscape.org/namespaces/inkscape"
   xmlns:sodipodi="http://sodipodi.sourceforge.net/DTD/sodipodi-0.dtd"
   xmlns:xlink="http://www.w3.org/1999/xlink"
   xmlns="http://www.w3.org/2000/svg"
   xmlns:svg="http://www.w3.org/2000/svg">
  <sodipodi:namedview
     id="namedview82339"
     pagecolor="#ffffff"
     bordercolor="#999999"
     borderopacity="1"
     inkscape:pageshadow="0"
     inkscape:pageopacity="0"
     inkscape:pagecheckerboard="0"
     inkscape:document-units="px"
     showgrid="false"
     units="px"
     inkscape:zoom="0.1767767"
     inkscape:cx="384.66608"
     inkscape:cy="789.13115"
     inkscape:window-width="1920"
     inkscape:window-height="1111"
     inkscape:window-x="-9"
     inkscape:window-y="-9"
     inkscape:window-maximized="1"
     inkscape:current-layer="svg82337"
     viewbox-width="10.5832"
     scale-x="0.26458"
     inkscape:snap-global="true"
     inkscape:snap-bbox="false"
     inkscape:snap-page="true"
     inkscape:snap-midpoints="false"
     inkscape:object-paths="false"
     inkscape:snap-others="true"
     inkscape:snap-center="true"
     inkscape:bbox-nodes="false"
     inkscape:snap-nodes="true"
     inkscape:snap-grids="false"
     inkscape:showpageshadow="0"
     inkscape:deskcolor="#d1d1d1" />
  <defs
     id="defs82334">
    <clipPath
       id="clipPath305">
      <use
         id="clone2578"
         xlink:href="#path2" />
    </clipPath>
    <clipPath
       id="clipPath7270">
      <use
         id="clone3374"
         xlink:href="#flowRoot1" />
    </clipPath>
    <clipPath
       id="clipPath7716">
      <use
         id="clone7875"
         xlink:href="#path5" />
    </clipPath>
  </defs>
  <g
     inkscape:label="Layer 1"
     inkscape:groupmode="layer"
     id="layer1">
    <path
       id="path2"
       style="font-weight:600;font-size:1024px;line-height:1;font-family:'Klee One';display:inline;fill:#f66d6d;fill-opacity:1"
       d="m 326.65625,134.14453 c -8.87466,0 -13.99404,2.04658 -15.35937,6.14258 0,0.68267 -0.34273,1.36616 -1.0254,2.04883 v 1.02344 c 0,2.73066 1.36504,5.46269 4.09571,8.19335 3.41333,2.73067 5.80263,5.80152 7.16797,9.21485 3.41333,5.46133 5.12109,11.60498 5.12109,18.43164 -1.36533,17.06665 -3.41387,40.96167 -6.14453,71.68164 -2.73067,30.0373 -5.46074,64.16914 -8.19141,102.39844 l -4.0957,64.51367 -2.04883,40.95898 -8.1914,168.96094 c -0.68267,27.98931 -1.36617,54.95322 -2.04883,80.89453 -0.68267,25.94131 -1.02344,49.83438 -1.02344,71.67969 v 38.91211 c 0.68267,11.60532 1.36616,22.18682 2.04883,31.74414 v 2.04883 c 0,4.09599 -0.6835,8.87461 -2.04883,14.33593 -1.36533,4.77867 -2.04883,9.89805 -2.04883,15.35938 v 2.04883 c 0,12.28799 3.7563,24.23452 11.26563,35.83984 8.19199,12.28799 17.06572,18.43164 26.62304,18.43164 10.92266,0 18.43135,-3.75434 22.52735,-11.26367 4.77866,-7.50933 7.51069,-16.04228 8.19336,-25.59961 v -7.16797 c 0,-8.19199 -0.6835,-17.06767 -2.04883,-26.625 -1.36533,-9.55732 -2.04688,-16.72524 -2.04688,-21.5039 -2.04799,-36.1813 -3.07226,-79.18882 -3.07226,-129.02344 0,-51.19995 1.02427,-103.42393 3.07226,-156.67188 l 3.07032,-79.87304 1.02539,-17.40821 8.1914,-129.02343 c 2.73067,-29.35464 5.46074,-54.61275 8.19141,-75.77539 2.73066,-21.84532 5.46269,-40.27823 8.19336,-55.29688 1.36533,-7.50933 2.38764,-13.65298 3.07031,-18.43164 0.68267,-5.46133 1.02539,-10.23994 1.02539,-14.33594 0,-11.60532 -5.12134,-19.79751 -15.36133,-24.57617 -9.55732,-5.46133 -19.45532,-8.8749 -29.69531,-10.24023 -10.23999,-1.36534 -16.38364,-2.04688 -18.43164,-2.04688 z"
       sodipodi:nodetypes="sccsccccccccssccscsscsccsscscccccscscss" />
    <g
       id="g7">
      <path
         id="flowRoot1"
         style="font-weight:600;font-size:1024px;line-height:1;font-family:'Klee One';fill:#f5d36c"
         d="m 675.83984,277.50391 c -5.46131,0 -15.70206,1.36504 -30.7207,4.0957 -15.01863,2.73066 -35.49818,10.24132 -61.43945,22.5293 -25.94129,12.28796 -57.34311,32.42674 -94.20703,60.41601 -36.86394,27.98928 -79.87349,66.89981 -129.02539,116.73438 l 1.02539,-17.40821 c 6.82665,-15.01863 13.65186,-29.01177 20.47851,-41.98242 6.82666,-13.6533 12.62954,-24.91832 17.40821,-33.79297 4.77865,-7.50931 7.16796,-15.01802 7.16796,-22.52734 0,-8.19198 -3.07086,-14.33566 -9.21484,-18.43164 -6.14398,-4.77866 -12.28766,-7.85147 -18.43164,-9.2168 l -9.2168,-3.07226 -57.34375,18.43164 c -13.6533,5.46131 -29.35422,12.28847 -47.10351,20.48047 -17.74931,7.50931 -34.8172,14.67725 -51.20118,21.5039 -16.38396,6.82666 -29.35479,11.94605 -38.9121,15.35938 -2.73067,0.68266 -6.48501,1.70693 -11.26368,3.07226 -4.77865,1.36533 -8.533,2.3896 -11.26367,3.07227 h -5.12109 -8.19141 c -2.048,-0.68267 -4.4373,-1.02344 -7.16797,-1.02344 -1.36533,0 -3.41386,0.6835 -6.14453,2.04883 -0.68266,0.68266 -1.02344,1.70498 -1.02344,3.07031 0,2.048 2.73009,7.51012 8.19141,16.38477 5.46133,8.87464 12.62926,17.40761 21.50391,25.59961 9.55731,8.19198 20.13883,12.28906 31.74414,12.28906 4.77865,0 9.2165,-1.02427 13.3125,-3.07227 l 14.33593,-7.16797 c 17.06664,-9.55731 32.42678,-18.09029 46.08008,-25.5996 14.33598,-7.50933 30.37961,-14.67726 48.12891,-21.50391 l -2.04883,40.95898 c -12.28798,32.76794 -27.98889,67.24257 -47.10351,103.42383 -19.11464,35.4986 -38.91262,69.63245 -59.39258,102.40039 -19.7973,32.08527 -37.54675,59.73274 -53.24805,82.94336 -15.7013,22.52796 -26.28282,37.20655 -31.74414,44.0332 -3.41333,4.096 -5.11914,9.55616 -5.11914,16.38282 0,9.55731 4.09513,18.43302 12.28711,26.625 8.19198,8.19198 17.06768,12.28711 26.625,12.28711 10.23998,0 18.08946,-5.46017 23.55078,-16.38282 9.55731,-19.11462 21.50388,-40.62038 35.83984,-64.51367 15.01865,-23.89328 30.37878,-48.12718 46.08008,-72.70312 16.38398,-24.57596 31.06256,-46.42053 44.03321,-65.53516 l 59.39257,-66.56055 c 18.43196,-23.89328 40.96003,-48.81067 67.58399,-74.75195 27.30661,-26.62394 55.97835,-51.54134 86.01562,-74.75195 30.03728,-23.21063 58.70901,-41.98434 86.01563,-56.32032 27.30661,-15.01863 50.51623,-22.52734 69.63086,-22.52734 35.49859,0 63.82957,20.13876 84.99218,60.41602 21.8453,39.59458 34.13457,95.23225 36.86524,166.91211 v 17.40625 c 0,22.52794 -2.04855,47.44534 -6.14453,74.75195 -3.41333,27.30661 -9.89777,53.59099 -19.45508,78.84961 l -24.57617,50.17578 c -11.60531,18.43196 -25.94119,33.7921 -43.00781,46.08008 -17.06664,12.28798 -37.54813,19.11319 -61.44141,20.47851 H 622.5918 c -21.16263,0 -41.30139,-3.75435 -60.41602,-11.26367 -19.11463,-7.50931 -28.67187,-17.7481 -28.67187,-30.71875 0,-16.61216 -57.34375,-21.88077 -57.34375,-2.04883 v 8.19141 c 2.04798,14.33598 8.53244,29.01457 19.45507,44.0332 11.60532,14.33598 27.64895,26.6233 48.12891,36.86328 20.47996,9.55732 44.71384,14.33594 72.70313,14.33594 34.13325,0 62.80696,-4.77862 86.01757,-14.33594 23.89329,-10.23998 43.34856,-22.5273 58.36719,-36.86328 15.70131,-14.33596 27.98863,-27.9903 36.86328,-40.96093 l 27.64844,-54.27149 c 10.92265,-28.67194 18.43136,-59.733 22.52734,-93.18359 4.77867,-34.13327 7.16797,-66.90208 7.16797,-98.30469 v -11.26367 c -0.68266,-27.98928 -4.77778,-58.02606 -12.28711,-90.11133 -6.82665,-32.76794 -17.40816,-63.4882 -31.74414,-92.16016 -14.33596,-28.67194 -32.76696,-52.22427 -55.29492,-70.65625 -21.84529,-18.43196 -48.47044,-27.64843 -79.87305,-27.64843 z"
         sodipodi:nodetypes="ssssccccscccccscscccscsscssccccccccsssscccccscsccscccscsscccccscccccsccscs" />
      <path
         id="path5"
         style="font-weight:600;font-size:1024px;line-height:1;font-family:'Klee One';fill:#6cf584;fill-opacity:1"
         d="m 636.92773,704.51172 c -27.98927,0 -54.27171,4.09708 -78.84765,12.28906 -24.57596,8.19198 -44.37395,19.79582 -59.39258,34.81445 -15.01863,14.33598 -22.52734,31.74465 -22.52734,52.22461 0,18.82167 57.34375,16.86011 57.34375,2.04883 0,-12.97064 5.46212,-22.87061 16.38476,-29.69726 11.60531,-6.82666 25.25768,-11.60528 40.95899,-14.33594 16.38396,-2.73067 31.40333,-4.0957 45.05664,-4.0957 16.38396,0 33.10915,2.04853 50.17578,6.14453 17.74929,4.09598 35.15797,9.89888 52.22461,17.4082 l 59.39062,33.79102 c 15.70131,10.92263 30.72068,23.21192 45.05664,36.86523 15.01864,12.97064 26.9652,26.28224 35.83985,39.93555 5.46131,7.50931 12.28847,11.26367 20.48047,11.26367 7.50931,0 14.67725,-2.38931 21.5039,-7.16797 6.82666,-4.77866 11.60528,-10.58155 14.33594,-17.4082 0.68267,-2.048 1.02344,-3.75382 1.02344,-5.11914 0.68266,-2.048 1.02539,-4.09654 1.02539,-6.14454 0,-9.55731 -5.80289,-20.82233 -17.40821,-33.79296 -11.6053,-12.97065 -25.94118,-25.94148 -43.00781,-38.91211 -17.06663,-12.97065 -34.13454,-24.2337 -51.20117,-33.79102 l -62.46289,-29.69531 c -40.95992,-16.38396 -80.89667,-25.25967 -119.80859,-26.625 z"
         sodipodi:nodetypes="sscccccscccccssccssscccs" />
    </g>
  </g>
  <g
     id="g3">
    <path
       style="font-variation-settings:normal;display:inline;opacity:1;vector-effect:none;fill:none;fill-opacity:1;stroke:#000000;stroke-width:128;stroke-linecap:round;stroke-linejoin:miter;stroke-miterlimit:4;stroke-dasharray:none;stroke-dashoffset:0;stroke-opacity:1;-inkscape-stroke:none;stop-color:#000000;stop-opacity:1"
       d="M 350.9979,54.6013 330.56202,880.03777"
       id="path3"
       sodipodi:nodetypes="cc"
       clip-path="url(#clipPath305)" />
    <g
       id="g6">
      <path
         style="font-variation-settings:normal;opacity:1;fill:none;fill-opacity:1;stroke:#000000;stroke-width:128;stroke-linecap:round;stroke-linejoin:miter;stroke-miterlimit:4;stroke-dasharray:none;stroke-dashoffset:1139.2;stroke-opacity:1;stop-color:#000000;stop-opacity:1"
         d="M 72,498 C 222.38957,391.92829 302.21883,383.87746 384.23045,327.76955 244.73832,460.93508 277.99159,599.0802 120.41422,863.38478 c 0,0 432.39784,-665.03454 599.68481,-539.98005 C 927.43853,478.40028 782.07275,820.08945 715,865 c -20.26491,13.56897 -95.8251,14.31535 -95.8251,14.31535 0,0 -168.48827,0.1915 -92.6749,-114.81535 43.44946,-65.91166 288.39949,-43.77713 371.91421,87.40664"
         id="path1"
         sodipodi:nodetypes="cccsscsc"
         clip-path="url(#clipPath7270)" />
      <path
         style="font-variation-settings:normal;display:inline;opacity:1;fill:none;fill-opacity:1;stroke:#000000;stroke-width:128;stroke-linecap:round;stroke-linejoin:miter;stroke-miterlimit:4;stroke-dasharray:none;stroke-dashoffset:1139.2;stroke-opacity:1;stop-color:#000000;stop-opacity:1"
         d="M 619.175,3388.76 V 879.21568 c 0,0 -168.48837,0.29117 -92.675,-114.71568 43.44946,-65.91166 288.39949,-43.77713 371.91421,87.40664"
         id="path4"
         sodipodi:nodetypes="ccsc"
         clip-path="url(#clipPath7716)" />
    </g>
  </g>
</svg>
