<?xml version="1.0" encoding="UTF-8" standalone="no"?>
<!-- Created with Inkscape (http://www.inkscape.org/) -->

<svg
   width="1024"
   height="1024"
   viewBox="0 0 1024 1024"
   version="2"
   id="svg82337"
   inkscape:version="1.3 (0e150ed6c4, 2023-07-21)"
   sodipodi:docname="ã°.svg"
   xmlns:inkscape="http://www.inkscape.org/namespaces/inkscape"
   xmlns:sodipodi="http://sodipodi.sourceforge.net/DTD/sodipodi-0.dtd"
   xmlns:xlink="http://www.w3.org/1999/xlink"
   xmlns="http://www.w3.org/2000/svg"
   xmlns:svg="http://www.w3.org/2000/svg">
  <sodipodi:namedview
     id="namedview82339"
     pagecolor="#ffffff"
     bordercolor="#999999"
     borderopacity="1"
     inkscape:pageshadow="0"
     inkscape:pageopacity="0"
     inkscape:pagecheckerboard="0"
     inkscape:document-units="px"
     showgrid="false"
     units="px"
     inkscape:zoom="0.59040654"
     inkscape:cx="594.50561"
     inkscape:cy="371.77772"
     inkscape:window-width="1920"
     inkscape:window-height="1111"
     inkscape:window-x="-9"
     inkscape:window-y="-9"
     inkscape:window-maximized="1"
     inkscape:current-layer="g6"
     viewbox-width="10.5832"
     scale-x="0.26458"
     inkscape:snap-global="true"
     inkscape:snap-bbox="false"
     inkscape:snap-page="true"
     inkscape:snap-midpoints="false"
     inkscape:object-paths="false"
     inkscape:snap-others="true"
     inkscape:snap-center="true"
     inkscape:bbox-nodes="false"
     inkscape:snap-nodes="true"
     inkscape:snap-grids="false"
     inkscape:showpageshadow="0"
     inkscape:deskcolor="#d1d1d1" />
  <defs
     id="defs82334">
    <clipPath
       id="clipPath763">
      <use
         id="clone6514"
         xlink:href="#path1" />
    </clipPath>
    <clipPath
       id="clipPath2577">
      <use
         id="clone7665"
         xlink:href="#path3" />
    </clipPath>
    <clipPath
       id="clipPath4318">
      <use
         id="clone7159"
         xlink:href="#flowRoot1" />
    </clipPath>
    <clipPath
       id="clipPath441">
      <use
         id="clone7188"
         xlink:href="#path4" />
    </clipPath>
    <clipPath
       id="clipPath8758">
      <use
         id="clone3699"
         xlink:href="#path9" />
    </clipPath>
    <clipPath
       id="clipPath358">
      <use
         id="clone8269"
         xlink:href="#flowRoot2" />
    </clipPath>
  </defs>
  <g
     id="g5">
    <path
       style="font-weight:600;font-size:1024px;line-height:1;font-family:'Klee One';fill:#f66d6d"
       d="m 242.688,770.048 q -1.024,-12.288 -2.048,-25.6 0,-14.336 0,-28.672 0,-51.2 4.096,-113.664 4.096,-62.464 11.264,-128 7.168,-66.56 15.36,-129.024 9.216,-62.464 18.432,-112.64 1.024,-7.168 1.024,-12.288 1.024,-5.12 1.024,-9.216 0,-6.144 -1.024,-8.192 -2.048,-7.168 -14.336,-13.312 -12.288,-7.168 -26.624,-11.264 -14.336,-5.12 -25.6,-5.12 -10.24,0 -12.288,5.12 0,1.024 -1.024,2.048 0,0 0,1.024 0,4.096 4.096,8.192 4.096,4.096 6.144,7.168 4.096,8.192 4.096,15.36 -1.024,4.096 -5.12,39.936 -4.096,35.84 -10.24,89.088 -5.12,52.224 -11.264,110.592 -5.12,58.368 -10.24,110.592 -4.096,52.224 -6.144,84.992 0,1.024 -1.024,17.408 0,15.36 0,38.912 0,80.896 7.168,129.024 7.168,47.104 19.456,67.584 12.288,20.48 28.672,20.48 9.216,0 17.408,-6.144 9.216,-5.12 12.288,-18.432 5.12,-17.408 14.336,-52.224 10.24,-34.816 20.48,-73.728 11.264,-38.912 19.456,-69.632 9.216,-30.72 11.264,-39.936 3.072,-14.336 3.072,-20.48 0,-10.24 -6.144,-10.24 -4.096,0 -9.216,5.12 -5.12,4.096 -10.24,11.264 -3.072,5.12 -14.336,26.624 -11.264,20.48 -25.6,47.104 -13.312,26.624 -26.624,50.176 z"
       id="path1" />
    <path
       id="path3"
       style="font-weight:600;font-size:1024px;line-height:1;font-family:'Klee One';fill:#f5d36c;fill-opacity:1"
       d="m 661.50391,320.51172 c -40.2773,4.77866 -79.53047,10.24077 -117.75977,16.38476 -38.22929,6.144 -71.33882,11.94688 -99.32812,17.40821 -2.048,0 -5.80235,0.34077 -11.26368,1.02343 -5.46132,0.68267 -8.8749,1.02344 -10.24023,1.02344 -2.73066,0 -6.48501,-0.68154 -11.26367,-2.04687 -4.77866,-2.048 -9.21651,-3.07227 -13.3125,-3.07227 -2.048,0 -3.75381,0.34077 -5.11914,1.02344 -3.41333,1.36533 -5.1211,3.75464 -5.1211,7.16797 0,0.68266 1.70777,5.46128 5.1211,14.33594 3.41333,8.87465 9.21426,17.75034 17.40625,26.625 8.19199,8.19199 18.77348,12.28711 31.74414,12.28711 4.77866,0 9.55727,-0.34078 14.33593,-1.02344 5.46133,-1.36533 10.58267,-2.3896 15.36133,-3.07227 27.98931,-6.14399 58.02603,-11.6061 90.11133,-16.38476 32.76797,-5.46133 66.21826,-10.23995 100.35156,-14.33594 l 61.44141,-7.16797 c 21.84531,-2.048 43.34907,-3.75381 64.51172,-5.11914 21.84531,-1.36533 43.0083,-2.3896 63.48828,-3.07227 24.57598,0 36.86328,-5.46211 36.86328,-16.38476 v -4.09571 c -1.36533,-11.60532 -7.16821,-21.50332 -17.4082,-29.69531 -10.23999,-8.19199 -19.11372,-12.62983 -26.62305,-13.3125 h -3.07226 c -0.68267,-0.68266 -1.70694,-1.02343 -3.07227,-1.02343 -6.14399,0 -11.94688,1.02426 -17.4082,3.07226 -5.46133,2.048 -11.26421,3.75381 -17.40821,5.11914 -12.97065,0.68267 -26.28222,1.70693 -39.93554,3.07227 -12.97066,1.36533 -26.62495,2.73037 -40.96094,4.0957 z"
       sodipodi:nodetypes="cscsscscsscscccccccscsccsscccc" />
    <g
       id="g4">
      <path
         id="flowRoot1"
         style="font-weight:600;font-size:1024px;line-height:1;font-family:'Klee One';fill:#b2f46b"
         d="m 658.43164,131.07227 c -12.28798,0 -18.77241,2.38931 -19.45508,7.16796 v 1.02344 c 0,4.77866 2.73008,8.87574 8.19141,12.28906 5.46132,2.73067 8.8749,8.87432 10.24023,18.43165 0.68267,2.73065 1.36421,18.43157 2.04688,47.10351 0.68266,28.67194 1.36616,63.14658 2.04883,103.42383 l 1.02343,57.34375 c 1.36534,36.86392 2.3896,74.07059 3.07227,111.61719 0.68267,36.86392 1.36616,70.65506 2.04883,101.375 0.68266,30.03727 1.36421,52.90611 2.04687,68.60742 v 13.3125 c 0,13.6533 -1.02428,27.64841 -3.07226,41.98437 -5.35247,25.28429 -11.2582,41.71639 -17.40625,54.27149 -4.096,8.19198 -10.92316,17.40846 -20.48047,27.64844 -9.55732,10.23996 -22.52815,19.45645 -38.91211,27.64843 -16.38396,7.50932 -37.54701,11.26367 -63.48828,11.26367 -19.11463,0 -36.52331,-2.73008 -52.22461,-8.1914 -15.70131,-5.46133 -23.55078,-13.9943 -23.55078,-25.59961 0.36941,-9.91449 -57.21151,-15.82583 -57.34375,-1.02539 0,25.25861 13.3116,47.10515 39.93554,65.53711 26.62396,18.43196 62.46362,27.64648 107.51954,27.64648 h 15.35937 c 33.4506,-1.36533 63.48934,-10.92258 90.11328,-28.67187 26.62394,-18.43196 47.78698,-43.00663 63.48828,-73.72657 5.40662,-8.45699 11.79107,-25.95892 19.45508,-55.29687 1.36533,-9.55731 2.3896,-18.77379 3.07227,-27.64844 1.36532,-9.55731 2.04687,-19.11456 2.04687,-28.67187 v -12.28711 c 0,-4.77866 -0.34077,-9.21652 -1.02344,-13.3125 l -3.07226,-67.58399 c -0.68267,-30.71994 -1.70694,-65.19456 -3.07227,-103.42383 -0.68266,-38.22925 -1.70498,-75.7767 -3.07031,-112.64062 l -1.02539,-57.34375 c -0.68267,-36.18126 -1.36421,-66.90153 -2.04688,-92.16016 v -45.05468 c 0,-5.46133 -1.02426,-11.60694 -3.07226,-18.4336 -1.36533,-7.50931 -6.48473,-13.65298 -15.35938,-18.43164 -8.19198,-5.46132 -22.87057,-8.1914 -44.0332,-8.1914 z"
         sodipodi:nodetypes="scsccscccccsccscssccsscccccssccccccsccs" />
      <path
         id="path4"
         style="font-weight:600;font-size:1024px;line-height:1;font-family:'Klee One';fill:#6af387;fill-opacity:1"
         d="m 666.62305,714.75195 c -19.11463,-6.14398 -37.8864,-10.23911 -56.31836,-12.28711 -18.43196,-2.73065 -37.20569,-4.09765 -56.32031,-4.09765 h -12.28907 c -19.11463,0 -40.27766,3.41358 -63.48828,10.24023 -22.52796,6.82666 -42.32399,17.7509 -59.39062,32.76953 -16.38398,14.33598 -24.91695,33.79125 -25.59961,58.36719 v 1.02344 c 0.10997,21.18061 58.41694,15.7795 57.34375,1.02539 v -2.04883 c 1.36533,-16.38396 10.92258,-27.98975 28.67187,-34.81641 18.43196,-7.50931 39.93578,-11.26367 64.51172,-11.26367 17.7493,0 34.81526,1.02427 51.19922,3.07227 17.06663,2.048 35.15881,6.14311 54.27344,12.28711 17.49855,5.66168 35.11314,11.40458 60.41601,22.52929 24.57596,10.92265 46.7613,23.55076 66.5586,37.88672 20.47996,14.33598 37.20513,30.03884 50.17578,47.10547 8.19198,10.92265 16.38419,16.38281 24.57617,16.38281 1.36533,0 4.77892,-1.36503 10.24023,-4.0957 6.144,-2.73066 11.94688,-7.1685 17.40821,-13.3125 5.46131,-6.14398 8.1914,-13.65269 8.1914,-22.52734 0,-13.65331 -8.87375,-27.98918 -26.62304,-43.00781 C 843.09352,794.96573 822.27127,780.97064 797.69531,768 773.11937,755.02936 750.25052,744.44784 729.08789,736.25586 701.68233,726.01538 682.07812,719.41553 666.62305,714.75195 Z"
         sodipodi:nodetypes="ccsscccccccscccccscsscscc" />
    </g>
    <path
       style="font-weight:600;font-size:1024px;line-height:1;font-family:'Klee One';fill:#4ddde0;fill-opacity:1"
       d="m 903.168,271.36 q 8.192,-10.24 8.192,-20.48 0,-9.216 -12.288,-24.576 -11.264,-15.36 -28.672,-31.744 -17.408,-17.408 -33.792,-30.72 -15.36,-14.336 -24.576,-20.48 -8.192,-5.12 -14.336,-5.12 -10.24,0 -18.432,8.192 -8.192,8.192 -8.192,18.432 0,7.168 6.144,13.312 20.48,19.456 39.936,39.936 20.48,19.456 45.056,52.224 8.192,11.264 19.456,11.264 7.168,0 12.288,-3.072 6.144,-4.096 9.216,-7.168 z"
       id="path9" />
    <path
       style="font-weight:600;font-size:1024px;line-height:1;font-family:'Klee One';fill:#4d6ee0;fill-opacity:1"
       d="m 984.064,217.088 q 8.192,-10.24 8.192,-20.48 0,-7.168 -5.12,-14.336 -5.12,-8.192 -26.624,-27.648 -20.48,-19.456 -69.632,-61.44 -7.168,-6.144 -16.384,-6.144 -10.24,0 -18.432,8.192 -7.168,8.192 -7.168,17.408 0,9.216 7.168,15.36 17.408,14.336 40.96,39.936 24.576,24.576 46.08,51.2 8.192,9.216 17.408,9.216 7.168,0 13.312,-3.072 6.144,-4.096 10.24,-8.192 z"
       id="flowRoot2" />
  </g>
  <g
     id="g6">
    <path
       style="font-variation-settings:normal;opacity:1;vector-effect:none;fill:none;fill-opacity:1;stroke:#000000;stroke-width:128;stroke-linecap:round;stroke-linejoin:miter;stroke-miterlimit:4;stroke-dasharray:none;stroke-dashoffset:0;stroke-opacity:1;-inkscape-stroke:none;stop-color:#000000;stop-opacity:1"
       d="m 173.66082,123.35907 c 206.22726,-18.70399 -97.573386,611.5321 40.72047,744.94502 l 92.21988,-183.84093"
       id="path5"
       sodipodi:nodetypes="ccc"
       clip-path="url(#clipPath763)" />
    <path
       style="font-variation-settings:normal;opacity:1;vector-effect:none;fill:none;fill-opacity:1;stroke:#000000;stroke-width:128;stroke-linecap:round;stroke-linejoin:miter;stroke-miterlimit:4;stroke-dasharray:none;stroke-dashoffset:0;stroke-opacity:1;-inkscape-stroke:none;stop-color:#000000;stop-opacity:1"
       d="m 322.47382,366.55686 512.29577,-8.45627"
       id="path6"
       sodipodi:nodetypes="cc"
       clip-path="url(#clipPath2577)" />
    <g
       id="g9">
      <path
         style="font-variation-settings:normal;opacity:1;vector-effect:none;fill:none;fill-opacity:1;stroke:#000000;stroke-width:128;stroke-linecap:round;stroke-linejoin:miter;stroke-miterlimit:4;stroke-dasharray:none;stroke-dashoffset:0;stroke-opacity:1;-inkscape-stroke:none;stop-color:#000000;stop-opacity:1"
         d="m 579.51722,107.49282 c 196.52834,-8.681044 142.04306,734.82462 39.46372,752.89402 0,0 -100.36889,28.28598 -155.48975,7.59891 -85.0461,-31.91812 -40.78845,-321.78849 379.9954,-31.27415"
         id="path7"
         sodipodi:nodetypes="ccsc"
         clip-path="url(#clipPath4318)" />
      <path
         style="font-variation-settings:normal;opacity:1;vector-effect:none;fill:none;fill-opacity:1;stroke:#000000;stroke-width:128;stroke-linecap:round;stroke-linejoin:miter;stroke-miterlimit:4;stroke-dasharray:none;stroke-dashoffset:0;stroke-opacity:1;-inkscape-stroke:none;stop-color:#000000;stop-opacity:1"
         d="m 1363.8248,977.06764 c -32.0426,194.09286 -748.32158,-12.58023 -744.84386,-116.6808 0,0 -100.36889,28.28598 -155.48975,7.59891 -85.0461,-31.91812 -40.78845,-321.78849 379.9954,-31.27415"
         id="path8"
         sodipodi:nodetypes="ccsc"
         clip-path="url(#clipPath441)" />
    </g>
    <path
       style="font-variation-settings:normal;opacity:1;vector-effect:none;fill:none;fill-opacity:1;stroke:#000000;stroke-width:128;stroke-linecap:round;stroke-linejoin:miter;stroke-miterlimit:4;stroke-dasharray:none;stroke-dashoffset:0;stroke-opacity:1;-inkscape-stroke:none;stop-color:#000000;stop-opacity:1"
       d="M 731.63793,99.997372 859.33926,228.70336"
       id="path10"
       sodipodi:nodetypes="cc"
       clip-path="url(#clipPath8758)" />
    <path
       style="font-variation-settings:normal;opacity:1;vector-effect:none;fill:none;fill-opacity:1;stroke:#000000;stroke-width:128;stroke-linecap:round;stroke-linejoin:miter;stroke-miterlimit:4;stroke-dasharray:none;stroke-dashoffset:0;stroke-opacity:1;-inkscape-stroke:none;stop-color:#000000;stop-opacity:1"
       d="M 809.01988,47.906433 940.76257,176.05614"
       id="path11"
       sodipodi:nodetypes="cc"
       clip-path="url(#clipPath358)" />
  </g>
</svg>
