<?xml version="1.0" encoding="UTF-8" standalone="no"?>
<!-- Created with Inkscape (http://www.inkscape.org/) -->

<svg
   width="1024"
   height="1024"
   viewBox="0 0 1024 1024"
   version="2"
   id="svg82337"
   inkscape:version="1.3 (0e150ed6c4, 2023-07-21)"
   sodipodi:docname="ã¶.svg"
   xmlns:inkscape="http://www.inkscape.org/namespaces/inkscape"
   xmlns:sodipodi="http://sodipodi.sourceforge.net/DTD/sodipodi-0.dtd"
   xmlns:xlink="http://www.w3.org/1999/xlink"
   xmlns="http://www.w3.org/2000/svg"
   xmlns:svg="http://www.w3.org/2000/svg">
  <sodipodi:namedview
     id="namedview82339"
     pagecolor="#ffffff"
     bordercolor="#999999"
     borderopacity="1"
     inkscape:pageshadow="0"
     inkscape:pageopacity="0"
     inkscape:pagecheckerboard="0"
     inkscape:document-units="px"
     showgrid="false"
     units="px"
     inkscape:zoom="0.41748047"
     inkscape:cx="240.72982"
     inkscape:cy="552.12164"
     inkscape:window-width="1920"
     inkscape:window-height="1111"
     inkscape:window-x="-9"
     inkscape:window-y="-9"
     inkscape:window-maximized="1"
     inkscape:current-layer="g4"
     viewbox-width="10.5832"
     scale-x="0.26458"
     inkscape:snap-global="true"
     inkscape:snap-bbox="false"
     inkscape:snap-page="true"
     inkscape:snap-midpoints="false"
     inkscape:object-paths="false"
     inkscape:snap-others="true"
     inkscape:snap-center="true"
     inkscape:bbox-nodes="false"
     inkscape:snap-nodes="true"
     inkscape:snap-grids="false"
     inkscape:showpageshadow="0"
     inkscape:deskcolor="#d1d1d1" />
  <defs
     id="defs82334">
    <clipPath
       id="clipPath8673">
      <use
         id="clone9111"
         xlink:href="#flowRoot1" />
    </clipPath>
    <clipPath
       id="clipPath6788">
      <use
         id="clone8851"
         xlink:href="#path1" />
    </clipPath>
    <clipPath
       id="clipPath2560">
      <use
         id="clone3058"
         xlink:href="#path3" />
    </clipPath>
    <clipPath
       id="clipPath7143">
      <use
         id="clone8194"
         xlink:href="#path2" />
    </clipPath>
    <clipPath
       id="clipPath5041">
      <use
         id="clone7496"
         xlink:href="#path9" />
    </clipPath>
    <clipPath
       id="clipPath7531">
      <use
         id="clone3981"
         xlink:href="#path8" />
    </clipPath>
  </defs>
  <g
     id="g1">
    <path
       style="font-weight:600;font-size:1024px;line-height:1;font-family:'Klee One';fill:#f66d6d"
       d="m 587.776,336.896 q -18.432,15.36 -33.792,26.624 -14.336,10.24 -29.696,20.48 -19.456,13.312 -19.456,22.528 0,9.216 16.384,9.216 8.192,0 28.672,-5.12 21.504,-5.12 45.056,-12.288 23.552,-7.168 40.96,-14.336 18.432,-7.168 21.504,-12.288 4.096,-6.144 7.168,-13.312 3.072,-8.192 3.072,-15.36 0,-9.216 -4.096,-14.336 -11.264,-20.48 -35.84,-48.128 -24.576,-27.648 -53.248,-53.248 -28.672,-25.6 -54.272,-41.984 -24.576,-17.408 -36.864,-17.408 -11.264,0 -20.48,10.24 -8.192,10.24 -8.192,15.36 0,9.216 13.312,18.432 22.528,14.336 46.08,36.864 23.552,21.504 43.008,45.056 19.456,23.552 30.72,43.008 z"
       id="flowRoot1" />
    <path
       style="font-weight:600;font-size:1024px;line-height:1;font-family:'Klee One';fill:#f5d36c"
       d="m 521.216,906.24 q 29.696,0 58.368,-15.36 29.696,-15.36 49.152,-46.08 20.48,-31.744 20.48,-77.824 0,-36.864 -17.408,-71.68 Q 614.4,660.48 587.776,629.76 561.152,598.016 532.48,572.416 q -28.672,-26.624 -51.2,-47.104 -22.528,-20.48 -30.72,-33.792 -14.336,-21.504 -28.672,-21.504 -8.192,0 -13.312,7.168 -5.12,6.144 -5.12,16.384 0,9.216 4.096,17.408 9.216,22.528 36.864,51.2 27.648,27.648 59.392,60.416 31.744,32.768 54.272,69.632 23.552,35.84 23.552,75.776 0,30.72 -21.504,53.248 -20.48,22.528 -47.104,22.528 -25.6,0 -55.296,-4.096 -29.696,-5.12 -55.296,-12.288 -24.576,-7.168 -37.888,-15.36 -11.264,-7.168 -20.48,-7.168 -11.264,0 -11.264,9.216 0,12.288 19.456,28.672 20.48,15.36 50.176,30.72 30.72,14.336 62.464,23.552 31.744,9.216 56.32,9.216 z"
       id="path1" />
    <path
       style="font-weight:600;font-size:1024px;line-height:1;font-family:'Klee One';fill:#b2f46b"
       d="m 110.592,714.752 v 8.192 q 1.024,20.48 12.288,52.224 12.288,30.72 29.696,61.44 18.432,30.72 37.888,52.224 20.48,20.48 37.888,20.48 12.288,0 29.696,-19.456 18.432,-20.48 34.816,-48.128 17.408,-27.648 28.672,-51.2 11.264,-23.552 11.264,-30.72 0,-10.24 -10.24,-10.24 -13.312,0 -21.504,10.24 -10.24,11.264 -33.792,30.72 -22.528,18.432 -39.936,29.696 -25.6,-21.504 -46.08,-53.248 -20.48,-32.768 -29.696,-54.272 -11.264,-25.6 -26.624,-25.6 -14.336,0 -14.336,27.648 z"
       id="path3" />
    <path
       style="font-weight:600;font-size:1024px;line-height:1;font-family:'Klee One';fill:#6af387"
       d="m 932.864,787.456 q 0,-10.24 -13.312,-36.864 -13.312,-27.648 -44.032,-66.56 -30.72,-39.936 -81.92,-84.992 -4.096,-4.096 -12.288,-4.096 -12.288,0 -25.6,9.216 -13.312,8.192 -13.312,19.456 0,10.24 11.264,18.432 23.552,18.432 46.08,49.152 23.552,30.72 40.96,62.464 18.432,31.744 25.6,55.296 7.168,19.456 21.504,19.456 4.096,0 14.336,-4.096 11.264,-4.096 20.48,-12.288 10.24,-9.216 10.24,-24.576 z"
       id="path2" />
    <path
       style="font-weight:600;font-size:1024px;line-height:1;font-family:'Klee One';fill:#80ebea;fill-opacity:1"
       d="m 839.68,404.48 q 14.336,0 21.504,-11.264 7.168,-11.264 7.168,-19.456 0,-9.216 -14.336,-26.624 -13.312,-17.408 -31.744,-35.84 -17.408,-18.432 -32.768,-31.744 -15.36,-13.312 -18.432,-15.36 -7.168,-5.12 -16.384,-5.12 -10.24,0 -17.408,8.192 -7.168,7.168 -7.168,16.384 0,9.216 6.144,15.36 16.384,13.312 38.912,39.936 23.552,25.6 44.032,54.272 8.192,11.264 20.48,11.264 z"
       id="path9" />
    <path
       style="font-weight:600;font-size:1024px;line-height:1;font-family:'Klee One';fill:#808ceb;fill-opacity:1"
       d="m 915.456,349.184 q 4.096,0 17.408,-5.12 13.312,-6.144 13.312,-26.624 0,-7.168 -5.12,-15.36 -4.096,-9.216 -24.576,-28.672 -20.48,-20.48 -66.56,-59.392 -7.168,-7.168 -17.408,-7.168 -10.24,0 -19.456,8.192 -9.216,7.168 -9.216,17.408 0,7.168 7.168,13.312 17.408,14.336 41.984,41.984 25.6,26.624 46.08,53.248 7.168,8.192 16.384,8.192 z"
       id="path8" />
  </g>
  <g
     id="g4">
    <path
       style="font-variation-settings:normal;opacity:1;vector-effect:none;fill:none;fill-opacity:1;stroke:#000000;stroke-width:128;stroke-linecap:round;stroke-linejoin:miter;stroke-miterlimit:4;stroke-dasharray:none;stroke-dashoffset:0;stroke-opacity:1;-inkscape-stroke:none;stop-color:#000000;stop-opacity:1"
       d="M 409.6,132.94035 673.48023,319.71677 562.30176,386.24561"
       id="path4"
       sodipodi:nodetypes="ccc"
       clip-path="url(#clipPath8673)" />
    <path
       style="font-variation-settings:normal;opacity:1;vector-effect:none;fill:none;fill-opacity:1;stroke:#000000;stroke-width:128;stroke-linecap:round;stroke-linejoin:miter;stroke-miterlimit:4;stroke-dasharray:none;stroke-dashoffset:0;stroke-opacity:1;-inkscape-stroke:none;stop-color:#000000;stop-opacity:1"
       d="m 361.69356,429.96023 c 0,0 419.64977,347.39003 144.91697,447.92515 -59.85938,21.90481 -128.14972,-28.74386 -128.14972,-28.74386"
       id="path5"
       sodipodi:nodetypes="csc"
       clip-path="url(#clipPath6788)" />
    <path
       style="font-variation-settings:normal;opacity:1;vector-effect:none;fill:none;fill-opacity:1;stroke:#000000;stroke-width:128;stroke-linecap:round;stroke-linejoin:miter;stroke-miterlimit:4;stroke-dasharray:none;stroke-dashoffset:0;stroke-opacity:1;-inkscape-stroke:none;stop-color:#000000;stop-opacity:1"
       d="M 91.022219,628.77193 192.82339,909.02456 291.3179,798.76675"
       id="path6"
       sodipodi:nodetypes="ccc"
       clip-path="url(#clipPath2560)" />
    <path
       style="font-variation-settings:normal;opacity:1;vector-effect:none;fill:none;fill-opacity:1;stroke:#000000;stroke-width:128;stroke-linecap:round;stroke-linejoin:miter;stroke-miterlimit:4;stroke-dasharray:none;stroke-dashoffset:0;stroke-opacity:1;-inkscape-stroke:none;stop-color:#000000;stop-opacity:1"
       d="M 710.9508,555.12597 879.0553,768.1148"
       id="path7"
       sodipodi:nodetypes="cc"
       clip-path="url(#clipPath7143)" />
    <path
       style="font-variation-settings:normal;opacity:1;vector-effect:none;fill:none;fill-opacity:1;stroke:#000000;stroke-width:128;stroke-linecap:round;stroke-linejoin:miter;stroke-miterlimit:4;stroke-dasharray:none;stroke-dashoffset:0;stroke-opacity:1;-inkscape-stroke:none;stop-color:#000000;stop-opacity:1"
       d="m 693.44561,216.77661 123.35906,135.9345"
       id="path10"
       sodipodi:nodetypes="cc"
       clip-path="url(#clipPath5041)" />
    <path
       style="font-variation-settings:normal;opacity:1;vector-effect:none;fill:none;fill-opacity:1;stroke:#000000;stroke-width:128;stroke-linecap:round;stroke-linejoin:miter;stroke-miterlimit:4;stroke-dasharray:none;stroke-dashoffset:0;stroke-opacity:1;-inkscape-stroke:none;stop-color:#000000;stop-opacity:1"
       d="M 767.10175,166.47485 894.65263,298.21754"
       id="path11"
       sodipodi:nodetypes="cc"
       clip-path="url(#clipPath7531)" />
  </g>
</svg>
