<?xml version="1.0" encoding="UTF-8" standalone="no"?>
<!-- Created with Inkscape (http://www.inkscape.org/) -->

<svg
   width="1024"
   height="1024"
   viewBox="0 0 1024 1024"
   version="2"
   id="svg82337"
   inkscape:version="1.3 (0e150ed6c4, 2023-07-21)"
   sodipodi:docname="ã¹.svg"
   xmlns:inkscape="http://www.inkscape.org/namespaces/inkscape"
   xmlns:sodipodi="http://sodipodi.sourceforge.net/DTD/sodipodi-0.dtd"
   xmlns:xlink="http://www.w3.org/1999/xlink"
   xmlns="http://www.w3.org/2000/svg"
   xmlns:svg="http://www.w3.org/2000/svg">
  <sodipodi:namedview
     id="namedview82339"
     pagecolor="#ffffff"
     bordercolor="#999999"
     borderopacity="1"
     inkscape:pageshadow="0"
     inkscape:pageopacity="0"
     inkscape:pagecheckerboard="0"
     inkscape:document-units="px"
     showgrid="false"
     units="px"
     inkscape:zoom="1.1808131"
     inkscape:cx="376.85897"
     inkscape:cy="401.84175"
     inkscape:window-width="1920"
     inkscape:window-height="1111"
     inkscape:window-x="-9"
     inkscape:window-y="-9"
     inkscape:window-maximized="1"
     inkscape:current-layer="svg82337"
     viewbox-width="10.5832"
     scale-x="0.26458"
     inkscape:snap-global="true"
     inkscape:snap-bbox="false"
     inkscape:snap-page="true"
     inkscape:snap-midpoints="false"
     inkscape:object-paths="false"
     inkscape:snap-others="true"
     inkscape:snap-center="true"
     inkscape:bbox-nodes="false"
     inkscape:snap-nodes="true"
     inkscape:snap-grids="false"
     inkscape:showpageshadow="0"
     inkscape:deskcolor="#d1d1d1" />
  <defs
     id="defs82334">
    <clipPath
       id="clipPath2726">
      <use
         id="clone6811"
         xlink:href="#path2" />
    </clipPath>
    <clipPath
       id="clipPath5874">
      <use
         id="clone4451"
         xlink:href="#path1" />
    </clipPath>
    <clipPath
       id="clipPath2479">
      <use
         id="clone4286"
         xlink:href="#flowRoot1" />
    </clipPath>
  </defs>
  <g
     id="g1">
    <path
       style="font-weight:600;font-size:1024px;line-height:1;font-family:'Klee One';fill:#f66d6d"
       d="m 336.896,403.456 q -43.008,37.888 -90.112,81.92 -47.104,43.008 -96.256,72.704 -16.384,10.24 -31.744,8.192 -15.36,-3.072 -21.504,5.12 -1.024,1.024 -1.024,4.096 0,4.096 9.216,17.408 9.216,13.312 23.552,24.576 14.336,11.264 29.696,11.264 8.192,0 14.336,-3.072 7.168,-3.072 15.36,-7.168 32.768,-19.456 66.56,-49.152 34.816,-29.696 68.608,-63.488 34.816,-33.792 67.584,-63.488 20.48,-18.432 31.744,-18.432 11.264,0 32.768,18.432 21.504,17.408 62.464,54.272 41.984,36.864 97.28,84.992 55.296,48.128 121.856,99.328 66.56,51.2 138.24,98.304 8.192,4.096 16.384,8.192 9.216,3.072 18.432,3.072 26.624,0 26.624,-27.648 0,-14.336 -5.12,-28.672 -4.096,-15.36 -9.216,-20.48 -7.168,-7.168 -18.432,-8.192 -10.24,-2.048 -25.6,-11.264 -82.944,-52.224 -177.152,-128 Q 608.256,490.496 498.688,394.24 479.232,376.832 460.8,366.592 q -17.408,-10.24 -36.864,-10.24 -17.408,0 -38.912,11.264 -21.504,10.24 -48.128,35.84 z"
       id="path2" />
    <path
       style="font-weight:600;font-size:1024px;line-height:1;font-family:'Klee One';fill:#f5d36c"
       d="m 752.64,418.816 q 8.192,-13.312 8.192,-21.504 0,-6.144 -5.12,-14.336 -2.048,-3.072 -16.384,-17.408 -14.336,-14.336 -33.792,-31.744 -19.456,-17.408 -37.888,-30.72 -17.408,-13.312 -26.624,-13.312 -10.24,0 -18.432,8.192 -7.168,8.192 -7.168,18.432 0,9.216 7.168,15.36 17.408,13.312 40.96,37.888 23.552,24.576 46.08,50.176 10.24,10.24 20.48,10.24 8.192,0 13.312,-3.072 6.144,-4.096 9.216,-8.192 z"
       id="path1" />
    <path
       style="font-weight:600;font-size:1024px;line-height:1;font-family:'Klee One';fill:#b2f46b"
       d="m 804.864,370.688 q 17.408,0 24.576,-14.336 7.168,-15.36 7.168,-18.432 0,-4.096 -5.12,-12.288 -5.12,-8.192 -27.648,-28.672 -21.504,-20.48 -73.728,-58.368 -6.144,-5.12 -15.36,-5.12 -11.264,0 -20.48,8.192 -8.192,8.192 -8.192,17.408 0,8.192 7.168,14.336 17.408,13.312 43.008,38.912 26.624,24.576 49.152,49.152 9.216,9.216 19.456,9.216 z"
       id="flowRoot1" />
  </g>
  <g
     id="g3">
    <path
       style="font-variation-settings:normal;opacity:1;vector-effect:none;fill:none;fill-opacity:1;stroke:#000000;stroke-width:128;stroke-linecap:round;stroke-linejoin:miter;stroke-miterlimit:4;stroke-dasharray:none;stroke-dashoffset:0;stroke-opacity:1;-inkscape-stroke:none;stop-color:#000000;stop-opacity:1"
       d="M 29.94152,574.87719 C 259.69975,646.08336 322.12652,375.88052 420.1309,383.54358 L 888.66433,741.35205"
       id="path3"
       sodipodi:nodetypes="ccc"
       clip-path="url(#clipPath2726)" />
    <path
       style="font-variation-settings:normal;opacity:1;vector-effect:none;fill:none;fill-opacity:1;stroke:#000000;stroke-width:128;stroke-linecap:round;stroke-linejoin:miter;stroke-miterlimit:4;stroke-dasharray:none;stroke-dashoffset:0;stroke-opacity:1;-inkscape-stroke:none;stop-color:#000000;stop-opacity:1"
       d="M 563.80765,263.04948 710.21286,377.26315"
       id="path4"
       sodipodi:nodetypes="cc"
       clip-path="url(#clipPath5874)" />
    <path
       style="font-variation-settings:normal;opacity:1;vector-effect:none;fill:none;fill-opacity:1;stroke:#000000;stroke-width:128;stroke-linecap:round;stroke-linejoin:miter;stroke-miterlimit:4;stroke-dasharray:none;stroke-dashoffset:0;stroke-opacity:1;-inkscape-stroke:none;stop-color:#000000;stop-opacity:1"
       d="M 641.62034,200.85623 780.29365,321.58956"
       id="path5"
       sodipodi:nodetypes="cc"
       clip-path="url(#clipPath2479)" />
  </g>
</svg>
