<?xml version="1.0" encoding="UTF-8" standalone="no"?>
<!-- Created with Inkscape (http://www.inkscape.org/) -->

<svg
   width="1024"
   height="1024"
   viewBox="0 0 1024 1024"
   version="2"
   id="svg82337"
   inkscape:version="1.3 (0e150ed6c4, 2023-07-21)"
   sodipodi:docname="ã½.svg"
   xmlns:inkscape="http://www.inkscape.org/namespaces/inkscape"
   xmlns:sodipodi="http://sodipodi.sourceforge.net/DTD/sodipodi-0.dtd"
   xmlns:xlink="http://www.w3.org/1999/xlink"
   xmlns="http://www.w3.org/2000/svg"
   xmlns:svg="http://www.w3.org/2000/svg">
  <sodipodi:namedview
     id="namedview82339"
     pagecolor="#ffffff"
     bordercolor="#999999"
     borderopacity="1"
     inkscape:pageshadow="0"
     inkscape:pageopacity="0"
     inkscape:pagecheckerboard="0"
     inkscape:document-units="px"
     showgrid="false"
     units="px"
     inkscape:zoom="0.59040654"
     inkscape:cx="475.09636"
     inkscape:cy="703.75236"
     inkscape:window-width="1920"
     inkscape:window-height="1111"
     inkscape:window-x="-9"
     inkscape:window-y="-9"
     inkscape:window-maximized="1"
     inkscape:current-layer="g7"
     viewbox-width="10.5832"
     scale-x="0.26458"
     inkscape:snap-global="true"
     inkscape:snap-bbox="false"
     inkscape:snap-page="true"
     inkscape:snap-midpoints="false"
     inkscape:object-paths="false"
     inkscape:snap-others="true"
     inkscape:snap-center="true"
     inkscape:bbox-nodes="false"
     inkscape:snap-nodes="true"
     inkscape:snap-grids="false"
     inkscape:showpageshadow="0"
     inkscape:deskcolor="#d1d1d1" />
  <defs
     id="defs82334">
    <clipPath
       id="clipPath8059">
      <use
         id="clone3987"
         xlink:href="#path2" />
    </clipPath>
    <clipPath
       id="clipPath4955">
      <use
         id="clone4626"
         xlink:href="#path13" />
    </clipPath>
    <clipPath
       id="clipPath7942">
      <use
         id="clone5061"
         xlink:href="#path3" />
    </clipPath>
    <clipPath
       id="clipPath3974">
      <use
         id="clone2377"
         xlink:href="#path4" />
    </clipPath>
    <clipPath
       id="clipPath4409">
      <use
         id="clone6660"
         xlink:href="#path6" />
    </clipPath>
    <clipPath
       id="clipPath9723">
      <use
         id="clone8992"
         xlink:href="#flowRoot1" />
    </clipPath>
  </defs>
  <g
     id="g6">
    <path
       style="font-weight:600;font-size:1024px;line-height:1;font-family:'Klee One';fill:#f66d6d"
       d="m 315.392,635.904 h -4.096 q -9.216,0 -15.36,13.312 -3.072,6.144 -13.312,26.624 -10.24,20.48 -23.552,46.08 -13.312,25.6 -25.6,48.128 -1.024,-8.192 -1.024,-18.432 0,-10.24 0,-20.48 0,-48.128 4.096,-110.592 4.096,-62.464 10.24,-130.048 7.168,-67.584 15.36,-132.096 8.192,-65.536 17.408,-117.76 1.024,-4.096 1.024,-8.192 1.024,-5.12 1.024,-9.216 0,-14.336 -10.24,-22.528 -9.216,-8.192 -22.528,-11.264 -13.312,-4.096 -23.552,-5.12 -10.24,-2.048 -10.24,-2.048 -8.192,0 -9.216,4.096 v 1.024 q 0,4.096 5.12,12.288 5.12,8.192 6.144,16.384 1.024,4.096 1.024,11.264 0,5.12 -1.024,8.192 -1.024,4.096 -5.12,36.864 -4.096,32.768 -10.24,81.92 -5.12,48.128 -11.264,102.4 -5.12,54.272 -10.24,103.424 -4.096,48.128 -5.12,79.872 v 33.792 q 0,87.04 5.12,136.192 5.12,48.128 13.312,68.608 8.192,20.48 17.408,24.576 10.24,5.12 20.48,5.12 9.216,0 17.408,-4.096 8.192,-4.096 11.264,-17.408 1.024,-3.072 7.168,-26.624 7.168,-23.552 16.384,-56.32 9.216,-33.792 17.408,-66.56 9.216,-33.792 15.36,-57.344 6.144,-24.576 6.144,-28.672 0,-14.336 -7.168,-15.36 z"
       id="path2" />
    <path
       style="font-weight:600;font-size:1024px;line-height:1;font-family:'Klee One';fill:#f7eb63;fill-opacity:1"
       d="m 681.984,251.904 c 11.60533,-1.36533 23.89333,-2.38933 36.864,-3.072 13.65333,-0.68267 27.98933,-1.024 43.008,-1.024 10.92267,-0.68267 19.456,-2.73067 25.6,-6.144 6.82667,-3.41333 10.24,-8.53333 10.24,-15.36 0,-0.68267 -0.34133,-1.36533 -1.024,-2.048 v -3.072 c -2.73067,-7.50933 -8.87467,-14.67733 -18.432,-21.504 -8.87467,-7.50933 -17.06667,-11.60533 -24.576,-12.288 h -5.12 c -6.82667,0 -12.62933,1.36533 -17.408,4.096 -4.77867,2.048 -10.92267,3.072 -18.432,3.072 -37.54667,2.048 -70.99733,5.80267 -100.352,11.264 -28.672,4.77867 -56.32,9.89867 -82.944,15.36 -25.94133,5.46133 -53.93067,10.24 -83.968,14.336 -1.36533,0 -2.73067,0.34133 -4.096,1.024 h -4.096 c -6.82667,0 -12.62933,-1.024 -17.408,-3.072 -4.77867,-2.048 -9.216,-3.072 -13.312,-3.072 -2.048,0 -3.41333,0.34133 -4.096,1.024 -3.41333,1.36533 -5.12,3.75467 -5.12,7.168 0,5.46133 2.38933,12.288 7.168,20.48 5.46133,8.192 12.288,15.70133 20.48,22.528 8.192,6.144 16.384,9.216 24.576,9.216 4.77867,0 9.55733,-0.68267 14.336,-2.048 5.46133,-1.36533 10.92267,-2.38933 16.384,-3.072 30.03733,-5.46133 56.32,-10.58133 78.848,-15.36 23.21067,-4.77867 46.76267,-8.87467 70.656,-12.288 z"
       id="path13"
       sodipodi:nodetypes="ccccsccccsccccccssscsccsccccc" />
    <path
       id="path3"
       style="font-weight:600;font-size:1024px;line-height:1;font-family:'Klee One';fill:#b2f46b;fill-opacity:1"
       d="m 651.26367,419.83984 c -35.49863,5.46133 -62.80527,8.87491 -81.91992,10.24024 -19.11465,0.68266 -35.1563,1.02344 -48.12695,1.02344 -27.30664,0 -45.05606,-2.04659 -53.24805,-6.14258 -5.46133,-2.73067 -13.65352,-4.09766 -24.57617,-4.09766 -5.46133,0 -9.21568,1.02427 -11.26367,3.07227 -2.048,2.73066 -3.07227,6.14424 -3.07227,10.24023 0,4.096 3.07085,10.58237 9.21484,19.45703 6.144,8.19199 18.43326,15.70069 36.86524,22.52735 19.11465,6.82666 47.44556,10.24023 84.99219,10.24023 10.92265,0 24.23423,-0.6835 39.93554,-2.04883 16.38399,-1.36533 34.1334,-3.41386 53.24805,-6.14453 l 58.36719,-9.21484 c 47.78662,-8.19199 82.26118,-15.35991 103.42383,-21.50391 21.84531,-6.14399 35.49961,-11.6061 40.96093,-16.38476 6.144,-5.46133 9.21485,-10.23995 9.21485,-14.33594 0,-1.36533 -0.34077,-2.3896 -1.02344,-3.07227 v -3.07226 c -2.048,-7.50933 -8.53242,-14.67725 -19.45508,-21.50391 -10.23999,-7.50933 -21.50498,-11.26367 -33.79297,-11.26367 h -4.0957 c -5.46133,0.68266 -9.89917,2.7312 -13.3125,6.14453 -2.73066,2.73066 -7.16851,5.46074 -13.3125,8.19141 -4.096,1.36533 -12.62896,3.75464 -25.59961,7.16797 -12.28799,3.41332 -27.30537,6.8269 -45.05469,10.24023 z"
       sodipodi:nodetypes="ccssscsccscccccscccscscccc" />
    <g
       id="g11">
      <path
         id="path4"
         style="font-weight:600;font-size:1024px;line-height:1;font-family:'Klee One';fill:#6af387;fill-opacity:1"
         d="m 654.91797,251.54688 c -14.58017,0.18576 -25.76964,1.64277 -25.1582,7.52539 1.36532,4.77865 4.43814,9.89805 9.21679,15.35937 4.77866,5.46133 7.50874,10.58267 8.19141,15.36133 1.36533,11.60531 2.04883,29.01204 2.04883,52.22265 0.68266,23.21063 1.36421,49.15228 2.04687,77.82422 l 2.04883,58.36719 3.07227,185.3457 v 27.64649 c 0,8.87465 -0.6835,17.75035 -2.04883,26.625 -2.34704,20.24558 -9.34519,37.69497 -16.38477,53.24805 -10.23998,23.21061 -26.28166,39.9358 -48.12695,50.17578 -21.84529,10.23998 -43.69182,15.35937 -65.53711,15.35937 h -3.07031 c -19.7973,-0.68266 -37.88948,-4.77779 -54.27344,-12.28711 -15.7013,-7.50931 -23.55078,-16.38502 -23.55078,-26.625 0.28412,-12.55235 -57.27988,-14.37976 -57.34375,3.07227 0,23.21061 11.94656,44.37365 35.83984,63.48828 24.57596,19.11463 61.4399,28.67187 110.5918,28.67187 h 9.21484 c 36.86394,-1.36532 68.2677,-10.23908 94.20899,-26.62304 25.94127,-17.06664 46.08005,-40.9617 60.41601,-71.68164 1.61794,-5.02919 11.06044,-21.82952 18.43164,-56.31836 1.36534,-7.50932 2.3896,-15.36076 3.07227,-23.55274 0.68266,-8.19198 1.02344,-16.04342 1.02344,-23.55273 0,-5.46133 -0.34078,-10.9215 -1.02344,-16.38281 v -15.36133 c -0.68267,-19.7973 -1.70693,-47.104 -3.07227,-81.91992 -0.68266,-34.81594 -1.70693,-70.99638 -3.07226,-108.54297 l -2.04688,-59.39258 c -0.68266,-32.08527 -1.70693,-60.07351 -3.07226,-83.9668 -0.68267,-23.89328 -1.02539,-38.23111 -1.02539,-43.00976 0,-9.55732 -1.36504,-16.38252 -4.09571,-20.47852 -2.73065,-4.09598 -8.87432,-7.50958 -18.43164,-10.24023 -9.3731,-0.12292 -19.34174,-0.46888 -28.08984,-0.35742 z"
         sodipodi:nodetypes="scscccccsccsscccccsccccssccccccsscs" />
      <path
         id="path6"
         style="font-weight:600;font-size:1024px;line-height:1;font-family:'Klee One';display:inline;fill:#69f2ea;fill-opacity:1"
         d="m 527.35938,701.43945 c -45.73859,0 -80.55398,10.24075 -104.44727,30.72071 -23.89329,20.47996 -36.18062,43.00804 -36.86328,67.58398 v 1.02344 c 0.96097,23.72197 60.40237,14.55903 57.34375,-3.07227 0,-13.6533 7.84948,-24.23482 23.55078,-31.74414 16.38396,-7.50931 36.18195,-11.26367 59.39258,-11.26367 h 4.0957 c 17.7493,0 35.15798,1.02427 52.22461,3.07227 17.7493,2.04798 36.18029,6.48584 55.29492,13.3125 l 58.36914,23.55078 c 25.94129,12.28796 50.17517,26.28307 72.70313,41.98437 22.52794,15.01864 40.62013,30.37878 54.27344,46.08008 10.23996,10.92265 19.11373,16.38477 26.62304,16.38477 6.144,0 11.26338,-2.04854 15.35938,-6.14454 4.09598,-4.09598 7.50957,-8.53383 10.24023,-13.3125 4.096,-9.55731 6.14453,-17.74951 6.14453,-24.57617 0,-10.23998 -7.50871,-21.50305 -22.52734,-33.79101 -14.33598,-12.97065 -31.74465,-25.25798 -52.22461,-36.86328 -20.47996,-11.60532 -39.59446,-21.50529 -57.34375,-29.69727 -17.06663,-8.87465 -28.67241,-14.33481 -34.81641,-16.38281 -17.96473,-7.06837 -37.39138,-13.97432 -60.41601,-20.48047 -19.7973,-5.46133 -40.27683,-9.21569 -61.43946,-11.26367 -20.47996,-2.73067 -40.61872,-4.43843 -60.41601,-5.1211 z"
         sodipodi:nodetypes="ssccccsscccccsscscscccccs" />
    </g>
    <path
       id="flowRoot1"
       style="font-weight:600;font-size:1024px;line-height:1;font-family:'Klee One';fill:#d263f7;fill-opacity:1"
       d="M 909.3125 80.896484 C 882.00586 80.896484 858.79434 90.453712 839.67969 109.56836 C 821.24771 128.68301 812.03125 152.2353 812.03125 180.22461 C 812.03125 207.53125 821.24771 231.08355 839.67969 250.88086 C 858.79434 269.99551 882.00586 279.55273 909.3125 279.55273 C 937.30181 279.55273 961.19487 269.99551 980.99219 250.88086 C 1000.7895 231.08355 1010.6875 207.53125 1010.6875 180.22461 C 1010.6875 152.2353 1000.7895 128.68301 980.99219 109.56836 C 961.19487 90.453712 937.30181 80.896484 909.3125 80.896484 z M 909.3125 125.95117 C 924.33115 125.95117 936.95923 131.41328 947.19922 142.33594 C 958.12187 152.57593 963.58398 165.20596 963.58398 180.22461 C 963.58398 193.19526 958.12187 205.1418 947.19922 216.06445 C 936.95923 226.98711 924.33115 232.44727 909.3125 232.44727 C 895.65918 232.44727 883.36992 226.98711 872.44727 216.06445 C 862.20728 205.1418 857.08789 193.19526 857.08789 180.22461 C 857.08789 165.20596 862.20728 152.57593 872.44727 142.33594 C 883.36992 131.41328 895.65918 125.95117 909.3125 125.95117 z " />
  </g>
  <g
     id="g7">
    <path
       style="font-variation-settings:normal;opacity:1;vector-effect:none;fill:none;fill-opacity:1;stroke:#000000;stroke-width:128;stroke-linecap:round;stroke-linejoin:miter;stroke-miterlimit:4;stroke-dasharray:none;stroke-dashoffset:0;stroke-opacity:1;-inkscape-stroke:none;stop-color:#000000;stop-opacity:1"
       d="M 164.45757,131.34437 C 364.42319,195.94835 78.156022,732.59697 200.238,896.28339 L 291.87668,688.29636"
       id="path7"
       sodipodi:nodetypes="ccc"
       clip-path="url(#clipPath8059)" />
    <path
       style="font-variation-settings:normal;display:inline;opacity:1;vector-effect:none;fill:none;fill-opacity:1;stroke:#000000;stroke-width:128;stroke-linecap:round;stroke-linejoin:miter;stroke-miterlimit:4;stroke-dasharray:none;stroke-dashoffset:0;stroke-opacity:1;-inkscape-stroke:none;stop-color:#000000;stop-opacity:1"
       d="m 330.68509,231.99541 409.7225,8.38363"
       id="path8"
       sodipodi:nodetypes="cc"
       clip-path="url(#clipPath4955)" />
    <path
       style="font-variation-settings:normal;opacity:1;vector-effect:none;fill:none;fill-opacity:1;stroke:#000000;stroke-width:128;stroke-linecap:round;stroke-linejoin:miter;stroke-miterlimit:4;stroke-dasharray:none;stroke-dashoffset:0;stroke-opacity:1;-inkscape-stroke:none;stop-color:#000000;stop-opacity:1"
       d="m 361.76407,438.19856 446.16089,-8.58912"
       id="path9"
       sodipodi:nodetypes="cc"
       clip-path="url(#clipPath7942)" />
    <g
       id="g12">
      <path
         style="font-variation-settings:normal;opacity:1;vector-effect:none;fill:none;fill-opacity:1;stroke:#000000;stroke-width:128;stroke-linecap:round;stroke-linejoin:miter;stroke-miterlimit:4;stroke-dasharray:none;stroke-dashoffset:0;stroke-opacity:1;-inkscape-stroke:none;stop-color:#000000;stop-opacity:1"
         d="m 579.30871,212.40246 c 178.71787,93.16993 113.00825,650.21547 -18.8191,650.65768 0,0 -182.14742,20.10992 -131.97132,-65.30475 50.02389,-85.15558 164.22306,-103.0633 396.26656,56.14903"
         id="path10"
         sodipodi:nodetypes="ccsc"
         clip-path="url(#clipPath3974)" />
      <path
         style="font-variation-settings:normal;opacity:1;vector-effect:none;fill:none;fill-opacity:1;stroke:#000000;stroke-width:128;stroke-linecap:round;stroke-linejoin:miter;stroke-miterlimit:4;stroke-dasharray:none;stroke-dashoffset:0;stroke-opacity:1;-inkscape-stroke:none;stop-color:#000000;stop-opacity:1"
         d="m 1206.4331,943.47545 c -109.6924,169.08075 -658.00022,50.86028 -645.94349,-80.41531 0,0 -182.14742,20.10992 -131.97132,-65.30475 50.02389,-85.15558 164.22306,-103.0633 396.26656,56.14903"
         id="path11"
         sodipodi:nodetypes="ccsc"
         clip-path="url(#clipPath4409)" />
    </g>
    <path
       style="font-variation-settings:normal;vector-effect:none;fill:none;fill-opacity:1;stroke:#000000;stroke-width:128;stroke-linecap:round;stroke-linejoin:miter;stroke-miterlimit:4;stroke-dasharray:none;stroke-dashoffset:0;stroke-opacity:1;-inkscape-stroke:none;stop-color:#000000"
       d="M 928.78597,11.377775 C 789.03109,98.647301 754.58652,202.97032 918.00702,252.1076 1002.1157,277.3974 1034.3183,124.68001 940.80407,130.0427"
       id="path11-3"
       sodipodi:nodetypes="csc"
       clip-path="url(#clipPath9723)" />
  </g>
</svg>
