<?xml version="1.0" encoding="UTF-8" standalone="no"?>
<!-- Created with Inkscape (http://www.inkscape.org/) -->

<svg
   width="1024"
   height="1024"
   viewBox="0 0 1024 1024"
   version="2"
   id="svg82337"
   inkscape:version="1.3 (0e150ed6c4, 2023-07-21)"
   sodipodi:docname="ã¾.svg"
   xmlns:inkscape="http://www.inkscape.org/namespaces/inkscape"
   xmlns:sodipodi="http://sodipodi.sourceforge.net/DTD/sodipodi-0.dtd"
   xmlns:xlink="http://www.w3.org/1999/xlink"
   xmlns="http://www.w3.org/2000/svg"
   xmlns:svg="http://www.w3.org/2000/svg">
  <sodipodi:namedview
     id="namedview82339"
     pagecolor="#ffffff"
     bordercolor="#999999"
     borderopacity="1"
     inkscape:pageshadow="0"
     inkscape:pageopacity="0"
     inkscape:pagecheckerboard="0"
     inkscape:document-units="px"
     showgrid="false"
     units="px"
     inkscape:zoom="0.29520327"
     inkscape:cx="504.73695"
     inkscape:cy="438.68078"
     inkscape:window-width="1920"
     inkscape:window-height="1111"
     inkscape:window-x="-9"
     inkscape:window-y="-9"
     inkscape:window-maximized="1"
     inkscape:current-layer="svg82337"
     viewbox-width="10.5832"
     scale-x="0.26458"
     inkscape:snap-global="true"
     inkscape:snap-bbox="false"
     inkscape:snap-page="true"
     inkscape:snap-midpoints="false"
     inkscape:object-paths="false"
     inkscape:snap-others="true"
     inkscape:snap-center="true"
     inkscape:bbox-nodes="false"
     inkscape:snap-nodes="true"
     inkscape:snap-grids="false"
     inkscape:showpageshadow="0"
     inkscape:deskcolor="#d1d1d1" />
  <defs
     id="defs82334">
    <clipPath
       id="clipPath2021">
      <use
         id="clone6071"
         xlink:href="#path1" />
    </clipPath>
    <clipPath
       id="clipPath5906">
      <use
         id="clone2929"
         xlink:href="#path2" />
    </clipPath>
    <clipPath
       id="clipPath6575">
      <use
         id="clone5287"
         xlink:href="#path3" />
    </clipPath>
    <clipPath
       id="clipPath7618">
      <use
         id="clone6109"
         xlink:href="#flowRoot1" />
    </clipPath>
  </defs>
  <g
     id="g4">
    <path
       id="path1"
       style="font-weight:600;font-size:1024px;line-height:1;font-family:'Klee One';fill:#f66d6d;fill-opacity:1"
       d="m 524.28711,275.45508 c -47.10395,6.14399 -93.52505,13.31387 -139.26367,21.50586 -45.05596,7.50932 -82.2606,14.67724 -111.61524,21.5039 l -8.1914,2.04688 h -8.19336 c -3.41333,0 -7.84922,-0.34077 -13.31055,-1.02344 -5.46133,-1.36533 -10.23994,-2.04883 -14.33594,-2.04883 -3.41333,0 -5.80459,0.34273 -7.16992,1.02539 -2.73066,2.048 -4.0957,4.43731 -4.0957,7.16797 0,4.77866 2.73203,11.26309 8.19336,19.45508 5.46133,8.19199 12.28652,15.70068 20.47851,22.52734 8.19199,6.144 16.38418,9.2168 24.57618,9.2168 4.77866,0 9.55727,-0.68349 14.33593,-2.04883 4.77866,-2.04799 9.55728,-3.41303 14.33594,-4.0957 30.0373,-7.50933 64.85459,-14.67725 104.44922,-21.50391 39.59463,-6.82666 80.21284,-12.97031 121.85547,-18.43164 l 61.43945,-7.16797 c 27.98931,-3.41333 55.29595,-5.80263 81.91992,-7.16796 27.30664,-1.36534 52.22398,-2.04883 74.75196,-2.04883 11.60532,0 20.82177,-1.36504 27.64843,-4.09571 7.50933,-3.41333 11.26368,-8.53271 11.26368,-15.35937 v -4.0957 c -2.048,-8.192 -8.53243,-16.38418 -19.45508,-24.57618 -10.23999,-8.19199 -19.45645,-12.62983 -27.64844,-13.3125 h -5.11914 c -6.82666,0 -12.97227,1.02427 -18.4336,3.07227 -5.46132,1.36533 -11.60498,2.3896 -18.43164,3.07227 -3.41333,0 -7.16767,0.34077 -11.26367,1.02343 h -13.3125 c -12.28799,0.68267 -25.59956,1.70694 -39.93554,3.07227 -13.65332,1.36533 -28.32994,3.07114 -44.03125,5.11914 z"
       sodipodi:nodetypes="ccccscscsscsccscccscscccsccccccc" />
    <path
       id="path2"
       style="font-weight:600;font-size:1024px;line-height:1;font-family:'Klee One';fill:#f5d36c;fill-opacity:1"
       d="m 530.43164,481.2793 c -32.0853,4.09599 -57.34341,7.1688 -75.77539,9.21679 -17.74932,2.048 -32.08516,3.41304 -43.00781,4.09571 h -29.69727 c -27.30664,0 -49.49194,-1.70581 -66.55859,-5.11914 -6.82666,-1.36534 -14.33731,-2.04883 -22.5293,-2.04883 -7.50932,0 -12.62871,1.02427 -15.35937,3.07226 -2.73067,2.048 -4.09571,5.80235 -4.09571,11.26368 0,10.92265 5.46211,19.45561 16.38477,25.59961 11.60532,6.14399 25.59844,10.9226 41.98242,14.33593 16.38398,2.73067 32.42759,4.7792 48.12891,6.14453 16.38398,0.68267 29.35478,1.02344 38.91211,1.02344 h 20.48047 8.1914 c 2.73067,-0.68266 5.46074,-1.02344 8.19141,-1.02344 9.55732,-1.36533 20.82231,-2.3896 33.79297,-3.07226 12.97065,-1.36533 27.30649,-3.07114 43.00781,-5.11914 l 61.43945,-9.2168 c 45.05596,-6.82666 80.55479,-12.62954 106.4961,-17.4082 25.9413,-5.46133 44.71499,-10.23994 56.32031,-14.33594 11.60532,-4.096 18.77324,-7.85034 21.5039,-11.26367 3.41333,-3.41333 5.11914,-6.48613 5.11915,-9.2168 0,-1.36533 -0.34078,-2.38765 -1.02344,-3.07031 v -3.07227 c -2.73067,-7.50932 -9.89859,-14.67724 -21.50391,-21.5039 -10.92265,-7.50933 -23.55268,-11.26367 -37.88867,-11.26367 h -4.0957 c -6.82666,0.68266 -11.94605,2.38847 -15.35938,5.11914 -2.73066,2.73066 -7.85005,5.80346 -15.35937,9.21679 -4.77867,2.048 -15.70289,4.43731 -32.76953,7.16797 -17.06665,2.73067 -38.22964,6.14229 -63.48829,10.23828 z"
       sodipodi:nodetypes="cccssssscccsccccccscssccccsccscc" />
    <g
       id="g3">
      <path
         id="path3"
         style="font-weight:600;font-size:1024px;line-height:1;font-family:'Klee One';fill:#b2f46b;fill-opacity:1"
         d="m 516.0957,116.73633 c -10.23998,0 -15.70014,3.07086 -16.38281,9.21484 v 1.02539 c 0,4.096 1.70581,7.85035 5.11914,11.26367 3.41333,3.41333 6.48613,6.82691 9.2168,10.24024 2.73066,2.048 4.43647,6.82661 5.11914,14.33594 1.36533,6.82665 2.38961,19.11398 3.07226,36.86328 0.68267,17.06663 1.36421,42.32478 2.04688,75.77539 l 2.04883,55.29687 c 0.68266,23.21063 1.36616,47.44451 2.04883,72.70313 0.68265,25.25861 1.3642,51.20026 2.04687,77.82422 l 2.04883,58.36914 6.14258,149.5039 v 13.3125 c 0,12.97065 -1.02232,25.25798 -3.07032,36.86328 -5.6893,24.8048 -11.94943,41.61815 -18.43359,55.29493 -11.60531,21.16262 -27.30621,38.5713 -47.10352,52.22461 -19.79729,12.97063 -41.64187,20.82207 -65.53515,23.55273 -2.048,0 -4.43731,0.34077 -7.16797,1.02344 h -7.16797 c -12.97064,0 -27.99001,-1.70582 -45.05664,-5.11914 -16.38396,-3.41333 -30.71983,-8.53468 -43.00781,-15.36133 -11.60531,-7.50932 -17.40821,-16.72385 -17.4082,-27.64648 0.27388,-17.96017 -62.7463,-20.09404 -63.48829,0 v 3.07031 c 0,19.79729 7.85143,37.54675 23.55274,53.24804 16.38396,15.70131 37.547,27.64787 63.48828,35.83985 26.62394,8.87465 54.61219,13.3125 83.9668,13.3125 h 15.36132 c 38.22927,-2.048 72.36117,-12.62951 102.39844,-31.74414 30.71994,-19.7973 54.27229,-47.104 70.65625,-81.91992 7.58918,-13.85955 11.29825,-30.98778 17.4082,-59.39063 1.36534,-6.14398 2.04883,-12.28961 2.04883,-18.43359 v -20.47852 -15.36133 c 0,-5.46131 -0.34272,-10.58072 -1.02539,-15.35937 -0.68266,-13.65331 -1.36421,-34.47556 -2.04687,-62.46485 -0.68267,-27.98927 -1.70694,-59.05032 -3.07227,-93.18359 l -2.04883,-59.39258 -4.0957,-147.45508 -2.04687,-55.29687 c -0.68267,-27.98928 -1.36617,-51.53967 -2.04883,-70.6543 v -34.8164 -5.1211 c 0,-9.55731 -2.04855,-17.06602 -6.14453,-22.52734 -4.096,-5.46133 -16.7241,-10.58071 -37.88672,-15.35938 -2.73067,-0.68266 -6.48502,-1.36617 -11.26367,-2.04882 -4.096,-0.68267 -8.19307,-1.02344 -12.28907,-1.02344 z"
         sodipodi:nodetypes="scsscccccscccscccccsccccsccsccccscscsccccccssccs" />
      <path
         id="flowRoot1"
         style="font-weight:600;font-size:1024px;line-height:1;font-family:'Klee One';fill:#6af387"
         d="m 393.2168,720.89648 c -14.33598,0 -31.06311,2.0466 -50.17774,6.14258 -19.11463,3.41333 -37.8864,9.21621 -56.31836,17.40821 -18.43196,7.50931 -33.7921,18.09083 -46.08008,31.74414 -12.28796,12.97063 -18.77436,28.67349 -19.45703,47.10547 0.57509,22.86474 62.21633,19.56799 63.48829,0 0,-11.60532 6.14366,-20.82179 18.43164,-27.64844 12.28796,-6.82666 26.96657,-11.60528 44.0332,-14.33594 17.06663,-3.41333 32.76755,-5.12109 47.10351,-5.12109 h 9.21485 c 18.43196,0 36.52413,1.70776 54.27344,5.12109 18.43196,2.73066 38.228,7.16655 59.39062,13.31055 24.30495,7.6081 43.47509,13.24788 63.48828,20.48047 30.03728,10.92263 59.3925,24.57697 88.06446,40.96093 28.67194,15.70131 50.51652,32.76726 65.53515,51.19922 5.46133,6.82666 10.58267,11.2645 15.36133,13.3125 4.77865,2.73067 9.2165,4.0957 13.3125,4.09571 10.92265,0 19.45561,-5.1194 25.59961,-15.35938 6.82665,-10.23998 10.24023,-20.48072 10.24023,-30.7207 0,-10.23998 -5.46212,-20.48073 -16.38476,-30.72071 -10.92265,-10.92264 -24.91774,-21.16143 -41.98438,-30.71875 -17.06663,-10.23998 -35.15685,-19.45645 -54.27148,-27.64843 -18.43196,-8.192 -35.84065,-15.01915 -52.22461,-20.48047 -15.70131,-6.144 -27.64785,-10.57989 -35.83985,-13.31055 -31.3335,-9.53096 -48.46101,-13.56283 -62.46289,-16.38477 -23.21061,-5.46131 -46.76296,-9.89917 -70.65625,-13.3125 -23.89328,-3.41331 -47.7864,-5.11914 -71.67968,-5.11914 z"
         sodipodi:nodetypes="scccccscssccccccscsccccccss" />
    </g>
  </g>
  <g
     id="g5">
    <path
       style="font-variation-settings:normal;opacity:1;vector-effect:none;fill:none;fill-opacity:1;stroke:#000000;stroke-width:128;stroke-linecap:round;stroke-linejoin:miter;stroke-miterlimit:4;stroke-dasharray:none;stroke-dashoffset:0;stroke-opacity:1;-inkscape-stroke:none;stop-color:#000000;stop-opacity:1"
       d="m 150.74359,322.65902 575.87438,-12.7031"
       id="path4"
       sodipodi:nodetypes="cc"
       clip-path="url(#clipPath2021)" />
    <path
       style="font-variation-settings:normal;opacity:1;vector-effect:none;fill:none;fill-opacity:1;stroke:#000000;stroke-width:128;stroke-linecap:round;stroke-linejoin:miter;stroke-miterlimit:4;stroke-dasharray:none;stroke-dashoffset:0;stroke-opacity:1;-inkscape-stroke:none;stop-color:#000000;stop-opacity:1"
       d="M 205.7904,504.73695 728.31171,494.57446"
       id="path5"
       sodipodi:nodetypes="cc"
       clip-path="url(#clipPath5906)" />
    <g
       id="g7">
      <path
         style="font-variation-settings:normal;opacity:1;vector-effect:none;fill:none;fill-opacity:1;stroke:#000000;stroke-width:128;stroke-linecap:round;stroke-linejoin:miter;stroke-miterlimit:4;stroke-dasharray:none;stroke-dashoffset:0;stroke-opacity:1;-inkscape-stroke:none;stop-color:#000000;stop-opacity:1"
         d="m 455.56687,72.429011 c 180.8303,66.260799 139.10191,792.541739 20.37636,813.401279 0,0 -192.30556,61.12258 -210.02477,-77.91242 -11.49883,-90.22637 284.54969,-57.58744 477.63698,66.05618"
         id="path6"
         sodipodi:nodetypes="ccsc"
         clip-path="url(#clipPath6575)" />
      <path
         style="font-variation-settings:normal;opacity:1;vector-effect:none;fill:none;fill-opacity:1;stroke:#000000;stroke-width:128;stroke-linecap:round;stroke-linejoin:miter;stroke-miterlimit:4;stroke-dasharray:none;stroke-dashoffset:0;stroke-opacity:1;-inkscape-stroke:none;stop-color:#000000;stop-opacity:1"
         d="m 1279.3429,1014.6162 c -98.2267,165.6551 -804.61402,-8.2479 -803.39967,-128.78591 0,0 -192.30556,61.12258 -210.02477,-77.91242 -11.49883,-90.22637 284.54969,-57.58744 477.63698,66.05618"
         id="path7"
         sodipodi:nodetypes="ccsc"
         clip-path="url(#clipPath7618)" />
    </g>
  </g>
</svg>
