<?xml version="1.0" encoding="UTF-8" standalone="no"?>
<!-- Created with Inkscape (http://www.inkscape.org/) -->

<svg
   width="1024"
   height="1024"
   viewBox="0 0 1024 1024"
   version="2"
   id="svg82337"
   inkscape:version="1.3 (0e150ed6c4, 2023-07-21)"
   sodipodi:docname="ã¿.svg"
   xmlns:inkscape="http://www.inkscape.org/namespaces/inkscape"
   xmlns:sodipodi="http://sodipodi.sourceforge.net/DTD/sodipodi-0.dtd"
   xmlns:xlink="http://www.w3.org/1999/xlink"
   xmlns="http://www.w3.org/2000/svg"
   xmlns:svg="http://www.w3.org/2000/svg">
  <sodipodi:namedview
     id="namedview82339"
     pagecolor="#ffffff"
     bordercolor="#999999"
     borderopacity="1"
     inkscape:pageshadow="0"
     inkscape:pageopacity="0"
     inkscape:pagecheckerboard="0"
     inkscape:document-units="px"
     showgrid="false"
     units="px"
     inkscape:zoom="0.59040654"
     inkscape:cx="464.93387"
     inkscape:cy="693.58988"
     inkscape:window-width="1920"
     inkscape:window-height="1111"
     inkscape:window-x="-9"
     inkscape:window-y="-9"
     inkscape:window-maximized="1"
     inkscape:current-layer="svg82337"
     viewbox-width="10.5832"
     scale-x="0.26458"
     inkscape:snap-global="true"
     inkscape:snap-bbox="false"
     inkscape:snap-page="true"
     inkscape:snap-midpoints="false"
     inkscape:object-paths="false"
     inkscape:snap-others="true"
     inkscape:snap-center="true"
     inkscape:bbox-nodes="false"
     inkscape:snap-nodes="true"
     inkscape:snap-grids="false"
     inkscape:showpageshadow="0"
     inkscape:deskcolor="#d1d1d1" />
  <defs
     id="defs82334">
    <clipPath
       id="clipPath2447">
      <use
         id="clone5430"
         xlink:href="#flowRoot1" />
    </clipPath>
    <clipPath
       id="clipPath2293">
      <use
         id="clone8279"
         xlink:href="#path2" />
    </clipPath>
    <clipPath
       id="clipPath5472">
      <use
         id="clone3625"
         xlink:href="#path1" />
    </clipPath>
  </defs>
  <g
     id="g3"
     style="display:inline">
    <g
       id="g2"
       style="display:inline">
      <path
         id="flowRoot1"
         style="font-weight:600;font-size:1024px;line-height:1;font-family:'Klee One';fill:#f66d6d"
         d="m 524.28711,175.10352 c -5.46133,0 -9.89722,1.02426 -13.31055,3.07226 -2.048,0.68267 -9.55866,3.07197 -22.52929,7.16797 -12.97065,4.096 -28.67156,8.87461 -47.10352,14.33594 -18.43196,4.77865 -37.20568,9.55728 -56.32031,14.33593 -19.11463,4.77867 -36.52135,8.87574 -52.22266,12.28907 -15.7013,3.41332 -26.62555,5.11914 -32.76953,5.11914 -4.77866,0 -9.89806,-0.34077 -15.35937,-1.02344 -4.77867,-1.36533 -8.87379,-2.04883 -12.28711,-2.04883 -4.096,0 -6.82804,0.6835 -8.19336,2.04883 -0.68267,1.36533 -1.02344,2.73038 -1.02344,4.0957 0,4.77867 3.41358,11.9466 10.24023,21.50391 7.50933,8.87465 16.0423,17.06686 25.59961,24.57617 9.55732,7.50932 17.74952,11.26367 24.57617,11.26367 7.50933,0 17.40734,-2.38931 29.69532,-7.16796 l 139.26562,-41.98438 -148.48047,321.53711 -26.625,57.34375 c -12.28796,23.21062 -25.59958,46.76296 -39.93554,70.65625 -13.65331,23.21062 -28.67268,43.00666 -45.05664,59.39062 -15.70131,16.38398 -32.42648,25.25968 -50.17579,26.625 -2.73065,0 -6.48501,-2.38931 -11.26367,-7.16796 -4.77865,-4.77867 -7.16797,-12.28737 -7.16797,-22.52735 0.92945,-16.32204 -55.30235,-20.94002 -56.32031,-2.04883 0,12.28798 2.38931,25.25881 7.16797,38.91211 4.77866,12.97065 12.28932,24.57643 22.5293,34.81641 10.23998,9.55731 23.89235,15.3602 40.95898,17.4082 h 8.19141 c 8.87465,0 19.79889,-2.04853 32.76953,-6.14453 13.65331,-4.09598 29.01344,-12.97169 46.08008,-26.625 17.74929,-14.33596 36.86379,-36.18054 57.34375,-65.53516 20.47996,-30.03726 41.98376,-70.31479 64.51172,-120.83203 l 24.57617,-55.29687 20.48047,-45.05469 c 10.92264,-23.21062 23.20997,-49.83577 36.86328,-79.87305 14.33596,-30.71992 28.67183,-61.09749 43.00781,-91.13476 14.33598,-30.03727 27.3068,-55.97893 38.91211,-77.82422 11.60531,-22.52796 19.79752,-37.20655 24.57617,-44.0332 2.73067,-4.77867 4.0957,-9.21455 4.0957,-13.31055 0,-11.60531 -6.48444,-20.48102 -19.45507,-26.625 -12.28798,-6.82665 -24.23649,-10.24023 -35.8418,-10.24023 z"
         sodipodi:nodetypes="scscssscscscsscccccccscccccscccccccsccscs" />
      <path
         id="path2"
         style="font-weight:600;font-size:1024px;line-height:1;font-family:'Klee One';fill:#f5d36c;fill-opacity:1"
         d="m 344.06445,564.22461 c -53.93055,4.77865 -98.30517,17.74948 -133.12109,38.91211 -34.81594,20.47996 -60.75759,44.03231 -77.82422,70.65625 -17.06663,25.94128 -25.59961,50.17518 -25.59961,72.70312 -0.29897,31.42585 56.1446,24.27034 56.32031,2.04883 v -4.09765 c 0.68267,-2.048 1.02344,-3.75381 1.02344,-5.11915 2.73067,-16.38396 11.2656,-33.10914 25.60156,-50.17578 14.33598,-17.06663 32.76697,-31.74522 55.29493,-44.0332 22.52794,-12.97064 46.42107,-20.82012 71.67968,-23.55078 26.26491,-3.49683 51.02727,-3.64934 69.63282,-3.07227 53.24788,0.68267 103.7642,6.14479 151.55078,16.38477 48.46923,9.55731 94.20889,21.50388 137.21679,35.83984 18.52882,6.05163 36.99987,12.10446 56.32032,19.45508 66.11785,22.0393 75.77485,30.61156 163.83984,62.46484 6.14398,2.73067 12.28766,4.09571 18.43164,4.09571 8.19198,0 13.6541,-2.73008 16.38477,-8.19141 3.41332,-6.14398 5.11914,-12.97114 5.11914,-20.48047 -0.68267,-7.50931 -2.72925,-15.01998 -6.14258,-22.52929 -2.73067,-8.192 -7.85201,-15.01719 -15.36133,-20.47852 -4.77865,-3.41333 -9.55727,-5.46186 -14.33594,-6.14453 -4.09598,-0.68267 -8.19111,-1.70693 -12.28711,-3.07227 -2.04798,-0.68266 -15.01882,-5.80206 -38.91211,-15.35937 -23.21061,-9.55732 -53.9309,-20.13883 -92.16015,-31.74414 -20.4798,-7.22922 -40.95966,-13.82316 -61.43945,-19.45703 -41.64259,-11.60531 -86.69874,-21.84411 -135.16797,-30.71875 -48.46925,-8.87465 -97.96324,-13.996 -148.48047,-15.36133 -20.47019,0.0675 -34.09511,-1.10963 -67.58399,1.02539 z"
         sodipodi:nodetypes="cccccccscccccccscccccscccscc" />
    </g>
    <path
       id="path1"
       style="font-weight:600;font-size:1024px;line-height:1;font-family:'Klee One';display:inline;fill:#b2f46b;fill-opacity:1"
       d="m 675.83984,670.7207 c -15.70131,43.69063 -35.15654,86.35738 -58.36718,128 -22.52798,41.64263 -45.73951,75.4337 -69.63282,101.375 -12.97065,15.01865 -19.45507,27.30791 -19.45507,36.86524 0,2.73066 0.68154,5.46074 2.04687,8.1914 2.048,2.048 4.43731,3.07227 7.16797,3.07227 10.92266,0 27.30703,-10.5815 49.15234,-31.74414 21.84531,-21.16265 45.73838,-51.20132 71.67969,-90.11328 26.62397,-38.91196 51.20054,-84.30879 73.72852,-136.19141 9.0017,-22.0991 18.62011,-45.43162 24.57617,-61.43945 9.55732,-25.94131 16.72524,-51.19942 21.5039,-75.77539 4.77867,-25.25864 7.16797,-44.37505 7.16797,-57.34571 0,-9.55732 -2.04853,-16.38252 -6.14453,-20.47851 -4.09599,-4.77866 -10.92314,-8.53496 -20.48047,-11.26563 -17.06665,-6.82666 -32.42676,-10.23828 -46.08008,-10.23828 -8.19199,0 -12.9706,2.04658 -14.33593,6.14258 0,0.68267 -0.34077,1.36616 -1.02344,2.04883 v 2.04687 c 0,6.144 2.73008,13.31387 8.19141,21.50586 5.46132,7.50933 8.19336,15.01802 8.19336,22.52735 v 1.02343 c 0,2.73067 -1.36504,13.31216 -4.09571,31.74415 -2.048,18.43198 -6.82661,41.30078 -14.33593,68.60742 -6.48568,24.8452 -12.97136,41.71569 -19.45704,61.4414 z"
       sodipodi:nodetypes="cccscssccccsccsccscssccc" />
  </g>
  <g
     id="g4">
    <g
       id="g5"
       style="display:inline">
      <path
         style="font-variation-settings:normal;display:inline;opacity:1;vector-effect:none;fill:none;fill-opacity:1;stroke:#000000;stroke-width:128;stroke-linecap:round;stroke-linejoin:miter;stroke-miterlimit:4;stroke-dasharray:none;stroke-dashoffset:0;stroke-opacity:1;-inkscape-stroke:none;stop-color:#000000;stop-opacity:1"
         d="m 199.43849,216.55866 c 121.77011,76.14085 243.84587,-51.65673 343.10186,-50.0838 -54.50232,119.626 -145.75609,411.96761 -226.23315,549.61833 0,0 -142.67825,215.02645 -164.20428,26.45652 C 136.55523,606.3506 396.72953,530.86755 881.47836,720.99182"
         id="path3"
         sodipodi:nodetypes="cccsc"
         clip-path="url(#clipPath2447)" />
      <path
         style="font-variation-settings:normal;display:inline;opacity:1;vector-effect:none;fill:none;fill-opacity:1;stroke:#000000;stroke-width:128;stroke-linecap:round;stroke-linejoin:miter;stroke-miterlimit:4;stroke-dasharray:none;stroke-dashoffset:0;stroke-opacity:1;-inkscape-stroke:none;stop-color:#000000;stop-opacity:1"
         d="m 609.67165,1136.9618 c -141.29809,-25.6952 -207.44005,138.1949 -300.23718,173.4499 6.38465,-131.3017 -16.97651,-436.66226 6.87273,-594.31851 0,0 -142.67825,215.02645 -164.20428,26.45652 C 136.55523,606.3506 396.72953,530.86755 881.47836,720.99182"
         id="path4"
         sodipodi:nodetypes="cccsc"
         clip-path="url(#clipPath2293)" />
    </g>
    <path
       style="font-variation-settings:normal;opacity:1;vector-effect:none;fill:none;fill-opacity:1;stroke:#000000;stroke-width:128;stroke-linecap:round;stroke-linejoin:miter;stroke-miterlimit:4;stroke-dasharray:none;stroke-dashoffset:0;stroke-opacity:1;-inkscape-stroke:none;stop-color:#000000;stop-opacity:1"
       d="M 656.31812,406.00701 C 889.46335,519.76894 571.28421,921.00117 571.28421,921.00117"
       id="path5"
       sodipodi:nodetypes="cc"
       clip-path="url(#clipPath5472)" />
  </g>
</svg>
