<?xml version="1.0" encoding="UTF-8" standalone="no"?>
<!-- Created with Inkscape (http://www.inkscape.org/) -->

<svg
   width="1024"
   height="1024"
   viewBox="0 0 1024 1024"
   version="2"
   id="svg82337"
   inkscape:version="1.3 (0e150ed6c4, 2023-07-21)"
   sodipodi:docname="む.svg"
   xmlns:inkscape="http://www.inkscape.org/namespaces/inkscape"
   xmlns:sodipodi="http://sodipodi.sourceforge.net/DTD/sodipodi-0.dtd"
   xmlns:xlink="http://www.w3.org/1999/xlink"
   xmlns="http://www.w3.org/2000/svg"
   xmlns:svg="http://www.w3.org/2000/svg">
  <sodipodi:namedview
     id="namedview82339"
     pagecolor="#ffffff"
     bordercolor="#999999"
     borderopacity="1"
     inkscape:pageshadow="0"
     inkscape:pageopacity="0"
     inkscape:pagecheckerboard="0"
     inkscape:document-units="px"
     showgrid="false"
     units="px"
     inkscape:zoom="0.35355339"
     inkscape:cx="321.02648"
     inkscape:cy="527.50166"
     inkscape:window-width="1920"
     inkscape:window-height="1111"
     inkscape:window-x="-9"
     inkscape:window-y="-9"
     inkscape:window-maximized="1"
     inkscape:current-layer="svg82337"
     viewbox-width="10.5832"
     scale-x="0.26458"
     inkscape:snap-global="true"
     inkscape:snap-bbox="false"
     inkscape:snap-page="true"
     inkscape:snap-midpoints="false"
     inkscape:object-paths="false"
     inkscape:snap-others="true"
     inkscape:snap-center="true"
     inkscape:bbox-nodes="false"
     inkscape:snap-nodes="true"
     inkscape:snap-grids="false"
     inkscape:showpageshadow="0"
     inkscape:deskcolor="#d1d1d1" />
  <defs
     id="defs82334">
    <clipPath
       id="clipPath2311">
      <use
         id="clone3013"
         xlink:href="#flowRoot1" />
    </clipPath>
    <clipPath
       id="clipPath9694">
      <use
         id="clone9183"
         xlink:href="#path3" />
    </clipPath>
    <clipPath
       id="clipPath6979">
      <use
         id="clone3638"
         xlink:href="#path2" />
    </clipPath>
    <clipPath
       id="clipPath1427">
      <use
         id="clone2962"
         xlink:href="#path1" />
    </clipPath>
  </defs>
  <g
     id="g4">
    <path
       id="flowRoot1"
       style="font-weight:600;font-size:1024px;line-height:1;font-family:'Klee One';fill:#f66d6d"
       d="m 331.77539,361.47266 c -5.46133,1.36533 -15.7001,3.75464 -30.71875,7.16796 -14.33599,3.41333 -30.03882,7.16768 -47.10547,11.26368 -17.06665,4.09599 -32.42676,7.85034 -46.08008,11.26367 -13.65332,2.73066 -22.52705,4.0957 -26.62304,4.0957 h -8.19141 c -2.73066,0 -5.80347,-0.34077 -9.2168,-1.02344 -3.41333,-0.68266 -7.16767,-1.36616 -11.26367,-2.04882 -3.41333,-1.36534 -6.8269,-2.04688 -10.24023,-2.04688 -2.73067,0 -5.80347,1.02427 -9.2168,3.07227 -2.048,2.04799 -3.07031,4.4373 -3.07031,7.16797 0,4.77866 3.41162,11.60385 10.23828,20.47851 6.82666,8.87466 14.67808,17.06685 23.55273,24.57617 9.55733,7.50933 18.09029,11.26367 25.59961,11.26367 1.36534,0 8.87598,-1.36503 22.5293,-4.0957 14.33599,-3.41333 30.71841,-7.16767 49.15039,-11.26367 18.43198,-4.77866 34.47559,-8.53301 48.12891,-11.26367 l 21.5039,-5.11914 62.46485,-14.33789 c 27.9893,-6.144 54.61245,-11.60415 79.87109,-16.38282 25.94131,-4.77866 48.46934,-8.19223 67.58399,-10.24023 9.55732,-1.36533 17.74951,-3.75464 24.57617,-7.16797 7.50932,-3.41333 11.26367,-8.53271 11.26367,-15.35937 0,-2.73067 -0.34077,-4.7792 -1.02344,-6.14454 -2.73066,-7.50932 -9.21704,-15.36074 -19.45703,-23.55273 -10.23999,-8.87466 -19.45449,-13.65327 -27.64648,-14.33594 h -3.07227 c -0.68267,-0.68266 -1.36616,-1.02343 -2.04883,-1.02343 -6.82666,0 -13.31108,1.70581 -19.45508,5.11914 -5.46132,3.41333 -11.60498,5.80263 -18.43164,7.16796 -10.92265,1.36534 -24.23618,3.75464 -39.9375,7.16797 -15.70131,3.41333 -32.42646,7.16963 -50.17578,11.26563 z"
       sodipodi:nodetypes="ccscssscscsscsccccccccsccccsccscc" />
    <g
       id="g3">
      <path
         id="path3"
         style="font-weight:600;font-size:1024px;line-height:1;font-family:'Klee One';fill:#f5d36c;fill-opacity:1"
         d="m 326.65625,123.9043 c -8.19198,0 -13.6541,2.73009 -16.38477,8.1914 0,0.68267 -0.34077,1.36617 -1.02343,2.04883 v 1.02344 c 0,3.41333 2.04853,7.50845 6.14453,12.28711 4.77865,4.09598 8.53301,8.53384 11.26367,13.3125 2.048,2.73066 3.75381,7.1685 5.11914,13.3125 1.36533,6.14398 2.04883,10.92261 2.04883,14.33594 0,3.41332 -0.34077,21.84627 -1.02344,55.29687 0,32.76794 -0.34272,72.02119 -1.02539,117.75977 l -1.02344,63.48828 c 0,34.13326 -0.34078,68.94867 -1.02343,104.44726 0,34.81594 -0.34273,66.90126 -1.0254,96.25586 l -5.11914,120.83203 v 25.59961 c -0.68265,8.87465 -3.07198,17.75036 -7.16796,26.625 -3.41333,8.19198 -9.21623,13.31138 -17.40821,15.35938 h -3.07226 c -15.01864,0 -28.33024,-10.24076 -39.93555,-30.7207 C 245.78633,763.5704 240.4111,740.75801 239.74805,715 c 0,-14.17214 -57.27735,-19.14021 -57.27735,0 -0.0692,2.30654 -0.19922,4.61338 -0.19922,6.91992 0,31.40261 5.8029,58.70931 17.40821,81.91992 12.28798,23.21063 27.6481,41.30084 46.08008,54.27149 18.43196,12.28798 37.54645,18.43359 57.34375,18.43359 7.50931,0 13.9957,-1.367 19.45703,-4.09765 6.14398,-2.73067 11.94688,-6.48501 17.4082,-11.26368 21.72676,-22.76523 41.4441,-49.54929 46.08008,-106.49609 0.68266,-4.096 1.02344,-7.85035 1.02344,-11.26367 0.68265,-4.096 1.02343,-7.50957 1.02343,-10.24024 0.68267,-10.23998 1.02344,-31.74379 1.02344,-64.51171 0.68267,-33.45061 1.36616,-73.04463 2.04883,-118.78321 0.68266,-45.73857 1.36616,-92.16172 2.04883,-139.26562 l 2.04687,-63.48633 c 0.68267,-31.40261 1.36616,-60.75785 2.04883,-88.06445 1.36533,-27.98929 2.3896,-52.22512 3.07227,-72.70508 v -10.23828 c 0,-14.33598 -2.38932,-24.23594 -7.16797,-29.69727 -4.096,-6.14398 -13.99596,-11.26339 -29.69727,-15.35937 -7.50931,-2.048 -14.33647,-3.75577 -20.48047,-5.1211 -6.14398,-1.36533 -11.60415,-2.04687 -16.38281,-2.04687 z"
         sodipodi:nodetypes="sccsccsscccccccccscccsccsccccccsccccsccss" />
      <path
         id="path2"
         style="font-weight:600;font-size:1024px;line-height:1;font-family:'Klee One';fill:#b2f46b;fill-opacity:1"
         d="m 769.02344,539.64844 c -4.77866,0 -9.21455,4.09514 -13.31055,12.28711 -4.096,8.19197 -6.82803,20.48129 -8.19336,36.86523 -3.41333,45.73854 -7.85117,87.38117 -13.3125,124.92774 -5.46131,37.54654 -13.99431,66.90184 -25.59961,88.06445 -8.19197,13.6533 -21.5036,24.57561 -39.93554,32.76758 -17.7493,8.19197 -37.88808,14.33564 -60.41602,18.43164 -22.52794,4.09597 -44.37255,6.82609 -65.53516,8.1914 -21.1626,1.36534 -38.57131,2.04883 -52.22461,2.04883 -29.35457,0 -50.85844,-2.04853 -64.51171,-6.14453 -13.6533,-4.77864 -22.52903,-11.26311 -26.625,-19.45508 -4.096,-8.19197 -6.82608,-17.40849 -8.19141,-27.64843 l -5.11914,-55.29688 c 0.68266,-4.096 1.02344,-7.85036 1.02344,-11.26367 0.21961,-1.31769 1.34927,-63.2269 -58.36915,-117.75977 -19.1146,-15.70128 -40.27574,-23.55273 -63.48632,-23.55273 h -7.16797 c -19.79728,0.68266 -35.15744,7.50983 -46.08008,20.48047 -10.92264,12.97061 -18.77409,28.33078 -23.55273,46.08008 -3.56372,15.44273 -5.4821,30.88535 -5.94532,46.32812 0,19.29083 57.27735,15.1828 57.27735,0 -0.0483,-1.78642 -0.13282,-3.55045 -0.13282,-5.36719 0,-11.6053 1.70777,-22.52956 5.1211,-32.76953 4.09597,-10.23997 10.92316,-16.04287 20.48047,-17.4082 h 3.07031 c 9.5573,0 18.43303,4.78058 26.625,14.33789 8.19197,8.87464 15.01914,20.13773 20.48047,33.79101 5.46131,12.97064 8.1914,25.9415 8.1914,38.91211 v 25.59961 c -1.69919,32.08289 6.19116,60.96927 16.38477,89.08789 6.82664,19.79728 19.45478,34.4759 37.88672,44.03321 19.11461,9.5573 41.98546,15.70097 68.60937,18.43164 26.62394,3.41331 54.61222,5.11914 83.9668,5.11914 30.71991,0 62.12376,-3.75437 94.20898,-11.26367 32.08525,-6.82666 60.75705,-16.38391 86.01563,-28.67188 25.94125,-12.97063 43.69074,-27.99003 53.24805,-45.05664 7.5093,-11.6053 12.96948,-28.33051 16.38281,-50.17578 3.41333,-21.84527 5.80264,-45.73842 7.16797,-71.67969 1.36533,-25.94125 2.04883,-50.51793 2.04883,-73.72851 0,-10.92264 -0.34078,-21.16145 -1.02344,-30.71875 v -25.60157 c -0.68267,-34.81588 -7.16906,-52.22265 -19.45703,-52.22265 z"
         sodipodi:nodetypes="sscsccssscsccccscscccsccsccsccccscccsssccs" />
    </g>
    <path
       style="font-weight:600;font-size:1024px;line-height:1;font-family:'Klee One';fill:#6af387"
       d="m 913.408,467.968 q 14.336,-9.216 14.336,-30.72 0,-12.288 -18.432,-37.888 -17.408,-25.6 -43.008,-55.296 -24.576,-30.72 -49.152,-55.296 -24.576,-25.6 -38.912,-35.84 -5.12,-4.096 -14.336,-4.096 -12.288,0 -23.552,9.216 -10.24,9.216 -10.24,20.48 0,9.216 9.216,17.408 14.336,11.264 32.768,32.768 19.456,21.504 37.888,47.104 19.456,24.576 33.792,48.128 14.336,22.528 20.48,36.864 7.168,17.408 22.528,17.408 8.192,0 15.36,-3.072 7.168,-3.072 11.264,-7.168 z"
       id="path1" />
  </g>
  <g
     id="g5">
    <path
       style="font-variation-settings:normal;opacity:1;vector-effect:none;fill:none;fill-opacity:1;stroke:#000000;stroke-width:128;stroke-linecap:round;stroke-linejoin:miter;stroke-miterlimit:4;stroke-dasharray:none;stroke-dashoffset:0;stroke-opacity:1;-inkscape-stroke:none;stop-color:#000000;stop-opacity:1"
       d="M 55.15433,458.20519 518.98694,359.43207"
       id="path4"
       sodipodi:nodetypes="cc"
       clip-path="url(#clipPath2311)" />
    <g
       id="g7">
      <path
         style="font-variation-settings:normal;opacity:1;vector-effect:none;fill:none;fill-opacity:1;stroke:#000000;stroke-width:128;stroke-linecap:round;stroke-linejoin:miter;stroke-miterlimit:4;stroke-dasharray:none;stroke-dashoffset:0;stroke-opacity:1;-inkscape-stroke:none;stop-color:#000000;stop-opacity:1"
         d="m 355.50736,45.757468 7.39213,715.594302 c 0,0 -20.74265,80.42522 -85.2071,78.78427 -47.35595,-1.20545 -56.68908,-47.46545 -56.68908,-47.46545 0,0 -27.2785,-170.83123 64.17688,-151.81273 C 447.2611,674.56323 291.66719,861.88801 412,880 c 120.82737,18.18643 306.41421,36.69491 330.41421,-98.30509 24,-135 25.65686,-185.64823 25.65686,-185.64823"
         id="path5"
         sodipodi:nodetypes="ccscsssc"
         clip-path="url(#clipPath9694)" />
      <path
         style="font-variation-settings:normal;opacity:1;vector-effect:none;fill:none;fill-opacity:1;stroke:#000000;stroke-width:128;stroke-linecap:round;stroke-linejoin:miter;stroke-miterlimit:4;stroke-dasharray:none;stroke-dashoffset:0;stroke-opacity:1;-inkscape-stroke:none;stop-color:#000000;stop-opacity:1"
         d="M 866.55617,1191.7095 198.10456,936.16638 c 0,0 -67.21554,-48.79083 -42.04873,-108.16245 18.48768,-43.61473 64.94748,-35.33334 64.94748,-35.33334 0,0 -27.2785,-170.83123 64.17688,-151.81273 C 447.2611,674.56323 291.66719,861.88801 412,880 c 120.82737,18.18643 306.41421,36.69491 330.41421,-98.30509 24,-135 25.65686,-185.64823 25.65686,-185.64823"
         id="path6"
         sodipodi:nodetypes="ccscsssc"
         clip-path="url(#clipPath6979)" />
    </g>
    <path
       style="font-variation-settings:normal;opacity:1;vector-effect:none;fill:none;fill-opacity:1;stroke:#000000;stroke-width:128;stroke-linecap:round;stroke-linejoin:miter;stroke-miterlimit:4;stroke-dasharray:none;stroke-dashoffset:0;stroke-opacity:1;-inkscape-stroke:none;stop-color:#000000;stop-opacity:1"
       d="M 698,202 876,427"
       id="path7"
       sodipodi:nodetypes="cc"
       clip-path="url(#clipPath1427)" />
  </g>
</svg>
