<?xml version="1.0" encoding="UTF-8" standalone="no"?>
<!-- Created with Inkscape (http://www.inkscape.org/) -->

<svg
   width="1024"
   height="1024"
   viewBox="0 0 1024 1024"
   version="2"
   id="svg82337"
   inkscape:version="1.3 (0e150ed6c4, 2023-07-21)"
   sodipodi:docname="ã‚.svg"
   xmlns:inkscape="http://www.inkscape.org/namespaces/inkscape"
   xmlns:sodipodi="http://sodipodi.sourceforge.net/DTD/sodipodi-0.dtd"
   xmlns:xlink="http://www.w3.org/1999/xlink"
   xmlns="http://www.w3.org/2000/svg"
   xmlns:svg="http://www.w3.org/2000/svg">
  <sodipodi:namedview
     id="namedview82339"
     pagecolor="#ffffff"
     bordercolor="#999999"
     borderopacity="1"
     inkscape:pageshadow="0"
     inkscape:pageopacity="0"
     inkscape:pagecheckerboard="0"
     inkscape:document-units="px"
     showgrid="false"
     units="px"
     inkscape:zoom="0.29520327"
     inkscape:cx="513.20569"
     inkscape:cy="177.84356"
     inkscape:window-width="1920"
     inkscape:window-height="1111"
     inkscape:window-x="-9"
     inkscape:window-y="-9"
     inkscape:window-maximized="1"
     inkscape:current-layer="svg82337"
     viewbox-width="10.5832"
     scale-x="0.26458"
     inkscape:snap-global="true"
     inkscape:snap-bbox="false"
     inkscape:snap-page="true"
     inkscape:snap-midpoints="false"
     inkscape:object-paths="false"
     inkscape:snap-others="true"
     inkscape:snap-center="true"
     inkscape:bbox-nodes="false"
     inkscape:snap-nodes="true"
     inkscape:snap-grids="false"
     inkscape:showpageshadow="0"
     inkscape:deskcolor="#d1d1d1" />
  <defs
     id="defs82334">
    <clipPath
       id="clipPath1836">
      <use
         id="clone1160"
         xlink:href="#path1" />
    </clipPath>
    <clipPath
       id="clipPath9639">
      <use
         id="clone378"
         xlink:href="#path2" />
    </clipPath>
    <clipPath
       id="clipPath3267">
      <use
         id="clone4688"
         xlink:href="#flowRoot1" />
    </clipPath>
  </defs>
  <g
     id="g3">
    <path
       id="path1"
       style="font-weight:600;font-size:1024px;line-height:1;font-family:'Klee One';fill:#f66d6d;fill-opacity:1"
       d="m 269.3125,225.2793 c -8.87463,0 -14.33677,2.3893 -16.38477,7.16797 v 2.04882 c 0,3.41333 2.38934,7.16768 7.16797,11.26368 4.77867,4.09596 8.53301,9.21541 11.26368,15.35937 1.3653,2.73066 2.38959,6.14424 3.07226,10.24024 l 2.04883,10.24023 c 3.41333,25.25855 6.82693,50.85956 10.24023,76.80078 3.41333,25.94122 7.16768,51.883 11.26368,77.82422 3.79227,23.73782 7.55307,47.17667 10.24023,60.41601 6.14396,32.76788 12.62842,64.85335 19.45508,96.25586 6.82663,30.71988 13.65381,60.41598 20.48047,89.0879 5.70025,19.64379 10.29203,37.62489 17.4082,59.39257 7.5093,27.30658 13.99375,45.39686 19.45508,54.27149 6.14396,8.19196 12.97114,12.28711 20.48047,12.28711 9.55729,0 17.40877,-4.77865 23.55273,-14.33594 6.14396,-10.23996 9.21484,-21.50306 9.21484,-33.79102 0,-4.77863 -0.68154,-9.2165 -2.04687,-13.3125 -2.73066,-9.55729 -6.14427,-18.77381 -10.24023,-27.64843 l -10.24024,-28.67188 c -5.84469,-17.69895 -11.79849,-37.03467 -18.43164,-66.56055 -6.14397,-23.89325 -12.28767,-49.83302 -18.43164,-77.82226 -5.46133,-28.67191 -10.92344,-57.68644 -16.38477,-87.04102 -2.65012,-12.78245 -6.04512,-36.7381 -9.21679,-57.34375 -2.73067,-21.84525 -5.80152,-43.69185 -9.21485,-65.53711 -2.73063,-21.84522 -5.11997,-43.0064 -7.16797,-63.48632 -0.68263,-9.5573 -2.39043,-17.40874 -5.12109,-23.55274 -2.73066,-6.82663 -10.58016,-11.94607 -23.55078,-15.35937 -5.46133,-2.048 -11.94774,-3.75577 -19.45703,-5.1211 -7.5093,-2.048 -13.99378,-3.07226 -19.45508,-3.07226 z"
       sodipodi:nodetypes="scsscccsccccccscsccccccccccccs" />
    <g
       id="g2">
      <path
         id="path2"
         style="font-weight:600;font-size:1024px;line-height:1;font-family:'Klee One';fill:#f5d36c;fill-opacity:1"
         d="m 605.18359,140.28711 c -4.77863,0 -7.50874,1.36699 -8.1914,4.09766 -0.68267,0.68263 -1.02344,2.0477 -1.02344,4.0957 0,2.73066 1.02231,5.80154 3.07031,9.21484 2.048,2.73067 3.75576,5.80347 5.1211,9.2168 1.3653,3.41333 2.04687,7.50845 2.04687,12.28711 0.68267,4.09596 1.02539,7.85232 1.02539,11.26562 -2.73066,22.52792 -8.1928,45.73764 -16.38476,69.63086 -7.50933,23.21059 -16.04232,46.42223 -25.59961,69.63282 -7.16797,21.71608 -14.33594,38.54619 -21.50391,55.29492 -4.096,12.97061 -13.65326,32.76864 -28.67187,59.39258 -14.33597,26.62391 -32.08545,55.97921 -53.24805,88.06445 -20.47994,31.40257 -41.98378,61.78019 -64.51172,91.13476 -16.07072,22.27675 -32.51856,41.15993 -49.15234,58.36915 -1.36534,2.04796 -6.48475,7.50818 -15.35938,16.38281 -8.19196,8.19196 -18.43274,17.40851 -30.7207,27.64843 -11.60529,10.23996 -23.55189,19.45648 -35.83985,27.64844 -12.28792,7.5093 -22.52874,11.26367 -30.7207,11.26367 -6.14396,0 -12.28768,-5.46018 -18.43164,-16.38281 -6.14396,-11.60529 -11.26341,-23.55384 -15.35937,-35.8418 -4.096,-12.97059 -6.14454,-21.50364 -6.14454,-25.5996 -0.55057,-16.31531 -60.29381,-18.2078 -60.41601,0 v 2.04882 c 0,7.50933 2.04853,19.11515 6.14453,34.81641 4.77866,15.70126 11.26312,32.0838 19.45508,49.15039 8.19196,16.38392 17.40848,30.72181 27.64844,43.00977 10.92259,11.60526 22.86922,17.40625 35.83984,17.40625 11.60529,0 25.94122,-5.11942 43.00781,-15.35938 17.06659,-10.23996 34.47536,-22.52732 52.22461,-36.86328 17.74926,-14.33596 33.10946,-27.64759 46.08008,-39.93555 15.69131,-14.48222 30.21794,-26.05264 50.17578,-51.20117 34.81588,-38.91184 69.29062,-84.64974 103.42383,-137.21484 34.13318,-52.56513 65.87787,-111.61659 95.23242,-177.15235 l 22.52734,-54.27343 c 15.70129,-39.59451 25.94205,-70.65568 30.72071,-93.1836 5.4613,-23.21055 8.1914,-36.52224 8.1914,-39.93554 0,-8.87466 -3.4136,-16.38335 -10.24023,-22.52735 -6.82663,-6.14396 -15.01888,-10.92261 -24.57617,-14.33594 -8.87463,-4.09596 -17.06688,-6.82805 -24.57617,-8.19335 -6.82666,-2.048 -10.58101,-3.07227 -11.26368,-3.07227 z"
         sodipodi:nodetypes="scscscccccccccsccsccccscccsssccscccssccs" />
      <path
         id="flowRoot1"
         style="font-weight:600;font-size:1024px;line-height:1;font-family:'Klee One';fill:#b2f46b"
         d="m 565.24805,329.72852 c -35.49854,6.14396 -71.68105,15.36051 -108.54493,27.64843 -36.86384,12.28796 -71.33864,26.96466 -103.42382,44.03125 -16.92674,10.26845 -32.34732,17.21365 -55.29492,34.81641 -38.91188,28.67188 -70.31574,58.36801 -94.20899,89.08789 -23.21058,30.03721 -40.27659,59.04985 -51.19922,87.03906 -10.23996,27.98922 -16.04287,52.9067 -17.4082,74.75196 1.12083,27.85052 62.81342,26.86071 60.41601,0 0,-30.71988 10.58159,-63.48686 31.74414,-98.30274 21.84526,-35.49851 48.81128,-66.21891 80.89649,-92.16016 20.55861,-17.07218 37.64969,-27.90275 54.27148,-37.88867 25.25861,-15.01861 53.24884,-28.67101 83.96875,-40.95898 30.71991,-12.97063 63.14606,-23.89489 97.2793,-32.76953 25.21944,-4.72709 40.88611,-7.86841 70.65625,-9.21485 4.69613,-0.44991 12.80983,-1.02539 20.48047,-1.02539 54.6131,0 99.3267,15.3602 134.14258,46.08008 35.49851,30.71988 53.24804,76.11893 53.24804,136.19336 v 5.11914 c -0.68263,34.81588 -9.89918,69.29062 -27.64843,103.42383 -17.74929,33.45054 -40.95898,65.19521 -69.63086,95.23242 -28.67188,29.35455 -60.07578,55.97788 -94.20899,79.87109 -69.52606,49.66153 -103.31842,56.23099 -117.75976,68.60938 -4.096,4.77866 -6.14258,8.87378 -6.14258,12.28711 v 3.07227 c 2.048,6.14396 7.50818,9.21679 16.38281,9.21679 2.73067,0 13.31222,-3.07283 31.74414,-9.21679 18.43192,-5.46133 41.30088,-14.33509 68.60742,-26.62305 27.98925,-12.97063 57.00381,-29.35509 87.04102,-49.15235 30.71988,-19.79725 59.39171,-43.34967 86.01563,-70.65625 27.30654,-27.30654 49.83472,-58.71047 67.58398,-94.20898 17.74925,-36.18118 27.64731,-76.45889 29.69531,-120.83203 v -13.31055 c 0,-45.73847 -10.92232,-85.67541 -32.76758,-119.80859 C 839.33837,395.94687 809.98298,369.32162 773.11914,350.20703 736.2553,331.09244 694.95527,321.53516 649.2168,321.53516 h -12.28907 c -24.69992,1.0982 -37.38929,1.4189 -71.67968,8.19336 z"
         sodipodi:nodetypes="csccccccccccccscscccccscsccccccsssscc" />
    </g>
  </g>
  <g
     id="g4">
    <path
       style="font-variation-settings:normal;opacity:1;vector-effect:none;fill:none;fill-opacity:1;stroke:#000000;stroke-width:128;stroke-linecap:round;stroke-linejoin:miter;stroke-miterlimit:4;stroke-dasharray:none;stroke-dashoffset:0;stroke-opacity:1;-inkscape-stroke:none;stop-color:#000000;stop-opacity:1"
       d="M 245.52047,158.09123 425.16959,753.32865"
       id="path3"
       sodipodi:nodetypes="cc"
       clip-path="url(#clipPath1836)" />
    <g
       id="g5">
      <path
         style="font-variation-settings:normal;opacity:1;vector-effect:none;fill:none;fill-opacity:1;stroke:#000000;stroke-width:128;stroke-linecap:round;stroke-linejoin:miter;stroke-miterlimit:4;stroke-dasharray:none;stroke-dashoffset:0;stroke-opacity:1;-inkscape-stroke:none;stop-color:#000000;stop-opacity:1"
         d="m 573.7625,77.58228 c 146.01999,170.28985 -33.22322,391.89456 -195.30168,633.82825 0,0 -207.71955,199.57077 -204.8,-19.16258 C 176.66063,467.50149 628.94289,269.51641 757.1807,377.00004 1088.4081,654.6212 548.74874,902.78092 548.74874,902.78092"
         id="path4"
         sodipodi:nodetypes="ccssc"
         clip-path="url(#clipPath9639)" />
      <path
         style="font-variation-settings:normal;opacity:1;vector-effect:none;fill:none;fill-opacity:1;stroke:#000000;stroke-width:128;stroke-linecap:round;stroke-linejoin:miter;stroke-miterlimit:4;stroke-dasharray:none;stroke-dashoffset:0;stroke-opacity:1;-inkscape-stroke:none;stop-color:#000000;stop-opacity:1"
         d="m 562.62455,1348.5641 c -215.48014,-62.36 -187.07168,-345.9614 -184.16373,-637.15357 0,0 -207.71955,199.57077 -204.8,-19.16258 C 176.66063,467.50149 628.94289,269.51641 757.1807,377.00004 1088.4081,654.6212 548.74874,902.78092 548.74874,902.78092"
         id="path5"
         sodipodi:nodetypes="ccssc"
         clip-path="url(#clipPath3267)" />
    </g>
  </g>
</svg>
