<?xml version="1.0" encoding="UTF-8" standalone="no"?>
<!-- Created with Inkscape (http://www.inkscape.org/) -->

<svg
   width="1024"
   height="1024"
   viewBox="0 0 1024 1024"
   version="2"
   id="svg82337"
   inkscape:version="1.3 (0e150ed6c4, 2023-07-21)"
   sodipodi:docname="も.svg"
   xmlns:inkscape="http://www.inkscape.org/namespaces/inkscape"
   xmlns:sodipodi="http://sodipodi.sourceforge.net/DTD/sodipodi-0.dtd"
   xmlns:xlink="http://www.w3.org/1999/xlink"
   xmlns="http://www.w3.org/2000/svg"
   xmlns:svg="http://www.w3.org/2000/svg">
  <sodipodi:namedview
     id="namedview82339"
     pagecolor="#ffffff"
     bordercolor="#999999"
     borderopacity="1"
     inkscape:pageshadow="0"
     inkscape:pageopacity="0"
     inkscape:pagecheckerboard="0"
     inkscape:document-units="px"
     showgrid="false"
     units="px"
     inkscape:zoom="0.41748047"
     inkscape:cx="380.85614"
     inkscape:cy="341.33333"
     inkscape:window-width="1920"
     inkscape:window-height="1111"
     inkscape:window-x="-9"
     inkscape:window-y="-9"
     inkscape:window-maximized="1"
     inkscape:current-layer="svg82337"
     viewbox-width="10.5832"
     scale-x="0.26458"
     inkscape:snap-global="true"
     inkscape:snap-bbox="false"
     inkscape:snap-page="true"
     inkscape:snap-midpoints="false"
     inkscape:object-paths="false"
     inkscape:snap-others="true"
     inkscape:snap-center="true"
     inkscape:bbox-nodes="false"
     inkscape:snap-nodes="true"
     inkscape:snap-grids="false"
     inkscape:showpageshadow="0"
     inkscape:deskcolor="#d1d1d1" />
  <defs
     id="defs82334">
    <clipPath
       id="clipPath8298">
      <use
         id="clone9405"
         xlink:href="#flowRoot1" />
    </clipPath>
    <clipPath
       id="clipPath7686">
      <use
         id="clone9504"
         xlink:href="#path1" />
    </clipPath>
    <clipPath
       id="clipPath6173">
      <use
         id="clone205"
         xlink:href="#path2" />
    </clipPath>
  </defs>
  <g
     id="g2"
     clip-path="none">
    <path
       style="font-weight:600;font-size:1024px;line-height:1;font-family:'Klee One';fill:#b2f46b"
       d="m 769.024,743.424 v -2.048 c -0.68267,-42.32533 -8.87467,-81.23733 -24.576,-116.736 -15.70133,-35.49867 -40.96,-74.752 -75.776,-117.76 -6.144,-7.50933 -13.99467,-15.36 -23.552,-23.552 -9.55733,-8.192 -17.06667,-12.288 -22.528,-12.288 h -1.024 c -3.41333,0 -5.12,2.73067 -5.12,8.192 0,10.92267 6.82667,26.96533 20.48,48.128 23.89333,35.49867 40.96,69.29067 51.2,101.376 10.24,31.40267 15.36,61.78133 15.36,91.136 0,2.73067 -0.34133,5.80267 -1.024,9.216 v 9.216 c -1.36533,19.79733 -9.55733,41.64267 -24.576,65.536 -14.336,23.89333 -33.792,44.37333 -58.368,61.44 -23.89333,16.384 -51.54133,24.576 -82.944,24.576 -15.01867,0 -29.35467,-3.072 -43.008,-9.216 -24.576,-12.288 -45.73867,-30.03733 -63.488,-53.248 -17.74933,-23.21067 -26.624,-58.70933 -26.624,-106.496 0,-14.336 1.024,-29.696 3.072,-46.08 l 5.12,-45.056 8.192,-57.344 c 4.096,-30.03733 8.192,-57.344 12.288,-81.92 4.77867,-24.576 9.55733,-47.44533 14.336,-68.608 l 12.288,-57.344 c 7.50933,-32.08533 13.99467,-63.82933 19.456,-95.232 6.144,-31.40267 11.60533,-66.21867 16.384,-104.448 v -4.096 c 0.68267,-2.048 1.024,-3.75467 1.024,-5.12 0,-9.55733 -2.38933,-16.04267 -7.168,-19.456 -4.77867,-3.41333 -11.60533,-6.48533 -20.48,-9.216 -5.46133,-2.048 -12.97067,-4.096 -22.528,-6.144 -9.55733,-2.048 -18.09067,-3.072 -25.6,-3.072 -6.82667,0 -11.264,1.024 -13.312,3.072 -2.048,2.73067 -3.072,5.46133 -3.072,8.192 0,4.77867 2.048,9.216 6.144,13.312 4.096,3.41333 7.168,6.82667 9.216,10.24 2.73067,2.73067 4.43733,7.168 5.12,13.312 0.68267,5.46133 1.024,10.24 1.024,14.336 -0.68267,23.89333 -3.75467,50.85867 -9.216,80.896 -4.77867,29.35467 -10.92267,62.80533 -18.432,100.352 l -10.24,55.296 c -4.096,22.528 -8.53333,46.42133 -13.312,71.68 -4.096,25.25867 -8.192,52.224 -12.288,80.896 l -8.192,56.32 c -3.41333,25.25867 -6.144,45.73867 -8.192,61.44 -1.36533,15.01867 -2.048,29.01333 -2.048,41.984 0,43.69067 6.82667,80.21333 20.48,109.568 13.65333,29.35467 30.37867,52.56533 50.176,69.632 20.48,17.74933 41.30133,30.37867 62.464,37.888 21.16267,7.50933 39.25333,11.264 54.272,11.264 34.13333,0 65.536,-7.168 94.208,-21.504 29.35467,-14.336 54.61333,-32.768 75.776,-55.296 21.84533,-22.528 38.57067,-46.08 50.176,-70.656 12.288,-24.576 18.432,-46.76267 18.432,-66.56 z"
       id="flowRoot1"
       sodipodi:nodetypes="scscssssccsccccscsscccccccccsscsscscccccccccccsscsscccs" />
    <path
       style="font-weight:600;font-size:1024px;line-height:1;font-family:'Klee One';fill:#f66d6d;fill-opacity:1"
       d="m 446.464,421.888 c 13.65333,2.048 26.624,4.43733 38.912,7.168 12.97067,2.73067 26.624,5.80267 40.96,9.216 5.46133,1.36533 9.216,2.048 11.264,2.048 15.01867,0 24.576,-9.55733 28.672,-28.672 v -3.072 c 0.68267,-1.36533 1.024,-2.38933 1.024,-3.072 0,-5.46133 -2.048,-10.58133 -6.144,-15.36 -3.41333,-5.46133 -8.192,-8.87467 -14.336,-10.24 -9.55733,-3.41333 -22.18667,-6.48533 -37.888,-9.216 -15.01867,-2.73067 -31.744,-4.77867 -50.176,-6.144 -21.82102,-1.58498 -53.1081,-3.02593 -61.44,-3.072 h -22.528 c -35.49867,0 -63.14667,0.68267 -82.944,2.048 -19.11467,1.36533 -32.768,3.75467 -40.96,7.168 -8.192,2.73067 -13.312,6.48533 -15.36,11.264 -1.36533,4.77867 -2.048,10.24 -2.048,16.384 0,11.60533 8.192,17.408 24.576,17.408 h 32.768 c 10.24,-0.68267 19.79733,-1.024 28.672,-1.024 13.65333,0 25.94133,0.34133 36.864,1.024 10.92267,0 21.16267,0.34133 30.72,1.024 23.24166,1.44172 43.48429,3.11413 59.392,5.12 z"
       id="path1"
       sodipodi:nodetypes="cccsccscccccscccsscsccc" />
    <path
       style="font-weight:600;font-size:1024px;line-height:1;font-family:'Klee One';fill:#f5d36c;fill-opacity:1"
       d="m 411.648,629.76 c 15.01867,0.68267 30.37867,1.36533 46.08,2.048 16.384,0.68267 31.40267,1.024 45.056,1.024 23.89333,0 40.96,-1.024 51.2,-3.072 10.92267,-2.048 17.408,-5.12 19.456,-9.216 2.73067,-4.096 4.096,-8.87467 4.096,-14.336 0,-7.50933 -5.80267,-15.70133 -17.408,-24.576 -10.92267,-9.55733 -22.18667,-15.01867 -33.792,-16.384 h -4.096 c -4.77867,0 -9.55733,0.68267 -14.336,2.048 -4.096,1.36533 -8.53333,2.73067 -13.312,4.096 -2.048,0.68267 -7.168,1.024 -15.36,1.024 H 450.56 419.84 c -22.28728,-0.58842 -37.66817,-1.68659 -58.368,-3.072 -25.94133,-1.36533 -50.176,-4.77867 -72.704,-10.24 -22.528,-6.144 -35.84,-10.58133 -39.936,-13.312 -1.36533,-1.36533 -4.77867,-2.73067 -10.24,-4.096 -4.77867,-2.048 -8.87467,-3.072 -12.288,-3.072 -2.73067,0 -4.43733,0.34133 -5.12,1.024 -4.096,2.73067 -6.144,7.85067 -6.144,15.36 0,13.65333 6.144,24.91733 18.432,33.792 12.288,8.87467 26.96533,16.04267 44.032,21.504 17.06667,5.46133 32.768,9.216 47.104,11.264 15.01867,2.048 24.576,3.41333 28.672,4.096 11.78752,1.48706 22.17612,2.99632 58.368,4.096 z"
       id="path2"
       sodipodi:nodetypes="ccsccsccsccsccccccscsssccc" />
  </g>
  <g
     id="g3">
    <path
       style="font-variation-settings:normal;opacity:1;vector-effect:none;fill:none;fill-opacity:1;stroke:#000000;stroke-width:128;stroke-linecap:round;stroke-linejoin:miter;stroke-miterlimit:4;stroke-dasharray:none;stroke-dashoffset:0;stroke-opacity:1;-inkscape-stroke:none;stop-color:#000000;stop-opacity:1"
       d="M 376.0121,62.223967 C 601.91149,255.23926 234.51642,742.09964 420.04954,884.13655 630.77577,1045.4603 825.10681,792.9338 653.78679,511.51195"
       id="path5"
       sodipodi:nodetypes="csc"
       clip-path="url(#clipPath8298)" />
    <path
       style="font-variation-settings:normal;opacity:1;vector-effect:none;fill:none;fill-opacity:1;stroke:#000000;stroke-width:128;stroke-linecap:round;stroke-linejoin:miter;stroke-miterlimit:4;stroke-dasharray:none;stroke-dashoffset:0;stroke-opacity:1;-inkscape-stroke:none;stop-color:#000000;stop-opacity:1"
       d="m 165.14044,394.64332 341.29027,12.70311"
       id="path3"
       sodipodi:nodetypes="cc"
       clip-path="url(#clipPath7686)" />
    <path
       style="font-variation-settings:normal;opacity:1;vector-effect:none;fill:none;fill-opacity:1;stroke:#000000;stroke-width:128;stroke-linecap:round;stroke-linejoin:miter;stroke-miterlimit:4;stroke-dasharray:none;stroke-dashoffset:0;stroke-opacity:1;-inkscape-stroke:none;stop-color:#000000;stop-opacity:1"
       d="m 148.20296,545.38691 368.39023,60.97494"
       id="path4"
       sodipodi:nodetypes="cc"
       clip-path="url(#clipPath6173)" />
  </g>
</svg>
