<?xml version="1.0" encoding="UTF-8" standalone="no"?>
<!-- Created with Inkscape (http://www.inkscape.org/) -->

<svg
   width="1024"
   height="1024"
   viewBox="0 0 1024 1024"
   version="2"
   id="svg82337"
   inkscape:version="1.3 (0e150ed6c4, 2023-07-21)"
   sodipodi:docname="ゆ.svg"
   xmlns:inkscape="http://www.inkscape.org/namespaces/inkscape"
   xmlns:sodipodi="http://sodipodi.sourceforge.net/DTD/sodipodi-0.dtd"
   xmlns:xlink="http://www.w3.org/1999/xlink"
   xmlns="http://www.w3.org/2000/svg"
   xmlns:svg="http://www.w3.org/2000/svg">
  <sodipodi:namedview
     id="namedview82339"
     pagecolor="#ffffff"
     bordercolor="#999999"
     borderopacity="1"
     inkscape:pageshadow="0"
     inkscape:pageopacity="0"
     inkscape:pagecheckerboard="0"
     inkscape:document-units="px"
     showgrid="false"
     units="px"
     inkscape:zoom="0.41748047"
     inkscape:cx="172.46316"
     inkscape:cy="288.63626"
     inkscape:window-width="1920"
     inkscape:window-height="1111"
     inkscape:window-x="-9"
     inkscape:window-y="-9"
     inkscape:window-maximized="1"
     inkscape:current-layer="g2"
     viewbox-width="10.5832"
     scale-x="0.26458"
     inkscape:snap-global="true"
     inkscape:snap-bbox="false"
     inkscape:snap-page="true"
     inkscape:snap-midpoints="false"
     inkscape:object-paths="false"
     inkscape:snap-others="true"
     inkscape:snap-center="true"
     inkscape:bbox-nodes="false"
     inkscape:snap-nodes="true"
     inkscape:snap-grids="false"
     inkscape:showpageshadow="0"
     inkscape:deskcolor="#d1d1d1" />
  <defs
     id="defs82334">
    <clipPath
       id="clipPath7357">
      <use
         id="clone7463"
         xlink:href="#path1" />
    </clipPath>
    <clipPath
       id="clipPath128">
      <use
         id="clone8297"
         xlink:href="#flowRoot1" />
    </clipPath>
  </defs>
  <g
     id="g1">
    <path
       id="path1"
       style="font-weight:600;font-size:1024px;line-height:1;font-family:'Klee One';fill:#f66d6d;fill-opacity:1"
       d="m 566.27148,293.88867 c -32.08526,10.92265 -63.48709,24.91579 -94.20703,41.98242 -30.03727,17.06664 -57.68669,35.15881 -82.94531,54.27344 -24.57594,18.43196 -45.39626,36.18142 -62.46289,53.24805 -16.38396,16.38396 -32.08487,36.18001 -47.10352,59.39062 -14.33596,22.52796 -28.33106,45.73953 -41.98437,69.63282 0,-21.8453 -0.34077,-44.71414 -1.02344,-68.60743 0,-24.57594 -0.34272,-47.78752 -1.02539,-69.63281 0,-22.52796 -0.34077,-41.64244 -1.02344,-57.34375 v -29.69531 c 0,-18.43196 -2.73008,-31.06202 -8.1914,-37.88867 -8.19198,-6.82666 -18.77351,-11.94605 -31.74414,-15.35938 -3.41333,-0.68266 -7.16769,-1.02539 -11.26367,-1.02539 -3.41333,-0.68266 -6.82691,-1.02344 -10.24024,-1.02344 -12.97064,0 -20.13857,1.70777 -21.50391,5.1211 0,0.68266 -0.34272,1.36421 -1.02539,2.04687 v 1.02344 c 0,4.096 2.38932,8.19308 7.16797,12.28906 4.77866,3.41333 8.19224,7.85118 10.24024,13.3125 2.04798,4.77866 3.41303,9.55728 4.0957,14.33594 0.68267,4.096 1.02539,8.87461 1.02539,14.33594 v 33.79101 c 0,32.76794 0.68154,69.63188 2.04688,110.5918 2.04798,40.27725 4.78003,80.55478 8.19336,120.83203 3.41331,40.27725 7.16767,77.82469 11.26367,112.64063 4.77865,34.13326 9.55728,61.43996 14.33593,81.91992 2.048,8.19198 5.46158,14.33564 10.24024,18.43164 5.46132,3.41333 11.26422,5.12109 17.4082,5.12109 9.55732,0 18.0903,-3.75631 25.59961,-11.26562 8.19198,-7.50932 12.28711,-17.74812 12.28711,-30.71875 0,-2.73067 -0.68155,-5.4627 -2.04687,-8.19336 -0.68267,-2.73067 -1.70694,-5.46074 -3.07227,-8.19141 -4.096,-14.33596 -7.1688,-27.3068 -9.2168,-38.91211 -2.04798,-11.60531 -3.75381,-23.89264 -5.11914,-36.86328 v -5.12109 c 0,-17.7493 6.48444,-41.29969 19.45508,-70.6543 12.97064,-30.03727 32.42786,-62.12455 58.36914,-96.25781 25.94129,-34.13327 58.36738,-66.55936 97.2793,-97.2793 38.91192,-30.71994 84.65156,-55.9781 137.2168,-75.77539 21.91989,-8.38195 31.29579,-11.88574 66.55859,-19.45703 10.23998,-2.048 20.48072,-3.75381 30.7207,-5.11914 10.92265,-1.36533 21.50416,-2.04883 31.74414,-2.04883 h 2.04688 c 21.84529,0 41.98405,5.46212 60.41601,16.38477 19.11463,10.23998 34.47477,25.25934 46.08008,45.05664 12.28798,19.11462 18.43359,42.32424 18.4336,69.63086 v 2.04882 c -0.68267,31.40261 -7.50984,61.43939 -20.48047,90.11133 -12.97065,27.98928 -29.69583,54.2717 -50.17579,78.84766 -20.47994,23.89328 -42.66726,45.05632 -66.56054,63.48828 -23.21063,18.43196 -45.0552,32.76783 -65.53516,43.00781 -24.59465,13.47441 -46.01628,18.48742 -65.53711,18.43164 -12.97063,-1.36533 -22.86866,-8.19053 -29.69531,-20.47851 -6.82665,-12.28798 -11.948,-25.94231 -15.36133,-40.96094 -2.048,-9.55731 -5.45962,-18.77379 -10.23828,-27.64844 -4.096,-8.87465 -9.21733,-13.31054 -15.36133,-13.31054 -2.048,0 -3.41303,0.34077 -4.0957,1.02343 -4.77866,1.36534 -8.19224,6.48473 -10.24024,15.35938 -2.04798,8.19198 -3.07226,16.72496 -3.07226,25.59961 v 8.19336 c 0.68267,2.04798 1.02539,4.09459 1.02539,6.14257 1.36533,12.97065 4.09541,27.30847 8.19141,43.00977 4.77865,15.01864 12.28736,28.67101 22.52734,40.95899 10.23998,11.6053 24.23507,19.11401 41.98438,22.52734 21.87315,2.64129 40.5882,0.37811 60.41601,-4.0957 27.98928,-7.50933 58.70955,-21.84519 92.16016,-43.00782 33.45059,-21.84529 65.19515,-48.46849 95.23242,-79.87109 30.03727,-32.08527 54.61193,-67.92689 73.72656,-107.52149 19.79729,-40.27724 29.69727,-82.60137 29.69727,-126.9746 0,-31.40261 -6.82717,-60.75784 -20.48047,-88.06446 -12.97065,-27.98927 -33.79095,-50.85812 -62.46289,-68.60742 -28.67194,-18.43196 -65.53785,-28.6727 -110.59375,-30.7207 h -11.26367 c -8.87466,0 -18.09113,0.68349 -27.64844,2.04883 -8.87465,0.68265 -18.08917,1.70498 -27.64649,3.07031 -23.22998,4.4539 -42.55394,10.04345 -65.53711,18.43359 z"
       sodipodi:nodetypes="cccscccccscccsccscccsscscccscsccscscsscccssccsccccccsccsccscccccccccscccsccc" />
    <path
       id="flowRoot1"
       style="font-weight:600;font-size:1024px;line-height:1;font-family:'Klee One';fill:#f5d36c"
       d="m 553.98438,133.11914 c -8.87466,0 -14.33677,1.36699 -16.38477,4.09766 -1.36533,2.73065 -2.04688,4.43647 -2.04688,5.11914 0,4.77865 2.73009,9.89805 8.19141,15.35937 5.46133,4.77866 9.21567,9.55728 11.26367,14.33594 1.36533,2.73066 2.3896,7.16852 3.07227,13.3125 1.36533,6.14398 2.73037,17.40901 4.0957,33.79297 1.36533,16.38396 2.73038,41.30136 4.0957,74.75195 l 1.0254,64.51172 c 0.68265,19.79729 1.02343,39.93606 1.02343,60.41602 v 61.43945 c 0,51.88256 -0.34078,94.5494 -1.02343,128 -0.68267,32.76794 -1.70694,58.70959 -3.07227,77.82422 -1.36533,19.11463 -2.73038,34.13399 -4.0957,45.05664 -1.36534,10.23998 -3.0731,19.4545 -5.1211,27.64648 -4.05123,21.9572 -8.69038,42.44462 -14.33593,60.41602 -5.46133,19.11463 -11.60499,36.18254 -18.43165,51.20117 -6.82665,15.01864 -13.31303,27.64674 -19.45703,37.88672 -5.46131,8.87465 -10.58072,18.77462 -15.35937,29.69727 -4.77866,10.92263 -7.16797,19.11484 -7.16797,24.57617 0,2.73065 0.6835,4.77725 2.04883,6.14257 2.73065,1.36534 5.11997,2.04883 7.16797,2.04883 6.14398,0 15.70123,-5.46212 28.67187,-16.38476 12.97064,-10.23998 26.96573,-26.96517 41.98438,-50.17578 15.70129,-22.52796 29.35367,-52.22397 40.95898,-89.08789 7.41712,-20.26011 13.62646,-46.5591 19.45703,-74.75196 4.77866,-27.98927 8.1903,-64.16972 10.23828,-108.54297 2.73067,-45.0559 4.09766,-105.81492 4.09766,-182.27343 V 393.2168 c 0,-18.43196 -0.34273,-36.52415 -1.02539,-54.27344 l -2.04688,-63.48828 c -0.68266,-36.86394 -2.0477,-64.17063 -4.0957,-81.91992 -1.36533,-17.74931 -3.75464,-29.69585 -7.16797,-35.83985 -3.41332,-6.82665 -9.21622,-11.94605 -17.4082,-15.35937 -5.46133,-2.73067 -13.31276,-4.77921 -23.55274,-6.14453 -9.55731,-2.048 -18.09029,-3.07227 -25.5996,-3.07227 z"
       sodipodi:nodetypes="scscccsccsscscccscsscscccccssccccccs" />
  </g>
  <g
     id="g2">
    <path
       style="font-variation-settings:normal;opacity:1;vector-effect:none;fill:none;fill-opacity:1;stroke:#000000;stroke-width:128;stroke-linecap:round;stroke-linejoin:miter;stroke-miterlimit:4;stroke-dasharray:none;stroke-dashoffset:0;stroke-opacity:1;-inkscape-stroke:none;stop-color:#000000;stop-opacity:1"
       d="m 137.51126,230.2844 c 120.82593,87.12938 -42.085817,312.7468 94.48817,606.35605 0,0 0.0426,-435.86105 384.72788,-525.42138 328.61947,-76.50738 261.40516,302.79669 98.03441,415.39889 C 540.05659,847.03231 492.88071,711.37423 492.88071,711.37423"
       id="path2"
       sodipodi:nodetypes="ccssc"
       clip-path="url(#clipPath7357)" />
    <path
       style="font-variation-settings:normal;opacity:1;vector-effect:none;fill:none;fill-opacity:1;stroke:#000000;stroke-width:128;stroke-linecap:round;stroke-linejoin:miter;stroke-miterlimit:4;stroke-dasharray:none;stroke-dashoffset:0;stroke-opacity:1;-inkscape-stroke:none;stop-color:#000000;stop-opacity:1"
       d="M 493.42818,85.987814 C 711.98361,171.69166 530.14317,931.56149 530.14317,931.56149"
       id="path3"
       sodipodi:nodetypes="cc"
       clip-path="url(#clipPath128)" />
  </g>
</svg>
