<?xml version="1.0" encoding="UTF-8" standalone="no"?>
<!-- Created with Inkscape (http://www.inkscape.org/) -->

<svg
   width="1024"
   height="1024"
   viewBox="0 0 1024 1024"
   version="2"
   id="svg82337"
   inkscape:version="1.3 (0e150ed6c4, 2023-07-21)"
   sodipodi:docname="ょ.svg"
   xmlns:inkscape="http://www.inkscape.org/namespaces/inkscape"
   xmlns:sodipodi="http://sodipodi.sourceforge.net/DTD/sodipodi-0.dtd"
   xmlns:xlink="http://www.w3.org/1999/xlink"
   xmlns="http://www.w3.org/2000/svg"
   xmlns:svg="http://www.w3.org/2000/svg">
  <sodipodi:namedview
     id="namedview82339"
     pagecolor="#ffffff"
     bordercolor="#999999"
     borderopacity="1"
     inkscape:pageshadow="0"
     inkscape:pageopacity="0"
     inkscape:pagecheckerboard="0"
     inkscape:document-units="px"
     showgrid="false"
     units="px"
     inkscape:zoom="0.35355339"
     inkscape:cx="551.54329"
     inkscape:cy="711.34942"
     inkscape:window-width="1920"
     inkscape:window-height="1111"
     inkscape:window-x="-9"
     inkscape:window-y="-9"
     inkscape:window-maximized="1"
     inkscape:current-layer="svg82337"
     viewbox-width="10.5832"
     scale-x="0.26458"
     inkscape:snap-global="true"
     inkscape:snap-bbox="false"
     inkscape:snap-page="true"
     inkscape:snap-midpoints="false"
     inkscape:object-paths="false"
     inkscape:snap-others="true"
     inkscape:snap-center="true"
     inkscape:bbox-nodes="false"
     inkscape:snap-nodes="true"
     inkscape:snap-grids="false"
     inkscape:showpageshadow="0"
     inkscape:deskcolor="#d1d1d1" />
  <defs
     id="defs82334">
    <clipPath
       id="clipPath1097">
      <use
         id="clone331"
         xlink:href="#path12" />
    </clipPath>
    <clipPath
       id="clipPath6032">
      <use
         id="clone5636"
         xlink:href="#path13" />
    </clipPath>
    <clipPath
       id="clipPath1767">
      <use
         id="clone712"
         xlink:href="#path15" />
    </clipPath>
  </defs>
  <g
     id="g13">
    <path
       id="path12"
       style="font-weight:600;font-size:1024px;line-height:1;font-family:'Klee One';display:inline;fill:#f66d6d;fill-opacity:1"
       d="m 565.24805,576.51172 h 4.0957 c 8.19199,0 19.45698,-0.68154 33.79297,-2.04688 15.01865,-2.04799 30.71953,-4.4373 47.10351,-7.16796 17.06665,-2.73067 32.76753,-5.4627 47.10352,-8.19336 14.33599,-3.41333 25.25825,-6.14341 32.76758,-8.19141 12.28799,-3.41333 18.71142,-10.24425 18.43359,-20.48047 -0.34941,-12.87342 -9.42752,-18.27396 -19.45703,-23.55078 -10.23999,-5.46133 -21.16425,-7.97869 -32.76758,-8.19336 -10.13452,-0.1875 -20.78318,4.33606 -26.625,7.16797 -6.61613,3.20728 -17.06543,5.46269 -30.71875,8.19336 -13.65332,2.73066 -27.64839,5.11997 -41.98437,7.16797 -14.33599,2.04799 -26.22594,3.44508 -36.86328,4.0957 -42.69586,2.61145 -33.25692,51.19922 5.11914,51.19922 z"
       sodipodi:nodetypes="ssccccscssssss" />
    <g
       id="g15">
      <path
         id="path13"
         style="font-weight:600;font-size:1024px;line-height:1;font-family:'Klee One';display:inline;fill:#f5d36c;fill-opacity:1"
         d="m 489.47266,349.18359 c -8.87465,0 -14.33677,2.38932 -16.38477,7.16797 v 2.04883 c 0,3.41333 2.04855,7.16769 6.14453,11.26367 4.77866,4.096 9.21652,8.87462 13.3125,14.33594 1.36533,0.68267 2.38766,1.70693 3.07031,3.07227 l 2.04883,4.0957 c 0.68267,1.36533 1.02344,3.07114 1.02344,5.11914 0.68267,1.36533 1.02539,3.41387 1.02539,6.14453 0,2.73066 0.34077,15.36073 1.02344,37.88867 0.68266,21.84529 1.36421,49.49277 2.04687,82.94336 1.36534,32.76794 2.3896,66.9018 3.07227,102.40039 1.36533,35.4986 2.38961,68.26742 3.07226,98.30469 1.60648,56.95876 7.21872,126.29887 -54.27148,154.62305 -17.7493,7.50931 -35.49874,11.60639 -53.24805,12.28906 -18.43196,0 -35.84063,-3.0728 -52.22461,-9.2168 -15.70129,-6.14398 -23.55078,-13.99542 -23.55078,-23.55273 0,-3.31408 1.21725,-18.18315 22.52735,-24.57617 14.33596,-4.77867 28.67183,-7.16797 43.00781,-7.16797 h 10.24023 c 14.70667,0.65271 26.4774,-46.88887 0,-47.10352 -45.73857,0 -79.87243,8.19221 -102.40039,24.57617 -21.84529,15.70131 -32.76758,33.10999 -32.76758,52.22461 0,22.52796 10.58152,43.00748 31.74415,61.43946 21.84528,18.43196 54.61215,27.64843 98.30273,27.64843 38.22925,-0.68266 70.65731,-7.8506 97.28125,-21.5039 86.35581,-47.35407 74.25773,-138.68116 71.67969,-221.1836 -6.00516,-210.22124 -0.76304,-36.94653 -7.16797,-261.12109 -0.68267,-23.89329 -1.02344,-37.54566 -1.02344,-40.95898 0,-15.01865 -2.04853,-25.60015 -6.14453,-31.74415 -4.096,-6.14398 -11.94743,-10.58183 -23.55273,-13.3125 -5.46133,-1.36532 -11.60499,-2.73037 -18.43165,-4.0957 -6.82665,-1.36533 -13.31109,-2.04883 -19.45507,-2.04883 z"
         sodipodi:nodetypes="scscccccscccssccscscccsccssssscss" />
      <path
         id="path15"
         style="font-weight:600;font-size:1024px;line-height:1;font-family:'Klee One';display:inline;fill:#b3f56c;fill-opacity:1"
         d="m 401.4082,779.26367 c -20.91981,-0.21836 -20.65611,46.48057 0,47.10352 l 32.76758,3.07226 c 105.13488,13.1419 201.23187,71.34068 218.11133,82.94532 22.52796,15.70129 37.54732,25.94008 45.05664,30.71875 8.19198,4.77865 15.01914,7.16796 20.48047,7.16796 8.87465,0 15.35908,-4.09512 19.45508,-12.2871 4.77865,-7.50933 7.16797,-15.36076 7.16797,-23.55274 0,-9.55731 -2.73009,-16.72524 -8.19141,-21.50391 C 722.60255,882.68775 700.07447,869.03538 668.67188,851.96875 612.13143,819.30093 510.29266,779.26367 401.4082,779.26367 Z"
         sodipodi:nodetypes="cccccscsccc" />
    </g>
  </g>
  <g
     id="g14">
    <path
       style="font-variation-settings:normal;display:inline;opacity:1;vector-effect:none;fill:none;fill-opacity:1;stroke:#000000;stroke-width:128;stroke-linecap:round;stroke-linejoin:miter;stroke-miterlimit:4;stroke-dasharray:none;stroke-dashoffset:0;stroke-opacity:1;-inkscape-stroke:none;stop-color:#000000;stop-opacity:1"
       d="M 467,557 687,537"
       id="path14"
       sodipodi:nodetypes="cc"
       clip-path="url(#clipPath1097)" />
    <g
       id="g17">
      <path
         style="font-variation-settings:normal;display:inline;opacity:1;vector-effect:none;fill:none;fill-opacity:1;stroke:#000000;stroke-width:128;stroke-linecap:round;stroke-linejoin:miter;stroke-miterlimit:4;stroke-dasharray:none;stroke-dashoffset:0;stroke-opacity:1;-inkscape-stroke:none;stop-color:#000000;stop-opacity:1"
         d="m 484.27805,283.30897 c 76.66693,403.34714 84.6289,640.64012 -82.44674,640.73234 -260.42338,0.14374 -63.04034,-277.02277 286.27547,-19.96544"
         id="path16"
         sodipodi:nodetypes="csc"
         clip-path="url(#clipPath6032)" />
      <path
         style="font-variation-settings:normal;opacity:1;vector-effect:none;fill:none;fill-opacity:1;stroke:#000000;stroke-width:128;stroke-linecap:round;stroke-linejoin:miter;stroke-miterlimit:4;stroke-dasharray:none;stroke-dashoffset:0;stroke-opacity:1;-inkscape-stroke:none;stop-color:#000000;stop-opacity:1"
         d="m -609.83,805.399 h 952.58107 c 69.10124,-23.96862 192.72514,-13.64214 345.35571,98.67687"
         id="path17"
         sodipodi:nodetypes="ccc"
         clip-path="url(#clipPath1767)" />
    </g>
  </g>
</svg>
