<?xml version="1.0" encoding="UTF-8" standalone="no"?>
<!-- Created with Inkscape (http://www.inkscape.org/) -->

<svg
   width="1024"
   height="1024"
   viewBox="0 0 1024 1024"
   version="2"
   id="svg82337"
   inkscape:version="1.3 (0e150ed6c4, 2023-07-21)"
   sodipodi:docname="ら.svg"
   xmlns:inkscape="http://www.inkscape.org/namespaces/inkscape"
   xmlns:sodipodi="http://sodipodi.sourceforge.net/DTD/sodipodi-0.dtd"
   xmlns:xlink="http://www.w3.org/1999/xlink"
   xmlns="http://www.w3.org/2000/svg"
   xmlns:svg="http://www.w3.org/2000/svg">
  <sodipodi:namedview
     id="namedview82339"
     pagecolor="#ffffff"
     bordercolor="#999999"
     borderopacity="1"
     inkscape:pageshadow="0"
     inkscape:pageopacity="0"
     inkscape:pagecheckerboard="0"
     inkscape:document-units="px"
     showgrid="false"
     units="px"
     inkscape:zoom="0.41748047"
     inkscape:cx="55.092397"
     inkscape:cy="401.21637"
     inkscape:window-width="1920"
     inkscape:window-height="1111"
     inkscape:window-x="-9"
     inkscape:window-y="-9"
     inkscape:window-maximized="1"
     inkscape:current-layer="g2"
     viewbox-width="10.5832"
     scale-x="0.26458"
     inkscape:snap-global="true"
     inkscape:snap-bbox="false"
     inkscape:snap-page="true"
     inkscape:snap-midpoints="false"
     inkscape:object-paths="false"
     inkscape:snap-others="true"
     inkscape:snap-center="true"
     inkscape:bbox-nodes="false"
     inkscape:snap-nodes="true"
     inkscape:snap-grids="false"
     inkscape:showpageshadow="0"
     inkscape:deskcolor="#d1d1d1" />
  <defs
     id="defs82334">
    <clipPath
       id="clipPath6858">
      <use
         id="clone2482"
         xlink:href="#flowRoot1" />
    </clipPath>
    <clipPath
       id="clipPath1467">
      <use
         id="clone7111"
         xlink:href="#path1" />
    </clipPath>
  </defs>
  <g
     id="g1">
    <path
       style="font-weight:600;font-size:1024px;line-height:1;font-family:'Klee One';fill:#f66d6d"
       d="m 445.44,313.344 h 8.192 q 23.552,-2.048 59.392,-4.096 35.84,-2.048 55.296,-6.144 14.336,-3.072 21.504,-17.408 7.168,-15.36 7.168,-28.672 0,-11.264 -5.12,-16.384 -19.456,-18.432 -58.368,-38.912 -38.912,-21.504 -81.92,-38.912 -43.008,-17.408 -75.776,-26.624 h -3.072 q -9.216,0 -20.48,9.216 -10.24,8.192 -10.24,18.432 0,11.264 14.336,17.408 36.864,17.408 74.752,37.888 37.888,19.456 66.56,39.936 -46.08,19.456 -62.464,27.648 -16.384,7.168 -16.384,15.36 0,11.264 26.624,11.264 z"
       id="flowRoot1" />
    <path
       style="font-weight:600;font-size:1024px;line-height:1;font-family:'Klee One';fill:#f5d36c"
       d="m 723.968,683.008 v 1.024 q 0,37.888 -28.672,71.68 -28.672,33.792 -75.776,62.464 -46.08,27.648 -102.4,49.152 -55.296,20.48 -110.592,33.792 -45.056,10.24 -45.056,22.528 0,11.264 37.888,11.264 h 14.336 q 67.584,-6.144 135.168,-25.6 68.608,-18.432 124.928,-50.176 57.344,-31.744 92.16,-75.776 34.816,-45.056 34.816,-103.424 0,-38.912 -25.6,-68.608 -24.576,-30.72 -67.584,-48.128 -41.984,-17.408 -94.208,-17.408 -72.704,0 -149.504,25.6 -75.776,25.6 -142.336,65.536 V 619.52 q 0,-34.816 2.048,-84.992 3.072,-50.176 10.24,-100.352 8.192,-50.176 21.504,-83.968 3.072,-8.192 3.072,-15.36 0,-8.192 -4.096,-15.36 -4.096,-7.168 -16.384,-7.168 -16.384,0 -29.696,23.552 -13.312,23.552 -23.552,61.44 -9.216,37.888 -16.384,81.92 -6.144,44.032 -9.216,87.04 Q 256,609.28 256,641.024 q 0,35.84 4.096,52.224 4.096,16.384 13.312,21.504 10.24,4.096 24.576,4.096 21.504,0 31.744,-9.216 24.576,-21.504 66.56,-45.056 Q 439.296,640 492.544,622.592 546.816,604.16 604.16,603.136 h 3.072 q 50.176,0 82.944,21.504 33.792,21.504 33.792,58.368 z"
       id="path1" />
  </g>
  <g
     id="g2">
    <path
       style="font-variation-settings:normal;opacity:1;vector-effect:none;fill:none;fill-opacity:1;stroke:#000000;stroke-width:128;stroke-linecap:round;stroke-linejoin:miter;stroke-miterlimit:4;stroke-dasharray:none;stroke-dashoffset:0;stroke-opacity:1;-inkscape-stroke:none;stop-color:#000000;stop-opacity:1"
       d="m 280.5193,122.1201 c 0,0 250.84246,58.48993 306.92071,118.76786 L 475.2691,286.00823"
       id="path2"
       sodipodi:nodetypes="ccc"
       clip-path="url(#clipPath6858)" />
    <path
       style="font-variation-settings:normal;opacity:1;vector-effect:none;fill:none;fill-opacity:1;stroke:#000000;stroke-width:128;stroke-linecap:round;stroke-linejoin:miter;stroke-miterlimit:4;stroke-dasharray:none;stroke-dashoffset:0;stroke-opacity:1;-inkscape-stroke:none;stop-color:#000000;stop-opacity:1"
       d="m 363.27834,251.15798 c 0,0 -128.97042,256.94647 -101.92261,449.37086 0,0 430.64607,-294.92916 496.31733,-23.98796 41.63519,171.77506 -339.20367,250.59389 -339.20367,250.59389"
       id="path3"
       sodipodi:nodetypes="ccsc"
       clip-path="url(#clipPath1467)" />
  </g>
</svg>
