<?xml version="1.0" encoding="UTF-8" standalone="no"?>
<!-- Created with Inkscape (http://www.inkscape.org/) -->

<svg
   width="1024"
   height="1024"
   viewBox="0 0 1024 1024"
   version="2"
   id="svg82337"
   inkscape:version="1.3 (0e150ed6c4, 2023-07-21)"
   sodipodi:docname="る.svg"
   xmlns:inkscape="http://www.inkscape.org/namespaces/inkscape"
   xmlns:sodipodi="http://sodipodi.sourceforge.net/DTD/sodipodi-0.dtd"
   xmlns:xlink="http://www.w3.org/1999/xlink"
   xmlns="http://www.w3.org/2000/svg"
   xmlns:svg="http://www.w3.org/2000/svg">
  <sodipodi:namedview
     id="namedview82339"
     pagecolor="#ffffff"
     bordercolor="#999999"
     borderopacity="1"
     inkscape:pageshadow="0"
     inkscape:pageopacity="0"
     inkscape:pagecheckerboard="0"
     inkscape:document-units="px"
     showgrid="false"
     units="px"
     inkscape:zoom="0.59040654"
     inkscape:cx="420.04955"
     inkscape:cy="537.76504"
     inkscape:window-width="1920"
     inkscape:window-height="1111"
     inkscape:window-x="-9"
     inkscape:window-y="-9"
     inkscape:window-maximized="1"
     inkscape:current-layer="svg82337"
     viewbox-width="10.5832"
     scale-x="0.26458"
     inkscape:snap-global="true"
     inkscape:snap-bbox="false"
     inkscape:snap-page="true"
     inkscape:snap-midpoints="false"
     inkscape:object-paths="false"
     inkscape:snap-others="true"
     inkscape:snap-center="true"
     inkscape:bbox-nodes="false"
     inkscape:snap-nodes="true"
     inkscape:snap-grids="false"
     inkscape:showpageshadow="0"
     inkscape:deskcolor="#d1d1d1" />
  <defs
     id="defs82334">
    <clipPath
       id="clipPath8284">
      <use
         id="clone1051"
         xlink:href="#flowRoot1" />
    </clipPath>
    <clipPath
       id="clipPath1871">
      <use
         id="clone7934"
         xlink:href="#path1" />
    </clipPath>
  </defs>
  <g
     id="g2"
     style="display:inline">
    <g
       id="g1">
      <path
         id="flowRoot1"
         style="font-weight:600;font-size:1024px;line-height:1;font-family:'Klee One';display:inline;fill:#f66d6d"
         d="m 606.20703,177.15234 c -6.14398,0 -12.28766,1.36504 -18.43164,4.09571 -5.46132,2.73065 -11.94576,4.7792 -19.45508,6.14453 -4.77865,0.68266 -15.0194,2.72925 -30.7207,6.14258 -15.7013,3.41332 -34.47502,7.5104 -56.32031,12.28906 -21.16263,4.77865 -42.66643,9.55727 -64.51172,14.33594 -21.16263,4.77865 -39.93635,9.2165 -56.32031,13.3125 -16.38398,3.41332 -27.30626,5.80264 -32.76758,7.16796 -2.73067,0.68267 -5.46074,1.02344 -8.19141,1.02344 h -7.16797 c -6.82665,0 -13.65381,-0.34077 -20.48047,-1.02344 -6.82665,-0.68265 -12.62954,-1.02539 -17.4082,-1.02539 -4.096,0 -6.82607,0.34274 -8.19141,1.02539 -3.41332,1.36534 -5.12109,3.75465 -5.12109,7.16797 0,6.144 3.0728,13.6527 9.2168,22.52735 6.14398,8.19198 13.31192,15.70069 21.5039,22.52734 8.87465,6.82665 17.06685,10.24024 24.57618,10.24024 5.46131,0 10.92344,-1.02427 16.38476,-3.07227 5.46133,-2.048 11.26227,-3.75381 17.40625,-5.11914 15.70131,-3.41333 35.84006,-8.19194 60.41602,-14.33594 25.25861,-6.82665 50.51873,-13.31305 75.77734,-19.45703 25.25862,-6.82665 45.73816,-11.94605 61.43945,-15.35937 -10.23998,12.97063 -25.25934,31.06086 -45.05664,54.27148 -19.11462,23.21062 -40.61843,49.15228 -64.51172,77.82422 -23.89328,28.67194 -48.46794,58.02718 -73.72656,88.06445 -24.57594,30.03728 -48.47102,58.36825 -71.68164,84.99219 -23.21062,25.94128 -43.34938,48.46936 -60.41601,67.58398 -17.06664,18.43198 -29.69474,30.71929 -37.88672,36.86329 -8.87465,8.19198 -13.3125,17.06767 -13.3125,26.625 0,10.92263 4.09511,21.16143 12.28711,30.71874 8.87464,9.55733 18.09112,14.33594 27.64843,14.33594 8.192,0 15.35993,-4.09513 21.50391,-12.28711 32.08527,-43.0079 67.92494,-77.48254 107.51953,-103.42383 39.59459,-26.62394 78.8498,-45.73844 117.76172,-57.34374 39.59459,-12.28798 74.75076,-18.43165 105.4707,-18.43165 28.67194,0 54.95437,5.1194 78.84766,15.35938 24.57594,9.55731 44.37394,23.20969 59.39258,40.95898 15.01863,17.74931 23.55161,38.91233 25.59961,63.48829 v 7.16796 c 0.68266,2.048 1.02539,4.09654 1.02539,6.14454 0,32.08526 -8.87571,59.73274 -26.625,82.94335 -17.7493,22.52796 -39.93661,40.9609 -66.56055,55.29688 -25.94128,14.33598 -51.54021,24.57672 -76.79883,30.7207 -23.8361,6.17195 -41.2609,7.54373 -68.60742,11.26367 -6.82665,0.68267 -13.31305,1.36421 -19.45703,2.04688 h -17.4082 c -36.86394,0 -65.53567,-4.09513 -86.01563,-12.28711 -19.79729,-8.87465 -29.69531,-17.40763 -29.69531,-25.59961 0.51845,-13.38346 -60.83174,-18.96998 -61.44141,-1.02539 0,23.89329 15.01937,46.42137 45.05664,67.58398 30.71994,20.47996 78.1654,30.72071 142.33594,30.72071 h 22.52734 c 58.02656,-2.73067 110.59337,-15.018 157.69727,-36.86328 47.1039,-22.52796 84.6494,-51.54242 112.63867,-87.04102 27.98928,-36.18126 41.98438,-75.43452 41.98438,-117.75976 0,-2.048 -0.34077,-4.09654 -1.02344,-6.14454 v -8.1914 c -2.048,-35.4986 -13.65378,-65.87811 -34.81641,-91.13672 -20.47996,-25.94129 -47.44588,-45.73732 -80.89648,-59.39063 -32.76794,-14.33596 -69.28915,-21.5039 -109.56641,-21.5039 -28.67194,0 -61.44075,4.4359 -98.30469,13.31054 -36.18125,8.87466 -71.68015,23.21052 -106.49609,43.00782 48.46924,-55.97856 93.86616,-108.20264 136.19141,-156.67188 42.32525,-49.1519 81.23772,-94.88959 116.73633,-137.21484 3.41332,-4.096 7.85117,-8.53385 13.3125,-13.3125 5.46131,-5.46133 8.1914,-11.60499 8.1914,-18.43164 0,-6.144 -4.77862,-13.6527 -14.33594,-22.52735 -9.55731,-8.87464 -19.79805,-13.3125 -30.7207,-13.3125 z"
         sodipodi:nodetypes="sccscccssssscsccsscccccsccccscscccscsccscccccsccccscccsccccscccccsss" />
      <path
         id="path1"
         style="font-weight:600;font-size:1024px;line-height:1;font-family:'Klee One';fill:#f5d36c;fill-opacity:1"
         d="m 568.32031,837.63281 c -8.19198,-26.62394 -21.84631,-48.47047 -40.96093,-65.53711 -18.43198,-17.74929 -39.595,-30.72011 -63.48829,-38.91211 -23.21061,-8.87464 -46.76101,-13.3125 -70.65429,-13.3125 -33.45061,0 -59.73498,9.89998 -78.84961,29.69727 -19.11463,19.79729 -28.67188,40.6176 -28.67188,62.46289 0.56176,24.50771 62.48032,15.23579 61.44141,1.02539 0,-9.55731 3.75435,-17.40875 11.26367,-23.55273 7.50932,-6.82666 18.4316,-10.24024 32.76758,-10.24024 9.55731,0 21.84465,2.38932 36.86328,7.16797 15.01863,4.77866 29.35451,12.28932 43.00781,22.5293 14.33598,10.23998 23.89518,23.55158 28.67383,39.93554 12.21949,34.44815 75.59553,23.42388 68.60742,-11.26367 z"
         sodipodi:nodetypes="cccsscccssccc" />
    </g>
  </g>
  <g
     id="g3">
    <g
       id="g4">
      <path
         style="font-variation-settings:normal;display:inline;opacity:1;vector-effect:none;fill:none;fill-opacity:1;stroke:#000000;stroke-width:128;stroke-linecap:round;stroke-linejoin:miter;stroke-miterlimit:4;stroke-dasharray:none;stroke-dashoffset:0;stroke-opacity:1;-inkscape-stroke:none;stop-color:#000000;stop-opacity:1"
         d="m 196.21642,261.08527 c 207.82886,24.52181 261.10956,-107.15454 424.54228,-76.46672 -21.54118,76.55053 -333.47285,297.09304 -427.27076,500.50259 0,0 544.71497,-368.93429 574.51253,-6.26828 14.74226,179.42812 -201.38597,211.23425 -360.00661,200.06746 0,0 -136.18364,-7.03116 -82.04933,-101.449 44.13747,-76.98194 191.89618,39.12292 191.89618,39.12292"
         id="path2"
         sodipodi:nodetypes="cccscsc"
         clip-path="url(#clipPath8284)" />
      <path
         style="font-variation-settings:normal;display:inline;opacity:1;vector-effect:none;fill:none;fill-opacity:1;stroke:#000000;stroke-width:128;stroke-linecap:round;stroke-linejoin:miter;stroke-miterlimit:4;stroke-dasharray:none;stroke-dashoffset:0;stroke-opacity:1;-inkscape-stroke:none;stop-color:#000000;stop-opacity:1"
         d="m 661.532,277.01647 c 138.68947,156.71434 266.13447,93.98265 367.6015,225.7265 -67.05389,42.7526 -446.61861,-0.50237 -652.06338,88.74973 0,0 652.03608,87.61172 432.71085,377.97521 -108.51064,143.65659 -290.90762,23.43023 -401.78711,-90.54759 0,0 -136.18364,-7.03116 -82.04933,-101.449 44.13747,-76.98194 191.89618,39.12292 191.89618,39.12292"
         id="path4"
         sodipodi:nodetypes="cccscsc"
         clip-path="url(#clipPath1871)" />
    </g>
  </g>
</svg>
