<?xml version="1.0" encoding="UTF-8" standalone="no"?>
<!-- Created with Inkscape (http://www.inkscape.org/) -->

<svg
   width="1024"
   height="1024"
   viewBox="0 0 1024 1024"
   version="2"
   id="svg82337"
   inkscape:version="1.3 (0e150ed6c4, 2023-07-21)"
   sodipodi:docname="れ.svg"
   xmlns:inkscape="http://www.inkscape.org/namespaces/inkscape"
   xmlns:sodipodi="http://sodipodi.sourceforge.net/DTD/sodipodi-0.dtd"
   xmlns:xlink="http://www.w3.org/1999/xlink"
   xmlns="http://www.w3.org/2000/svg"
   xmlns:svg="http://www.w3.org/2000/svg">
  <sodipodi:namedview
     id="namedview82339"
     pagecolor="#ffffff"
     bordercolor="#999999"
     borderopacity="1"
     inkscape:pageshadow="0"
     inkscape:pageopacity="0"
     inkscape:pagecheckerboard="0"
     inkscape:document-units="px"
     showgrid="false"
     units="px"
     inkscape:zoom="0.41748047"
     inkscape:cx="294.62456"
     inkscape:cy="360.49591"
     inkscape:window-width="1920"
     inkscape:window-height="1111"
     inkscape:window-x="-9"
     inkscape:window-y="-9"
     inkscape:window-maximized="1"
     inkscape:current-layer="g2"
     viewbox-width="10.5832"
     scale-x="0.26458"
     inkscape:snap-global="true"
     inkscape:snap-bbox="false"
     inkscape:snap-page="true"
     inkscape:snap-midpoints="false"
     inkscape:object-paths="false"
     inkscape:snap-others="true"
     inkscape:snap-center="true"
     inkscape:bbox-nodes="false"
     inkscape:snap-nodes="true"
     inkscape:snap-grids="false"
     inkscape:showpageshadow="0"
     inkscape:deskcolor="#d1d1d1" />
  <defs
     id="defs82334">
    <clipPath
       id="clipPath8151">
      <use
         id="clone3398"
         xlink:href="#path1" />
    </clipPath>
    <clipPath
       id="clipPath2352">
      <use
         id="clone8774"
         xlink:href="#flowRoot1" />
    </clipPath>
  </defs>
  <g
     id="g1">
    <path
       style="font-weight:600;font-size:1024px;line-height:1;font-family:'Klee One';display:inline;fill:#f5d36c;fill-opacity:1"
       d="m 360.448,491.52 c 0.68267,-2.73067 1.024,-6.48533 1.024,-11.264 l 11.264,-144.384 c 2.73067,-27.30667 5.46133,-51.88267 8.192,-73.728 3.41333,-22.528 6.82667,-41.30133 10.24,-56.32 4.096,-15.70133 6.144,-26.28267 6.144,-31.744 v -3.072 c 0,-9.55733 -4.77867,-17.06667 -14.336,-22.528 -8.87467,-5.46133 -18.77333,-9.55733 -29.696,-12.288 -10.24,-2.73067 -17.74933,-4.096 -22.528,-4.096 -8.192,0 -13.312,2.73067 -15.36,8.192 0,0.68267 -0.34133,1.36533 -1.024,2.048 v 0 c 0,3.41333 1.70667,7.168 5.12,11.264 3.41333,4.096 5.80267,8.192 7.168,12.288 2.048,4.77867 3.072,10.58133 3.072,17.408 v 7.168 c -2.73067,15.70133 -5.46133,38.57067 -8.192,68.608 -2.73067,29.35467 -5.80267,62.80533 -9.216,100.352 l -5.12,63.488 -3.072,45.056 -10.24,177.152 c -1.36533,28.672 -2.73067,55.97867 -4.096,81.92 -0.68267,25.94133 -1.024,49.83467 -1.024,71.68 v 22.528 c 0,6.82667 0.34133,13.312 1.024,19.456 v 6.144 c 0,7.50933 -0.68267,15.01867 -2.048,22.528 -0.68267,7.50933 -1.70667,15.36 -3.072,23.552 V 896 c 0,10.92267 3.75467,22.86933 11.264,35.84 8.192,12.97067 17.408,19.79733 27.648,20.48 11.60533,0 19.456,-4.43733 23.552,-13.312 4.096,-8.192 6.144,-17.06667 6.144,-26.624 0,-10.24 -0.34133,-19.456 -1.024,-27.648 -0.68267,-8.192 -1.024,-14.67733 -1.024,-19.456 -0.68267,-9.55733 -1.024,-19.456 -1.024,-29.696 v -32.768 c 0,-32.08533 0.34133,-67.584 1.024,-106.496 1.36533,-38.912 3.072,-78.50667 5.12,-118.784 z"
       id="path1"
       sodipodi:nodetypes="cccccssccscssscscccccccsscsccscccsscssccc" />
    <path
       style="font-weight:600;font-size:1024px;line-height:1;font-family:'Klee One';display:inline;fill:#f66d6d"
       d="m 660.48,717.824 v 4.096 c 0,24.576 3.41333,47.78667 10.24,69.632 7.50933,21.84533 19.11467,39.59467 34.816,53.248 16.384,13.65333 37.54667,20.48 63.488,20.48 23.21067,0 46.76267,-5.46133 70.656,-16.384 24.576,-10.92267 47.104,-24.23467 67.584,-39.936 20.48,-15.70133 36.864,-31.06133 49.152,-46.08 12.97067,-15.01867 19.456,-26.624 19.456,-34.816 0,-2.73067 -1.024,-5.12 -3.072,-7.168 -2.73067,-2.048 -5.80267,-3.072 -9.216,-3.072 -4.77867,0 -9.55733,1.36533 -14.336,4.096 -4.77867,2.73067 -9.216,5.46133 -13.312,8.192 -15.70133,9.55733 -33.45067,19.79733 -53.248,30.72 -19.11467,10.24 -38.22933,19.11467 -57.344,26.624 -18.432,6.82667 -35.15733,10.24 -50.176,10.24 -5.46133,0 -12.288,-1.36533 -20.48,-4.096 -8.192,-2.73067 -15.36,-9.55733 -21.504,-20.48 -5.46133,-10.92267 -8.192,-28.672 -8.192,-53.248 0,-37.54667 2.73067,-75.09333 8.192,-112.64 5.46133,-37.54667 10.92267,-75.43467 16.384,-113.664 5.46133,-38.22933 8.53333,-76.45867 9.216,-114.688 v -3.072 c 0,-30.72 -7.168,-55.97867 -21.504,-75.776 -14.336,-19.79733 -35.15733,-29.696 -62.464,-29.696 -34.816,0 -77.14133,18.09067 -126.976,54.272 -49.152,36.18133 -111.616,91.81867 -187.392,166.912 l -4.48917,4.08265 5.51317,-15.34665 c 7.50933,-17.74933 15.36,-34.13333 23.552,-49.152 8.192,-15.70133 15.36,-29.01333 21.504,-39.936 l 5.12,-10.24 c 1.36533,-3.41333 2.048,-6.48533 2.048,-9.216 0,-6.82667 -5.12,-13.99467 -15.36,-21.504 -9.55733,-8.192 -18.09067,-12.97067 -25.6,-14.336 l -60.416,23.552 c -15.01867,7.50933 -31.744,15.36 -50.176,23.552 -17.74933,8.192 -34.47467,15.36 -50.176,21.504 -15.01867,6.144 -26.624,10.58133 -34.816,13.312 -6.82667,2.048 -13.99467,3.072 -21.504,3.072 -4.77867,0 -9.216,-0.68267 -13.312,-2.048 -4.096,-1.36533 -7.85067,-2.048 -11.264,-2.048 -4.096,0 -7.168,0.68267 -9.216,2.048 -1.36533,1.36533 -2.048,3.072 -2.048,5.12 0,5.46133 3.072,12.97067 9.216,22.528 6.144,9.55733 13.99467,18.09067 23.552,25.6 10.24,6.82667 20.48,10.24 30.72,10.24 3.41333,0 7.85067,-1.024 13.312,-3.072 5.46133,-2.048 16.04267,-7.168 31.744,-15.36 16.384,-8.192 42.66667,-21.84533 78.848,-40.96 L 325.31371,413.49405 304.128,467.968 c -11.60533,33.45067 -22.86933,61.78133 -33.792,84.992 -10.92267,22.528 -21.504,42.66667 -31.744,60.416 -10.24,17.06667 -20.48,34.47467 -30.72,52.224 -19.11467,32.768 -38.57067,62.464 -58.368,89.088 -19.11467,26.624 -33.45067,47.78667 -43.008,63.488 -2.048,2.73067 -3.41333,5.80267 -4.096,9.216 -0.68267,3.41333 -1.024,6.82667 -1.024,10.24 0,6.82667 3.41333,15.01867 10.24,24.576 7.50933,8.87467 16.72533,13.312 27.648,13.312 5.46133,0 9.89867,-2.048 13.312,-6.144 4.096,-4.77867 7.50933,-9.55733 10.24,-14.336 8.87467,-16.384 20.82133,-36.52267 35.84,-60.416 15.01867,-24.576 31.06133,-49.83467 48.128,-75.776 17.06667,-26.624 32.768,-51.2 47.104,-73.728 l 62.464,-67.584 c 24.576,-32.768 51.88267,-63.82933 81.92,-93.184 30.03733,-30.03733 59.73333,-56.66133 89.088,-79.872 30.03733,-23.89333 57.00267,-42.66667 80.896,-56.32 23.89333,-13.65333 41.64267,-20.48 53.248,-20.48 11.60533,0 19.79733,4.43733 24.576,13.312 5.46133,8.192 8.192,19.79733 8.192,34.816 0,15.01867 -1.70667,36.52267 -5.12,64.512 -2.73067,27.30667 -6.48533,57.68533 -11.264,91.136 -4.096,32.768 -7.85067,65.536 -11.264,98.304 -3.41333,32.768 -5.46133,62.12267 -6.144,88.064 z"
       id="flowRoot1"
       sodipodi:nodetypes="csccscscscsscccsscssscssscccccccsccccccssscsscsscccccccccsscsccccccccsscsccsc" />
  </g>
  <g
     id="g2">
    <path
       style="font-variation-settings:normal;display:inline;opacity:1;vector-effect:none;fill:none;fill-opacity:1;stroke:#000000;stroke-width:128;stroke-linecap:round;stroke-linejoin:miter;stroke-miterlimit:4;stroke-dasharray:none;stroke-dashoffset:0;stroke-opacity:1;-inkscape-stroke:none;stop-color:#000000;stop-opacity:1"
       d="M 334.66839,65.300473 342.531,897.04796"
       id="path2"
       sodipodi:nodetypes="cc"
       clip-path="url(#clipPath8151)" />
    <path
       style="font-variation-settings:normal;opacity:1;vector-effect:none;fill:none;fill-opacity:1;stroke:#000000;stroke-width:128;stroke-linecap:round;stroke-linejoin:miter;stroke-miterlimit:4;stroke-dasharray:none;stroke-dashoffset:0;stroke-opacity:1;-inkscape-stroke:none;stop-color:#000000;stop-opacity:1"
       d="M 53.819947,427.41961 C 241.21442,459.09621 252.53353,332.36608 362.62342,344.59832 266.57088,501.73848 268.57684,580.97888 116.1585,873.80664 c 0,0 594.28203,-815.769289 595.23994,-494.72685 0.95791,321.04244 -120.3123,588.13402 228.76531,387.42314"
       id="path3"
       sodipodi:nodetypes="ccczc"
       clip-path="url(#clipPath2352)" />
  </g>
</svg>
