<?xml version="1.0" encoding="UTF-8" standalone="no"?>
<!-- Created with Inkscape (http://www.inkscape.org/) -->

<svg
   width="1024"
   height="1024"
   viewBox="0 0 1024 1024"
   version="2"
   id="svg82337"
   inkscape:version="1.3 (0e150ed6c4, 2023-07-21)"
   sodipodi:docname="ã‚.svg"
   xmlns:inkscape="http://www.inkscape.org/namespaces/inkscape"
   xmlns:sodipodi="http://sodipodi.sourceforge.net/DTD/sodipodi-0.dtd"
   xmlns:xlink="http://www.w3.org/1999/xlink"
   xmlns="http://www.w3.org/2000/svg"
   xmlns:svg="http://www.w3.org/2000/svg">
  <sodipodi:namedview
     id="namedview82339"
     pagecolor="#ffffff"
     bordercolor="#999999"
     borderopacity="1"
     inkscape:pageshadow="0"
     inkscape:pageopacity="0"
     inkscape:pagecheckerboard="0"
     inkscape:document-units="px"
     showgrid="false"
     units="px"
     inkscape:zoom="0.59040654"
     inkscape:cx="519.98069"
     inkscape:cy="619.06496"
     inkscape:window-width="1920"
     inkscape:window-height="1111"
     inkscape:window-x="-9"
     inkscape:window-y="-9"
     inkscape:window-maximized="1"
     inkscape:current-layer="svg82337"
     viewbox-width="10.5832"
     scale-x="0.26458"
     inkscape:snap-global="true"
     inkscape:snap-bbox="false"
     inkscape:snap-page="true"
     inkscape:snap-midpoints="false"
     inkscape:object-paths="false"
     inkscape:snap-others="true"
     inkscape:snap-center="true"
     inkscape:bbox-nodes="false"
     inkscape:snap-nodes="true"
     inkscape:snap-grids="false"
     inkscape:showpageshadow="0"
     inkscape:deskcolor="#d1d1d1" />
  <defs
     id="defs82334">
    <clipPath
       id="clipPath101">
      <use
         id="clone8053"
         xlink:href="#path1" />
    </clipPath>
    <clipPath
       id="clipPath8064">
      <use
         id="clone795"
         xlink:href="#flowRoot1" />
    </clipPath>
  </defs>
  <g
     id="g1">
    <path
       style="font-weight:600;font-size:1024px;line-height:1;font-family:'Klee One';display:inline;fill:#f66d6d;fill-opacity:1"
       d="m 349.184,505.856 v -9.216 l 12.288,-159.744 c 2.73067,-34.13333 6.48533,-64.85333 11.264,-92.16 4.77867,-27.98933 8.53333,-49.49333 11.264,-64.512 0.68267,-1.36533 1.024,-3.072 1.024,-5.12 v -4.096 c 0,-8.87467 -4.43733,-16.384 -13.312,-22.528 -8.87467,-6.82667 -19.11467,-11.94667 -30.72,-15.36 -10.92267,-3.41333 -20.13867,-5.12 -27.648,-5.12 -8.87467,0 -13.99467,2.048 -15.36,6.144 -0.68267,1.36533 -1.024,3.072 -1.024,5.12 0,4.096 1.36533,7.85067 4.096,11.264 3.41333,3.41333 6.144,7.168 8.192,11.264 1.36533,3.41333 2.73067,7.168 4.096,11.264 1.36533,3.41333 2.048,7.50933 2.048,12.288 v 4.096 c -2.73067,23.21067 -5.46133,49.83467 -8.192,79.872 -2.048,29.35467 -4.096,61.09867 -6.144,95.232 l -4.096,64.512 c -0.68267,12.288 -1.36533,24.91733 -2.048,37.888 -0.68267,12.288 -1.36533,24.91733 -2.048,37.888 l -7.168,156.672 c -0.68267,23.21067 -1.36533,45.73867 -2.048,67.584 v 60.416 43.008 c 0.68267,12.97067 1.36533,24.23467 2.048,33.792 v 3.072 c 0,4.096 -0.68267,8.192 -2.048,12.288 -0.68267,3.41333 -1.024,7.85067 -1.024,13.312 v 3.072 c 1.36533,15.01867 6.48533,28.672 15.36,40.96 9.55733,12.97067 18.77333,19.456 27.648,19.456 11.60533,0 18.77333,-4.43733 21.504,-13.312 2.73067,-8.87467 4.43733,-17.74933 5.12,-26.624 v -6.144 c 0,-8.87467 -0.68267,-17.06667 -2.048,-24.576 -0.68267,-7.50933 -1.36533,-12.97067 -2.048,-16.384 -2.048,-22.528 -3.41333,-46.76267 -4.096,-72.704 -0.68267,-25.94133 -1.024,-52.90667 -1.024,-80.896 v -59.392 c 0.68267,-20.48 1.36533,-41.30133 2.048,-62.464 z"
       id="path1"
       sodipodi:nodetypes="cccccssccscscccscccccccccccscsccsscsccssccc" />
    <path
       style="font-weight:600;font-size:1024px;line-height:1;font-family:'Klee One';fill:#f5d36c"
       d="m 512,920.576 v 3.072 c 0.68267,4.77867 5.12,7.168 13.312,7.168 0.68267,0 9.89867,-2.38933 27.648,-7.168 18.432,-4.77867 41.64267,-12.288 69.632,-22.528 28.672,-10.92267 58.368,-24.91733 89.088,-41.984 31.40267,-17.74933 61.09867,-39.25333 89.088,-64.512 27.98933,-25.94133 50.51733,-55.97867 67.584,-90.112 17.74933,-34.816 26.624,-74.752 26.624,-119.808 0,-52.56533 -10.92267,-95.57333 -32.768,-129.024 -21.16267,-33.45067 -49.83467,-58.368 -86.016,-74.752 -35.49867,-17.06667 -74.752,-25.94133 -117.76,-26.624 h -6.144 c -34.13333,0 -69.97333,7.168 -107.52,21.504 -36.864,14.336 -72.36267,33.10933 -106.496,56.32 -34.13333,22.528 -63.82933,47.104 -89.088,73.728 v -9.216 c 12.97067,-27.98933 25.6,-52.56533 37.888,-73.728 12.288,-21.84533 19.456,-34.47467 21.504,-37.888 1.36533,-1.36533 2.048,-3.072 2.048,-5.12 v -5.12 c 0,-9.55733 -5.46133,-18.09067 -16.384,-25.6 -10.24,-8.192 -20.13867,-12.288 -29.696,-12.288 h -3.072 l -60.416,27.648 c -27.30667,12.97067 -53.93067,24.576 -79.872,34.816 -25.94133,9.55733 -44.71467,15.70133 -56.32,18.432 -2.73067,0.68267 -6.82667,1.36533 -12.288,2.048 h -12.288 c -3.41333,-0.68267 -6.82667,-1.024 -10.24,-1.024 h -7.168 c -8.192,0 -12.288,3.41333 -12.288,10.24 v 3.072 c 0.68267,3.41333 3.75467,9.55733 9.216,18.432 5.46133,8.192 12.62933,15.70133 21.504,22.528 9.55733,6.82667 19.79733,10.24 30.72,10.24 3.41333,0 8.192,-0.68267 14.336,-2.048 6.82667,-2.048 18.432,-6.82667 34.816,-14.336 L 296.96,429.056 330.84182,413.04926 292.864,504.832 c -7.50933,19.79733 -24.576,55.97867 -51.2,108.544 -26.624,51.88267 -70.31467,117.41867 -131.072,196.608 -3.41333,5.46133 -5.12,10.92267 -5.12,16.384 0,10.24 3.75467,20.48 11.264,30.72 8.192,9.55733 17.06667,14.336 26.624,14.336 9.55733,0 18.09067,-6.144 25.6,-18.432 19.79733,-34.13333 39.936,-67.584 60.416,-100.352 20.48,-32.768 39.25333,-63.14667 56.32,-91.136 l 59.392,-65.536 c 39.59467,-52.56533 83.62667,-94.89067 132.096,-126.976 49.152,-32.768 102.4,-51.54133 159.744,-56.32 h 9.216 c 2.73067,-0.68267 5.46133,-1.024 8.192,-1.024 28.672,0 55.63733,5.46133 80.896,16.384 25.25867,10.24 45.73867,27.648 61.44,52.224 15.70133,24.576 23.552,58.02667 23.552,100.352 0,43.008 -9.89867,81.23733 -29.696,114.688 -19.11467,33.45067 -43.69067,63.14667 -73.728,89.088 -29.35467,25.25867 -60.07467,47.44533 -92.16,66.56 -32.08533,18.432 -61.09867,34.47467 -87.04,48.128 -4.77867,2.73067 -10.24,5.80267 -16.384,9.216 -6.144,3.41333 -9.216,7.50933 -9.216,12.288 z"
       id="flowRoot1"
       sodipodi:nodetypes="scscccccscccsccccccsscsccccccssscccscccccccscscscccccscssccccss" />
  </g>
  <g
     id="g2">
    <path
       style="font-variation-settings:normal;display:inline;opacity:1;vector-effect:none;fill:none;fill-opacity:1;stroke:#000000;stroke-width:128;stroke-linecap:round;stroke-linejoin:miter;stroke-miterlimit:4;stroke-dasharray:none;stroke-dashoffset:0;stroke-opacity:1;-inkscape-stroke:none;stop-color:#000000;stop-opacity:1"
       d="M 328.58714,59.298814 338.74963,901.07403"
       id="path2"
       sodipodi:nodetypes="cc"
       clip-path="url(#clipPath101)" />
    <path
       style="font-variation-settings:normal;opacity:1;vector-effect:none;fill:none;fill-opacity:1;stroke:#000000;stroke-width:128;stroke-linecap:round;stroke-linejoin:miter;stroke-miterlimit:4;stroke-dasharray:none;stroke-dashoffset:0;stroke-opacity:1;-inkscape-stroke:none;stop-color:#000000;stop-opacity:1"
       d="M 44.037453,438.68078 C 176.85524,457.92638 273.61932,349.47282 368.62065,333.08719 229.0832,542.10236 245.78751,661.33398 118.94323,863.89418 c 0,0 416.51588,-658.78116 667.19061,-418.26889 250.67476,240.5122 -217.81081,457.20267 -217.81081,457.20267"
       id="path3"
       sodipodi:nodetypes="cccsc"
       clip-path="url(#clipPath8064)" />
  </g>
</svg>
