<?xml version="1.0" encoding="UTF-8" standalone="no"?>
<!-- Created with Inkscape (http://www.inkscape.org/) -->

<svg
   width="1024"
   height="1024"
   viewBox="0 0 1024 1024"
   version="2"
   id="svg82337"
   inkscape:version="1.3 (0e150ed6c4, 2023-07-21)"
   sodipodi:docname="を.svg"
   xmlns:inkscape="http://www.inkscape.org/namespaces/inkscape"
   xmlns:sodipodi="http://sodipodi.sourceforge.net/DTD/sodipodi-0.dtd"
   xmlns:xlink="http://www.w3.org/1999/xlink"
   xmlns="http://www.w3.org/2000/svg"
   xmlns:svg="http://www.w3.org/2000/svg">
  <sodipodi:namedview
     id="namedview82339"
     pagecolor="#ffffff"
     bordercolor="#999999"
     borderopacity="1"
     inkscape:pageshadow="0"
     inkscape:pageopacity="0"
     inkscape:pagecheckerboard="0"
     inkscape:document-units="px"
     showgrid="false"
     units="px"
     inkscape:zoom="0.83496094"
     inkscape:cx="477.86667"
     inkscape:cy="462.89591"
     inkscape:window-width="1920"
     inkscape:window-height="1111"
     inkscape:window-x="-9"
     inkscape:window-y="-9"
     inkscape:window-maximized="1"
     inkscape:current-layer="svg82337"
     viewbox-width="10.5832"
     scale-x="0.26458"
     inkscape:snap-global="true"
     inkscape:snap-bbox="false"
     inkscape:snap-page="true"
     inkscape:snap-midpoints="false"
     inkscape:object-paths="false"
     inkscape:snap-others="true"
     inkscape:snap-center="true"
     inkscape:bbox-nodes="false"
     inkscape:snap-nodes="true"
     inkscape:snap-grids="false"
     inkscape:showpageshadow="0"
     inkscape:deskcolor="#d1d1d1" />
  <defs
     id="defs82334">
    <clipPath
       id="clipPath2591">
      <use
         id="clone5227"
         xlink:href="#path1" />
    </clipPath>
    <clipPath
       id="clipPath4115">
      <use
         id="clone6608"
         xlink:href="#path2" />
    </clipPath>
    <clipPath
       id="clipPath2276">
      <use
         id="clone8475"
         xlink:href="#flowRoot1" />
    </clipPath>
  </defs>
  <g
     id="g2">
    <path
       style="font-weight:600;font-size:1024px;line-height:1;font-family:'Klee One';fill:#f66d6d;fill-opacity:1"
       d="m 447.488,299.008 c 46.42133,-6.144 83.28533,-10.92267 110.592,-14.336 27.98933,-4.096 48.46933,-7.85067 61.44,-11.264 13.65333,-3.41333 22.528,-7.168 26.624,-11.264 4.096,-4.096 6.144,-9.216 6.144,-15.36 -0.68267,-7.50933 -7.85067,-14.67733 -21.504,-21.504 -12.97067,-6.82667 -24.576,-10.24 -34.816,-10.24 -4.096,0 -6.82667,0.34133 -8.192,1.024 -5.46133,2.048 -10.58133,4.096 -15.36,6.144 l -12.288,4.096 c -6.144,1.36533 -17.408,3.072 -33.792,5.12 -15.70133,2.048 -33.792,4.77867 -54.272,8.192 l -67.584,9.216 c -38.22933,4.77867 -72.704,8.87467 -103.424,12.288 -30.03733,3.41333 -56.66133,5.12 -79.872,5.12 -5.46133,0 -11.264,-1.36533 -17.408,-4.096 -5.46133,-2.73067 -10.58133,-4.096 -15.36,-4.096 -2.048,0 -4.43733,0.68267 -7.168,2.048 -2.048,2.048 -3.072,4.43733 -3.072,7.168 0,10.92267 8.192,25.6 24.576,44.032 4.77867,5.46133 9.89867,8.87467 15.36,10.24 6.144,0.68267 11.94667,1.024 17.408,1.024 17.06667,-0.68267 37.888,-2.38933 62.464,-5.12 24.576,-2.73067 51.54133,-5.80267 80.896,-9.216 z"
       id="path1"
       sodipodi:nodetypes="cccsccscccccccscscscccscc" />
    <path
       style="font-weight:600;font-size:1024px;line-height:1;font-family:'Klee One';fill:#f5d36c;fill-opacity:1"
       d="m 562.176,550.912 c -0.64091,-39.73636 -16.384,-67.24267 -38.912,-82.944 -22.528,-15.70133 -46.76267,-23.89333 -72.704,-24.576 h -3.072 c -17.06667,0 -34.47467,4.096 -52.224,12.288 -17.06667,7.50933 -34.47467,17.06667 -52.224,28.672 23.21067,-34.816 43.34933,-67.92533 60.416,-99.328 17.06667,-31.40267 31.744,-60.07467 44.032,-86.016 10.34992,-22.46827 15.97123,-37.98878 24.576,-59.392 2.73067,-6.82667 5.80267,-15.70133 9.216,-26.624 4.096,-10.92267 7.50933,-21.84533 10.24,-32.768 3.41333,-10.92267 5.12,-19.456 5.12,-25.6 0,-9.55733 -4.43733,-17.06667 -13.312,-22.528 -8.192,-6.144 -17.408,-10.58133 -27.648,-13.312 -9.55733,-2.73067 -17.06667,-4.096 -22.528,-4.096 -5.46133,0 -8.87467,0.68267 -10.24,2.048 -0.68267,1.36533 -1.024,3.41333 -1.024,6.144 0,2.73067 1.024,5.80267 3.072,9.216 2.048,2.73067 3.41333,5.80267 4.096,9.216 1.36533,5.46133 2.048,9.216 2.048,11.264 0,0.68267 -0.34133,1.70667 -1.024,3.072 v 3.072 c -2.73067,14.336 -6.48533,29.01333 -11.264,44.032 -4.096,15.01867 -8.87467,30.37867 -14.336,46.08 -6.83605,18.178 -16.10862,37.72105 -25.6,59.392 -15.70133,33.45067 -33.10933,65.87733 -52.224,97.28 -18.432,30.72 -36.864,58.70933 -55.296,83.968 -18.432,24.576 -35.15733,44.37333 -50.176,59.392 -8.192,9.55733 -12.288,20.48 -12.288,32.768 0,2.73067 1.024,7.50933 3.072,14.336 2.73067,6.144 6.48533,11.94667 11.264,17.408 4.77867,5.46133 10.24,8.192 16.384,8.192 4.77867,0 9.55733,-1.70667 14.336,-5.12 4.77867,-3.41333 8.53333,-7.50933 11.264,-12.288 8.87467,-13.65333 23.552,-28.33067 44.032,-44.032 21.16267,-16.384 44.37333,-30.37867 69.632,-41.984 25.25867,-12.288 48.128,-18.77333 68.608,-19.456 h 1.024 c 15.70133,0 28.33067,7.85067 37.888,23.552 9.55733,15.01867 14.336,33.45067 14.336,55.296 v 6.144 l -2.048,68.608 c 0,13.65333 -0.34133,25.94133 -1.024,36.864 v 21.504 c 0,5.46133 -0.68267,10.92267 -2.048,16.384 -1.36533,5.46133 -2.048,10.58133 -2.048,15.36 0,4.096 1.36533,10.24 4.096,18.432 3.41333,8.192 7.85067,15.70133 13.312,22.528 6.144,6.82667 12.97067,10.24 20.48,10.24 h 2.048 c 20.48,-2.048 30.72,-14.67733 30.72,-37.888 0,-6.144 -0.34133,-22.86933 -1.024,-50.176 V 614.4 Z"
       id="path2"
       sodipodi:nodetypes="sscsccsccccsccscsccsccccccccscsssccccscscccsccccsssccs" />
    <path
       style="font-weight:600;font-size:1024px;line-height:1;font-family:'Klee One';fill:#b2f46b"
       d="M 806.912,504.832 844.8,490.496 c 11.60533,-5.46133 17.408,-13.99467 17.408,-25.6 0,-11.60533 -3.75467,-23.552 -11.264,-35.84 -6.82667,-12.288 -13.65333,-18.432 -20.48,-18.432 -1.36533,0 -2.73067,0.34133 -4.096,1.024 -2.73067,0.68267 -5.12,2.73067 -7.168,6.144 -1.36533,2.73067 -2.73067,5.12 -4.096,7.168 -4.096,4.77867 -9.216,8.87467 -15.36,12.288 -6.144,2.73067 -12.97067,5.80267 -20.48,9.216 -27.98933,12.97067 -61.09867,28.33067 -99.328,46.08 -38.22933,17.74933 -77.48267,37.20533 -117.76,58.368 -24.36148,12.67559 -43.61302,22.87956 -61.44,32.768 -31.40267,17.74933 -60.75733,38.22933 -88.064,61.44 -26.624,23.21067 -48.128,47.44533 -64.512,72.704 -16.384,24.576 -24.576,48.81067 -24.576,72.704 0,31.40267 7.85067,55.63733 23.552,72.704 15.70133,17.06667 35.15733,29.696 58.368,37.888 23.89333,8.192 47.78667,14.67733 71.68,19.456 15.01867,2.73067 31.06133,4.77867 48.128,6.144 17.74933,1.36533 35.49867,2.048 53.248,2.048 30.72,0 61.09867,-1.70667 91.136,-5.12 30.03733,-2.73067 56.32,-6.48533 78.848,-11.264 8.192,-1.36533 15.36,-4.77867 21.504,-10.24 6.144,-4.77867 9.216,-10.58133 9.216,-17.408 0,-2.73067 -0.34133,-4.77867 -1.024,-6.144 -2.73067,-11.60533 -9.89867,-20.13867 -21.504,-25.6 -10.92267,-5.46133 -19.456,-8.192 -25.6,-8.192 -2.048,0.68267 -4.096,1.024 -6.144,1.024 -2.048,0 -4.096,0.68267 -6.144,2.048 -15.01867,6.82667 -35.84,11.60533 -62.464,14.336 -26.624,2.048 -53.248,3.072 -79.872,3.072 h -20.48 c -6.144,-0.68267 -12.288,-1.024 -18.432,-1.024 -25.25867,-1.36533 -49.83467,-4.43733 -73.728,-9.216 -23.21067,-4.77867 -42.32533,-12.62933 -57.344,-23.552 -14.336,-10.92267 -21.504,-25.25867 -21.504,-43.008 1.36533,-21.84533 12.62933,-44.37333 33.792,-67.584 21.84533,-23.89333 48.46933,-46.76267 79.872,-68.608 17.43869,-12.00168 39.0468,-24.59847 64.512,-37.888 24.576,-12.97067 48.46933,-24.91733 71.68,-35.84 23.89333,-10.92267 49.49333,-22.18667 76.8,-33.792 27.98933,-11.60533 59.73333,-24.91733 95.232,-39.936 z"
       id="flowRoot1"
       sodipodi:nodetypes="ccscscccccsccccsscccscccscccsccsccccccccccc" />
  </g>
  <g
     id="g3">
    <path
       style="font-variation-settings:normal;opacity:1;vector-effect:none;fill:none;fill-opacity:1;stroke:#000000;stroke-width:128;stroke-linecap:round;stroke-linejoin:miter;stroke-miterlimit:4;stroke-dasharray:none;stroke-dashoffset:0;stroke-opacity:1;-inkscape-stroke:none;stop-color:#000000;stop-opacity:1"
       d="m 112.3084,261.93213 483.04408,3.98634"
       id="path3"
       sodipodi:nodetypes="cc"
       clip-path="url(#clipPath2591)" />
    <path
       style="font-variation-settings:normal;opacity:1;vector-effect:none;fill:none;fill-opacity:1;stroke:#000000;stroke-width:128;stroke-linecap:round;stroke-linejoin:miter;stroke-miterlimit:4;stroke-dasharray:none;stroke-dashoffset:0;stroke-opacity:1;-inkscape-stroke:none;stop-color:#000000;stop-opacity:1"
       d="M 390.26719,44.518937 C 574.83096,168.28751 267.87645,430.73845 209.25748,581.18253 478.20638,407.18864 566.63444,449.55512 549.66614,738.99202"
       id="path4"
       sodipodi:nodetypes="ccc"
       clip-path="url(#clipPath4115)" />
    <path
       style="font-variation-settings:normal;opacity:1;vector-effect:none;fill:none;fill-opacity:1;stroke:#000000;stroke-width:128;stroke-linecap:round;stroke-linejoin:miter;stroke-miterlimit:4;stroke-dasharray:none;stroke-dashoffset:0;stroke-opacity:1;-inkscape-stroke:none;stop-color:#000000;stop-opacity:1"
       d="M 843.40126,346.37202 C 851.45258,590.73895 365.38377,582.49412 357.117,781.25906 352.13868,900.95682 476.97242,919.95457 720.99181,892.2573"
       id="path5"
       sodipodi:nodetypes="csc"
       clip-path="url(#clipPath2276)" />
  </g>
</svg>
