<?xml version="1.0" encoding="UTF-8" standalone="no"?>
<!-- Created with Inkscape (http://www.inkscape.org/) -->

<svg
   width="1024"
   height="1024"
   viewBox="0 0 1024 1024"
   version="2"
   id="svg82337"
   inkscape:version="1.3 (0e150ed6c4, 2023-07-21)"
   sodipodi:docname="ん.svg"
   xmlns:inkscape="http://www.inkscape.org/namespaces/inkscape"
   xmlns:sodipodi="http://sodipodi.sourceforge.net/DTD/sodipodi-0.dtd"
   xmlns:xlink="http://www.w3.org/1999/xlink"
   xmlns="http://www.w3.org/2000/svg"
   xmlns:svg="http://www.w3.org/2000/svg">
  <sodipodi:namedview
     id="namedview82339"
     pagecolor="#ffffff"
     bordercolor="#999999"
     borderopacity="1"
     inkscape:pageshadow="0"
     inkscape:pageopacity="0"
     inkscape:pagecheckerboard="0"
     inkscape:document-units="px"
     showgrid="false"
     units="px"
     inkscape:zoom="0.59040654"
     inkscape:cx="299.79343"
     inkscape:cy="568.25251"
     inkscape:window-width="1920"
     inkscape:window-height="1111"
     inkscape:window-x="-9"
     inkscape:window-y="-9"
     inkscape:window-maximized="1"
     inkscape:current-layer="svg82337"
     viewbox-width="10.5832"
     scale-x="0.26458"
     inkscape:snap-global="true"
     inkscape:snap-bbox="false"
     inkscape:snap-page="true"
     inkscape:snap-midpoints="false"
     inkscape:object-paths="false"
     inkscape:snap-others="true"
     inkscape:snap-center="true"
     inkscape:bbox-nodes="false"
     inkscape:snap-nodes="true"
     inkscape:snap-grids="false"
     inkscape:showpageshadow="0"
     inkscape:deskcolor="#d1d1d1" />
  <defs
     id="defs82334">
    <clipPath
       id="clipPath9340">
      <use
         id="clone1956"
         xlink:href="#flowRoot1" />
    </clipPath>
  </defs>
  <g
     id="g1">
    <path
       style="font-weight:600;font-size:1024px;line-height:1;font-family:'Klee One';fill:#f66d6d"
       d="m 422.912,592.896 q 0,31.744 5.12,71.68 5.12,38.912 16.384,79.872 12.288,39.936 32.768,73.728 21.504,33.792 54.272,55.296 33.792,20.48 80.896,20.48 58.368,0 107.52,-28.672 49.152,-29.696 88.064,-75.776 38.912,-46.08 65.536,-96.256 26.624,-51.2 40.96,-95.232 14.336,-44.032 14.336,-69.632 0,-13.312 -5.12,-13.312 -9.216,0 -29.696,43.008 -8.192,18.432 -26.624,51.2 -18.432,32.768 -45.056,70.656 -26.624,37.888 -60.416,71.68 -32.768,33.792 -70.656,56.32 -37.888,21.504 -78.848,21.504 -37.888,0 -62.464,-21.504 -24.576,-22.528 -38.912,-56.32 -14.336,-34.816 -20.48,-72.704 -5.12,-37.888 -5.12,-69.632 0,-11.264 0,-21.504 1.024,-10.24 2.048,-18.432 0,-4.096 1.024,-6.144 2.048,-3.072 3.072,-6.144 1.024,-2.048 1.024,-4.096 1.024,-2.048 1.024,-4.096 0,-13.312 -15.36,-25.6 -15.36,-13.312 -32.768,-13.312 -6.144,0 -13.312,2.048 -6.144,2.048 -11.264,7.168 -12.288,12.288 -35.84,37.888 -23.552,24.576 -49.152,52.224 -25.6,26.624 -45.056,46.08 19.456,-41.984 44.032,-95.232 24.576,-53.248 51.2,-107.52 26.624,-54.272 49.152,-101.376 23.552,-48.128 38.912,-79.872 15.36,-32.768 19.456,-39.936 5.12,-8.192 7.168,-16.384 3.072,-8.192 3.072,-15.36 0,-15.36 -14.336,-25.6 -14.336,-10.24 -30.72,-15.36 -15.36,-5.12 -22.528,-5.12 -8.192,0 -12.288,5.12 -2.048,2.048 -2.048,5.12 0,6.144 5.12,14.336 5.12,8.192 5.12,17.408 0,3.072 -14.336,37.888 -14.336,34.816 -38.912,90.112 -23.552,54.272 -52.224,119.808 -28.672,64.512 -57.344,129.024 -28.672,63.488 -53.248,117.76 -23.552,53.248 -38.912,86.016 -14.336,32.768 -14.336,33.792 -4.096,8.192 -8.192,13.312 -4.096,4.096 -7.168,12.288 -3.072,7.168 -3.072,16.384 0,15.36 8.192,33.792 9.216,18.432 20.48,18.432 11.264,0 22.528,-9.216 11.264,-10.24 14.336,-20.48 3.072,-8.192 9.216,-24.576 7.168,-16.384 15.36,-34.816 9.216,-18.432 17.408,-28.672 23.552,-33.792 56.32,-71.68 33.792,-38.912 64.512,-71.68 31.744,-32.768 50.176,-50.176 z"
       id="flowRoot1" />
  </g>
  <g
     id="g2">
    <path
       style="font-variation-settings:normal;opacity:1;vector-effect:none;fill:none;fill-opacity:1;stroke:#000000;stroke-width:128;stroke-linecap:round;stroke-linejoin:miter;stroke-miterlimit:4;stroke-dasharray:none;stroke-dashoffset:0;stroke-opacity:1;-inkscape-stroke:none;stop-color:#000000;stop-opacity:1"
       d="M 424.28392,87.228026 C 549.23368,287.17141 185.67325,534.54413 154.13109,882.4428 321.921,683.41893 314.07173,534.77394 465.68354,504.99053 c 0,0 -49.63667,315.75942 102.71678,352.75116 177.0963,42.99936 340.40562,-289.08248 340.40562,-289.08248"
       id="path1"
       sodipodi:nodetypes="cccsc"
       clip-path="url(#clipPath9340)" />
  </g>
</svg>
