<svg data-strokesvg="hero" viewBox="0 0 6144 1024"  style="background:#fff" xmlns="http://www.w3.org/2000/svg">
  <style>
    svg[data-strokesvg] > g[data-strokesvg="strokes"] > * {
      --time: 8s;
      --gap: 0.3s;
      animation: s var(--time) linear infinite backwards calc(var(--i) * var(--gap));
      stroke-dasharray: 3333;
      stroke-dashoffset: 3333;
    }

    @keyframes s {
      0% {
        stroke-dashoffset: 3333;
      }
      45% {
        stroke-dashoffset: 3333;
      }
      55% {
        stroke-dashoffset: 0;
      }
      100% {
        stroke-dashoffset: 0;
      }
    }
  </style>
  <defs>
    <clipPath id="68s">
      <use href="#68a"/>
    </clipPath>
    <clipPath id="68t">
      <use href="#68b"/>
    </clipPath>
    <clipPath id="68u">
      <use href="#68c"/>
    </clipPath>
    <clipPath id="68v">
      <use href="#68d" transform="translate(-1024)"/>
    </clipPath>
    <clipPath id="68w">
      <use href="#68e" transform="translate(-1024)"/>
    </clipPath>
    <clipPath id="68x">
      <use href="#68f" transform="translate(-2048)"/>
    </clipPath>
    <clipPath id="68y">
      <use href="#68g" transform="translate(-2048)"/>
    </clipPath>
    <clipPath id="68z">
      <use href="#68h" transform="translate(-2048)"/>
    </clipPath>
    <clipPath id="68A">
      <use href="#68i" transform="translate(-2048)"/>
    </clipPath>
    <clipPath id="68B">
      <use href="#68j" transform="translate(-2048)"/>
    </clipPath>
    <clipPath id="68C">
      <use href="#68k" transform="translate(-3072)"/>
    </clipPath>
    <clipPath id="68D">
      <use href="#68l" transform="translate(-3072)"/>
    </clipPath>
    <clipPath id="68E">
      <use href="#68m" transform="translate(-4096)"/>
    </clipPath>
    <clipPath id="68F">
      <use href="#68n" transform="translate(-4096)"/>
    </clipPath>
    <clipPath id="68G">
      <use href="#68o" transform="translate(-4096)"/>
    </clipPath>
    <clipPath id="68H">
      <use href="#68p" transform="translate(-4096)"/>
    </clipPath>
    <clipPath id="68I">
      <use href="#68q" transform="translate(-4096)"/>
    </clipPath>
    <clipPath id="68J">
      <use transform="translate(-5120)" href="#68r"/>
    </clipPath>
  </defs>
  <g data-strokesvg="shadows" style="fill:var(--shadow,#ccc)">
    <path id="68a" d="M541 379a14427 14427 0 0 0 201-31c17-4 27-8 32-12 6-4 8-9 8-15 0-7-5-16-16-25a59 59 0 0 0-42-14c-8 0-14 1-17 4l-11 5c-7 3-21 6-42 10l-75 12a7981 7981 0 0 1-283 33h-7l-8-1a936 936 0 0 1-35-7l-6 1c-4 2-6 5-6 9s3 10 8 21c5 9 13 18 22 27 10 9 20 14 32 14l27-2a3184 3184 0 0 0 146-19z"/>
    <path id="68b" d="M544 707a10117 10117 0 0 0 3-232v-26l1-38v-11l-1-10-6-11c-43-42-91-2-72 10 6 5 9 12 9 22v36l1 26v109l1 130c0 39 63 55 64-5z"/>
    <path id="68c" d="M916 736v-4c0-5-3-11-10-18-7-8-14-14-23-20-9-5-15-8-21-8h-5l-15 2-15 3-92 3a4700 4700 0 0 0-191 13l-64 5a8863 8863 0 0 0-294 31h-4a117 117 0 0 1-38-6l-9-2-7 1c-2 1-3 4-3 9 0 6 2 13 7 23s11 19 19 28c7 8 15 13 23 14l6 1 14-1 17-3a4275 4275 0 0 1 482-44c63-4 125-6 187-6 11 0 20-1 26-3 7-3 10-9 10-18z"/>
    <path id="68d" d="m724 296 6-13c4-4 6-9 6-15 0-10-6-19-18-27-12-9-23-14-33-14l-2 1h-3l-14 4c-2 2-9 3-19 5a24748 24748 0 0 0-318 48l-23 3h-16l-17-4-16-3h-1c-8 0-11 4-11 11 0 5 2 13 7 22 5 10 11 19 19 27 9 8 18 11 28 11h10l12-2 41-7a11215 11215 0 0 1 282-46c-33 66-71 129-114 187a1643 1643 0 0 1-265 288 1902 1902 0 0 1-134 109c-5 5-8 10-8 13l1 5c1 2 4 3 8 3 8 0 25-6 50-19a1203 1203 0 0 0 215-157c45-40 90-86 135-138l36-45a1352 1352 0 0 0 156-247Z" transform="translate(1024)"/>
    <path id="68e" d="M532 588a1913 1913 0 0 1 130 129 1948 1948 0 0 1 135 152c7 10 13 16 17 20l8 5 7 1c11 0 20-5 29-15 9-11 13-22 13-32 0-4-1-8-5-14a770 770 0 0 0-72-81c-21-23-51-51-87-85-37-34-83-76-139-125-38-29-71 12-36 45z" transform="translate(1024)"/>
    <path id="68f" d="m487 179 1 157c3 34 66 34 66-6v-52l1-44v-66l-3-18c-2-7-8-13-17-17-10-5-26-7-49-7-12 0-19 2-20 5v2c0 4 2 7 6 11s8 9 10 15c2 2 3 6 3 9 2 3 2 6 2 11z" transform="translate(2048)"/>
    <path id="68g" d="M285 354c-6-17-13-33-21-50-7-16-15-24-23-24-4 0-10 2-16 6-2 1-4 3-5 7l-1 10 3 22 4 17 12 51 8 62a1137 1137 0 0 1 8 87v3l-1 11-1 11v3l1 4c2 11 7 22 16 33 10 10 19 16 29 16h3l2-1c8-2 13-7 16-14 4-7 6-19 6-35l-3-30a818 818 0 0 0-21-127Z" transform="translate(2048)"/>
    <path id="68h" d="M488 336a11261 11261 0 0 1-203 18c-41 2-20 64 16 62l43-3a5142 5142 0 0 1 202-21 10985 10985 0 0 1 215-19c-25 76-56 143-93 204a1060 1060 0 0 1-241 273c-38 31-71 56-97 75-19 13-29 22-29 27l3 6c2 4 6 6 12 6 9 0 25-6 49-18a909 909 0 0 0 300-247 950 950 0 0 0 184-342l3-5 1-6c0-7-5-15-14-24a48 48 0 0 0-37-16 1890 1890 0 0 0-131 12l-117 12z" transform="translate(2048)"/>
    <path id="68i" d="M916 291q0-7-3-11l-13-18-31-38q-17-21-34-37t-26-16q-10 0-18 9-9 8-9 19 0 7 4 11 17 15 40 44 25 29 41 55 6 10 19 10 11 0 20-8 10-9 10-20z" transform="translate(2048)"/>
    <path id="68j" d="M946 255q9 12 20 12 5 0 9-2l9-6q11-11 11-20 0-11-13-27t-32-34l-32-32-19-16q-7-6-15-6-11 0-19 7-7 7-7 16 0 8 6 14 24 20 47 49 25 28 35 45z" transform="translate(2048)"/>
    <path id="68k" d="M649 486c26-25 46-47 61-65 14-19 21-31 21-37s-5-13-15-19a133 133 0 0 0-56-26l-6 3c-2 1-3 4-3 8l1 7 1 10-1 3v3c-5 19-20 42-45 69-24 27-55 56-94 87a1576 1576 0 0 1-284 182c-16 8-24 16-24 25l1 4c3 4 7 6 12 6 8 0 22-3 42-11a1430 1430 0 0 0 160-79c64-36 159-99 229-170z" transform="translate(3072)"/>
    <path id="68l" d="M505 900v4l10 35c4 13 13 19 27 19l8-1c8-1 14-6 17-16 4-10 5-19 5-28V797a3921 3921 0 0 0 2-166v-40c0-8-1-13-4-17-2-3-6-6-12-9-38-18-55 13-47 34l1 6v39l-1 67-1 84v79l-3 12z" transform="translate(3072)"/>
    <path id="68m" d="M476 378q16 0 25-17 10-16 10-27 0-16-15-26-16-11-47-25-32-15-68-27l-63-22q-26-9-34-9-13 0-20 8-6 8-9 16l-3 10q0 16 21 24 26 8 61 23 36 15 69 32 34 16 55 33 10 7 18 7z" transform="translate(4096)"/>
    <path id="68n" d="M399 490q-20-11-55-23l-71-23q-35-11-61-17l-29-7q-9 0-20 12-10 12-10 25 0 9 7 14l18 7q56 17 102 36 46 18 87 40 12 5 18 5 14 0 22-9 7-10 9-21l2-10q0-16-19-29z" transform="translate(4096)"/>
    <path id="68o" d="m255 867 13 11q7 3 15 3t15-2q8-2 18-7 110-44 204-103 95-59 171-124 77-64 131-123 55-58 83-100 30-43 30-57 0-11-8-11-15 0-40 30-18 20-61 62-42 41-102 93-60 51-132 102-71 51-147 93-75 42-149 65-16 6-39 6h-7l-6-1-7-1h-7q-12 0-12 7 0 5 11 25 13 19 26 32z" transform="translate(4096)"/>
    <path id="68p" d="M902 284q0-6-2-10-5-9-20-25-15-18-33-36t-34-31q-16-13-25-13-10 0-18 8-7 8-7 19 0 8 6 14l27 28q16 16 31 34 17 18 25 33 6 11 17 11 19 0 26-11 7-12 7-21z" transform="translate(4096)"/>
    <path id="68q" d="M978 230q0-9-15-26-16-19-37-38-21-20-39-33t-24-13q-10 0-18 8t-8 17q0 10 7 16 15 12 32 30l30 35 22 27q7 8 18 8t22-8q10-9 10-23z" transform="translate(4096)"/>
    <path id="68r" d="M809 505h-3q-156 5-310 15l-297 19h-4l-22-1-17-2q-16 0-16 16 0 5 5 18 6 13 18 24t34 11h10l11-1q119-10 279-19 159-11 344-12 17 0 33-9 18-9 18-22t-16-21q-16-8-35-12-20-4-32-4z" transform="translate(5120)"/>
  </g>
  <g data-strokesvg="strokes" style="stroke:var(--stroke,#000);fill:none;stroke-width:128;stroke-linecap:round">
    <path style="--i:0" d="m168 350 557-9" clip-path="url(#68s)"/>
    <path style="--i:1" d="m481 296 32 389" clip-path="url(#68t)"/>
    <path style="--i:2" d="m59 750 125-1 672-5" clip-path="url(#68u)"/>
    <path style="--i:3" d="M181 281c291 59 441-80 536-53-129 344-550 639-550 639" clip-path="url(#68v)" transform="translate(1024)"/>
    <path style="--i:4" d="m479 490 335 348" clip-path="url(#68w)" transform="translate(1024)"/>
    <path style="--i:5" d="m472 59 45 240" clip-path="url(#68x)" transform="translate(2048)"/>
    <path style="--i:6" d="m218 216 78 346" clip-path="url(#68y)" transform="translate(2048)"/>
    <path style="--i:7" d="m197 393 641-97C657 793 356 937 356 937" clip-path="url(#68z)" transform="translate(2048)"/>
    <path style="--i:8" d="m751 129 111 138" clip-path="url(#68A)" transform="translate(2048)"/>
    <path style="--i:9" d="m826 80 114 133" clip-path="url(#68B)" transform="translate(2048)"/>
    <path style="--i:10" d="M710 287c-32 269-448 428-448 428" clip-path="url(#68C)" transform="translate(3072)"/>
    <path style="--i:11" d="m539 495 3 401" clip-path="url(#68D)" transform="translate(3072)"/>
    <path style="--i:12" d="m196 218 254 114" clip-path="url(#68E)" transform="translate(4096)"/>
    <path style="--i:13" d="m94 420 263 96" clip-path="url(#68F)" transform="translate(4096)"/>
    <path style="--i:14" d="M151 810c251 145 772-398 772-398" clip-path="url(#68G)" transform="translate(4096)"/>
    <path style="--i:15" d="m721 131 127 135" clip-path="url(#68H)" transform="translate(4096)"/>
    <path style="--i:16" d="m797 82 127 128" clip-path="url(#68I)" transform="translate(4096)"/>
    <path style="--i:17" d="m75 571 754-25" clip-path="url(#68J)" transform="translate(5120)"/>
  </g>
</svg>
