<?xml version="1.0" encoding="UTF-8" standalone="no"?>
<!-- Created with Inkscape (http://www.inkscape.org/) -->

<svg
   width="1024"
   height="1024"
   viewBox="0 0 1024 1024"
   version="2"
   id="svg82337"
   inkscape:version="1.3 (0e150ed6c4, 2023-07-21)"
   sodipodi:docname="ア.svg"
   xmlns:inkscape="http://www.inkscape.org/namespaces/inkscape"
   xmlns:sodipodi="http://sodipodi.sourceforge.net/DTD/sodipodi-0.dtd"
   xmlns:xlink="http://www.w3.org/1999/xlink"
   xmlns="http://www.w3.org/2000/svg"
   xmlns:svg="http://www.w3.org/2000/svg">
  <sodipodi:namedview
     id="namedview82339"
     pagecolor="#ffffff"
     bordercolor="#999999"
     borderopacity="1"
     inkscape:pageshadow="0"
     inkscape:pageopacity="0"
     inkscape:pagecheckerboard="0"
     inkscape:document-units="px"
     showgrid="false"
     units="px"
     inkscape:zoom="0.59040654"
     inkscape:cx="160.90608"
     inkscape:cy="485.25885"
     inkscape:window-width="1920"
     inkscape:window-height="1111"
     inkscape:window-x="-9"
     inkscape:window-y="-9"
     inkscape:window-maximized="1"
     inkscape:current-layer="g2"
     viewbox-width="10.5832"
     scale-x="0.26458"
     inkscape:snap-global="true"
     inkscape:snap-bbox="false"
     inkscape:snap-page="true"
     inkscape:snap-midpoints="false"
     inkscape:object-paths="false"
     inkscape:snap-others="true"
     inkscape:snap-center="true"
     inkscape:bbox-nodes="false"
     inkscape:snap-nodes="true"
     inkscape:snap-grids="false"
     inkscape:showpageshadow="0"
     inkscape:deskcolor="#d1d1d1" />
  <defs
     id="defs82334">
    <clipPath
       id="clipPath4434">
      <use
         id="clone7163"
         xlink:href="#path1" />
    </clipPath>
    <clipPath
       id="clipPath299">
      <use
         id="clone1077"
         xlink:href="#flowRoot1" />
    </clipPath>
  </defs>
  <g
     id="g1">
    <path
       style="font-weight:600;font-size:1024px;line-height:1;font-family:'Klee One';display:inline;fill:#f66d6d;fill-opacity:1"
       d="m 815.104,202.752 h -5.12 c -12.288,1.36533 -34.13333,3.75467 -65.536,7.168 -30.72,2.73067 -67.92533,6.48533 -111.616,11.264 -43.008,4.77867 -88.74667,9.89867 -137.216,15.36 -47.78667,5.46133 -95.232,11.264 -142.336,17.408 -47.104,5.46133 -89.42933,11.264 -126.976,17.408 h -4.096 -7.168 l -6.144,-2.048 c -3.41333,-1.36533 -8.192,-2.73067 -14.336,-4.096 -5.46133,-2.048 -10.92267,-3.072 -16.384,-3.072 -3.41333,0 -5.80267,0.34133 -7.168,1.024 -2.73067,0.68267 -4.096,3.072 -4.096,7.168 0,2.048 2.38933,8.87467 7.168,20.48 5.46133,10.92267 12.62933,21.504 21.504,31.744 8.87467,10.24 18.77333,15.36 29.696,15.36 5.46133,0 13.312,-1.024 23.552,-3.072 57.344,-10.24 115.02933,-19.11467 173.056,-26.624 58.70933,-8.192 115.37067,-15.36 169.984,-21.504 54.61333,-6.82667 104.10667,-12.97067 148.48,-18.432 -33.45067,31.40267 -67.92533,61.78133 -103.424,91.136 -34.816,29.35467 -64.512,53.58933 -89.088,72.704 -56.02332,41.66007 -81.66746,97.85325 -16.384,63.488 19.79733,-11.60533 45.73867,-28.33067 77.824,-50.176 32.08533,-21.84533 66.90133,-46.76267 104.448,-74.752 38.22933,-27.98933 75.43467,-56.66133 111.616,-86.016 3.41333,-2.73067 7.168,-5.12 11.264,-7.168 4.096,-2.048 7.50933,-4.096 10.24,-6.144 11.60533,-6.144 17.408,-13.99467 17.408,-23.552 0,-4.096 -2.048,-9.55733 -6.144,-16.384 -4.096,-7.50933 -9.89867,-13.99467 -17.408,-19.456 -6.82667,-6.144 -15.36,-9.216 -25.6,-9.216 z"
       id="path1"
       sodipodi:nodetypes="sccccccccccscscsscccccccsccscsccs" />
    <path
       style="font-weight:600;font-size:1024px;line-height:1;font-family:'Klee One';display:inline;fill:#f5d36c"
       d="m 547.84,432.128 c 2.048,-8.192 3.072,-14.67733 3.072,-19.456 0,-10.24 -5.12,-18.09067 -15.36,-23.552 -10.24,-6.144 -21.84533,-10.24 -34.816,-12.288 -12.288,-2.73067 -22.18667,-4.096 -29.696,-4.096 -4.77867,0 -9.216,0.68267 -13.312,2.048 -3.41333,1.36533 -5.12,4.096 -5.12,8.192 0,4.77867 1.70667,9.216 5.12,13.312 4.096,4.096 7.50933,9.89867 10.24,17.408 1.36533,2.048 2.048,5.46133 2.048,10.24 0.68267,4.096 1.024,7.85067 1.024,11.264 v 4.096 c -10.24,51.88267 -26.624,102.74133 -49.152,152.576 -22.528,49.83467 -47.44533,95.91467 -74.752,138.24 -26.624,42.32533 -52.224,78.848 -76.8,109.568 -24.576,30.72 -44.032,52.90667 -58.368,66.56 -4.77867,4.096 -9.216,8.87467 -13.312,14.336 -3.41333,5.46133 -5.12,10.92267 -5.12,16.384 0,2.048 0.34133,4.43733 1.024,7.168 1.36533,2.73067 4.77867,4.096 10.24,4.096 7.50933,0 21.16267,-7.50933 40.96,-22.528 19.79733,-15.01867 42.66667,-36.18133 68.608,-63.488 25.94133,-27.98933 52.56533,-60.75733 79.872,-98.304 27.30667,-37.54667 52.90667,-78.848 76.8,-123.904 24.576,-45.73867 44.71467,-93.86667 60.416,-144.384 z"
       id="flowRoot1"
       sodipodi:nodetypes="csccscscccscscsccscsscsccc" />
  </g>
  <g
     id="g2">
    <path
       style="font-variation-settings:normal;display:inline;opacity:1;vector-effect:none;fill:none;fill-opacity:1;stroke:#000000;stroke-width:128;stroke-linecap:round;stroke-linejoin:miter;stroke-miterlimit:4;stroke-dasharray:none;stroke-dashoffset:0;stroke-opacity:1;-inkscape-stroke:none;stop-color:#000000;stop-opacity:1"
       d="m 103.44203,244.98912 c 145.49573,107.01021 430.43022,-31.32087 740.60501,-54.72143 62.01992,-4.67898 -75.22003,103.72477 -304.60359,273.35472"
       id="path2"
       sodipodi:nodetypes="csc"
       clip-path="url(#clipPath4434)" />
    <path
       style="font-variation-settings:normal;opacity:1;vector-effect:none;fill:none;fill-opacity:1;stroke:#000000;stroke-width:128;stroke-linecap:round;stroke-linejoin:miter;stroke-miterlimit:4;stroke-dasharray:none;stroke-dashoffset:0;stroke-opacity:1;-inkscape-stroke:none;stop-color:#000000;stop-opacity:1"
       d="M 427.67141,315.4606 C 608.65198,434.81277 378.20797,722.01652 241.35912,905.3084"
       id="path3"
       sodipodi:nodetypes="cc"
       clip-path="url(#clipPath299)" />
  </g>
</svg>
