<?xml version="1.0" encoding="UTF-8" standalone="no"?>
<!-- Created with Inkscape (http://www.inkscape.org/) -->

<svg
   width="1024"
   height="1024"
   viewBox="0 0 1024 1024"
   version="2"
   id="svg82337"
   inkscape:version="1.3 (0e150ed6c4, 2023-07-21)"
   sodipodi:docname="コ.svg"
   xmlns:inkscape="http://www.inkscape.org/namespaces/inkscape"
   xmlns:sodipodi="http://sodipodi.sourceforge.net/DTD/sodipodi-0.dtd"
   xmlns:xlink="http://www.w3.org/1999/xlink"
   xmlns="http://www.w3.org/2000/svg"
   xmlns:svg="http://www.w3.org/2000/svg">
  <sodipodi:namedview
     id="namedview82339"
     pagecolor="#ffffff"
     bordercolor="#999999"
     borderopacity="1"
     inkscape:pageshadow="0"
     inkscape:pageopacity="0"
     inkscape:pagecheckerboard="0"
     inkscape:document-units="px"
     showgrid="false"
     units="px"
     inkscape:zoom="0.59040654"
     inkscape:cx="565.71189"
     inkscape:cy="503.89008"
     inkscape:window-width="1920"
     inkscape:window-height="1111"
     inkscape:window-x="-9"
     inkscape:window-y="-9"
     inkscape:window-maximized="1"
     inkscape:current-layer="svg82337"
     viewbox-width="10.5832"
     scale-x="0.26458"
     inkscape:snap-global="true"
     inkscape:snap-bbox="false"
     inkscape:snap-page="true"
     inkscape:snap-midpoints="false"
     inkscape:object-paths="false"
     inkscape:snap-others="true"
     inkscape:snap-center="true"
     inkscape:bbox-nodes="false"
     inkscape:snap-nodes="true"
     inkscape:snap-grids="false"
     inkscape:showpageshadow="0"
     inkscape:deskcolor="#d1d1d1" />
  <defs
     id="defs82334">
    <clipPath
       id="clipPath4929">
      <use
         id="clone6162"
         xlink:href="#path22" />
    </clipPath>
    <clipPath
       id="clipPath6871">
      <use
         id="clone114"
         xlink:href="#path2" />
    </clipPath>
  </defs>
  <g
     id="g22">
    <path
       style="font-weight:600;font-size:1024px;line-height:1;font-family:'Klee One';display:inline;fill:#f66d6d;fill-opacity:1"
       d="m 752.64,726.016 51.2,-359.424 c 1.36533,-8.192 3.072,-14.336 5.12,-18.432 2.73067,-4.096 4.096,-8.53333 4.096,-13.312 0,-3.41333 -1.024,-7.50933 -3.072,-12.288 -4.77867,-8.87467 -12.62933,-15.70133 -23.552,-20.48 -10.92267,-5.46133 -20.82133,-8.192 -29.696,-8.192 h -4.096 c -17.74933,2.048 -41.30133,4.77867 -70.656,8.192 -29.35467,2.73067 -61.78133,5.80267 -97.28,9.216 -34.816,3.41333 -69.97333,6.82667 -105.472,10.24 -34.816,2.73067 -67.24267,5.46133 -97.28,8.192 -30.03733,2.73067 -54.272,5.12 -72.704,7.168 -2.048,0 -4.096,0.34133 -6.144,1.024 h -5.12 c -12.97067,0 -24.576,-1.70667 -34.816,-5.12 -10.24,-3.41333 -18.09067,-5.12 -23.552,-5.12 -2.73067,0 -4.43733,0.34133 -5.12,1.024 -2.73067,2.048 -4.096,5.12 -4.096,9.216 0,3.41333 2.38933,10.58133 7.168,21.504 5.46133,10.24 12.62933,20.13867 21.504,29.696 9.55733,8.87467 20.13867,13.312 31.744,13.312 4.77867,0 9.55733,-0.34133 14.336,-1.024 l 14.336,-2.048 c 20.48,-2.048 48.46933,-4.77867 83.968,-8.192 35.49867,-3.41333 73.38667,-6.82667 113.664,-10.24 40.96,-4.096 80.21333,-7.85067 117.76,-11.264 38.22933,-3.41333 69.97333,-6.48533 95.232,-9.216 -12.97067,103.08267 -23.552,183.296 -31.744,240.64 -8.192,57.344 -14.336,98.98667 -18.432,124.928 -2.64908,22.99527 62.54804,64.84462 72.704,0 z"
       id="path22"
       sodipodi:nodetypes="cccsccsccccsccssscsccsscscccscc" />
    <path
       style="font-weight:600;font-size:1024px;line-height:1;font-family:'Klee One';display:inline;fill:#f5d36c"
       d="m 773.12,758.784 v -4.096 c -0.68267,-5.46133 -3.072,-10.58133 -7.168,-15.36 -4.096,-4.77867 -8.53333,-9.216 -13.312,-13.312 -9.06935,-7.54349 -48.98891,-2.28612 -72.704,0 -18.432,2.048 -41.984,4.43733 -70.656,7.168 -27.98933,2.048 -58.368,4.43733 -91.136,7.168 -32.08533,2.048 -64.17067,4.43733 -96.256,7.168 -31.40267,2.048 -60.75733,4.096 -88.064,6.144 -26.624,2.048 -48.46933,3.75467 -65.536,5.12 h -10.24 c -15.70133,0 -28.33067,-2.048 -37.888,-6.144 -8.87467,-4.096 -16.04267,-6.144 -21.504,-6.144 -2.048,0 -4.096,1.024 -6.144,3.072 -2.73067,2.048 -4.096,5.12 -4.096,9.216 0,1.36533 1.70667,7.50933 5.12,18.432 4.096,10.24 10.92267,20.48 20.48,30.72 9.55733,9.55733 22.18667,14.336 37.888,14.336 h 11.264 c 4.096,-0.68267 8.192,-1.024 12.288,-1.024 17.06667,-1.36533 40.96,-3.072 71.68,-5.12 30.72,-2.048 64.512,-4.43733 101.376,-7.168 37.54667,-2.73067 74.752,-5.46133 111.616,-8.192 36.864,-3.41333 70.31467,-6.144 100.352,-8.192 30.03733,-2.73067 52.90667,-4.77867 68.608,-6.144 14.336,-2.048 25.25867,-4.43733 32.768,-7.168 7.50933,-3.41333 11.264,-10.24 11.264,-20.48 z"
       id="path2"
       sodipodi:nodetypes="scscccccccscscsccsccscccccs" />
  </g>
  <g
     id="g23">
    <path
       style="font-variation-settings:normal;display:inline;opacity:1;vector-effect:none;fill:none;fill-opacity:1;stroke:#000000;stroke-width:128;stroke-linecap:round;stroke-linejoin:miter;stroke-miterlimit:4;stroke-dasharray:none;stroke-dashoffset:0;stroke-opacity:1;-inkscape-stroke:none;stop-color:#000000;stop-opacity:1"
       d="m 170.54781,307.88546 c 145.82948,86.42585 436.11482,0.65293 613.27864,-19.15377 l -56.47843,412.26278"
       id="path23"
       sodipodi:nodetypes="ccc"
       clip-path="url(#clipPath4929)" />
    <path
       style="font-variation-settings:normal;opacity:1;vector-effect:none;fill:none;fill-opacity:1;stroke:#000000;stroke-width:128;stroke-linecap:round;stroke-linejoin:miter;stroke-miterlimit:4;stroke-dasharray:none;stroke-dashoffset:0;stroke-opacity:1;-inkscape-stroke:none;stop-color:#000000;stop-opacity:1"
       d="m 121.30848,759.20818 595.14699,15.68161"
       id="path24"
       sodipodi:nodetypes="cc"
       clip-path="url(#clipPath6871)" />
  </g>
</svg>
