<?xml version="1.0" encoding="UTF-8" standalone="no"?>
<!-- Created with Inkscape (http://www.inkscape.org/) -->

<svg
   width="1024"
   height="1024"
   viewBox="0 0 1024 1024"
   version="2"
   id="svg82337"
   inkscape:version="1.3 (0e150ed6c4, 2023-07-21)"
   sodipodi:docname="サ.svg"
   xmlns:inkscape="http://www.inkscape.org/namespaces/inkscape"
   xmlns:sodipodi="http://sodipodi.sourceforge.net/DTD/sodipodi-0.dtd"
   xmlns:xlink="http://www.w3.org/1999/xlink"
   xmlns="http://www.w3.org/2000/svg"
   xmlns:svg="http://www.w3.org/2000/svg">
  <sodipodi:namedview
     id="namedview82339"
     pagecolor="#ffffff"
     bordercolor="#999999"
     borderopacity="1"
     inkscape:pageshadow="0"
     inkscape:pageopacity="0"
     inkscape:pagecheckerboard="0"
     inkscape:document-units="px"
     showgrid="false"
     units="px"
     inkscape:zoom="0.59040654"
     inkscape:cx="439.52765"
     inkscape:cy="229.50288"
     inkscape:window-width="1920"
     inkscape:window-height="1111"
     inkscape:window-x="-9"
     inkscape:window-y="-9"
     inkscape:window-maximized="1"
     inkscape:current-layer="svg82337"
     viewbox-width="10.5832"
     scale-x="0.26458"
     inkscape:snap-global="true"
     inkscape:snap-bbox="false"
     inkscape:snap-page="true"
     inkscape:snap-midpoints="false"
     inkscape:object-paths="false"
     inkscape:snap-others="true"
     inkscape:snap-center="true"
     inkscape:bbox-nodes="false"
     inkscape:snap-nodes="true"
     inkscape:snap-grids="false"
     inkscape:showpageshadow="0"
     inkscape:deskcolor="#d1d1d1" />
  <defs
     id="defs82334">
    <clipPath
       id="clipPath6875">
      <use
         id="clone6557"
         xlink:href="#path1" />
    </clipPath>
    <clipPath
       id="clipPath1943">
      <use
         id="clone7553"
         xlink:href="#path3" />
    </clipPath>
    <clipPath
       id="clipPath6282">
      <use
         id="clone3691"
         xlink:href="#path4" />
    </clipPath>
  </defs>
  <g
     id="g4">
    <path
       style="font-weight:600;font-size:1024px;line-height:1;font-family:'Klee One';fill:#f66d6d"
       d="m 937.984,398.336 v -4.096 c -1.36533,-9.55733 -8.53333,-18.77333 -21.504,-27.648 -12.288,-8.87467 -22.18667,-13.65333 -29.696,-14.336 h -2.048 c -6.144,0 -12.288,1.024 -18.432,3.072 -5.46133,2.048 -10.92267,3.072 -16.384,3.072 -25.25867,0.68267 -52.224,2.38933 -80.896,5.12 -28.672,2.048 -58.02667,4.43733 -88.064,7.168 l -65.536,6.144 -190.464,19.456 -62.464,7.168 -209.92,25.6 h -23.552 c -2.73067,0 -7.168,-0.34133 -13.312,-1.024 -6.144,-1.36533 -11.94667,-2.048 -17.408,-2.048 -2.730667,0 -5.461333,0.34133 -8.192,1.024 -2.048,0 -3.072,1.70667 -3.072,5.12 0,4.77867 3.072,11.94667 9.216,21.504 6.144,9.55733 13.99467,18.432 23.552,26.624 9.55733,7.50933 18.77333,11.264 27.648,11.264 8.192,0 16.72533,-1.024 25.6,-3.072 23.89333,-3.41333 52.224,-7.50933 84.992,-12.288 32.768,-4.77867 68.26667,-9.55733 106.496,-14.336 l 62.464,-7.168 c 30.03733,-3.41333 60.75733,-6.82667 92.16,-10.24 31.40267,-3.41333 63.14667,-6.48533 95.232,-9.216 l 64.512,-5.12 c 39.59467,-3.41333 78.50667,-6.144 116.736,-8.192 38.22933,-2.048 74.41067,-3.41333 108.544,-4.096 22.528,0 33.792,-6.48533 33.792,-19.456 z"
       id="path1"
       sodipodi:nodetypes="scccsccccccccscscsscscsccsccscs" />
    <path
       style="font-weight:600;font-size:1024px;line-height:1;font-family:'Klee One';fill:#f5d36c;fill-opacity:1"
       d="m 424.96,396.288 c -0.68267,-27.30667 -1.70667,-54.61333 -3.072,-81.92 L 417.792,230.4 c -0.68267,-10.24 -2.73067,-18.77333 -6.144,-25.6 -2.73067,-7.50933 -10.24,-12.62933 -22.528,-15.36 -6.82667,-1.36533 -13.312,-2.38933 -19.456,-3.072 -5.46133,-0.68267 -10.92267,-1.024 -16.384,-1.024 -10.92267,0 -17.408,2.38933 -19.456,7.168 v 2.048 c 0,2.73067 1.70667,6.48533 5.12,11.264 3.41333,4.096 6.48533,8.53333 9.216,13.312 2.048,4.096 3.75467,7.85067 5.12,11.264 1.36533,2.73067 2.38933,6.144 3.072,10.24 l 1.024,17.408 c 0.68267,11.60533 1.36533,26.28267 2.048,44.032 0.68267,17.06667 1.36533,34.816 2.048,53.248 0.68267,18.432 1.024,34.47467 1.024,48.128 l 2.048,58.368 c 1.36533,26.624 2.38933,51.88267 3.072,75.776 1.36533,23.21067 2.38933,42.66667 3.072,58.368 0.68267,15.01867 1.024,24.23467 1.024,27.648 0,4.096 -1.02161,8.5222 -2.048,13.312 -1.02639,4.7898 -1.024,9.216 -1.024,13.312 0.2006,6.58058 2.60607,13.0339 4.096,19.456 2.73067,8.192 6.82667,16.04267 12.288,23.552 5.46133,7.50933 12.62933,11.264 21.504,11.264 9.55733,0 16.04267,-3.41333 19.456,-10.24 4.096,-7.50933 6.48533,-15.01867 7.168,-22.528 0.68267,-7.50933 1.024,-12.288 1.024,-14.336 v -4.096 c -1.36533,-34.13333 -2.73067,-67.584 -4.096,-100.352 -0.68267,-32.768 -1.70667,-65.536 -3.072,-98.304 z"
       id="path3"
       sodipodi:nodetypes="ccccccscsccccscsccccszscsscsscccc" />
    <path
       style="font-weight:600;font-size:1024px;line-height:1;font-family:'Klee One';fill:#b2f46b;fill-opacity:1"
       d="m 680.96,370.688 2.048,-91.136 c 0.68267,-28.672 1.024,-51.54133 1.024,-68.608 v -17.408 c -0.68267,-11.60533 -2.73067,-20.13867 -6.144,-25.6 -2.73067,-5.46133 -9.55733,-9.55733 -20.48,-12.288 -8.87467,-2.73067 -17.06667,-4.43733 -24.576,-5.12 -6.82667,-1.36533 -12.97067,-2.048 -18.432,-2.048 -10.92267,0 -17.06667,2.048 -18.432,6.144 0,0.68267 -0.34133,1.36533 -1.024,2.048 v 2.048 c 0,4.096 1.70667,8.192 5.12,12.288 4.096,4.096 7.50933,8.87467 10.24,14.336 2.048,3.41333 3.75467,7.168 5.12,11.264 1.36533,3.41333 2.048,7.168 2.048,11.264 0.68267,4.77867 1.024,10.24 1.024,16.384 v 20.48 c 0,18.432 -0.34133,39.25333 -1.024,62.464 l -2.048,69.632 -1.024,58.368 -2.048,47.104 c -2.048,60.07467 -11.60533,113.32267 -28.672,159.744 -16.384,46.42133 -37.20533,86.69867 -62.464,120.832 -25.25867,34.13333 -52.56533,63.488 -81.92,88.064 -29.35467,23.89333 -57.68533,43.69067 -84.992,59.392 -19.11467,10.92267 -28.672,20.13867 -28.672,27.648 0,2.048 0.34133,3.75467 1.024,5.12 3.41333,4.096 7.168,6.144 11.264,6.144 7.50933,0 18.77333,-3.75467 33.792,-11.264 32.08533,-15.01867 65.19467,-34.13333 99.328,-57.344 34.816,-23.89333 67.24267,-53.248 97.28,-88.064 30.03733,-35.49867 54.95467,-78.16533 74.752,-128 19.79733,-50.51733 31.06133,-109.90933 33.792,-178.176 l 2.048,-56.32 z"
       id="path4"
       sodipodi:nodetypes="ccsccccsccsccccsssccccsccscsccccccc" />
  </g>
  <g
     id="g5">
    <path
       style="font-variation-settings:normal;opacity:1;vector-effect:none;fill:none;fill-opacity:1;stroke:#000000;stroke-width:128;stroke-linecap:round;stroke-linejoin:miter;stroke-miterlimit:4;stroke-dasharray:none;stroke-dashoffset:0;stroke-opacity:1;-inkscape-stroke:none;stop-color:#000000;stop-opacity:1"
       d="M 21.171852,434.4464 880.74905,412.42768"
       id="path5"
       sodipodi:nodetypes="cc"
       clip-path="url(#clipPath6875)" />
    <path
       style="font-variation-settings:normal;opacity:1;vector-effect:none;fill:none;fill-opacity:1;stroke:#000000;stroke-width:128;stroke-linecap:round;stroke-linejoin:miter;stroke-miterlimit:4;stroke-dasharray:none;stroke-dashoffset:0;stroke-opacity:1;-inkscape-stroke:none;stop-color:#000000;stop-opacity:1"
       d="m 338.93801,119.76608 86.23158,528.16843"
       id="path6"
       sodipodi:nodetypes="cc"
       clip-path="url(#clipPath1943)" />
    <path
       style="font-variation-settings:normal;opacity:1;vector-effect:none;fill:none;fill-opacity:1;stroke:#000000;stroke-width:128;stroke-linecap:round;stroke-linejoin:miter;stroke-miterlimit:4;stroke-dasharray:none;stroke-dashoffset:0;stroke-opacity:1;-inkscape-stroke:none;stop-color:#000000;stop-opacity:1"
       d="m 575.02751,88.074905 c 0,0 153.2842,225.268515 60.12806,489.493225 -75.65263,214.57835 -255.75598,369.2371 -255.75598,369.2371"
       id="path7"
       sodipodi:nodetypes="csc"
       clip-path="url(#clipPath6282)" />
  </g>
</svg>
