<?xml version="1.0" encoding="UTF-8" standalone="no"?>
<!-- Created with Inkscape (http://www.inkscape.org/) -->

<svg
   width="1024"
   height="1024"
   viewBox="0 0 1024 1024"
   version="2"
   id="svg82337"
   inkscape:version="1.3 (0e150ed6c4, 2023-07-21)"
   sodipodi:docname="ズ.svg"
   xmlns:inkscape="http://www.inkscape.org/namespaces/inkscape"
   xmlns:sodipodi="http://sodipodi.sourceforge.net/DTD/sodipodi-0.dtd"
   xmlns:xlink="http://www.w3.org/1999/xlink"
   xmlns="http://www.w3.org/2000/svg"
   xmlns:svg="http://www.w3.org/2000/svg">
  <sodipodi:namedview
     id="namedview82339"
     pagecolor="#ffffff"
     bordercolor="#999999"
     borderopacity="1"
     inkscape:pageshadow="0"
     inkscape:pageopacity="0"
     inkscape:pagecheckerboard="0"
     inkscape:document-units="px"
     showgrid="false"
     units="px"
     inkscape:zoom="0.59040654"
     inkscape:cx="620.75871"
     inkscape:cy="332.82152"
     inkscape:window-width="1920"
     inkscape:window-height="1111"
     inkscape:window-x="-9"
     inkscape:window-y="-9"
     inkscape:window-maximized="1"
     inkscape:current-layer="g14"
     viewbox-width="10.5832"
     scale-x="0.26458"
     inkscape:snap-global="true"
     inkscape:snap-bbox="false"
     inkscape:snap-page="true"
     inkscape:snap-midpoints="false"
     inkscape:object-paths="false"
     inkscape:snap-others="true"
     inkscape:snap-center="true"
     inkscape:bbox-nodes="false"
     inkscape:snap-nodes="true"
     inkscape:snap-grids="false"
     inkscape:showpageshadow="0"
     inkscape:deskcolor="#d1d1d1" />
  <defs
     id="defs82334">
    <clipPath
       id="clipPath349">
      <use
         id="clone6699"
         xlink:href="#path13" />
    </clipPath>
    <clipPath
       id="clipPath5017">
      <use
         id="clone6547"
         xlink:href="#path2" />
    </clipPath>
    <clipPath
       id="clipPath8405">
      <use
         id="clone5163"
         xlink:href="#path1" />
    </clipPath>
    <clipPath
       id="clipPath746">
      <use
         id="clone8452"
         xlink:href="#flowRoot1" />
    </clipPath>
  </defs>
  <g
     id="g13">
    <path
       style="font-weight:600;font-size:1024px;line-height:1;font-family:'Klee One';display:inline;fill:#f66d6d;fill-opacity:1"
       d="m 723.968,295.936 6.144,-13.312 c 4.096,-4.096 6.144,-8.87467 6.144,-14.336 0,-10.24 -6.144,-19.456 -18.432,-27.648 -11.60533,-8.87467 -22.528,-13.312 -32.768,-13.312 -0.68267,0 -1.36533,0.34133 -2.048,1.024 h -3.072 c -6.82667,1.36533 -11.60533,2.73067 -14.336,4.096 -2.048,1.36533 -8.192,2.73067 -18.432,4.096 -67.584,10.24 -122.88,18.77333 -165.888,25.6 -42.32533,6.144 -75.776,11.264 -100.352,15.36 -23.89333,3.41333 -41.30133,5.80267 -52.224,7.168 -10.92267,1.36533 -18.432,2.38933 -22.528,3.072 h -8.192 -8.192 c -3.41333,-0.68267 -8.87467,-2.048 -16.384,-4.096 -7.50933,-2.048 -12.97067,-3.072 -16.384,-3.072 H 256 c -7.50933,0.68267 -11.264,4.43733 -11.264,11.264 0,5.46133 2.38933,12.97067 7.168,22.528 4.77867,9.55733 11.264,18.432 19.456,26.624 8.87467,7.50933 18.09067,11.264 27.648,11.264 h 10.24 c 3.41333,-0.68267 7.168,-1.36533 11.264,-2.048 4.77867,-1.36533 18.77333,-3.75467 41.984,-7.168 23.89333,-4.096 52.56533,-8.87467 86.016,-14.336 33.45067,-5.46133 67.584,-10.92267 102.4,-16.384 34.816,-6.144 65.87733,-11.264 93.184,-15.36 -32.768,66.21867 -70.656,128.68267 -113.664,187.392 -42.32533,58.02667 -86.35733,111.27467 -132.096,159.744 -45.73867,48.46933 -90.112,91.136 -133.12,128 -42.32533,36.18133 -79.872,66.21867 -112.64,90.112 -8.87467,6.82667 -16.04267,12.97067 -21.504,18.432 -5.46133,5.46133 -8.192,9.89867 -8.192,13.312 0,0.68267 0.34133,2.38933 1.024,5.12 1.36533,2.048 4.096,3.072 8.192,3.072 8.192,0 24.91733,-6.48533 50.176,-19.456 25.25867,-12.97067 56.32,-32.42667 93.184,-58.368 37.54667,-25.94133 78.16533,-58.70933 121.856,-98.304 44.37333,-39.59467 89.42933,-85.67467 135.168,-138.24 l 35.84,-45.056 c 31.40267,-38.912 60.416,-79.18933 87.04,-120.832 26.624,-41.64267 49.49333,-83.62667 68.608,-125.952 z"
       id="path13"
       sodipodi:nodetypes="ccscsccccccscccsscsscscccscccsccsscssccccsc" />
    <path
       style="font-weight:600;font-size:1024px;line-height:1;font-family:'Klee One';fill:#f5d36c"
       d="m 532.48,587.776 c 16.384,15.01867 35.84,33.792 58.368,56.32 22.528,21.84533 46.08,46.08 70.656,72.704 25.25867,25.94133 49.49333,52.224 72.704,78.848 23.21067,25.94133 44.032,50.51733 62.464,73.728 7.50933,9.55733 13.312,16.04267 17.408,19.456 4.096,2.73067 6.82667,4.43733 8.192,5.12 1.36533,0.68267 3.75467,1.024 7.168,1.024 10.24,0 19.79733,-5.12 28.672,-15.36 8.87467,-10.92267 13.312,-21.504 13.312,-31.744 0,-3.41333 -1.70667,-8.192 -5.12,-14.336 -3.41333,-6.144 -10.58133,-15.70133 -21.504,-28.672 -10.92267,-12.97067 -27.648,-30.37867 -50.176,-52.224 -21.84533,-22.528 -51.2,-50.85867 -88.064,-84.992 -36.864,-34.13333 -82.944,-75.776 -138.24,-124.928 -38.23324,-28.90614 -71.5359,12.61857 -35.84,45.056 z"
       id="path2"
       sodipodi:nodetypes="ccccccsscssscscc" />
    <path
       style="font-weight:600;font-size:1024px;line-height:1;font-family:'Klee One';fill:#b2f46b"
       d="m 899.072,336.896 q 0,-6.144 -3.072,-10.24 -5.12,-9.216 -20.48,-25.6 -14.336,-17.408 -32.768,-35.84 -17.408,-18.432 -33.792,-30.72 -16.384,-13.312 -24.576,-13.312 -10.24,0 -18.432,8.192 -7.168,8.192 -7.168,18.432 0,8.192 6.144,14.336 11.264,10.24 26.624,27.648 16.384,16.384 31.744,34.816 16.384,17.408 24.576,32.768 6.144,11.264 17.408,11.264 9.216,0 21.504,-8.192 12.288,-8.192 12.288,-23.552 z"
       id="path1" />
    <path
       style="font-weight:600;font-size:1024px;line-height:1;font-family:'Klee One';fill:#6af387"
       d="m 976.896,279.552 q 0,-6.144 -15.36,-23.552 -14.336,-17.408 -35.84,-36.864 -20.48,-20.48 -38.912,-34.816 -18.432,-15.36 -25.6,-15.36 -10.24,0 -18.432,8.192 -8.192,8.192 -8.192,17.408 0,9.216 7.168,15.36 15.36,12.288 31.744,30.72 17.408,18.432 31.744,35.84 14.336,16.384 21.504,26.624 7.168,8.192 18.432,8.192 11.264,0 21.504,-8.192 10.24,-9.216 10.24,-23.552 z"
       id="flowRoot1" />
  </g>
  <g
     id="g14">
    <path
       style="font-variation-settings:normal;display:inline;opacity:1;vector-effect:none;fill:none;fill-opacity:1;stroke:#000000;stroke-width:128;stroke-linecap:round;stroke-linejoin:miter;stroke-miterlimit:4;stroke-dasharray:none;stroke-dashoffset:0;stroke-opacity:1;-inkscape-stroke:none;stop-color:#000000;stop-opacity:1"
       d="m 180.86995,281.42787 c 290.90101,58.9518 440.83704,-80.24013 536.46036,-53.23572 -129.63006,344.1766 -549.8444,638.62088 -549.8444,638.62088"
       id="path14"
       sodipodi:nodetypes="ccc"
       clip-path="url(#clipPath349)" />
    <path
       style="font-variation-settings:normal;opacity:1;vector-effect:none;fill:none;fill-opacity:1;stroke:#000000;stroke-width:128;stroke-linecap:round;stroke-linejoin:miter;stroke-miterlimit:4;stroke-dasharray:none;stroke-dashoffset:0;stroke-opacity:1;-inkscape-stroke:none;stop-color:#000000;stop-opacity:1"
       d="M 479.33074,490.3401 813.846,838.40535"
       id="path15"
       sodipodi:nodetypes="cc"
       clip-path="url(#clipPath5017)" />
    <path
       style="font-variation-settings:normal;opacity:1;vector-effect:none;fill:none;fill-opacity:1;stroke:#000000;stroke-width:128;stroke-linecap:round;stroke-linejoin:miter;stroke-miterlimit:4;stroke-dasharray:none;stroke-dashoffset:0;stroke-opacity:1;-inkscape-stroke:none;stop-color:#000000;stop-opacity:1"
       d="M 721.85226,179.25401 844.89704,317.73038"
       id="path16"
       sodipodi:nodetypes="cc"
       clip-path="url(#clipPath8405)" />
    <path
       style="font-variation-settings:normal;opacity:1;vector-effect:none;fill:none;fill-opacity:1;stroke:#000000;stroke-width:128;stroke-linecap:round;stroke-linejoin:miter;stroke-miterlimit:4;stroke-dasharray:none;stroke-dashoffset:0;stroke-opacity:1;-inkscape-stroke:none;stop-color:#000000;stop-opacity:1"
       d="M 800.63626,125.15555 922.19883,261.68889"
       id="path17"
       sodipodi:nodetypes="cc"
       clip-path="url(#clipPath746)" />
  </g>
</svg>
