<?xml version="1.0" encoding="UTF-8" standalone="no"?>
<!-- Created with Inkscape (http://www.inkscape.org/) -->

<svg
   width="1024"
   height="1024"
   viewBox="0 0 1024 1024"
   version="2"
   id="svg82337"
   inkscape:version="1.3 (0e150ed6c4, 2023-07-21)"
   sodipodi:docname="セ.svg"
   xmlns:inkscape="http://www.inkscape.org/namespaces/inkscape"
   xmlns:sodipodi="http://sodipodi.sourceforge.net/DTD/sodipodi-0.dtd"
   xmlns:xlink="http://www.w3.org/1999/xlink"
   xmlns="http://www.w3.org/2000/svg"
   xmlns:svg="http://www.w3.org/2000/svg">
  <sodipodi:namedview
     id="namedview82339"
     pagecolor="#ffffff"
     bordercolor="#999999"
     borderopacity="1"
     inkscape:pageshadow="0"
     inkscape:pageopacity="0"
     inkscape:pagecheckerboard="0"
     inkscape:document-units="px"
     showgrid="false"
     units="px"
     inkscape:zoom="0.59040654"
     inkscape:cx="608.90247"
     inkscape:cy="351.45275"
     inkscape:window-width="1920"
     inkscape:window-height="1111"
     inkscape:window-x="-9"
     inkscape:window-y="-9"
     inkscape:window-maximized="1"
     inkscape:current-layer="svg82337"
     viewbox-width="10.5832"
     scale-x="0.26458"
     inkscape:snap-global="true"
     inkscape:snap-bbox="false"
     inkscape:snap-page="true"
     inkscape:snap-midpoints="false"
     inkscape:object-paths="false"
     inkscape:snap-others="true"
     inkscape:snap-center="true"
     inkscape:bbox-nodes="false"
     inkscape:snap-nodes="true"
     inkscape:snap-grids="false"
     inkscape:showpageshadow="0"
     inkscape:deskcolor="#d1d1d1" />
  <defs
     id="defs82334">
    <clipPath
       id="clipPath9381">
      <use
         id="clone8075"
         xlink:href="#path1" />
    </clipPath>
    <clipPath
       id="clipPath7757">
      <use
         id="clone7666"
         xlink:href="#path17" />
    </clipPath>
  </defs>
  <g
     id="g17">
    <path
       style="font-weight:600;font-size:1024px;line-height:1;font-family:'Klee One';fill:#f66d6d"
       d="m 434.176,531.456 c 50.51733,-19.79733 102.4,-39.25333 155.648,-58.368 53.93067,-19.79733 103.76533,-37.20533 149.504,-52.224 -12.288,19.79733 -26.28267,41.30133 -41.984,64.512 -15.70133,23.21067 -31.06133,45.056 -46.08,65.536 -15.01867,20.48 -28.672,37.20533 -40.96,50.176 -6.82667,6.82667 -10.24,14.336 -10.24,22.528 0,8.192 3.75467,12.288 11.264,12.288 6.144,0 14.336,-4.096 24.576,-12.288 23.89333,-21.16267 47.78667,-44.37333 71.68,-69.632 24.576,-25.25867 47.44533,-50.176 68.608,-74.752 21.84533,-25.25867 40.96,-47.78667 57.344,-67.584 5.46133,-6.144 9.89867,-11.94667 13.312,-17.408 4.096,-6.144 6.144,-11.94667 6.144,-17.408 0,-11.60533 -6.144,-20.48 -18.432,-26.624 -12.288,-6.82667 -22.528,-10.24 -30.72,-10.24 h -2.048 c -7.50933,1.36533 -17.06667,3.75467 -28.672,7.168 -11.60533,2.73067 -29.696,8.192 -54.272,16.384 -23.89333,8.192 -58.368,20.48 -103.424,36.864 -45.056,16.384 -105.13067,38.57067 -180.224,66.56 l -63.488,24.576 c -32.08533,12.288 -63.488,24.23467 -94.208,35.84 -30.72,11.60533 -60.07467,23.21067 -88.064,34.816 -5.46133,2.048 -12.97067,3.75467 -22.528,5.12 -9.55733,1.36533 -15.36,2.048 -17.408,2.048 h -13.312 c -4.77867,0 -8.87467,1.024 -12.288,3.072 -2.048,2.048 -3.072,4.43733 -3.072,7.168 0,6.144 3.41333,13.312 10.24,21.504 7.50933,8.192 16.04267,15.36 25.6,21.504 10.24,5.46133 19.11467,8.192 26.624,8.192 6.144,0 12.288,-1.36533 18.432,-4.096 6.144,-2.73067 11.60533,-5.12 16.384,-7.168 19.11467,-8.192 41.64267,-17.74933 67.584,-28.672 26.624,-11.60533 54.95467,-23.21067 84.992,-34.816 z"
       id="path1"
       sodipodi:nodetypes="cccsscsscccccscscccsccscssscsccsssccc" />
    <path
       style="font-weight:600;font-size:1024px;line-height:1;font-family:'Klee One';fill:#f5d36c;fill-opacity:1"
       d="m 787.456,798.72 h -3.072 c -4.77867,0 -9.216,0.68267 -13.312,2.048 l -10.24,2.048 c -22.528,0.68267 -45.39733,2.048 -68.608,4.096 -22.528,2.048 -45.39733,3.072 -68.608,3.072 -17.06667,0 -33.792,-1.024 -50.176,-3.072 -34.13333,-4.096 -60.75733,-10.24 -79.872,-18.432 -19.11467,-8.192 -33.10933,-21.16267 -41.984,-38.912 -8.192,-18.432 -13.312,-45.056 -15.36,-79.872 -1.36533,-34.816 -2.048,-80.896 -2.048,-138.24 l 1.024,-64.512 c 0.68267,-36.18133 1.36533,-70.99733 2.048,-104.448 0.68267,-33.45067 1.36533,-61.44 2.048,-83.968 0.68267,-23.21067 1.024,-36.864 1.024,-40.96 V 230.4 c 0,-11.60533 -4.096,-20.13867 -12.288,-25.6 -7.50933,-6.144 -16.72533,-9.89867 -27.648,-11.264 -10.92267,-2.048 -21.504,-3.072 -31.744,-3.072 -7.50933,0 -12.288,1.36533 -14.336,4.096 -1.36533,2.73067 -2.048,5.12 -2.048,7.168 0,4.77867 2.38933,9.216 7.168,13.312 5.46133,4.096 8.53333,8.87467 9.216,14.336 4.096,12.288 6.144,40.27733 6.144,83.968 0,23.89333 -0.34133,51.54133 -1.024,82.944 -0.68267,31.40267 -1.36533,63.14667 -2.048,95.232 l -1.024,64.512 c 0,12.97067 -0.34133,25.6 -1.024,37.888 v 31.744 c 0,55.97867 6.144,100.69333 18.432,134.144 12.97067,33.45067 31.40267,58.368 55.296,74.752 24.576,16.384 54.61333,27.30667 90.112,32.768 35.49867,5.46133 75.776,8.192 120.832,8.192 23.21067,0 46.08,-0.34133 68.608,-1.024 23.21067,-1.36533 46.08,-2.38933 68.608,-3.072 17.74933,0 30.37867,-3.41333 37.888,-10.24 8.192,-7.50933 12.288,-15.70133 12.288,-24.576 0,-6.82667 -3.75467,-12.97067 -11.264,-18.432 -6.82667,-5.46133 -14.336,-9.89867 -22.528,-13.312 -8.192,-4.096 -15.01867,-6.144 -20.48,-6.144 z"
       id="path17"
       sodipodi:nodetypes="sscccscsccccscssccscsccsscccsccsscccsccs" />
  </g>
  <g
     id="g18">
    <path
       style="font-variation-settings:normal;opacity:1;vector-effect:none;fill:none;fill-opacity:1;stroke:#000000;stroke-width:128;stroke-linecap:round;stroke-linejoin:miter;stroke-miterlimit:4;stroke-dasharray:none;stroke-dashoffset:0;stroke-opacity:1;-inkscape-stroke:none;stop-color:#000000;stop-opacity:1"
       d="M 55.092398,583.26082 C 276.42087,605.72532 613.6128,374.63523 815.47418,330.05829 L 653.51965,600.59467"
       id="path18"
       sodipodi:nodetypes="ccc"
       clip-path="url(#clipPath9381)" />
    <path
       style="font-variation-settings:normal;opacity:1;vector-effect:none;fill:none;fill-opacity:1;stroke:#000000;stroke-width:128;stroke-linecap:round;stroke-linejoin:miter;stroke-miterlimit:4;stroke-dasharray:none;stroke-dashoffset:0;stroke-opacity:1;-inkscape-stroke:none;stop-color:#000000;stop-opacity:1"
       d="m 332.35036,130.50372 c 0,0 103.94596,78.2258 75.84295,540.22056 -14.58985,239.84737 375.85647,179.5373 375.85647,179.5373"
       id="path19"
       sodipodi:nodetypes="csc"
       clip-path="url(#clipPath7757)" />
  </g>
</svg>
