<?xml version="1.0" encoding="UTF-8" standalone="no"?>
<!-- Created with Inkscape (http://www.inkscape.org/) -->

<svg
   width="1024"
   height="1024"
   viewBox="0 0 1024 1024"
   version="2"
   id="svg82337"
   inkscape:version="1.3 (0e150ed6c4, 2023-07-21)"
   sodipodi:docname="タ.svg"
   xmlns:inkscape="http://www.inkscape.org/namespaces/inkscape"
   xmlns:sodipodi="http://sodipodi.sourceforge.net/DTD/sodipodi-0.dtd"
   xmlns:xlink="http://www.w3.org/1999/xlink"
   xmlns="http://www.w3.org/2000/svg"
   xmlns:svg="http://www.w3.org/2000/svg">
  <sodipodi:namedview
     id="namedview82339"
     pagecolor="#ffffff"
     bordercolor="#999999"
     borderopacity="1"
     inkscape:pageshadow="0"
     inkscape:pageopacity="0"
     inkscape:pagecheckerboard="0"
     inkscape:document-units="px"
     showgrid="false"
     units="px"
     inkscape:zoom="0.59040654"
     inkscape:cx="645.31805"
     inkscape:cy="498.80884"
     inkscape:window-width="1920"
     inkscape:window-height="1111"
     inkscape:window-x="-9"
     inkscape:window-y="-9"
     inkscape:window-maximized="1"
     inkscape:current-layer="svg82337"
     viewbox-width="10.5832"
     scale-x="0.26458"
     inkscape:snap-global="true"
     inkscape:snap-bbox="false"
     inkscape:snap-page="true"
     inkscape:snap-midpoints="false"
     inkscape:object-paths="false"
     inkscape:snap-others="true"
     inkscape:snap-center="true"
     inkscape:bbox-nodes="false"
     inkscape:snap-nodes="true"
     inkscape:snap-grids="false"
     inkscape:showpageshadow="0"
     inkscape:deskcolor="#d1d1d1" />
  <defs
     id="defs82334">
    <clipPath
       id="clipPath8300">
      <use
         id="clone6854"
         xlink:href="#path3" />
    </clipPath>
    <clipPath
       id="clipPath6501">
      <use
         id="clone7851"
         xlink:href="#path4" />
    </clipPath>
    <clipPath
       id="clipPath7457">
      <use
         id="clone6097"
         xlink:href="#path2" />
    </clipPath>
  </defs>
  <g
     id="g4">
    <path
       id="path3"
       style="font-weight:600;font-size:1024px;line-height:1;font-family:'Klee One';display:inline;fill:#f66d6d;fill-opacity:1"
       d="m 470.01562,192.51172 c -2.04798,0 -4.43731,0.68349 -7.16796,2.04883 -2.73067,2.73065 -4.09571,7.16656 -4.09571,13.31054 v 19.45703 c -0.68266,4.77867 -1.36616,9.21652 -2.04883,13.3125 -0.68265,4.096 -1.70498,7.50958 -3.07031,10.24024 -23.21061,35.49859 -48.12801,69.28973 -74.75195,101.375 -26.62394,32.08527 -52.90833,61.44051 -78.84961,88.06445 -25.25861,25.94129 -47.78669,48.12859 -67.58398,66.56055 -19.7973,17.74929 -34.47394,30.72013 -44.03125,38.91211 -4.77867,4.09598 -9.55729,8.87461 -14.33594,14.33594 -4.096,5.46131 -6.14453,10.23995 -6.14453,14.33593 0,2.73067 0.34272,4.43649 1.02539,5.11914 3.41332,4.096 7.50844,6.14454 12.28711,6.14454 8.19198,0 22.18708,-6.48639 41.98437,-19.45704 19.7973,-12.97063 41.98459,-29.35505 66.56055,-49.15234 25.25861,-19.79729 49.15173,-40.27683 71.67969,-61.43945 l 44.03125,-43.00781 c 17.06663,-17.74931 33.7918,-36.1803 50.17578,-55.29493 17.06663,-19.11462 33.45104,-39.25339 49.15234,-60.41601 12.37374,-17.28455 34.79437,-45.74154 28.67188,-57.34571 -7.50933,-12.28796 -18.09084,-23.21026 -31.74414,-32.76757 -12.97065,-9.55732 -23.55215,-14.33594 -31.74415,-14.33594 z"
       sodipodi:nodetypes="scscscsccscscsscccccccs" />
    <path
       id="path4"
       style="font-weight:600;font-size:1024px;line-height:1;font-family:'Klee One';display:inline;fill:#f5d36c;fill-opacity:1"
       d="m 504.83203,296.96094 c 5.46133,2.048 10.92344,3.07031 16.38477,3.07031 h 7.16797 c 7.50931,-0.68267 21.16169,-2.04772 40.95898,-4.0957 20.47996,-2.73067 45.05656,-5.80152 73.72852,-9.21485 28.67194,-3.41332 58.70873,-6.48614 90.11132,-9.21679 -19.79729,46.42123 -42.66613,91.13661 -68.60742,134.14453 -25.94128,43.0079 -53.24798,83.6262 -81.91992,121.85547 l -44.0332,55.29687 c -40.95992,49.1519 -82.60249,93.86533 -124.92774,134.14258 -42.32525,39.59459 -82.60277,74.06922 -120.83203,103.42383 -38.22925,29.3546 -72.02039,52.90695 -101.375,70.65625 -12.28798,6.82665 -20.82095,12.97031 -25.59961,18.43164 -4.77865,6.14398 -7.16797,10.92456 -7.16797,14.33789 v 3.07031 c 1.36534,3.41333 6.14396,5.12109 14.33594,5.1211 9.55731,0 21.84465,-3.07282 36.86328,-9.2168 40.27725,-17.7493 82.9441,-41.98319 128,-72.70313 45.05592,-30.71994 90.45283,-66.90233 136.19141,-108.54492 45.73857,-42.32525 89.77045,-88.40567 132.0957,-138.24023 43.00792,-50.51724 82.26313,-103.76559 117.76172,-159.74414 35.49859,-55.97856 65.1946,-114.00554 89.08789,-174.08008 1.36533,-2.73067 3.07114,-5.11997 5.11914,-7.16797 2.048,-2.048 3.75576,-4.43731 5.1211,-7.16797 1.36532,-2.73066 2.38764,-5.11997 3.07031,-7.16797 0.68266,-2.048 1.02539,-4.09458 1.02539,-6.14258 0,-7.50931 -5.46212,-15.36075 -16.38477,-23.55273 -10.23998,-8.19198 -20.82149,-12.28711 -31.74414,-12.28711 -2.048,0 -10.58097,1.02231 -25.59961,3.07031 -15.01863,1.36533 -33.45158,3.41388 -55.29687,6.14453 -21.16263,2.048 -43.34797,4.43732 -66.5586,7.16797 -22.52794,2.73067 -43.00944,5.11997 -61.4414,7.16797 -17.7493,2.048 -30.03663,3.41305 -36.86328,4.0957 -80.71678,8.69628 -43.41811,50.64718 -28.67188,57.34571 z"
       sodipodi:nodetypes="csccscscccsccscscsccscsssscscccccc" />
    <path
       id="path2"
       style="font-weight:600;font-size:1024px;line-height:1;font-family:'Klee One';fill:#b2f46b"
       d="m 361.47266,455.67969 c 17.06663,8.87465 36.18112,21.16393 57.34375,36.86523 21.16262,15.70131 42.32565,32.08376 63.48828,49.15039 21.16262,17.06664 39.93438,32.76951 56.31836,47.10547 26.73662,24.52239 77.86458,-25.04276 44.0332,-55.29687 -13.65331,-11.60532 -31.06198,-24.57615 -52.22461,-38.91211 -20.47996,-15.01864 -41.98376,-29.69529 -64.51172,-44.03125 -21.84529,-15.01864 -41.98405,-27.64871 -60.41601,-37.88867 -48.87377,-25.181 -64.21811,33.56162 -44.03125,43.00781 z"
       sodipodi:nodetypes="csscccccc" />
  </g>
  <g
     id="g5">
    <path
       style="font-variation-settings:normal;display:inline;opacity:1;vector-effect:none;fill:none;fill-opacity:1;stroke:#000000;stroke-width:128;stroke-linecap:round;stroke-linejoin:miter;stroke-miterlimit:4;stroke-dasharray:none;stroke-dashoffset:0;stroke-opacity:1;-inkscape-stroke:none;stop-color:#000000;stop-opacity:1"
       d="M 489.06979,127.87799 C 514.85406,337.54715 226.96226,574.18063 226.96226,574.18063"
       id="path5"
       sodipodi:nodetypes="cc"
       clip-path="url(#clipPath8300)" />
    <path
       style="font-variation-settings:normal;display:inline;opacity:1;vector-effect:none;fill:none;fill-opacity:1;stroke:#000000;stroke-width:128;stroke-linecap:round;stroke-linejoin:miter;stroke-miterlimit:4;stroke-dasharray:none;stroke-dashoffset:0;stroke-opacity:1;-inkscape-stroke:none;stop-color:#000000;stop-opacity:1"
       d="m 417.98363,276.06082 c 140.45437,11.47844 310.083,-97.09251 382.0538,-55.09239 -184.44257,472.45462 -584.81753,696.683 -584.81753,696.683"
       id="path6"
       sodipodi:nodetypes="ccc"
       clip-path="url(#clipPath6501)" />
    <path
       style="font-variation-settings:normal;opacity:1;vector-effect:none;fill:none;fill-opacity:1;stroke:#000000;stroke-width:128;stroke-linecap:round;stroke-linejoin:miter;stroke-miterlimit:4;stroke-dasharray:none;stroke-dashoffset:0;stroke-opacity:1;-inkscape-stroke:none;stop-color:#000000;stop-opacity:1"
       d="M 302.33405,382.78709 535.22442,547.08067"
       id="path7"
       sodipodi:nodetypes="cc"
       clip-path="url(#clipPath7457)" />
  </g>
</svg>
