<?xml version="1.0" encoding="UTF-8" standalone="no"?>
<!-- Created with Inkscape (http://www.inkscape.org/) -->

<svg
   width="1024"
   height="1024"
   viewBox="0 0 1024 1024"
   version="2"
   id="svg82337"
   inkscape:version="1.3 (0e150ed6c4, 2023-07-21)"
   sodipodi:docname="ヅ.svg"
   xmlns:inkscape="http://www.inkscape.org/namespaces/inkscape"
   xmlns:sodipodi="http://sodipodi.sourceforge.net/DTD/sodipodi-0.dtd"
   xmlns:xlink="http://www.w3.org/1999/xlink"
   xmlns="http://www.w3.org/2000/svg"
   xmlns:svg="http://www.w3.org/2000/svg">
  <sodipodi:namedview
     id="namedview82339"
     pagecolor="#ffffff"
     bordercolor="#999999"
     borderopacity="1"
     inkscape:pageshadow="0"
     inkscape:pageopacity="0"
     inkscape:pagecheckerboard="0"
     inkscape:document-units="px"
     showgrid="false"
     units="px"
     inkscape:zoom="0.59040654"
     inkscape:cx="519.98069"
     inkscape:cy="275.23408"
     inkscape:window-width="1920"
     inkscape:window-height="1111"
     inkscape:window-x="-9"
     inkscape:window-y="-9"
     inkscape:window-maximized="1"
     inkscape:current-layer="g16"
     viewbox-width="10.5832"
     scale-x="0.26458"
     inkscape:snap-global="true"
     inkscape:snap-bbox="false"
     inkscape:snap-page="true"
     inkscape:snap-midpoints="false"
     inkscape:object-paths="false"
     inkscape:snap-others="true"
     inkscape:snap-center="true"
     inkscape:bbox-nodes="false"
     inkscape:snap-nodes="true"
     inkscape:snap-grids="false"
     inkscape:showpageshadow="0"
     inkscape:deskcolor="#d1d1d1" />
  <defs
     id="defs82334">
    <clipPath
       id="clipPath5226">
      <use
         id="clone5531"
         xlink:href="#path4" />
    </clipPath>
    <clipPath
       id="clipPath8125">
      <use
         id="clone4405"
         xlink:href="#path2" />
    </clipPath>
    <clipPath
       id="clipPath5275">
      <use
         id="clone8245"
         xlink:href="#path3" />
    </clipPath>
    <clipPath
       id="clipPath325">
      <use
         id="clone8446"
         xlink:href="#path1" />
    </clipPath>
    <clipPath
       id="clipPath9459">
      <use
         id="clone3080"
         xlink:href="#flowRoot1" />
    </clipPath>
  </defs>
  <g
     id="g15">
    <path
       style="font-weight:600;font-size:1024px;line-height:1;font-family:'Klee One';fill:#f66d6d"
       d="m 291.84,540.672 q 4.096,8.192 9.216,14.336 6.144,6.144 15.36,6.144 9.216,0 25.6,-8.192 17.408,-9.216 17.408,-27.648 0,-10.24 -12.288,-38.912 -12.288,-28.672 -30.72,-63.488 -17.408,-34.816 -36.864,-66.56 -18.432,-32.768 -31.744,-51.2 -7.168,-11.264 -19.456,-11.264 -7.168,0 -22.528,6.144 -14.336,6.144 -14.336,20.48 0,4.096 2.048,9.216 2.048,5.12 5.12,10.24 15.36,25.6 32.768,62.464 18.432,35.84 33.792,73.728 16.384,36.864 26.624,64.512 z"
       id="path4" />
    <path
       style="font-weight:600;font-size:1024px;line-height:1;font-family:'Klee One';fill:#f5d36c"
       d="m 408.576,278.528 q 14.336,28.672 29.696,66.56 15.36,36.864 28.672,73.728 14.336,36.864 22.528,65.536 5.12,19.456 25.6,19.456 8.192,0 25.6,-7.168 18.432,-7.168 18.432,-24.576 0,-3.072 0,-6.144 0,-4.096 -2.048,-8.192 -6.144,-19.456 -19.456,-50.176 -12.288,-30.72 -27.648,-63.488 -15.36,-33.792 -28.672,-59.392 -13.312,-26.624 -19.456,-35.84 -8.192,-14.336 -22.528,-14.336 -1.024,0 -10.24,2.048 -8.192,1.024 -16.384,7.168 -8.192,5.12 -8.192,17.408 0,4.096 1.024,8.192 2.048,4.096 3.072,9.216 z"
       id="path2" />
    <path
       style="font-weight:600;font-size:1024px;line-height:1;font-family:'Klee One';fill:#b2f46b"
       d="m 290.816,913.408 q 17.408,0 63.488,-20.48 46.08,-21.504 108.544,-65.536 63.488,-45.056 132.096,-115.712 69.632,-70.656 134.144,-168.96 65.536,-98.304 115.712,-227.328 5.12,-13.312 5.12,-21.504 0,-15.36 -15.36,-27.648 -15.36,-13.312 -32.768,-20.48 -17.408,-7.168 -22.528,-7.168 -9.216,0 -11.264,4.096 -2.048,4.096 -2.048,7.168 0,7.168 2.048,16.384 3.072,9.216 3.072,20.48 0,6.144 -15.36,48.128 -14.336,40.96 -48.128,105.472 -32.768,64.512 -86.016,140.288 -53.248,75.776 -129.024,152.576 -75.776,76.8 -177.152,141.312 -34.816,23.552 -34.816,33.792 0,5.12 10.24,5.12 z"
       id="path3" />
    <path
       style="font-weight:600;font-size:1024px;line-height:1;font-family:'Klee One';fill:#6af387"
       d="m 940.032,259.072 q 0,-11.264 -15.36,-29.696 -15.36,-18.432 -36.864,-36.864 -21.504,-18.432 -40.96,-30.72 -19.456,-13.312 -26.624,-13.312 -11.264,0 -19.456,9.216 -8.192,9.216 -8.192,18.432 0,9.216 7.168,13.312 13.312,9.216 30.72,25.6 17.408,16.384 33.792,33.792 17.408,17.408 27.648,30.72 8.192,9.216 17.408,9.216 12.288,0 21.504,-10.24 9.216,-10.24 9.216,-19.456 z"
       id="path1" />
    <path
       style="font-weight:600;font-size:1024px;line-height:1;font-family:'Klee One';fill:#69f2ea"
       d="m 1004.544,218.112 q 9.216,-9.216 9.216,-21.504 0,-8.192 -8.192,-18.432 -8.192,-10.24 -31.744,-29.696 -23.552,-20.48 -70.656,-55.296 -4.096,-3.072 -10.24,-3.072 -10.24,0 -19.456,9.216 -9.216,8.192 -9.216,17.408 0,7.168 7.168,13.312 24.576,19.456 52.224,46.08 28.672,26.624 41.984,43.008 7.168,8.192 16.384,8.192 7.168,0 13.312,-3.072 6.144,-4.096 9.216,-6.144 z"
       id="flowRoot1" />
  </g>
  <g
     id="g16">
    <path
       style="font-variation-settings:normal;opacity:1;vector-effect:none;fill:none;fill-opacity:1;stroke:#000000;stroke-width:128;stroke-linecap:round;stroke-linejoin:miter;stroke-miterlimit:4;stroke-dasharray:none;stroke-dashoffset:0;stroke-opacity:1;-inkscape-stroke:none;stop-color:#000000;stop-opacity:1"
       d="M 179.59856,239.89062 310.53712,500.92086"
       id="path15"
       sodipodi:nodetypes="cc"
       clip-path="url(#clipPath5226)" />
    <path
       style="font-variation-settings:normal;opacity:1;vector-effect:none;fill:none;fill-opacity:1;stroke:#000000;stroke-width:128;stroke-linecap:round;stroke-linejoin:miter;stroke-miterlimit:4;stroke-dasharray:none;stroke-dashoffset:0;stroke-opacity:1;-inkscape-stroke:none;stop-color:#000000;stop-opacity:1"
       d="M 394.11811,178.27607 513.19766,443.1345"
       id="path16"
       sodipodi:nodetypes="cc"
       clip-path="url(#clipPath8125)" />
    <path
       style="font-variation-settings:normal;display:inline;opacity:1;vector-effect:none;fill:none;fill-opacity:1;stroke:#000000;stroke-width:128;stroke-linecap:round;stroke-linejoin:miter;stroke-miterlimit:4;stroke-dasharray:none;stroke-dashoffset:0;stroke-opacity:1;-inkscape-stroke:none;stop-color:#000000;stop-opacity:1"
       d="M 743.13202,180.17246 C 992.10717,394.41754 326.8934,899.38028 326.8934,899.38028"
       id="path17"
       sodipodi:nodetypes="cc"
       clip-path="url(#clipPath5275)" />
    <path
       style="font-variation-settings:normal;opacity:1;vector-effect:none;fill:none;fill-opacity:1;stroke:#000000;stroke-width:128;stroke-linecap:round;stroke-linejoin:miter;stroke-miterlimit:4;stroke-dasharray:none;stroke-dashoffset:0;stroke-opacity:1;-inkscape-stroke:none;stop-color:#000000;stop-opacity:1"
       d="M 749.54052,115.84511 886.269,238.93334"
       id="path18"
       sodipodi:nodetypes="cc"
       clip-path="url(#clipPath325)" />
    <path
       style="font-variation-settings:normal;opacity:1;vector-effect:none;fill:none;fill-opacity:1;stroke:#000000;stroke-width:128;stroke-linecap:round;stroke-linejoin:miter;stroke-miterlimit:4;stroke-dasharray:none;stroke-dashoffset:0;stroke-opacity:1;-inkscape-stroke:none;stop-color:#000000;stop-opacity:1"
       d="M 823.16161,55.89369 959.93178,176.14981"
       id="path19"
       sodipodi:nodetypes="cc"
       clip-path="url(#clipPath9459)" />
  </g>
</svg>
