<?xml version="1.0" encoding="UTF-8" standalone="no"?>
<!-- Created with Inkscape (http://www.inkscape.org/) -->

<svg
   width="1024"
   height="1024"
   viewBox="0 0 1024 1024"
   version="2"
   id="svg82337"
   inkscape:version="1.3 (0e150ed6c4, 2023-07-21)"
   sodipodi:docname="ド.svg"
   xmlns:inkscape="http://www.inkscape.org/namespaces/inkscape"
   xmlns:sodipodi="http://sodipodi.sourceforge.net/DTD/sodipodi-0.dtd"
   xmlns:xlink="http://www.w3.org/1999/xlink"
   xmlns="http://www.w3.org/2000/svg"
   xmlns:svg="http://www.w3.org/2000/svg">
  <sodipodi:namedview
     id="namedview82339"
     pagecolor="#ffffff"
     bordercolor="#999999"
     borderopacity="1"
     inkscape:pageshadow="0"
     inkscape:pageopacity="0"
     inkscape:pagecheckerboard="0"
     inkscape:document-units="px"
     showgrid="false"
     units="px"
     inkscape:zoom="0.59040654"
     inkscape:cx="606.36185"
     inkscape:cy="498.80884"
     inkscape:window-width="1920"
     inkscape:window-height="1111"
     inkscape:window-x="-9"
     inkscape:window-y="-9"
     inkscape:window-maximized="1"
     inkscape:current-layer="g25"
     viewbox-width="10.5832"
     scale-x="0.26458"
     inkscape:snap-global="true"
     inkscape:snap-bbox="false"
     inkscape:snap-page="true"
     inkscape:snap-midpoints="false"
     inkscape:object-paths="false"
     inkscape:snap-others="true"
     inkscape:snap-center="true"
     inkscape:bbox-nodes="false"
     inkscape:snap-nodes="true"
     inkscape:snap-grids="false"
     inkscape:showpageshadow="0"
     inkscape:deskcolor="#d1d1d1" />
  <defs
     id="defs82334">
    <clipPath
       id="clipPath3950">
      <use
         id="clone8754"
         xlink:href="#path24" />
    </clipPath>
    <clipPath
       id="clipPath7687">
      <use
         id="clone7346"
         xlink:href="#flowRoot1" />
    </clipPath>
    <clipPath
       id="clipPath4996">
      <use
         id="clone903"
         xlink:href="#path2" />
    </clipPath>
    <clipPath
       id="clipPath1052">
      <use
         id="clone2737"
         xlink:href="#path1" />
    </clipPath>
  </defs>
  <g
     id="g24">
    <path
       style="font-weight:600;font-size:1024px;line-height:1;font-family:'Klee One';display:inline;fill:#f66d6d;fill-opacity:1"
       d="m 376.832,226.304 v 643.072 c 0,4.77867 -1.36533,9.55733 -4.096,14.336 -2.048,4.096 -3.072,9.216 -3.072,15.36 0,2.73067 0.34133,5.12 1.024,7.168 1.36533,5.46133 3.75467,12.62933 7.168,21.504 3.41333,9.55733 8.192,17.74933 14.336,24.576 6.144,7.50933 13.65333,11.264 22.528,11.264 2.73067,0 4.77867,-0.34133 6.144,-1.024 9.55733,-2.73067 15.70133,-8.87467 18.432,-18.432 3.41333,-9.55733 5.12,-20.13867 5.12,-31.744 V 211.968 c 0,-11.60533 -1.36533,-20.82133 -4.096,-27.648 -2.73067,-7.50933 -10.24,-13.65333 -22.528,-18.432 -5.46133,-2.048 -12.62933,-3.75467 -21.504,-5.12 -8.192,-2.048 -16.04267,-3.072 -23.552,-3.072 -9.55733,0 -15.01867,1.70667 -16.384,5.12 -0.68267,1.36533 -1.024,3.072 -1.024,5.12 0,4.77867 1.70667,9.55733 5.12,14.336 4.096,4.77867 7.50933,9.89867 10.24,15.36 4.096,8.192 6.144,17.74933 6.144,28.672 z"
       id="path24"
       sodipodi:nodetypes="sscscccsccsscccscscss" />
    <path
       style="font-weight:600;font-size:1024px;line-height:1;font-family:'Klee One';display:inline;fill:#f5d36c"
       d="m 444.416,506.88 c 32.08533,8.87467 65.19467,20.13867 99.328,33.792 34.13333,13.65333 66.90133,27.648 98.304,41.984 32.08533,14.336 59.73333,27.30667 82.944,38.912 3.41333,1.36533 7.168,3.072 11.264,5.12 4.77867,2.048 9.55733,3.072 14.336,3.072 9.55733,0 17.06667,-4.43733 22.528,-13.312 5.46133,-8.87467 8.192,-18.432 8.192,-28.672 0,-4.77867 -1.024,-9.216 -3.072,-13.312 -1.36533,-4.77867 -4.77867,-8.87467 -10.24,-12.288 -8.87467,-6.82667 -25.94133,-15.36 -51.2,-25.6 -25.25867,-10.92267 -54.272,-22.18667 -87.04,-33.792 -32.768,-12.288 -65.87733,-23.552 -99.328,-33.792 -32.768,-10.24 -61.44,-18.432 -86.016,-24.576 -36.74693,-11.02022 -50.4829,47.83427 0,62.464 z"
       id="flowRoot1"
       sodipodi:nodetypes="cscccsssccccccc" />
    <path
       style="font-weight:600;font-size:1024px;line-height:1;font-family:'Klee One';fill:#b2f46b"
       d="m 735.232,346.112 q 0,-10.24 -15.36,-28.672 -15.36,-18.432 -36.864,-36.864 -21.504,-19.456 -41.984,-32.768 -19.456,-13.312 -27.648,-13.312 -10.24,0 -18.432,9.216 -8.192,8.192 -8.192,17.408 0,8.192 7.168,14.336 10.24,8.192 27.648,24.576 17.408,16.384 34.816,34.816 18.432,18.432 28.672,31.744 8.192,9.216 18.432,9.216 14.336,0 22.528,-11.264 9.216,-11.264 9.216,-18.432 z"
       id="path2" />
    <path
       style="font-weight:600;font-size:1024px;line-height:1;font-family:'Klee One';fill:#6af387"
       d="m 799.744,305.152 q 10.24,-10.24 10.24,-23.552 0,-11.264 -16.384,-27.648 -16.384,-17.408 -38.912,-34.816 -22.528,-17.408 -41.984,-28.672 -19.456,-12.288 -24.576,-12.288 -11.264,0 -20.48,9.216 -9.216,8.192 -9.216,17.408 0,8.192 7.168,12.288 16.384,12.288 34.816,29.696 19.456,16.384 35.84,32.768 16.384,15.36 24.576,26.624 7.168,8.192 16.384,8.192 7.168,0 13.312,-3.072 6.144,-4.096 9.216,-6.144 z"
       id="path1" />
  </g>
  <g
     id="g25">
    <path
       style="font-variation-settings:normal;display:inline;opacity:1;vector-effect:none;fill:none;fill-opacity:1;stroke:#000000;stroke-width:128;stroke-linecap:round;stroke-linejoin:miter;stroke-miterlimit:4;stroke-dasharray:none;stroke-dashoffset:0;stroke-opacity:1;-inkscape-stroke:none;stop-color:#000000;stop-opacity:1"
       d="M 376.91237,91.638678 426.36725,905.43158"
       id="path25"
       sodipodi:nodetypes="cc"
       clip-path="url(#clipPath3950)" />
    <path
       style="font-variation-settings:normal;opacity:1;vector-effect:none;fill:none;fill-opacity:1;stroke:#000000;stroke-width:128;stroke-linecap:round;stroke-linejoin:miter;stroke-miterlimit:4;stroke-dasharray:none;stroke-dashoffset:0;stroke-opacity:1;-inkscape-stroke:none;stop-color:#000000;stop-opacity:1"
       d="M 352.71111,432.95438 722.18947,585.05731"
       id="path26"
       sodipodi:nodetypes="cc"
       clip-path="url(#clipPath7687)" />
    <path
       style="font-variation-settings:normal;opacity:1;vector-effect:none;fill:none;fill-opacity:1;stroke:#000000;stroke-width:128;stroke-linecap:round;stroke-linejoin:miter;stroke-miterlimit:4;stroke-dasharray:none;stroke-dashoffset:0;stroke-opacity:1;-inkscape-stroke:none;stop-color:#000000;stop-opacity:1"
       d="m 544.54004,201.1326 133.8061,124.91392"
       id="path27"
       sodipodi:nodetypes="cc"
       clip-path="url(#clipPath4996)" />
    <path
       style="font-variation-settings:normal;opacity:1;vector-effect:none;fill:none;fill-opacity:1;stroke:#000000;stroke-width:128;stroke-linecap:round;stroke-linejoin:miter;stroke-miterlimit:4;stroke-dasharray:none;stroke-dashoffset:0;stroke-opacity:1;-inkscape-stroke:none;stop-color:#000000;stop-opacity:1"
       d="M 617.54386,143.41988 756.3228,261.68889"
       id="path28"
       sodipodi:nodetypes="cc"
       clip-path="url(#clipPath1052)" />
  </g>
</svg>
