<?xml version="1.0" encoding="UTF-8" standalone="no"?>
<!-- Created with Inkscape (http://www.inkscape.org/) -->

<svg
   width="1024"
   height="1024"
   viewBox="0 0 1024 1024"
   version="2"
   id="svg82337"
   inkscape:version="1.3 (0e150ed6c4, 2023-07-21)"
   sodipodi:docname="ãƒ.svg"
   xmlns:inkscape="http://www.inkscape.org/namespaces/inkscape"
   xmlns:sodipodi="http://sodipodi.sourceforge.net/DTD/sodipodi-0.dtd"
   xmlns:xlink="http://www.w3.org/1999/xlink"
   xmlns="http://www.w3.org/2000/svg"
   xmlns:svg="http://www.w3.org/2000/svg">
  <sodipodi:namedview
     id="namedview82339"
     pagecolor="#ffffff"
     bordercolor="#999999"
     borderopacity="1"
     inkscape:pageshadow="0"
     inkscape:pageopacity="0"
     inkscape:pagecheckerboard="0"
     inkscape:document-units="px"
     showgrid="false"
     units="px"
     inkscape:zoom="0.41748047"
     inkscape:cx="378.46082"
     inkscape:cy="453.91345"
     inkscape:window-width="1920"
     inkscape:window-height="1111"
     inkscape:window-x="-9"
     inkscape:window-y="-9"
     inkscape:window-maximized="1"
     inkscape:current-layer="svg82337"
     viewbox-width="10.5832"
     scale-x="0.26458"
     inkscape:snap-global="true"
     inkscape:snap-bbox="false"
     inkscape:snap-page="true"
     inkscape:snap-midpoints="false"
     inkscape:object-paths="false"
     inkscape:snap-others="true"
     inkscape:snap-center="true"
     inkscape:bbox-nodes="false"
     inkscape:snap-nodes="true"
     inkscape:snap-grids="false"
     inkscape:showpageshadow="0"
     inkscape:deskcolor="#d1d1d1" />
  <defs
     id="defs82334">
    <clipPath
       id="clipPath2456">
      <use
         id="clone2798"
         xlink:href="#path3" />
    </clipPath>
    <clipPath
       id="clipPath8989">
      <use
         id="clone1579"
         xlink:href="#path2" />
    </clipPath>
  </defs>
  <g
     id="g1">
    <path
       style="font-weight:600;font-size:1024px;line-height:1;font-family:'Klee One';fill:#f66d6d"
       d="m 104.448,838.656 q 10.24,0 36.864,-20.48 27.648,-21.504 63.488,-59.392 36.864,-38.912 75.776,-92.16 39.936,-53.248 74.752,-117.76 35.84,-64.512 60.416,-137.216 6.144,-18.432 6.144,-28.672 0,-14.336 -15.36,-23.552 -14.336,-10.24 -32.768,-15.36 -17.408,-5.12 -26.624,-5.12 -8.192,0 -11.264,4.096 -1.024,2.048 -1.024,5.12 0,5.12 3.072,12.288 4.096,7.168 4.096,19.456 0,14.336 -15.36,58.368 -15.36,43.008 -45.056,103.424 -28.672,60.416 -69.632,125.952 -40.96,65.536 -93.184,124.928 -21.504,24.576 -21.504,38.912 0,7.168 7.168,7.168 z"
       id="path3" />
    <path
       style="font-weight:600;font-size:1024px;line-height:1;font-family:'Klee One';fill:#f5d36c"
       d="m 911.36,756.736 q 0,-12.288 -22.528,-53.248 Q 867.328,661.504 829.44,602.112 791.552,542.72 742.4,474.112 694.272,404.48 640,336.896 q -9.216,-12.288 -22.528,-12.288 -6.144,0 -21.504,6.144 -14.336,5.12 -14.336,21.504 0,10.24 8.192,21.504 51.2,65.536 92.16,130.048 41.984,63.488 79.872,132.096 38.912,67.584 80.896,147.456 7.168,14.336 23.552,14.336 12.288,0 28.672,-11.264 16.384,-11.264 16.384,-29.696 z"
       id="path2" />
  </g>
  <g
     id="g4">
    <path
       style="font-variation-settings:normal;opacity:1;vector-effect:none;fill:none;fill-opacity:1;stroke:#000000;stroke-width:128;stroke-linecap:round;stroke-linejoin:miter;stroke-miterlimit:4;stroke-dasharray:none;stroke-dashoffset:0;stroke-opacity:1;-inkscape-stroke:none;stop-color:#000000;stop-opacity:1"
       d="M 383.47103,278.0653 C 386.71424,492.52016 143.9686,801.14289 143.9686,801.14289"
       id="path4"
       sodipodi:nodetypes="cc"
       clip-path="url(#clipPath2456)" />
    <path
       style="font-variation-settings:normal;opacity:1;vector-effect:none;fill:none;fill-opacity:1;stroke:#000000;stroke-width:128;stroke-linecap:round;stroke-linejoin:miter;stroke-miterlimit:4;stroke-dasharray:none;stroke-dashoffset:0;stroke-opacity:1;-inkscape-stroke:none;stop-color:#000000;stop-opacity:1"
       d="M 555.71462,275.46199 856.32749,738.95673"
       id="path5"
       sodipodi:nodetypes="cc"
       clip-path="url(#clipPath8989)" />
  </g>
</svg>
