<?xml version="1.0" encoding="UTF-8" standalone="no"?>
<!-- Created with Inkscape (http://www.inkscape.org/) -->

<svg
   width="1024"
   height="1024"
   viewBox="0 0 1024 1024"
   version="2"
   id="svg82337"
   inkscape:version="1.3 (0e150ed6c4, 2023-07-21)"
   sodipodi:docname="ブ.svg"
   xmlns:inkscape="http://www.inkscape.org/namespaces/inkscape"
   xmlns:sodipodi="http://sodipodi.sourceforge.net/DTD/sodipodi-0.dtd"
   xmlns:xlink="http://www.w3.org/1999/xlink"
   xmlns="http://www.w3.org/2000/svg"
   xmlns:svg="http://www.w3.org/2000/svg">
  <sodipodi:namedview
     id="namedview82339"
     pagecolor="#ffffff"
     bordercolor="#999999"
     borderopacity="1"
     inkscape:pageshadow="0"
     inkscape:pageopacity="0"
     inkscape:pagecheckerboard="0"
     inkscape:document-units="px"
     showgrid="false"
     units="px"
     inkscape:zoom="0.59040654"
     inkscape:cx="492.88072"
     inkscape:cy="300.6403"
     inkscape:window-width="1920"
     inkscape:window-height="1111"
     inkscape:window-x="-9"
     inkscape:window-y="-9"
     inkscape:window-maximized="1"
     inkscape:current-layer="svg82337"
     viewbox-width="10.5832"
     scale-x="0.26458"
     inkscape:snap-global="true"
     inkscape:snap-bbox="false"
     inkscape:snap-page="true"
     inkscape:snap-midpoints="false"
     inkscape:object-paths="false"
     inkscape:snap-others="true"
     inkscape:snap-center="true"
     inkscape:bbox-nodes="false"
     inkscape:snap-nodes="true"
     inkscape:snap-grids="false"
     inkscape:showpageshadow="0"
     inkscape:deskcolor="#d1d1d1" />
  <defs
     id="defs82334">
    <clipPath
       id="clipPath2154">
      <use
         id="clone1435"
         xlink:href="#path2" />
    </clipPath>
    <clipPath
       id="clipPath4300">
      <use
         id="clone6820"
         xlink:href="#path1" />
    </clipPath>
    <clipPath
       id="clipPath4727">
      <use
         id="clone2371"
         xlink:href="#flowRoot1" />
    </clipPath>
  </defs>
  <g
     id="g1">
    <path
       style="font-weight:600;font-size:1024px;line-height:1;font-family:'Klee One';fill:#f66d6d"
       d="m 260.096,279.552 h -8.192 q -16.384,0 -29.696,-4.096 -13.312,-4.096 -22.528,-4.096 h -3.072 q -9.216,1.024 -9.216,10.24 0,4.096 6.144,20.48 7.168,16.384 20.48,30.72 14.336,14.336 34.816,14.336 3.072,0 6.144,0 4.096,0 8.192,-1.024 50.176,-7.168 110.592,-15.36 61.44,-9.216 124.928,-17.408 64.512,-9.216 122.88,-15.36 59.392,-7.168 104.448,-9.216 -31.744,90.112 -77.824,169.984 -45.056,79.872 -97.28,148.48 -51.2,68.608 -103.424,123.904 -51.2,55.296 -96.256,94.208 -45.056,38.912 -76.8,60.416 -19.456,13.312 -28.672,23.552 -9.216,11.264 -9.216,16.384 0,6.144 8.192,6.144 20.48,0 69.632,-27.648 50.176,-27.648 116.736,-81.92 Q 497.664,768 568.32,690.176 638.976,611.328 702.464,509.952 765.952,408.576 808.96,286.72 q 3.072,-9.216 7.168,-16.384 4.096,-7.168 4.096,-14.336 0,-7.168 -9.216,-16.384 -9.216,-8.192 -21.504,-13.312 -11.264,-5.12 -19.456,-5.12 -49.152,3.072 -114.688,10.24 -65.536,7.168 -137.216,16.384 -71.68,8.192 -139.264,17.408 -66.56,8.192 -118.784,14.336 z"
       id="path2" />
    <path
       style="font-weight:600;font-size:1024px;line-height:1;font-family:'Klee One';fill:#f5d36c"
       d="m 907.264,283.648 q 11.264,-11.264 11.264,-22.528 0,-6.144 -13.312,-24.576 -13.312,-19.456 -32.768,-41.984 -19.456,-22.528 -36.864,-37.888 -17.408,-16.384 -25.6,-16.384 -10.24,0 -18.432,9.216 -8.192,8.192 -8.192,18.432 0,7.168 4.096,11.264 11.264,10.24 26.624,29.696 15.36,18.432 30.72,37.888 15.36,19.456 23.552,33.792 6.144,9.216 18.432,9.216 12.288,0 20.48,-6.144 z"
       id="path1" />
    <path
       style="font-weight:600;font-size:1024px;line-height:1;font-family:'Klee One';fill:#b2f46b"
       d="m 998.4,208.896 q 0,-7.168 -5.12,-15.36 -22.528,-29.696 -50.176,-55.296 -27.648,-26.624 -41.984,-38.912 -7.168,-6.144 -15.36,-6.144 -10.24,0 -19.456,8.192 -8.192,7.168 -8.192,16.384 0,8.192 6.144,14.336 10.24,9.216 26.624,27.648 16.384,17.408 31.744,35.84 15.36,18.432 22.528,30.72 9.216,13.312 21.504,13.312 14.336,0 22.528,-11.264 9.216,-11.264 9.216,-19.456 z"
       id="flowRoot1" />
  </g>
  <g
     id="g3">
    <path
       style="font-variation-settings:normal;opacity:1;vector-effect:none;fill:none;fill-opacity:1;stroke:#000000;stroke-width:128;stroke-linecap:round;stroke-linejoin:miter;stroke-miterlimit:4;stroke-dasharray:none;stroke-dashoffset:0;stroke-opacity:1;-inkscape-stroke:none;stop-color:#000000;stop-opacity:1"
       d="M 121.103,279.46845 C 651.8605,380.99977 484.28772,207.76257 810.4585,223.84773 638.93114,682.48365 286.24344,895.99279 286.24344,895.99279"
       id="path3"
       sodipodi:nodetypes="ccc"
       clip-path="url(#clipPath2154)" />
    <path
       style="font-variation-settings:normal;opacity:1;vector-effect:none;fill:none;fill-opacity:1;stroke:#000000;stroke-width:128;stroke-linecap:round;stroke-linejoin:miter;stroke-miterlimit:4;stroke-dasharray:none;stroke-dashoffset:0;stroke-opacity:1;-inkscape-stroke:none;stop-color:#000000;stop-opacity:1"
       d="M 749.13684,98.208185 866.3579,237.13684"
       id="path4"
       sodipodi:nodetypes="cc"
       clip-path="url(#clipPath4300)" />
    <path
       style="font-variation-settings:normal;opacity:1;vector-effect:none;fill:none;fill-opacity:1;stroke:#000000;stroke-width:128;stroke-linecap:round;stroke-linejoin:miter;stroke-miterlimit:4;stroke-dasharray:none;stroke-dashoffset:0;stroke-opacity:1;-inkscape-stroke:none;stop-color:#000000;stop-opacity:1"
       d="M 826.9848,47.906433 944.35555,185.63742"
       id="path5"
       sodipodi:nodetypes="cc"
       clip-path="url(#clipPath4727)" />
  </g>
</svg>
