<?xml version="1.0" encoding="UTF-8" standalone="no"?>
<!-- Created with Inkscape (http://www.inkscape.org/) -->

<svg
   width="1024"
   height="1024"
   viewBox="0 0 1024 1024"
   version="2"
   id="svg82337"
   inkscape:version="1.3 (0e150ed6c4, 2023-07-21)"
   sodipodi:docname="プ.svg"
   xmlns:inkscape="http://www.inkscape.org/namespaces/inkscape"
   xmlns:sodipodi="http://sodipodi.sourceforge.net/DTD/sodipodi-0.dtd"
   xmlns:xlink="http://www.w3.org/1999/xlink"
   xmlns="http://www.w3.org/2000/svg"
   xmlns:svg="http://www.w3.org/2000/svg">
  <sodipodi:namedview
     id="namedview82339"
     pagecolor="#ffffff"
     bordercolor="#999999"
     borderopacity="1"
     inkscape:pageshadow="0"
     inkscape:pageopacity="0"
     inkscape:pagecheckerboard="0"
     inkscape:document-units="px"
     showgrid="false"
     units="px"
     inkscape:zoom="0.59040654"
     inkscape:cx="628.38057"
     inkscape:cy="353.14649"
     inkscape:window-width="1920"
     inkscape:window-height="1111"
     inkscape:window-x="-9"
     inkscape:window-y="-9"
     inkscape:window-maximized="1"
     inkscape:current-layer="g3"
     viewbox-width="10.5832"
     scale-x="0.26458"
     inkscape:snap-global="true"
     inkscape:snap-bbox="false"
     inkscape:snap-page="true"
     inkscape:snap-midpoints="false"
     inkscape:object-paths="false"
     inkscape:snap-others="true"
     inkscape:snap-center="true"
     inkscape:bbox-nodes="false"
     inkscape:snap-nodes="true"
     inkscape:snap-grids="false"
     inkscape:showpageshadow="0"
     inkscape:deskcolor="#d1d1d1" />
  <defs
     id="defs82334">
    <clipPath
       id="clipPath5499">
      <use
         id="clone6455"
         xlink:href="#path2" />
    </clipPath>
    <clipPath
       id="clipPath6200">
      <use
         id="clone7033"
         xlink:href="#flowRoot1" />
    </clipPath>
  </defs>
  <g
     id="g1">
    <path
       style="font-weight:600;font-size:1024px;line-height:1;font-family:'Klee One';display:inline;fill:#f66d6d"
       d="m 260.096,279.552 h -8.192 q -16.384,0 -29.696,-4.096 -13.312,-4.096 -22.528,-4.096 h -3.072 q -9.216,1.024 -9.216,10.24 0,4.096 6.144,20.48 7.168,16.384 20.48,30.72 14.336,14.336 34.816,14.336 3.072,0 6.144,0 4.096,0 8.192,-1.024 50.176,-7.168 110.592,-15.36 61.44,-9.216 124.928,-17.408 64.512,-9.216 122.88,-15.36 59.392,-7.168 104.448,-9.216 -31.744,90.112 -77.824,169.984 -45.056,79.872 -97.28,148.48 -51.2,68.608 -103.424,123.904 -51.2,55.296 -96.256,94.208 -45.056,38.912 -76.8,60.416 -19.456,13.312 -28.672,23.552 -9.216,11.264 -9.216,16.384 0,6.144 8.192,6.144 20.48,0 69.632,-27.648 50.176,-27.648 116.736,-81.92 Q 497.664,768 568.32,690.176 638.976,611.328 702.464,509.952 765.952,408.576 808.96,286.72 q 3.072,-9.216 7.168,-16.384 4.096,-7.168 4.096,-14.336 0,-7.168 -9.216,-16.384 -9.216,-8.192 -21.504,-13.312 -11.264,-5.12 -19.456,-5.12 -49.152,3.072 -114.688,10.24 -65.536,7.168 -137.216,16.384 -71.68,8.192 -139.264,17.408 -66.56,8.192 -118.784,14.336 z"
       id="path2" />
    <path
       id="flowRoot1"
       style="font-weight:600;font-size:1024px;line-height:1;font-family:'Klee One';fill:#d3e36c;fill-opacity:1"
       d="M 909.3125 76.800781 C 882.00586 76.800781 858.79434 86.358009 839.67969 105.47266 C 821.24771 124.5873 812.03125 148.1396 812.03125 176.12891 C 812.03125 203.43555 821.24771 226.98589 839.67969 246.7832 C 858.79434 265.89785 882.00586 275.45508 909.3125 275.45508 C 937.30181 275.45508 961.19487 265.89785 980.99219 246.7832 C 1000.7895 226.98589 1010.6875 203.43555 1010.6875 176.12891 C 1010.6875 148.1396 1000.7895 124.5873 980.99219 105.47266 C 961.19487 86.358009 937.30181 76.800781 909.3125 76.800781 z M 909.3125 121.85547 C 924.33115 121.85547 936.95923 127.31758 947.19922 138.24023 C 958.12187 148.48022 963.58398 161.11025 963.58398 176.12891 C 963.58398 189.09956 958.12187 201.04609 947.19922 211.96875 C 936.95923 222.89141 924.33115 228.35156 909.3125 228.35156 C 895.65918 228.35156 883.36992 222.89141 872.44727 211.96875 C 862.20728 201.04609 857.08789 189.09956 857.08789 176.12891 C 857.08789 161.11025 862.20728 148.48022 872.44727 138.24023 C 883.36992 127.31758 895.65918 121.85547 909.3125 121.85547 z " />
  </g>
  <g
     id="g3">
    <path
       style="font-variation-settings:normal;display:inline;opacity:1;vector-effect:none;fill:none;fill-opacity:1;stroke:#000000;stroke-width:128;stroke-linecap:round;stroke-linejoin:miter;stroke-miterlimit:4;stroke-dasharray:none;stroke-dashoffset:0;stroke-opacity:1;-inkscape-stroke:none;stop-color:#000000;stop-opacity:1"
       d="M 121.103,279.46845 C 651.8605,380.99977 484.28772,207.76257 810.4585,223.84773 638.93114,682.48365 286.24344,895.99279 286.24344,895.99279"
       id="path3"
       sodipodi:nodetypes="ccc"
       clip-path="url(#clipPath5499)" />
    <path
       style="font-variation-settings:normal;display:inline;vector-effect:none;fill:none;fill-opacity:1;stroke:#000000;stroke-width:128;stroke-linecap:round;stroke-linejoin:miter;stroke-miterlimit:4;stroke-dasharray:none;stroke-dashoffset:0;stroke-opacity:1;-inkscape-stroke:none;stop-color:#000000"
       d="m 862.13003,18.294737 c 0,0 -159.95185,311.791473 47.7918,233.311673 150.30547,-56.78122 19.7733,-143.2567 19.7733,-143.2567"
       id="path7"
       sodipodi:nodetypes="csc"
       clip-path="url(#clipPath6200)" />
  </g>
</svg>
