<?xml version="1.0" encoding="UTF-8" standalone="no"?>
<!-- Created with Inkscape (http://www.inkscape.org/) -->

<svg
   width="1024"
   height="1024"
   viewBox="0 0 1024 1024"
   version="2"
   id="svg82337"
   inkscape:version="1.3 (0e150ed6c4, 2023-07-21)"
   sodipodi:docname="ベ.svg"
   xmlns:inkscape="http://www.inkscape.org/namespaces/inkscape"
   xmlns:sodipodi="http://sodipodi.sourceforge.net/DTD/sodipodi-0.dtd"
   xmlns:xlink="http://www.w3.org/1999/xlink"
   xmlns="http://www.w3.org/2000/svg"
   xmlns:svg="http://www.w3.org/2000/svg">
  <sodipodi:namedview
     id="namedview82339"
     pagecolor="#ffffff"
     bordercolor="#999999"
     borderopacity="1"
     inkscape:pageshadow="0"
     inkscape:pageopacity="0"
     inkscape:pagecheckerboard="0"
     inkscape:document-units="px"
     showgrid="false"
     units="px"
     inkscape:zoom="0.83496094"
     inkscape:cx="523.37778"
     inkscape:cy="461.69824"
     inkscape:window-width="1920"
     inkscape:window-height="1111"
     inkscape:window-x="-9"
     inkscape:window-y="-9"
     inkscape:window-maximized="1"
     inkscape:current-layer="svg82337"
     viewbox-width="10.5832"
     scale-x="0.26458"
     inkscape:snap-global="true"
     inkscape:snap-bbox="false"
     inkscape:snap-page="true"
     inkscape:snap-midpoints="false"
     inkscape:object-paths="false"
     inkscape:snap-others="true"
     inkscape:snap-center="true"
     inkscape:bbox-nodes="false"
     inkscape:snap-nodes="true"
     inkscape:snap-grids="false"
     inkscape:showpageshadow="0"
     inkscape:deskcolor="#d1d1d1" />
  <defs
     id="defs82334">
    <clipPath
       id="clipPath7372">
      <use
         id="clone2527"
         xlink:href="#path3" />
    </clipPath>
    <clipPath
       id="clipPath9014">
      <use
         id="clone6426"
         xlink:href="#path2" />
    </clipPath>
    <clipPath
       id="clipPath7597">
      <use
         id="clone9777"
         xlink:href="#flowRoot2" />
    </clipPath>
  </defs>
  <g
     id="g5">
    <path
       style="font-weight:600;font-size:1024px;line-height:1;font-family:'Klee One';display:inline;fill:#f66d6d"
       d="m 126.976,565.248 h -7.168 q -6.144,0 -11.264,1.024 -5.12,1.024 -9.216,6.144 -1.024,1.024 -1.024,4.096 0,7.168 9.216,19.456 10.24,12.288 24.576,22.528 15.36,9.216 28.672,9.216 11.264,0 27.648,-10.24 37.888,-27.648 74.752,-61.44 36.864,-34.816 68.608,-66.56 32.768,-31.744 57.344,-51.2 19.456,-16.384 35.84,-16.384 18.432,0 44.032,21.504 24.576,20.48 65.536,56.32 41.984,35.84 95.232,81.92 54.272,46.08 116.736,96.256 62.464,50.176 129.024,99.328 7.168,5.12 15.36,10.24 9.216,4.096 17.408,4.096 25.6,0 25.6,-26.624 0,-15.36 -6.144,-33.792 -6.144,-18.432 -12.288,-23.552 -6.144,-5.12 -15.36,-8.192 -8.192,-4.096 -16.384,-9.216 -67.584,-46.08 -128,-93.184 -59.392,-47.104 -109.568,-88.064 -50.176,-40.96 -86.016,-71.68 -35.84,-30.72 -54.272,-45.056 -46.08,-35.84 -79.872,-35.84 -22.528,0 -43.008,12.288 -20.48,12.288 -46.08,32.768 -46.08,37.888 -90.112,79.872 -44.032,40.96 -95.232,76.8 -11.264,7.168 -24.576,7.168 z"
       id="path3" />
    <path
       style="font-weight:600;font-size:1024px;line-height:1;font-family:'Klee One';fill:#f5d36c"
       d="m 764.928,396.288 q 0,-6.144 -5.12,-14.336 -7.168,-10.24 -27.648,-28.672 -20.48,-18.432 -41.984,-35.84 -21.504,-18.432 -31.744,-24.576 -5.12,-4.096 -13.312,-4.096 -10.24,0 -19.456,8.192 -8.192,8.192 -8.192,18.432 0,7.168 6.144,13.312 11.264,9.216 27.648,25.6 17.408,16.384 34.816,33.792 17.408,17.408 28.672,30.72 8.192,9.216 18.432,9.216 13.312,0 22.528,-10.24 9.216,-11.264 9.216,-21.504 z"
       id="path2" />
    <path
       style="font-weight:600;font-size:1024px;line-height:1;font-family:'Klee One';display:inline;fill:#b2f46b"
       d="m 805.888,366.592 q 15.36,0 22.528,-10.24 8.192,-11.264 8.192,-22.528 0,-10.24 -5.12,-15.36 -5.12,-5.12 -20.48,-18.432 -15.36,-14.336 -34.816,-29.696 -18.432,-16.384 -35.84,-27.648 -16.384,-11.264 -25.6,-11.264 -10.24,0 -18.432,9.216 -8.192,8.192 -8.192,17.408 0,7.168 6.144,12.288 24.576,18.432 52.224,46.08 27.648,26.624 40.96,41.984 8.192,8.192 18.432,8.192 z"
       id="flowRoot2" />
  </g>
  <g
     id="g6">
    <path
       style="font-variation-settings:normal;opacity:1;vector-effect:none;fill:none;fill-opacity:1;stroke:#000000;stroke-width:128;stroke-linecap:round;stroke-linejoin:miter;stroke-miterlimit:4;stroke-dasharray:none;stroke-dashoffset:0;stroke-opacity:1;-inkscape-stroke:none;stop-color:#000000;stop-opacity:1"
       d="M 45.866175,623.45495 C 249.47317,604.85515 340.79745,325.09074 441.81293,377.75872 542.82842,430.42671 883.10911,744.87348 883.10911,744.87348"
       id="path5"
       sodipodi:nodetypes="czc"
       clip-path="url(#clipPath7372)" />
    <path
       style="font-variation-settings:normal;opacity:1;vector-effect:none;fill:none;fill-opacity:1;stroke:#000000;stroke-width:128;stroke-linecap:round;stroke-linejoin:miter;stroke-miterlimit:4;stroke-dasharray:none;stroke-dashoffset:0;stroke-opacity:1;-inkscape-stroke:none;stop-color:#000000;stop-opacity:1"
       d="m 572.91031,254.9091 135.9233,122.79674"
       id="path6"
       sodipodi:nodetypes="cc"
       clip-path="url(#clipPath9014)" />
    <path
       style="font-variation-settings:normal;opacity:1;vector-effect:none;fill:none;fill-opacity:1;stroke:#000000;stroke-width:128;stroke-linecap:round;stroke-linejoin:miter;stroke-miterlimit:4;stroke-dasharray:none;stroke-dashoffset:0;stroke-opacity:1;-inkscape-stroke:none;stop-color:#000000;stop-opacity:1"
       d="m 644.89461,198.16853 137.61704,117.7155"
       id="path7"
       sodipodi:nodetypes="cc"
       clip-path="url(#clipPath7597)" />
  </g>
</svg>
