<?xml version="1.0" encoding="UTF-8" standalone="no"?>
<!-- Created with Inkscape (http://www.inkscape.org/) -->

<svg
   width="1024"
   height="1024"
   viewBox="0 0 1024 1024"
   version="2"
   id="svg82337"
   inkscape:version="1.3 (0e150ed6c4, 2023-07-21)"
   sodipodi:docname="マ.svg"
   xmlns:inkscape="http://www.inkscape.org/namespaces/inkscape"
   xmlns:sodipodi="http://sodipodi.sourceforge.net/DTD/sodipodi-0.dtd"
   xmlns:xlink="http://www.w3.org/1999/xlink"
   xmlns="http://www.w3.org/2000/svg"
   xmlns:svg="http://www.w3.org/2000/svg">
  <sodipodi:namedview
     id="namedview82339"
     pagecolor="#ffffff"
     bordercolor="#999999"
     borderopacity="1"
     inkscape:pageshadow="0"
     inkscape:pageopacity="0"
     inkscape:pagecheckerboard="0"
     inkscape:document-units="px"
     showgrid="false"
     units="px"
     inkscape:zoom="0.70710678"
     inkscape:cx="526.08744"
     inkscape:cy="529.62298"
     inkscape:window-width="1920"
     inkscape:window-height="1111"
     inkscape:window-x="-9"
     inkscape:window-y="-9"
     inkscape:window-maximized="1"
     inkscape:current-layer="g2"
     viewbox-width="10.5832"
     scale-x="0.26458"
     inkscape:snap-global="true"
     inkscape:snap-bbox="false"
     inkscape:snap-page="true"
     inkscape:snap-midpoints="false"
     inkscape:object-paths="false"
     inkscape:snap-others="true"
     inkscape:snap-center="true"
     inkscape:bbox-nodes="false"
     inkscape:snap-nodes="true"
     inkscape:snap-grids="false"
     inkscape:showpageshadow="0"
     inkscape:deskcolor="#d1d1d1" />
  <defs
     id="defs82334">
    <clipPath
       id="clipPath1859">
      <use
         id="clone802"
         xlink:href="#path1" />
    </clipPath>
    <clipPath
       id="clipPath4867">
      <use
         id="clone2562"
         xlink:href="#flowRoot1" />
    </clipPath>
  </defs>
  <g
     id="g1">
    <path
       style="font-weight:600;font-size:1024px;line-height:1;font-family:'Klee One';fill:#f66d6d;fill-opacity:1"
       d="m 820.224,311.296 h -3.072 c -22.528,2.048 -52.90667,5.12 -91.136,9.216 -38.22933,3.41333 -80.896,7.85067 -128,13.312 -46.42133,4.77867 -94.208,10.24 -143.36,16.384 -49.152,5.46133 -96.59733,10.92267 -142.336,16.384 -45.056,4.77867 -84.992,9.55733 -119.808,14.336 h -4.096 c -8.192,0 -16.04267,-1.024 -23.552,-3.072 -4.096,-1.36533 -9.216,-2.73067 -15.36,-4.096 -5.46133,-2.048 -10.58133,-3.072 -15.36,-3.072 h -3.072 c -4.77867,2.048 -7.168,5.46133 -7.168,10.24 0,4.77867 3.072,12.62933 9.216,23.552 6.144,10.92267 13.99467,21.16267 23.552,30.72 9.55733,8.87467 19.456,13.312 29.696,13.312 h 8.192 c 2.73067,-0.68267 5.80267,-1.36533 9.216,-2.048 38.912,-5.46133 81.92,-11.264 129.024,-17.408 47.104,-6.144 95.232,-12.288 144.384,-18.432 49.152,-6.144 96.256,-11.60533 141.312,-16.384 45.73867,-5.46133 86.35733,-9.89867 121.856,-13.312 -24.576,28.672 -51.88267,58.02667 -81.92,88.064 -29.35467,29.35467 -58.02667,57.00267 -86.016,82.944 -27.30667,25.25867 -50.51733,46.08 -69.632,62.464 -21.60033,18.76939 -6.83819,58.60992 32.768,31.744 16.384,-11.60533 36.52267,-26.96533 60.416,-46.08 23.89333,-19.11467 48.81067,-39.25333 74.752,-60.416 26.624,-21.84533 51.88267,-43.008 75.776,-63.488 23.89333,-20.48 44.37333,-38.22933 61.44,-53.248 17.06667,-15.01867 27.98933,-25.25867 32.768,-30.72 2.73067,-2.73067 5.46133,-4.77867 8.192,-6.144 l 8.192,-6.144 c 10.24,-6.82667 15.36,-14.67733 15.36,-23.552 0,-3.41333 -1.024,-6.48533 -3.072,-9.216 -5.46133,-7.50933 -12.288,-15.36 -20.48,-23.552 -7.50933,-8.192 -17.06667,-12.288 -28.672,-12.288 z"
       id="path1"
       sodipodi:nodetypes="sccccccsccscsscsccssccscccscsscccsccs" />
    <path
       style="font-weight:600;font-size:1024px;line-height:1;font-family:'Klee One';display:inline;fill:#f5d36c"
       d="m 502.784,614.4 c -27.30667,-26.624 -49.152,-47.44533 -65.536,-62.464 -15.70133,-15.01867 -27.98933,-25.6 -36.864,-31.744 -8.192,-6.82667 -13.99467,-10.92267 -17.408,-12.288 -3.41333,-2.048 -6.48533,-3.072 -9.216,-3.072 l -9.216,1.024 c -5.46133,0.68267 -10.92267,3.072 -16.384,7.168 -5.46133,3.41333 -8.192,9.55733 -8.192,18.432 0,8.87467 3.75467,16.384 11.264,22.528 14.336,10.92267 32.08533,26.96533 53.248,48.128 21.16267,21.16267 44.032,45.39733 68.608,72.704 24.576,26.624 48.46933,54.61333 71.68,83.968 23.89333,28.672 45.39733,57.00267 64.512,84.992 6.82667,8.87467 14.336,13.312 22.528,13.312 9.55733,0 18.77333,-4.43733 27.648,-13.312 9.55733,-7.50933 14.336,-16.72533 14.336,-27.648 0,-6.144 -2.048,-12.288 -6.144,-18.432 -15.70133,-23.21067 -35.15733,-47.78667 -58.368,-73.728 -23.21067,-26.624 -47.78667,-52.56533 -73.728,-77.824 z"
       id="flowRoot1"
       sodipodi:nodetypes="cccccccscscccscscccc" />
  </g>
  <g
     id="g2">
    <path
       style="font-variation-settings:normal;opacity:1;vector-effect:none;fill:none;fill-opacity:1;stroke:#000000;stroke-width:128;stroke-linecap:round;stroke-linejoin:miter;stroke-miterlimit:4;stroke-dasharray:none;stroke-dashoffset:0;stroke-opacity:1;-inkscape-stroke:none;stop-color:#000000;stop-opacity:1"
       d="M 56.740568,387.86833 C 568.11663,444.53469 648.00751,279.06568 828.23024,322.54426 L 542.83747,607.90839"
       id="path2"
       sodipodi:nodetypes="ccc"
       clip-path="url(#clipPath1859)" />
    <path
       style="font-variation-settings:normal;opacity:1;vector-effect:none;fill:none;fill-opacity:1;stroke:#000000;stroke-width:128;stroke-linecap:round;stroke-linejoin:miter;stroke-miterlimit:4;stroke-dasharray:none;stroke-dashoffset:0;stroke-opacity:1;-inkscape-stroke:none;stop-color:#000000;stop-opacity:1"
       d="M 302.59441,465.05887 618.22183,800.15076"
       id="path3"
       sodipodi:nodetypes="cc"
       clip-path="url(#clipPath4867)" />
  </g>
</svg>
