<?xml version="1.0" encoding="UTF-8" standalone="no"?>
<!-- Created with Inkscape (http://www.inkscape.org/) -->

<svg
   width="1024"
   height="1024"
   viewBox="0 0 1024 1024"
   version="2"
   id="svg82337"
   inkscape:version="1.3 (0e150ed6c4, 2023-07-21)"
   sodipodi:docname="ミ.svg"
   xmlns:inkscape="http://www.inkscape.org/namespaces/inkscape"
   xmlns:sodipodi="http://sodipodi.sourceforge.net/DTD/sodipodi-0.dtd"
   xmlns:xlink="http://www.w3.org/1999/xlink"
   xmlns="http://www.w3.org/2000/svg"
   xmlns:svg="http://www.w3.org/2000/svg">
  <sodipodi:namedview
     id="namedview82339"
     pagecolor="#ffffff"
     bordercolor="#999999"
     borderopacity="1"
     inkscape:pageshadow="0"
     inkscape:pageopacity="0"
     inkscape:pagecheckerboard="0"
     inkscape:document-units="px"
     showgrid="false"
     units="px"
     inkscape:zoom="0.5"
     inkscape:cx="444"
     inkscape:cy="529"
     inkscape:window-width="1920"
     inkscape:window-height="1111"
     inkscape:window-x="-9"
     inkscape:window-y="-9"
     inkscape:window-maximized="1"
     inkscape:current-layer="g4"
     viewbox-width="10.5832"
     scale-x="0.26458"
     inkscape:snap-global="true"
     inkscape:snap-bbox="false"
     inkscape:snap-page="true"
     inkscape:snap-midpoints="false"
     inkscape:object-paths="false"
     inkscape:snap-others="true"
     inkscape:snap-center="true"
     inkscape:bbox-nodes="false"
     inkscape:snap-nodes="true"
     inkscape:snap-grids="false"
     inkscape:showpageshadow="0"
     inkscape:deskcolor="#d1d1d1" />
  <defs
     id="defs82334">
    <clipPath
       id="clipPath8776">
      <use
         id="clone8952"
         xlink:href="#flowRoot1" />
    </clipPath>
    <clipPath
       id="clipPath4574">
      <use
         id="clone5910"
         xlink:href="#path1" />
    </clipPath>
    <clipPath
       id="clipPath5263">
      <use
         id="clone1644"
         xlink:href="#path2" />
    </clipPath>
  </defs>
  <g
     id="g3">
    <path
       style="font-weight:600;font-size:1024px;line-height:1;font-family:'Klee One';fill:#f66d6d"
       d="m 339.968,277.504 c 36.18133,6.82667 74.06933,15.01867 113.664,24.576 40.27733,9.55733 80.21333,20.48 119.808,32.768 39.59467,11.60533 75.776,24.91733 108.544,39.936 4.096,2.048 8.53333,3.072 13.312,3.072 5.46133,0 11.60533,-2.38933 18.432,-7.168 6.82667,-5.46133 10.24,-16.72533 10.24,-33.792 0,-11.60533 -5.46133,-20.48 -16.384,-26.624 -40.96,-19.79733 -93.52533,-36.864 -157.696,-51.2 -64.17067,-14.336 -130.73067,-26.96533 -199.68,-37.888 -9.2817,-1.74757 -20.33538,-1.24093 -26.624,8.192 -3.41333,5.46133 -5.80267,11.264 -7.168,17.408 -0.68267,6.144 -1.024,10.24 -1.024,12.288 0,6.82667 2.048,11.264 6.144,13.312 4.77867,2.048 10.92267,3.75467 18.432,5.12 z"
       id="flowRoot1"
       sodipodi:nodetypes="ccccscscscccscc" />
    <path
       style="font-weight:600;font-size:1024px;line-height:1;font-family:'Klee One';fill:#f5d36c"
       d="m 645.12,589.824 c 9.55733,0 16.384,-2.73067 20.48,-8.192 4.096,-6.144 6.48533,-12.62933 7.168,-19.456 1.36533,-6.82667 2.048,-10.92267 2.048,-12.288 0,-10.92267 -5.12,-19.456 -15.36,-25.6 -20.48,-10.92267 -45.39733,-21.16267 -74.752,-30.72 -28.672,-9.55733 -58.368,-18.09067 -89.088,-25.6 -30.03733,-8.192 -57.68533,-15.01867 -82.944,-20.48 -6.84421,-1.52094 -55.68857,-12.288 -66.56,-12.288 -5.80197,0 -26.624,2.33416 -26.624,35.84 0,6.82667 2.048,11.60533 6.144,14.336 4.096,2.73067 9.89867,4.77867 17.408,6.144 17.74933,4.096 41.30133,10.24 70.656,18.432 30.03733,8.192 63.82933,18.77333 101.376,31.744 37.54667,12.288 76.11733,27.30667 115.712,45.056 5.46133,2.048 10.24,3.072 14.336,3.072 z"
       id="path1"
       sodipodi:nodetypes="sccsccccsssccccs" />
    <path
       style="font-weight:600;font-size:1024px;line-height:1;font-family:'Klee One';fill:#b2f46b"
       d="m 269.312,681.984 q -1.024,4.096 -2.048,7.168 0,3.072 0,6.144 0,16.384 20.48,22.528 39.936,12.288 96.256,32.768 56.32,20.48 117.76,46.08 62.464,24.576 118.784,52.224 57.344,26.624 99.328,52.224 6.144,3.072 11.264,3.072 11.264,0 21.504,-10.24 11.264,-10.24 11.264,-33.792 0,-9.216 -3.072,-17.408 -3.072,-9.216 -11.264,-13.312 -45.056,-27.648 -103.424,-52.224 -58.368,-25.6 -118.784,-47.104 -60.416,-22.528 -112.64,-37.888 -51.2,-16.384 -83.968,-25.6 -32.768,-9.216 -34.816,-9.216 -17.408,0 -26.624,24.576 z"
       id="path2" />
  </g>
  <g
     id="g4">
    <path
       style="font-variation-settings:normal;opacity:1;vector-effect:none;fill:none;fill-opacity:1;stroke:#000000;stroke-width:128;stroke-linecap:round;stroke-linejoin:miter;stroke-miterlimit:4;stroke-dasharray:none;stroke-dashoffset:0;stroke-opacity:1;-inkscape-stroke:none;stop-color:#000000;stop-opacity:1"
       d="M 253.83185,227.10571 663.37259,337.58579"
       id="path3"
       sodipodi:nodetypes="cc"
       clip-path="url(#clipPath8776)" />
    <path
       style="font-variation-settings:normal;opacity:1;vector-effect:none;fill:none;fill-opacity:1;stroke:#000000;stroke-width:128;stroke-linecap:round;stroke-linejoin:miter;stroke-miterlimit:4;stroke-dasharray:none;stroke-dashoffset:0;stroke-opacity:1;-inkscape-stroke:none;stop-color:#000000;stop-opacity:1"
       d="M 257.56364,437.87588 613.76868,549.42196"
       id="path4"
       sodipodi:nodetypes="cc"
       clip-path="url(#clipPath4574)" />
    <path
       style="font-variation-settings:normal;opacity:1;vector-effect:none;fill:none;fill-opacity:1;stroke:#000000;stroke-width:128;stroke-linecap:round;stroke-linejoin:miter;stroke-miterlimit:4;stroke-dasharray:none;stroke-dashoffset:0;stroke-opacity:1;-inkscape-stroke:none;stop-color:#000000;stop-opacity:1"
       d="M 210.01071,653.36667 704.27835,857.72052"
       id="path5"
       sodipodi:nodetypes="cc"
       clip-path="url(#clipPath5263)" />
  </g>
</svg>
