<?xml version="1.0" encoding="UTF-8" standalone="no"?>
<!-- Created with Inkscape (http://www.inkscape.org/) -->

<svg
   width="1024"
   height="1024"
   viewBox="0 0 1024 1024"
   version="2"
   id="svg82337"
   inkscape:version="1.3 (0e150ed6c4, 2023-07-21)"
   sodipodi:docname="ム.svg"
   xmlns:inkscape="http://www.inkscape.org/namespaces/inkscape"
   xmlns:sodipodi="http://sodipodi.sourceforge.net/DTD/sodipodi-0.dtd"
   xmlns:xlink="http://www.w3.org/1999/xlink"
   xmlns="http://www.w3.org/2000/svg"
   xmlns:svg="http://www.w3.org/2000/svg">
  <sodipodi:namedview
     id="namedview82339"
     pagecolor="#ffffff"
     bordercolor="#999999"
     borderopacity="1"
     inkscape:pageshadow="0"
     inkscape:pageopacity="0"
     inkscape:pagecheckerboard="0"
     inkscape:document-units="px"
     showgrid="false"
     units="px"
     inkscape:zoom="1"
     inkscape:cx="460"
     inkscape:cy="559.5"
     inkscape:window-width="1920"
     inkscape:window-height="1111"
     inkscape:window-x="-9"
     inkscape:window-y="-9"
     inkscape:window-maximized="1"
     inkscape:current-layer="svg82337"
     viewbox-width="10.5832"
     scale-x="0.26458"
     inkscape:snap-global="true"
     inkscape:snap-bbox="false"
     inkscape:snap-page="true"
     inkscape:snap-midpoints="false"
     inkscape:object-paths="false"
     inkscape:snap-others="true"
     inkscape:snap-center="true"
     inkscape:bbox-nodes="false"
     inkscape:snap-nodes="true"
     inkscape:snap-grids="false"
     inkscape:showpageshadow="0"
     inkscape:deskcolor="#d1d1d1" />
  <defs
     id="defs82334">
    <clipPath
       id="clipPath3157">
      <use
         id="clone4660"
         xlink:href="#path6" />
    </clipPath>
    <clipPath
       id="clipPath9925">
      <use
         id="clone5749"
         xlink:href="#flowRoot1" />
    </clipPath>
  </defs>
  <g
     id="g6">
    <path
       style="font-weight:600;font-size:1024px;line-height:1;font-family:'Klee One';fill:#f66d6d;fill-opacity:1"
       d="m 709.632,735.232 c 37.33814,-16.98996 8.36361,-43.23754 -24.576,-35.84 -16.61107,4.15277 -159.86802,39.71744 -232.448,57.344 -47.78667,11.60533 -145.54212,42.9217 -143.5148,25.70303 2.0829,-17.69068 110.96751,-195.03601 176.3308,-360.62303 15.36044,-38.91312 29.98933,-75.02133 38.864,-102.328 8.87467,-27.30667 13.312,-45.39733 13.312,-54.272 0,-10.24 -5.80267,-18.432 -17.408,-24.576 -10.92267,-6.144 -22.86933,-10.24 -35.84,-12.288 -12.288,-2.73067 -20.48,-4.096 -24.576,-4.096 -9.55733,0 -14.336,4.096 -14.336,12.288 0,4.096 1.024,7.85067 3.072,11.264 2.73067,3.41333 5.12,6.82667 7.168,10.24 1.36533,2.73067 2.048,7.168 2.048,13.312 0,26.97001 -27.87973,99.99158 -34.768,117.688 -46.93516,120.57946 -73.02962,199.76919 -163.17721,357.46043 -18.50762,32.37457 -41.19694,45.06496 -60.81448,66.00221 -19.61754,20.93725 -17.28694,42.08306 1.9659,67.64905 16.96809,22.53206 89.1627,-13.22138 89.1627,-13.22138 31.40267,-8.192 87.41776,-23.50364 123.59909,-34.42631 71.84245,-20.58904 143.23818,-42.56878 214.016,-66.56 32.768,-11.60533 60.07467,-21.84533 81.92,-30.72 z"
       id="path6"
       sodipodi:nodetypes="ccsszssccssccszszscccc" />
    <path
       style="font-weight:600;font-size:1024px;line-height:1;font-family:'Klee One';display:inline;fill:#f5d36c"
       d="m 759.808,809.984 c 16.384,24.576 30.03733,46.76267 40.96,66.56 2.73067,4.77867 8.87467,7.168 18.432,7.168 11.60533,0 22.18667,-4.096 31.744,-12.288 9.55733,-8.192 14.336,-17.408 14.336,-27.648 0,-4.77867 -5.12,-15.01867 -15.36,-30.72 -9.55733,-15.70133 -22.528,-34.47467 -38.912,-56.32 -16.384,-22.528 -33.792,-45.73867 -52.224,-69.632 -18.432,-23.89333 -36.52267,-46.42133 -54.272,-67.584 -17.74933,-21.84533 -33.10933,-39.936 -46.08,-54.272 -12.288,-15.01867 -20.48,-23.89333 -24.576,-26.624 -4.77867,-4.096 -9.89867,-6.144 -15.36,-6.144 -2.73067,0 -5.80267,0.68267 -9.216,2.048 -2.73067,1.36533 -5.80267,2.73067 -9.216,4.096 -10.24,6.82667 -15.36,13.65333 -15.36,20.48 0,7.50933 3.75467,15.01867 11.264,22.528 10.24,11.60533 23.21067,27.98933 38.912,49.152 40.43681,50.54602 115.63965,164.66171 124.928,179.2 z"
       id="flowRoot1"
       sodipodi:nodetypes="ccsssccscccsccsccc" />
  </g>
  <g
     id="g7"
     style="display:inline">
    <path
       style="font-variation-settings:normal;opacity:1;vector-effect:none;fill:none;fill-opacity:1;stroke:#000000;stroke-width:128;stroke-linecap:round;stroke-linejoin:miter;stroke-miterlimit:4;stroke-dasharray:none;stroke-dashoffset:0;stroke-opacity:1;-inkscape-stroke:none;stop-color:#000000;stop-opacity:1"
       d="m 476.53845,160.44827 c 55.92554,242.66 -255.13859,566.95401 -257.64906,685.32251 L 668.12624,735.75902"
       id="path7"
       sodipodi:nodetypes="ccc"
       clip-path="url(#clipPath3157)" />
    <path
       style="font-variation-settings:normal;display:inline;opacity:1;vector-effect:none;fill:none;fill-opacity:1;stroke:#000000;stroke-width:128;stroke-linecap:round;stroke-linejoin:miter;stroke-miterlimit:4;stroke-dasharray:none;stroke-dashoffset:0;stroke-opacity:1;-inkscape-stroke:none;stop-color:#000000;stop-opacity:1"
       d="M 558.05025,487.76777 810,826"
       id="path8"
       sodipodi:nodetypes="cc"
       clip-path="url(#clipPath9925)" />
  </g>
</svg>
