<?xml version="1.0" encoding="UTF-8" standalone="no"?>
<!-- Created with Inkscape (http://www.inkscape.org/) -->

<svg
   width="1024"
   height="1024"
   viewBox="0 0 1024 1024"
   version="2"
   id="svg82337"
   inkscape:version="1.3 (0e150ed6c4, 2023-07-21)"
   sodipodi:docname="ャ.svg"
   xmlns:inkscape="http://www.inkscape.org/namespaces/inkscape"
   xmlns:sodipodi="http://sodipodi.sourceforge.net/DTD/sodipodi-0.dtd"
   xmlns:xlink="http://www.w3.org/1999/xlink"
   xmlns="http://www.w3.org/2000/svg"
   xmlns:svg="http://www.w3.org/2000/svg">
  <sodipodi:namedview
     id="namedview82339"
     pagecolor="#ffffff"
     bordercolor="#999999"
     borderopacity="1"
     inkscape:pageshadow="0"
     inkscape:pageopacity="0"
     inkscape:pagecheckerboard="0"
     inkscape:document-units="px"
     showgrid="false"
     units="px"
     inkscape:zoom="0.5"
     inkscape:cx="504"
     inkscape:cy="677"
     inkscape:window-width="1920"
     inkscape:window-height="1111"
     inkscape:window-x="-9"
     inkscape:window-y="-9"
     inkscape:window-maximized="1"
     inkscape:current-layer="svg82337"
     viewbox-width="10.5832"
     scale-x="0.26458"
     inkscape:snap-global="true"
     inkscape:snap-bbox="false"
     inkscape:snap-page="true"
     inkscape:snap-midpoints="false"
     inkscape:object-paths="false"
     inkscape:snap-others="true"
     inkscape:snap-center="true"
     inkscape:bbox-nodes="false"
     inkscape:snap-nodes="true"
     inkscape:snap-grids="false"
     inkscape:showpageshadow="0"
     inkscape:deskcolor="#d1d1d1" />
  <defs
     id="defs82334">
    <clipPath
       id="clipPath1259">
      <use
         id="clone7151"
         xlink:href="#path18" />
    </clipPath>
    <clipPath
       id="clipPath8217">
      <use
         id="clone6324"
         xlink:href="#path19" />
    </clipPath>
  </defs>
  <g
     id="g19">
    <path
       style="font-weight:600;font-size:1024px;line-height:1;font-family:'Klee One';fill:#f34949;fill-opacity:1"
       d="m 678.912,525.312 c -14.336,26.624 -29.35467,52.224 -45.056,76.8 -15.01867,23.89333 -28.33067,43.69067 -39.936,59.392 -10.24,12.97067 -15.36,22.86933 -15.36,29.696 0,5.46133 3.072,8.192 9.216,8.192 7.50933,0 18.09067,-5.80267 31.744,-17.408 13.65333,-11.60533 28.33067,-26.28267 44.032,-44.032 16.384,-17.74933 32.08533,-35.49867 47.104,-53.248 15.01867,-17.74933 27.648,-33.10933 37.888,-46.08 10.24,-12.97067 16.04267,-20.48 17.408,-22.528 1.36533,-2.048 2.73067,-3.75467 4.096,-5.12 2.048,-1.36533 4.096,-3.072 6.144,-5.12 1.36533,-2.048 3.072,-4.43733 5.12,-7.168 2.048,-3.41333 3.072,-7.168 3.072,-11.264 0,-3.41333 -1.024,-7.168 -3.072,-11.264 -2.73067,-4.77867 -8.192,-10.24 -16.384,-16.384 -8.192,-6.144 -17.06667,-9.216 -26.624,-9.216 -3.41333,0 -5.80267,0.34133 -7.168,1.024 -13.65333,4.096 -34.47467,10.58133 -62.464,19.456 -27.98933,8.192 -59.73333,17.408 -95.232,27.648 -78.35548,23.39432 -157.05323,45.6111 -235.52,68.608 -23.21067,6.144 -43.34933,11.264 -60.416,15.36 -16.384,4.096 -25.94133,6.144 -28.672,6.144 -2.048,0 -4.77867,-0.34133 -8.192,-1.024 -3.41333,-0.68267 -6.82667,-1.024 -10.24,-1.024 -6.144,0 -10.24,1.36533 -12.288,4.096 -1.36533,1.36533 -2.048,2.73067 -2.048,4.096 0,2.048 2.73067,7.168 8.192,15.36 6.144,7.50933 13.65333,15.01867 22.528,22.528 9.55733,7.50933 19.456,11.264 29.696,11.264 2.73067,0 6.82667,-0.68267 12.288,-2.048 6.144,-1.36533 18.77333,-4.77867 37.888,-10.24 116.90372,-37.17243 234.72629,-71.35825 352.256,-106.496 z"
       id="path18"
       sodipodi:nodetypes="cccssscssscccscssccsccssscsccsccc" />
    <path
       style="font-weight:600;font-size:1024px;line-height:1;font-family:'Klee One';fill:#f3b849;fill-opacity:1"
       d="m 502.784,901.12 c 0.8067,2.94447 1.70667,7.168 1.024,13.312 0,6.82667 0.35451,11.79577 2.048,14.336 1.07106,1.60658 4.096,5.12 8.192,11.264 4.096,6.144 9.216,11.94667 15.36,17.408 6.144,6.144 12.97067,9.216 20.48,9.216 4.096,0 8.192,-1.024 12.288,-3.072 4.096,-2.73067 6.82667,-6.82667 8.192,-12.288 2.048,-5.46133 3.072,-11.264 3.072,-17.408 0,-4.05028 -1.50613,-15.24054 -2.048,-17.408 -0.68267,-2.73067 -4.096,-14.67733 -10.24,-35.84 -5.46133,-21.16267 -12.97067,-47.78667 -22.528,-79.872 C 529.74933,768 520.192,732.84267 509.952,695.296 482.44651,594.44252 461.83035,518.7268 431.104,401.408 c -1.36533,-7.50933 -4.43733,-14.67733 -9.216,-21.504 -4.77867,-6.82667 -13.312,-10.58133 -25.6,-11.264 l -26.624,-1.024 c -12.96109,-0.4985 -21.16267,1.70667 -24.576,5.12 -2.73067,2.73067 -4.096,5.12 -4.096,7.168 0,4.77867 2.73067,9.216 8.192,13.312 6.144,3.41333 11.60533,7.85067 16.384,13.312 1.36533,2.048 3.072,5.80267 5.12,11.264 2.048,5.46133 3.41333,9.89867 4.096,13.312 42.23521,156.79041 85.09333,313.40665 128,470.016 z"
       id="path19"
       sodipodi:nodetypes="scsscsccssccscscsssccscs" />
  </g>
  <g
     id="g20">
    <path
       style="font-variation-settings:normal;opacity:1;vector-effect:none;fill:none;fill-opacity:1;stroke:#000000;stroke-width:128;stroke-linecap:round;stroke-linejoin:miter;stroke-miterlimit:4;stroke-dasharray:none;stroke-dashoffset:0;stroke-opacity:1;-inkscape-stroke:none;stop-color:#000000;stop-opacity:1"
       d="M 152.29289,618.86827 C 495.45322,575.49616 632.64372,434.72836 771.83794,447.48744 L 615.86285,646.19321"
       id="path20"
       sodipodi:nodetypes="ccc"
       clip-path="url(#clipPath1259)" />
    <path
       style="font-variation-settings:normal;opacity:1;vector-effect:none;fill:none;fill-opacity:1;stroke:#000000;stroke-width:128;stroke-linecap:round;stroke-linejoin:miter;stroke-miterlimit:4;stroke-dasharray:none;stroke-dashoffset:0;stroke-opacity:1;-inkscape-stroke:none;stop-color:#000000;stop-opacity:1"
       d="M 343.76598,301.86649 373.92814,396.60676 536.5,907.25"
       id="path21"
       sodipodi:nodetypes="ccc"
       clip-path="url(#clipPath8217)" />
  </g>
</svg>
