<?xml version="1.0" encoding="UTF-8" standalone="no"?>
<!-- Created with Inkscape (http://www.inkscape.org/) -->

<svg
   width="1024"
   height="1024"
   viewBox="0 0 1024 1024"
   version="2"
   id="svg82337"
   inkscape:version="1.3 (0e150ed6c4, 2023-07-21)"
   sodipodi:docname="ヤ.svg"
   xmlns:inkscape="http://www.inkscape.org/namespaces/inkscape"
   xmlns:sodipodi="http://sodipodi.sourceforge.net/DTD/sodipodi-0.dtd"
   xmlns:xlink="http://www.w3.org/1999/xlink"
   xmlns="http://www.w3.org/2000/svg"
   xmlns:svg="http://www.w3.org/2000/svg">
  <sodipodi:namedview
     id="namedview82339"
     pagecolor="#ffffff"
     bordercolor="#999999"
     borderopacity="1"
     inkscape:pageshadow="0"
     inkscape:pageopacity="0"
     inkscape:pagecheckerboard="0"
     inkscape:document-units="px"
     showgrid="false"
     units="px"
     inkscape:zoom="0.5"
     inkscape:cx="215"
     inkscape:cy="423"
     inkscape:window-width="1920"
     inkscape:window-height="1111"
     inkscape:window-x="-9"
     inkscape:window-y="-9"
     inkscape:window-maximized="1"
     inkscape:current-layer="svg82337"
     viewbox-width="10.5832"
     scale-x="0.26458"
     inkscape:snap-global="true"
     inkscape:snap-bbox="false"
     inkscape:snap-page="true"
     inkscape:snap-midpoints="false"
     inkscape:object-paths="false"
     inkscape:snap-others="true"
     inkscape:snap-center="true"
     inkscape:bbox-nodes="false"
     inkscape:snap-nodes="true"
     inkscape:snap-grids="false"
     inkscape:showpageshadow="0"
     inkscape:deskcolor="#d1d1d1" />
  <defs
     id="defs82334">
    <clipPath
       id="clipPath7279">
      <use
         id="clone9133"
         xlink:href="#flowRoot1" />
    </clipPath>
    <clipPath
       id="clipPath4541">
      <use
         id="clone3707"
         xlink:href="#path1" />
    </clipPath>
  </defs>
  <g
     id="g1">
    <path
       style="font-weight:600;font-size:1024px;line-height:1;font-family:'Klee One';fill:#f66d6d"
       d="m 753.664,377.856 c -23.89333,39.59467 -47.44533,76.11733 -70.656,109.568 -23.21067,33.45067 -43.69067,61.44 -61.44,83.968 -11.60533,13.65333 -17.408,24.576 -17.408,32.768 0,5.46133 2.73067,8.192 8.192,8.192 6.82667,0 17.06667,-5.12 30.72,-15.36 13.65333,-10.92267 29.35467,-25.25867 47.104,-43.008 17.74933,-17.74933 36.18133,-36.864 55.296,-57.344 19.11467,-21.16267 37.20533,-42.32533 54.272,-63.488 17.74933,-21.16267 32.768,-40.27733 45.056,-57.344 2.048,-3.41333 4.43733,-6.144 7.168,-8.192 3.41333,-2.73067 6.144,-5.46133 8.192,-8.192 l 4.096,-8.192 c 2.048,-3.41333 3.072,-6.82667 3.072,-10.24 0,-7.50933 -5.80267,-16.384 -17.408,-26.624 -11.60533,-10.24 -23.552,-15.36 -35.84,-15.36 -4.096,0 -7.168,0.34133 -9.216,1.024 -10.92267,3.41333 -28.672,8.87467 -53.248,16.384 -23.89333,6.82667 -52.224,15.01867 -84.992,24.576 -32.768,9.55733 -67.584,19.79733 -104.448,30.72 -143.96959,42.65766 -189.62195,52.52718 -281.6,79.872 -25.25867,6.82667 -44.032,11.94667 -56.32,15.36 l -27.648,6.144 c -5.46133,0.68267 -11.264,1.70667 -17.408,3.072 h -2.048 c -4.77867,0 -9.55733,-0.34133 -14.336,-1.024 -4.77867,-1.36533 -9.216,-2.048 -13.312,-2.048 -4.096,0 -6.82667,0.68267 -8.192,2.048 -3.41333,1.36533 -5.12,4.77867 -5.12,10.24 0,5.46133 3.072,12.62933 9.216,21.504 6.144,8.87467 13.99467,16.72533 23.552,23.552 9.55733,6.144 18.77333,9.216 27.648,9.216 4.77867,0 9.216,-0.34133 13.312,-1.024 4.096,-1.36533 8.53333,-2.73067 13.312,-4.096 9.55733,-3.41333 30.72,-9.89867 63.488,-19.456 155.73401,-45.44148 311.29797,-91.47057 466.944,-137.216 z"
       id="flowRoot1"
       sodipodi:nodetypes="cscsscsccccccsssccssccccscscsscscccc" />
    <path
       style="font-weight:600;font-size:1024px;line-height:1;font-family:'Klee One';fill:#f5d36c;fill-opacity:1"
       d="m 513.024,888.832 c 1.36533,6.144 2.048,12.288 2.048,18.432 0.68267,6.144 1.36533,10.92267 2.048,14.336 1.36533,2.048 4.096,6.82667 8.192,14.336 4.096,7.50933 9.55733,14.67733 16.384,21.504 6.82667,6.82667 14.67733,10.24 23.552,10.24 5.46133,0 11.264,-2.38933 17.408,-7.168 6.82667,-4.096 10.24,-15.70133 10.24,-34.816 0,-2.73067 -0.34133,-5.46133 -1.024,-8.192 0,-2.73067 -0.34133,-5.46133 -1.024,-8.192 -0.68267,-3.41333 -3.75467,-14.67733 -9.216,-33.792 -5.46133,-19.11467 -12.62933,-44.032 -21.504,-74.752 -8.192,-30.72 -17.408,-64.85333 -27.648,-102.4 -10.24,-38.22933 -21.16267,-77.48267 -32.768,-117.76 -26.46205,-98.69214 -53.20019,-197.30062 -79.872,-295.936 -8.87467,-32.768 -13.99467,-52.56533 -15.36,-59.392 -2.048,-9.55733 -6.144,-17.74933 -12.288,-24.576 -6.144,-7.50933 -15.70114,-11.60886 -28.672,-12.288 -16.94857,-0.88741 -17.39634,-1.11239 -30.72,-1.024 -8.19182,0.0543 -15.01867,0.68267 -20.48,2.048 -5.46133,1.36533 -8.87467,4.43733 -10.24,9.216 -0.68267,0.68267 -1.024,2.048 -1.024,4.096 0,4.096 2.38933,7.85067 7.168,11.264 4.77867,3.41333 10.24,7.85067 16.384,13.312 6.82667,5.46133 11.94667,13.65333 15.36,24.576 1.36533,2.73067 6.144,20.13867 14.336,52.224 52.79709,194.92978 105.83074,389.79729 158.72,584.704 z"
       id="path1"
       sodipodi:nodetypes="cccssscsccscccsccssscsscccc" />
  </g>
  <g
     id="g2">
    <path
       style="font-variation-settings:normal;opacity:1;vector-effect:none;fill:none;fill-opacity:1;stroke:#000000;stroke-width:128;stroke-linecap:round;stroke-linejoin:miter;stroke-miterlimit:4;stroke-dasharray:none;stroke-dashoffset:0;stroke-opacity:1;-inkscape-stroke:none;stop-color:#000000;stop-opacity:1"
       d="M 72,499.5 C 589.10972,474.16667 649.12361,286.98409 844,305 L 645.77297,562.11612"
       id="path2"
       sodipodi:nodetypes="ccc"
       clip-path="url(#clipPath7279)" />
    <path
       style="font-variation-settings:normal;opacity:1;vector-effect:none;fill:none;fill-opacity:1;stroke:#000000;stroke-width:128;stroke-linecap:round;stroke-linejoin:miter;stroke-miterlimit:4;stroke-dasharray:none;stroke-dashoffset:0;stroke-opacity:1;-inkscape-stroke:none;stop-color:#000000;stop-opacity:1"
       d="M 317.57107,120.32322 557.77512,907.10355"
       id="path3"
       sodipodi:nodetypes="cc"
       clip-path="url(#clipPath4541)" />
  </g>
</svg>
