<?xml version="1.0" encoding="UTF-8" standalone="no"?>
<!-- Created with Inkscape (http://www.inkscape.org/) -->

<svg
   width="1024"
   height="1024"
   viewBox="0 0 1024 1024"
   version="2"
   id="svg82337"
   inkscape:version="1.3 (0e150ed6c4, 2023-07-21)"
   sodipodi:docname="ヨ.svg"
   xmlns:inkscape="http://www.inkscape.org/namespaces/inkscape"
   xmlns:sodipodi="http://sodipodi.sourceforge.net/DTD/sodipodi-0.dtd"
   xmlns:xlink="http://www.w3.org/1999/xlink"
   xmlns="http://www.w3.org/2000/svg"
   xmlns:svg="http://www.w3.org/2000/svg">
  <sodipodi:namedview
     id="namedview82339"
     pagecolor="#ffffff"
     bordercolor="#999999"
     borderopacity="1"
     inkscape:pageshadow="0"
     inkscape:pageopacity="0"
     inkscape:pagecheckerboard="0"
     inkscape:document-units="px"
     showgrid="false"
     units="px"
     inkscape:zoom="0.5"
     inkscape:cx="179"
     inkscape:cy="641"
     inkscape:window-width="1920"
     inkscape:window-height="1111"
     inkscape:window-x="-9"
     inkscape:window-y="-9"
     inkscape:window-maximized="1"
     inkscape:current-layer="svg82337"
     viewbox-width="10.5832"
     scale-x="0.26458"
     inkscape:snap-global="true"
     inkscape:snap-bbox="false"
     inkscape:snap-page="true"
     inkscape:snap-midpoints="false"
     inkscape:object-paths="false"
     inkscape:snap-others="true"
     inkscape:snap-center="true"
     inkscape:bbox-nodes="false"
     inkscape:snap-nodes="true"
     inkscape:snap-grids="false"
     inkscape:showpageshadow="0"
     inkscape:deskcolor="#d1d1d1" />
  <defs
     id="defs82334">
    <clipPath
       id="clipPath4181">
      <use
         id="clone2600"
         xlink:href="#path2" />
    </clipPath>
    <clipPath
       id="clipPath2838">
      <use
         id="clone1462"
         xlink:href="#path3" />
    </clipPath>
    <clipPath
       id="clipPath1707">
      <use
         id="clone8909"
         xlink:href="#flowRoot1" />
    </clipPath>
  </defs>
  <g
     id="g3">
    <path
       style="font-weight:600;font-size:1024px;line-height:1;font-family:'Klee One';display:inline;fill:#f66d6d;fill-opacity:1"
       d="m 707.584,739.328 c 2.73067,-19.11467 6.48533,-44.032 11.264,-74.752 5.46133,-31.40267 11.264,-65.87733 17.408,-103.424 6.144,-38.22933 12.288,-77.14133 18.432,-116.736 6.144,-39.59467 11.94667,-77.48267 17.408,-113.664 0.68267,-4.77867 2.38933,-9.55733 5.12,-14.336 2.73067,-5.46133 4.096,-10.58133 4.096,-15.36 0,-8.192 -5.80267,-16.04267 -17.408,-23.552 -11.60533,-8.192 -22.18667,-12.288 -31.744,-12.288 h -5.12 c -2.048,0 -4.096,0.34133 -6.144,1.024 -17.74933,2.048 -40.96,4.77867 -69.632,8.192 -27.98933,2.73067 -58.70933,5.80267 -92.16,9.216 -33.45067,2.73067 -67.24267,5.46133 -101.376,8.192 -33.45067,2.73067 -64.85333,5.46133 -94.208,8.192 -28.672,2.73067 -52.224,4.77867 -70.656,6.144 -2.73067,0 -5.12,0.34133 -7.168,1.024 h -5.12 -7.168 c -2.048,-0.68267 -4.77867,-1.36533 -8.192,-2.048 -4.77867,-1.36533 -10.58133,-2.73067 -17.408,-4.096 -6.82667,-2.048 -12.62933,-3.072 -17.408,-3.072 -2.73067,0 -5.46133,0.34133 -8.192,1.024 -2.048,0.68267 -3.072,3.75467 -3.072,9.216 0,4.77867 2.38933,12.288 7.168,22.528 5.46133,9.55733 12.62933,18.77333 21.504,27.648 8.87467,8.192 19.456,12.288 31.744,12.288 h 10.24 c 4.096,-0.68267 8.53333,-1.36533 13.312,-2.048 20.48,-2.73067 47.78667,-5.46133 81.92,-8.192 34.13333,-3.41333 70.656,-6.82667 109.568,-10.24 38.912,-3.41333 76.45867,-6.48533 112.64,-9.216 36.18133,-3.41333 66.90133,-6.48533 92.16,-9.216 -15.88179,110.27366 -31.4759,220.59196 -48.128,330.752 -4.096,30.72 -7.85067,54.95467 -11.264,72.704 -3.96988,25.09742 60.62165,61.7219 67.584,4.096 z"
       id="path2"
       sodipodi:nodetypes="cccsccscsscccccccccccscsccscccsccccc" />
    <path
       style="font-weight:600;font-size:1024px;line-height:1;font-family:'Klee One';fill:#f5d36c;fill-opacity:1"
       d="m 678.912,476.16 c -6.82667,1.36533 -21.16267,3.072 -43.008,5.12 -21.84533,2.048 -47.78667,4.43733 -77.824,7.168 -29.35467,2.73067 -60.416,5.46133 -93.184,8.192 -32.08533,2.73067 -62.464,5.46133 -91.136,8.192 -28.672,2.73067 -52.56533,4.77867 -71.68,6.144 h -7.168 -11.264 c -4.096,-0.68267 -7.85067,-1.36533 -11.264,-2.048 -4.77867,-1.36533 -9.89867,-2.38933 -15.36,-3.072 -4.77867,-1.36533 -9.216,-2.048 -13.312,-2.048 -4.096,0 -6.82667,0.34133 -8.192,1.024 -3.41333,0.68267 -5.12,3.75467 -5.12,9.216 0,6.144 2.048,13.312 6.144,21.504 4.096,8.192 8.53333,15.70133 13.312,22.528 4.77867,6.82667 10.24,11.264 16.384,13.312 6.144,1.36533 12.62933,2.048 19.456,2.048 h 11.264 c 4.096,0 8.192,-0.34133 12.288,-1.024 22.528,-2.048 48.81067,-4.096 78.848,-6.144 30.03733,-2.73067 61.78133,-5.46133 95.232,-8.192 33.45067,-3.41333 66.21867,-6.48533 98.304,-9.216 32.08533,-2.73067 61.09867,-5.12 87.04,-7.168 45.2922,-3.52805 60.33172,-75.92982 10.24,-65.536 z"
       id="path3"
       sodipodi:nodetypes="csccscccccscssscsscccscc" />
    <path
       style="font-weight:600;font-size:1024px;line-height:1;font-family:'Klee One';display:inline;fill:#b2f46b"
       d="m 732.16,774.144 v -1.024 c 0,-7.50933 -2.38933,-13.99467 -7.168,-19.456 -4.77867,-5.46133 -10.58133,-10.24 -17.408,-14.336 -9.57655,-6.01457 -32.00752,-7.41474 -67.584,-4.096 -21.16267,2.048 -49.152,4.77867 -83.968,8.192 -34.816,2.73067 -72.02133,5.80267 -111.616,9.216 -38.912,2.73067 -75.776,5.46133 -110.592,8.192 -34.816,2.73067 -63.14667,4.77867 -84.992,6.144 -2.73067,0 -5.46133,0.34133 -8.192,1.024 h -6.144 c -4.77867,0 -10.92267,-1.024 -18.432,-3.072 -4.77867,-1.36533 -9.89867,-2.73067 -15.36,-4.096 -4.77867,-2.048 -9.89867,-3.072 -15.36,-3.072 -1.36533,0 -2.73067,0.34133 -4.096,1.024 -1.36533,0 -2.73067,0.34133 -4.096,1.024 -3.41333,2.048 -5.12,5.46133 -5.12,10.24 0,3.41333 2.048,10.24 6.144,20.48 4.77867,9.55733 11.60533,18.77333 20.48,27.648 9.55733,8.192 21.504,12.288 35.84,12.288 h 10.24 c 4.096,0 7.85067,-0.34133 11.264,-1.024 24.576,-2.048 55.296,-4.43733 92.16,-7.168 37.54667,-2.73067 76.8,-5.80267 117.76,-9.216 41.64267,-3.41333 81.23733,-6.48533 118.784,-9.216 38.22933,-2.73067 69.97333,-4.77867 95.232,-6.144 13.65333,-1.36533 25.6,-3.072 35.84,-5.12 10.92267,-2.048 16.384,-8.192 16.384,-18.432 z"
       id="flowRoot1"
       sodipodi:nodetypes="sssccccsccsccsccsccssccccccs" />
  </g>
  <g
     id="g4">
    <path
       style="font-variation-settings:normal;display:inline;opacity:1;vector-effect:none;fill:none;fill-opacity:1;stroke:#000000;stroke-width:128;stroke-linecap:round;stroke-linejoin:miter;stroke-miterlimit:4;stroke-dasharray:none;stroke-dashoffset:0;stroke-opacity:1;-inkscape-stroke:none;stop-color:#000000;stop-opacity:1"
       d="m 153.62385,315.27208 c 383.86377,36.16521 485.3794,-71.41377 607.00357,-44.06066 L 688,709"
       id="path4"
       sodipodi:nodetypes="ccc"
       clip-path="url(#clipPath4181)" />
    <path
       style="font-variation-settings:normal;opacity:1;vector-effect:none;fill:none;fill-opacity:1;stroke:#000000;stroke-width:128;stroke-linecap:round;stroke-linejoin:miter;stroke-miterlimit:4;stroke-dasharray:none;stroke-dashoffset:0;stroke-opacity:1;-inkscape-stroke:none;stop-color:#000000;stop-opacity:1"
       d="m 163.50253,532.81802 485.37095,-26.2981"
       id="path5"
       sodipodi:nodetypes="cc"
       clip-path="url(#clipPath2838)" />
    <path
       style="font-variation-settings:normal;opacity:1;vector-effect:none;fill:none;fill-opacity:1;stroke:#000000;stroke-width:128;stroke-linecap:round;stroke-linejoin:miter;stroke-miterlimit:4;stroke-dasharray:none;stroke-dashoffset:0;stroke-opacity:1;-inkscape-stroke:none;stop-color:#000000;stop-opacity:1"
       d="M 106.78658,794.15198 669.57987,773.16797"
       id="path6"
       sodipodi:nodetypes="cc"
       clip-path="url(#clipPath1707)" />
  </g>
</svg>
