<?xml version="1.0" encoding="UTF-8" standalone="no"?>
<!-- Created with Inkscape (http://www.inkscape.org/) -->

<svg
   width="1024"
   height="1024"
   viewBox="0 0 1024 1024"
   version="2"
   id="svg82337"
   inkscape:version="1.3 (0e150ed6c4, 2023-07-21)"
   sodipodi:docname="ラ.svg"
   xmlns:inkscape="http://www.inkscape.org/namespaces/inkscape"
   xmlns:sodipodi="http://sodipodi.sourceforge.net/DTD/sodipodi-0.dtd"
   xmlns:xlink="http://www.w3.org/1999/xlink"
   xmlns="http://www.w3.org/2000/svg"
   xmlns:svg="http://www.w3.org/2000/svg">
  <sodipodi:namedview
     id="namedview82339"
     pagecolor="#ffffff"
     bordercolor="#999999"
     borderopacity="1"
     inkscape:pageshadow="0"
     inkscape:pageopacity="0"
     inkscape:pagecheckerboard="0"
     inkscape:document-units="px"
     showgrid="false"
     units="px"
     inkscape:zoom="0.5"
     inkscape:cx="502"
     inkscape:cy="485"
     inkscape:window-width="1920"
     inkscape:window-height="1111"
     inkscape:window-x="-9"
     inkscape:window-y="-9"
     inkscape:window-maximized="1"
     inkscape:current-layer="g2"
     viewbox-width="10.5832"
     scale-x="0.26458"
     inkscape:snap-global="true"
     inkscape:snap-bbox="false"
     inkscape:snap-page="true"
     inkscape:snap-midpoints="false"
     inkscape:object-paths="false"
     inkscape:snap-others="true"
     inkscape:snap-center="true"
     inkscape:bbox-nodes="false"
     inkscape:snap-nodes="true"
     inkscape:snap-grids="false"
     inkscape:showpageshadow="0"
     inkscape:deskcolor="#d1d1d1" />
  <defs
     id="defs82334">
    <clipPath
       id="clipPath3551">
      <use
         id="clone1201"
         xlink:href="#flowRoot1" />
    </clipPath>
    <clipPath
       id="clipPath857">
      <use
         id="clone3530"
         xlink:href="#path1" />
    </clipPath>
  </defs>
  <g
     id="g1">
    <path
       style="font-weight:600;font-size:1024px;line-height:1;font-family:'Klee One';fill:#f66d6d"
       d="m 360.448,218.112 h -7.168 q -16.384,0 -31.744,-3.072 -15.36,-3.072 -24.576,-3.072 -5.12,0 -7.168,1.024 -5.12,3.072 -5.12,9.216 0,11.264 9.216,25.6 9.216,13.312 22.528,23.552 13.312,10.24 26.624,10.24 3.072,0 6.144,0 3.072,-1.024 6.144,-1.024 31.744,-2.048 75.776,-5.12 45.056,-4.096 92.16,-9.216 48.128,-6.144 91.136,-11.264 43.008,-6.144 71.68,-10.24 44.032,-6.144 44.032,-27.648 0,-20.48 -17.408,-30.72 -16.384,-11.264 -29.696,-11.264 -3.072,0 -7.168,1.024 -4.096,1.024 -26.624,7.168 -15.36,4.096 -47.104,9.216 -31.744,4.096 -69.632,9.216 -37.888,4.096 -74.752,8.192 -35.84,3.072 -62.464,5.12 -26.624,2.048 -34.816,3.072 z"
       id="flowRoot1" />
    <path
       style="font-weight:600;font-size:1024px;line-height:1;font-family:'Klee One';fill:#f5d36c"
       d="m 254.976,404.48 h -7.168 q -22.528,0 -36.864,-4.096 -13.312,-5.12 -21.504,-5.12 h -2.048 q -7.168,1.024 -7.168,9.216 0,8.192 8.192,24.576 8.192,15.36 21.504,28.672 14.336,12.288 28.672,12.288 4.096,0 9.216,0 5.12,0 11.264,-1.024 6.144,-1.024 44.032,-5.12 37.888,-5.12 93.184,-11.264 56.32,-7.168 118.784,-14.336 63.488,-8.192 121.856,-14.336 59.392,-7.168 101.376,-11.264 -56.32,129.024 -126.976,218.112 -70.656,89.088 -149.504,151.552 -78.848,61.44 -162.816,111.616 -57.344,35.84 -57.344,47.104 0,4.096 8.192,4.096 17.408,0 65.536,-18.432 49.152,-18.432 115.712,-57.344 67.584,-39.936 139.264,-102.4 72.704,-63.488 138.24,-151.552 66.56,-88.064 112.64,-204.8 4.096,-10.24 7.168,-17.408 4.096,-7.168 4.096,-14.336 0,-12.288 -17.408,-23.552 -17.408,-11.264 -32.768,-11.264 -2.048,0 -30.72,3.072 -27.648,3.072 -73.728,9.216 -46.08,5.12 -100.352,11.264 -54.272,6.144 -109.568,13.312 -54.272,6.144 -101.376,11.264 -46.08,5.12 -76.8,9.216 -30.72,3.072 -34.816,3.072 z"
       id="path1" />
  </g>
  <g
     id="g2">
    <path
       style="font-variation-settings:normal;opacity:1;vector-effect:none;fill:none;fill-opacity:1;stroke:#000000;stroke-width:128;stroke-linecap:round;stroke-linejoin:miter;stroke-miterlimit:4;stroke-dasharray:none;stroke-dashoffset:0;stroke-opacity:1;-inkscape-stroke:none;stop-color:#000000;stop-opacity:1"
       d="M 218.53852,242.38167 667.7159,217.78889"
       id="path2"
       sodipodi:nodetypes="cc"
       clip-path="url(#clipPath3551)" />
    <path
       style="font-variation-settings:normal;opacity:1;vector-effect:none;fill:none;fill-opacity:1;stroke:#000000;stroke-width:128;stroke-linecap:round;stroke-linejoin:miter;stroke-miterlimit:4;stroke-dasharray:none;stroke-dashoffset:0;stroke-opacity:1;-inkscape-stroke:none;stop-color:#000000;stop-opacity:1"
       d="M 113.41243,409.23223 C 470.91531,460.54424 686.13459,326.72539 808.79899,346.37385 704.32742,708.8066 296.34697,915.80317 296.34697,915.80317"
       id="path3"
       sodipodi:nodetypes="ccc"
       clip-path="url(#clipPath857)" />
  </g>
</svg>
