<?xml version="1.0" encoding="UTF-8" standalone="no"?>
<!-- Created with Inkscape (http://www.inkscape.org/) -->

<svg
   width="1024"
   height="1024"
   viewBox="0 0 1024 1024"
   version="2"
   id="svg82337"
   inkscape:version="1.3 (0e150ed6c4, 2023-07-21)"
   sodipodi:docname="リ.svg"
   xmlns:inkscape="http://www.inkscape.org/namespaces/inkscape"
   xmlns:sodipodi="http://sodipodi.sourceforge.net/DTD/sodipodi-0.dtd"
   xmlns:xlink="http://www.w3.org/1999/xlink"
   xmlns="http://www.w3.org/2000/svg"
   xmlns:svg="http://www.w3.org/2000/svg">
  <sodipodi:namedview
     id="namedview82339"
     pagecolor="#ffffff"
     bordercolor="#999999"
     borderopacity="1"
     inkscape:pageshadow="0"
     inkscape:pageopacity="0"
     inkscape:pagecheckerboard="0"
     inkscape:document-units="px"
     showgrid="false"
     units="px"
     inkscape:zoom="0.5"
     inkscape:cx="265"
     inkscape:cy="597"
     inkscape:window-width="1920"
     inkscape:window-height="1111"
     inkscape:window-x="-9"
     inkscape:window-y="-9"
     inkscape:window-maximized="1"
     inkscape:current-layer="g4"
     viewbox-width="10.5832"
     scale-x="0.26458"
     inkscape:snap-global="true"
     inkscape:snap-bbox="false"
     inkscape:snap-page="true"
     inkscape:snap-midpoints="false"
     inkscape:object-paths="false"
     inkscape:snap-others="true"
     inkscape:snap-center="true"
     inkscape:bbox-nodes="false"
     inkscape:snap-nodes="true"
     inkscape:snap-grids="false"
     inkscape:showpageshadow="0"
     inkscape:deskcolor="#d1d1d1" />
  <defs
     id="defs82334">
    <clipPath
       id="clipPath5224">
      <use
         id="clone1660"
         xlink:href="#path1" />
    </clipPath>
    <clipPath
       id="clipPath1282">
      <use
         id="clone6936"
         xlink:href="#flowRoot1" />
    </clipPath>
  </defs>
  <g
     id="g3">
    <path
       style="font-weight:600;font-size:1024px;line-height:1;font-family:'Klee One';fill:#f66d6d"
       d="m 372.736,641.024 h 5.12 q 13.312,-2.048 20.48,-17.408 7.168,-15.36 7.168,-31.744 0,-7.168 0,-40.96 0,-33.792 0,-79.872 1.024,-46.08 1.024,-92.16 1.024,-47.104 1.024,-81.92 0,-34.816 0,-44.032 v -18.432 q 0,-11.264 -3.072,-22.528 -3.072,-11.264 -16.384,-18.432 -13.312,-8.192 -45.056,-8.192 -22.528,0 -25.6,8.192 v 2.048 q 0,8.192 10.24,20.48 11.264,11.264 11.264,30.72 0,4.096 0,27.648 0,22.528 -1.024,56.32 0,33.792 0,71.68 0,36.864 -1.024,71.68 0,33.792 0,57.344 0,22.528 0,27.648 0,6.144 -2.048,13.312 -1.024,7.168 -1.024,13.312 v 4.096 q 1.024,5.12 5.12,18.432 4.096,12.288 12.288,22.528 9.216,10.24 21.504,10.24 z"
       id="path1" />
    <path
       style="font-weight:600;font-size:1024px;line-height:1;font-family:'Klee One';fill:#f5d36c"
       d="m 703.488,407.552 v -31.744 q 0,-37.888 -1.024,-79.872 0,-41.984 -2.048,-81.92 v -8.192 q 0,-15.36 -5.12,-24.576 -4.096,-9.216 -24.576,-16.384 -21.504,-7.168 -43.008,-7.168 -7.168,0 -13.312,2.048 -6.144,1.024 -7.168,5.12 v 2.048 q 0,8.192 9.216,19.456 10.24,11.264 11.264,35.84 2.048,34.816 2.048,71.68 1.024,36.864 1.024,69.632 0,123.904 -16.384,211.968 -16.384,87.04 -49.152,150.528 -31.744,62.464 -80.896,112.64 -48.128,49.152 -112.64,97.28 -34.816,27.648 -34.816,38.912 0,5.12 8.192,5.12 14.336,0 43.008,-15.36 82.944,-43.008 142.336,-93.184 59.392,-51.2 96.256,-115.712 37.888,-64.512 56.32,-149.504 18.432,-86.016 20.48,-198.656 z"
       id="flowRoot1" />
  </g>
  <g
     id="g4">
    <path
       style="font-variation-settings:normal;opacity:1;vector-effect:none;fill:none;fill-opacity:1;stroke:#000000;stroke-width:128;stroke-linecap:round;stroke-linejoin:miter;stroke-miterlimit:4;stroke-dasharray:none;stroke-dashoffset:0;stroke-opacity:1;-inkscape-stroke:none;stop-color:#000000;stop-opacity:1"
       d="M 342,120.48528 370,579"
       id="path3"
       sodipodi:nodetypes="cc"
       clip-path="url(#clipPath5224)" />
    <path
       style="font-variation-settings:normal;opacity:1;vector-effect:none;fill:none;fill-opacity:1;stroke:#000000;stroke-width:128;stroke-linecap:round;stroke-linejoin:miter;stroke-miterlimit:4;stroke-dasharray:none;stroke-dashoffset:0;stroke-opacity:1;-inkscape-stroke:none;stop-color:#000000;stop-opacity:1"
       d="M 617.91082,91.767023 C 805.55451,725.43441 391.73715,948.93731 391.73715,948.93731"
       id="path4"
       sodipodi:nodetypes="cc"
       clip-path="url(#clipPath1282)" />
  </g>
</svg>
