<?xml version="1.0" encoding="UTF-8" standalone="no"?>
<!-- Created with Inkscape (http://www.inkscape.org/) -->

<svg
   width="1024"
   height="1024"
   viewBox="0 0 1024 1024"
   version="2"
   id="svg82337"
   inkscape:version="1.3 (0e150ed6c4, 2023-07-21)"
   sodipodi:docname="ル.svg"
   xmlns:inkscape="http://www.inkscape.org/namespaces/inkscape"
   xmlns:sodipodi="http://sodipodi.sourceforge.net/DTD/sodipodi-0.dtd"
   xmlns:xlink="http://www.w3.org/1999/xlink"
   xmlns="http://www.w3.org/2000/svg"
   xmlns:svg="http://www.w3.org/2000/svg">
  <sodipodi:namedview
     id="namedview82339"
     pagecolor="#ffffff"
     bordercolor="#999999"
     borderopacity="1"
     inkscape:pageshadow="0"
     inkscape:pageopacity="0"
     inkscape:pagecheckerboard="0"
     inkscape:document-units="px"
     showgrid="false"
     units="px"
     inkscape:zoom="0.5"
     inkscape:cx="201"
     inkscape:cy="437"
     inkscape:window-width="1920"
     inkscape:window-height="1111"
     inkscape:window-x="-9"
     inkscape:window-y="-9"
     inkscape:window-maximized="1"
     inkscape:current-layer="svg82337"
     viewbox-width="10.5832"
     scale-x="0.26458"
     inkscape:snap-global="true"
     inkscape:snap-bbox="false"
     inkscape:snap-page="true"
     inkscape:snap-midpoints="false"
     inkscape:object-paths="false"
     inkscape:snap-others="true"
     inkscape:snap-center="true"
     inkscape:bbox-nodes="false"
     inkscape:snap-nodes="true"
     inkscape:snap-grids="false"
     inkscape:showpageshadow="0"
     inkscape:deskcolor="#d1d1d1" />
  <defs
     id="defs82334">
    <clipPath
       id="clipPath8719">
      <use
         id="clone6608"
         xlink:href="#path1" />
    </clipPath>
    <clipPath
       id="clipPath7130">
      <use
         id="clone7178"
         xlink:href="#flowRoot1" />
    </clipPath>
  </defs>
  <g
     id="g4">
    <path
       style="font-weight:600;font-size:1024px;line-height:1;font-family:'Klee One';fill:#f66d6d"
       d="m 430.928,363.456 v -7.168 q 0,-15.36 -6.144,-20.48 -6.144,-6.144 -19.456,-10.24 -7.168,-2.048 -20.48,-4.096 -12.288,-3.072 -22.528,-3.072 -12.288,0 -13.312,4.096 -1.024,2.048 -1.024,6.144 0,9.216 6.144,18.432 6.144,8.192 6.144,25.6 v 4.096 q -7.168,90.112 -29.696,163.84 -21.504,73.728 -51.2,132.096 -28.672,57.344 -59.392,98.304 -30.72,39.936 -55.296,64.512 -21.504,19.456 -21.504,33.792 0,8.192 8.192,8.192 11.264,0 31.744,-16.384 33.792,-26.624 72.704,-66.56 39.936,-40.96 76.8,-100.352 Q 369.488,634.816 396.112,553.92 423.76,472 430.928,363.456 Z"
       id="path1" />
    <path
       style="font-weight:600;font-size:1024px;line-height:1;font-family:'Klee One';fill:#f5d36c"
       d="m 521.04,794.56 v 4.096 c 0,2.048 1.70667,7.168 5.12,15.36 3.41333,8.192 8.192,16.04267 14.336,23.552 6.82667,7.50933 13.99467,11.264 21.504,11.264 3.41333,0 13.65333,-5.46133 30.72,-16.384 17.06667,-11.60533 38.22933,-27.30667 63.488,-47.104 45.77536,-36.13844 71.64059,-63.1434 146.31464,-155.85468 26.55322,-32.96705 47.44533,-66.90133 64.512,-100.352 6.82667,-12.97067 10.24,-24.576 10.24,-34.816 0,-7.50933 -2.38933,-11.264 -7.168,-11.264 -6.144,0 -16.72533,8.87467 -31.744,26.624 C 711.42976,683.84504 647.72724,706.99784 592.72,742.336 V 651.2 532.416 c 0.68267,-41.64267 1.024,-81.23733 1.024,-118.784 0.68267,-37.54667 1.024,-68.94933 1.024,-94.208 v -46.08 -21.504 c 0,-9.55733 -1.70667,-17.74933 -5.12,-24.576 -2.73067,-6.82667 -9.89867,-12.62933 -21.504,-17.408 -15.70133,-6.144 -31.06133,-9.216 -46.08,-9.216 -10.24,0 -15.36,2.048 -15.36,6.144 v 1.024 c 0,6.144 3.072,13.65333 9.216,22.528 6.144,8.87467 9.216,20.13867 9.216,33.792 v 78.848 124.928 c 0,47.78667 -0.34133,97.62133 -1.024,149.504 V 768.96 c 0,4.77867 -0.68267,9.216 -2.048,13.312 -0.68267,3.41333 -1.024,7.50933 -1.024,12.288 z"
       id="flowRoot1"
       sodipodi:nodetypes="ssscsccscsscccccscsccssssscscscs" />
  </g>
  <g
     id="g5">
    <path
       style="font-variation-settings:normal;opacity:1;vector-effect:none;fill:none;fill-opacity:1;stroke:#000000;stroke-width:128;stroke-linecap:round;stroke-linejoin:miter;stroke-miterlimit:4;stroke-dasharray:none;stroke-dashoffset:0;stroke-opacity:1;-inkscape-stroke:none;stop-color:#000000;stop-opacity:1"
       d="M 369.19553,253.33787 C 470.19883,563.71072 189.50462,834.386 189.50462,834.386"
       id="path4"
       sodipodi:nodetypes="cc"
       clip-path="url(#clipPath8719)" />
    <path
       style="font-variation-settings:normal;opacity:1;vector-effect:none;fill:none;fill-opacity:1;stroke:#000000;stroke-width:128;stroke-linecap:round;stroke-linejoin:miter;stroke-miterlimit:4;stroke-dasharray:none;stroke-dashoffset:0;stroke-opacity:1;-inkscape-stroke:none;stop-color:#000000;stop-opacity:1"
       d="m 512,133.5 c 88.49759,258.61694 -1.78796,497.66703 20,698.5 L 847.3864,539.31651"
       id="path5"
       sodipodi:nodetypes="ccc"
       clip-path="url(#clipPath7130)" />
  </g>
</svg>
