<?xml version="1.0" encoding="UTF-8" standalone="no"?>
<!-- Created with Inkscape (http://www.inkscape.org/) -->

<svg
   width="1024"
   height="1024"
   viewBox="0 0 1024 1024"
   version="2"
   id="svg82337"
   inkscape:version="1.3 (0e150ed6c4, 2023-07-21)"
   sodipodi:docname="ロ.svg"
   xmlns:inkscape="http://www.inkscape.org/namespaces/inkscape"
   xmlns:sodipodi="http://sodipodi.sourceforge.net/DTD/sodipodi-0.dtd"
   xmlns:xlink="http://www.w3.org/1999/xlink"
   xmlns="http://www.w3.org/2000/svg"
   xmlns:svg="http://www.w3.org/2000/svg">
  <sodipodi:namedview
     id="namedview82339"
     pagecolor="#ffffff"
     bordercolor="#999999"
     borderopacity="1"
     inkscape:pageshadow="0"
     inkscape:pageopacity="0"
     inkscape:pagecheckerboard="0"
     inkscape:document-units="px"
     showgrid="false"
     units="px"
     inkscape:zoom="0.5"
     inkscape:cx="349"
     inkscape:cy="757"
     inkscape:window-width="1920"
     inkscape:window-height="1111"
     inkscape:window-x="-9"
     inkscape:window-y="-9"
     inkscape:window-maximized="1"
     inkscape:current-layer="g8"
     viewbox-width="10.5832"
     scale-x="0.26458"
     inkscape:snap-global="true"
     inkscape:snap-bbox="false"
     inkscape:snap-page="true"
     inkscape:snap-midpoints="false"
     inkscape:object-paths="false"
     inkscape:snap-others="true"
     inkscape:snap-center="true"
     inkscape:bbox-nodes="false"
     inkscape:snap-nodes="true"
     inkscape:snap-grids="false"
     inkscape:showpageshadow="0"
     inkscape:deskcolor="#d1d1d1" />
  <defs
     id="defs82334">
    <clipPath
       id="clipPath9330">
      <use
         id="clone6326"
         xlink:href="#path6" />
    </clipPath>
    <clipPath
       id="clipPath6874">
      <use
         id="clone2489"
         xlink:href="#path7" />
    </clipPath>
    <clipPath
       id="clipPath644">
      <use
         id="clone4310"
         xlink:href="#flowRoot1" />
    </clipPath>
  </defs>
  <g
     id="g7">
    <path
       id="path6"
       style="font-weight:600;font-size:1024px;line-height:1;font-family:'Klee One';display:inline;fill:#f66d6d;fill-opacity:1"
       d="m 220.16016,321.53516 c -10.92265,0 -16.72554,2.73203 -17.40821,8.19336 0,4.77865 2.73008,10.23881 8.19141,16.38281 5.46132,6.14398 9.5584,11.60611 12.28906,16.38476 1.36533,2.048 2.73038,4.43732 4.0957,7.16797 1.36534,2.73067 2.3896,5.11997 3.07227,7.16797 2.048,16.38396 4.43731,37.54701 7.16797,63.48828 3.41333,25.94129 6.48419,54.27225 9.21484,84.99219 3.41333,30.03727 6.82691,60.41483 10.24024,91.13477 3.41332,30.71992 6.48614,59.39363 9.21679,86.01757 2.73067,26.62396 4.7792,48.46853 6.14454,65.53516 v 18.43164 c 0,4.096 1.36503,11.26393 4.0957,21.50391 3.41333,9.55731 8.19194,18.43302 14.33594,26.625 6.82665,8.19198 15.7004,12.28711 26.62304,12.28711 5.46133,0 10.92344,-1.70582 16.38477,-5.11914 6.14398,-3.41333 9.55757,-14.67835 10.24023,-33.79297 l -5.12109,-59.39063 c -2.73066,-27.30661 -6.14424,-57.00457 -10.24024,-89.08984 -3.41331,-32.76794 -6.82495,-65.19403 -10.23828,-97.2793 -2.73065,-32.08527 -5.80347,-61.44051 -9.21679,-88.06445 -3.03231,-42.37524 -11.55691,-116.30197 -17.40821,-125.95117 -4.77865,-7.50933 -12.28736,-12.97144 -22.52734,-16.38477 -9.55731,-4.096 -19.11455,-6.82607 -28.67188,-8.19141 -9.55731,-1.36532 -16.38448,-2.04882 -20.48046,-2.04882 z"
       sodipodi:nodetypes="scscscccsscsccsccccccccss" />
    <path
       id="path7"
       style="font-weight:600;font-size:1024px;line-height:1;font-family:'Klee One';display:inline;fill:#f5d36c;fill-opacity:1"
       d="m 735.23242,305.15234 c -17.74929,2.73067 -41.30164,5.80152 -70.65625,9.21485 -29.35461,2.73065 -61.43992,5.80347 -96.25586,9.21679 -34.81592,3.41333 -69.97406,6.82691 -105.47265,10.24024 -34.81594,2.73066 -67.24203,5.46075 -97.2793,8.1914 -30.03727,2.73067 -54.61389,4.7792 -73.72852,6.14454 -47.28625,3.60873 -22.33822,62.78251 10.24024,60.41601 38.22925,-3.41332 80.8961,-7.16767 128,-11.26367 47.1039,-4.77866 94.89014,-9.55728 143.35937,-14.33594 49.1519,-4.77865 95.91582,-9.2165 140.28907,-13.3125 -12.28798,96.93848 -22.18795,173.05568 -29.69727,228.35156 -7.50932,55.2959 -13.31222,96.59769 -17.4082,123.9043 -4.62169,36.00113 62.09802,28.55731 65.53711,4.0957 2.73065,-19.79729 6.14423,-44.03118 10.24023,-72.70312 4.77866,-28.67194 9.55728,-59.39222 14.33594,-92.16016 5.46132,-33.45059 10.58072,-66.56018 15.35937,-99.32812 5.46133,-32.76794 10.23994,-63.14744 14.33594,-91.13672 0.68267,-2.73066 1.36616,-5.11997 2.04883,-7.16797 1.36533,-2.73066 2.04687,-4.43647 2.04687,-5.11914 2.048,-4.096 3.07227,-8.19308 3.07227,-12.28906 0,-11.60531 -6.14366,-21.16255 -18.43164,-28.67188 -12.28798,-8.19198 -24.23453,-12.28711 -35.83985,-12.28711 z"
       sodipodi:nodetypes="ccscscccccsccccccccscsc" />
    <path
       id="flowRoot1"
       style="font-weight:600;font-size:1024px;line-height:1;font-family:'Klee One';display:inline;fill:#b2f46b"
       d="m 666.62305,721.91992 -327.67969,26.625 c -42.11586,3.72808 -30.09014,60.98761 5.12109,59.39063 l 362.4961,-25.59961 c 13.6533,-1.36533 24.57559,-3.07116 32.76757,-5.11914 8.192,-2.73067 12.28711,-8.53356 12.28711,-17.40821 v -3.07226 c -0.68265,-6.82666 -2.72925,-12.62954 -6.14257,-17.40821 -3.41333,-5.46131 -7.85119,-9.89917 -13.3125,-13.3125 -8.8457,-5.45137 -43.69141,-6.08671 -65.53711,-4.0957 z"
       sodipodi:nodetypes="cccccscccc" />
  </g>
  <g
     id="g8">
    <path
       style="font-variation-settings:normal;display:inline;opacity:1;vector-effect:none;fill:none;fill-opacity:1;stroke:#000000;stroke-width:128;stroke-linecap:round;stroke-linejoin:miter;stroke-miterlimit:4;stroke-dasharray:none;stroke-dashoffset:0;stroke-opacity:1;-inkscape-stroke:none;stop-color:#000000;stop-opacity:1"
       d="M 217.75,256.5 312,784.25"
       id="path8"
       sodipodi:nodetypes="cc"
       clip-path="url(#clipPath9330)" />
    <path
       style="font-variation-settings:normal;display:inline;opacity:1;vector-effect:none;fill:none;fill-opacity:1;stroke:#000000;stroke-width:128;stroke-linecap:round;stroke-linejoin:miter;stroke-miterlimit:4;stroke-dasharray:none;stroke-dashoffset:0;stroke-opacity:1;-inkscape-stroke:none;stop-color:#000000;stop-opacity:1"
       d="M 199.76598,376.51472 C 547.85133,415.56997 639.18194,270.78368 787,312 l -88.35876,372.34835"
       id="path9"
       sodipodi:nodetypes="ccc"
       clip-path="url(#clipPath6874)" />
    <path
       style="font-variation-settings:normal;opacity:1;vector-effect:none;fill:none;fill-opacity:1;stroke:#000000;stroke-width:128;stroke-linecap:round;stroke-linejoin:miter;stroke-miterlimit:4;stroke-dasharray:none;stroke-dashoffset:0;stroke-opacity:1;-inkscape-stroke:none;stop-color:#000000;stop-opacity:1"
       d="M 247.13561,783.35299 689.07556,762.43788"
       id="path10"
       sodipodi:nodetypes="cc"
       clip-path="url(#clipPath644)" />
  </g>
</svg>
