<?xml version="1.0" encoding="UTF-8" standalone="no"?>
<!-- Created with Inkscape (http://www.inkscape.org/) -->

<svg
   width="1024"
   height="1024"
   viewBox="0 0 1024 1024"
   version="2"
   id="svg82337"
   inkscape:version="1.3 (0e150ed6c4, 2023-07-21)"
   sodipodi:docname="ヲ.svg"
   xmlns:inkscape="http://www.inkscape.org/namespaces/inkscape"
   xmlns:sodipodi="http://sodipodi.sourceforge.net/DTD/sodipodi-0.dtd"
   xmlns:xlink="http://www.w3.org/1999/xlink"
   xmlns="http://www.w3.org/2000/svg"
   xmlns:svg="http://www.w3.org/2000/svg">
  <sodipodi:namedview
     id="namedview82339"
     pagecolor="#ffffff"
     bordercolor="#999999"
     borderopacity="1"
     inkscape:pageshadow="0"
     inkscape:pageopacity="0"
     inkscape:pagecheckerboard="0"
     inkscape:document-units="px"
     showgrid="false"
     units="px"
     inkscape:zoom="1"
     inkscape:cx="635.5"
     inkscape:cy="215.5"
     inkscape:window-width="1920"
     inkscape:window-height="1111"
     inkscape:window-x="-9"
     inkscape:window-y="-9"
     inkscape:window-maximized="1"
     inkscape:current-layer="svg82337"
     viewbox-width="10.5832"
     scale-x="0.26458"
     inkscape:snap-global="true"
     inkscape:snap-bbox="false"
     inkscape:snap-page="true"
     inkscape:snap-midpoints="false"
     inkscape:object-paths="false"
     inkscape:snap-others="true"
     inkscape:snap-center="true"
     inkscape:bbox-nodes="false"
     inkscape:snap-nodes="true"
     inkscape:snap-grids="false"
     inkscape:showpageshadow="0"
     inkscape:deskcolor="#d1d1d1" />
  <defs
     id="defs82334">
    <clipPath
       id="clipPath9327">
      <use
         id="clone261"
         xlink:href="#path8" />
    </clipPath>
    <clipPath
       id="clipPath4513">
      <use
         id="clone6549"
         xlink:href="#path9" />
    </clipPath>
    <clipPath
       id="clipPath3931">
      <use
         id="clone9721"
         xlink:href="#flowRoot1" />
    </clipPath>
  </defs>
  <g
     id="g9">
    <path
       style="font-weight:600;font-size:1024px;line-height:1;font-family:'Klee One';fill:#f66d6d;fill-opacity:1"
       d="m 739.65466,211.24767 c -22.53274,1.99525 -33.77733,3.451 -67.91066,6.86433 -33.45067,3.41333 -69.29067,7.168 -107.52,11.264 -38.22933,4.096 -75.776,8.192 -112.64,12.288 -36.18133,4.096 -68.608,7.85067 -97.28,11.264 -28.672,3.41333 -49.49333,5.80267 -62.464,7.168 -2.048,0 -4.43733,0.34133 -7.168,1.024 h -8.192 -8.192 c -2.048,-0.68267 -4.096,-1.024 -6.144,-1.024 -4.77867,-0.68267 -9.89867,-1.70667 -15.36,-3.072 -4.77867,-2.048 -9.216,-3.072 -13.312,-3.072 -2.73067,0 -5.12,1.024 -7.168,3.072 -1.36533,2.73067 -2.048,5.12 -2.048,7.168 0,10.92267 4.77867,22.86933 14.336,35.84 10.24,12.97067 19.11467,21.16267 26.624,24.576 2.73067,0.68267 6.82667,1.024 12.288,1.024 h 10.24 c 4.096,-0.68267 8.53333,-1.36533 13.312,-2.048 11.60533,-2.048 29.35467,-4.43733 53.248,-7.168 24.576,-3.41333 52.56533,-6.82667 83.968,-10.24 31.40267,-4.096 63.82933,-7.85067 97.28,-11.264 34.13333,-4.096 66.90133,-7.50933 98.304,-10.24 32.08533,-3.41333 60.07467,-5.80267 83.968,-7.168 50.13432,-3.86435 73.29967,-70.81386 21.83066,-66.25633 z"
       id="path8"
       sodipodi:nodetypes="scscsccccccscsccscccccccs" />
    <path
       style="font-weight:600;font-size:1024px;line-height:1;font-family:'Klee One';display:inline;fill:#f5d36c;fill-opacity:1"
       d="m 680.96,391.168 h -4.096 c -4.096,0 -9.216,0.68267 -15.36,2.048 -6.144,0.68267 -13.312,1.70667 -21.504,3.072 -71.68,10.24 -129.36533,18.09067 -173.056,23.552 -43.69067,5.46133 -77.14133,9.55733 -100.352,12.288 -23.21067,2.048 -39.59467,3.41333 -49.152,4.096 h -18.432 -11.264 c -4.096,-0.68267 -8.53333,-1.36533 -13.312,-2.048 -4.77867,-1.36533 -9.216,-2.048 -13.312,-2.048 -6.82667,0 -10.24,3.072 -10.24,9.216 0,4.096 2.38933,10.92267 7.168,20.48 4.77867,9.55733 11.264,18.432 19.456,26.624 8.192,8.192 17.06667,12.288 26.624,12.288 3.41333,0 13.99467,-1.024 31.744,-3.072 17.74933,-2.048 39.936,-4.43733 66.56,-7.168 26.624,-3.41333 54.95467,-7.168 84.992,-11.264 30.72,-4.096 60.416,-7.85067 89.088,-11.264 28.672,-3.41333 53.248,-6.48533 73.728,-9.216 46.35756,-6.58578 84.8839,-67.52463 30.72,-67.584 z"
       id="path9"
       sodipodi:nodetypes="csccscccccssssssccscc" />
    <path
       style="font-weight:600;font-size:1024px;line-height:1;font-family:'Klee One';display:inline;fill:#b2f46b"
       d="m 563.2,605.184 c -31.40267,44.37333 -63.488,83.968 -96.256,118.784 -32.768,34.816 -63.82933,64.85333 -93.184,90.112 -29.35467,25.25867 -54.95467,45.39733 -76.8,60.416 -6.82667,5.46133 -13.312,10.58133 -19.456,15.36 -5.46133,4.77867 -8.192,9.55733 -8.192,14.336 v 1.024 c 0.68267,0.68267 1.024,1.36533 1.024,2.048 0.68267,2.73067 3.41333,4.096 8.192,4.096 10.92267,0 30.37867,-6.82667 58.368,-20.48 27.98933,-14.336 61.09867,-36.18133 99.328,-65.536 38.912,-29.35467 79.18933,-66.56 120.832,-111.616 C 599.38133,667.98933 640,613.71733 678.912,550.912 717.824,487.424 751.27467,414.72 779.264,332.8 c 3.41333,-10.24 7.50933,-22.86933 12.288,-37.888 4.77867,-15.70133 8.87467,-26.96533 12.288,-33.792 2.73067,-4.77867 4.096,-9.89867 4.096,-15.36 0,-8.87467 -5.80267,-17.06667 -17.408,-24.576 -11.60533,-7.50933 -22.18679,-11.21667 -31.744,-11.264 -44.33651,-0.21957 -35.22965,45.26668 -40.96,67.584 -18.98105,72.12799 -62.54294,200.33386 -154.624,327.68 z"
       id="flowRoot1"
       sodipodi:nodetypes="cssccsccscccccccssscc" />
  </g>
  <g
     id="g10"
     style="display:inline">
    <path
       style="font-variation-settings:normal;opacity:1;vector-effect:none;fill:none;fill-opacity:1;stroke:#000000;stroke-width:128;stroke-linecap:round;stroke-linejoin:miter;stroke-miterlimit:4;stroke-dasharray:none;stroke-dashoffset:0;stroke-opacity:1;-inkscape-stroke:none;stop-color:#000000;stop-opacity:1"
       d="M 160.51324,288.49957 706.86719,242.06275"
       id="path10"
       sodipodi:nodetypes="cc"
       clip-path="url(#clipPath9327)" />
    <path
       style="font-variation-settings:normal;display:inline;opacity:1;vector-effect:none;fill:none;fill-opacity:1;stroke:#000000;stroke-width:128;stroke-linecap:round;stroke-linejoin:miter;stroke-miterlimit:4;stroke-dasharray:none;stroke-dashoffset:0;stroke-opacity:1;-inkscape-stroke:none;stop-color:#000000;stop-opacity:1"
       d="M 185.26198,470.93312 649.12403,427.7996"
       id="path11"
       sodipodi:nodetypes="cc"
       clip-path="url(#clipPath4513)" />
    <path
       style="font-variation-settings:normal;display:inline;opacity:1;vector-effect:none;fill:none;fill-opacity:1;stroke:#000000;stroke-width:128;stroke-linecap:round;stroke-linejoin:miter;stroke-miterlimit:4;stroke-dasharray:none;stroke-dashoffset:0;stroke-opacity:1;-inkscape-stroke:none;stop-color:#000000;stop-opacity:1"
       d="M 801.16715,154.41444 C 655.58407,705.38918 321.06309,872.68112 321.06309,872.68112"
       id="path12"
       sodipodi:nodetypes="cc"
       clip-path="url(#clipPath3931)" />
  </g>
</svg>
