<?xml version="1.0" encoding="UTF-8" standalone="no"?>
<!-- Created with Inkscape (http://www.inkscape.org/) -->

<svg
   width="1024"
   height="1024"
   viewBox="0 0 1024 1024"
   version="2"
   id="svg82337"
   inkscape:version="1.3 (0e150ed6c4, 2023-07-21)"
   sodipodi:docname="ン.svg"
   xmlns:inkscape="http://www.inkscape.org/namespaces/inkscape"
   xmlns:sodipodi="http://sodipodi.sourceforge.net/DTD/sodipodi-0.dtd"
   xmlns:xlink="http://www.w3.org/1999/xlink"
   xmlns="http://www.w3.org/2000/svg"
   xmlns:svg="http://www.w3.org/2000/svg">
  <sodipodi:namedview
     id="namedview82339"
     pagecolor="#ffffff"
     bordercolor="#999999"
     borderopacity="1"
     inkscape:pageshadow="0"
     inkscape:pageopacity="0"
     inkscape:pagecheckerboard="0"
     inkscape:document-units="px"
     showgrid="false"
     units="px"
     inkscape:zoom="0.5"
     inkscape:cx="617"
     inkscape:cy="447"
     inkscape:window-width="1920"
     inkscape:window-height="1111"
     inkscape:window-x="-9"
     inkscape:window-y="-9"
     inkscape:window-maximized="1"
     inkscape:current-layer="g13"
     viewbox-width="10.5832"
     scale-x="0.26458"
     inkscape:snap-global="true"
     inkscape:snap-bbox="false"
     inkscape:snap-page="true"
     inkscape:snap-midpoints="false"
     inkscape:object-paths="false"
     inkscape:snap-others="true"
     inkscape:snap-center="true"
     inkscape:bbox-nodes="false"
     inkscape:snap-nodes="true"
     inkscape:snap-grids="false"
     inkscape:showpageshadow="0"
     inkscape:deskcolor="#d1d1d1" />
  <defs
     id="defs82334">
    <clipPath
       id="clipPath6735">
      <use
         id="clone4641"
         xlink:href="#flowRoot1" />
    </clipPath>
    <clipPath
       id="clipPath3826">
      <use
         id="clone6287"
         xlink:href="#path1" />
    </clipPath>
  </defs>
  <g
     id="g12">
    <path
       style="font-weight:600;font-size:1024px;line-height:1;font-family:'Klee One';fill:#f66d6d"
       d="m 192.512,288.768 c -2.79438,4.54087 -5.12,9.55733 -5.12,16.384 0,10.92267 6.82667,19.11467 20.48,24.576 13.65333,4.77867 29.696,11.94667 48.128,21.504 19.11467,8.87467 38.57067,19.11467 58.368,30.72 20.48,10.92267 39.25333,21.84533 56.32,32.768 17.06667,10.92267 30.37867,20.13867 39.936,27.648 5.46133,4.096 11.264,6.144 17.408,6.144 12.97067,0 22.528,-6.144 28.672,-18.432 6.82667,-12.97067 10.24,-22.86933 10.24,-29.696 0,-9.55733 -5.46133,-17.74933 -16.384,-24.576 -15.01867,-10.24 -34.816,-21.504 -59.392,-33.792 -24.576,-12.97067 -49.49333,-24.91733 -74.752,-35.84 -24.576,-10.92267 -46.08,-19.79733 -64.512,-26.624 -18.432,-7.50933 -29.35467,-11.264 -32.768,-11.264 -10.24,0 -18.45743,7.20933 -26.624,20.48 z"
       id="flowRoot1"
       sodipodi:nodetypes="sscccscscsccccss" />
    <path
       style="font-weight:600;font-size:1024px;line-height:1;font-family:'Klee One';fill:#f5d36c"
       d="M 302.08,858.112 Q 411.648,815.104 505.856,757.76 600.064,700.416 675.84,638.976 q 75.776,-61.44 130.048,-116.736 54.272,-56.32 82.944,-97.28 28.672,-40.96 28.672,-55.296 0,-9.216 -8.192,-9.216 -16.384,0 -41.984,31.744 -16.384,20.48 -60.416,60.416 -43.008,38.912 -105.472,88.064 -62.464,48.128 -135.168,96.256 -72.704,48.128 -147.456,87.04 -74.752,38.912 -142.336,57.344 -10.24,3.072 -18.432,4.096 -8.192,1.024 -13.312,1.024 -8.192,0 -13.312,-1.024 -5.12,-1.024 -9.216,-1.024 -4.096,0 -9.216,3.072 -4.096,3.072 -4.096,9.216 0,10.24 9.216,27.648 10.24,16.384 24.576,29.696 14.336,13.312 26.624,13.312 13.312,0 32.768,-9.216 z"
       id="path1" />
  </g>
  <g
     id="g13">
    <path
       style="font-variation-settings:normal;opacity:1;vector-effect:none;fill:none;fill-opacity:1;stroke:#000000;stroke-width:128;stroke-linecap:round;stroke-linejoin:miter;stroke-miterlimit:4;stroke-dasharray:none;stroke-dashoffset:0;stroke-opacity:1;-inkscape-stroke:none;stop-color:#000000;stop-opacity:1"
       d="M 136.66273,255.23243 403.8312,396.44579"
       id="path12"
       sodipodi:nodetypes="cc"
       clip-path="url(#clipPath6735)" />
    <path
       style="font-variation-settings:normal;opacity:1;vector-effect:none;fill:none;fill-opacity:1;stroke:#000000;stroke-width:128;stroke-linecap:round;stroke-linejoin:miter;stroke-miterlimit:4;stroke-dasharray:none;stroke-dashoffset:0;stroke-opacity:1;-inkscape-stroke:none;stop-color:#000000;stop-opacity:1"
       d="M 145.94217,820.00732 C 486.94662,858.17264 871.15556,407.11673 871.15556,407.11673"
       id="path13"
       sodipodi:nodetypes="cc"
       clip-path="url(#clipPath3826)" />
  </g>
</svg>
