<?xml version="1.0" encoding="UTF-8" standalone="no"?>
<!-- Created with Inkscape (http://www.inkscape.org/) -->

<svg
   width="1024"
   height="1024"
   viewBox="0 0 1024 1024"
   version="2"
   id="svg82337"
   inkscape:version="1.3 (0e150ed6c4, 2023-07-21)"
   sodipodi:docname="ー.svg"
   xmlns:inkscape="http://www.inkscape.org/namespaces/inkscape"
   xmlns:sodipodi="http://sodipodi.sourceforge.net/DTD/sodipodi-0.dtd"
   xmlns:xlink="http://www.w3.org/1999/xlink"
   xmlns="http://www.w3.org/2000/svg"
   xmlns:svg="http://www.w3.org/2000/svg">
  <sodipodi:namedview
     id="namedview82339"
     pagecolor="#ffffff"
     bordercolor="#999999"
     borderopacity="1"
     inkscape:pageshadow="0"
     inkscape:pageopacity="0"
     inkscape:pagecheckerboard="0"
     inkscape:document-units="px"
     showgrid="false"
     units="px"
     inkscape:zoom="0.5"
     inkscape:cx="653"
     inkscape:cy="839"
     inkscape:window-width="1920"
     inkscape:window-height="1111"
     inkscape:window-x="-9"
     inkscape:window-y="-9"
     inkscape:window-maximized="1"
     inkscape:current-layer="svg82337"
     viewbox-width="10.5832"
     scale-x="0.26458"
     inkscape:snap-global="true"
     inkscape:snap-bbox="false"
     inkscape:snap-page="true"
     inkscape:snap-midpoints="false"
     inkscape:object-paths="false"
     inkscape:snap-others="true"
     inkscape:snap-center="true"
     inkscape:bbox-nodes="false"
     inkscape:snap-nodes="true"
     inkscape:snap-grids="false"
     inkscape:showpageshadow="0"
     inkscape:deskcolor="#d1d1d1" />
  <defs
     id="defs82334">
    <clipPath
       id="clipPath9557">
      <use
         id="clone7993"
         xlink:href="#flowRoot1" />
    </clipPath>
  </defs>
  <g
     id="g17">
    <path
       style="font-weight:600;font-size:1024px;line-height:1;font-family:'Klee One';fill:#f66d6d"
       d="m 808.96,504.832 h -3.072 q -155.648,5.12 -310.272,15.36 -153.6,10.24 -296.96,18.432 h -4.096 q -10.24,0 -21.504,-1.024 -10.24,-2.048 -17.408,-2.048 -15.36,0 -15.36,16.384 0,5.12 5.12,18.432 5.12,12.288 17.408,23.552 12.288,11.264 33.792,11.264 5.12,0 10.24,0 5.12,0 11.264,-1.024 118.784,-10.24 278.528,-19.456 159.744,-10.24 344.064,-11.264 17.408,0 33.792,-9.216 17.408,-9.216 17.408,-22.528 0,-12.288 -16.384,-20.48 -15.36,-8.192 -34.816,-12.288 -19.456,-4.096 -31.744,-4.096 z"
       id="flowRoot1" />
  </g>
  <g
     id="g18">
    <path
       style="font-variation-settings:normal;opacity:1;vector-effect:none;fill:none;fill-opacity:1;stroke:#000000;stroke-width:128;stroke-linecap:round;stroke-linejoin:miter;stroke-miterlimit:4;stroke-dasharray:none;stroke-dashoffset:0;stroke-opacity:1;-inkscape-stroke:none;stop-color:#000000;stop-opacity:1"
       d="M 74.953317,570.63517 829.02814,546.47222"
       id="path17"
       sodipodi:nodetypes="cc"
       clip-path="url(#clipPath9557)" />
  </g>
</svg>
