<svg data-strokesvg="ã" viewBox="0 0 1024 1024" xmlns="http://www.w3.org/2000/svg">
  <defs>
    <clipPath id="3041e">
      <use href="#3041a"/>
    </clipPath>
    <clipPath id="3041f">
      <use href="#3041b"/>
    </clipPath>
    <clipPath id="3041g">
      <use href="#3041c"/>
    </clipPath>
    <clipPath id="3041h">
      <use href="#3041d"/>
    </clipPath>
  </defs>
  <g data-strokesvg="shadows" style="fill:var(--shadow,#ccc)">
    <path id="3041a" d="m369 457-54 4h-12l-12-2q-15-6-22-6-6 0-6 6 0 9 5 19 9 22 20 27 11 4 28 4a1513 1513 0 0 0 339-56q19-7 23-13 4-4 4-9t-5-12l-18-16a32 32 0 0 0-26-5l-8 4-10 5q-27 10-61 19c-55 14-130 25-185 31"/>
    <path id="3041b" d="m443 315-7 2-2 6 2 8q4 3 4 7 3 8 3 17v4l-6 32c-10 62-39 263-39 311l2 41c7 60 16 100 28 135q6 12 17 13h5l6-2q25-9 25-31 0-4-2-10l-9-27q-16-65-17-131c-1-51 8-102 15-153q11-70 26-140l10-53q0-7-11-13-10-6-25-10-13-6-25-6"/>
    <g>
      <path id="3041c" d="M583 497q-9 0-12 4l-2 6 1 4 1 4v6l1 7-1 13q-18 71-62 129a898 898 0 0 1-193 179q-1 2-7 2-7 0-8-4l-9-24c-5-19-59 0-50 30q8 24 22 42 15 16 32 16 11 0 32-12l45-29c32-22 106-80 170-168 63-84 86-156 86-168q0-9-5-16-20-21-41-21"/>
      <path id="3041d" d="M509 564c-61 17-109 33-163 79a536 536 0 0 0-106 127q-6 12-7 33 0 24 9 50c7 19 59-4 50-30q-4-13-4-24 0-22 28-61c89-123 274-168 357-120q24 14 36 32t15 35l3 26q0 43-24 82-22 36-61 67-37 31-84 55-45 26-91 48-17 6-17 16-1 11 20 11 14 0 47-11a630 630 0 0 0 160-81q41-30 69-65 30-37 35-79l3-40q0-72-43-111c-74-70-202-47-232-39"/>
    </g>
  </g>
  <g data-strokesvg="strokes" style="stroke:var(--stroke,#000);fill:none;stroke-width:128;stroke-linecap:round">
    <path style="--i:0" d="m198 472 422-34" clip-path="url(#3041e)"/>
    <path style="--i:1" d="m443 249 3 580" clip-path="url(#3041f)"/>
    <g style="--i:2">
      <path d="M588 432c46 194-251 554-315 464-81-112 55-311 266-319 381-14 223 330-31 382" clip-path="url(#3041g)"/>
      <path d="M273 1523V896c-81-112 55-311 266-319 381-14 223 330-31 382" clip-path="url(#3041h)"/>
    </g>
  </g>
</svg>
