<svg data-strokesvg="ã" viewBox="0 0 1024 1024" xmlns="http://www.w3.org/2000/svg">
  <defs>
    <clipPath id="3041e">
      <use href="#3041a"/>
    </clipPath>
    <clipPath id="3041f">
      <use href="#3041b"/>
    </clipPath>
    <clipPath id="3041g">
      <use href="#3041c"/>
    </clipPath>
    <clipPath id="3041h">
      <use href="#3041d"/>
    </clipPath>
  </defs>
  <g data-strokesvg="shadows" style="fill:var(--shadow,#ccc)">
    <path id="3041a" d="m369 457-54 4h-12l-12-2c-10-4-18-6-22-6s-6 2-6 6c0 6 2 12 5 19 6 15 12 23 20 27 7 3 17 4 28 4a1513 1513 0 0 0 339-56c13-5 20-9 23-13 3-3 4-6 4-9s-2-7-5-12l-18-16a32 32 0 0 0-26-5l-8 4-10 5c-18 6-38 13-61 19-55 14-130 25-185 31z"/>
    <path id="3041b" d="m443 315-7 2-2 6 2 8c2 2 4 4 4 7 2 5 3 11 3 17v4l-6 32c-10 62-39 263-39 311l2 41c7 60 16 100 28 135 4 8 10 13 17 13h5l6-2c17-6 25-17 25-31 0-3 0-6-2-10l-9-27c-10-43-17-87-17-131-1-51 8-102 15-153 7-47 16-93 26-140a2171 2171 0 0 1 10-53c0-5-4-9-11-13s-15-8-25-10c-9-4-17-6-25-6z"/>
    <g>
      <path id="3041c" d="M583 497c-6 0-10 1-12 4l-2 6 1 4 1 4v6l1 7-1 13c-11 47-33 90-62 129a898 898 0 0 1-193 179c-1 1-3 2-7 2-5 0-7-1-8-4l-9-24c-5-19-59 0-50 30 5 16 13 30 22 42 10 11 20 16 32 16 7 0 18-4 32-12l45-29c32-22 106-80 170-168 63-84 86-156 86-168 0-6-2-11-5-16-13-14-27-21-41-21z"/>
      <path id="3041d" d="M509 564c-61 17-109 33-163 79a536 536 0 0 0-106 127c-4 8-7 19-7 33 0 16 3 33 9 50 7 19 59-4 50-30-3-9-4-17-4-24 0-15 9-35 28-61 89-123 274-168 357-120 16 9 28 20 36 32s13 23 15 35l3 26c0 29-8 56-24 82-15 24-35 47-61 67a1281 1281 0 0 1-175 102c-12 5-17 11-17 17 0 7 6 11 20 11 9 0 25-4 47-11a630 630 0 0 0 160-81c27-20 50-42 69-65 20-25 31-51 35-79l3-40c0-48-14-85-43-111-74-70-202-47-232-39Z"/>
    </g>
  </g>
  <g data-strokesvg="strokes" style="stroke:var(--stroke,#000);fill:none;stroke-width:128;stroke-linecap:round">
    <path style="--i:0" d="m198 472 422-34" clip-path="url(#3041e)"/>
    <path style="--i:1" d="m443 249 3 580" clip-path="url(#3041f)"/>
    <g style="--i:2">
      <path d="M588 432c46 194-251 554-315 464-81-112 55-311 266-319 381-14 223 330-31 382" clip-path="url(#3041g)"/>
      <path d="M273 1523V896c-81-112 55-311 266-319 381-14 223 330-31 382" clip-path="url(#3041h)"/>
    </g>
  </g>
</svg>
