<svg xmlns="http://www.w3.org/2000/svg" version="2" viewBox="0 0 1024 1024" data-strokesvg="ã‚">
  <defs>
    <clipPath id="3042e">
      <use href="#3042a"/>
    </clipPath>
    <clipPath id="3042f">
      <use href="#3042b"/>
    </clipPath>
    <clipPath id="3042g">
      <use href="#3042c"/>
    </clipPath>
    <clipPath id="3042h">
      <use href="#3042d"/>
    </clipPath>
  </defs>
  <g data-strokesvg="shadows" style="fill:var(--shadow,#ccc)">
    <path id="3042a" d="M415 271a2199 2199 0 0 1-156 15h-22l-10-2c-7-3-14-4-19-4-8 0-12 3-12 10 0 3 1 7 3 10l6 12c4 7 10 14 17 22 8 7 17 10 29 10h10a1348 1348 0 0 0 145-13l63-10a2205 2205 0 0 0 237-56c23-7 34-15 34-24l-1-3v-2c0-5-6-11-16-19-10-7-21-11-33-11h-6c-5 1-9 2-12 5l-10 6c-19 7-45 14-77 23l-106 21z"/>
    <path id="3042b" d="M435 97c-7 0-11 2-12 5v2c0 3 1 7 4 11a46 46 0 0 1 7 21l1 6v5l-20 124-9 60a18871 18871 0 0 0-20 140l-7 65-2 22v24a1034 1034 0 0 0 9 123l13 67a1078 1078 0 0 0 15 58c4 12 11 18 20 18l10-2c7-2 14-6 20-11 7-7 10-16 10-29l-1-8-11-32c-4-12-8-26-11-42l-11-72-3-35a744 744 0 0 1 3-111l7-57a13288 13288 0 0 0 22-128l10-60a16072 16072 0 0 1 26-125c0-8-4-14-10-19-7-5-15-9-24-12l-25-6-11-2z"/>
    <g>
      <path id="3042c" d="m614 330-5 1c-2 2-4 5-4 8l1 8 2 7 1 8 1 7-1 5v4a220 220 0 0 1-7 34l-21 54a908 908 0 0 1-140 186l-41 39 37 46 14-13c42-40 81-83 116-128 36-46 63-90 82-132l20-53 4-19 2-16v-6l-2-8c-2-4-6-8-14-13-7-5-15-10-24-13-8-4-15-6-21-6z"/>
      <path id="3042d" d="m669 411-67 1a512 512 0 0 0-155 37l-61 22c-19 10-40 23-62 41a615 615 0 0 0-125 125c-17 21-28 40-35 57-5 12-7 26-7 41a274 274 0 0 0 17 81c6 16 14 29 24 41 10 11 22 16 36 16 11 0 25-4 42-14a1158 1158 0 0 0 123-87l38-35-37-46-14 14a1168 1168 0 0 1-125 98c-4 3-8 5-12 5l-4-2-3-3a135 135 0 0 1-23-75v-8l2-8c6-19 18-39 36-61a643 643 0 0 1 122-115l61-30a409 409 0 0 1 141-40l68-2c12 1 26 3 44 7 18 3 35 10 52 21 18 10 33 25 45 47a169 169 0 0 1 17 100l-1 16c-4 28-14 54-32 80-17 25-39 50-65 73a706 706 0 0 1-173 114c-29 15-54 26-76 34-17 7-26 14-26 23 0 6 6 9 17 9l35-8a834 834 0 0 0 173-68c35-17 67-37 98-60 31-24 57-51 79-81a232 232 0 0 0 44-146c0-22-3-44-10-67a175 175 0 0 0-96-120c-27-15-62-24-105-27z"/>
    </g>
  </g>
  <g data-strokesvg="strokes" style="stroke:var(--stroke,#000);fill:none;stroke-width:128;stroke-linecap:round">
    <path style="--i:0" d="m114 328 574-82" clip-path="url(#3042e)"/>
    <path style="--i:1" d="M483 37c-43 251-123 572-44 758" clip-path="url(#3042f)"/>
    <g style="--i:2">
      <path d="M690 277 517 613s-27 65-139 155c-16 12-126 106-186 31-87-110 153-394 448-362 249 27 202 192 154 312-50 125-143 163-325 202" clip-path="url(#3042g)"/>
      <path d="m591 802 95-187-169-2s-27 65-139 155c-16 12-126 106-186 31-87-110 153-394 448-362 249 27 202 192 154 312-50 125-143 163-325 202" clip-path="url(#3042h)"/>
    </g>
  </g>
</svg>
