<svg data-strokesvg="ã‚" viewBox="0 0 1024 1024" xmlns="http://www.w3.org/2000/svg">
  <defs>
    <clipPath id="3042e">
      <use href="#3042a"/>
    </clipPath>
    <clipPath id="3042f">
      <use href="#3042b"/>
    </clipPath>
    <clipPath id="3042g">
      <use href="#3042c"/>
    </clipPath>
    <clipPath id="3042h">
      <use href="#3042d"/>
    </clipPath>
  </defs>
  <g data-strokesvg="shadows" style="fill:var(--shadow,#ccc)">
    <path id="3042a" d="M415 271a2199 2199 0 0 1-156 15h-22l-10-2q-11-4-19-4-12 0-12 10 0 5 3 10l6 12q6 10 17 22 11 10 29 10h10a1348 1348 0 0 0 145-13l63-10a2205 2205 0 0 0 237-56q34-10 34-24l-1-3v-2q-1-7-16-19-15-11-33-11h-6q-8 1-12 5l-10 6q-29 10-77 23l-106 21z"/>
    <path id="3042b" d="M435 97q-10 0-12 5v2q0 5 4 11a46 46 0 0 1 7 21l1 6v5l-20 124-9 60-20 140-7 65-2 22v24a1034 1034 0 0 0 9 123l13 67 15 58q6 18 20 18l10-2q11-3 20-11 10-10 10-29l-1-8-11-32q-6-18-11-42l-11-72-3-35a744 744 0 0 1 3-111l7-57 22-128 10-60 26-125q0-12-10-19-11-7-24-12l-25-6z"/>
    <g>
      <path id="3042c" d="m614 330-5 1q-4 3-4 8l1 8 2 7 1 8 1 7-1 5v4l-7 34-21 54q-24 48-62 96-36 48-79 90l-40 39 37 46 14-13q63-60 116-128 54-69 82-132l20-53 4-19 2-16v-6l-2-8q-2-6-14-13-10-8-24-13-12-6-21-6"/>
      <path id="3042d" d="m669 411-67 1a512 512 0 0 0-155 37l-61 22q-29 14-62 41-34 27-68 59-33 33-57 66-25 32-35 57-7 18-7 41 0 12 4 34 4 23 13 47t24 41 36 16q17 1 42-14 28-15 61-39 33-23 62-48l38-35-37-46-14 14a1168 1168 0 0 1-125 98q-6 5-12 5l-4-2-3-3q-9-16-17-36-6-21-6-39v-8l2-8q9-28 36-61a643 643 0 0 1 122-115l61-30a409 409 0 0 1 141-40l68-2q17 1 44 7 27 4 52 21 27 15 45 47a169 169 0 0 1 17 100l-1 16q-5 42-32 80-26 38-65 73a706 706 0 0 1-173 114q-43 22-76 34-26 10-26 23 0 9 17 9l35-8a834 834 0 0 0 173-68q52-25 98-60 46-36 79-81a232 232 0 0 0 44-146q0-33-10-67-8-36-31-66-23-32-65-54-41-22-105-27"/>
    </g>
  </g>
  <g data-strokesvg="strokes" style="stroke:var(--stroke,#000);fill:none;stroke-width:128;stroke-linecap:round">
    <path style="--i:0" d="m114 328 574-82" clip-path="url(#3042e)"/>
    <path style="--i:1" d="M483 37c-43 251-123 572-44 758" clip-path="url(#3042f)"/>
    <g style="--i:2">
      <path d="M690 277 517 613s-27 65-139 155c-16 12-126 106-186 31-87-110 153-394 448-362 249 27 202 192 154 312-50 125-143 163-325 202" clip-path="url(#3042g)"/>
      <path d="m591 802 95-187-169-2s-27 65-139 155c-16 12-126 106-186 31-87-110 153-394 448-362 249 27 202 192 154 312-50 125-143 163-325 202" clip-path="url(#3042h)"/>
    </g>
  </g>
</svg>
