<svg xmlns="http://www.w3.org/2000/svg" version="2" viewBox="0 0 1024 1024">
  <defs>
    <clipPath id="3042e">
      <use href="#3042a"/>
    </clipPath>
    <clipPath id="3042f">
      <use href="#3042b"/>
    </clipPath>
    <clipPath id="3042g">
      <use href="#3042c"/>
    </clipPath>
    <clipPath id="3042h">
      <use href="#3042d"/>
    </clipPath>
  </defs>
  <g style="fill:#ccc">
    <path id="3042a" d="M317 217q91 0 179-5t169-15q82-11 153-27l1 76q-55 9-120 17l-130 14-131 8q-64 3-122 3l-52-1-61-3-52-3-3-77 51 6 64 5 54 2z"/>
    <path id="3042b" d="M483 90q-4 9-7 23l-5 23q-8 42-16 107-9 64-14 138-5 73-5 143 0 66 8 128 10 63 23 120 14 56 30 105l-74 22q-15-46-29-106-13-62-21-128-8-68-8-132 0-54 3-109l9-108 9-99 9-80 2-26V88z"/>
    <path id="3042c" d="m744 337-7 17a396 396 0 0 1-13 41 1023 1023 0 0 1-167 313 538 538 0 0 1-212 165c-39 17-76 25-113 25-21 0-42-5-60-14-18-10-33-24-44-43s-16-43-16-72c0-35 7-69 22-103 15-35 36-68 62-99a514 514 0 0 1 191-138l26 63c-38 17-89 46-121 74-32 29-56 60-75 93-18 33-28 65-28 97 0 21 5 37 15 48 10 10 25 15 44 15 25 0 53-7 85-21 32-15 65-36 98-66a741 741 0 0 0 221-356 400 400 0 0 0 12-60z"/>
    <path id="3042d" d="M387 429c34-13 77-25 116-33 39-7 76-11 108-11 65 0 121 11 168 34 47 22 84 53 109 92 26 38 39 81 39 129a289 289 0 0 1-79 198c-27 27-61 51-104 70-42 20-93 35-152 44l-44-68c62-6 115-21 160-43 44-23 78-51 103-86s37-75 37-119c0-34-9-64-28-92-18-28-45-51-81-68-34-18-77-26-129-26a446 446 0 0 0-197 42z"/>
  </g>
  <g style="fill:none;stroke:#000;stroke-width:128">
    <path style="--i:0" d="m122 246 325 7 396-51" clip-path="url(#3042e)"/>
    <path style="--i:1" d="m445 64-38 340-4 234 68 274" clip-path="url(#3042f)"/>
    <path style="--i:2" d="m709 320-99 268-184 211-217 76-73-96 83-202 210-139 285-4 191 130-62 252-283 119" clip-path="url(#3042g)"/>
    <path style="--i:2" d="m127 329 194 211 105 259-217 76-73-96 83-202 210-139 285-4 191 130-62 252-283 119" clip-path="url(#3042h)"/>
  </g>
</svg>
