<svg data-strokesvg="ãƒ" viewBox="0 0 1024 1024" xmlns="http://www.w3.org/2000/svg">
  <defs>
    <clipPath id="3043c">
      <use href="#3043a"/>
    </clipPath>
    <clipPath id="3043d">
      <use href="#3043b"/>
    </clipPath>
  </defs>
  <g data-strokesvg="shadows" style="fill:var(--shadow,#ccc)">
    <path id="3043a" d="M239 463v3q0 7 6 15 7 7 8 17l2 46 4 50q8 107 28 171 19 62 42 94t44 42q20 9 29 9 13 0 17-6t10-35l7-35 13-44 12-41 7-25q4-11 4-22 0-15-9-15-10 0-19 22l-14 27-22 46-23 47q-17-15-31-44-12-29-20-64-8-36-12-71l-7-63-2-40v-28l1-23-2-16q-2-9-12-13-13-5-26-7-11-3-19-3-14 0-16 6z"/>
    <path id="3043b" d="M820 749a494 494 0 0 0-118-217c-15-16-27-24-36-24-7 0-14 3-21 9-6 6-9 12-9 18 0 5 4 11 13 18 15 12 30 30 44 53a517 517 0 0 1 70 155c3 12 10 18 21 18 7 0 14-2 23-8s14-14 13-22z"/>
  </g>
  <g data-strokesvg="strokes" style="stroke:var(--stroke,#000);fill:none;stroke-width:128;stroke-linecap:round">
    <path style="--i:0" d="M247 392s25 464 117 509l78-156" clip-path="url(#3043c)"/>
    <path style="--i:1" d="m617 457 154 263" clip-path="url(#3043d)"/>
  </g>
</svg>
