<svg xmlns="http://www.w3.org/2000/svg" version="2" viewBox="0 0 1024 1024" data-strokesvg="ã„">
  <defs>
    <clipPath id="3044c">
      <use href="#3044a"/>
    </clipPath>
    <clipPath id="3044d">
      <use href="#3044b"/>
    </clipPath>
  </defs>
  <g>
    <path id="3044a" d="m228 186-4 31-3 37-1 32-1 72 2 84 6 86q9 85 28 150 19 63 47 99 29 36 65 36 19 0 37-17 19-19 35-48 18-31 31-68 14-38 24-76l64 73q-31 87-62 138-31 50-64 73-32 22-66 22-49 0-94-34-45-36-77-115-33-80-48-212-5-45-8-97l-3-100v-77l-1-45q-1-27-6-46z"/>
    <path id="3044b" d="M762 215q28 35 52 82 26 46 46 99 22 53 38 109 17 56 28 112t16 107l-82 34q-6-70-21-142-16-72-38-140-23-68-52-129-30-60-67-104Z"/>
  </g>
  <g style="fill:none;stroke-width:128">
    <path style="--i:0" d="m177 173 16 447 88 213 82 34 88-51 94-205" clip-path="url(#3044c)"/>
    <path style="--i:1" d="m713 213 139 260 57 288" clip-path="url(#3044d)"/>
  </g>
</svg>
