<svg data-strokesvg="ã…" viewBox="0 0 1024 1024" xmlns="http://www.w3.org/2000/svg">
  <defs>
    <clipPath id="3045c">
      <use href="#3045a"/>
    </clipPath>
    <clipPath id="3045d">
      <use href="#3045b"/>
    </clipPath>
  </defs>
  <g data-strokesvg="shadows" style="fill:var(--shadow,#ccc)">
    <path id="3045a" d="M416 379q45 11 91 27 47 14 78 28 5 3 11 3 10 0 15-8 6-8 9-17l2-13q0-14-19-22-24-11-57-21-32-9-65-16-31-8-56-12l-8-1q-11 0-20 20l-2 6v4q0 10 6 15 7 5 15 7z"/>
    <path id="3045b" d="M624 633v16q0 59-21 102-20 43-54 75-33 32-73 57-39 24-77 45-24 13-24 23 0 12 17 12 9 0 23-6 50-18 98-44 49-25 88-60 39-36 62-84t23-112q0-76-29-126-28-49-98-49l-14 1-13 1q-53 8-99 28t-91 33l-8 2h-17l-6-1q-6 0-10 2l-2 4 5 15q6 13 18 25t30 12q9 0 22-6 41-18 75-35t85-25l11-1 11-1q28 0 45 20 19 19 23 77z"/>
  </g>
  <g data-strokesvg="strokes" style="stroke:var(--stroke,#000);fill:none;stroke-width:128;stroke-linecap:round">
    <path style="--i:0" d="m336 323 224 73" clip-path="url(#3045c)"/>
    <path style="--i:1" d="M234 558c177 37 342-130 416 33 93 206-216 345-216 345" clip-path="url(#3045d)"/>
  </g>
</svg>
