<svg xmlns="http://www.w3.org/2000/svg" version="2" viewBox="0 0 1024 1024">
  <defs>
    <clipPath id="3046c">
      <use href="#3046a"/>
    </clipPath>
    <clipPath id="3046d">
      <use href="#3046b"/>
    </clipPath>
  </defs>
  <g style="fill:#ccc">
    <path id="3046a" d="M307 99q42 10 101 18l121 15 119 10q57 4 94 4l-12 79-100-7-118-11-118-14-100-16Z"/>
    <path id="3046b" d="M737 560q0-43-22-76t-62-52q-39-19-91-19-59 0-111 9-53 9-96 21l-72 21-46 15q-22 8-40 17l-27-96 46-6 48-9 85-19q49-12 106-21t115-9q73 0 130 26 58 27 91 78 33 50 33 123 0 84-34 150-35 64-99 112-62 47-147 79t-185 46l-46-78q93-11 170-35 78-26 134-64 58-38 89-91t31-122z"/>
  </g>
  <g style="fill:none;stroke:#000;stroke-width:128">
    <path style="--i:0" d="m288 139 459 50" clip-path="url(#3046c)"/>
    <path style="--i:1" d="m168 455 355-88 219 55 49 191-119 187-349 123" clip-path="url(#3046d)"/>
  </g>
</svg>
