<svg data-strokesvg="ã†" viewBox="0 0 1024 1024" xmlns="http://www.w3.org/2000/svg">
  <defs>
    <clipPath id="3046c">
      <use href="#3046a"/>
    </clipPath>
    <clipPath id="3046d">
      <use href="#3046b"/>
    </clipPath>
  </defs>
  <g data-strokesvg="shadows" style="fill:var(--shadow,#ccc)">
    <path id="3046a" d="M403 130h-6q-15 0-21 13-6 14-6 18 0 14 21 19 59 11 119 35 60 23 100 41l6 2h6q17 0 25-14 9-16 9-25 0-16-24-26-30-14-71-26-40-13-82-23-41-10-76-14z"/>
    <path id="3046b" d="M380 963q66-25 130-60 63-35 116-84 52-49 83-114 30-67 30-154 0-65-14-106-13-41-35-63-21-24-46-34-23-10-44-12l-32-2-16 1-15 1q-69 7-122 30-54 21-111 37l-8 3h-22l-11-2q-6 0-10 3t-4 8q0 6 12 20 12 15 29 27t28 12q8 0 14-3l12-6q93-51 149-63 55-11 72-11l24 3q16 3 35 18 18 14 30 49 14 34 14 95 0 75-28 134t-74 104q-45 45-98 79-53 35-106 63-24 13-24 23t16 10q11 0 26-6z"/>
  </g>
  <g data-strokesvg="strokes" style="stroke:var(--stroke,#000);fill:none;stroke-width:128;stroke-linecap:round">
    <path style="--i:0" d="m304 127 300 92" clip-path="url(#3046c)"/>
    <path style="--i:1" d="M190 492s410-265 493-47c97 256-113 364-298 493" clip-path="url(#3046d)"/>
  </g>
</svg>
