<svg data-strokesvg="ã‡" viewBox="0 0 1024 1024" xmlns="http://www.w3.org/2000/svg">
  <defs>
    <clipPath id="3047c">
      <use href="#3047a"/>
    </clipPath>
    <clipPath id="3047d">
      <use href="#3047b"/>
    </clipPath>
  </defs>
  <g data-strokesvg="shadows" style="fill:var(--shadow,#ccc)">
    <path id="3047a" d="M580 460c8 0 14-3 17-8 3-6 5-11 6-17l2-11c0-10-5-17-16-22a1197 1197 0 0 0-170-56c-7 0-13 6-20 16-2 6-4 7-4 14 0 9 7 15 21 19a616 616 0 0 1 115 44l35 17c6 3 7 4 14 4z"/>
    <path id="3047b" d="M782 916v-1q0-11-12-22t-27-14l-5-1h-4q-7 0-13 2l-13 3-45 7q-19 2-39 2-30 0-46-3-17-4-26-24-10-22-16-44l-11-34q-8-25-22-38-15-15-36-15-11 0-21 3l82-97 73-80q7-7 11-14 5-7 5-15 0-5-3-11-12-20-33-20l-10 1-21 6-54 14-69 18-63 14q-28 6-39 6h-13l-8-1q-8 0-8 5 0 7 10 23 11 14 21 22 4 4 11 4l12-2 14-3 85-22q40-12 74-20l-56 68-69 84-74 89q-37 44-72 81-5 6-5 17 0 7 5 21 5 13 24 13 20 0 33-20l31-42q18-24 39-46 20-21 41-34 20-15 37-15 11 0 14 7 8 20 13 43 6 23 14 45 16 46 46 59 29 13 70 13 32 0 66-3l63-7q20-2 29-7 9-4 10-15z"/>
  </g>
  <g data-strokesvg="strokes" style="stroke:var(--stroke,#000);fill:none;stroke-width:128;stroke-linecap:round">
    <path style="--i:0" d="m337 339 207 80" clip-path="url(#3047c)"/>
    <path style="--i:1" d="M231 565c112 20 234-64 396-93-243 207-268 273-399 474 0 0 201-250 253-182 55 71 5 202 278 158" clip-path="url(#3047d)"/>
  </g>
</svg>
