<svg xmlns="http://www.w3.org/2000/svg" version="2" viewBox="0 0 1024 1024" data-strokesvg="ãˆ">
  <defs>
    <clipPath id="3048c">
      <use href="#3048a"/>
    </clipPath>
    <clipPath id="3048d">
      <use href="#3048b"/>
    </clipPath>
  </defs>
  <g data-strokesvg="shadows" style="fill:var(--shadow,#ccc)">
    <path id="3048a" d="M612 287q13 0 18-8 6-10 7-20l2-16q0-9-4-15-3-6-14-11-11-6-35-15l-54-20-58-19-50-15q-21-6-27-6-9 0-17 14-8 12-8 20 0 14 22 22 24 7 53 19 30 11 60 25l53 23q25 11 36 18 8 4 16 4z"/>
    <path id="3048b" d="M871 895v-1q0-12-13-26-12-13-34-17l-8-1q-9 0-16 3l-16 4-75 10q-42 6-75 6h-8l-8-1q-19-2-34-14-16-13-21-25-12-28-20-59t-14-44q-11-34-27-52-17-19-44-19-14 0-26 5l-24 10 66-77 66-74q31-36 56-62l38-40q22-21 22-38 0-12-16-24-16-11-34-11l-8 1-30 8-64 17-79 20-75 19-48 10-17 2h-30l-10-1q-11 0-11 6 0 10 11 25 10 13 24 23 15 10 27 10l12-2 14-4 79-21 81-24 70-18-50 58-71 84-79 94-77 90-62 74-36 41q-11 12-11 25 0 16 15 26 16 11 26 11 18 0 37-24 14-17 21-32 7-14 24-31l21-24 40-42q24-24 47-40 25-16 43-16 19 0 26 15 11 24 19 56l17 58q17 46 43 65 25 20 51 24 27 4 47 4 45 0 95-5l89-9q24-2 33-9 10-6 11-17z"/>
  </g>
  <g data-strokesvg="strokes" style="stroke:var(--stroke,#000);fill:none;stroke-width:128;stroke-linecap:round">
    <path style="--i:0" d="m312 135 278 111" clip-path="url(#3048c)"/>
    <path style="--i:1" d="M166 492c160-52 493-202 467-142-51 113-224 213-273 282-124 162-195 294-195 294s170-275 296-234c113 37-27 288 358 200" clip-path="url(#3048d)"/>
  </g>
</svg>
