<svg xmlns="http://www.w3.org/2000/svg" version="2" viewBox="0 0 1024 1024">
  <defs>
    <clipPath id="3048c">
      <use href="#3048a"/>
    </clipPath>
    <clipPath id="3048d">
      <use href="#3048b"/>
    </clipPath>
  </defs>
  <g style="fill:#ccc">
    <path id="3048b" d="m744 386-30 24q-17 13-26 22l-42 38-55 52-55 52-40 40h19q12 0 21 2 29 4 48 23t29 51l11 35 12 42 11 38q10 29 30 42 19 13 59 13l70-2q36-3 67-8l57-10-5 86-57 6q-34 4-71 6-36 3-65 3-61 0-100-18-38-19-54-69l-13-38-12-46-10-37q-9-26-26-40-15-14-37-14-21 0-40 10-18 9-36 27l-30 30q-20 19-43 45l-47 52q-25 26-47 53-23 26-40 48l-78-54 22-20 29-26 38-38 66-68 84-83 88-88 81-82 64-63-57 4-71 5-73 6-66 5-49 4-46 6-36 5-8-90 40 2h47l54-2 81-6 92-6 85-7 62-6 28-5 21-6z"/>
    <path id="3048a" d="m319 93 97 19 111 16 109 12 88 7-11 76-89-9-106-13-110-16-102-17z"/>
  </g>
  <g style="fill:none;stroke:#000;stroke-width:128">
    <path style="--i:0" d="m302 130 426 57" clip-path="url(#3048c)"/>
    <path style="--i:1" d="m171 407 648-77-374 244-299 356 319-280 96 15 65 203 98 40 224-28" clip-path="url(#3048d)"/>
  </g>
</svg>
