<svg data-strokesvg="ã‰" viewBox="0 0 1024 1024" xmlns="http://www.w3.org/2000/svg">
  <defs>
    <clipPath id="3049e">
      <use href="#3049a"/>
    </clipPath>
    <clipPath id="3049f">
      <use href="#3049b"/>
    </clipPath>
    <clipPath id="3049g">
      <use href="#3049c"/>
    </clipPath>
    <clipPath id="3049h">
      <use href="#3049d"/>
    </clipPath>
  </defs>
  <g data-strokesvg="shadows" style="fill:var(--shadow,#ccc)">
    <path id="3049a" d="M319 528q-26 6-43 7h-2q-6 0-15-4l-12-3q-5-2-6 9 0 9 9 20 9 12 20 20 13 7 22 7l7-1q117-22 231-55 33-9 41-17 11-7 11-13 0-16-11-22-9-6-20-7l-14-2h-7l-10 4-7 4q-15 8-37 14-78 24-157 39"/>
    <g>
      <path id="3049b" d="M376 337q-10 0-14 4l-1 2v1q0 4 5 10l7 11 3 9 1 9 1 67v342l-1 20v18l-1 24-1 19q-1 6-7 6-19-4-36-12c-23-9-39 40-9 53a518 518 0 0 0 68 22q12 0 21-7t15-26l3-28 1-55V632l2-195v-65q0-15-12-22-12-8-26-10z"/>
      <path id="3049c" d="M617 655c-17 0-56 3-105 19-21 7-119 37-214 117q-27 21-39 36-11 17-11 30 0 23 17 35l21 11 37 17c17 7 41-40 9-53l-24-11q-4-1-4-5l1-3 36-30c32-26 99-66 170-94q43-16 77-18h10q54 0 84 17 31 17 31 59v2l-4 16q-3 12-15 27-10 17-29 27t-50 10a440 440 0 0 1-110-17q-12-4-21-4-13 0-13 8t15 19a245 245 0 0 0 92 40q27 8 51 8h10q34-3 66-22 30-20 50-50 20-31 22-66v-8q0-48-41-82-41-35-119-35"/>
    </g>
    <path id="3049d" d="M769 561q11 0 19-11 9-12 9-23 0-13-22-29-21-17-51-32-29-16-54-27-26-10-34-10-12 0-23 14-3 4-3 10t5 11q6 5 13 8 32 13 60 35 29 20 55 42 16 12 26 12"/>
  </g>
  <g data-strokesvg="strokes" style="stroke:var(--stroke,#000);fill:none;stroke-width:128;stroke-linecap:round">
    <path style="--i:0" d="M177 553q173-27 343-49" clip-path="url(#3049e)"/>
    <g style="--i:1">
      <path d="M369 271s119 658 42 655c-62-2-153 8-164-72-6-85 144-131 361-168 188-33 198 266-77 183" clip-path="url(#3049f)"/>
      <path d="M411 1597V926c-62-2-153 8-164-72-6-85 144-131 361-168 188-33 198 266-77 183" clip-path="url(#3049g)"/>
    </g>
    <path style="--i:2" d="m559 406 179 109" clip-path="url(#3049h)"/>
  </g>
</svg>
