<svg data-strokesvg="ã‰" viewBox="0 0 1024 1024" xmlns="http://www.w3.org/2000/svg">
  <defs>
    <clipPath id="3049e">
      <use href="#3049a"/>
    </clipPath>
    <clipPath id="3049f">
      <use href="#3049b"/>
    </clipPath>
    <clipPath id="3049g">
      <use href="#3049c"/>
    </clipPath>
    <clipPath id="3049h">
      <use href="#3049d"/>
    </clipPath>
  </defs>
  <g data-strokesvg="shadows" style="fill:var(--shadow,#ccc)">
    <path id="3049a" d="M319 528c-17 4-32 6-43 7h-2c-4 0-9-1-15-4l-12-3c-3 0-6 1-6 9 0 6 3 13 9 20 6 8 13 14 20 20 9 4 16 7 22 7l7-1c78-14 155-33 231-55 22-6 35-12 41-17 7-5 11-9 11-13 0-11-4-18-11-22-6-4-13-6-20-7l-14-2h-7l-10 4-7 4a1742 1742 0 0 1-194 53z"/>
    <g>
      <path id="3049b" d="M376 337c-7 0-11 1-14 4l-1 2v1c0 3 2 6 5 10l7 11 3 9 1 9 1 67v342l-1 20v18l-1 24-1 19c-1 4-3 6-7 6-13-2-25-7-36-12-23-9-39 40-9 53a518 518 0 0 0 68 22c8 0 15-2 21-7s11-13 15-26l3-28 1-55V632l2-195v-65c0-10-4-17-12-22s-16-9-26-10l-19-3z"/>
      <path id="3049c" d="M617 655c-17 0-56 3-105 19-21 7-119 37-214 117-18 14-31 26-39 36-7 11-11 21-11 30 0 15 6 27 17 35l21 11 37 17c17 7 41-40 9-53l-24-11c-3-1-4-2-4-5l1-3 36-30c32-26 99-66 170-94 29-11 54-17 77-18h10c36 0 64 5 84 17s31 31 31 59v2l-4 16c-2 8-7 17-15 27-7 11-16 20-29 27s-29 10-50 10a440 440 0 0 1-110-17c-8-3-15-4-21-4-9 0-13 2-13 8 0 5 5 12 15 19a245 245 0 0 0 92 40c18 5 35 8 51 8h10c23-2 45-9 66-22 20-13 37-30 50-50 13-21 21-43 22-66v-8c0-32-13-59-41-82-27-23-67-35-119-35z"/>
    </g>
    <path id="3049d" d="M769 561q11 0 19-11 9-12 9-23 0-13-22-29-21-17-51-32-29-16-54-27-26-10-34-10-12 0-23 14-3 4-3 10t5 11q6 5 13 8 32 13 60 35 29 20 55 42 16 12 26 12z"/>
  </g>
  <g data-strokesvg="strokes" style="stroke:var(--stroke,#000);fill:none;stroke-width:128;stroke-linecap:round">
    <path style="--i:0" d="M177 553c116-19 229-33 343-49" clip-path="url(#3049e)"/>
    <g style="--i:1">
      <path d="M369 271s119 658 42 655c-62-2-153 8-164-72-6-85 144-131 361-168 188-33 198 266-77 183" clip-path="url(#3049f)"/>
      <path d="M411 1597V926c-62-2-153 8-164-72-6-85 144-131 361-168 188-33 198 266-77 183" clip-path="url(#3049g)"/>
    </g>
    <path style="--i:2" d="m559 406 179 109" clip-path="url(#3049h)"/>
  </g>
</svg>
