<svg xmlns="http://www.w3.org/2000/svg" version="2" viewBox="0 0 1024 1024" data-strokesvg="ãŠ">
  <defs>
    <clipPath id="304ae">
      <use href="#304aa"/>
    </clipPath>
    <clipPath id="304ah">
      <use href="#304ab"/>
    </clipPath>
    <clipPath id="304af">
      <use href="#304ac"/>
    </clipPath>
    <clipPath id="304ag">
      <use href="#304ad"/>
    </clipPath>
  </defs>
  <g>
    <path id="304aa" d="m124 267 72 7 59 1q38 0 85-4l97-10q50-7 98-16 48-11 86-22l2 80-89 19q-50 8-101 14l-96 10q-46 4-80 4l-75-1q-29-1-56-4z"/>
    <path id="304ab" d="M738 197q37 19 82 47 45 26 86 54 42 28 67 48l-42 66q-19-19-47-39-29-22-62-42-32-22-64-40-32-20-57-33Z"/>
    <path id="304ad" d="M142 674c24-30 55-57 92-82a752 752 0 0 1 396-117c51 0 95 9 133 26 39 17 69 41 91 71 23 30 34 66 34 107s-9 77-26 108c-16 32-41 58-74 79a379 379 0 0 1-186 59l-59 5-29-83h59c22-1 42-3 61-7 30-6 58-15 84-28 26-14 48-31 63-53 17-22 25-48 25-79 0-29-8-54-24-74-15-20-37-35-63-45-27-10-56-15-89-15-45 0-89 5-132 14-43 10-87 23-131 41a431 431 0 0 0-156 102l-69-29z"/>
    <path id="304ac" d="M421 83a1785 1785 0 0 0-12 216 93369 93369 0 0 0-3 178v88l2 94a1945 1945 0 0 1 3 149c0 31-4 56-12 75-7 18-18 31-31 39s-29 12-47 12c-20 0-42-5-67-14s-48-22-71-37c-22-16-40-34-54-55-14-20-21-42-21-64 0-31 11-61 34-90l69 29a92 92 0 0 0-24 57c0 11 4 23 12 34a159 159 0 0 0 67 47c12 4 23 6 33 6 12 0 20-4 27-12 6-9 10-21 10-38a4435 4435 0 0 0-3-197l-1-119v-94a4771 4771 0 0 0 2-180 2049 2049 0 0 0-1-103l-3-21z"/>
  </g>
  <g style="fill:none;stroke-width:128">
    <path style="--i:0" d="m114 308 187 3 333-47" clip-path="url(#304ae)"/>
    <path style="--i:1" d="m375 67-3 789-69 43-153-102 2-79 135-131 373-90 176 100 3 171-134 100-193 26" clip-path="url(#304af)"/>
    <path style="--i:1" d="m320 898 331-271-279 229-69 43-153-102 2-79 135-131 373-90 176 100 3 171-134 100-193 26" clip-path="url(#304ag)"/>
    <path style="--i:2" d="m711 222 255 162" clip-path="url(#304ah)"/>
  </g>
</svg>
