<svg data-strokesvg="ãŠ" viewBox="0 0 1024 1024" xmlns="http://www.w3.org/2000/svg">
  <defs>
    <clipPath id="304ae">
      <use href="#304aa"/>
    </clipPath>
    <clipPath id="304af">
      <use href="#304ab"/>
    </clipPath>
    <clipPath id="304ag">
      <use href="#304ac"/>
    </clipPath>
    <clipPath id="304ah">
      <use href="#304ad"/>
    </clipPath>
  </defs>
  <g data-strokesvg="shadows" style="fill:var(--shadow,#ccc)">
    <path id="304aa" d="M342 372a2025 2025 0 0 1-142 24l-30-3q-5 0-10 3-3 2-3 5 0 7 8 21 8 13 21 22 14 11 27 11l39-4 90-18 59-14a2479 2479 0 0 0 171-50q18-9 22-14 4-6 4-10 0-6-5-13-7-8-21-15-12-7-25-7l-7 1-11 4-10 6q-48 19-117 36z"/>
    <g>
      <path id="304ab" d="M349 137q-17 0-22 9v2l3 11 5 8q6 7 6 22v90l1 93v61l1 61v115l-1 55-1 65-5 123q-2 7-7 7h-2l-54-13c-16-6-31 44-10 54a648 648 0 0 0 79 28h5q14-1 26-7 12-7 19-28 4-9 4-39a1752 1752 0 0 0 4-156v-63l1-108V419l1-62V177q0-4-2-13-1-9-13-18-11-9-38-9"/>
      <path id="304ac" d="M342 664q-76 49-114 79-38 31-50 50-11 18-11 31 0 23 23 40l30 17 43 19c19 8 42-45 10-54l-28-12q-12-7-13-13l1-3q10-11 40-37 33-26 68-52l59-31q55-29 112-52 57-22 104-25h13l11-1q69 0 110 23t41 77v5q-1 27-19 51-18 25-42 41a103 103 0 0 1-58 20h-10a567 567 0 0 1-182-30q-14 0-14 9 0 10 21 25 22 13 55 26 33 14 69 23t64 9h11q44-2 83-27 40-25 67-65 26-41 28-87v-8q0-64-54-107-54-44-159-44l-12 1h-12q-54 3-114 25-58 20-113 48z"/>
    </g>
    <path id="304ad" d="M853 422q14 0 25-13 11-14 11-26 0-7-3-14-2-7-20-19-16-12-41-26-24-16-51-29l-48-24q-21-10-33-12l-9-1q-13 0-28 17-3 5-3 10 0 12 14 19 46 23 87 51t75 58q12 9 24 9"/>
  </g>
  <g data-strokesvg="strokes" style="stroke:var(--stroke,#000);fill:none;stroke-width:128;stroke-linecap:round">
    <path style="--i:0" d="m85 444 456-97" clip-path="url(#304ae)"/>
    <g style="--i:1">
      <path d="m361 57 11 852-197-88s322-309 530-245c174 54 150 192 74 251-151 115-267 13-267 13" clip-path="url(#304af)"/>
      <path d="M1126 1306 372 909l-197-88s322-309 530-245c174 54 150 192 74 251-151 115-267 13-267 13" clip-path="url(#304ag)"/>
    </g>
    <path style="--i:2" d="m591 223 244 151" clip-path="url(#304ah)"/>
  </g>
</svg>
