<svg xmlns="http://www.w3.org/2000/svg" version="2" viewBox="0 0 1024 1024" data-strokesvg="ãŠ">
  <defs>
    <clipPath id="304ae">
      <use href="#304aa"/>
    </clipPath>
    <clipPath id="304af">
      <use href="#304ab"/>
    </clipPath>
    <clipPath id="304ag">
      <use href="#304ac"/>
    </clipPath>
    <clipPath id="304ah">
      <use href="#304ad"/>
    </clipPath>
  </defs>
  <g data-strokesvg="shadows" style="fill:var(--shadow,#ccc)">
    <path id="304aa" d="M342 372a2025 2025 0 0 1-142 24 132 132 0 0 1-30-3c-3 0-7 1-10 3-2 1-3 3-3 5 0 5 2 12 8 21 5 8 12 16 21 22 9 7 18 11 27 11l39-4 90-18 59-14a2479 2479 0 0 0 171-50c12-6 19-10 22-14s4-7 4-10c0-4-2-8-5-13-5-6-12-10-21-15-8-4-17-7-25-7l-7 1-11 4-10 6c-32 12-71 25-117 36z"/>
    <g>
      <path id="304ab" d="M349 137c-11 0-19 3-22 9v2l3 11 5 8c4 5 6 12 6 22v90l1 93v61l1 61v115l-1 55-1 65a2076 2076 0 0 1-5 123c-1 5-4 7-7 7h-2a797 797 0 0 1-54-13c-16-6-31 44-10 54a648 648 0 0 0 79 28h5c9 0 18-3 26-7 8-5 14-14 19-28a1752 1752 0 0 0 8-195v-63l1-108V419l1-62V177c0-3 0-7-2-13-1-6-5-12-13-18-7-6-20-9-38-9z"/>
      <path id="304ac" d="M342 664c-51 32-88 59-114 79-25 21-42 37-50 50-7 12-11 22-11 31 0 15 8 29 23 40l30 17 43 19c19 8 42-45 10-54l-28-12c-8-5-13-9-13-13l1-3c7-7 20-20 40-37 22-17 44-35 68-52l59-31c37-19 74-37 112-52s73-23 104-25h13l11-1c46 0 83 7 110 23s41 41 41 77v5c-1 18-7 35-19 51-12 17-26 30-42 41a103 103 0 0 1-58 20h-10a567 567 0 0 1-182-30c-9 0-14 3-14 9 0 7 7 15 21 25a592 592 0 0 0 124 49c24 6 45 9 64 9h11c29-1 57-10 83-27 27-17 49-38 67-65 17-27 27-56 28-87v-8c0-43-18-78-54-107s-89-44-159-44l-12 1h-12c-36 2-74 10-114 25-39 13-76 29-113 48z"/>
    </g>
    <path id="304ad" d="M853 422q14 0 25-13 11-14 11-26 0-7-3-14-2-7-20-19-16-12-41-26-24-16-51-29l-48-24q-21-10-33-12l-9-1q-13 0-28 17-3 5-3 10 0 12 14 19 46 23 87 51t75 58q12 9 24 9z"/>
  </g>
  <g data-strokesvg="strokes" style="stroke:var(--stroke,#000);fill:none;stroke-width:128;stroke-linecap:round">
    <path style="--i:0" d="m85 444 456-97" clip-path="url(#304ae)"/>
    <g style="--i:1">
      <path d="m361 57 11 852-197-88s322-309 530-245c174 54 150 192 74 251-151 115-267 13-267 13" clip-path="url(#304af)"/>
      <path d="M1126 1306 372 909l-197-88s322-309 530-245c174 54 150 192 74 251-151 115-267 13-267 13" clip-path="url(#304ag)"/>
    </g>
    <path style="--i:2" d="m591 223 244 151" clip-path="url(#304ah)"/>
  </g>
</svg>
