<svg xmlns="http://www.w3.org/2000/svg" version="2" viewBox="0 0 1024 1024" class="strokesvg">
  <defs>
    <clipPath id="304bd">
      <use href="#304ba"/>
    </clipPath>
    <clipPath id="304be">
      <use href="#304bb"/>
    </clipPath>
    <clipPath id="304bf">
      <use href="#304bc"/>
    </clipPath>
  </defs>
  <g>
    <path id="304ba" d="m80 327 45 2 46-2 59-3 78-7 84-6 77-6q36-3 56-3 46 0 83 14 38 15 61 53 22 38 22 106 0 61-6 131-5 70-18 133-14 64-35 106-24 52-62 68-38 18-88 18-28 0-62-5-34-4-59-11l-13-85 45 12q24 5 45 7l36 2q28 0 50-9 24-11 39-43 17-35 27-87 11-54 16-113 6-59 6-114 0-48-13-70-13-24-38-32-24-9-57-9-27 0-71 4l-94 8-92 10-67 7-45 7-47 6z"/>
    <path id="304bb" d="m449 102-7 30-6 31-9 50-11 68q-6 34-15 66-10 44-25 99l-35 116q-19 62-44 126t-54 127q-30 63-65 118l-84-33q36-47 66-105 30-59 56-121 26-64 46-125 22-62 36-114l23-90q14-61 23-127t9-126z"/>
    <path id="304bc" d="M801 211q24 32 51 79 28 47 53 100 27 53 48 103 22 49 35 85l-80 37q-11-38-30-89-20-51-45-103-25-53-53-99-26-48-54-79z"/>
  </g>
  <g style="fill:none;stroke-width:128">
    <path style="--i:0" d="m59 369 478-31 121 58-39 397-75 104-214-22" clip-path="url(#304bd)"/>
    <path style="--i:1" d="m407 81-65 342-82 254-136 259" clip-path="url(#304be)"/>
    <path style="--i:2" d="m758 211 201 399" clip-path="url(#304bf)"/>
  </g>
</svg>
