<svg data-strokesvg="ãŒ" viewBox="0 0 1024 1024" xmlns="http://www.w3.org/2000/svg">
  <defs>
    <clipPath id="304cf">
      <use href="#304ca"/>
    </clipPath>
    <clipPath id="304cg">
      <use href="#304cb"/>
    </clipPath>
    <clipPath id="304ch">
      <use href="#304cc"/>
    </clipPath>
    <clipPath id="304ci">
      <use href="#304cd"/>
    </clipPath>
    <clipPath id="304cj">
      <use href="#304ce"/>
    </clipPath>
  </defs>
  <g data-strokesvg="shadows" style="fill:var(--shadow,#ccc)">
    <path id="304ca" d="M587 439v-6q0-31-17-49a87 87 0 0 0-39-27 126 126 0 0 0-66-7l-61 11-73 18q-52 13-97 28l-69 21-8 2h-18l-9-1h-6l-6-1q-10 0-10 6v2q0 4 7 18 8 12 20 23 13 11 30 11 15 1 30-8l35-13 74-23 75-19a739 739 0 0 1 103-19q23 0 31 12 8 13 8 28-1 60-15 126a1029 1029 0 0 1-72 229q-20 42-38 53l-6 1h-5l-27-21-92-72q-8 0-8 10 0 7 6 22l14 22 55 79 25 30q19 18 41 18t51-36q29-35 57-101 29-66 50-159 23-93 30-208"/>
    <path id="304cb" d="M404 361a1399 1399 0 0 0 61-190l-1-10q-1-10-13-18a116 116 0 0 0-48-15q-9 0-12 5l-2 5q0 5 3 8 3 4 4 10 3 4 3 13 0 8-6 31a1201 1201 0 0 1-35 104l-27 75-27 65a1942 1942 0 0 1-121 242q-6 12-7 25 0 17 14 28 10 6 19 6 21 0 32-21a5773 5773 0 0 0 138-299z"/>
    <path id="304cc" d="M956 641q0-16-15-45-14-29-39-64-24-34-53-69-28-35-55-65-28-29-50-47-20-18-29-18-8 0-19 8-9 9-9 19 0 14 14 27 25 22 55 58 29 36 57 77 29 40 49 77 21 36 27 57 6 20 29 20 14 0 26-9 12-11 12-26"/>
    <path id="304cd" d="M874 377q12 0 21-10 9-11 9-23 0-8-13-22-12-15-31-30-17-17-35-30l-24-19q-8-4-11-4-11 0-20 9-8 8-8 18 0 9 7 16 17 13 43 39 26 24 45 48 7 8 17 8"/>
    <path id="304ce" d="M971 306q9-11 9-20 0-11-15-26-16-15-37-31l-38-27-19-13q-10-5-16-5-10 0-17 9-7 7-7 15 0 11 9 16 13 9 31 27 19 16 35 33 18 16 25 25 7 7 16 7 8 0 15-4z"/>
  </g>
  <g data-strokesvg="strokes" style="stroke:var(--stroke,#000);fill:none;stroke-width:128;stroke-linecap:round">
    <path style="--i:0" d="M50 491s469-216 502-63c34 152-86 552-183 479-55-42-77-101-77-101" clip-path="url(#304cf)"/>
    <path style="--i:1" d="M468 73 225 697" clip-path="url(#304cg)"/>
    <path style="--i:2" d="m652 284 252 342" clip-path="url(#304ch)"/>
    <path style="--i:3" d="m720 200 134 125" clip-path="url(#304ci)"/>
    <path style="--i:4" d="m786 146 140 121" clip-path="url(#304cj)"/>
  </g>
</svg>
