<svg xmlns="http://www.w3.org/2000/svg" version="2" viewBox="0 0 1024 1024" data-strokesvg="ãŒ">
  <defs>
    <clipPath id="304cf">
      <use href="#304ca"/>
    </clipPath>
    <clipPath id="304cg">
      <use href="#304cb"/>
    </clipPath>
    <clipPath id="304ch">
      <use href="#304cc"/>
    </clipPath>
    <clipPath id="304ci">
      <use href="#304cd"/>
    </clipPath>
    <clipPath id="304cj">
      <use href="#304ce"/>
    </clipPath>
  </defs>
  <g>
    <path id="304ca" d="m66 331 46 1 46-1 58-3 79-6 84-8 77-6q34-3 55-3 46 0 83 16 38 14 60 52 24 37 24 106 0 61-6 131t-20 133q-12 63-34 106-23 51-61 67-38 18-88 18-30 0-63-5-33-4-58-9l-13-86q21 7 45 12l45 7 35 2q28 0 51-9 23-10 39-44 16-35 27-87t16-112q5-59 5-115 0-47-13-70-14-24-38-32-25-8-58-8-25 0-69 4l-94 8-94 9-65 8-46 6-46 6z"/>
    <path id="304cb" d="m434 105-5 31-6 31-9 49q-5 32-13 68l-13 67-27 99q-14 54-34 116t-44 126q-25 64-55 126-29 63-64 119l-83-34q35-46 65-104 31-59 57-121 25-64 46-125 20-61 35-114t23-91q15-60 24-127 9-66 9-125z"/>
    <path id="304cc" d="M786 224q25 31 52 78t53 99q27 53 48 102 23 49 35 85l-79 38q-11-40-32-90-19-51-45-102-24-52-52-98-27-47-54-78Z"/>
    <path id="304cd" d="M799 76q13 17 27 43 16 24 31 51l26 46-57 25q-9-21-23-46l-30-52q-15-25-30-45z"/>
    <path id="304ce" d="M911 34q14 19 30 45l32 51q15 25 24 44l-55 25q-16-34-40-73-23-40-45-69Z"/>
  </g>
  <g style="fill:none;stroke-width:128">
    <path style="--i:0" d="m45 373 478-31 121 58-39 397-75 104-214-22" clip-path="url(#304cf)"/>
    <path style="--i:1" d="m393 85-65 342-82 254-136 259" clip-path="url(#304cg)"/>
    <path style="--i:2" d="m739 238 198 379" clip-path="url(#304ch)"/>
    <path style="--i:3" d="m777 77 77 160" clip-path="url(#304ci)"/>
    <path style="--i:4" d="m880 36 84 161" clip-path="url(#304cj)"/>
  </g>
</svg>
