<svg xmlns="http://www.w3.org/2000/svg" version="2" viewBox="0 0 1024 1024" class="strokesvg">
  <defs>
    <clipPath id="304de">
      <use href="#304da"/>
    </clipPath>
    <clipPath id="304df">
      <use href="#304db"/>
    </clipPath>
    <clipPath id="304dg">
      <use href="#304dc"/>
    </clipPath>
    <clipPath id="304dh">
      <use href="#304dd"/>
    </clipPath>
  </defs>
  <g>
    <path id="304da" d="M183 200q108 12 205 14 98 2 177-5 63-6 124-19 63-13 118-30l11 73q-50 15-112 27t-123 19q-78 7-182 7-102-1-213-12z"/>
    <path id="304db" d="M164 410q87 9 172 12 85 2 161-1 75-3 135-10 74-9 134-22t101-27l13 77q-42 12-99 23-56 10-121 18-63 7-144 12-81 3-171 2-89-2-177-8Z"/>
    <path id="304dc" d="m514 186-14-46-15-45 87-11q6 43 17 90 11 46 24 91l26 80q14 40 34 85 19 45 43 89 23 44 50 84l17 23 21 21-42 63q-29-9-68-14-39-6-80-10l-76-9 7-63 85 10 68 8q-43-67-75-137-32-71-55-134l-22-64-18-58-14-53z"/>
    <path id="304dd" d="M312 630q-18 26-30 54-13 28-13 61 0 64 58 96 58 31 179 31 72 0 130-5t114-16l-4 82q-53 8-113 12-61 5-126 5-100 0-171-20-70-21-107-63-35-42-36-107-2-44 10-78 12-35 29-69z"/>
  </g>
  <g style="fill:none;stroke-width:128">
    <path style="--i:0" d="m173 245 315 10 339-61" clip-path="url(#304de)"/>
    <path style="--i:1" d="m147 448 341 12 404-58" clip-path="url(#304df)"/>
    <path style="--i:2" d="m524 77 110 360 177 240-275-31" clip-path="url(#304dg)"/>
    <path style="--i:3" d="m263 611-40 175 87 101 450 12" clip-path="url(#304dh)"/>
  </g>
</svg>
