<svg data-strokesvg="ãŽ" viewBox="0 0 1024 1024" xmlns="http://www.w3.org/2000/svg">
  <defs>
    <clipPath id="304eg">
      <use href="#304ea"/>
    </clipPath>
    <clipPath id="304eh">
      <use href="#304eb"/>
    </clipPath>
    <clipPath id="304ei">
      <use href="#304ec"/>
    </clipPath>
    <clipPath id="304ej">
      <use href="#304ed"/>
    </clipPath>
    <clipPath id="304ek">
      <use href="#304ee"/>
    </clipPath>
    <clipPath id="304el">
      <use href="#304ef"/>
    </clipPath>
  </defs>
  <g data-strokesvg="shadows" style="fill:var(--shadow,#ccc)">
    <path id="304ea" d="M670 230h-4c-8 1-13 3-17 8-3 3-7 5-13 7l-121 27-57 15c-60 14-118 30-175 49a122 122 0 0 1-53 5l-9-1-9 1c-5 1-7 3-7 8l8 16c6 7 14 15 25 22a58 58 0 0 0 51 7 810 810 0 0 1 32-11 2869 2869 0 0 1 163-46l60-14a4535 4535 0 0 1 163-32c21-4 31-11 31-20s-4-16-12-22c-7-6-17-11-28-13-10-4-19-6-28-6z"/>
    <path id="304eb" d="M555 460c-46 11-85 19-117 23-30 5-57 7-81 7h-12l-10-1c-10 0-16 3-20 7-2 3-4 7-4 11 0 9 7 17 22 23 14 7 41 11 81 11a464 464 0 0 0 132-18l42-10 59-14c50-13 86-24 107-33s31-17 31-24c0-6-4-13-14-22-9-10-22-14-40-14l-11 1c-7 0-12 2-15 6l-14 10-24 7-53 14z"/>
    <path id="304ec" d="M515 272a5129 5129 0 0 0-82-140c-5-3-15-5-31-5l-27 2c-10 1-15 5-15 12 0 5 2 9 7 11 4 2 9 4 13 8 9 7 16 15 21 23l57 104 26 50 35 62 36 61 33 53a38229 38229 0 0 0 65 104c-34 2-59 4-74 7-16 2-24 6-24 14 0 7 8 13 25 16l46 12a918 918 0 0 0 73 14h10c7-1 14-5 20-10 6-6 9-13 9-22 0-5-1-10-4-15l-8-15a1378 1378 0 0 1-79-119l-33-55-35-60-35-61z"/>
    <path id="304ed" d="m584 944 10 1 9 1q14 0 23-6 9-5 9-16l-5-18q-4-15-19-29-13-16-41-16-39-1-88-16-48-17-94-42-45-26-78-54-11-11-17-23-6-13-7-25-2-33-19-33-2 0-12 9-9 9-9 36 0 20 11 51 11 30 45 54 68 47 134 77 67 29 148 49z"/>
    <path id="304ee" d="M842 284q9 0 19-10 11-10 11-24 0-9-14-26-13-17-33-35-18-18-33-30l-19-17q-5-5-14-5-10 0-20 8-8 9-8 19 0 7 7 13 18 16 42 44 26 28 43 53 6 10 19 10z"/>
    <path id="304ef" d="m940 217 5-10q3-6 3-13 0-9-14-26t-35-37q-20-19-39-33-18-13-27-13-11 0-18 8-7 7-7 17 0 8 7 14 12 10 30 30l33 36 22 28q8 9 18 9 7 0 13-3l9-7z"/>
  </g>
  <g data-strokesvg="strokes" style="stroke:var(--stroke,#000);fill:none;stroke-width:128;stroke-linecap:round">
    <path style="--i:0" d="m142 394 538-121" clip-path="url(#304eg)"/>
    <path style="--i:1" d="m247 541 478-99" clip-path="url(#304eh)"/>
    <path style="--i:2" d="M347 65c225 466 510 585 336 592l-79 3" clip-path="url(#304ei)"/>
    <path style="--i:3" d="M258 603s-23 198 167 266c54 19 156 40 156 40" clip-path="url(#304ej)"/>
    <path style="--i:4" d="m690 99 127 135" clip-path="url(#304ek)"/>
    <path style="--i:5" d="m771 43 128 132" clip-path="url(#304el)"/>
  </g>
</svg>
