<svg xmlns="http://www.w3.org/2000/svg" version="2" viewBox="0 0 1024 1024" class="strokesvg">
  <defs>
    <clipPath id="304eg">
      <use href="#304ea"/>
    </clipPath>
    <clipPath id="304eh">
      <use href="#304eb"/>
    </clipPath>
    <clipPath id="304ei">
      <use href="#304ec"/>
    </clipPath>
    <clipPath id="304ej">
      <use href="#304ed"/>
    </clipPath>
    <clipPath id="304ek">
      <use href="#304ee"/>
    </clipPath>
    <clipPath id="304el">
      <use href="#304ef"/>
    </clipPath>
  </defs>
  <g>
    <path id="304ea" d="M143 203q107 12 204 14 98 2 177-5 64-6 120-17 56-13 100-27l12 75q-43 11-99 22-54 10-115 17-78 7-182 7-102-1-213-11z"/>
    <path id="304eb" d="M123 413q88 9 172 12 85 2 161-1t136-10q73-8 133-22 60-13 101-26l13 76q-41 12-99 23-56 11-120 18-63 7-145 12-81 4-170 3-89-2-178-9z"/>
    <path id="304ec" d="m473 189-13-46q-7-23-16-45l87-11q6 43 17 90 11 46 24 91l27 81q14 39 33 84t43 89q23 44 50 84l17 24 22 20-43 63q-29-8-68-14t-80-10l-75-9 6-62 85 9 68 8q-42-66-74-136-33-72-56-134l-22-65-18-58-14-53z"/>
    <path id="304ed" d="M271 633q-18 26-30 54t-12 63q0 62 58 95 57 32 178 32 72 0 130-6t115-17l-4 82q-54 8-114 13t-126 5q-100 0-170-20-70-21-107-63-36-43-37-108 0-44 11-78 12-35 28-69z"/>
    <path id="304ee" d="M776 81q19 25 43 66 26 41 42 76l-53 25q-17-37-39-75-20-38-44-70z"/>
    <path id="304ef" d="m885 40 28 41q17 24 32 51l28 48-53 26q-19-38-40-74-22-37-46-69Z"/>
  </g>
  <g style="fill:none;stroke-width:128">
    <path style="--i:0" d="m130 246 315 10 311-47" clip-path="url(#304eg)"/>
    <path style="--i:1" d="m104 449 341 12 404-58" clip-path="url(#304eh)"/>
    <path style="--i:2" d="m481 78 110 360 177 240-275-31" clip-path="url(#304ei)"/>
    <path style="--i:3" d="m220 612-40 175 87 101 450 13" clip-path="url(#304ej)"/>
    <path style="--i:4" d="m753 84 81 159" clip-path="url(#304ek)"/>
    <path style="--i:5" d="m862 43 81 158" clip-path="url(#304el)"/>
  </g>
</svg>
