<svg xmlns="http://www.w3.org/2000/svg" version="2" viewBox="0 0 1024 1024" class="strokesvg">
  <defs>
    <clipPath id="304fb">
      <use href="#304fa"/>
    </clipPath>
  </defs>
  <g>
    <path id="304fa" d="m721 145-37 31q-20 18-34 28l-64 55-80 66-81 65-68 55q-30 27-41 44-10 17 0 34 12 18 44 46l66 54q37 29 78 64l85 72 83 72q40 36 71 69l-72 68q-32-37-71-75-27-28-66-65l-87-76q-45-40-90-77l-79-68q-50-41-63-71-13-32 5-63 19-31 65-69l68-57 85-68 83-71q40-35 66-62l31-34q18-20 27-34z"/>
  </g>
  <g style="fill:none;stroke-width:128">
    <path style="--i:0" d="M693 102 238 512l480 433" clip-path="url(#304fb)"/>
  </g>
</svg>
