<svg data-strokesvg="ã" viewBox="0 0 1024 1024" xmlns="http://www.w3.org/2000/svg">
  <defs>
    <clipPath id="304fb">
      <use href="#304fa"/>
    </clipPath>
  </defs>
  <g data-strokesvg="shadows" style="fill:var(--shadow,#ccc)">
    <path id="304fa" d="m650 216 10-16q6-9 6-19 0-15-12-27-11-14-25-21t-23-7l-5 1q-6 2-6 9v4l1 5q0 18-27 53-25 34-88 98-61 62-170 166l-19 16q-12 9-12 29 0 14 6 24 7 10 14 16 24 19 59 56 36 36 76 81 41 45 79 92 38 46 66 87t38 70q4 10 11 18 8 10 18 10 3 0 13-5 11-3 20-12t9-24q0-21-20-55-21-35-55-77-33-43-72-86-39-44-77-82-37-39-66-67-27-29-40-39-3-3-3-7l1-2 152-140q76-71 141-149z"/>
  </g>
  <g data-strokesvg="strokes" style="stroke:var(--stroke,#000);fill:none;stroke-width:128;stroke-linecap:round">
    <path style="--i:0" d="M699 104 275 504l376 396" clip-path="url(#304fb)"/>
  </g>
</svg>
