<svg xmlns="http://www.w3.org/2000/svg" version="2" viewBox="0 0 1024 1024">
  <defs>
    <clipPath id="3050d">
      <use href="#3050a"/>
    </clipPath>
    <clipPath id="3050e">
      <use href="#3050b"/>
    </clipPath>
    <clipPath id="3050f">
      <use href="#3050c"/>
    </clipPath>
  </defs>
  <g style="fill:#ccc">
    <path id="3050a" d="m708 145-37 31-34 28-65 55-80 66-81 65-67 55q-31 27-42 44-10 17 1 34 11 18 44 46l65 54q37 29 78 64l84 72 83 72q40 36 73 69l-73 68-34-38-36-37q-27-28-68-65l-86-76-89-77-81-68q-48-41-61-71-14-32 4-63t64-69l70-57 85-68 83-71q39-35 64-62 16-15 33-34 18-20 26-34z"/>
    <path id="3050b" d="M654 318q14 20 30 48l32 56 27 47-57 25q-10-22-26-49l-31-55q-16-29-29-48z"/>
    <path id="3050c" d="m774 272 30 45 34 55q16 26 26 48l-55 24-29-48-31-54q-16-27-30-45z"/>
  </g>
  <g style="fill:none;stroke:#000;stroke-width:128">
    <path style="--i:0" d="M681 102 226 512l480 433" clip-path="url(#3050d)"/>
    <path style="--i:1" d="m633 321 73 170" clip-path="url(#3050e)"/>
    <path style="--i:2" d="m756 275 79 166" clip-path="url(#3050f)"/>
  </g>
</svg>
