<svg data-strokesvg="ã" viewBox="0 0 1024 1024" xmlns="http://www.w3.org/2000/svg">
  <defs>
    <clipPath id="3050d">
      <use href="#3050a"/>
    </clipPath>
    <clipPath id="3050e">
      <use href="#3050b"/>
    </clipPath>
    <clipPath id="3050f">
      <use href="#3050c"/>
    </clipPath>
  </defs>
  <g data-strokesvg="shadows" style="fill:var(--shadow,#ccc)">
    <path id="3050a" d="m650 216 10-16q6-9 6-19 0-15-12-27-11-14-25-21t-23-7l-5 1q-6 2-6 9v4l1 5q0 18-27 53-25 34-88 98-61 62-170 166l-19 16q-12 9-12 29 0 14 6 24 7 10 14 16 24 19 59 56 36 36 76 81 41 45 79 92 38 46 66 87t38 70q4 10 11 18 8 10 18 10 3 0 13-5 11-3 20-12t9-24q0-21-20-55-21-35-55-77-33-43-72-86-39-44-77-82-37-39-66-67-27-29-40-39-3-3-3-7l1-2 152-140q76-71 141-149z"/>
    <path id="3050b" d="M792 404q9-11 9-22 0-9-5-14-16-18-40-39-24-22-45-37-21-17-28-17-10 0-19 9-9 8-9 18 0 9 8 15l27 26q18 15 34 32l26 28q5 7 10 9l10 2q12 0 22-10z"/>
    <path id="3050c" d="m867 342 6-9q4-6 4-12 0-7-6-14l-16-13-37-32-41-31q-18-13-26-13-11 0-18 8t-7 18q0 9 7 15 12 8 32 26l37 34 25 27q8 8 17 8 7 0 13-4l10-8z"/>
  </g>
  <g data-strokesvg="strokes" style="stroke:var(--stroke,#000);fill:none;stroke-width:128;stroke-linecap:round">
    <path style="--i:0" d="M699 104 275 504l376 396" clip-path="url(#3050d)"/>
    <path style="--i:1" d="m612 240 138 122" clip-path="url(#3050e)"/>
    <path style="--i:2" d="m683 181 140 120" clip-path="url(#3050f)"/>
  </g>
</svg>
