<svg xmlns="http://www.w3.org/2000/svg" version="2" viewBox="0 0 1024 1024">
  <defs>
    <clipPath id="3051e">
      <use href="#3051a"/>
    </clipPath>
    <clipPath id="3051f">
      <use href="#3051b"/>
    </clipPath>
    <clipPath id="3051d">
      <use href="#3051c"/>
    </clipPath>
  </defs>
  <g style="fill:#ccc">
    <path id="3051c" d="m261 118-9 34-8 32q-13 56-24 123-11 68-17 140-6 73-4 144t16 134l26-76 29-81 44 27-25 79q-14 43-25 83-11 39-16 64l-5 25v21l1 18 2 17-70 8q-10-30-23-83-13-52-22-114-9-64-9-127 0-84 7-161 8-77 17-141l15-107q3-18 4-37l1-31z"/>
    <path id="3051a" d="m406 314 50 7q27 3 57 4l57 1q64 0 130-3 68-4 130-11 64-7 114-18v84q-49 7-111 13t-130 9l-132 2-55-1-59-2-51-3z"/>
    <path id="3051b" d="m779 102-3 29v32l-1 37 1 58 1 66 1 62v45q0 88-4 164-3 76-22 141-20 66-65 122-44 55-126 104l-75-59q25-10 53-27 28-18 47-36 41-36 64-77 24-41 34-90 11-49 14-109 3-59 3-133l-1-62-2-80-2-76q-1-34-3-49-1-18-4-33l-5-29z"/>
  </g>
  <g style="fill:none;stroke:#000;stroke-width:128">
    <path style="--i:0" d="m210 105-65 589 42 209 116-328" clip-path="url(#3051d)"/>
    <path style="--i:1" d="m396 363 554-15" clip-path="url(#3051e)"/>
    <path style="--i:2" d="m728 94 5 579-89 161-131 111" clip-path="url(#3051f)"/>
  </g>
</svg>
