<svg data-strokesvg="ã‘" viewBox="0 0 1024 1024" xmlns="http://www.w3.org/2000/svg">
  <defs>
    <clipPath id="3051d">
      <use href="#3051a"/>
    </clipPath>
    <clipPath id="3051e">
      <use href="#3051b"/>
    </clipPath>
    <clipPath id="3051f">
      <use href="#3051c"/>
    </clipPath>
  </defs>
  <g data-strokesvg="shadows" style="fill:var(--shadow,#ccc)">
    <path id="3051a" d="M346 613h-3q-7 0-12 14l-13 26-21 44q-12 25-24 45l-3-43-1-50q0-62 4-135 5-74 12-145l14-130 1-10 1-8q0-10-4-15-4-9-16-13-12-6-23-7l-15-1q-15 0-17 6v4l2 8 5 9q5 8 5 15v5q-4 29-8 79l-9 109-7 111-4 93v27l3 61 8 70q5 36 13 63 9 25 22 31l8 3 10 1q9 0 17-4 8-6 12-19l8-36 14-57 14-64 11-52 4-25q0-7-8-10"/>
    <path id="3051b" d="M908 354zq0-7-9-15-9-9-21-16-12-9-22-9h-2q-10 1-16 4l-16 5-82 9-63 9-234 41h-13l-13-1-10-2-6 1q-5 1-5 6 0 9 12 28 12 17 27 22 7 4 16 4 7 1 13-2l14-3 92-18 108-19 64-8a1179 1179 0 0 1 128-12q18-1 28-6 10-6 10-17"/>
    <path id="3051c" d="m740 331-4-165q0-21-8-27-6-7-27-12-12-4-29-4-18 0-19 5v2q0 5 3 8l6 8 6 13q4 6 4 14a2386 2386 0 0 1 5 167l1 57v60q0 89-3 161-3 59-23 117a495 495 0 0 1-115 195q-19 20-19 26 0 7 3 9l6 1q6 0 12-4l17-10q56-39 95-93 42-55 65-117t25-121a2583 2583 0 0 0 1-186v-46z"/>
  </g>
  <g data-strokesvg="strokes" style="stroke:var(--stroke,#000);fill:none;stroke-width:128;stroke-linecap:round">
    <path style="--i:0" d="M267 120s-143 715 9 765l54-218" clip-path="url(#3051d)"/>
    <path style="--i:1" d="m332 425 522-75" clip-path="url(#3051e)"/>
    <path style="--i:2" d="M676 52c48 307 80 720-119 879" clip-path="url(#3051f)"/>
  </g>
</svg>
