<svg xmlns="http://www.w3.org/2000/svg" version="2" viewBox="0 0 1024 1024">
  <defs>
    <clipPath id="3052h">
      <use href="#3052a"/>
    </clipPath>
    <clipPath id="3052g">
      <use href="#3052b"/>
    </clipPath>
    <clipPath id="3052i">
      <use href="#3052c"/>
    </clipPath>
    <clipPath id="3052j">
      <use href="#3052d"/>
    </clipPath>
    <clipPath id="3052f">
      <use href="#3052e"/>
    </clipPath>
  </defs>
  <g style="fill:#ccc">
    <path id="3052e" d="m251 133-9 33-10 34q-12 55-23 123-11 67-18 140-6 72-4 143t17 134l25-75 30-81 44 26-25 79q-14 43-25 83l-16 65q-4 11-5 24l-1 22 1 17 2 18-69 8-24-83q-12-52-21-115t-9-127q0-84 7-161 8-78 17-141l15-106 4-37 2-32z"/>
    <path id="3052b" d="m394 330 50 6q28 3 58 4l57 1q64 0 130-3 68-3 130-10 64-7 115-19l-1 83q-49 8-112 15-61 5-129 8-66 3-132 3l-54-1-61-2-51-3z"/>
    <path id="3052a" d="m758 118-2 28-1 32-1 37 1 58 1 66 1 61v46q0 89-4 164-3 76-23 142-19 65-64 121-44 56-126 104l-75-58q24-11 52-28 29-19 47-37 42-36 65-76 23-41 34-90t14-108q3-60 3-134l-1-62-2-80-2-76-2-49q-1-18-5-34l-5-27z"/>
    <path id="3052c" d="M839 91q14 28 31 69 18 41 28 72l-51 19q-11-34-28-74-15-41-29-71Z"/>
    <path id="3052d" d="m941 59 32 69q18 41 29 72l-51 18-27-74q-16-40-32-68z"/>
  </g>
  <g style="fill:none;stroke:#000;stroke-width:128">
    <path style="--i:0" d="m196 105-65 589 42 209 116-328" clip-path="url(#3052f)"/>
    <path style="--i:1" d="m387 380 556-22" clip-path="url(#3052g)"/>
    <path style="--i:2" d="m712 112 5 577-89 161-131 111" clip-path="url(#3052h)"/>
    <path style="--i:3" d="m824 91 46 158" clip-path="url(#3052i)"/>
    <path style="--i:4" d="m923 60 51 157" clip-path="url(#3052j)"/>
  </g>
</svg>
