<svg xmlns="http://www.w3.org/2000/svg" version="2" viewBox="0 0 1024 1024" class="strokesvg">
  <defs>
    <clipPath id="3053c">
      <use href="#3053a"/>
    </clipPath>
    <clipPath id="3053d">
      <use href="#3053b"/>
    </clipPath>
  </defs>
  <g>
    <path id="3053a" d="M241 182q55 7 124 11 69 3 146 3l98-2 96-6 82-7v84l-80 5-98 5q-50 3-98 3-77 0-143-4l-127-8z"/>
    <path id="3053b" d="M282 595q-11 31-17 59-5 29-5 58 0 58 61 95 60 37 183 37 70 0 136-5t120-15q55-9 94-21l1 88q-37 10-91 18-53 9-119 13-65 5-139 5-104 0-177-23-74-22-113-66t-39-109q0-40 7-76t15-66z"/>
  </g>
  <g style="fill:none;stroke-width:128">
    <path style="--i:0" d="M235 229h562" clip-path="url(#3053c)"/>
    <path style="--i:1" d="m230 587-13 135 67 135 208 42 376-43" clip-path="url(#3053d)"/>
  </g>
</svg>
