<svg data-strokesvg="ã”" viewBox="0 0 1024 1024" xmlns="http://www.w3.org/2000/svg">
  <defs>
    <clipPath id="3054e">
      <use href="#3054a"/>
    </clipPath>
    <clipPath id="3054f">
      <use href="#3054b"/>
    </clipPath>
    <clipPath id="3054g">
      <use href="#3054c"/>
    </clipPath>
    <clipPath id="3054h">
      <use href="#3054d"/>
    </clipPath>
  </defs>
  <g data-strokesvg="shadows" style="fill:var(--shadow,#ccc)">
    <path id="3054a" d="M305 297h5l32-1h33q69 0 132 6t115 19l-40 34-42 35q-33 26-33 36 0 5 8 5t25-6l21-10 45-22 56-27 51-27q16-8 17-23l1-7q0-18-10-25-10-8-19-10-47-17-114-25t-141-8l-67 2q-33 1-66 5-21 2-28 8-6 6-7 20v3q0 18 26 18z"/>
    <path id="3054b" d="M764 805h-2q-7 0-14 3-8 3-16 3l-40 2-50 1q-118 0-191-16-74-18-115-49-40-32-60-74-8-22-18-22h-4q-21 1-21 24 0 9 8 37 8 26 32 58 25 32 77 57 44 22 103 34 59 13 120 18 63 5 115 5 58 0 87-3 30-4 39-13 10-8 10-20l-1-3v-3q-1-11-13-20-11-9-25-14-13-5-21-5z"/>
    <path id="3054c" d="M867 307q0-8-14-26-14-19-35-40-19-22-38-36-18-16-26-16-11 0-19 9-8 7-8 17 0 8 7 14l26 27q16 17 31 37 15 18 23 32 8 12 20 12 13 0 23-8 10-10 10-22z"/>
    <path id="3054d" d="M936 271q9-11 9-21 0-9-14-25-13-16-32-34-18-17-34-29l-16-15q-8-7-20-7-10 0-18 8t-8 16q0 7 6 12 11 9 29 29 17 18 32 38 17 19 23 28 7 11 18 11 9 0 15-3l10-8z"/>
  </g>
  <g data-strokesvg="strokes" style="stroke:var(--stroke,#000);fill:none;stroke-width:128;stroke-linecap:round">
    <path style="--i:0" d="M212 268c184-5 339-51 526 18L553 390" clip-path="url(#3054e)"/>
    <path style="--i:1" d="M217 595s43 309 548 253" clip-path="url(#3054f)"/>
    <path style="--i:2" d="m688 152 128 131" clip-path="url(#3054g)"/>
    <path style="--i:3" d="m765 99 129 129" clip-path="url(#3054h)"/>
  </g>
</svg>
