<svg data-strokesvg="ã•" viewBox="0 0 1024 1024" xmlns="http://www.w3.org/2000/svg">
  <defs>
    <clipPath id="3055d">
      <use href="#3055a"/>
    </clipPath>
    <clipPath id="3055e">
      <use href="#3055b"/>
    </clipPath>
    <clipPath id="3055f">
      <use href="#3055c"/>
    </clipPath>
  </defs>
  <g data-strokesvg="shadows" style="fill:var(--shadow,#ccc)">
    <path id="3055a" d="M605 383a3821 3821 0 0 0 200-51c14-6 22-10 24-15 3-4 5-8 5-12 0-11-5-19-15-23a139 139 0 0 0-48-12h-7c-6 0-11 2-15 6-5 4-10 7-16 9a2089 2089 0 0 1-160 42l-62 13a5186 5186 0 0 1-209 38c-30 4-54 7-73 8h-28l-14-3-19-3-3 1h-2c-4 1-5 3-5 8 0 6 2 14 8 23 5 9 13 16 21 23 10 7 20 10 31 10a1935 1935 0 0 0 250-35l73-14z"/>
    <path id="3055b" d="m633 550-82 13c-20 3-30 8-30 15 0 4 4 7 10 11 7 3 15 6 24 7l49 9a923 923 0 0 1 73 17h8c12 0 22-4 28-10a62 62 0 0 0 18-32c0-5-1-10-4-14l-11-14c-13-14-30-36-49-67l-62-102-32-56a2990 2990 0 0 1-86-167c-4-10-8-17-14-23-5-5-15-8-31-8l-28 2c-11 1-16 3-17 7v2c0 5 3 9 9 13 5 3 9 7 13 12l7 9 8 13a62385 62385 0 0 0 77 153l30 56a2082 2082 0 0 0 92 154z"/>
    <path id="3055c" d="M676 921v-3q0-18-13-35-14-19-31-23-7-2-19-2l-20-2q-54-10-105-29-49-18-84-33-39-21-63-40-23-20-38-45-6-11-8-24l-3-26q-1-11-8-12h-2q-11 0-17 20-6 18-6 38 0 34 24 66t62 58q39 27 84 49 45 21 88 35 44 16 77 24 34 8 47 8 18 0 26-7t9-17z"/>
  </g>
  <g data-strokesvg="strokes" style="stroke:var(--stroke,#000);fill:none;stroke-width:128;stroke-linecap:round">
    <path style="--i:0" d="m95 420 681-110" clip-path="url(#3055d)"/>
    <path style="--i:1" d="m383 67 336 498-137 7" clip-path="url(#3055e)"/>
    <path style="--i:2" d="M281 580s-38 288 337 327" clip-path="url(#3055f)"/>
  </g>
</svg>
