<svg data-strokesvg="ã•" viewBox="0 0 1024 1024" xmlns="http://www.w3.org/2000/svg">
  <defs>
    <clipPath id="3055d">
      <use href="#3055a"/>
    </clipPath>
    <clipPath id="3055e">
      <use href="#3055b"/>
    </clipPath>
    <clipPath id="3055f">
      <use href="#3055c"/>
    </clipPath>
  </defs>
  <g data-strokesvg="shadows" style="fill:var(--shadow,#ccc)">
    <path id="3055a" d="M605 383a3821 3821 0 0 0 200-51q21-8 24-15 5-6 5-12 0-17-15-23-13-7-28-10l-20-3h-7q-9 1-15 7-7 6-16 9-20 8-63 19-43 12-97 23l-62 13a5186 5186 0 0 1-209 38q-45 6-73 8h-28l-14-3-19-3-3 1h-2q-5 1-5 8 0 9 8 23 8 13 21 23 15 10 31 10 25 1 67-5a1935 1935 0 0 0 183-29l73-15z"/>
    <path id="3055b" d="m633 550-82 13q-30 5-30 15 1 6 10 11 10 5 24 7l49 9 73 17h8q19-1 28-10a62 62 0 0 0 18-32q0-8-4-14l-11-14q-20-21-49-67l-62-102-32-56a2990 2990 0 0 1-86-167q-6-14-14-23-7-8-31-8l-28 2q-16 1-17 7v2q0 7 9 13 7 5 13 12l7 9 8 13q22 42 40 81l37 72 30 56a2082 2082 0 0 0 92 154"/>
    <path id="3055c" d="M676 921v-3q0-18-13-35-14-19-31-23-7-2-19-2l-20-2q-54-10-105-29-49-18-84-33-39-21-63-40-23-20-38-45-6-11-8-24l-3-26q-1-11-8-12h-2q-11 0-17 20-6 18-6 38 0 34 24 66t62 58q39 27 84 49 45 21 88 35 44 16 77 24 34 8 47 8 18 0 26-7t9-17"/>
  </g>
  <g data-strokesvg="strokes" style="stroke:var(--stroke,#000);fill:none;stroke-width:128;stroke-linecap:round">
    <path style="--i:0" d="m95 420 681-110" clip-path="url(#3055d)"/>
    <path style="--i:1" d="m383 67 336 498-137 7" clip-path="url(#3055e)"/>
    <path style="--i:2" d="M281 580s-38 288 337 327" clip-path="url(#3055f)"/>
  </g>
</svg>
