<svg xmlns="http://www.w3.org/2000/svg" version="2" viewBox="0 0 1024 1024" data-strokesvg="ã•">
  <defs>
    <clipPath id="3055d">
      <use href="#3055a"/>
    </clipPath>
    <clipPath id="3055e">
      <use href="#3055b"/>
    </clipPath>
    <clipPath id="3055f">
      <use href="#3055c"/>
    </clipPath>
  </defs>
  <g>
    <path id="3055a" d="M162 255q86 10 166 14 81 4 152 2 73-2 131-8l86-12q46-7 91-19 46-11 85-23l10 80q-36 11-79 19l-86 16q-43 7-81 11-97 11-218 12-120 1-255-10z"/>
    <path id="3055b" d="m537 175-13-38-13-42 87-11q5 30 14 68l22 75 24 71q24 67 60 133t67 111l23 27 22 27-42 57q-18-4-49-8l-65-7-70-7-62-5 6-69 60 5 62 6 48 4q-22-32-46-74-25-43-48-90-23-49-40-95-17-45-28-80l-19-58z"/>
    <path id="3055c" d="M319 582q-22 36-35 71-13 34-13 71 0 73 64 106 63 34 177 35 79 1 144-6 67-7 120-19l-4 82q-47 8-113 15-65 7-151 7-97-1-169-24-71-24-110-70-39-47-39-117 0-42 14-83 14-42 36-87z"/>
  </g>
  <g style="fill:none;stroke-width:128">
    <path style="--i:0" d="m154 309 322 7 410-50" clip-path="url(#3055d)"/>
    <path style="--i:1" d="m563 74 67 249 207 315-301-26" clip-path="url(#3055e)"/>
    <path style="--i:2" d="m263 559-46 136 26 119 102 84 137 18 301-18" clip-path="url(#3055f)"/>
  </g>
</svg>
