<svg xmlns="http://www.w3.org/2000/svg" version="2" viewBox="0 0 1024 1024" data-strokesvg="ã–">
  <defs>
    <clipPath id="3056f">
      <use href="#3056a"/>
    </clipPath>
    <clipPath id="3056g">
      <use href="#3056b"/>
    </clipPath>
    <clipPath id="3056h">
      <use href="#3056c"/>
    </clipPath>
    <clipPath id="3056i">
      <use href="#3056d"/>
    </clipPath>
    <clipPath id="3056j">
      <use href="#3056e"/>
    </clipPath>
  </defs>
  <g>
    <path id="3056a" d="M151 262q86 10 165 14 81 5 153 3 73-3 131-9 41-4 86-11 46-8 91-18 46-12 85-25l9 81q-35 10-78 19l-86 16-80 11q-99 11-218 12-120 0-256-11z"/>
    <path id="3056b" d="m525 183-12-39-13-42 88-10q4 29 13 67 10 37 23 75l23 72q24 67 60 132 35 66 68 111l22 29 22 25-41 59q-18-6-49-10l-65-7-70-7-64-5 7-68 61 5 61 5 48 6q-22-33-47-76l-48-90q-22-48-40-94l-27-79-20-59Z"/>
    <path id="3056c" d="M309 589q-22 38-36 73-13 33-13 69 0 73 64 107 63 33 178 34 78 1 143-5 67-7 120-19l-3 82q-48 8-114 15-65 7-151 6-97 0-168-23-72-24-111-71t-39-116q0-43 14-84 14-42 35-87z"/>
    <path id="3056d" d="M792 59q13 18 27 43l30 52q15 25 25 47l-55 24q-9-21-23-47l-30-51q-15-26-30-44z"/>
    <path id="3056e" d="M904 18q15 20 30 45l32 52q15 25 24 45l-55 24q-16-34-40-73-23-40-45-69Z"/>
  </g>
  <g style="fill:none;stroke-width:128">
    <path style="--i:0" d="m147 319 317 5 410-49" clip-path="url(#3056f)"/>
    <path style="--i:1" d="m551 82 67 249 207 315-301-26" clip-path="url(#3056g)"/>
    <path style="--i:2" d="m251 567-46 136 26 119 102 84 137 18 300-16" clip-path="url(#3056h)"/>
    <path style="--i:3" d="m776 62 63 157" clip-path="url(#3056i)"/>
    <path style="--i:4" d="m886 23 67 157" clip-path="url(#3056j)"/>
  </g>
</svg>
