<svg xmlns="http://www.w3.org/2000/svg" version="2" viewBox="0 0 1024 1024" data-strokesvg="ã—">
  <defs>
    <clipPath id="3057b">
      <use href="#3057a"/>
    </clipPath>
  </defs>
  <g>
    <path id="3057a" d="M348 103q-4 26-6 53l-3 51-4 106-4 136-3 141-1 127q0 56 21 90 22 34 60 48 37 14 87 14 69 0 126-17 56-18 100-48 44-31 78-69 35-38 62-78l59 70q-27 37-66 77-38 39-90 73-52 33-121 55-68 21-151 21-73 0-130-22-56-23-88-73-31-50-31-133l1-101 3-116 3-116 2-105 1-80q0-29-2-55-2-27-6-50z"/>
  </g>
  <g style="fill:none;stroke-width:128">
    <path style="--i:0" d="m287 96-19 662 39 103 113 66 179-6 168-76 140-149" clip-path="url(#3057b)"/>
  </g>
</svg>
