<svg data-strokesvg="ã˜" viewBox="0 0 1024 1024" xmlns="http://www.w3.org/2000/svg">
  <defs>
    <clipPath id="3058d">
      <use href="#3058a"/>
    </clipPath>
    <clipPath id="3058e">
      <use href="#3058b"/>
    </clipPath>
    <clipPath id="3058f">
      <use href="#3058c"/>
    </clipPath>
  </defs>
  <g data-strokesvg="shadows" style="fill:var(--shadow,#ccc)">
    <path id="3058a" d="M500 860h-11q-47 0-81-17-35-18-55-61-18-43-18-119v-5q0-64 7-172l17-260 1-11 1-11q0-21-16-29t-34-9l-19-2q-16 0-20 5l-1 3q0 7 10 18 10 12 10 37v6l-10 164-8 150-4 116q0 52 9 100 9 47 32 84 24 37 67 58 43 22 111 22 65 0 121-18 57-16 102-43 46-26 79-54 32-29 50-51 17-24 17-34 0-9-8-9-12 0-39 22-35 31-87 58-52 26-111 44-58 16-112 18z"/>
    <path id="3058b" d="M719 401q0-12-5-18l-22-26-34-39q-18-21-35-35-17-16-25-16-10 0-20 9t-10 20q0 8 6 14 11 9 29 32 19 22 36 45l27 36q8 12 19 12 8 0 21-7 13-8 13-27z"/>
    <path id="3058c" d="M813 345q0-9-16-31-17-21-40-45-23-23-43-40-21-17-30-17-12 0-21 9-10 9-10 20 0 8 5 12 10 8 24 25l31 33 28 34q13 14 17 22 8 11 21 11 18 0 26-12 8-14 8-21z"/>
  </g>
  <g data-strokesvg="strokes" style="stroke:var(--stroke,#000);fill:none;stroke-width:128;stroke-linecap:round">
    <path style="--i:0" d="M223 124c171-13 48 421 90 648 34 189 330 141 517-10" clip-path="url(#3058d)"/>
    <path style="--i:1" d="m534 226 132 155" clip-path="url(#3058e)"/>
    <path style="--i:2" d="m619 169 142 154" clip-path="url(#3058f)"/>
  </g>
</svg>
