<svg xmlns="http://www.w3.org/2000/svg" version="2" viewBox="0 0 1024 1024" data-strokesvg="ã˜">
  <defs>
    <clipPath id="3058d">
      <use href="#3058a"/>
    </clipPath>
    <clipPath id="3058e">
      <use href="#3058b"/>
    </clipPath>
    <clipPath id="3058f">
      <use href="#3058c"/>
    </clipPath>
  </defs>
  <g>
    <path id="3058a" d="m335 111-6 51-3 52-4 107-5 135-3 141-1 127q0 56 22 90 21 33 59 48t87 15q70 0 126-18 57-18 101-48 44-31 77-69 35-37 63-77l58 69q-26 36-65 76-38 40-90 74-53 34-120 55-68 22-152 22-73 0-130-23-56-23-88-73t-32-133l1-101 3-116 4-116 3-105 1-80q0-30-2-55-2-27-8-49z"/>
    <path id="3058b" d="M618 195q14 17 32 47 19 29 36 60 19 31 31 55l-61 28q-13-28-29-56l-33-58q-16-28-34-52z"/>
    <path id="3058c" d="M751 142q14 18 32 46 20 29 38 60 19 31 31 54l-59 29-30-56-35-56q-17-28-35-50Z"/>
  </g>
  <g style="fill:none;stroke-width:128">
    <path style="--i:0" d="m274 103-6 655 39 103 113 66 179-6 168-76 127-140" clip-path="url(#3058d)"/>
    <path style="--i:1" d="m607 197 75 179" clip-path="url(#3058e)"/>
    <path style="--i:2" d="m729 151 85 172" clip-path="url(#3058f)"/>
  </g>
</svg>
