<svg data-strokesvg="ãš" viewBox="0 0 1024 1024" xmlns="http://www.w3.org/2000/svg">
  <defs>
    <clipPath id="305af">
      <use href="#305aa"/>
    </clipPath>
    <clipPath id="305ag">
      <use href="#305ab"/>
    </clipPath>
    <clipPath id="305ah">
      <use href="#305ac"/>
    </clipPath>
    <clipPath id="305ai">
      <use href="#305ad"/>
    </clipPath>
    <clipPath id="305aj">
      <use href="#305ae"/>
    </clipPath>
  </defs>
  <g data-strokesvg="shadows" style="fill:var(--shadow,#ccc)">
    <path id="305aa" d="M553 279a4976 4976 0 0 0-381 55h-13l-29-5-6 1q-9 3-9 13l4 16q5 14 17 27 13 12 37 12 10 0 18-3l16-3q78-17 167-31l179-23 63-6a3231 3231 0 0 1 262-19q24 0 33-6 11-5 11-13-1-14-16-29a69 69 0 0 0-37-19h-6q-11-1-19 5-7 5-18 6l-64 3-146 12z"/>
    <g>
      <path id="305ab" d="M550 108q-15 0-18 7l-1 2v3q0 4 3 7l7 9q9 11 10 23 2 10 2 45v134l2 89 11 145c3 36-14 75-42 75q-22 0-44-22a87 87 0 0 1-22-59v-3q-1-33 8-52t19-28l16-8c32-6 29-59 0-59-13 0-31 3-51 19q-24 18-39 50-16 32-16 72 0 55 21 88t52 48 60 15h9l8-1c25-10 61-29 71-66 6-21 10-36 11-57v-49l-7-57c-1-14-3-23-4-52V158q0-24-6-31-6-8-29-14a91 91 0 0 0-31-5"/>
      <path id="305ac" d="M501 475c22-3 40 9 50 28 21 44 29 105 13 150l-19 54q-25 74-72 134a927 927 0 0 1-103 112q-9 9-9 16l3 5q3 4 9 4 10 0 40-21 30-19 68-56a626 626 0 0 0 135-194q24-60 24-124a207 207 0 0 0-22-93q-24-36-63-63-25-12-54-11c-18 0-16 64 0 59"/>
    </g>
    <path id="305ad" d="M864 225q5-3 7-9 3-7 3-14 0-12-4-16l-16-17-32-35q-17-19-34-34-16-14-24-14-10 0-20 8-8 8-8 19 0 9 6 14 11 7 27 27l33 39q17 19 25 31 8 10 17 10 5 0 10-3z"/>
    <path id="305ae" d="M937 199q20 0 26-15t6-19-4-12q-4-9-25-29-19-21-69-63-7-6-16-6-10 0-18 8-9 9-9 18 0 7 5 11 11 10 28 30 18 19 33 38 16 18 21 26 9 13 22 13"/>
  </g>
  <g data-strokesvg="strokes" style="stroke:var(--stroke,#000);fill:none;stroke-width:128;stroke-linecap:round">
    <path style="--i:0" d="m46 382 823-98" clip-path="url(#305af)"/>
    <g style="--i:1">
      <path d="M560 30s60 515 40 562c-28 66-74 77-135 61-36-18-36-105-36-105s23-112 117-84c94 29 61 178 6 280-59 108-148 193-148 193" clip-path="url(#305ag)" transform="translate(0 .01)"/>
      <path d="M248 1051s-9-518 15-563c35-63 82-70 141-47 34 21 25 107 25 107s23-112 117-83c94 28 61 177 6 279-59 108-148 193-148 193" clip-path="url(#305ah)" transform="translate(0 .01)"/>
    </g>
    <path style="--i:2" d="m694 48 132 135" clip-path="url(#305ai)"/>
    <path style="--i:3" d="m783 0 139 146" clip-path="url(#305aj)"/>
  </g>
</svg>
