<svg data-strokesvg="ãš" viewBox="0 0 1024 1024" xmlns="http://www.w3.org/2000/svg">
  <defs>
    <clipPath id="305af">
      <use href="#305aa"/>
    </clipPath>
    <clipPath id="305ag">
      <use href="#305ab"/>
    </clipPath>
    <clipPath id="305ah">
      <use href="#305ac"/>
    </clipPath>
    <clipPath id="305ai">
      <use href="#305ad"/>
    </clipPath>
    <clipPath id="305aj">
      <use href="#305ae"/>
    </clipPath>
  </defs>
  <g data-strokesvg="shadows" style="fill:var(--shadow,#ccc)">
    <path id="305aa" d="M553 279a4976 4976 0 0 0-381 55h-13a357 357 0 0 1-29-5l-6 1c-6 2-9 6-9 13l4 16c3 9 9 18 17 27 9 8 21 12 37 12 7 0 13-1 18-3l16-3c52-11 108-22 167-31l179-23 63-6a3231 3231 0 0 1 262-19c16 0 27-2 33-6 7-3 11-8 11-13 0-10-6-19-16-29a69 69 0 0 0-37-19h-6c-7 0-14 1-19 5-5 3-11 5-18 6l-64 3a3138 3138 0 0 0-146 12z"/>
    <g>
      <path id="305ab" d="M550 108c-10 0-16 2-18 7l-1 2v3c0 3 1 5 3 7l7 9c6 7 9 15 10 23 1 7 2 22 2 45v134l2 89 11 145c3 36-14 75-42 75-15 0-29-7-44-22a87 87 0 0 1-22-59v-3c0-22 2-40 8-52 6-13 13-22 19-28l16-8c32-6 29-59 0-59-13 0-31 3-51 19-16 12-29 29-39 50-11 22-16 45-16 72 0 37 7 66 21 88s31 38 52 48 41 15 60 15h9l8-1c25-10 61-29 71-66 6-21 10-36 11-57v-49l-7-57c-1-14-3-23-4-52V158c0-16-2-26-6-31s-14-10-29-14a91 91 0 0 0-31-5z"/>
      <path id="305ac" d="M501 475c22-3 40 9 50 28 21 44 29 105 13 150l-19 54c-17 49-41 94-72 134a927 927 0 0 1-103 112c-6 6-9 11-9 16l3 5c2 3 5 4 9 4 7 0 20-7 40-21a626 626 0 0 0 204-251c15-39 23-80 23-123a207 207 0 0 0-22-93c-16-24-37-45-63-63-16-8-35-12-54-11-18 0-16 64 0 59z"/>
    </g>
    <path id="305ad" d="M864 225q5-3 7-9 3-7 3-14 0-12-4-16l-16-17-32-35q-17-19-34-34-16-14-24-14-10 0-20 8-8 8-8 19 0 9 6 14 11 7 27 27l33 39q17 19 25 31 8 10 17 10 5 0 10-3l10-6z"/>
    <path id="305ae" d="M937 199q20 0 26-15t6-19q0-5-4-12-4-9-25-29-19-21-69-63-7-6-16-6-10 0-18 8-9 9-9 18 0 7 5 11 11 10 28 30 18 19 33 38 16 18 21 26 9 13 22 13z"/>
  </g>
  <g data-strokesvg="strokes" style="stroke:var(--stroke,#000);fill:none;stroke-width:128;stroke-linecap:round">
    <path style="--i:0" d="m46 382 823-98" clip-path="url(#305af)"/>
    <g style="--i:1">
      <path d="M560 30s60 515 40 562c-28 66-74 77-135 61-36-18-36-105-36-105s23-112 117-84c94 29 61 178 6 280-59 108-148 193-148 193" clip-path="url(#305ag)" transform="translate(0 .01)"/>
      <path d="M248 1051s-9-518 15-563c35-63 82-70 141-47 34 21 25 107 25 107s23-112 117-83c94 28 61 177 6 279-59 108-148 193-148 193" clip-path="url(#305ah)" transform="translate(0 .01)"/>
    </g>
    <path style="--i:2" d="m694 48 132 135" clip-path="url(#305ai)"/>
    <path style="--i:3" d="m783 0 139 146" clip-path="url(#305aj)"/>
  </g>
</svg>
