<svg data-strokesvg="ã›" viewBox="0 0 1024 1024" xmlns="http://www.w3.org/2000/svg">
  <defs>
    <clipPath id="305bd">
      <use href="#305ba"/>
    </clipPath>
    <clipPath id="305be">
      <use href="#305bb"/>
    </clipPath>
    <clipPath id="305bf">
      <use href="#305bc"/>
    </clipPath>
  </defs>
  <g data-strokesvg="shadows" style="fill:var(--shadow,#ccc)">
    <path id="305ba" d="M399 486a5186 5186 0 0 1 225-42l62-10a2845 2845 0 0 1 215-26l28-6q13-3 15-16v-2q0-15-18-28a67 67 0 0 0-42-14h-2q-9 0-19 6-9 6-14 6l-156 21-62 11a3600 3600 0 0 0-233 42l-62 12-183 40-31 5h-7l-7-1-22-4-9 3q-3 2-3 6 0 9 10 22 10 14 25 24 15 9 27 10l6-1 22-4 174-40z"/>
    <path id="305bb" d="M624 444q-7 54-16 100-8 46-19 72l-72-46-14-9q-7-4-13-4l-5 3q-3 2-3 6 0 6 11 23l27 37 33 39 29 28q8 6 17 6 12 0 23-7 9-8 20-34 12-25 22-78 9-53 22-146l7-59 16-179v-14q0-17-9-27-7-12-43-16h-10l-11 2q-6 2-6 6 0 6 4 12l7 10 2 5 2 7 1 9-3 56-12 140z"/>
    <path id="305bc" d="M708 872h47q13 1 27-5 16-4 16-21 0-10-10-20-9-9-21-16t-19-7l-16 1-22 3-28 1q-92 0-145-14-54-15-81-40-27-27-37-63a541 541 0 0 1-17-132l-3-73-1-58-2-79v-81l-3-17q-2-11-14-20-11-8-41-8-21 1-22 10v3l3 8q4 4 7 9l4 9 3 10v33l1 61 2 74 2 60 5 109q7 87 34 140 27 52 74 78 45 27 110 36 64 9 147 9"/>
  </g>
  <g data-strokesvg="strokes" style="stroke:var(--stroke,#000);fill:none;stroke-width:128;stroke-linecap:round">
    <path style="--i:0" d="m8 505 877-120" clip-path="url(#305bd)"/>
    <path style="--i:1" d="M601 84c109 35 96 427 37 596l-101-96" clip-path="url(#305be)"/>
    <path style="--i:2" d="M272 179c196 16-109 756 465 664" clip-path="url(#305bf)"/>
  </g>
</svg>
