<svg data-strokesvg="ãœ" viewBox="0 0 1024 1024" xmlns="http://www.w3.org/2000/svg">
  <defs>
    <clipPath id="305cf">
      <use href="#305ca"/>
    </clipPath>
    <clipPath id="305cg">
      <use href="#305cb"/>
    </clipPath>
    <clipPath id="305ch">
      <use href="#305cc"/>
    </clipPath>
    <clipPath id="305ci">
      <use href="#305cd"/>
    </clipPath>
    <clipPath id="305cj">
      <use href="#305ce"/>
    </clipPath>
  </defs>
  <g data-strokesvg="shadows" style="fill:var(--shadow,#ccc)">
    <path id="305ca" d="M399 486a5186 5186 0 0 1 225-42l62-10a2845 2845 0 0 1 215-26l28-6q13-3 15-16v-2q0-15-18-28a67 67 0 0 0-42-14h-2q-9 0-19 6-9 6-14 6l-156 21-62 11a3600 3600 0 0 0-233 42l-62 12-183 40-31 5h-7l-7-1-22-4-9 3q-3 2-3 6 0 9 10 22 10 14 25 24 15 9 27 10l6-1 22-4 174-40z"/>
    <path id="305cb" d="M624 444q-7 54-16 100-8 46-19 72l-72-46-14-9q-7-4-13-4l-5 3q-3 2-3 6 0 6 11 23l27 37 33 39 29 28q8 6 17 6 12 0 23-7 9-8 20-34 12-25 22-78 9-53 22-146l7-59 16-179v-14q0-17-9-27-7-12-43-16h-10l-11 2q-6 2-6 6 0 6 4 12l7 10 2 5 2 7 1 9-3 56-12 140z"/>
    <path id="305cc" d="M708 872h47q13 1 27-5 16-4 16-21 0-10-10-20-9-9-21-16t-19-7l-16 1-22 3-28 1q-92 0-145-14-54-15-81-40-27-27-37-63a541 541 0 0 1-17-132l-3-73-1-58-2-79v-81l-3-17q-2-11-14-20-11-8-41-8-21 1-22 10v3l3 8q4 4 7 9l4 9 3 10v33l1 61 2 74 2 60 5 109q7 87 34 140 27 52 74 78 45 27 110 36 64 9 147 9"/>
    <path id="305cd" d="M915 291q0-6-3-12l-16-20q-14-16-34-35-19-19-37-34-16-14-24-14-10 0-19 9-7 10-7 20 0 9 5 13 21 18 43 42 23 24 43 52 6 10 18 10 8 0 19-8 12-7 12-23"/>
    <path id="305ce" d="M962 266q12 0 21-10 9-11 9-22 0-6-5-15-5-10-26-31-22-21-71-60-5-4-12-4-11 0-20 8-8 8-8 18 0 8 7 14 17 13 42 40 25 26 44 52 8 10 19 10"/>
  </g>
  <g data-strokesvg="strokes" style="stroke:var(--stroke,#000);fill:none;stroke-width:128;stroke-linecap:round">
    <path style="--i:0" d="m8 505 877-120" clip-path="url(#305cf)"/>
    <path style="--i:1" d="M601 84c109 35 96 427 37 596l-101-96" clip-path="url(#305cg)"/>
    <path style="--i:2" d="M272 179c196 16-109 756 465 664" clip-path="url(#305ch)"/>
    <path style="--i:3" d="m731 141 131 129" clip-path="url(#305ci)"/>
    <path style="--i:4" d="m814 83 125 130" clip-path="url(#305cj)"/>
  </g>
</svg>
