<svg data-strokesvg="ãœ" viewBox="0 0 1024 1024" xmlns="http://www.w3.org/2000/svg">
  <defs>
    <clipPath id="305cf">
      <use href="#305ca"/>
    </clipPath>
    <clipPath id="305cg">
      <use href="#305cb"/>
    </clipPath>
    <clipPath id="305ch">
      <use href="#305cc"/>
    </clipPath>
    <clipPath id="305ci">
      <use href="#305cd"/>
    </clipPath>
    <clipPath id="305cj">
      <use href="#305ce"/>
    </clipPath>
  </defs>
  <g data-strokesvg="shadows" style="fill:var(--shadow,#ccc)">
    <path id="305ca" d="M399 486a5186 5186 0 0 1 225-42l62-10a2845 2845 0 0 1 215-26l28-6c9-2 14-7 15-16v-2c0-10-6-19-18-28a67 67 0 0 0-42-14h-2c-6 0-13 2-19 6s-11 6-14 6a3956 3956 0 0 0-156 21l-62 11a3600 3600 0 0 0-233 42l-62 12a5028 5028 0 0 0-183 40 844 844 0 0 0-31 5h-7l-7-1a357 357 0 0 0-22-4l-9 3c-2 1-3 3-3 6 0 6 3 13 10 22s15 17 25 24c10 6 19 10 27 10l6-1 22-4a25914 25914 0 0 0 174-40z"/>
    <path id="305cb" d="M624 444c-5 36-10 69-16 100-5 30-12 55-19 72l-72-46-14-9c-5-3-9-4-13-4l-5 3c-2 1-3 4-3 6 0 4 4 12 11 23l27 37 33 39 29 28c5 4 11 6 17 6 8 0 16-2 23-7 6-5 13-17 20-34 8-17 15-43 22-78 6-36 14-84 22-146l7-59a4050 4050 0 0 0 16-179v-14c0-11-3-21-9-27-4-8-19-13-43-16h-10l-11 2c-4 1-6 3-6 6 0 4 1 8 4 12l7 10 2 5 2 7 1 9-3 56a3225 3225 0 0 1-12 140z"/>
    <path id="305cc" d="M708 872h47c9 0 18-1 27-5 11-3 16-10 16-21 0-7-3-13-10-20-6-6-13-12-21-16-8-5-14-7-19-7l-16 1-22 3-28 1c-61 0-110-5-145-14-36-10-63-23-81-40-18-18-30-39-37-63a541 541 0 0 1-17-132l-3-73-1-58-2-79v-81l-3-17c-1-8-6-14-14-20-8-5-21-8-41-8-14 0-21 4-22 10v3l3 8c3 2 5 6 7 9l4 9 3 10v33l1 61 2 74 2 60a2921 2921 0 0 1 5 109c5 58 16 104 34 140 18 34 43 61 74 78 30 18 67 30 110 36s92 9 147 9z"/>
    <path id="305cd" d="M915 291q0-6-3-12l-16-20q-14-16-34-35-19-19-37-34-16-14-24-14-10 0-19 9-7 10-7 20 0 9 5 13 21 18 43 42 23 24 43 52 6 10 18 10 8 0 19-8 12-7 12-23z"/>
    <path id="305ce" d="M962 266q12 0 21-10 9-11 9-22 0-6-5-15-5-10-26-31-22-21-71-60-5-4-12-4-11 0-20 8-8 8-8 18 0 8 7 14 17 13 42 40 25 26 44 52 8 10 19 10z"/>
  </g>
  <g data-strokesvg="strokes" style="stroke:var(--stroke,#000);fill:none;stroke-width:128;stroke-linecap:round">
    <path style="--i:0" d="m8 505 877-120" clip-path="url(#305cf)"/>
    <path style="--i:1" d="M601 84c109 35 96 427 37 596l-101-96" clip-path="url(#305cg)"/>
    <path style="--i:2" d="M272 179c196 16-109 756 465 664" clip-path="url(#305ch)"/>
    <path style="--i:3" d="m731 141 131 129" clip-path="url(#305ci)"/>
    <path style="--i:4" d="m814 83 125 130" clip-path="url(#305cj)"/>
  </g>
</svg>
