<svg data-strokesvg="ã" viewBox="0 0 1024 1024" xmlns="http://www.w3.org/2000/svg">
  <defs>
    <clipPath id="305db">
      <use href="#305da"/>
    </clipPath>
  </defs>
  <g data-strokesvg="shadows" style="fill:var(--shadow,#ccc)">
    <path id="305da" d="M785 419h-3l-32 5-79 15-109 23q-58 12-120 28-60 16-113 33 69-63 127-123l103-108q46-49 78-79l15-17q8-10 8-20 0-9-9-16l-16-9q-6-5-14-5-7 0-18 4l-12 3q-79 21-139 32-61 11-96 15l-35 3h-9l-13-3-12-2-5 1q-3 0-3 5 0 4 7 19t19 28q13 12 30 12l36-5 80-16 99-26-123 138q-59 65-111 114-50 49-87 76-6 4-17 7l-16 5q-18 5-25 11t-7 15q0 4 5 15 5 10 15 19 12 10 28 10 10 0 19-4l141-54q80-29 155-48-39 27-70 62-31 34-49 70-19 36-20 68v5q0 47 20 82 20 34 51 57 31 24 66 38 36 14 68 22t53 10l24 3q26 0 31-9 6-9 6-17 0-11-8-22-7-12-20-20-8-4-16-3-9 1-20-2l-66-17q-34-9-63-24-29-14-47-37-17-23-17-59v-8q3-54 35-96 34-43 84-74 51-31 103-47 13-5 39-7l54-6 43-6q32-7 32-21 0-6-3-12-4-12-18-21-13-9-34-10z"/>
  </g>
  <g data-strokesvg="strokes" style="stroke:var(--stroke,#000);fill:none;stroke-width:128;stroke-linecap:round">
    <path style="--i:0" d="M212 196c155 39 415-79 415-79-122 228-347 311-436 480 287-158 385-163 596-160-20 22-703 261-138 458" clip-path="url(#305db)"/>
  </g>
</svg>
