<svg data-strokesvg="ã¡" viewBox="0 0 1024 1024" xmlns="http://www.w3.org/2000/svg">
  <defs>
    <clipPath id="3061c">
      <use href="#3061a"/>
    </clipPath>
    <clipPath id="3061d">
      <use href="#3061b"/>
    </clipPath>
  </defs>
  <g data-strokesvg="shadows" style="fill:var(--shadow,#ccc)">
    <path id="3061a" d="M657 318v-1c0-9-7-17-21-24-13-7-25-10-36-10l-3 1h-3a54 54 0 0 0-22 8c-8 5-28 11-58 18s-63 14-99 20l-64 10a54166 54166 0 0 0-133 18h-10a229 229 0 0 0-22-4l-10-2-8 2-1 4c0 5 3 12 9 21s14 17 24 24c9 8 19 12 28 12h13l28-5 75-13 63-10 137-26c34-6 59-12 74-16 17-5 27-9 32-13s7-9 7-14z"/>
    <path id="3061b" d="M415 330a2449 2449 0 0 1 30-174c0-12-5-20-15-26-9-6-19-10-30-12l-19-3c-7 0-11 1-13 5l-1 2v1c0 3 1 6 4 9l6 9c2 4 3 10 3 16v4a5611 5611 0 0 0-29 179l-7 57a45956 45956 0 0 1-26 207 4791 4791 0 0 0-8 92c0 17 6 29 17 34s18 7 23 7c7 0 15-3 24-9l58-46c22-17 48-33 78-47a320 320 0 0 1 138-32c31 0 57 6 79 18 23 11 35 29 37 52v6l1 5c0 31-11 59-33 84-21 25-49 46-83 65-34 18-70 34-107 48-38 13-73 25-106 34-18 7-27 13-27 19v2l1 2c0 4 5 6 13 6l38-5a781 781 0 0 0 178-44c34-12 66-28 95-46 30-19 54-40 73-66s29-56 29-90l-3-34c-8-36-28-63-61-81-32-20-71-29-116-29-47 0-95 9-143 28-48 18-94 44-139 76l7-71 11-95 15-100z"/>
  </g>
  <g data-strokesvg="strokes" style="stroke:var(--stroke,#000);fill:none;stroke-width:128;stroke-linecap:round">
    <path style="--i:0" d="m101 357 504-14" clip-path="url(#3061c)"/>
    <path style="--i:1" d="M320 69c179 96-18 468-18 642 395-235 501-111 491-3S643 900 469 926" clip-path="url(#3061d)"/>
  </g>
</svg>
