<svg data-strokesvg="ã¡" viewBox="0 0 1024 1024" xmlns="http://www.w3.org/2000/svg">
  <defs>
    <clipPath id="3061c">
      <use href="#3061a"/>
    </clipPath>
    <clipPath id="3061d">
      <use href="#3061b"/>
    </clipPath>
  </defs>
  <g data-strokesvg="shadows" style="fill:var(--shadow,#ccc)">
    <path id="3061a" d="M657 318zq0-14-21-24-19-10-36-10l-3 1h-3a54 54 0 0 0-22 8q-12 8-58 18-45 11-99 20l-64 10-133 18h-10l-22-4-10-2-8 2-1 4q0 7 9 21 9 13 24 24 14 12 28 12h13l28-5 75-13 63-10 137-26q51-9 74-16 25-7 32-13t7-14"/>
    <path id="3061b" d="M415 330a2449 2449 0 0 1 30-174q0-18-15-26-13-9-30-12l-19-3q-10 0-13 5l-1 2v1q0 5 4 9l6 9q3 7 3 16v4l-29 179-7 57-26 207-8 92q0 26 17 34 16 7 23 7 10 0 24-9l58-46q33-26 78-47a320 320 0 0 1 138-32q46 0 79 18 34 17 37 52v6l1 5q0 46-33 84-32 37-83 65-51 27-107 48-57 20-106 34-27 10-27 19v2l1 2q1 6 13 6l38-5q33-4 80-15t98-29q51-19 95-46 45-28 73-66 29-39 29-90l-3-34q-12-54-61-81-48-30-116-29-71 0-143 28t-139 76l7-71 11-95 15-100z"/>
  </g>
  <g data-strokesvg="strokes" style="stroke:var(--stroke,#000);fill:none;stroke-width:128;stroke-linecap:round">
    <path style="--i:0" d="m101 357 504-14" clip-path="url(#3061c)"/>
    <path style="--i:1" d="M320 69c179 96-18 468-18 642 395-235 501-111 491-3S643 900 469 926" clip-path="url(#3061d)"/>
  </g>
</svg>
