<svg data-strokesvg="ã¤" viewBox="0 0 1024 1024" xmlns="http://www.w3.org/2000/svg">
  <defs>
    <clipPath id="3064b">
      <use href="#3064a"/>
    </clipPath>
  </defs>
  <g data-strokesvg="shadows" style="fill:var(--shadow,#ccc)">
    <path id="3064a" d="M887 514v-9q-4-112-79-164-74-53-194-53-92 0-204 29-112 30-233 86-8 5-17 6l-18 1h-13l-11-1q-7 0-9 2-3 1-3 5 0 8 12 22 11 14 26 25 16 11 28 11 10 0 19-5l24-12q110-51 212-79 102-29 183-29 91 0 147 39 56 38 56 120 0 48-29 88-27 39-73 71-45 31-99 56-53 23-105 41l-91 27q-38 10-38 23 0 11 29 11l32-3q29-4 72-13t93-25q51-16 101-40 50-23 91-55 41-33 65-76 26-44 26-99z"/>
  </g>
  <g data-strokesvg="strokes" style="stroke:var(--stroke,#000);fill:none;stroke-width:128;stroke-linecap:round">
    <path style="--i:0" d="M41 400c172 104 644-251 786 17 159 302-395 413-395 413" clip-path="url(#3064b)"/>
  </g>
</svg>
