<svg data-strokesvg="ã¥" viewBox="0 0 1024 1024" xmlns="http://www.w3.org/2000/svg">
  <defs>
    <clipPath id="3065d">
      <use href="#3065a"/>
    </clipPath>
    <clipPath id="3065e">
      <use href="#3065b"/>
    </clipPath>
    <clipPath id="3065f">
      <use href="#3065c"/>
    </clipPath>
  </defs>
  <g data-strokesvg="shadows" style="fill:var(--shadow,#ccc)">
    <path id="3065a" d="M887 514v-9q-4-112-79-164-74-53-194-53-92 0-204 29-112 30-233 86-8 5-17 6l-18 1h-13l-11-1q-7 0-9 2-3 1-3 5 0 8 12 22 11 14 26 25 16 11 28 11 10 0 19-5l24-12q110-51 212-79 102-29 183-29 91 0 147 39 56 38 56 120 0 48-29 88-27 39-73 71-45 31-99 56-53 23-105 41l-91 27q-38 10-38 23 0 11 29 11l32-3q29-4 72-13t93-25q51-16 101-40 50-23 91-55 41-33 65-76 26-44 26-99z"/>
    <path id="3065b" d="M890 335q13 0 21-9 9-11 9-22 0-9-5-14-6-9-26-28l-41-37q-22-18-34-25-6-3-11-3-10 0-19 9-8 8-8 18 0 12 8 17 27 19 46 41 21 20 40 44 9 9 20 9z"/>
    <path id="3065c" d="M994 246q0-5-3-10-2-7-5-11-6-8-25-24-19-17-40-33l-37-26q-6-3-13-3-10 0-18 8-7 9-7 18t7 15q12 7 31 25l36 35 25 26q9 10 19 10 6 0 18-8 12-9 12-22z"/>
  </g>
  <g data-strokesvg="strokes" style="stroke:var(--stroke,#000);fill:none;stroke-width:128;stroke-linecap:round">
    <path style="--i:0" d="M41 400c172 104 644-251 786 17 159 302-395 413-395 413" clip-path="url(#3065d)"/>
    <path style="--i:1" d="m726 173 140 111" clip-path="url(#3065e)"/>
    <path style="--i:2" d="m799 108 141 115" clip-path="url(#3065f)"/>
  </g>
</svg>
