<svg data-strokesvg="ã§" viewBox="0 0 1024 1024" xmlns="http://www.w3.org/2000/svg">
  <defs>
    <clipPath id="3067d">
      <use href="#3067a"/>
    </clipPath>
    <clipPath id="3067e">
      <use href="#3067b"/>
    </clipPath>
    <clipPath id="3067f">
      <use href="#3067c"/>
    </clipPath>
  </defs>
  <g data-strokesvg="shadows" style="fill:var(--shadow,#ccc)">
    <path id="3067a" d="M785 889v-2q-1-24-16-37-14-14-41-14h-10l-10-2q-59-15-109-41-49-28-80-73t-31-113q0-48 21-97t55-93q34-45 74-81t78-56q12-9 24-8 13 0 34-3l31-4q11-3 11-18v-5q-1-11-12-21-10-10-25-16-13-7-22-7h-4q-10 1-19 5-8 4-18 6-91 12-230 44-137 31-311 78l-8 2h-7l-20-2q-9-3-16-3-12 0-12 11 0 12 14 29 14 16 28 25 12 6 22 6l14-2 18-5q66-24 140-45l144-37q69-16 119-25-29 24-62 62t-62 83q-27 45-46 92-17 47-17 89 0 75 28 129t73 89q45 36 97 57 51 19 98 25 20 3 34 3 15 0 23-6 8-5 8-19z"/>
    <path id="3067b" d="m916 240-2-11q-4-7-17-20-12-14-29-30-15-16-29-28l-22-19q-7-6-15-6-10 0-18 8-6 8-6 18 0 9 6 15 16 14 38 41 23 25 43 56 8 9 18 9 15 0 24-11 9-12 9-22z"/>
    <path id="3067c" d="M969 223q20 0 26-13 6-14 6-22 0-6-12-19-11-14-28-31l-35-29-26-21q-6-5-16-5-11 0-19 7-7 7-7 16 0 10 8 17 17 13 39 39 23 24 45 52 8 9 19 9z"/>
  </g>
  <g data-strokesvg="strokes" style="stroke:var(--stroke,#000);fill:none;stroke-width:128;stroke-linecap:round">
    <path style="--i:0" d="M55 300c158 134 381-111 729-91-373 223-424 563-61 677" clip-path="url(#3067d)"/>
    <path style="--i:1" d="m737 87 127 131" clip-path="url(#3067e)"/>
    <path style="--i:2" d="m820 42 129 128" clip-path="url(#3067f)"/>
  </g>
</svg>
