<svg data-strokesvg="ã¨" viewBox="0 0 1024 1024" xmlns="http://www.w3.org/2000/svg">
  <defs>
    <clipPath id="3068c">
      <use href="#3068a"/>
    </clipPath>
    <clipPath id="3068d">
      <use href="#3068b"/>
    </clipPath>
  </defs>
  <g data-strokesvg="shadows" style="fill:var(--shadow,#ccc)">
    <path id="3068a" d="M511 470c-12-23-23-50-35-83a3602 3602 0 0 1-62-197c-4-13-9-20-17-22a125 125 0 0 0-59-1c-9 1-14 5-16 10l-1 2v1c0 4 2 7 7 9 4 2 8 5 11 9a87 87 0 0 1 14 21l30 93c10 34 21 67 33 100 11 32 24 63 38 91 14 30 74 5 57-33z"/>
    <path id="3068b" d="m762 806-14 3c-15 6-37 11-65 15a1095 1095 0 0 1-163 10h-19l-15-1c-49-4-89-13-120-27-32-14-48-37-50-67v-2c0-24 10-48 29-71 20-25 45-49 77-71a874 874 0 0 1 209-113 980 980 0 0 1 132-46c6-4 9-11 9-21 0-7-2-16-5-27s-7-21-12-30c-5-8-10-13-16-13h-2c-5 2-9 8-12 16-2 9-7 14-14 18l-103 43c-30 13-63 29-97 48l-57 33c-37 21-70 44-101 70-30 26-55 54-74 82s-28 57-28 86v3c1 39 14 69 39 93 24 22 59 39 102 49 44 10 95 15 154 15a1897 1897 0 0 0 172-10c27-4 49-7 64-11 24-7 36-17 36-30 0-12-5-22-16-31s-24-13-40-13z"/>
  </g>
  <g data-strokesvg="strokes" style="stroke:var(--stroke,#000);fill:none;stroke-width:128;stroke-linecap:round">
    <path style="--i:0" d="M282 122c101 69 201 332 201 332" clip-path="url(#3068c)"/>
    <path style="--i:1" d="M758 281c18 256-433 228-457 436-21 188 459 147 459 147" clip-path="url(#3068d)"/>
  </g>
</svg>
