<svg data-strokesvg="ãª" viewBox="0 0 1024 1024" xmlns="http://www.w3.org/2000/svg">
  <defs>
    <clipPath id="306af">
      <use href="#306aa"/>
    </clipPath>
    <clipPath id="306ag">
      <use href="#306ab"/>
    </clipPath>
    <clipPath id="306ah">
      <use href="#306ac"/>
    </clipPath>
    <clipPath id="306ai">
      <use href="#306ad"/>
    </clipPath>
    <clipPath id="306aj">
      <use href="#306ae"/>
    </clipPath>
  </defs>
  <g data-strokesvg="shadows" style="fill:var(--shadow,#ccc)">
    <path id="306aa" d="M376 286a1866 1866 0 0 1-177 27h-19l-10-2-11-3-11-2c-6 0-10 2-10 6 0 6 3 14 9 23 7 9 15 17 25 24s19 11 29 11l51-6 102-19 71-13c62-13 108-23 137-32 30-10 44-19 44-30 0-6-4-13-11-21-8-9-23-13-45-13-4 0-8 1-12 4l-13 6a431 431 0 0 1-79 23z"/>
    <path id="306ab" d="M414 143v8l-3 14-11 41c-4 19-13 46-24 80l-22 59a1172 1172 0 0 1-150 284l-13 15c-4 8-7 16-7 26 0 11 3 21 10 29 6 9 15 13 24 13 6 0 11-2 18-6 6-5 12-11 18-20 38-61 71-120 98-179 28-59 52-117 73-175l21-63a4454 4454 0 0 0 36-117c0-11-4-19-14-24s-19-9-30-11l-19-3c-6 0-10 1-11 5l-1 4 3 9 4 11z"/>
    <path id="306ac" d="M811 414q-9 3-23 5l-20 4q-10 1-19 6-10 4-10 9 0 8 17 15 17 5 41 8l47 2q21 0 36-5t15-27q0-19-28-48-27-29-69-58-41-31-84-53l-7-3-8-1q-10 0-20 11-7 9-7 15 0 9 11 16 39 23 69 46 30 24 59 58z"/>
    <g>
      <path id="306ad" d="M615 467c-6 0-10 5-14 16-3 11-5 24-6 41l-1 53v93l1 48v23l-6 59c-8 23-22 40-44 52a144 144 0 0 1-110 12c-13-2-25-7-36-13-10-7-15-16-15-29 1-14-58-17-58-2v4c0 15 6 31 16 47 11 16 27 29 49 40 22 12 50 18 84 20h11c33 0 61-6 83-18a160 160 0 0 0 80-90c5-17 6-40 6-63a2921 2921 0 0 0-17-257c-1-10-3-19-8-26-4-7-9-10-15-10z"/>
      <path id="306ae" d="M472 727c-44 0-80 9-106 27-27 17-40 39-40 66 0 24 58 19 58 2 0-11 5-20 15-26 11-6 23-11 38-13l44-3a404 404 0 0 1 282 128c9 10 18 15 27 15s17-5 22-14c6-9 9-18 9-28 0-11-3-20-10-27l-40-31a515 515 0 0 0-116-63 508 508 0 0 0-170-33z"/>
    </g>
  </g>
  <g data-strokesvg="strokes" style="stroke:var(--stroke,#000);fill:none;stroke-width:128;stroke-linecap:round">
    <path style="--i:0" d="m72 312 481-19" clip-path="url(#306af)"/>
    <path style="--i:1" d="M386 54c159 71-144 613-144 613" clip-path="url(#306ag)"/>
    <path style="--i:2" d="m636 224 251 162-88 42" clip-path="url(#306ah)"/>
    <g style="--i:3">
      <path d="M616 399c114 498-111 503-111 503s-64 5-107-12c-86-34-24-291 394-28" clip-path="url(#306ai)"/>
      <path d="M505 1473V902s-64 5-107-12c-86-34-24-291 394-28" clip-path="url(#306aj)"/>
    </g>
  </g>
</svg>
