<svg data-strokesvg="ãª" viewBox="0 0 1024 1024" xmlns="http://www.w3.org/2000/svg">
  <defs>
    <clipPath id="306af">
      <use href="#306aa"/>
    </clipPath>
    <clipPath id="306ag">
      <use href="#306ab"/>
    </clipPath>
    <clipPath id="306ah">
      <use href="#306ac"/>
    </clipPath>
    <clipPath id="306ai">
      <use href="#306ad"/>
    </clipPath>
    <clipPath id="306aj">
      <use href="#306ae"/>
    </clipPath>
  </defs>
  <g data-strokesvg="shadows" style="fill:var(--shadow,#ccc)">
    <path id="306aa" d="M376 286a1866 1866 0 0 1-177 27h-19l-10-2-11-3-11-2q-9 0-10 6 0 9 9 23 10 14 25 24 15 11 29 11l51-6 102-19 71-13q93-19 137-32 45-14 44-30 0-9-11-21-12-13-45-13-6 0-12 4l-13 6a431 431 0 0 1-79 23z"/>
    <path id="306ab" d="M414 143v8l-3 14-11 41q-7 29-24 80l-22 59a1172 1172 0 0 1-150 284l-13 15q-6 12-7 26 0 17 10 29 10 13 24 13 8 0 18-6 9-7 18-20 57-91 98-179 42-88 73-175l21-63 36-117q0-16-14-24t-30-11l-19-3q-9 0-11 5l-1 4 3 9z"/>
    <path id="306ac" d="M811 414q-9 3-23 5l-20 4q-10 1-19 6-10 4-10 9 0 8 17 15 17 5 41 8l47 2q21 0 36-5t15-27q0-19-28-48-27-29-69-58-41-31-84-53l-7-3-8-1q-10 0-20 11-7 9-7 15 0 9 11 16 39 23 69 46 30 24 59 58"/>
    <g>
      <path id="306ad" d="M615 467q-8 0-14 16-4 16-6 41l-1 53v93l1 48v23l-6 59q-12 34-44 52a144 144 0 0 1-110 12q-19-4-36-13-15-10-15-29c1-14-58-17-58-2v4q0 23 16 47t49 40q33 18 84 20h11q50 0 83-18a160 160 0 0 0 80-90q7-27 6-63 0-45-4-103-3-59-13-154-1-15-8-26-6-10-15-10"/>
      <path id="306ae" d="M472 727q-67 0-106 27-40 25-40 66c0 24 58 19 58 2q0-17 15-26 16-9 38-13l44-3q28 1 57 7a404 404 0 0 1 225 121q13 15 27 15t22-14 9-28-10-27l-40-31a515 515 0 0 0-116-63 508 508 0 0 0-170-33z"/>
    </g>
  </g>
  <g data-strokesvg="strokes" style="stroke:var(--stroke,#000);fill:none;stroke-width:128;stroke-linecap:round">
    <path style="--i:0" d="m72 312 481-19" clip-path="url(#306af)"/>
    <path style="--i:1" d="M386 54c159 71-144 613-144 613" clip-path="url(#306ag)"/>
    <path style="--i:2" d="m636 224 251 162-88 42" clip-path="url(#306ah)"/>
    <g style="--i:3">
      <path d="M616 399c114 498-111 503-111 503s-64 5-107-12c-86-34-24-291 394-28" clip-path="url(#306ai)"/>
      <path d="M505 1473V902s-64 5-107-12c-86-34-24-291 394-28" clip-path="url(#306aj)"/>
    </g>
  </g>
</svg>
