<svg data-strokesvg="ã¬" viewBox="0 0 1024 1024" xmlns="http://www.w3.org/2000/svg">
  <defs>
    <clipPath id="306ce">
      <use href="#306ca"/>
    </clipPath>
    <clipPath id="306cf">
      <use href="#306cb"/>
    </clipPath>
    <clipPath id="306cg">
      <use href="#306cc"/>
    </clipPath>
    <clipPath id="306ch">
      <use href="#306cd"/>
    </clipPath>
  </defs>
  <g data-strokesvg="shadows" style="fill:var(--shadow,#ccc)">
    <path id="306ca" d="M236 244q-19 0-20 7v2q0 4 4 8l9 8q12 13 13 27a3485 3485 0 0 0 28 171l15 67q20 87 43 155l23 64q19 47 30 65 12 18 28 18 13 0 21-15 9-15 8-27 1-10-5-19l-12-19-28-53-22-66-20-72-16-76-12-61-24-140-3-19q-1-10-7-14-3-5-16-6z"/>
    <g>
      <path id="306cb" d="M561 137q-11 0-14 5l-1 3q0 5 4 11a45 45 0 0 1 7 23l1 6q0 10-6 37a1275 1275 0 0 1-32 115l-22 63q-19 55-52 117-31 63-75 120l-43 52a604 604 0 0 1-113 93q-6 0-15-13t-17-32q-6-18-6-35c0-17-62-19-62 3q-1 38 14 71 16 34 37 54 23 21 42 21 15 0 40-14 26-15 53-37a474 474 0 0 0 92-97q60-72 105-158 46-87 73-164l19-59a949 949 0 0 0 27-109q7-27 7-37l-1-7q-3-12-16-18-12-8-25-11z"/>
      <path id="306cc" d="M664 315a474 474 0 0 0-144 22 626 626 0 0 0-197 91l-53 39q-37 32-73 71t-60 80-22 87c0 20 63 18 62-3q0-35 25-75 25-42 83-93l50-45a595 595 0 0 1 236-108 510 510 0 0 1 137-6q31 3 61 24 31 20 50 59 21 37 21 94v16q-4 54-21 96a281 281 0 0 1-83 114q-49 42-100 43l-37-3q-18-4-32-12-12-9-12-26c0-15-56-16-57 0v5q0 36 31 65 33 27 100 28h9a234 234 0 0 0 153-62 300 300 0 0 0 95-152q19-62 19-124a290 290 0 0 0-20-100 190 190 0 0 0-110-106q-43-19-111-19"/>
      <path id="306cd" d="M629 688q-60 0-94 28a85 85 0 0 0-37 64c-2 25 57 21 57 0q0-17 19-26 21-10 53-10h5q25 2 52 11t52 23l55 38a467 467 0 0 1 76 82q9 10 21 10 16 0 24-14 9-15 9-25 0-6-7-17-6-12-24-31-18-20-56-51l-55-36q-31-17-64-29-34-13-70-16h-8z"/>
    </g>
  </g>
  <g data-strokesvg="strokes" style="stroke:var(--stroke,#000);fill:none;stroke-width:128;stroke-linecap:round">
    <path style="--i:0" d="m198 183 227 594" clip-path="url(#306ce)"/>
    <g style="--i:1">
      <path d="M513 83c204 179-153 637-153 637s-119 130-177 74C48 663 272 458 538 368c228-78 402 89 327 302-67 190-197 188-197 188s-126 10-133-63c-12-143 190-79 335 58" clip-path="url(#306cf)"/>
      <path d="M360 1428V720s-119 130-177 74C48 663 272 458 538 368c228-78 402 89 327 302-67 190-197 188-197 188s-126 10-133-63c-12-143 190-79 335 58" clip-path="url(#306cg)"/>
      <path d="M668 3284V858s-126 10-133-63c-12-143 190-79 335 58" clip-path="url(#306ch)"/>
    </g>
  </g>
</svg>
