<svg data-strokesvg="ã¬" viewBox="0 0 1024 1024" xmlns="http://www.w3.org/2000/svg">
  <defs>
    <clipPath id="306ce">
      <use href="#306ca"/>
    </clipPath>
    <clipPath id="306cf">
      <use href="#306cb"/>
    </clipPath>
    <clipPath id="306cg">
      <use href="#306cc"/>
    </clipPath>
    <clipPath id="306ch">
      <use href="#306cd"/>
    </clipPath>
  </defs>
  <g data-strokesvg="shadows" style="fill:var(--shadow,#ccc)">
    <path id="306ca" d="M236 244c-13 0-19 2-20 7v2c0 3 1 5 4 8l9 8c8 9 12 17 13 27a3485 3485 0 0 0 28 171l15 67c13 58 28 110 43 155l23 64c13 31 22 53 30 65s17 18 28 18c9 0 16-5 21-15 6-10 8-19 8-27 0-7-1-13-5-19l-12-19a714 714 0 0 1-28-53l-22-66-20-72-16-76-12-61-24-140-3-19c-1-7-3-11-7-14-2-3-7-5-16-6a302 302 0 0 0-37-5z"/>
    <g>
      <path id="306cb" d="M561 137c-7 0-12 2-14 5l-1 3c0 3 1 7 4 11a45 45 0 0 1 7 23l1 6a1275 1275 0 0 1-38 152l-22 63c-13 37-30 75-52 117-21 42-46 82-75 120l-43 52a604 604 0 0 1-113 93c-4 0-9-4-15-13s-12-19-17-32c-4-12-6-24-6-35 0-17-62-19-62 3a172 172 0 0 0 51 126c15 13 29 20 42 20 10 0 23-5 40-14a474 474 0 0 0 145-133 1200 1200 0 0 0 178-323l19-59a949 949 0 0 0 27-109c5-18 7-30 7-37l-1-7c-2-8-8-14-16-18-8-5-16-9-25-11l-21-3z"/>
      <path id="306cc" d="M664 315a474 474 0 0 0-144 22 626 626 0 0 0-197 91l-53 39c-25 21-49 45-73 71s-44 53-60 80c-15 28-22 57-22 87 0 20 63 18 62-3 0-23 8-49 25-75 17-28 44-59 83-93l50-45a595 595 0 0 1 236-108 510 510 0 0 1 137-6 151 151 0 0 1 112 83c13 25 20 56 20 94v16c-3 36-10 68-21 96a281 281 0 0 1-83 114c-33 28-66 43-100 43l-37-3c-12-3-23-7-32-12-8-6-12-15-12-26 0-15-56-16-57 0v5c0 24 10 46 31 65 22 18 55 28 100 28h9a234 234 0 0 0 153-62 300 300 0 0 0 95-152c13-41 19-83 19-124a290 290 0 0 0-20-100 190 190 0 0 0-110-106c-29-12-66-19-111-19z"/>
      <path id="306cd" d="M629 688c-40 0-71 9-94 28a85 85 0 0 0-37 64c-2 25 57 21 57 0 0-11 6-20 19-26 14-6 32-10 53-10h5c17 1 34 5 52 11s35 14 52 23l55 38a467 467 0 0 1 76 82c6 7 13 10 21 10 11 0 19-4 24-14 6-10 9-18 9-25 0-4-2-10-7-17a516 516 0 0 0-81-82l-54-36c-20-11-42-21-64-29-23-9-46-14-70-16h-8l-8-1z"/>
    </g>
  </g>
  <g data-strokesvg="strokes" style="stroke:var(--stroke,#000);fill:none;stroke-width:128;stroke-linecap:round">
    <path style="--i:0" d="m198 183 227 594" clip-path="url(#306ce)"/>
    <g style="--i:1">
      <path d="M513 83c204 179-153 637-153 637s-119 130-177 74C48 663 272 458 538 368c228-78 402 89 327 302-67 190-197 188-197 188s-126 10-133-63c-12-143 190-79 335 58" clip-path="url(#306cf)"/>
      <path d="M360 1428V720s-119 130-177 74C48 663 272 458 538 368c228-78 402 89 327 302-67 190-197 188-197 188s-126 10-133-63c-12-143 190-79 335 58" clip-path="url(#306cg)"/>
      <path d="M668 3284V858s-126 10-133-63c-12-143 190-79 335 58" clip-path="url(#306ch)"/>
    </g>
  </g>
</svg>
