<svg data-strokesvg="ã­" viewBox="0 0 1024 1024" xmlns="http://www.w3.org/2000/svg">
  <defs>
    <clipPath id="306dd">
      <use href="#306da"/>
    </clipPath>
    <clipPath id="306de">
      <use href="#306db"/>
    </clipPath>
    <clipPath id="306df">
      <use href="#306dc"/>
    </clipPath>
  </defs>
  <g data-strokesvg="shadows" style="fill:var(--shadow,#ccc)">
    <path id="306da" d="M327 134q-13 0-16 6l-1 2v1q1 5 4 9 6 3 8 9 5 7 5 18l-15 174-4 65-2 41-8 169-3 152v39l2 32v2l-2 14-2 16v2q0 18 11 36 12 18 27 18 16 0 22-11 8-11 8-26v-7q1-12-2-27l-2-21q-3-54-3-129l3-157 3-80 1-17 9-129a2185 2185 0 0 1 20-164q0-18-15-25t-30-10z"/>
    <g>
      <path id="306db" d="M676 278a210 210 0 0 0-92 26q-39 19-95 61-54 42-129 116l1-17a809 809 0 0 1 38-76q8-11 8-22-1-13-10-19-9-7-18-9l-9-3-58 18-47 21-101 40-11 3h-14l-7-1-6 2-1 3 8 16q9 14 22 26 14 12 31 12 8 0 14-3l14-7 46-26 48-21-2 41q-18 49-47 103a1831 1831 0 0 1-144 230q-6 6-5 16 0 14 12 27 12 12 26 12 17 0 24-17a974 974 0 0 1 82-137l44-65 59-67q28-36 68-75 41-39 86-74t86-57q41-22 70-22 52 0 85 60 32 59 36 167v18a507 507 0 0 1-25 153l-25 50q-17 28-43 46-25 19-61 21h-11q-33 0-61-11-28-12-28-31c0-17-58-22-58-2v8q3 21 20 44 17 22 48 37 30 14 72 14 52 0 86-14 36-16 59-37 24-21 37-41l27-54q17-43 23-93 7-51 7-99v-11a444 444 0 0 0-44-182q-21-43-55-71-33-27-80-27"/>
      <path id="306dc" d="M637 705q-42 0-79 12-36 12-59 35a70 70 0 0 0-23 52c0 19 58 17 58 2q0-19 16-30 17-10 41-14t45-4q24 0 50 6 27 6 52 17l60 34a380 380 0 0 1 81 77q8 11 20 11t22-7 14-17l1-6 1-6q0-14-17-33-18-19-43-39-27-20-52-34l-62-30q-61-24-120-26z"/>
    </g>
  </g>
  <g data-strokesvg="strokes" style="stroke:var(--stroke,#000);fill:none;stroke-width:128;stroke-linecap:round">
    <path style="--i:0" d="m351 55-20 825" clip-path="url(#306dd)"/>
    <g style="--i:1">
      <path d="M72 498c150-106 230-114 312-170-139 133-106 271-264 535 0 0 433-665 600-540 207 155 62 497-5 542-20 14-96 14-96 14s-168 1-93-115c44-65 289-43 372 88" clip-path="url(#306de)"/>
      <path d="M619 3389V879s-168 1-93-114c44-66 289-44 372 87" clip-path="url(#306df)"/>
    </g>
  </g>
</svg>
