<svg data-strokesvg="ã­" viewBox="0 0 1024 1024" xmlns="http://www.w3.org/2000/svg">
  <defs>
    <clipPath id="306dd">
      <use href="#306da"/>
    </clipPath>
    <clipPath id="306de">
      <use href="#306db"/>
    </clipPath>
    <clipPath id="306df">
      <use href="#306dc"/>
    </clipPath>
  </defs>
  <g data-strokesvg="shadows" style="fill:var(--shadow,#ccc)">
    <path id="306da" d="M327 134c-9 0-14 2-16 6l-1 2v1c0 3 2 6 4 9 4 2 6 5 8 9 3 5 5 11 5 18a8700 8700 0 0 1-15 174l-4 65-2 41-8 169a42087 42087 0 0 1-3 152v39l2 32v2l-2 14-2 16v2c0 12 4 24 11 36 8 12 17 18 27 18 11 0 18-4 22-11 5-8 8-16 8-26v-7c0-8 0-17-2-27l-2-21a4077 4077 0 0 1 0-286l3-80 1-17 9-129a2185 2185 0 0 1 20-164c0-12-5-20-15-25s-20-8-30-10l-18-2z"/>
    <g>
      <path id="306db" d="M676 278a210 210 0 0 0-92 26c-26 12-58 33-95 61-36 28-79 66-129 116l1-17a809 809 0 0 1 38-76c5-7 8-15 8-22 0-9-4-15-10-19-6-5-12-8-18-9l-9-3-58 18-47 21a10203 10203 0 0 1-101 40l-11 3h-14l-7-1-6 2-1 3 8 16c6 9 13 18 22 26s20 12 31 12c5 0 10-1 14-3l14-7 46-26 48-21-2 41c-12 33-28 67-47 103a1831 1831 0 0 1-144 230c-4 4-5 9-5 16 0 9 4 18 12 27 8 8 17 12 26 12 11 0 19-6 24-17a974 974 0 0 1 82-137l44-65 59-67a992 992 0 0 1 154-150c30-23 59-41 86-56s51-22 70-22c35 0 63 20 85 60 21 40 34 95 36 167v18a507 507 0 0 1-25 153l-25 50c-11 19-26 34-43 46-17 13-37 20-61 21h-11c-22 0-42-4-61-11-19-8-28-18-28-31 0-17-58-22-58-2v8c2 14 9 29 20 44 11 14 27 27 48 37a227 227 0 0 0 159 0 243 243 0 0 0 95-78l27-54c11-29 19-60 23-93 5-34 7-67 7-99v-11a444 444 0 0 0-44-182c-14-29-33-52-55-71-22-18-49-27-80-27z"/>
      <path id="306dc" d="M637 705c-28 0-54 4-79 12-24 8-44 20-59 35a70 70 0 0 0-23 52c0 19 58 17 58 2 0-13 5-23 16-30s25-11 41-14 31-4 45-4a293 293 0 0 1 102 24l60 33a380 380 0 0 1 81 77c5 7 12 11 20 11s15-2 22-7c6-5 11-11 14-17l1-6 1-6c0-9-6-20-17-33a441 441 0 0 0-94-73l-63-30c-41-16-81-25-120-26z"/>
    </g>
  </g>
  <g data-strokesvg="strokes" style="stroke:var(--stroke,#000);fill:none;stroke-width:128;stroke-linecap:round">
    <path style="--i:0" d="m351 55-20 825" clip-path="url(#306dd)"/>
    <g style="--i:1">
      <path d="M72 498c150-106 230-114 312-170-139 133-106 271-264 535 0 0 433-665 600-540 207 155 62 497-5 542-20 14-96 14-96 14s-168 1-93-115c44-65 289-43 372 88" clip-path="url(#306de)"/>
      <path d="M619 3389V879s-168 1-93-114c44-66 289-44 372 87" clip-path="url(#306df)"/>
    </g>
  </g>
</svg>
