<svg data-strokesvg="ã®" viewBox="0 0 1024 1024" xmlns="http://www.w3.org/2000/svg">
  <defs>
    <clipPath id="306ec">
      <use href="#306ea"/>
    </clipPath>
    <clipPath id="306ed">
      <use href="#306eb"/>
    </clipPath>
  </defs>
  <g data-strokesvg="shadows" style="fill:var(--shadow,#ccc)">
    <g>
      <path id="306ea" d="M463 279q2 6 3 13v8q-2 29-13 71a1062 1062 0 0 1-63 185q-19 46-39 85-18 39-36 62-16 23-27 23-4 0-19-11-13-12-30-34t-29-49-11-61c-1-17-63-22-63 0q0 55 25 110 25 54 81 104a73 73 0 0 0 74 14q14-5 24-18 33-40 62-94 30-54 52-113a1432 1432 0 0 0 80-275q0-12-7-17-6-6-16-13c-33-14-55-7-48 10"/>
      <path id="306eb" d="M550 210q-80 1-155 34a483 483 0 0 0-225 199q-34 64-34 128c1 30 64 22 63 0q0-29 15-71a372 372 0 0 1 131-167q51-37 118-54 26-6 48-10l20-1 23-1h4q94 0 149 35t78 91 24 119v16l-1 17q-5 56-35 107-29 51-74 93a671 671 0 0 1-181 127q-33 18-33 27l2 5q2 3 11 2 16 0 50-9 33-10 77-31 44-19 89-51 44-31 83-75 39-43 62-99 24-57 24-126 0-81-35-150-34-70-105-112-70-43-182-43z"/>
    </g>
  </g>
  <g data-strokesvg="strokes" style="stroke:var(--stroke,#000);fill:none;stroke-width:128;stroke-linecap:round">
    <g style="--i:0">
      <path d="M456 199c62 100 36 199 36 199S374 994 186 691C23 429 608 23 816 390c185 324-277 496-277 496" clip-path="url(#306ec)"/>
      <path d="M693 422c-113 30-201-24-201-24S374 994 186 691C23 429 608 23 816 390c185 324-277 496-277 496" clip-path="url(#306ed)"/>
    </g>
  </g>
</svg>
