<svg data-strokesvg="ã®" viewBox="0 0 1024 1024" xmlns="http://www.w3.org/2000/svg">
  <defs>
    <clipPath id="306ec">
      <use href="#306ea"/>
    </clipPath>
    <clipPath id="306ed">
      <use href="#306eb"/>
    </clipPath>
  </defs>
  <g data-strokesvg="shadows" style="fill:var(--shadow,#ccc)">
    <g>
      <path id="306ea" d="M463 279c1 4 3 8 3 13v8a1062 1062 0 0 1-76 256c-13 31-26 59-39 85-12 26-24 47-36 62-11 16-20 23-27 23-3 0-9-4-19-11a245 245 0 0 1-59-83c-8-19-11-39-11-61-1-17-63-22-63 0 0 37 8 73 25 110 17 36 44 71 81 104a73 73 0 0 0 74 14c9-4 17-9 24-18 22-26 43-58 62-94a1432 1432 0 0 0 131-388c1-8-2-14-6-17-4-4-9-9-16-13-33-14-55-7-48 10z"/>
      <path id="306eb" d="M550 210c-53 1-105 12-155 34a483 483 0 0 0-225 199c-23 43-34 85-34 128 1 30 64 22 63 0 0-19 5-43 15-71a372 372 0 0 1 131-167c34-25 73-43 118-54 18-5 33-7 48-10l20-1 23-1h4c63 0 112 12 149 35 36 23 63 54 78 91 16 37 24 77 24 119v16l-1 17c-3 37-15 73-35 107s-44 65-74 93a671 671 0 0 1-181 127c-22 12-33 21-33 27l2 5c1 2 5 2 11 2 11 0 27-3 50-9a631 631 0 0 0 166-82c30-21 57-46 83-75s46-62 62-99c16-38 24-80 24-126 0-54-12-104-35-150-23-47-57-84-105-112-47-29-107-43-182-43z"/>
    </g>
  </g>
  <g data-strokesvg="strokes" style="stroke:var(--stroke,#000);fill:none;stroke-width:128;stroke-linecap:round">
    <g style="--i:0">
      <path d="M456 199c62 100 36 199 36 199S374 994 186 691C23 429 608 23 816 390c185 324-277 496-277 496" clip-path="url(#306ec)"/>
      <path d="M693 422c-113 30-201-24-201-24S374 994 186 691C23 429 608 23 816 390c185 324-277 496-277 496" clip-path="url(#306ed)"/>
    </g>
  </g>
</svg>
