<svg data-strokesvg="ã¯" viewBox="0 0 1024 1024" xmlns="http://www.w3.org/2000/svg">
  <defs>
    <clipPath id="306fe">
      <use href="#306fa"/>
    </clipPath>
    <clipPath id="306ff">
      <use href="#306fb"/>
    </clipPath>
    <clipPath id="306fg">
      <use href="#306fc"/>
    </clipPath>
    <clipPath id="306fh">
      <use href="#306fd"/>
    </clipPath>
  </defs>
  <g data-strokesvg="shadows" style="fill:var(--shadow,#ccc)">
    <path id="306fa" d="m243 770-2-26v-28q0-51 4-114 4-62 11-128l15-129 19-113 1-12 1-9-1-8q-2-7-15-14-12-7-26-11-14-5-26-5-10 0-12 5l-1 2v1q0 4 4 8l6 8q4 8 4 15l-5 40-10 89-11 111-11 110-6 85-1 18v38q0 81 7 130 8 47 20 67 12 21 29 21 9 0 17-7 9-5 12-18l15-52 20-74 20-70 11-40 3-20q0-10-6-10-4 0-10 5-5 4-10 11l-14 27-26 47-26 50z"/>
    <path id="306fb" d="M662 321a2883 2883 0 0 0-229 34l-10 1c-3 0-7 0-11-2l-14-3-5 1c-3 2-5 4-5 7l5 15c4 9 9 18 18 26 8 9 18 13 31 13a101 101 0 0 0 30-4 2218 2218 0 0 1 190-31l62-7a2228 2228 0 0 1 128-9c25 0 37-5 37-16v-4c-2-12-7-21-18-30-10-8-19-12-26-13h-3l-3-1-18 3-17 5a851 851 0 0 0-81 7z"/>
    <g>
      <path id="306fc" d="M658 131c-12 0-18 2-19 7v1c0 5 3 9 8 13 6 2 9 8 10 18a15409 15409 0 0 1 4 151l2 57a5927 5927 0 0 1 5 213l2 68v14l-3 42c-6 25-12 41-18 54-4 8-11 17-20 28-10 10-23 19-39 27-17 8-38 12-64 12-19 0-36-3-52-9-16-5-23-14-23-25 0-10-58-16-58-1 0 25 14 47 40 65 27 19 63 28 108 28h15c33-1 64-11 90-29 27-18 48-43 64-73a223 223 0 0 0 24-112v-12l-1-14-3-67a7745 7745 0 0 0-6-216l-1-58-2-92v-45l-3-18c-2-8-7-14-16-19-8-5-22-8-44-8z"/>
      <path id="306fd" d="M667 715a384 384 0 0 0-113-16h-12c-19-1-41 3-64 10-22 6-42 17-59 32a77 77 0 0 0-26 59v1c0 21 59 16 58 1v-2c1-17 10-28 28-35 19-8 40-11 65-11a413 413 0 0 1 105 15c18 6 35 11 61 23 24 10 46 23 66 37 21 15 37 30 50 48 9 10 17 16 25 16l10-4c6-3 12-7 18-13 5-7 8-14 8-23 0-14-9-28-27-43-17-15-38-29-62-42a655 655 0 0 0-131-53Z"/>
    </g>
  </g>
  <g data-strokesvg="strokes" style="stroke:var(--stroke,#000);fill:none;stroke-width:128;stroke-linecap:round">
    <path style="--i:0" d="M174 123c206-18-98 612 40 745l93-184" clip-path="url(#306fe)"/>
    <path style="--i:1" d="m322 367 513-9" clip-path="url(#306ff)"/>
    <g style="--i:2">
      <path d="M580 107c196-8 142 735 39 753 0 0-100 29-156 8-85-32-40-322 380-31" clip-path="url(#306fg)"/>
      <path d="M1364 977c-32 194-748-13-745-117 0 0-100 29-156 8-85-32-40-322 380-31" clip-path="url(#306fh)"/>
    </g>
  </g>
</svg>
