<svg data-strokesvg="ã±" viewBox="0 0 1024 1024" xmlns="http://www.w3.org/2000/svg">
  <defs>
    <clipPath id="3071f">
      <use href="#3071a"/>
    </clipPath>
    <clipPath id="3071g">
      <use href="#3071b"/>
    </clipPath>
    <clipPath id="3071h">
      <use href="#3071c"/>
    </clipPath>
    <clipPath id="3071i">
      <use href="#3071d"/>
    </clipPath>
    <clipPath id="3071j">
      <use href="#3071e"/>
    </clipPath>
  </defs>
  <g data-strokesvg="shadows" style="fill:var(--shadow,#ccc)">
    <path id="3071a" d="m243 770-2-26v-28q0-51 4-114 4-62 11-128l15-129 19-113 1-12 1-9-1-8q-2-7-15-14-12-7-26-11-14-5-26-5-10 0-12 5l-1 2v1q0 4 4 8l6 8q4 8 4 15l-5 40-10 89-11 111-11 110-6 85-1 18v38q0 81 7 130 8 47 20 67 12 21 29 21 9 0 17-7 9-5 12-18l15-52 20-74 20-70 11-40 3-20q0-10-6-10-4 0-10 5-5 4-10 11l-14 27-26 47z"/>
    <path id="3071b" d="M662 321a2883 2883 0 0 0-229 34l-10 1q-5 0-11-2l-14-3-5 1q-5 3-5 7l5 15q5 14 18 26 12 13 31 13a101 101 0 0 0 30-4q42-10 90-17l101-14 61-7 128-9q37 0 37-16v-4q-2-17-18-30-15-12-26-13h-3l-3-1-18 3-17 5-81 7z"/>
    <g>
      <path id="3071c" d="M658 131q-18 0-19 7v1q0 7 8 13 9 3 10 18 2 4 2 47l3 104 1 57 5 213 2 68v14l-3 42q-9 36-18 54-6 12-20 28-15 15-39 27-25 12-64 12-28 0-52-9-23-8-23-25c0-10-58-16-58-1q1 38 40 65 40 28 108 28h15q50-2 90-29 40-28 64-73a223 223 0 0 0 24-112v-12l-1-14-3-67-6-216-1-58-2-92v-45l-3-18q-3-12-16-19-12-8-44-8"/>
      <path id="3071d" d="M667 715q-29-9-57-13-27-4-56-4h-12q-29 0-64 11-33 9-59 32a77 77 0 0 0-26 59v1c0 21 59 16 58 1v-2q1-25 28-35 28-12 65-11a413 413 0 0 1 105 15c18 6 35 11 61 23q36 16 66 37 31 22 50 48 13 16 25 16l10-4q9-4 18-13 8-10 8-23 0-21-27-43-26-22-62-42a655 655 0 0 0-131-53"/>
    </g>
    <path id="3071e" d="M896 91q-41 0-70 29a94 94 0 0 0-27 69q0 42 27 71 29 29 70 29 42 0 71-29 29-30 29-71 0-42-29-69a96 96 0 0 0-71-29m0 45q21 0 38 17 16 15 16 36 0 22-16 38a54 54 0 0 1-38 16 53 53 0 0 1-52-54q0-21 15-36 16-17 37-17"/>
  </g>
  <g data-strokesvg="strokes" style="stroke:var(--stroke,#000);fill:none;stroke-width:128;stroke-linecap:round">
    <path style="--i:0" d="M174 123c206-18-98 612 40 745l93-184" clip-path="url(#3071f)"/>
    <path style="--i:1" d="m322 367 513-9" clip-path="url(#3071g)"/>
    <g style="--i:2">
      <path d="M580 107c196-8 142 735 39 753 0 0-100 29-156 8-85-32-40-322 380-31" clip-path="url(#3071h)"/>
      <path d="M1364 977c-32 194-748-13-745-117 0 0-100 29-156 8-85-32-40-322 380-31" clip-path="url(#3071i)"/>
    </g>
    <path style="--i:3" d="M907 25c-140 87-175 192-11 241 84 25 116-128 23-122" clip-path="url(#3071j)"/>
  </g>
</svg>
