<svg data-strokesvg="ã´" viewBox="0 0 1024 1024" xmlns="http://www.w3.org/2000/svg">
  <defs>
    <clipPath id="3074c">
      <use href="#3074a"/>
    </clipPath>
    <clipPath id="3074d">
      <use href="#3074b"/>
    </clipPath>
  </defs>
  <g data-strokesvg="shadows" style="fill:var(--shadow,#ccc)">
    <path id="3074a" d="M720 434q26 125 61 197 36 71 65 71 14 0 23-15 10-15 10-32 0-14-8-23-6-9-13-15-22-19-39-54-16-36-28-79-13-43-21-86l-11-76-6-53q-1-15-12-20-9-6-20-6-26 0-31 12-5 11-5 19v13l1 14q0 8-6 42t-20 83q-12 49-31 105-19 57-44 112-26 55-59 101-32 46-72 73-39 28-85 28-10 0-25-8-15-9-31-28-14-21-25-56-10-37-10-94 0-55 16-114 16-60 46-117t71-107q42-51 92-85 13-11 13-22 0-12-14-25-15-13-29-13-8 0-16 6-8 7-34 17l-61 19-71 19-67 14-3 1h-4l-18-2q-10-3-17-3l-7 2q-3 3-3 8 0 9 8 21 8 10 18 19l14 11q8 3 15 3 11 0 36-6l60-15q32-9 60-20-49 54-88 118t-62 133q-21 69-21 139t18 126q20 57 56 90 36 32 85 32 55 0 101-27 47-29 85-77 39-49 70-111 30-61 53-128t40-131z"/>
    <path id="3074b" d="M889 175c-27 0-51 10-70 29a96 96 0 0 0-28 70 98 98 0 0 0 98 100 98 98 0 0 0 99-99c0-29-9-52-29-71a96 96 0 0 0-70-29zm0 46c14 0 27 5 38 16 11 10 16 22 16 37 0 14-5 27-16 38a52 52 0 0 1-38 17c-15 0-27-6-37-17a56 56 0 0 1-15-38c0-15 5-27 15-37 10-11 22-16 37-16z"/>
  </g>
  <g data-strokesvg="strokes" style="stroke:var(--stroke,#000);fill:none;stroke-width:128;stroke-linecap:round">
    <path style="--i:0" d="M109 286c158-45 229-64 369-123 39 43-454 507-148 706 189 123 334-390 358-612l146 390" clip-path="url(#3074c)"/>
    <path style="--i:1" d="M907 103c-140 88-175 192-11 241 84 26 116-127 23-122" clip-path="url(#3074d)"/>
  </g>
</svg>
