<svg data-strokesvg="ãµ" viewBox="0 0 1024 1024" xmlns="http://www.w3.org/2000/svg">
  <defs>
    <clipPath id="3075e">
      <use href="#3075a"/>
    </clipPath>
    <clipPath id="3075f">
      <use href="#3075b"/>
    </clipPath>
    <clipPath id="3075g">
      <use href="#3075c"/>
    </clipPath>
    <clipPath id="3075h">
      <use href="#3075d"/>
    </clipPath>
  </defs>
  <g data-strokesvg="shadows" style="fill:var(--shadow,#ccc)">
    <path id="3075a" d="m588 337-34 27-30 20q-19 13-19 23 0 9 16 9 8 0 29-5t45-13l41-14q18-7 21-12 5-6 8-14t3-15q0-9-4-14-12-21-36-48-25-28-54-54-28-25-54-42-24-17-37-17-11 0-20 10-8 10-8 16 0 9 13 18 22 14 46 37 24 21 43 45 20 23 31 43z"/>
    <path id="3075b" d="M521 906q30 0 59-15t49-46q20-32 20-78 0-37-17-72-18-35-44-65-27-32-56-58l-51-47q-22-20-30-33-15-22-29-22-8 0-13 7-6 6-6 17 0 9 5 17 9 23 36 51l60 61q32 32 54 69 24 36 24 76 0 31-22 53-20 23-47 23-26 0-55-4-30-5-56-13-24-7-37-15-12-7-21-7-11 0-11 9 0 12 19 29 21 15 50 30 31 15 63 24t56 9z"/>
    <path id="3075c" d="M111 715v8q1 20 12 52 12 31 30 62 18 30 37 52 21 20 38 20 13 0 30-19 18-21 35-48l29-51q11-24 11-31 0-10-10-10-14 0-22 10-10 11-34 31-22 18-40 29-25-21-46-53-20-33-29-54-12-26-27-26-14 0-14 28z"/>
    <path id="3075d" d="M933 787q0-10-13-36-14-28-44-67-31-40-82-85-4-4-13-4-12 0-25 9-14 8-14 20 0 10 12 18 23 18 46 49t41 63q18 31 25 55 7 19 22 19 4 0 14-4 11-4 21-12 10-9 10-25z"/>
  </g>
  <g data-strokesvg="strokes" style="stroke:var(--stroke,#000);fill:none;stroke-width:128;stroke-linecap:round">
    <path style="--i:0" d="m410 133 263 187-111 66" clip-path="url(#3075e)"/>
    <path style="--i:1" d="M362 430s419 347 145 448c-60 22-129-29-129-29" clip-path="url(#3075f)"/>
    <path style="--i:2" d="m91 629 102 280 98-110" clip-path="url(#3075g)"/>
    <path style="--i:3" d="m711 555 168 213" clip-path="url(#3075h)"/>
  </g>
</svg>
