<svg data-strokesvg="ã¶" viewBox="0 0 1024 1024" xmlns="http://www.w3.org/2000/svg">
  <defs>
    <clipPath id="3076g">
      <use href="#3076a"/>
    </clipPath>
    <clipPath id="3076h">
      <use href="#3076b"/>
    </clipPath>
    <clipPath id="3076i">
      <use href="#3076c"/>
    </clipPath>
    <clipPath id="3076j">
      <use href="#3076d"/>
    </clipPath>
    <clipPath id="3076k">
      <use href="#3076e"/>
    </clipPath>
    <clipPath id="3076l">
      <use href="#3076f"/>
    </clipPath>
  </defs>
  <g data-strokesvg="shadows" style="fill:var(--shadow,#ccc)">
    <path id="3076a" d="m588 337-34 27-30 20q-19 13-19 23 0 9 16 9 8 0 29-5t45-13l41-14q18-7 21-12 5-6 8-14t3-15q0-9-4-14-12-21-36-48-25-28-54-54-28-25-54-42-24-17-37-17-11 0-20 10-8 10-8 16 0 9 13 18 22 14 46 37 24 21 43 45 20 23 31 43z"/>
    <path id="3076b" d="M521 906q30 0 59-15t49-46q20-32 20-78 0-37-17-72-18-35-44-65-27-32-56-58l-51-47q-22-20-30-33-15-22-29-22-8 0-13 7-6 6-6 17 0 9 5 17 9 23 36 51l60 61q32 32 54 69 24 36 24 76 0 31-22 53-20 23-47 23-26 0-55-4-30-5-56-13-24-7-37-15-12-7-21-7-11 0-11 9 0 12 19 29 21 15 50 30 31 15 63 24t56 9z"/>
    <path id="3076c" d="M111 715v8q1 20 12 52 12 31 30 62 18 30 37 52 21 20 38 20 13 0 30-19 18-21 35-48l29-51q11-24 11-31 0-10-10-10-14 0-22 10-10 11-34 31-22 18-40 29-25-21-46-53-20-33-29-54-12-26-27-26-14 0-14 28z"/>
    <path id="3076d" d="M933 787q0-10-13-36-14-28-44-67-31-40-82-85-4-4-13-4-12 0-25 9-14 8-14 20 0 10 12 18 23 18 46 49t41 63q18 31 25 55 7 19 22 19 4 0 14-4 11-4 21-12 10-9 10-25z"/>
    <path id="3076e" d="M840 404q14 0 21-11t7-19q0-9-14-27-13-17-32-36-17-18-32-31l-19-16q-7-5-16-5-11 0-18 8-7 7-7 17 0 9 6 15 17 13 39 40 24 26 44 54 8 11 21 11z"/>
    <path id="3076f" d="M915 349q5 0 18-5 13-6 13-27 0-7-5-15-4-9-25-29-20-20-66-59-7-7-17-7-11 0-20 8-9 7-9 17 0 8 7 14 17 14 42 42 26 26 46 53 7 8 16 8z"/>
  </g>
  <g data-strokesvg="strokes" style="stroke:var(--stroke,#000);fill:none;stroke-width:128;stroke-linecap:round">
    <path style="--i:0" d="m410 133 263 187-111 66" clip-path="url(#3076g)"/>
    <path style="--i:1" d="M362 430s419 347 145 448c-60 22-129-29-129-29" clip-path="url(#3076h)"/>
    <path style="--i:2" d="m91 629 102 280 98-110" clip-path="url(#3076i)"/>
    <path style="--i:3" d="m711 555 168 213" clip-path="url(#3076j)"/>
    <path style="--i:4" d="m693 217 124 136" clip-path="url(#3076k)"/>
    <path style="--i:5" d="m767 166 128 132" clip-path="url(#3076l)"/>
  </g>
</svg>
