<svg data-strokesvg="ã·" viewBox="0 0 1024 1024" xmlns="http://www.w3.org/2000/svg">
  <defs>
    <clipPath id="3077f">
      <use href="#3077a"/>
    </clipPath>
    <clipPath id="3077g">
      <use href="#3077b"/>
    </clipPath>
    <clipPath id="3077h">
      <use href="#3077c"/>
    </clipPath>
    <clipPath id="3077i">
      <use href="#3077d"/>
    </clipPath>
    <clipPath id="3077j">
      <use href="#3077e"/>
    </clipPath>
  </defs>
  <g data-strokesvg="shadows" style="fill:var(--shadow,#ccc)">
    <path id="3077a" d="m588 337-34 27-30 20q-19 13-19 23 0 9 16 9 8 0 29-5t45-13l41-14q18-7 21-12 5-6 8-14t3-15-4-14q-12-21-36-48-25-28-54-54-28-25-54-42-24-17-37-17-11 0-20 10-8 10-8 16 0 9 13 18 22 14 46 37 24 21 43 45 20 23 31 43"/>
    <path id="3077b" d="M521 906q30 0 59-15t49-46q20-32 20-78 0-37-17-72-18-35-44-65-27-32-56-58l-51-47q-22-20-30-33-15-22-29-22-8 0-13 7-6 6-6 17 0 9 5 17 9 23 36 51l60 61q32 32 54 69 24 36 24 76 0 31-22 53-20 23-47 23-26 0-55-4-30-5-56-13-24-7-37-15-12-7-21-7-11 0-11 9 0 12 19 29 21 15 50 30 31 15 63 24t56 9"/>
    <path id="3077c" d="M111 715v8q1 20 12 52 12 31 30 62 18 30 37 52 21 20 38 20 13 0 30-19 18-21 35-48l29-51q11-24 11-31 0-10-10-10-14 0-22 10-10 11-34 31-22 18-40 29-25-21-46-53-20-33-29-54-12-26-27-26-14 0-14 28"/>
    <path id="3077d" d="M933 787q0-10-13-36-14-28-44-67-31-40-82-85-4-4-13-4-12 0-25 9-14 8-14 20 0 10 12 18 23 18 46 49t41 63 25 55q7 19 22 19 4 0 14-4 11-4 21-12 10-9 10-25"/>
    <path id="3077e" d="M857 227q-40 0-70 29a93 93 0 0 0-28 70q0 42 28 71 30 29 70 29 42 0 71-29 28-29 28-71 0-43-28-70a96 96 0 0 0-71-29m0 45q23 0 38 17 16 15 16 37 0 21-16 39a50 50 0 0 1-38 16q-21 0-37-16a57 57 0 0 1-15-39q0-22 15-37 15-17 37-17"/>
  </g>
  <g data-strokesvg="strokes" style="stroke:var(--stroke,#000);fill:none;stroke-width:128;stroke-linecap:round">
    <path style="--i:0" d="m410 133 263 187-111 66" clip-path="url(#3077f)"/>
    <path style="--i:1" d="M362 430s419 347 145 448c-60 22-129-29-129-29" clip-path="url(#3077g)"/>
    <path style="--i:2" d="m91 629 102 280 98-110" clip-path="url(#3077h)"/>
    <path style="--i:3" d="m711 555 168 213" clip-path="url(#3077i)"/>
    <path style="--i:4" d="M878 154c-140 87-174 191-11 241 85 25 117-128 23-122" clip-path="url(#3077j)"/>
  </g>
</svg>
