<svg data-strokesvg="ã¸" viewBox="0 0 1024 1024" xmlns="http://www.w3.org/2000/svg">
  <defs>
    <clipPath id="3078b">
      <use href="#3078a"/>
    </clipPath>
  </defs>
  <g data-strokesvg="shadows" style="fill:var(--shadow,#ccc)">
    <path id="3078a" d="m337 403-90 82q-47 43-96 73-17 10-32 8-16-3-22 5l-1 4q0 5 9 18 10 13 24 24 14 12 30 12 8 0 14-3l15-8q33-19 67-49 35-29 69-63t67-64q21-18 32-18t33 18l62 55 97 85q56 48 122 99 67 51 139 98l16 8q9 4 18 4 27 0 27-28 0-14-5-29-4-15-9-20-8-7-19-8-10-3-25-12-83-52-178-128-93-76-202-172-20-17-38-27-18-11-37-11-17 0-39 12-21 10-48 35z"/>
  </g>
  <g data-strokesvg="strokes" style="stroke:var(--stroke,#000);fill:none;stroke-width:128;stroke-linecap:round">
    <path style="--i:0" d="M30 575c230 71 292-199 390-191l469 357" clip-path="url(#3078b)"/>
  </g>
</svg>
