<svg data-strokesvg="ã¹" viewBox="0 0 1024 1024" xmlns="http://www.w3.org/2000/svg">
  <defs>
    <clipPath id="3079d">
      <use href="#3079a"/>
    </clipPath>
    <clipPath id="3079e">
      <use href="#3079b"/>
    </clipPath>
    <clipPath id="3079f">
      <use href="#3079c"/>
    </clipPath>
  </defs>
  <g data-strokesvg="shadows" style="fill:var(--shadow,#ccc)">
    <path id="3079a" d="m337 403-90 82q-47 43-96 73-17 10-32 8-16-3-22 5l-1 4q0 5 9 18 10 13 24 24 14 12 30 12 8 0 14-3l15-8q33-19 67-49 35-29 69-63t67-64q21-18 32-18t33 18l62 55 97 85q56 48 122 99 67 51 139 98l16 8q9 4 18 4 27 0 27-28 0-14-5-29-4-15-9-20-8-7-19-8-10-3-25-12-83-52-178-128-93-76-202-172-20-17-38-27-18-11-37-11-17 0-39 12-21 10-48 35z"/>
    <path id="3079b" d="M753 419q8-13 8-22 0-6-5-14l-17-17q-14-15-33-32-20-18-38-31t-27-13q-10 0-18 8t-8 18q0 10 8 16 17 13 41 38l46 50q10 10 20 10 8 0 13-3 7-4 10-8z"/>
    <path id="3079c" d="M805 371q17 0 24-15 8-15 8-18 0-4-6-12-5-9-27-29-22-21-74-58-6-6-15-6-12 0-21 9-8 8-8 17 0 8 7 14 18 14 43 39 27 25 49 49 10 10 20 10z"/>
  </g>
  <g data-strokesvg="strokes" style="stroke:var(--stroke,#000);fill:none;stroke-width:128;stroke-linecap:round">
    <path style="--i:0" d="M30 575c230 71 292-199 390-191l469 357" clip-path="url(#3079d)"/>
    <path style="--i:1" d="m564 263 146 114" clip-path="url(#3079e)"/>
    <path style="--i:2" d="m642 201 138 121" clip-path="url(#3079f)"/>
  </g>
</svg>
