<svg data-strokesvg="ãº" viewBox="0 0 1024 1024" xmlns="http://www.w3.org/2000/svg">
  <defs>
    <clipPath id="307ac">
      <use href="#307aa"/>
    </clipPath>
    <clipPath id="307ad">
      <use href="#307ab"/>
    </clipPath>
  </defs>
  <g data-strokesvg="shadows" style="fill:var(--shadow,#ccc)">
    <path id="307aa" d="m337 403-90 82q-47 43-96 73-17 10-32 8-16-3-22 5l-1 4q0 5 9 18 10 13 24 24 14 12 30 12 8 0 14-3l15-8q33-19 67-49 35-29 69-63t67-64q21-18 32-18t33 18l62 55 97 85q56 48 122 99 67 51 139 98l16 8q9 4 18 4 27 0 27-28 0-14-5-29-4-15-9-20-8-7-19-8-10-3-25-12-83-52-178-128-93-76-202-172-20-17-38-27-18-11-37-11-17 0-39 12-21 10-48 35z"/>
    <path id="307ab" d="M740 227c-29 0-54 10-73 30-20 20-30 44-30 74 0 28 10 53 30 73 19 20 44 30 73 30s53-10 73-30c21-20 31-45 31-73 0-30-10-54-31-74a99 99 0 0 0-73-30zm0 46c15 0 28 6 39 18 12 11 18 24 18 40 0 15-6 28-18 40a52 52 0 0 1-39 17 57 57 0 0 1-41-97c12-12 26-18 41-18z"/>
  </g>
  <g data-strokesvg="strokes" style="stroke:var(--stroke,#000);fill:none;stroke-width:128;stroke-linecap:round">
    <path style="--i:0" d="M30 575c230 71 292-199 390-191l469 357" clip-path="url(#307ac)"/>
    <path style="--i:1" d="M763 154c-140 88-174 192-11 241 84 26 116-127 23-122" clip-path="url(#307ad)"/>
  </g>
</svg>
