<svg data-strokesvg="ã»" viewBox="0 0 1024 1024" xmlns="http://www.w3.org/2000/svg">
  <defs>
    <clipPath id="307bf">
      <use href="#307ba"/>
    </clipPath>
    <clipPath id="307bg">
      <use href="#307bb"/>
    </clipPath>
    <clipPath id="307bh">
      <use href="#307bc"/>
    </clipPath>
    <clipPath id="307bi">
      <use href="#307bd"/>
    </clipPath>
    <clipPath id="307bj">
      <use href="#307be"/>
    </clipPath>
  </defs>
  <g data-strokesvg="shadows" style="fill:var(--shadow,#ccc)">
    <path id="307ba" d="M315 636h-4q-9 0-15 13l-13 27-24 46-26 48-1-18v-21q0-48 5-110l10-131 15-132q8-65 18-117l1-9 1-9q0-14-11-22-9-8-22-12t-24-5l-10-2q-8 0-9 4v1q0 4 5 13 5 8 6 16l1 11-1 9-5 36-10 82-12 103-10 103-5 80v34q0 87 5 136 5 48 14 69 8 20 17 24 10 5 20 5t18-4q8-4 11-17l7-27 17-56 17-67 15-57 7-29q0-14-8-15"/>
    <path id="307bb" d="M679 251q33-6 66-7 36-3 72-4 17-1 26-7 10-4 10-15l-1-2v-3q-4-11-15-20-12-11-28-14h-3l-3-1q-9 1-18 4-6 4-17 4a1316 1316 0 0 0-191 27l-141 24h-2q-7 0-15-4l-12-3-3 1h-2q-5 3-5 8 1 8 7 20 9 12 21 23a41 41 0 0 0 39 7q8-3 16-3a2427 2427 0 0 0 150-28z"/>
    <path id="307bc" d="M651 420a1092 1092 0 0 1-130 11q-41 0-53-6-8-4-25-4-8 0-11 3-3 4-3 10t9 20q9 12 37 22 29 10 85 10a473 473 0 0 0 93-8l59-9q71-12 103-22 33-9 41-16 9-8 9-14l-1-3v-3q-3-12-19-22-15-11-34-11h-4q-9 1-13 6-5 4-14 8a523 523 0 0 1-70 18z"/>
    <g>
      <path id="307bd" d="M655 252c-15 0-26 1-25 7q1 8 9 15 7 9 8 16 3 17 2 52l2 78 2 58 3 186v27a175 175 0 0 1-18 80 96 96 0 0 1-48 50q-33 15-66 16h-3q-30-1-54-13-24-11-24-26c1-13-57-15-57 3q0 34 36 63t110 29h10q55-2 94-27 39-26 60-71c2-5 11-22 19-57a246 246 0 0 0 3-63v-16l-6-190-2-59a2384 2384 0 0 0-9-148q-3-6-18-10z"/>
      <path id="307be" d="M527 701q-68 1-104 31-36 31-37 68v1c1 23 60 14 57-3q0-21 24-32 24-12 59-11h4q27 0 53 3t55 13l58 24a505 505 0 0 1 127 88q16 16 27 16 9 0 15-6l11-13q6-15 6-25 0-15-23-34-21-19-52-37a782 782 0 0 0-153-66q-29-8-61-11l-61-6z"/>
    </g>
  </g>
  <g data-strokesvg="strokes" style="stroke:var(--stroke,#000);fill:none;stroke-width:128;stroke-linecap:round">
    <path style="--i:0" d="M164 131c200 65-86 602 36 765l92-208" clip-path="url(#307bf)"/>
    <path style="--i:1" d="m331 232 462-3" clip-path="url(#307bg)"/>
    <path style="--i:2" d="m362 438 446-8" clip-path="url(#307bh)"/>
    <g style="--i:3">
      <path d="M579 212c179 94 113 651-19 651 0 0-182 20-131-65 50-85 164-103 396 56" clip-path="url(#307bi)"/>
      <path d="M1206 943c-109 170-658 51-646-80 0 0-182 20-131-65 50-85 164-103 396 56" clip-path="url(#307bj)"/>
    </g>
  </g>
</svg>
