<svg data-strokesvg="ã»" viewBox="0 0 1024 1024" xmlns="http://www.w3.org/2000/svg">
  <defs>
    <clipPath id="307bf">
      <use href="#307ba"/>
    </clipPath>
    <clipPath id="307bg">
      <use href="#307bb"/>
    </clipPath>
    <clipPath id="307bh">
      <use href="#307bc"/>
    </clipPath>
    <clipPath id="307bi">
      <use href="#307bd"/>
    </clipPath>
    <clipPath id="307bj">
      <use href="#307be"/>
    </clipPath>
  </defs>
  <g data-strokesvg="shadows" style="fill:var(--shadow,#ccc)">
    <path id="307ba" d="M315 636h-4q-9 0-15 13l-13 27-24 46-26 48-1-18v-21q0-48 5-110l10-131 15-132q8-65 18-117l1-9 1-9q0-14-11-22-9-8-22-12t-24-5l-10-2q-8 0-9 4v1q0 4 5 13 5 8 6 16l1 11-1 9-5 36-10 82-12 103-10 103-5 80v34q0 87 5 136 5 48 14 69 8 20 17 24 10 5 20 5t18-4q8-4 11-17l7-27 17-56 17-67 15-57 7-29q0-14-8-15z"/>
    <path id="307bb" d="M679 251a1192 1192 0 0 1 138-11c11-1 20-3 26-7 7-3 10-8 10-15l-1-2v-3c-3-8-8-14-15-20-8-7-17-12-28-14h-3l-3-1c-6 0-12 2-18 4-4 3-10 4-17 4a1316 1316 0 0 0-191 27 5891 5891 0 0 0-141 24h-2c-5 0-10-1-15-4l-12-3-3 1h-2c-3 2-5 4-5 8 0 5 3 12 7 20 6 8 13 16 21 23a41 41 0 0 0 39 7 2427 2427 0 0 0 166-31z"/>
    <path id="307bc" d="M651 420a1092 1092 0 0 1-130 11c-27 0-45-2-53-6-5-3-14-4-25-4-5 0-9 1-11 3-2 3-3 6-3 10s3 11 9 20c6 8 19 15 37 22 19 7 48 10 85 10a473 473 0 0 0 93-8l59-9c47-8 82-15 103-22 22-6 36-11 41-16 6-5 9-10 9-14l-1-3v-3c-2-8-8-15-19-22-10-7-22-11-34-11h-4c-6 1-10 3-13 6s-8 5-14 8a523 523 0 0 1-70 18z"/>
    <g>
      <path id="307bd" d="M655 252c-15 0-26 1-25 7 1 5 4 10 9 15 5 6 7 11 8 16a14031 14031 0 0 1 4 130l2 58 3 186v27a175 175 0 0 1-18 80 96 96 0 0 1-48 50c-22 10-44 16-66 16h-3c-20-1-38-5-54-13-16-7-24-16-24-26 1-13-57-15-57 3 0 23 12 44 36 63s61 29 110 29h10c37-1 68-10 94-27s46-41 60-71c2-5 11-22 19-57a246 246 0 0 0 3-63v-16a18416 18416 0 0 0-6-190l-2-59a2384 2384 0 0 0-9-148c-2-4-8-7-18-10h-28z"/>
      <path id="307be" d="M527 701c-45 0-80 11-104 31-24 21-36 43-37 68v1c1 23 60 14 57-3 0-14 8-25 24-32 16-8 36-11 59-11h4c18 0 36 1 53 3s36 6 55 13l58 24a505 505 0 0 1 127 88c11 11 19 16 27 16 6 0 11-2 15-6l11-13c4-10 6-18 6-25 0-10-8-21-23-34-14-13-32-25-52-37a782 782 0 0 0-153-66 618 618 0 0 0-122-16z"/>
    </g>
  </g>
  <g data-strokesvg="strokes" style="stroke:var(--stroke,#000);fill:none;stroke-width:128;stroke-linecap:round">
    <path style="--i:0" d="M164 131c200 65-86 602 36 765l92-208" clip-path="url(#307bf)"/>
    <path style="--i:1" d="m331 232 462-3" clip-path="url(#307bg)"/>
    <path style="--i:2" d="m362 438 446-8" clip-path="url(#307bh)"/>
    <g style="--i:3">
      <path d="M579 212c179 94 113 651-19 651 0 0-182 20-131-65 50-85 164-103 396 56" clip-path="url(#307bi)"/>
      <path d="M1206 943c-109 170-658 51-646-80 0 0-182 20-131-65 50-85 164-103 396 56" clip-path="url(#307bj)"/>
    </g>
  </g>
</svg>
