<svg data-strokesvg="ã¼" viewBox="0 0 1024 1024" xmlns="http://www.w3.org/2000/svg">
  <defs>
    <clipPath id="307ch">
      <use href="#307ca"/>
    </clipPath>
    <clipPath id="307ci">
      <use href="#307cb"/>
    </clipPath>
    <clipPath id="307cj">
      <use href="#307cc"/>
    </clipPath>
    <clipPath id="307ck">
      <use href="#307cd"/>
    </clipPath>
    <clipPath id="307cl">
      <use href="#307ce"/>
    </clipPath>
    <clipPath id="307cm">
      <use href="#307cf"/>
    </clipPath>
    <clipPath id="307cn">
      <use href="#307cg"/>
    </clipPath>
  </defs>
  <g data-strokesvg="shadows" style="fill:var(--shadow,#ccc)">
    <path id="307ca" d="M315 636h-4q-9 0-15 13l-13 27-24 46-26 48-1-18v-21q0-48 5-110l10-131 15-132q8-65 18-117l1-9 1-9q0-14-11-22-9-8-22-12t-24-5l-10-2q-8 0-9 4v1q0 4 5 13 5 8 6 16l1 11-1 9-5 36-10 82-12 103-10 103-5 80v34q0 87 5 136 5 48 14 69 8 20 17 24 10 5 20 5t18-4q8-4 11-17l7-27 17-56 17-67 15-57 7-29q0-14-8-15"/>
    <path id="307cb" d="M767 186q-11 1-18 4-8 4-20 4-84 4-150 19a2081 2081 0 0 1-138 24h-4q-11 0-18-4l-12-3-3 1h-2q-3 2-4 9 0 8 8 20 7 12 19 22a41 41 0 0 0 39 7q8-3 16-3l150-27 53-7a878 878 0 0 1 95-5q17-2 26-6 10-6 10-16l-1-2v-3q-4-11-18-21-15-12-25-13z"/>
    <path id="307cc" d="M651 420a1092 1092 0 0 1-130 11q-41 0-53-6-8-4-25-4-8 0-11 3-3 4-3 10t9 20q9 12 37 22 29 10 85 10a473 473 0 0 0 93-8l59-9q71-12 103-22 33-9 41-16 9-8 9-14l-1-3v-3q-3-12-19-22-15-11-34-11h-4q-9 1-13 6-5 4-14 8a523 523 0 0 1-70 18z"/>
    <g>
      <path id="307cd" d="M655 252c-15 0-26 1-25 7q1 8 9 15 7 9 8 16 3 17 2 52l2 78 2 58 3 186v27a175 175 0 0 1-18 80 96 96 0 0 1-48 50q-33 15-66 16h-3q-30-1-54-13-24-11-24-26c1-13-57-15-57 3q0 34 36 63t110 29h10q55-2 94-27 39-26 60-71c2-5 11-22 19-57a246 246 0 0 0 3-63v-16l-6-190-2-59a2384 2384 0 0 0-9-148q-3-6-18-10z"/>
      <path id="307ce" d="M527 701q-68 1-104 31-36 31-37 68v1c1 23 60 14 57-3q0-21 24-32 24-12 59-11h4q27 0 53 3t55 13l58 24a505 505 0 0 1 127 88q16 16 27 16 9 0 15-6l11-13q6-15 6-25 0-15-23-34-21-19-52-37a782 782 0 0 0-153-66q-29-8-61-11l-61-6z"/>
    </g>
    <path id="307cf" d="M918 246q0-4-12-24-10-19-26-42t-32-40q-17-17-28-17-10 0-17 8t-7 16 4 13q14 15 31 45 19 28 35 56 10 13 21 13 8 0 19-8 12-9 12-20"/>
    <path id="307cg" d="M991 227q10-12 10-20 0-5-3-11-22-33-44-58l-34-40q-10-9-19-9-10 0-18 7-7 7-7 16 0 8 6 14 14 16 32 44 20 28 37 56 6 11 17 11 8 0 14-4z"/>
  </g>
  <g data-strokesvg="strokes" style="stroke:var(--stroke,#000);fill:none;stroke-width:128;stroke-linecap:round">
    <path style="--i:0" d="M164 131c200 65-86 602 36 765l92-208" clip-path="url(#307ch)"/>
    <path style="--i:1" d="m331 232 425 12" clip-path="url(#307ci)"/>
    <path style="--i:2" d="m362 438 446-8" clip-path="url(#307cj)"/>
    <g style="--i:3">
      <path d="M579 212c179 94 113 651-19 651 0 0-182 20-131-65 50-85 164-103 396 56" clip-path="url(#307ck)"/>
      <path d="M1206 943c-109 170-658 51-646-80 0 0-182 20-131-65 50-85 164-103 396 56" clip-path="url(#307cl)"/>
    </g>
    <path style="--i:4" d="m758 81 111 137" clip-path="url(#307cm)"/>
    <path style="--i:5" d="m841 44 109 138" clip-path="url(#307cn)"/>
  </g>
</svg>
