<svg data-strokesvg="ã½" viewBox="0 0 1024 1024" xmlns="http://www.w3.org/2000/svg">
  <defs>
    <clipPath id="307dg">
      <use href="#307da"/>
    </clipPath>
    <clipPath id="307dh">
      <use href="#307db"/>
    </clipPath>
    <clipPath id="307di">
      <use href="#307dc"/>
    </clipPath>
    <clipPath id="307dj">
      <use href="#307dd"/>
    </clipPath>
    <clipPath id="307dk">
      <use href="#307de"/>
    </clipPath>
    <clipPath id="307dl">
      <use href="#307df"/>
    </clipPath>
  </defs>
  <g data-strokesvg="shadows" style="fill:var(--shadow,#ccc)">
    <path id="307da" d="M315 636h-4q-9 0-15 13l-13 27-24 46-26 48-1-18v-21q0-48 5-110l10-131 15-132q8-65 18-117l1-9 1-9q0-14-11-22-9-8-22-12t-24-5l-10-2q-8 0-9 4v1q0 4 5 13 5 8 6 16l1 11-1 9-5 36-10 82-12 103-10 103-5 80v34q0 87 5 136 5 48 14 69 8 20 17 24 10 5 20 5t18-4q8-4 11-17l7-27 17-56 17-67 15-57 7-29q0-14-8-15"/>
    <path id="307db" d="M682 252a574 574 0 0 1 80-4q16-1 25-6 11-6 11-16l-1-2v-3q-4-10-19-21-14-12-24-13h-5q-10 1-18 4-7 4-18 4-57 3-101 11l-83 15-88 16h-4q-10 0-17-4l-13-3-5 1q-5 3-5 8 0 8 7 20 9 12 21 23a41 41 0 0 0 39 7q8-3 16-3l79-16q35-7 71-12z"/>
    <path id="307dc" d="M651 420a1092 1092 0 0 1-130 11q-41 0-53-6-8-4-25-4-8 0-11 3-3 4-3 10t9 20q9 12 37 22 29 10 85 10a473 473 0 0 0 93-8l59-9q71-12 103-22 33-9 41-16 9-8 9-14l-1-3v-3q-3-12-19-22-15-11-34-11h-4q-9 1-13 6-5 4-14 8a523 523 0 0 1-70 18z"/>
    <g>
      <path id="307dd" d="M655 252c-15 0-26 1-25 7q1 8 9 15 7 9 8 16 3 17 2 52l2 78 2 58 3 186v27a175 175 0 0 1-18 80 96 96 0 0 1-48 50q-33 15-66 16h-3q-30-1-54-13-24-11-24-26c1-13-57-15-57 3q0 34 36 63t110 29h10q55-2 94-27 39-26 60-71c2-5 11-22 19-57a246 246 0 0 0 3-63v-16l-6-190-2-59a2384 2384 0 0 0-9-148q-3-6-18-10z"/>
      <path id="307de" d="M527 701q-68 1-104 31-36 31-37 68v1c1 23 60 14 57-3q0-21 24-32 24-12 59-11h4q27 0 53 3t55 13l58 24a505 505 0 0 1 127 88q16 16 27 16 9 0 15-6l11-13q6-15 6-25 0-15-23-34-21-19-52-37a782 782 0 0 0-153-66q-29-8-61-11l-61-6z"/>
    </g>
    <path id="307df" d="M909 81q-40 0-69 29a98 98 0 0 0-28 70q0 42 28 71 29 29 69 29a99 99 0 1 0 0-199m0 45q23 0 38 16 17 16 17 38 0 20-17 36a51 51 0 0 1-75 0 51 51 0 0 1 0-74q17-16 37-16"/>
  </g>
  <g data-strokesvg="strokes" style="stroke:var(--stroke,#000);fill:none;stroke-width:128;stroke-linecap:round">
    <path style="--i:0" d="M164 131c200 65-86 602 36 765l92-208" clip-path="url(#307dg)"/>
    <path style="--i:1" d="m331 232 409 8" clip-path="url(#307dh)"/>
    <path style="--i:2" d="m362 438 446-8" clip-path="url(#307di)"/>
    <g style="--i:3">
      <path d="M579 212c179 94 113 651-19 651 0 0-182 20-131-65 50-85 164-103 396 56" clip-path="url(#307dj)"/>
      <path d="M1206 943c-109 170-658 51-646-80 0 0-182 20-131-65 50-85 164-103 396 56" clip-path="url(#307dk)"/>
    </g>
    <path style="--i:4" d="M929 11c-140 88-174 192-11 241 84 25 116-127 23-122" clip-path="url(#307dl)"/>
  </g>
</svg>
