<svg data-strokesvg="ã¾" viewBox="0 0 1024 1024" xmlns="http://www.w3.org/2000/svg">
  <defs>
    <clipPath id="307ee">
      <use href="#307ea"/>
    </clipPath>
    <clipPath id="307ef">
      <use href="#307eb"/>
    </clipPath>
    <clipPath id="307eg">
      <use href="#307ec"/>
    </clipPath>
    <clipPath id="307eh">
      <use href="#307ed"/>
    </clipPath>
  </defs>
  <g data-strokesvg="shadows" style="fill:var(--shadow,#ccc)">
    <path id="307ea" d="M524 275a2965 2965 0 0 0-251 43l-8 3h-8l-13-2-15-2-7 1c-3 3-4 5-4 8 0 4 3 11 8 19 6 8 13 16 21 23a41 41 0 0 0 39 7 1455 1455 0 0 1 119-26c39-7 80-13 121-18l62-7a1173 1173 0 0 1 156-10c12 0 21-1 28-4 8-3 11-8 11-15v-4c-2-8-8-17-19-25-10-8-20-12-28-13h-5c-7 0-13 1-18 3a129 129 0 0 1-30 4h-13a1020 1020 0 0 0-84 8z"/>
    <path id="307eb" d="M530 481a4959 4959 0 0 1-118 14h-30c-27 0-50-2-67-6l-22-2c-8 0-13 1-15 3-3 3-5 6-5 12 0 11 6 19 17 25 11 7 25 11 42 15a619 619 0 0 0 87 7h28l9-1a1757 1757 0 0 0 77-8l61-10c45-6 80-12 106-17s45-10 57-14c11-4 19-8 21-12 4-3 5-6 5-9l-1-3v-3c-2-7-10-15-21-21-11-8-24-12-38-12h-4c-7 1-12 3-16 5-2 3-7 6-15 10l-33 7-63 10z"/>
    <g>
      <path id="307ec" d="M516 117c-10 0-16 3-16 9v1c0 4 1 8 5 11l9 10c3 3 4 7 5 15a4216 4216 0 0 1 5 113l2 55a30556 30556 0 0 1 4 150l2 59 7 149v13a212 212 0 0 1-22 93c-11 21-27 38-47 52a149 149 0 0 1-73 24h-7c-13 0-28-1-45-5-16-3-31-8-43-15-12-8-17-17-17-28 0-18-63-20-64 0v3c0 20 8 38 24 54 16 15 37 27 63 35 27 9 55 14 84 14h16c38-2 72-13 102-32 31-20 54-47 71-82a227 227 0 0 0 19-78v-36l-1-15-2-62-3-94-2-59-4-147-2-56-2-70v-40c0-10-2-17-6-23-5-5-17-10-38-15a117 117 0 0 0-24-3z"/>
      <path id="307ed" d="M393 721c-14 0-31 2-50 6-19 3-38 9-56 17-19 8-34 19-46 32a70 70 0 0 0-20 47c1 23 62 20 64 0 0-11 6-21 18-27a242 242 0 0 1 91-19h9a451 451 0 0 1 114 18l64 20c30 11 59 25 88 41 28 16 50 33 65 51 6 7 11 12 16 14 4 2 9 4 13 4 11 0 19-5 25-16 7-10 11-20 11-30 0-11-6-21-17-31a449 449 0 0 0-148-79 811 811 0 0 0-98-30 806 806 0 0 0-143-18z"/>
    </g>
  </g>
  <g data-strokesvg="strokes" style="stroke:var(--stroke,#000);fill:none;stroke-width:128;stroke-linecap:round">
    <path style="--i:0" d="m151 323 576-13" clip-path="url(#307ee)"/>
    <path style="--i:1" d="m206 505 522-10" clip-path="url(#307ef)"/>
    <g style="--i:2">
      <path d="M456 72c180 67 139 793 20 814 0 0-192 61-210-78-12-90 284-58 478 66" clip-path="url(#307eg)"/>
      <path d="M1279 1015c-98 165-804-9-803-129 0 0-192 61-210-78-12-90 284-58 478 66" clip-path="url(#307eh)"/>
    </g>
  </g>
</svg>
