<svg data-strokesvg="ã¾" viewBox="0 0 1024 1024" xmlns="http://www.w3.org/2000/svg">
  <defs>
    <clipPath id="307ee">
      <use href="#307ea"/>
    </clipPath>
    <clipPath id="307ef">
      <use href="#307eb"/>
    </clipPath>
    <clipPath id="307eg">
      <use href="#307ec"/>
    </clipPath>
    <clipPath id="307eh">
      <use href="#307ed"/>
    </clipPath>
  </defs>
  <g data-strokesvg="shadows" style="fill:var(--shadow,#ccc)">
    <path id="307ea" d="M524 275a2965 2965 0 0 0-251 43l-8 3h-8l-13-2-15-2-7 1q-4 4-4 8 0 6 8 19 9 12 21 23a41 41 0 0 0 39 7q6-3 14-4 45-12 104-22 60-10 122-18l62-7a1173 1173 0 0 1 156-10q18 0 28-4 12-4 11-15v-4q-3-13-19-25-15-12-28-13h-5q-10 0-18 3l-30 4h-13l-84 8z"/>
    <path id="307eb" d="m530 481-118 14h-30q-41 0-67-6l-22-2q-12 0-15 3-5 4-5 12 0 16 17 25 17 10 42 15a619 619 0 0 0 87 7h28l9-1q14-3 33-3l43-5 62-10q67-9 106-17t57-14 21-12q6-4 5-9l-1-3v-3q-4-11-21-21-17-12-38-12h-4q-10 2-16 5-3 4-15 10l-33 7-63 10z"/>
    <g>
      <path id="307ec" d="M516 117q-15 0-16 9v1q-1 6 5 11l9 10q4 4 5 15 3 10 3 37l2 75 2 56 4 150 2 59 7 149v13a212 212 0 0 1-22 93q-17 31-47 52a149 149 0 0 1-73 24h-7q-20 1-45-5-25-4-43-15-17-12-17-28c0-18-63-20-64 0v3q0 30 24 54 24 23 63 35 40 14 84 14h16q57-3 102-32 46-30 71-82a227 227 0 0 0 19-78v-36l-1-15-2-62-3-94-2-59-4-147-2-56-2-70v-40q0-14-6-23-7-8-38-15z"/>
      <path id="307ed" d="M393 721q-21 0-50 6-29 5-56 17-28 12-46 32a70 70 0 0 0-20 47c1 23 62 20 64 0q0-17 18-27t44-15q26-5 47-5h9q28 0 55 5 27 4 59 14l64 20q45 17 88 41 42 24 65 51 9 11 16 14 6 4 13 4 16 0 25-16 11-15 11-30 0-16-17-31-16-16-42-31a449 449 0 0 0-106-48 811 811 0 0 0-98-30 806 806 0 0 0-143-18"/>
    </g>
  </g>
  <g data-strokesvg="strokes" style="stroke:var(--stroke,#000);fill:none;stroke-width:128;stroke-linecap:round">
    <path style="--i:0" d="m151 323 576-13" clip-path="url(#307ee)"/>
    <path style="--i:1" d="m206 505 522-10" clip-path="url(#307ef)"/>
    <g style="--i:2">
      <path d="M456 72c180 67 139 793 20 814 0 0-192 61-210-78-12-90 284-58 478 66" clip-path="url(#307eg)"/>
      <path d="M1279 1015c-98 165-804-9-803-129 0 0-192 61-210-78-12-90 284-58 478 66" clip-path="url(#307eh)"/>
    </g>
  </g>
</svg>
