<svg data-strokesvg="ã¿" viewBox="0 0 1024 1024" xmlns="http://www.w3.org/2000/svg">
  <defs>
    <clipPath id="307fd">
      <use href="#307fa"/>
    </clipPath>
    <clipPath id="307fe">
      <use href="#307fb"/>
    </clipPath>
    <clipPath id="307ff">
      <use href="#307fc"/>
    </clipPath>
  </defs>
  <g data-strokesvg="shadows" style="fill:var(--shadow,#ccc)">
    <g>
      <path id="307fa" d="M524 175q-8 0-13 3l-126 36-85 17-28-3-8 2-1 4q1 7 10 22 11 13 26 25 15 11 25 11 11 0 29-7l140-42-149 321-27 58-39 70q-21 34-46 60a78 78 0 0 1-50 26q-3 0-11-7-7-7-7-22c1-17-55-21-56-3q0 20 7 39 7 20 22 35t41 18h8q14 0 33-7 21-5 46-26 27-21 58-66t64-121l25-55 20-45 80-171a2056 2056 0 0 1 68-135q0-18-20-27-18-9-36-10"/>
      <path id="307fb" d="M344 564q-81 8-133 39t-78 71-25 72c-1 32 56 25 56 3v-5l1-5q4-24 25-50 22-26 56-44 33-20 71-23 41-5 70-4 80 2 152 17a1117 1117 0 0 1 193 55c66 22 76 31 164 63q9 4 18 4 13 0 17-8 5-10 5-21-1-11-6-22-4-13-16-21-6-4-14-6l-12-3-39-16q-35-14-92-31l-62-20q-62-17-135-30t-148-16c-21 0-34-1-68 1"/>
    </g>
    <path id="307fc" d="M676 671q-24 65-59 128-33 62-69 101-20 22-20 37l2 8q3 3 8 3 16 0 49-32 33-31 71-90 41-58 74-136l25-61a490 490 0 0 0 28-133q0-15-6-21-6-7-20-11-26-10-46-10-12 0-15 6l-1 2v2q0 9 9 21 8 11 8 23v1l-4 32q-3 27-15 68c-6 25-13 42-19 62"/>
  </g>
  <g data-strokesvg="strokes" style="stroke:var(--stroke,#000);fill:none;stroke-width:128;stroke-linecap:round">
    <g style="--i:0">
      <path d="M199 217c122 76 244-52 344-51-55 120-146 412-227 550 0 0-142 215-164 27-15-137 245-212 729-22" clip-path="url(#307fd)"/>
      <path d="M610 1137c-142-26-208 138-301 173 7-131-17-436 7-594 0 0-142 215-164 27-15-137 245-212 729-22" clip-path="url(#307fe)"/>
    </g>
    <path style="--i:1" d="M656 406c233 114-85 515-85 515" clip-path="url(#307ff)"/>
  </g>
</svg>
