<svg data-strokesvg="ã¿" viewBox="0 0 1024 1024" xmlns="http://www.w3.org/2000/svg">
  <defs>
    <clipPath id="307fd">
      <use href="#307fa"/>
    </clipPath>
    <clipPath id="307fe">
      <use href="#307fb"/>
    </clipPath>
    <clipPath id="307ff">
      <use href="#307fc"/>
    </clipPath>
  </defs>
  <g data-strokesvg="shadows" style="fill:var(--shadow,#ccc)">
    <g>
      <path id="307fa" d="M524 175a2745 2745 0 0 1-139 39 1749 1749 0 0 1-85 17 124 124 0 0 1-28-3l-8 2-1 4c0 5 4 12 10 22 8 9 16 17 26 25 10 7 18 11 25 11s17-3 29-7l140-42-149 321-27 58-39 70c-14 23-29 43-46 60a78 78 0 0 1-50 26c-2 0-6-2-11-7s-7-12-7-22c1-17-55-21-56-3 0 13 2 26 7 39 4 13 12 25 22 35s24 16 41 18h8a143 143 0 0 0 79-33c18-14 37-36 58-66 20-30 42-70 64-121l25-55 20-45a6738 6738 0 0 0 80-171 2056 2056 0 0 1 68-135c0-12-7-21-20-27-12-6-24-10-36-10z"/>
      <path id="307fb" d="M344 564c-54 5-98 18-133 39s-61 44-78 71c-17 26-25 50-25 72-1 32 56 25 56 3v-5l1-5c3-16 11-33 25-50 15-17 33-32 56-44 22-13 46-21 71-23 27-4 51-4 70-4a1117 1117 0 0 1 345 72c66 22 76 31 164 63 6 2 12 4 18 4 9 0 14-3 17-8 3-7 5-13 5-21-1-7-3-15-6-22-3-9-8-15-16-21-4-3-9-5-14-6l-12-3-39-16c-23-9-54-20-92-31l-62-20c-41-11-86-22-135-30-48-9-98-14-148-16-21 0-34-1-68 1z"/>
    </g>
    <path id="307fc" d="M676 671c-16 43-35 86-59 128-22 41-45 75-69 101-13 15-20 27-20 37l2 8c2 2 5 3 8 3 11 0 27-10 49-32a818 818 0 0 0 145-226l25-61a490 490 0 0 0 28-133c0-10-2-17-6-21-4-5-11-8-20-11-17-7-33-10-46-10-8 0-13 2-15 6l-1 2v2c0 6 3 13 9 21 5 8 8 15 8 23v1l-4 32c-2 18-7 41-15 68-6 25-13 42-19 62z"/>
  </g>
  <g data-strokesvg="strokes" style="stroke:var(--stroke,#000);fill:none;stroke-width:128;stroke-linecap:round">
    <g style="--i:0">
      <path d="M199 217c122 76 244-52 344-51-55 120-146 412-227 550 0 0-142 215-164 27-15-137 245-212 729-22" clip-path="url(#307fd)"/>
      <path d="M610 1137c-142-26-208 138-301 173 7-131-17-436 7-594 0 0-142 215-164 27-15-137 245-212 729-22" clip-path="url(#307fe)"/>
    </g>
    <path style="--i:1" d="M656 406c233 114-85 515-85 515" clip-path="url(#307ff)"/>
  </g>
</svg>
