<svg data-strokesvg="む" viewBox="0 0 1024 1024" xmlns="http://www.w3.org/2000/svg">
  <defs>
    <clipPath id="3080e">
      <use href="#3080a"/>
    </clipPath>
    <clipPath id="3080f">
      <use href="#3080b"/>
    </clipPath>
    <clipPath id="3080g">
      <use href="#3080c"/>
    </clipPath>
    <clipPath id="3080h">
      <use href="#3080d"/>
    </clipPath>
  </defs>
  <g data-strokesvg="shadows" style="fill:var(--shadow,#ccc)">
    <path id="3080a" d="M332 361a1769 1769 0 0 1-78 19l-46 11-27 4h-8l-9-1a357 357 0 0 0-22-4l-9 3c-2 2-3 5-3 7 0 5 3 12 10 21s15 17 24 24c9 8 18 12 25 12l23-4a3384 3384 0 0 1 97-23l22-5 62-14a2807 2807 0 0 1 172-34c8-4 12-9 12-16l-2-6c-2-7-9-15-19-23-10-9-19-14-28-15h-3l-2-1c-7 0-13 2-19 6l-19 7a4050 4050 0 0 0-90 18z"/>
    <g>
      <path id="3080b" d="M327 124c-9 0-14 3-17 8l-1 2v1c0 4 2 8 6 12l12 14c2 2 3 7 5 13l2 14-1 56-1 117-1 64a5434 5434 0 0 1-2 201l-5 120v26c-1 9-3 18-8 27-3 8-9 13-17 15h-3c-15 0-28-10-40-31-10-19-16-42-16-68 0-14-58-19-58 0v7c0 31 6 59 18 82s27 41 46 54c18 12 37 19 57 19 8 0 14-2 20-5 6-2 12-6 17-11 22-23 41-49 46-106l1-12 1-10 1-64a22066 22066 0 0 0 4-258l2-64a27117 27117 0 0 1 5-161v-10c0-14-2-24-7-30-4-6-14-11-29-15a448 448 0 0 0-37-7z"/>
      <path id="3080c" d="M769 540c-5 0-9 4-13 12s-7 20-8 37c-4 46-8 87-14 125-5 37-14 67-25 88-9 13-22 24-40 33-18 8-38 14-61 18a573 573 0 0 1-182 4c-14-5-23-11-27-19-4-9-6-18-8-28l-5-55 1-12c0-1 1-63-58-117a98 98 0 0 0-64-24h-7c-20 1-35 8-46 21s-19 28-24 46c-3 15-5 31-6 46 0 19 58 15 58 0v-5c0-12 1-23 5-33s11-16 20-18h3c10 0 19 5 27 15 8 9 15 20 20 34 6 13 9 26 9 38v26c-2 32 6 61 16 89 7 20 19 35 38 44 19 10 42 16 68 19 27 3 55 5 84 5a413 413 0 0 0 181-40c26-13 43-28 53-45 7-12 13-29 16-50a707 707 0 0 0 10-146l-2-31v-25c0-35-7-52-19-52z"/>
    </g>
    <path id="3080d" d="M913 468q15-9 15-31 0-12-19-38-17-25-43-55-24-31-49-55-24-26-39-36-5-4-14-4-12 0-24 9-10 9-10 21 0 9 9 17 15 11 33 33 20 21 38 47 19 24 34 48 14 22 20 37 7 17 23 17 8 0 15-3t11-7z"/>
  </g>
  <g data-strokesvg="strokes" style="stroke:var(--stroke,#000);fill:none;stroke-width:128;stroke-linecap:round">
    <path style="--i:0" d="m55 458 464-99" clip-path="url(#3080e)"/>
    <g style="--i:1">
      <path d="m356 46 7 715s-21 81-85 79c-48-1-57-47-57-47s-27-171 64-152c162 34 7 221 127 239 121 18 306 37 330-98s26-186 26-186" clip-path="url(#3080f)"/>
      <path d="M867 1192 198 936s-67-49-42-108c19-44 65-35 65-35s-27-171 64-152c162 34 7 221 127 239 121 18 306 37 330-98s26-186 26-186" clip-path="url(#3080g)"/>
    </g>
    <path style="--i:2" d="m698 202 178 225" clip-path="url(#3080h)"/>
  </g>
</svg>
