<svg data-strokesvg="む" viewBox="0 0 1024 1024" xmlns="http://www.w3.org/2000/svg">
  <defs>
    <clipPath id="3080e">
      <use href="#3080a"/>
    </clipPath>
    <clipPath id="3080f">
      <use href="#3080b"/>
    </clipPath>
    <clipPath id="3080g">
      <use href="#3080c"/>
    </clipPath>
    <clipPath id="3080h">
      <use href="#3080d"/>
    </clipPath>
  </defs>
  <g data-strokesvg="shadows" style="fill:var(--shadow,#ccc)">
    <path id="3080a" d="m332 361-78 19-46 11-27 4h-8l-9-1-22-4-9 3q-3 3-3 7 0 8 10 21 11 14 24 24 14 12 25 12l23-4 97-23 22-5 62-14a2807 2807 0 0 1 172-34q12-6 12-16l-2-6q-3-11-19-23-15-13-28-15h-3l-2-1q-10 0-19 6l-19 7q-16 1-40 7l-50 11z"/>
    <g>
      <path id="3080b" d="M327 124q-13 0-17 8l-1 2v1q0 6 6 12l12 14q2 4 5 13l2 14-1 56-1 117-1 64-2 201-5 120v26q-1 14-8 27-5 12-17 15h-3q-22 0-40-31-15-29-16-68c0-14-58-19-58 0v7q0 47 18 82t46 54q27 18 57 19 12 0 20-5 9-3 17-11c22-23 41-49 46-106l1-12 1-10 1-64 4-258 2-64 5-161v-10q0-21-7-30-6-9-29-15z"/>
      <path id="3080c" d="M769 540q-7 0-13 12t-8 37q-5 69-14 125-8 56-25 88-13 20-40 33-27 12-61 18a573 573 0 0 1-182 4q-21-7-27-19-5-13-8-28l-5-55 1-12c0-1 1-63-58-117a98 98 0 0 0-64-24h-7q-30 2-46 21t-24 46q-5 23-6 46c0 19 58 15 58 0v-5q0-18 5-33 6-15 20-18h3q15 0 27 15 12 13 20 34 9 20 9 38v26c-2 32 6 61 16 89q10 30 38 44 29 15 68 19 41 5 84 5a413 413 0 0 0 181-40q39-20 53-45 11-18 16-50a707 707 0 0 0 10-146l-2-31v-25q0-52-19-52"/>
    </g>
    <path id="3080d" d="M913 468q15-9 15-31 0-12-19-38-17-25-43-55-24-31-49-55-24-26-39-36-5-4-14-4-12 0-24 9-10 9-10 21 0 9 9 17 15 11 33 33 20 21 38 47 19 24 34 48 14 22 20 37 7 17 23 17 8 0 15-3t11-7"/>
  </g>
  <g data-strokesvg="strokes" style="stroke:var(--stroke,#000);fill:none;stroke-width:128;stroke-linecap:round">
    <path style="--i:0" d="m55 458 464-99" clip-path="url(#3080e)"/>
    <g style="--i:1">
      <path d="m356 46 7 715s-21 81-85 79c-48-1-57-47-57-47s-27-171 64-152c162 34 7 221 127 239 121 18 306 37 330-98s26-186 26-186" clip-path="url(#3080f)"/>
      <path d="M867 1192 198 936s-67-49-42-108c19-44 65-35 65-35s-27-171 64-152c162 34 7 221 127 239 121 18 306 37 330-98s26-186 26-186" clip-path="url(#3080g)"/>
    </g>
    <path style="--i:2" d="m698 202 178 225" clip-path="url(#3080h)"/>
  </g>
</svg>
