<svg data-strokesvg="ã‚" viewBox="0 0 1024 1024" xmlns="http://www.w3.org/2000/svg">
  <defs>
    <clipPath id="3081d">
      <use href="#3081a"/>
    </clipPath>
    <clipPath id="3081e">
      <use href="#3081b"/>
    </clipPath>
    <clipPath id="3081f">
      <use href="#3081c"/>
    </clipPath>
  </defs>
  <g data-strokesvg="shadows" style="fill:var(--shadow,#ccc)">
    <path id="3081a" d="M269 225q-13 0-16 7v2q0 6 7 12a43 43 0 0 1 14 25l2 11 22 154a1851 1851 0 0 0 30 157l20 89q7 29 18 59 11 42 19 55 9 12 21 12 14 0 23-14 9-16 9-34 1-7-2-14l-10-27-10-29a2256 2256 0 0 1-53-231l-10-58-9-65-7-64q-1-14-5-23-4-10-24-16l-19-5z"/>
    <g>
      <path id="3081b" d="M605 140q-7 1-8 4l-1 4 3 10q3 3 5 9 2 5 2 12l1 11q-3 34-16 70-12 35-26 70a650 650 0 0 1-50 114 1167 1167 0 0 1-118 180 525 525 0 0 1-95 102l-36 28q-18 11-30 11-10 0-19-16a236 236 0 0 1-21-62c-1-16-61-18-61 0v2q0 11 6 35 8 24 20 49t27 43 36 18q18 0 43-16a461 461 0 0 0 99-77c15-14 30-26 50-51q52-58 103-137t95-177l23-54a625 625 0 0 0 39-134q0-12-10-22-10-9-25-14-13-7-25-9z"/>
      <path id="3081c" d="M565 330a745 745 0 0 0-212 71c-17 11-32 18-55 35q-58 44-94 89-35 45-51 87t-18 75c1 28 63 27 61 0q0-46 31-98a361 361 0 0 1 135-130q39-23 84-41 47-20 98-33c25-5 41-8 70-9l21-1q81 0 134 46 54 46 53 136v5q-1 52-27 104-27 50-70 95-43 44-94 80c-70 49-104 56-118 68q-6 7-6 13v3q3 9 16 9l32-9a566 566 0 0 0 156-76q45-30 86-71 41-40 67-94 27-54 30-121v-13a217 217 0 0 0-121-200q-55-28-124-28h-12c-25 1-37 1-72 8"/>
    </g>
  </g>
  <g data-strokesvg="strokes" style="stroke:var(--stroke,#000);fill:none;stroke-width:128;stroke-linecap:round">
    <path style="--i:0" d="m246 158 179 595" clip-path="url(#3081d)"/>
    <g style="--i:1">
      <path d="M574 78c146 170-33 391-196 633 0 0-207 200-204-19 3-224 455-422 583-315 331 278-208 526-208 526" clip-path="url(#3081e)"/>
      <path d="M563 1349c-216-63-187-346-185-638 0 0-207 200-204-19 3-224 455-422 583-315 331 278-208 526-208 526" clip-path="url(#3081f)"/>
    </g>
  </g>
</svg>
