<svg data-strokesvg="ã‚" viewBox="0 0 1024 1024" xmlns="http://www.w3.org/2000/svg">
  <defs>
    <clipPath id="3081d">
      <use href="#3081a"/>
    </clipPath>
    <clipPath id="3081e">
      <use href="#3081b"/>
    </clipPath>
    <clipPath id="3081f">
      <use href="#3081c"/>
    </clipPath>
  </defs>
  <g data-strokesvg="shadows" style="fill:var(--shadow,#ccc)">
    <path id="3081a" d="M269 225c-9 0-14 3-16 7v2c0 4 2 8 7 12a43 43 0 0 1 14 25l2 11a22170 22170 0 0 1 22 154 1851 1851 0 0 0 30 157l20 89c6 20 10 38 18 59 7 28 14 46 19 55 6 8 13 12 21 12 9 0 17-5 23-14 6-11 9-22 9-34 0-5 0-9-2-14l-10-27-10-29a2256 2256 0 0 1-53-231l-10-58-9-65-7-64c-1-9-2-17-5-23-3-7-11-12-24-16l-19-5-20-3z"/>
    <g>
      <path id="3081b" d="M605 140c-5 0-7 2-8 4l-1 4 3 10c2 2 4 5 5 9 2 3 2 7 2 12l1 11c-2 23-8 46-16 70-8 23-16 47-26 70a650 650 0 0 1-50 114 1167 1167 0 0 1-118 180 525 525 0 0 1-95 102l-36 28c-12 7-22 11-30 11-7 0-13-6-19-16a236 236 0 0 1-21-62c-1-16-61-18-61 0v2c0 8 2 19 6 35 5 16 12 32 20 49s17 31 27 43c11 12 23 18 36 18 12 0 26-6 43-16a461 461 0 0 0 99-77c15-14 30-26 50-51a1303 1303 0 0 0 199-314l22-54a625 625 0 0 0 39-134c0-8-4-16-10-22-7-6-15-11-25-14-9-5-17-7-25-9l-11-3z"/>
      <path id="3081c" d="M565 330a745 745 0 0 0-212 71c-17 11-32 18-55 35-39 29-70 59-94 89-23 30-41 59-51 87-11 28-16 53-18 75 1 28 63 27 61 0 0-31 10-63 31-98a361 361 0 0 1 135-130 707 707 0 0 1 181-74c26-5 42-8 71-9l21-1c54 0 99 15 134 46 36 31 53 76 53 136v5c0 35-10 69-27 104-18 33-41 65-70 95-29 29-60 56-94 80-70 49-104 56-118 68-4 5-6 9-6 13v3c2 6 7 9 16 9l32-9a566 566 0 0 0 156-76c30-20 59-43 86-71 27-27 50-58 67-94 18-36 28-76 30-121v-13a217 217 0 0 0-121-200c-37-19-78-28-124-28h-12c-25 1-37 1-72 8z"/>
    </g>
  </g>
  <g data-strokesvg="strokes" style="stroke:var(--stroke,#000);fill:none;stroke-width:128;stroke-linecap:round">
    <path style="--i:0" d="m246 158 179 595" clip-path="url(#3081d)"/>
    <g style="--i:1">
      <path d="M574 78c146 170-33 391-196 633 0 0-207 200-204-19 3-224 455-422 583-315 331 278-208 526-208 526" clip-path="url(#3081e)"/>
      <path d="M563 1349c-216-63-187-346-185-638 0 0-207 200-204-19 3-224 455-422 583-315 331 278-208 526-208 526" clip-path="url(#3081f)"/>
    </g>
  </g>
</svg>
