<svg data-strokesvg="も" viewBox="0 0 1024 1024" xmlns="http://www.w3.org/2000/svg">
  <defs>
    <clipPath id="3082d">
      <use href="#3082a"/>
    </clipPath>
    <clipPath id="3082e">
      <use href="#3082b"/>
    </clipPath>
    <clipPath id="3082f">
      <use href="#3082c"/>
    </clipPath>
  </defs>
  <g data-strokesvg="shadows" style="fill:var(--shadow,#ccc)">
    <path id="3082a" d="M769 743v-2c-1-42-9-81-25-116a542 542 0 0 0-99-142c-9-8-17-12-22-12h-1c-4 0-6 3-6 8 0 11 7 27 21 48 24 36 41 70 51 102a293 293 0 0 1 14 100v9c-1 20-9 42-24 66-14 24-34 44-58 61s-52 25-83 25c-15 0-30-3-43-9-25-13-46-30-64-54-18-23-27-58-27-106 0-14 1-30 4-46l5-45 8-58a2817 2817 0 0 1 26-150l13-57a1684 1684 0 0 0 36-200v-4l1-5c0-10-3-16-8-20a166 166 0 0 0-69-18c-6 0-10 1-12 3-3 3-4 5-4 8 0 5 3 9 7 13l9 11c3 2 4 7 5 13l1 14c-1 24-4 51-9 81l-19 100-10 56-13 71-13 81-8 57-8 61-2 42c0 44 7 80 21 110a203 203 0 0 0 112 107c21 8 39 11 54 11 35 0 66-7 95-21s54-33 75-55c22-23 39-46 51-71s18-47 18-67z"/>
    <path id="3082b" d="M446 422a568 568 0 0 1 80 16l12 2c15 0 24-9 28-28v-3l1-3c0-6-2-11-6-16-3-5-8-9-14-10a480 480 0 0 0-88-15l-62-4h-22c-36 0-63 1-83 3-19 1-33 3-41 7-8 2-13 6-15 11s-3 10-3 16c0 12 9 18 25 18h33a433 433 0 0 1 65 0l31 1 59 5z"/>
    <path id="3082c" d="M412 630a23395 23395 0 0 0 91 3c24 0 41-1 51-3 11-2 17-5 19-9 3-5 5-9 5-15 0-7-6-15-18-24a63 63 0 0 0-34-17h-4l-14 2-13 4-16 1h-59c-22 0-38-1-59-3a397 397 0 0 1-112-23c-2-2-5-3-10-4l-13-3-5 1c-4 2-6 7-6 15 0 14 6 25 18 34 13 9 27 16 45 21a291 291 0 0 0 75 16c12 1 22 3 59 4z"/>
  </g>
  <g data-strokesvg="strokes" style="stroke:var(--stroke,#000);fill:none;stroke-width:128;stroke-linecap:round">
    <path style="--i:0" d="M376 62c226 193-141 680 44 822 211 161 405-91 234-372" clip-path="url(#3082d)"/>
    <path style="--i:1" d="m165 395 341 12" clip-path="url(#3082e)"/>
    <path style="--i:2" d="m148 545 369 61" clip-path="url(#3082f)"/>
  </g>
</svg>
