<svg data-strokesvg="も" viewBox="0 0 1024 1024" xmlns="http://www.w3.org/2000/svg">
  <defs>
    <clipPath id="3082d">
      <use href="#3082a"/>
    </clipPath>
    <clipPath id="3082e">
      <use href="#3082b"/>
    </clipPath>
    <clipPath id="3082f">
      <use href="#3082c"/>
    </clipPath>
  </defs>
  <g data-strokesvg="shadows" style="fill:var(--shadow,#ccc)">
    <path id="3082a" d="M769 743v-2q-1-63-25-116a542 542 0 0 0-99-142q-14-12-22-12h-1q-6 0-6 8 0 17 21 48 36 54 51 102a293 293 0 0 1 14 100v9q-1 30-24 66-21 36-58 61-36 25-83 25-23 0-43-9-37-19-64-54-27-34-27-106 0-21 4-46l5-45 8-58a2817 2817 0 0 1 26-150l13-57a1684 1684 0 0 0 36-200v-4l1-5q0-14-8-20-6-4-20-9a166 166 0 0 0-48-9q-10 0-13 3-4 4-4 8 0 7 7 13l9 11q4 4 5 13l1 14q-1 36-9 81l-19 100-10 56-13 71-13 81-8 57-8 61-2 42q0 66 21 110a203 203 0 0 0 112 107q32 11 54 11 52 0 95-21 44-21 75-55 33-34 51-71t18-67"/>
    <path id="3082b" d="M446 422a568 568 0 0 1 80 16l12 2q22 0 28-28v-3l1-3q0-9-6-16-5-8-14-10-14-6-38-9-23-4-50-6l-62-4h-22q-54 0-83 3-29 1-41 7-12 3-15 11-3 7-3 16 1 18 25 18h33a433 433 0 0 1 65 0l31 1z"/>
    <path id="3082c" d="m412 630 91 3q36 0 51-3 16-3 19-9 5-7 5-15 0-11-18-24a63 63 0 0 0-34-17h-4l-14 2-13 4-16 1h-59c-22 0-38-1-59-3a397 397 0 0 1-112-23q-3-3-10-4l-13-3-5 1q-6 3-6 15 0 21 18 34 19 14 45 21a291 291 0 0 0 75 16c12 1 22 3 59 4"/>
  </g>
  <g data-strokesvg="strokes" style="stroke:var(--stroke,#000);fill:none;stroke-width:128;stroke-linecap:round">
    <path style="--i:0" d="M376 62c226 193-141 680 44 822 211 161 405-91 234-372" clip-path="url(#3082d)"/>
    <path style="--i:1" d="m165 395 341 12" clip-path="url(#3082e)"/>
    <path style="--i:2" d="m148 545 369 61" clip-path="url(#3082f)"/>
  </g>
</svg>
