<svg data-strokesvg="ゃ" viewBox="0 0 1024 1024" xmlns="http://www.w3.org/2000/svg">
  <defs>
    <clipPath id="3083d">
      <use href="#3083a"/>
    </clipPath>
    <clipPath id="3083e">
      <use href="#3083b"/>
    </clipPath>
    <clipPath id="3083f">
      <use href="#3083c"/>
    </clipPath>
  </defs>
  <g data-strokesvg="shadows" style="fill:var(--shadow,#ccc)">
    <path id="3083a" d="M748 584v5c0 19-9 35-26 49a173 173 0 0 1-90 34 949 949 0 0 1-118-3h-6c-9 0-13 2-13 8 0 7 8 14 24 20a410 410 0 0 0 121 23c36 0 67-7 91-21 25-13 44-30 56-50 13-20 20-39 20-58v-6l-1-7c-3-31-16-54-40-70s-55-25-94-25c-51 0-111 16-187 43a3291 3291 0 0 0-262 106l-11 1h-9l-7-1c-6 0-10 3-12 8v2c0 5 3 11 10 17l14 14c11 9 21 14 30 14 4 0 9-1 13-3l15-8 43-21c121-53 172-73 244-97 43-14 82-21 117-21 22 0 39 3 53 10s22 19 25 37z"/>
    <path id="3083b" d="M584 488c4-7 7-14 7-20 0-5-6-14-17-25-10-11-22-23-37-35-15-13-29-23-42-31-14-9-24-13-30-13-9 0-15 3-20 10l-5 11c0 5 5 12 16 18a455 455 0 0 1 57 53c-10 3-18 5-26 5l-22 2c-10 1-19 14 3 22 9 4 20 7 33 9l38 5c17 0 33 6 45-11z"/>
    <path id="3083c" d="m372 493-20-60c-3-12-8-20-13-23-5-4-13-6-26-6-27 0-41 5-41 13 0 5 4 11 12 16s13 11 16 19l21 61a4720 4720 0 0 0 121 320l32 67c3 6 5 12 5 18l7 20c4 8 10 15 17 20 7 6 14 9 21 9 18 0 27-9 27-25l-3-18-7-15-6-10c-11-19-23-44-36-75l-42-101c-31-76-58-153-85-230z"/>
  </g>
  <g data-strokesvg="strokes" style="stroke:var(--stroke,#000);fill:none;stroke-width:128;stroke-linecap:round">
    <path style="--i:0" d="M129 682s526-232 616-143c89 89-107 183-194 156" clip-path="url(#3083d)"/>
    <path style="--i:1" d="m422 307 157 120-63 53" clip-path="url(#3083e)"/>
    <path style="--i:2" d="m262 345 246 565" clip-path="url(#3083f)"/>
  </g>
</svg>
