<svg data-strokesvg="や" viewBox="0 0 1024 1024" xmlns="http://www.w3.org/2000/svg">
  <defs>
    <clipPath id="3084d">
      <use href="#3084a"/>
    </clipPath>
    <clipPath id="3084e">
      <use href="#3084b"/>
    </clipPath>
    <clipPath id="3084f">
      <use href="#3084c"/>
    </clipPath>
  </defs>
  <g data-strokesvg="shadows" style="fill:var(--shadow,#ccc)">
    <path id="3084a" d="M836 432v8c0 25-12 47-34 68a186 186 0 0 1-114 46 931 931 0 0 1-154-5h-9c-14 0-21 4-21 11 0 6 6 11 18 18a815 815 0 0 0 109 28l61 3a251 251 0 0 0 141-43c22-14 40-32 53-53s20-46 20-74l-1-6v-8c-4-40-22-70-54-90-31-21-73-31-126-31a410 410 0 0 0-113 15 2887 2887 0 0 0-255 89l-56 23c-58 24-108 46-149 65-5 2-12 4-22 4h-6l-5-1h-9l-10-1c-6 0-10 1-11 5l-1 4 8 16c6 9 13 18 23 26 9 8 20 12 33 12 10 0 22-4 37-11a4251 4251 0 0 1 132-60l58-25c55-22 102-40 139-53 38-14 69-24 94-31a454 454 0 0 1 115-17c30 0 55 5 75 15s31 28 34 53z"/>
    <path id="3084b" d="M482 271h-8q-18 0-22 11v3q0 9 19 16t45 12l46 8 22 2q20 0 27-15t7-28q0-12-4-17-15-17-37-38t-47-40q-23-19-44-30-20-13-31-13-10 0-15 5-12 10-12 21 0 12 18 22 19 11 46 35 27 25 44 45l-19 2h-27l-8-1z"/>
    <path id="3084c" d="m357 409-32-95c-11-30-20-57-27-83-3-15-8-24-14-27-6-4-16-6-32-6-33 0-49 4-49 14 0 4 3 9 9 13a1086 1086 0 0 0 22 19l7 9a6808 6808 0 0 0 60 178l21 58 78 209c26 63 47 112 64 148 3 7 5 13 5 18s1 11 4 19c3 7 8 14 14 23 7 9 15 17 24 24s17 10 26 10l4-1 4-1c10-5 15-15 15-29 0-9-1-16-3-22l-17-39c-14-25-30-58-48-99a5661 5661 0 0 1-113-284z"/>
  </g>
  <g data-strokesvg="strokes" style="stroke:var(--stroke,#000);fill:none;stroke-width:128;stroke-linecap:round">
    <path style="--i:0" d="M23 509c227 67 746-333 827-116 93 249-298 173-298 173" clip-path="url(#3084d)"/>
    <path style="--i:1" d="m396 94 226 159-111 22" clip-path="url(#3084e)"/>
    <path style="--i:2" d="m192 137 347 744" clip-path="url(#3084f)"/>
  </g>
</svg>
