<svg data-strokesvg="や" viewBox="0 0 1024 1024" xmlns="http://www.w3.org/2000/svg">
  <defs>
    <clipPath id="3084d">
      <use href="#3084a"/>
    </clipPath>
    <clipPath id="3084e">
      <use href="#3084b"/>
    </clipPath>
    <clipPath id="3084f">
      <use href="#3084c"/>
    </clipPath>
  </defs>
  <g data-strokesvg="shadows" style="fill:var(--shadow,#ccc)">
    <path id="3084a" d="M836 432v8q0 37-34 68a186 186 0 0 1-114 46 931 931 0 0 1-154-5h-9q-21 0-21 11 0 8 18 18 19 8 47 15 30 7 62 12 33 4 61 4 34 0 72-10 37-10 70-33 32-21 52-53t20-74l-1-6v-8q-6-60-54-90-46-31-126-31a410 410 0 0 0-113 15q-39 11-101 32-61 21-154 58l-56 22q-87 36-149 65-7 4-22 4h-6l-5-1h-9l-10-1q-9 0-11 5l-1 4 8 16q9 14 23 26t33 12q15 0 37-11 27-14 61-29l72-32 57-24q83-33 139-53 57-21 94-31a454 454 0 0 1 115-17q45 0 75 15t34 53"/>
    <path id="3084b" d="M482 271h-8q-18 0-22 11v3q0 9 19 16t45 12l46 8 22 2q20 0 27-15t7-28q0-12-4-17-15-17-37-38t-47-40-44-30q-20-13-31-13-10 0-15 5-12 10-12 21 0 12 18 22 19 11 46 35 27 25 44 45l-19 2h-27z"/>
    <path id="3084c" d="m357 409-32-95q-16-44-27-83-5-22-14-27-8-6-32-6-49-1-49 14 0 6 9 13l22 19 7 9 60 178 21 58 78 209q39 94 64 148 5 11 5 18t4 19q5 10 14 23 11 13 24 24 13 10 26 10l4-1 4-1q15-8 15-29 0-13-3-22l-17-39q-21-38-48-99a5661 5661 0 0 1-113-284z"/>
  </g>
  <g data-strokesvg="strokes" style="stroke:var(--stroke,#000);fill:none;stroke-width:128;stroke-linecap:round">
    <path style="--i:0" d="M23 509c227 67 746-333 827-116 93 249-298 173-298 173" clip-path="url(#3084d)"/>
    <path style="--i:1" d="m396 94 226 159-111 22" clip-path="url(#3084e)"/>
    <path style="--i:2" d="m192 137 347 744" clip-path="url(#3084f)"/>
  </g>
</svg>
