<svg data-strokesvg="ゅ" viewBox="0 0 1024 1024" xmlns="http://www.w3.org/2000/svg">
  <defs>
    <clipPath id="3085c">
      <use href="#3085a"/>
    </clipPath>
    <clipPath id="3085d">
      <use href="#3085b"/>
    </clipPath>
  </defs>
  <g data-strokesvg="shadows" style="fill:var(--shadow,#ccc)">
    <path id="3085a" d="M451 520c-33 21-59 41-78 61-21 21-40 49-59 84a2098 2098 0 0 0-2-123v-31c0-14-4-25-12-32s-17-11-28-12l-24-3c-8 0-12 1-12 4-1 6 2 10 6 14s7 9 10 15c3 5 4 11 4 17v23a1974 1974 0 0 0 16 267c4 26 8 48 12 63 4 13 12 20 23 20 8 0 16-4 23-10 7-7 11-16 11-27 0-7-2-15-7-26-4-10-7-25-8-44v-4c0-13 4-31 14-53a395 395 0 0 1 315-221h2a92 92 0 0 1 90 97v2c0 30-8 58-24 85-16 26-35 49-57 69-72 65-130 74-140 47-6-16-17-56-34-59-5 1-8 7-10 17l-1 30c0 8 2 18 5 31 4 13 9 24 17 34 17 21 68 36 151-18a383 383 0 0 0 131-145c15-30 23-63 23-97s-8-61-23-82-34-37-59-47c-24-11-51-16-80-16-38 0-114 17-195 70z"/>
    <path id="3085b" d="M544 346c-12 0-18 2-19 5v2c0 4 3 8 7 13 6 3 10 7 14 13 3 3 5 13 6 30 4 56 3 114 3 171l-1 75v61l-1 32a426 426 0 0 1-43 190c-3 7-8 14-14 21-6 8-9 14-9 19 0 4 3 6 7 7s12-3 22-10c10-6 22-18 34-35 9-12 54-85 59-207 2-32 3-77 3-134 0-138-2-199-6-221-2-14-8-23-18-26a177 177 0 0 0-44-6z"/>
  </g>
  <g data-strokesvg="strokes" style="stroke:var(--stroke,#000);fill:none;stroke-width:128;stroke-linecap:round">
    <path style="--i:0" d="M231 400c53 153-13 282 47 450 53-279 368-479 479-314 125 186-229 360-252 265" clip-path="url(#3085c)"/>
    <path style="--i:1" d="M536 280c102 280-11 652-11 652" clip-path="url(#3085d)"/>
  </g>
</svg>
