<svg data-strokesvg="ゅ" viewBox="0 0 1024 1024" xmlns="http://www.w3.org/2000/svg">
  <defs>
    <clipPath id="3085c">
      <use href="#3085a"/>
    </clipPath>
    <clipPath id="3085d">
      <use href="#3085b"/>
    </clipPath>
  </defs>
  <g data-strokesvg="shadows" style="fill:var(--shadow,#ccc)">
    <path id="3085a" d="M451 520q-49 31-78 61-31 32-59 84l-2-123v-31q0-21-12-32-12-10-28-12l-24-3q-12 0-12 4-1 9 6 14 6 6 10 15 4 8 4 17v23a1974 1974 0 0 0 16 267q6 40 12 63 6 20 23 20 12 0 23-10 11-11 11-27 0-10-7-26-6-15-8-44v-4q0-20 14-53 15-34 43-71a395 395 0 0 1 272-150h2q35 0 63 26t28 71v2q-1 45-25 85-24 39-57 69c-72 65-130 74-140 47-6-16-17-56-34-59q-7 2-10 17l-1 30q0 12 5 31 6 19 17 34c17 21 68 36 151-18a383 383 0 0 0 131-145q23-46 23-97t-23-82q-22-32-59-47-36-16-80-16c-38 0-114 17-195 70"/>
    <path id="3085b" d="M544 346q-18 0-19 5v2q1 6 7 13 9 4 14 13 5 5 6 30 5 85 3 171l-1 75v61l-1 32q0 27-3 48a426 426 0 0 1-40 142q-5 11-14 21-9 12-9 19 0 6 7 7t22-10q16-9 34-35c9-12 54-85 59-207q3-48 3-134c0-138-2-199-6-221q-3-21-18-26a177 177 0 0 0-44-6"/>
  </g>
  <g data-strokesvg="strokes" style="stroke:var(--stroke,#000);fill:none;stroke-width:128;stroke-linecap:round">
    <path style="--i:0" d="M231 400c53 153-13 282 47 450 53-279 368-479 479-314 125 186-229 360-252 265" clip-path="url(#3085c)"/>
    <path style="--i:1" d="M536 280c102 280-11 652-11 652" clip-path="url(#3085d)"/>
  </g>
</svg>
