<svg data-strokesvg="ゆ" viewBox="0 0 1024 1024" xmlns="http://www.w3.org/2000/svg">
  <defs>
    <clipPath id="3086c">
      <use href="#3086a"/>
    </clipPath>
    <clipPath id="3086d">
      <use href="#3086b"/>
    </clipPath>
  </defs>
  <g data-strokesvg="shadows" style="fill:var(--shadow,#ccc)">
    <path id="3086a" d="M566 294a576 576 0 0 0-177 96c-24 19-45 36-62 53s-32 37-47 60c-15 22-29 46-42 69a2406 2406 0 0 0-2-138l-2-57v-30c0-18-2-31-8-38-8-7-18-12-31-15l-12-1-10-1c-13 0-20 2-21 5l-1 2v1c0 4 2 8 7 12 4 4 8 8 10 14l4 14 1 14v34a3350 3350 0 0 0 10 232c4 40 7 77 12 112 4 34 9 62 14 82 2 8 5 14 10 19 6 3 11 5 18 5 9 0 18-4 25-12 8-7 12-17 12-30 0-3 0-6-2-9l-3-8a390 390 0 0 1-14-76v-5c0-17 6-41 19-70a546 546 0 0 1 293-269 349 349 0 0 1 129-27h2c22 0 42 5 61 16 19 10 34 25 46 45 12 19 18 43 18 70v2c0 31-7 61-20 90a358 358 0 0 1-117 142c-23 19-45 33-65 43-25 14-46 19-66 19-13-2-23-8-30-21-7-12-12-26-15-41-2-9-6-18-10-27s-10-14-16-14l-4 1c-5 2-8 7-10 16-2 8-3 16-3 25v9l1 6c1 13 4 27 8 43 5 15 12 28 23 41 10 11 24 19 42 22 22 3 40 1 60-4 28-7 59-22 92-43 34-22 65-48 95-80 31-32 55-68 74-107 20-41 30-83 30-127 0-32-7-61-21-88-13-28-33-51-62-69s-66-29-111-31h-11l-28 2-27 3c-23 5-43 10-66 19z"/>
    <path id="3086b" d="M554 133c-9 0-14 1-16 4l-2 5c0 5 2 10 8 16 5 4 9 9 11 14l3 13 4 34c2 17 3 41 4 75l1 64 1 61v61a6504 6504 0 0 1-4 206 903 903 0 0 1-9 73 520 520 0 0 1-68 179c-4 11-7 19-7 25l2 6 7 2c7 0 16-6 29-17a329 329 0 0 0 83-139 561 561 0 0 0 30-183c3-45 4-106 4-182v-57l-1-54-2-64c-1-36-2-64-4-81-2-18-4-30-7-36-4-7-10-12-18-16l-23-6-26-3z"/>
  </g>
  <g data-strokesvg="strokes" style="stroke:var(--stroke,#000);fill:none;stroke-width:128;stroke-linecap:round">
    <path style="--i:0" d="M138 230c120 87-43 313 94 607 0 0 0-436 385-526 328-76 261 303 98 416-175 120-222-16-222-16" clip-path="url(#3086c)"/>
    <path style="--i:1" d="M493 86c219 86 37 846 37 846" clip-path="url(#3086d)"/>
  </g>
</svg>
