<svg data-strokesvg="ゆ" viewBox="0 0 1024 1024" xmlns="http://www.w3.org/2000/svg">
  <defs>
    <clipPath id="3086c">
      <use href="#3086a"/>
    </clipPath>
    <clipPath id="3086d">
      <use href="#3086b"/>
    </clipPath>
  </defs>
  <g data-strokesvg="shadows" style="fill:var(--shadow,#ccc)">
    <path id="3086a" d="M566 294a576 576 0 0 0-177 96q-36 28-62 53-25 26-47 60t-42 69l-2-138-2-57v-30q0-27-8-38-12-10-31-15l-12-1-10-1q-20 0-21 5l-1 2v1q0 6 7 12 7 5 10 14l4 14 1 14v34a3350 3350 0 0 0 10 232q5 60 12 112 6 52 14 82 3 12 10 19 8 5 18 5 14 0 25-12 12-10 12-30 0-4-2-9l-3-8a390 390 0 0 1-14-76v-5q0-26 19-70 20-45 59-97a546 546 0 0 1 234-173 349 349 0 0 1 129-26h2q33 0 61 16 28 15 46 45 18 29 18 70v2q0 47-20 90a358 358 0 0 1-117 142q-35 28-65 43-37 20-66 19-20-2-30-21-10-18-15-41-4-13-10-27t-16-14l-4 1q-7 3-10 16-3 12-3 25v9l1 6q2 19 8 43 7 22 23 41 15 17 42 22 32 4 60-4 42-11 92-43 50-33 95-80 46-48 74-107 30-61 30-127 0-48-21-88-19-42-62-69t-111-31h-11l-28 2-27 3q-33 6-66 19"/>
    <path id="3086b" d="M554 133q-13 0-16 4l-2 5q0 7 8 16 8 6 11 14l3 13 4 34q3 25 4 75l1 64 1 61v61l-4 206-9 73a520 520 0 0 1-68 179q-7 16-7 25l2 6 7 2q10 0 29-17 20-15 42-50 24-33 41-89a561 561 0 0 0 30-183q4-68 4-182v-57l-1-54-2-64q-1-55-4-81-3-27-7-36-6-10-18-16l-23-6z"/>
  </g>
  <g data-strokesvg="strokes" style="stroke:var(--stroke,#000);fill:none;stroke-width:128;stroke-linecap:round">
    <path style="--i:0" d="M138 230c120 87-43 313 94 607 0 0 0-436 385-526 328-76 261 303 98 416-175 120-222-16-222-16" clip-path="url(#3086c)"/>
    <path style="--i:1" d="M493 86c219 86 37 846 37 846" clip-path="url(#3086d)"/>
  </g>
</svg>
