<svg data-strokesvg="ょ" viewBox="0 0 1024 1024" xmlns="http://www.w3.org/2000/svg">
  <defs>
    <clipPath id="3087d">
      <use href="#3087a"/>
    </clipPath>
    <clipPath id="3087e">
      <use href="#3087b"/>
    </clipPath>
    <clipPath id="3087f">
      <use href="#3087c"/>
    </clipPath>
  </defs>
  <g data-strokesvg="shadows" style="fill:var(--shadow,#ccc)">
    <path id="3087a" d="M565 577h4a378 378 0 0 0 81-10 1625 1625 0 0 0 80-16c12-4 19-10 19-21-1-12-10-18-20-23a63 63 0 0 0-59-1c-7 3-17 5-31 8a768 768 0 0 1-79 11c-43 3-33 52 5 52z"/>
    <g>
      <path id="3087b" d="M489 349c-8 0-14 3-16 7v2c0 4 2 8 6 12l14 14 3 3 2 4 1 5 1 6a2741 2741 0 0 0 3 121 4576 4576 0 0 1 6 201c2 57 7 126-54 155-18 7-36 11-54 12-18 0-35-3-52-9-16-6-23-14-23-24 0-3 1-18 22-24 14-5 29-8 43-8h10c15 1 27-47 0-47-45 0-79 8-102 25-22 16-33 33-33 52 0 23 11 43 32 62 22 18 55 27 98 27 39-1 71-8 98-21 86-48 74-139 71-222l-7-261-1-41c0-15-2-25-6-31-4-7-12-11-24-14a400 400 0 0 0-38-6z"/>
      <path id="3087c" d="M401 779c-21 0-20 47 0 47l33 3a570 570 0 0 1 263 114c9 5 15 7 21 7 9 0 15-4 19-12 5-8 7-15 7-24s-2-16-8-21c-13-10-36-24-67-41-57-33-159-73-268-73Z"/>
    </g>
  </g>
  <g data-strokesvg="strokes" style="stroke:var(--stroke,#000);fill:none;stroke-width:128;stroke-linecap:round">
    <path style="--i:0" d="m467 557 220-20" clip-path="url(#3087d)"/>
    <g style="--i:1">
      <path d="M484 283c77 404 85 641-82 641-261 0-63-277 286-20" clip-path="url(#3087e)"/>
      <path d="M-610 805h953c69-24 192-13 345 99" clip-path="url(#3087f)"/>
    </g>
  </g>
</svg>
