<svg data-strokesvg="ょ" viewBox="0 0 1024 1024" xmlns="http://www.w3.org/2000/svg">
  <defs>
    <clipPath id="3087d">
      <use href="#3087a"/>
    </clipPath>
    <clipPath id="3087e">
      <use href="#3087b"/>
    </clipPath>
    <clipPath id="3087f">
      <use href="#3087c"/>
    </clipPath>
  </defs>
  <g data-strokesvg="shadows" style="fill:var(--shadow,#ccc)">
    <path id="3087a" d="M565 577h4a378 378 0 0 0 81-10l80-16q19-5 19-21-3-17-20-23-15-8-33-8-16 1-26 7-10 4-31 8a768 768 0 0 1-79 11c-43 3-33 52 5 52"/>
    <g>
      <path id="3087b" d="M489 349q-12 0-16 7v2q0 6 6 12l14 14 3 3 2 4 1 5 1 6 3 121a4576 4576 0 0 1 6 201c2 57 7 126-54 155q-27 10-54 12-27 0-52-9-24-9-23-24c0-3 1-18 22-24q21-8 43-8h10c15 1 27-47 0-47q-67 0-102 25-33 24-33 52 0 34 32 62 33 27 98 27 58-1 98-21c86-48 74-139 71-222l-7-261-1-41q0-22-6-31-6-10-24-14z"/>
      <path id="3087c" d="M401 779c-21 0-20 47 0 47l33 3a570 570 0 0 1 263 114q13 7 21 7 13 0 19-12 7-11 7-24 1-14-8-21-20-15-67-41c-57-33-159-73-268-73"/>
    </g>
  </g>
  <g data-strokesvg="strokes" style="stroke:var(--stroke,#000);fill:none;stroke-width:128;stroke-linecap:round">
    <path style="--i:0" d="m467 557 220-20" clip-path="url(#3087d)"/>
    <g style="--i:1">
      <path d="M484 283c77 404 85 641-82 641-261 0-63-277 286-20" clip-path="url(#3087e)"/>
      <path d="M-610 805h953c69-24 192-13 345 99" clip-path="url(#3087f)"/>
    </g>
  </g>
</svg>
