<svg data-strokesvg="よ" viewBox="0 0 1024 1024" xmlns="http://www.w3.org/2000/svg">
  <defs>
    <clipPath id="3088d">
      <use href="#3088a"/>
    </clipPath>
    <clipPath id="3088e">
      <use href="#3088b"/>
    </clipPath>
    <clipPath id="3088f">
      <use href="#3088c"/>
    </clipPath>
  </defs>
  <g data-strokesvg="shadows" style="fill:var(--shadow,#ccc)">
    <path id="3088a" d="m572 430 7 1h7l36-3 130-21q31-7 47-12 17-6 17-24v-4q-1-13-18-20-18-8-33-8l-6 1-29 9a589 589 0 0 1-107 22l-43 4h-10c-27-1-50 38 2 55"/>
    <g>
      <path id="3088b" d="M494 144q-16 0-19 8l-1 2v1q0 7 8 13 9 5 14 15l3 11 2 11 4 129 3 115 8 274c-1 24-6 39-12 55q-16 39-58 59-41 18-80 18h-4q-44-1-74-13-30-13-30-36c0-18-60-19-60 0q0 24 17 49 18 24 51 42 35 16 87 16h5q76-2 130-28 55-28 77-84a257 257 0 0 0 15-76v-16l-8-279-2-55-4-173q0-28-6-36-6-9-30-15-21-7-36-7"/>
      <path id="3088c" d="M516 723a702 702 0 0 0-149-20q-84 0-126 31t-43 69v3c-1 21 61 22 60 0q1-19 16-30 16-10 38-14 23-4 44-4h8a590 590 0 0 1 284 83 1080 1080 0 0 1 113 69q11 8 22 8 21 0 31-23l2-12q0-19-11-27a735 735 0 0 0-129-75 742 742 0 0 0-160-58"/>
    </g>
  </g>
  <g data-strokesvg="strokes" style="stroke:var(--stroke,#000);fill:none;stroke-width:128;stroke-linecap:round">
    <path style="--i:0" d="m476 411 279-30" clip-path="url(#3088d)"/>
    <g style="--i:1">
      <path d="M458 82c73 58 218 781-42 812 0 0-207 19-193-102 21-186 538 78 538 78" clip-path="url(#3088e)"/>
      <path d="M1221 1011c-66 67-799 144-805-117 0 0-207 19-193-102 21-186 538 78 538 78" clip-path="url(#3088f)"/>
    </g>
  </g>
</svg>
