<svg data-strokesvg="よ" viewBox="0 0 1024 1024" xmlns="http://www.w3.org/2000/svg">
  <defs>
    <clipPath id="3088d">
      <use href="#3088a"/>
    </clipPath>
    <clipPath id="3088e">
      <use href="#3088b"/>
    </clipPath>
    <clipPath id="3088f">
      <use href="#3088c"/>
    </clipPath>
  </defs>
  <g data-strokesvg="shadows" style="fill:var(--shadow,#ccc)">
    <path id="3088a" d="m572 430 7 1h7l36-3a60031 60031 0 0 1 130-21c21-5 36-8 47-12s17-12 17-24v-4c-1-9-7-15-18-20-12-5-23-8-33-8l-6 1-29 9a589 589 0 0 1-107 22l-43 4h-10c-27-1-50 38 2 55z"/>
    <g>
      <path id="3088b" d="M494 144c-11 0-17 3-19 8l-1 2v1c0 4 3 9 8 13 6 3 11 8 14 15l3 11 2 11a3193 3193 0 0 0 4 129l3 115a65002 65002 0 0 0 8 274c-1 24-6 39-12 55-11 26-30 46-58 59-27 12-54 18-80 18h-4c-29-1-54-5-74-13-20-9-30-21-30-36 0-18-60-19-60 0 0 16 5 32 17 49 12 16 29 30 51 42 23 11 52 16 87 16h5c51-1 94-11 130-28 37-19 62-47 77-84a257 257 0 0 0 15-76v-16l-8-279-2-55a4485 4485 0 0 0-4-173c0-19-2-31-6-36-4-6-14-11-30-15-14-5-26-7-36-7z"/>
      <path id="3088c" d="M516 723a702 702 0 0 0-149-20c-56 0-98 11-126 31-28 21-42 44-43 69v3c-1 21 61 22 60 0 1-13 6-23 16-30 11-7 23-11 38-14s30-4 44-4h8a590 590 0 0 1 284 83 1080 1080 0 0 1 113 69c7 5 15 8 22 8 14 0 24-8 31-23l2-12c0-13-4-21-11-27a735 735 0 0 0-129-75 742 742 0 0 0-160-58z"/>
    </g>
  </g>
  <g data-strokesvg="strokes" style="stroke:var(--stroke,#000);fill:none;stroke-width:128;stroke-linecap:round">
    <path style="--i:0" d="m476 411 279-30" clip-path="url(#3088d)"/>
    <g style="--i:1">
      <path d="M458 82c73 58 218 781-42 812 0 0-207 19-193-102 21-186 538 78 538 78" clip-path="url(#3088e)"/>
      <path d="M1221 1011c-66 67-799 144-805-117 0 0-207 19-193-102 21-186 538 78 538 78" clip-path="url(#3088f)"/>
    </g>
  </g>
</svg>
