<svg data-strokesvg="り" viewBox="0 0 1024 1024" xmlns="http://www.w3.org/2000/svg">
  <defs>
    <clipPath id="308ac">
      <use href="#308aa"/>
    </clipPath>
    <clipPath id="308ad">
      <use href="#308ab"/>
    </clipPath>
  </defs>
  <g data-strokesvg="shadows" style="fill:var(--shadow,#ccc)">
    <path id="308aa" d="M330 197v2l-8 71-9 99q-4 53-4 105 0 90 15 138 14 48 45 48 11 0 20-6 10-6 11-16l8-37 11-49 13-47 9-30q6-15 6-24 0-12-8-12-5 0-11 7l-18 26-37 58-1-21v-25q0-58 6-132 7-73 17-144l1-8 1-9q0-17-17-25-16-8-34-11l-19-3q-12 0-14 6v2q0 6 9 16 8 9 8 21z"/>
    <path id="308ab" d="M597 147v3q0 7 10 15t13 21l8 119q3 55 3 107 0 44-2 87l-5 84q-4 50-25 100-20 49-51 93-30 44-65 79-33 35-65 55-35 22-35 33 0 4 7 4 16 0 48-14 33-14 74-43t80-72q39-43 65-99 28-57 34-128 5-48 6-87l2-77q0-56-4-114l-10-136q0-14-10-26-9-13-54-13-21 0-24 9z"/>
  </g>
  <g data-strokesvg="strokes" style="stroke:var(--stroke,#000);fill:none;stroke-width:128;stroke-linecap:round">
    <path style="--i:0" d="M270 105c171 107-26 379 62 530l91-141" clip-path="url(#308ac)"/>
    <path style="--i:1" d="M556 95c243 173 74 795-122 821" clip-path="url(#308ad)"/>
  </g>
</svg>
