<svg data-strokesvg="る" viewBox="0 0 1024 1024" xmlns="http://www.w3.org/2000/svg">
  <defs>
    <clipPath id="308bc">
      <use href="#308ba"/>
    </clipPath>
    <clipPath id="308bd">
      <use href="#308bb"/>
    </clipPath>
  </defs>
  <g data-strokesvg="shadows" style="fill:var(--shadow,#ccc)">
    <g>
      <path id="308ba" d="M606 177c-6 0-12 2-18 4-6 3-12 5-20 6l-30 7a45546 45546 0 0 0-219 48h-7l-20-1-18-1-8 1c-3 1-5 3-5 7 0 6 3 13 9 22s14 16 22 23c9 7 17 10 24 10 6 0 11-1 17-3l17-5a2088 2088 0 0 0 136-34l62-15-45 54a17537 17537 0 0 1-271 318c-17 19-29 31-37 37-9 9-14 17-14 27 0 11 4 21 13 31 8 9 18 14 27 14 8 0 16-4 22-12a435 435 0 0 1 331-179c28 0 54 5 78 15 25 9 45 23 60 41s23 39 25 63v8l1 6c0 32-9 59-26 83-18 22-40 41-67 55-26 14-51 24-77 31-24 6-41 7-68 11l-20 2h-17c-37 0-66-4-86-12-20-9-30-18-30-26 1-13-61-19-61-1 0 24 15 46 45 68 30 20 78 30 142 30h23c58-2 110-15 157-37s85-51 113-87 42-75 42-117l-1-6v-9c-2-35-14-66-35-91-20-26-47-46-81-59-33-15-69-22-109-22a426 426 0 0 0-205 57l136-157a13919 13919 0 0 0 130-151c6-5 8-11 8-18 0-6-5-14-14-23-10-8-20-13-31-13z"/>
      <path id="308bb" d="M568 838c-8-27-22-49-41-66-18-18-39-31-63-39-23-9-47-13-71-13-33 0-60 10-79 30a89 89 0 0 0-28 62c0 25 62 15 61 1 0-10 4-17 11-23 8-7 19-11 33-11a145 145 0 0 1 80 30c14 10 24 24 29 40 12 34 75 23 68-11z"/>
    </g>
  </g>
  <g data-strokesvg="strokes" style="stroke:var(--stroke,#000);fill:none;stroke-width:128;stroke-linecap:round">
    <g style="--i:0">
      <path d="M196 261c208 25 261-107 425-76-22 76-334 297-428 500 0 0 545-369 575-6 15 179-201 211-360 200 0 0-136-7-82-102 44-77 192 40 192 40" clip-path="url(#308bc)"/>
      <path d="M662 277c138 157 266 94 367 226-67 42-446-1-652 88 0 0 652 88 433 378-109 144-291 24-402-90 0 0-136-7-82-102 44-77 192 40 192 40" clip-path="url(#308bd)"/>
    </g>
  </g>
</svg>
