<svg data-strokesvg="る" viewBox="0 0 1024 1024" xmlns="http://www.w3.org/2000/svg">
  <defs>
    <clipPath id="308bc">
      <use href="#308ba"/>
    </clipPath>
    <clipPath id="308bd">
      <use href="#308bb"/>
    </clipPath>
  </defs>
  <g data-strokesvg="shadows" style="fill:var(--shadow,#ccc)">
    <g>
      <path id="308ba" d="M606 177q-9 1-18 4-8 4-20 6l-30 7-219 48h-7l-20-1-18-1-8 1q-5 1-5 7 0 9 9 22 10 13 22 23 14 10 24 10 9 0 17-3l17-5a2088 2088 0 0 0 136-34l62-15-45 54a17537 17537 0 0 1-271 318q-25 28-37 37-14 13-14 27 0 16 13 31 13 14 27 14 13 0 22-12 48-65 107-104a435 435 0 0 1 223-75q43 0 79 15 38 14 60 41t25 63v8l1 6q0 48-26 83-27 33-67 55-38 21-77 31c-24 6-41 7-68 11l-20 2h-17q-56 0-86-12-30-14-30-26c1-13-61-19-61-1q0 36 45 68 46 30 142 30h23q87-3 157-37 71-33 113-87t42-117l-1-6v-9q-3-53-35-91-30-39-81-59-49-22-109-22a426 426 0 0 0-205 57l136-157 130-151q9-8 8-18 0-9-14-23-15-12-31-13"/>
      <path id="308bb" d="M568 838q-12-41-41-66-27-27-63-39-35-13-71-13-50 0-79 30a89 89 0 0 0-28 62c0 25 62 15 61 1q0-14 11-23 12-11 33-11 15 0 37 7 22 8 43 23 21 16 29 40c12 34 75 23 68-11"/>
    </g>
  </g>
  <g data-strokesvg="strokes" style="stroke:var(--stroke,#000);fill:none;stroke-width:128;stroke-linecap:round">
    <g style="--i:0">
      <path d="M196 261c208 25 261-107 425-76-22 76-334 297-428 500 0 0 545-369 575-6 15 179-201 211-360 200 0 0-136-7-82-102 44-77 192 40 192 40" clip-path="url(#308bc)"/>
      <path d="M662 277c138 157 266 94 367 226-67 42-446-1-652 88 0 0 652 88 433 378-109 144-291 24-402-90 0 0-136-7-82-102 44-77 192 40 192 40" clip-path="url(#308bd)"/>
    </g>
  </g>
</svg>
