<svg data-strokesvg="れ" viewBox="0 0 1024 1024" xmlns="http://www.w3.org/2000/svg">
  <defs>
    <clipPath id="308cc">
      <use href="#308ca"/>
    </clipPath>
    <clipPath id="308cd">
      <use href="#308cb"/>
    </clipPath>
  </defs>
  <g data-strokesvg="shadows" style="fill:var(--shadow,#ccc)">
    <path id="308ca" d="m360 492 1-12 12-144 8-74a806 806 0 0 1 16-88v-3c0-10-4-17-14-23-9-5-19-9-30-12-10-3-17-4-22-4-8 0-14 3-16 8l-1 2c0 4 2 8 5 12 4 4 6 8 8 12 2 5 3 10 3 17v7a48613 48613 0 0 0-17 169l-6 64-3 45-10 177-4 82-1 72v22l1 20v6l-2 22-3 24v3c0 11 3 23 11 36s17 20 28 20 19-4 23-13c4-8 6-17 6-27a336 336 0 0 0-2-47l-1-29v-33a6114 6114 0 0 1 6-225z"/>
    <path id="308cb" d="M660 718v4c0 24 4 48 11 70 7 21 19 39 35 53 16 13 37 20 63 20 23 0 47-5 71-16a333 333 0 0 0 116-86c13-15 20-27 20-35 0-3-1-5-3-7l-9-3c-5 0-10 1-15 4l-13 8-53 31c-19 10-39 19-58 26-18 7-35 11-50 11l-20-4c-9-3-16-10-22-21-5-11-8-29-8-53 0-38 3-75 8-113l17-113c5-39 8-77 9-115v-3c0-31-7-56-22-76a72 72 0 0 0-62-30c-35 0-77 18-127 55-49 36-112 91-188 167l-4 4 5-16a551 551 0 0 1 46-89l5-10 2-9c0-7-5-14-16-22-9-8-18-13-25-14l-61 23a1228 1228 0 0 1-135 59l-21 3-14-2c-4-2-8-2-11-2-4 0-7 0-9 2-2 1-2 3-2 5 0 5 3 13 9 22 6 10 14 19 24 26s20 10 30 10l14-3 31-15 79-41 18-10-21 55a880 880 0 0 1-96 198c-19 32-39 62-58 89a1076 1076 0 0 0-48 72l-1 11c0 6 4 15 11 24s16 14 27 14c6 0 10-3 14-7l10-14 36-60 48-76 47-74 62-67a1031 1031 0 0 1 252-229c24-14 42-21 54-21 11 0 19 4 24 13 6 8 8 20 8 35s-1 36-5 64c-3 28-6 58-11 91a4812 4812 0 0 0-18 187z"/>
  </g>
  <g data-strokesvg="strokes" style="stroke:var(--stroke,#000);fill:none;stroke-width:128;stroke-linecap:round">
    <path style="--i:0" d="m335 65 8 832" clip-path="url(#308cc)"/>
    <path style="--i:1" d="M54 427c187 32 199-95 309-82-96 157-94 236-247 529 0 0 594-816 595-495S591 967 940 767" clip-path="url(#308cd)"/>
  </g>
</svg>
