<svg data-strokesvg="れ" viewBox="0 0 1024 1024" xmlns="http://www.w3.org/2000/svg">
  <defs>
    <clipPath id="308cc">
      <use href="#308ca"/>
    </clipPath>
    <clipPath id="308cd">
      <use href="#308cb"/>
    </clipPath>
  </defs>
  <g data-strokesvg="shadows" style="fill:var(--shadow,#ccc)">
    <path id="308ca" d="m360 492 1-12 12-144 8-74a806 806 0 0 1 16-88v-3q1-14-14-23-14-7-30-12-15-4-22-4-12 0-16 8l-1 2q0 6 5 12 6 6 8 12 3 7 3 17v7q-5 24-8 69l-10 100-5 64-3 45-10 177-4 82-1 72v22l1 20v6l-2 22-3 24v3q0 17 11 36 12 20 28 20 17 0 23-13 6-12 6-27l-2-47-1-29v-33a6114 6114 0 0 1 6-225z"/>
    <path id="308cb" d="M660 718v4q0 36 11 70 11 32 35 53 24 20 63 20 35 0 71-16a333 333 0 0 0 116-86q20-23 20-35 0-4-3-7l-9-3q-8 0-15 4l-13 8-53 31q-29 15-58 26-27 11-50 11l-20-4q-13-4-22-21-8-17-8-53 0-56 8-113l17-113q7-58 9-115v-3q0-46-22-76a72 72 0 0 0-62-30q-52 0-127 55-74 54-188 167l-4 4 5-16a551 551 0 0 1 46-89l5-10 2-9q0-10-16-22-14-12-25-14l-61 23a1228 1228 0 0 1-135 59l-21 3-14-2q-6-2-11-2-6-1-9 2-2 2-2 5 0 8 9 22 9 15 24 26 15 10 30 10l14-3 31-15 79-41 18-10-21 55a880 880 0 0 1-96 198q-29 48-58 89l-48 72-1 11q0 10 11 24t27 14q9 0 14-7l10-14 36-60 48-76 47-74 62-67q37-49 82-94a1031 1031 0 0 1 170-136q36-20 54-20 17 0 24 13 9 12 8 35 1 22-5 64-4 42-11 91z"/>
  </g>
  <g data-strokesvg="strokes" style="stroke:var(--stroke,#000);fill:none;stroke-width:128;stroke-linecap:round">
    <path style="--i:0" d="m335 65 8 832" clip-path="url(#308cc)"/>
    <path style="--i:1" d="M54 427c187 32 199-95 309-82-96 157-94 236-247 529 0 0 594-816 595-495S591 967 940 767" clip-path="url(#308cd)"/>
  </g>
</svg>
