<svg data-strokesvg="ã‚" viewBox="0 0 1024 1024" xmlns="http://www.w3.org/2000/svg">
  <defs>
    <clipPath id="308db">
      <use href="#308da"/>
    </clipPath>
  </defs>
  <g data-strokesvg="shadows" style="fill:var(--shadow,#ccc)">
    <path id="308da" d="M385 931h12q41-2 97-12 55-10 113-29 59-21 109-53 50-33 81-81t31-114q0-59-32-96-33-37-84-54-50-18-105-18-58 0-117 20-57 19-111 53l126-165 113-150 15-19q7-9 7-16 0-14-18-24t-29-10q-8 0-23 6-10 4-38 11l-63 16-70 15-59 12-32 4q-13 0-23-2l-16-2h-2q-5 2-5 9 0 10 8 24 9 13 23 25 14 10 31 10 9 0 21-3l107-27 82-22q-69 98-117 163-48 66-81 108l-54 69-41 46-37 42q-10 11-10 28 0 20 7 29 8 8 16 10l10 2q17 0 28-13 32-41 74-80t93-68q51-29 110-41 33-7 65-7 42 0 77 12 36 11 57 35 23 25 23 65 0 53-29 94-29 40-74 69-45 28-95 48-49 19-93 32l-69 16q-48 10-48 23 0 10 39 10z"/>
  </g>
  <g data-strokesvg="strokes" style="stroke:var(--stroke,#000);fill:none;stroke-width:128;stroke-linecap:round">
    <path style="--i:0" d="M196 245c187 28 324-115 425-70-105 176-317 295-423 536 0 0 436-371 554-144 149 285-346 348-346 348" clip-path="url(#308db)"/>
  </g>
</svg>
