<svg data-strokesvg="ã‚" viewBox="0 0 1024 1024" xmlns="http://www.w3.org/2000/svg">
  <defs>
    <clipPath id="308fc">
      <use href="#308fa"/>
    </clipPath>
    <clipPath id="308fd">
      <use href="#308fb"/>
    </clipPath>
  </defs>
  <g data-strokesvg="shadows" style="fill:var(--shadow,#ccc)">
    <path id="308fa" d="M349 506v-9l12-160a1002 1002 0 0 1 24-162v-4q0-13-13-23-13-9-31-15-16-5-28-5-13 0-15 6l-1 5q0 6 4 12l8 11 4 11q3 5 2 12v4a3073 3073 0 0 0-14 176l-4 64-4 76-7 157-2 67v104l2 33v3l-2 13-1 13v3q2 23 15 41 15 19 28 19 17 0 21-13 5-14 5-26v-7q1-13-2-24l-2-17a1136 1136 0 0 1-5-153v-60l2-62z"/>
    <path id="308fb" d="M512 921v3q1 6 13 7a622 622 0 0 0 98-30q42-16 89-42 47-27 89-64 42-39 67-90 27-53 27-120 0-80-33-129-32-51-86-75-53-26-118-27h-6q-51 0-107 22a532 532 0 0 0-196 130v-9a909 909 0 0 1 62-117v-5q0-15-17-26-15-12-29-12h-4l-60 28a1293 1293 0 0 1-136 53l-12 2h-13l-10-1h-7q-12 0-12 10v3q0 6 9 19 8 12 21 22a52 52 0 0 0 45 8l35-14 76-38 34-16-38 92q-12 30-51 108-41 78-131 197-6 8-6 16 0 16 12 31t26 14q14 0 26-18a3548 3548 0 0 1 117-191l59-66q60-79 132-127 74-50 160-56h9l8-1q43 0 81 16 38 15 62 52 23 37 23 101t-29 114q-30 50-74 89-45 39-92 67l-104 57q-9 6-9 13"/>
  </g>
  <g data-strokesvg="strokes" style="stroke:var(--stroke,#000);fill:none;stroke-width:128;stroke-linecap:round">
    <path style="--i:0" d="m329 59 10 842" clip-path="url(#308fc)"/>
    <path style="--i:1" d="M44 439c133 19 230-90 325-106-140 209-123 328-250 531 0 0 416-659 667-418 251 240-218 457-218 457" clip-path="url(#308fd)"/>
  </g>
</svg>
