<svg data-strokesvg="ã‚" viewBox="0 0 1024 1024" xmlns="http://www.w3.org/2000/svg">
  <defs>
    <clipPath id="308fc">
      <use href="#308fa"/>
    </clipPath>
    <clipPath id="308fd">
      <use href="#308fb"/>
    </clipPath>
  </defs>
  <g data-strokesvg="shadows" style="fill:var(--shadow,#ccc)">
    <path id="308fa" d="M349 506v-9l12-160a1002 1002 0 0 1 24-162v-4c0-9-4-16-13-23-9-6-19-11-31-15-11-3-20-5-28-5-9 0-14 2-15 6l-1 5c0 4 1 8 4 12l8 11 4 11c2 3 2 8 2 12v4a3073 3073 0 0 0-14 176l-4 64a13022 13022 0 0 0-4 76l-7 157-2 67v104l2 33v3l-2 13-1 13v3c1 15 6 29 15 41 10 13 19 19 28 19 11 0 18-4 21-13s5-18 5-26v-7c0-8 0-17-2-24l-2-17a1136 1136 0 0 1-5-153v-60l2-62z"/>
    <path id="308fb" d="M512 921v3c1 4 5 7 13 7a622 622 0 0 0 98-30 500 500 0 0 0 178-106c28-26 50-56 67-90 18-35 27-75 27-120 0-53-11-96-33-129-21-34-50-59-86-75-35-17-75-26-118-27h-6c-34 0-70 7-107 22a532 532 0 0 0-196 130v-9a909 909 0 0 1 62-117v-5c0-10-6-18-17-26-10-8-20-12-29-12h-4l-60 28a1293 1293 0 0 1-136 53l-12 2h-13l-10-1h-7c-8 0-12 3-12 10v3c0 4 3 10 9 19 5 8 12 15 21 22a52 52 0 0 0 45 8l35-14 76-38 34-16-38 92a1382 1382 0 0 1-182 305c-4 5-6 11-6 16 0 11 4 21 12 31s17 14 26 14c10 0 18-6 26-18a3548 3548 0 0 1 117-191l59-66c40-53 84-95 132-127 49-33 103-52 160-56h9l8-1c29 0 56 5 81 16 25 10 46 28 62 52 15 25 23 58 23 101s-10 81-29 114c-20 34-44 63-74 89s-60 48-92 67a2719 2719 0 0 1-104 57c-6 4-9 8-9 13z"/>
  </g>
  <g data-strokesvg="strokes" style="stroke:var(--stroke,#000);fill:none;stroke-width:128;stroke-linecap:round">
    <path style="--i:0" d="m329 59 10 842" clip-path="url(#308fc)"/>
    <path style="--i:1" d="M44 439c133 19 230-90 325-106-140 209-123 328-250 531 0 0 416-659 667-418 251 240-218 457-218 457" clip-path="url(#308fd)"/>
  </g>
</svg>
