<svg data-strokesvg="を" viewBox="0 0 1024 1024" xmlns="http://www.w3.org/2000/svg">
  <defs>
    <clipPath id="3092d">
      <use href="#3092a"/>
    </clipPath>
    <clipPath id="3092e">
      <use href="#3092b"/>
    </clipPath>
    <clipPath id="3092f">
      <use href="#3092c"/>
    </clipPath>
  </defs>
  <g data-strokesvg="shadows" style="fill:var(--shadow,#ccc)">
    <path id="3092a" d="m447 299 111-14q42-6 62-12 20-5 26-11t6-15q-1-12-21-22t-35-10l-8 1-16 6-12 4q-9 2-34 5l-54 9-68 9-103 12q-45 6-80 5-8 0-17-4t-16-4l-7 2q-3 3-3 7 0 17 25 44 8 9 15 11l18 1 62-6 81-9z"/>
    <path id="3092b" d="M562 551c0-40-16-67-39-83q-33-24-72-25h-4q-25 0-52 13-25 11-52 28a1295 1295 0 0 0 104-185c11-22 16-38 25-59a376 376 0 0 0 20-60q5-16 5-25 0-15-14-23-12-9-27-13t-23-4q-8 0-10 2l-1 6 3 9 4 9 2 12-1 3v3q-4 21-11 44l-15 46q-10 27-25 59a1023 1023 0 0 1-158 241q-12 14-12 33l3 14q4 9 11 17 7 9 17 9 6 0 14-6 7-4 11-12 14-20 44-44 32-24 70-42t68-19h2q23 0 37 23 15 23 15 56v6l-2 68-1 37v22l-2 16q-2 9-2 15 0 7 4 19 5 12 13 22 9 11 20 11h3q30-3 30-38l-1-50v-92Z"/>
    <path id="3092c" d="m807 505 38-15q17-7 17-25t-11-36q-10-18-21-18l-4 1q-3 0-7 6l-4 7q-6 7-15 12l-120 56a2679 2679 0 0 0-179 91q-48 26-88 61t-65 73-24 73q0 47 23 72 23 26 59 38a559 559 0 0 0 119 26 694 694 0 0 0 145-3q45-4 79-12 12-1 21-10 9-7 9-17l-1-6q-4-18-21-26t-26-8l-6 1-6 2q-23 10-63 14-39 3-79 3h-21l-18-1q-39-2-74-9-35-8-57-24a52 52 0 0 1-22-43q2-32 34-67a476 476 0 0 1 144-107 1753 1753 0 0 1 149-69z"/>
  </g>
  <g data-strokesvg="strokes" style="stroke:var(--stroke,#000);fill:none;stroke-width:128;stroke-linecap:round">
    <path style="--i:0" d="m112 262 483 4" clip-path="url(#3092d)"/>
    <path style="--i:1" d="M390 45c185 123-122 386-181 536 269-174 358-131 341 158" clip-path="url(#3092e)"/>
    <path style="--i:2" d="M843 346c8 245-478 236-486 435-5 120 120 139 364 111" clip-path="url(#3092f)"/>
  </g>
</svg>
