<svg data-strokesvg="を" viewBox="0 0 1024 1024" xmlns="http://www.w3.org/2000/svg">
  <defs>
    <clipPath id="3092d">
      <use href="#3092a"/>
    </clipPath>
    <clipPath id="3092e">
      <use href="#3092b"/>
    </clipPath>
    <clipPath id="3092f">
      <use href="#3092c"/>
    </clipPath>
  </defs>
  <g data-strokesvg="shadows" style="fill:var(--shadow,#ccc)">
    <path id="3092a" d="m447 299 111-14c28-4 49-8 62-12 13-3 22-7 26-11s6-9 6-15c0-8-8-15-21-22s-25-10-35-10l-8 1-16 6-12 4c-6 2-17 3-34 5l-54 9-68 9-103 12c-30 4-57 5-80 5-5 0-11-1-17-4s-11-4-16-4l-7 2c-2 2-3 5-3 7 0 11 8 26 25 44 5 6 10 9 15 11l18 1 62-6 81-9z"/>
    <path id="3092b" d="M562 551c0-40-16-67-39-83-22-16-46-24-72-25h-4c-17 0-34 4-52 13-17 7-34 17-52 28a1295 1295 0 0 0 104-185c11-22 16-38 25-59a376 376 0 0 0 20-60c3-11 5-19 5-25 0-10-5-17-14-23-8-6-17-10-27-13s-17-4-23-4c-5 0-9 0-10 2l-1 6 3 9 4 9 2 12-1 3v3c-3 14-6 29-11 44l-15 46c-6 18-16 38-25 59a1023 1023 0 0 1-158 241c-8 9-12 20-12 33l3 14c3 6 6 12 11 17 5 6 10 9 17 9 4 0 9-2 14-6 5-3 8-7 11-12 9-13 24-28 44-44 21-16 45-30 70-42s48-19 68-19h2c15 0 28 8 37 23 10 15 15 34 15 56v6l-2 68-1 37v22l-2 16c-2 6-2 11-2 15s1 11 4 19 8 16 13 22c6 7 13 11 20 11h3c20-2 30-15 30-38l-1-50v-92Z"/>
    <path id="3092c" d="m807 505 38-15c11-5 17-13 17-25s-4-24-11-36-14-18-21-18l-4 1c-2 0-5 2-7 6l-4 7c-4 5-9 9-15 12a2694 2694 0 0 0-120 56 2679 2679 0 0 0-179 91c-32 17-61 38-88 61s-48 48-65 73c-16 24-24 49-24 73 0 31 7 55 23 72s35 30 59 38a559 559 0 0 0 119 26 694 694 0 0 0 145-3c30-3 56-7 79-12 8-1 15-4 21-10 6-5 9-10 9-17l-1-6c-2-12-10-21-21-26s-20-8-26-8l-6 1-6 2c-15 7-36 11-63 14-26 2-53 3-79 3h-21l-18-1c-26-1-50-4-74-9-23-5-42-13-57-24a52 52 0 0 1-22-43c1-21 13-44 34-67a476 476 0 0 1 144-107 1753 1753 0 0 1 149-69l95-40z"/>
  </g>
  <g data-strokesvg="strokes" style="stroke:var(--stroke,#000);fill:none;stroke-width:128;stroke-linecap:round">
    <path style="--i:0" d="m112 262 483 4" clip-path="url(#3092d)"/>
    <path style="--i:1" d="M390 45c185 123-122 386-181 536 269-174 358-131 341 158" clip-path="url(#3092e)"/>
    <path style="--i:2" d="M843 346c8 245-478 236-486 435-5 120 120 139 364 111" clip-path="url(#3092f)"/>
  </g>
</svg>
