<svg data-strokesvg="ん" viewBox="0 0 1024 1024" xmlns="http://www.w3.org/2000/svg">
  <defs>
    <clipPath id="3093b">
      <use href="#3093a"/>
    </clipPath>
  </defs>
  <g data-strokesvg="shadows" style="fill:var(--shadow,#ccc)">
    <path id="3093a" d="M423 593q0 32 5 72 5 38 16 79 13 40 33 74 22 34 54 55 34 21 81 21 59 0 108-29t88-75q39-47 65-97 27-51 41-95 15-44 15-70 0-13-5-13-10 0-30 43-8 19-27 51-18 33-45 71-26 38-60 72-33 33-71 56-38 21-79 21-38 0-62-21-25-23-39-56-14-35-21-73-5-38-5-70v-21l2-19 1-6 4-6 1-4 1-4q0-13-16-26-15-13-33-13l-13 2q-6 2-11 7l-36 38-49 52-45 46 44-95q24-53 51-107l49-102 39-80 20-40q5-8 7-16 3-8 3-15 0-16-15-26-14-10-30-15t-23-5q-8 0-12 5-2 2-2 5 0 6 5 14t5 18q0 3-14 37l-39 91-52 119-58 129-53 118-39 86-14 34-8 13q-4 4-8 13-3 7-3 16 0 15 9 34 9 18 20 18t23-9q11-10 14-21l9-24 15-35 18-29q23-33 56-71l65-72q31-33 50-50z"/>
  </g>
  <g data-strokesvg="strokes" style="stroke:var(--stroke,#000);fill:none;stroke-width:128;stroke-linecap:round">
    <path style="--i:0" d="M424 87c125 200-238 448-270 795 168-199 160-347 312-377 0 0-50 316 102 353 177 43 341-289 341-289" clip-path="url(#3093b)"/>
  </g>
</svg>
